<!-- icon666.com - MILLIONS vector ICONS FREE --><svg version="1.1" id="Capa_1" xmlns="http://www.w3.org/2000/svg" xmlns:xlink="http://www.w3.org/1999/xlink" x="0px" y="0px" viewBox="0 0 508.8 508.8" style="enable-background:new 0 0 508.8 508.8;" xml:space="preserve"><g><path style="fill:#FFD15C;" d="M298.133,78.933c0,0,6.4-9.6,12.8-11.733c2.133-1.067,4.267,1.067,4.267,3.2 c0,2.133,0,5.333-1.067,9.6c0,1.067-1.067,2.133-2.133,3.2c-1.067,1.067-2.133,4.267-4.267,7.467 c-2.133,6.4-7.467,19.2-17.067,19.2c-9.6-1.067-4.267-11.733-4.267-11.733L298.133,78.933z"></path><path style="fill:#FFD15C;" d="M211.733,78.933c0,0-6.4-9.6-12.8-11.733c-2.133-1.067-4.267,1.067-4.267,3.2 c0,2.133,0,5.333,1.067,9.6c0,1.067,1.067,2.133,2.133,3.2c1.067,1.067,2.133,4.267,4.267,7.467c2.133,6.4,7.467,19.2,17.067,19.2 c9.6-1.067,4.267-11.733,4.267-11.733L211.733,78.933z"></path></g><path style="fill:#425A6B;" d="M298.133,101.333c7.467-17.067,11.733-36.267,11.733-48C309.867,23.467,286.4,0,256.533,0 S203.2,23.467,203.2,53.333c0,12.8,4.267,30.933,11.733,48H298.133z"></path><path style="fill:#E8EAE8;" d="M381.333,290.133l-9.6-60.8c0,0-7.467-26.667-12.8-37.333c-5.333-11.733-19.2-17.067-26.667-19.2 S276.8,151.467,276.8,151.467l-22.4-8.533L232,150.4c0,0-46.933,19.2-55.467,21.333c-7.467,2.133-21.333,8.533-26.667,19.2 c-5.333,11.733-12.8,37.333-12.8,37.333l-9.6,60.8h253.867V290.133z"></path><path style="fill:#F5B54C;" d="M284.267,118.4v18.133l-5.333,16L254.4,169.6c-2.133,3.2-13.867-1.067-21.333-1.067l-13.867-28.8 V102.4L284.267,118.4"></path><path style="fill:#F05640;" d="M276.8,290.133l-1.067-13.867l-5.333-56.533c0,0-1.067-7.467-5.333-14.933 c-4.267-7.467-5.333-12.8-5.333-12.8l-1.067-4.267c-2.133-3.2-9.6-1.067-10.667,4.267c-1.067,5.333-3.2,14.933-3.2,14.933 s-6.4,18.133-9.6,34.133c-1.067,7.467-2.133,28.8-1.067,49.067H276.8z"></path><path style="fill:#F26F5A;" d="M232,177.067c0,0,13.867,7.467,16,14.933c4.267-4.267,7.467-4.267,11.733,0 c0,0,3.2-12.8,11.733-14.933C257.6,165.333,244.8,165.333,232,177.067z"></path><g><path style="fill:#F3F3F3;" d="M284.267,136.533c0,0-5.333,11.733-16,19.2l-14.933,12.8c12.8,4.267,23.467,16,33.067,28.8 l4.267-27.733C292.8,157.867,290.667,146.133,284.267,136.533L284.267,136.533z"></path><path style="fill:#F3F3F3;" d="M221.333,197.333c0,0,24.533-29.867,32-28.8c0,0-29.867-22.4-33.067-28.8 c-2.133,4.267-4.267,8.533-5.333,11.733c-2.133,4.267-2.133,9.6-1.067,14.933C213.867,174.933,217.067,192,221.333,197.333z"></path></g><polygon style="fill:#425A6B;" points="421.867,323.2 449.6,272 59.2,272 86.933,323.2 "></polygon><rect x="112.533" y="323.2" style="fill:#344A5E;" width="283.733" height="185.6"></rect><polygon style="fill:#425A6B;" points="173.333,508.8 173.333,384 335.467,384 335.467,508.8 360,508.8 360,359.467 148.8,359.467 148.8,508.8 "></polygon><path style="fill:#FFD15C;" d="M257.6,45.867c-14.933,0-26.667-5.333-35.2-12.8c-7.467,9.6-12.8,23.467-12.8,42.667 c0,36.267,21.333,66.133,46.933,66.133c25.6,0,46.933-29.867,46.933-66.133c0-18.133-4.267-30.933-11.733-40.533 C282.133,41.6,271.467,45.867,257.6,45.867z"></path></svg>