<!-- icon666.com - MILLIONS vector ICONS FREE --><svg version="1.1" id="Capa_1" xmlns="http://www.w3.org/2000/svg" xmlns:xlink="http://www.w3.org/1999/xlink" x="0px" y="0px" viewBox="0 0 368 368" style="enable-background:new 0 0 368 368;" xml:space="preserve"><path style="fill:#CCE4FF;" d="M328,168H40c-17.68,0-32,14.32-32,32v112h64h224h64V200C360,182.32,345.68,168,328,168z M312,264H56 v-48h256V264z"></path><g><path style="fill:#007AFF;" d="M272,104c0,4.416,3.576,8,8,8s8-3.584,8-8C288,46.656,241.344,0,184,0S80,46.656,80,104 c0,4.416,3.576,8,8,8s8-3.584,8-8c0-48.52,39.48-88,88-88S272,55.48,272,104z"></path><path style="fill:#007AFF;" d="M224,104c0,4.416,3.576,8,8,8s8-3.584,8-8c0-30.88-25.128-56-56-56s-56,25.12-56,56 c0,4.416,3.576,8,8,8s8-3.584,8-8c0-22.056,17.944-40,40-40S224,81.944,224,104z"></path><path style="fill:#007AFF;" d="M168,112c0,8.824,7.176,16,16,16s16-7.176,16-16s-7.176-16-16-16S168,103.176,168,112z M184.008,112.024C184,112.016,184,112.008,184,112h8L184.008,112.024z"></path><path style="fill:#007AFF;" d="M312,208H56c-4.424,0-8,3.584-8,8v48c0,4.416,3.576,8,8,8h256c4.424,0,8-3.584,8-8v-48 C320,211.584,316.424,208,312,208z M304,256H64v-32h240V256z"></path><path style="fill:#007AFF;" d="M336,160.808V40c0-4.416-3.576-8-8-8s-8,3.584-8,8v120H48V40c0-4.416-3.576-8-8-8s-8,3.584-8,8 v120.808C13.768,164.528,0,180.688,0,200v112v48c0,4.416,3.576,8,8,8h64c4.424,0,8-3.584,8-8v-40h208v40c0,4.416,3.576,8,8,8h64 c4.424,0,8-3.584,8-8v-48V200C368,180.688,354.232,164.528,336,160.808z M64,352H16v-32h48V352z M352,352h-48v-32h48V352z M352,304 H16V200c0-13.232,10.768-24,24-24h288c13.232,0,24,10.768,24,24V304z"></path></g></svg>