<svg width="40" height="40" viewBox="0 0 40 40" fill="none" xmlns="http://www.w3.org/2000/svg">
<g clip-path="url(#clip0_8_1079)">
<path d="M20 13.3333C18.2319 13.3333 16.5362 14.0356 15.286 15.2859C14.0357 16.5361 13.3333 18.2318 13.3333 19.9999C13.3333 21.768 14.0357 23.4637 15.286 24.714C16.5362 25.9642 18.2319 26.6666 20 26.6666C21.7681 26.6666 23.4638 25.9642 24.714 24.714C25.9643 23.4637 26.6667 21.768 26.6667 19.9999C26.6667 18.2318 25.9643 16.5361 24.714 15.2859C23.4638 14.0356 21.7681 13.3333 20 13.3333Z" fill="#434650"/>
<path fill-rule="evenodd" clip-rule="evenodd" d="M12 0C8.8174 0 5.76516 1.26428 3.51472 3.51472C1.26428 5.76516 0 8.8174 0 12L0 28C0 31.1826 1.26428 34.2348 3.51472 36.4853C5.76516 38.7357 8.8174 40 12 40H28C31.1826 40 34.2348 38.7357 36.4853 36.4853C38.7357 34.2348 40 31.1826 40 28V12C40 8.8174 38.7357 5.76516 36.4853 3.51472C34.2348 1.26428 31.1826 0 28 0L12 0ZM10.6667 20C10.6667 17.5246 11.65 15.1507 13.4003 13.4003C15.1507 11.65 17.5246 10.6667 20 10.6667C22.4754 10.6667 24.8493 11.65 26.5997 13.4003C28.35 15.1507 29.3333 17.5246 29.3333 20C29.3333 22.4754 28.35 24.8493 26.5997 26.5997C24.8493 28.35 22.4754 29.3333 20 29.3333C17.5246 29.3333 15.1507 28.35 13.4003 26.5997C11.65 24.8493 10.6667 22.4754 10.6667 20ZM29.3333 10.6667H32V8H29.3333V10.6667Z" fill="#434650"/>
</g>
<defs>
<clipPath id="clip0_8_1079">
<rect width="40" height="40" fill="white"/>
</clipPath>
</defs>
</svg>
