<!-- icon666.com - MILLIONS vector ICONS FREE --><svg version="1.1" id="Layer_1" xmlns="http://www.w3.org/2000/svg" xmlns:xlink="http://www.w3.org/1999/xlink" x="0px" y="0px" viewBox="0 0 512 512" style="enable-background:new 0 0 512 512;" xml:space="preserve"><circle style="fill:#3F4A5A;" cx="256" cy="256" r="256"></circle><path style="fill:#F8C963;" d="M301.353,266.702c-4.188-4.198-9.685-6.293-15.182-6.293h-131.69c-5.497,0-10.993,2.094-15.185,6.293 c-4.195,4.188-6.289,9.678-6.289,15.175c0,5.497,2.098,10.996,6.289,15.185c4.192,4.195,9.688,6.289,15.185,6.289v85.877 c0,1.83,0.697,3.663,2.091,5.057c1.401,1.404,3.231,2.101,5.061,2.101h117.39c1.827,0,3.657-0.697,5.057-2.101 c1.394-1.394,2.094-3.231,2.094-5.057v-85.877c5.497,0,10.993-2.098,15.182-6.289c4.198-4.189,6.293-9.688,6.293-15.185 C307.649,276.381,305.552,270.891,301.353,266.702z"></path><path style="fill:#F5B947;" d="M393.368,266.702c-4.192-4.198-9.685-6.293-15.182-6.293H246.493c-5.497,0-10.993,2.094-15.188,6.293 c-4.192,4.188-6.289,9.678-6.289,15.175c0,5.497,2.101,10.996,6.289,15.185c4.195,4.195,9.692,6.289,15.188,6.289v85.877 c0,1.83,0.697,3.663,2.094,5.057c1.397,1.404,3.227,2.101,5.054,2.101h117.39c1.827,0,3.663-0.697,5.061-2.101 c1.394-1.394,2.094-3.231,2.094-5.057v-85.877c5.497,0,10.99-2.098,15.182-6.289c4.198-4.189,6.286-9.688,6.286-15.185 C399.654,276.381,397.566,270.891,393.368,266.702z"></path><path style="fill:#FAD97F;" d="M260.803,382.074v-93.035h-14.31c-1.113,0-3.237-0.274-5.064-2.098 c-1.823-1.823-2.094-3.954-2.094-5.064c0-1.107,0.271-3.237,2.091-5.057c1.83-1.823,3.954-2.094,5.067-2.094h131.693 c1.107,0,3.237,0.271,5.057,2.091c1.83,1.823,2.098,3.954,2.098,5.061c0,1.11-0.268,3.24-2.098,5.061 c-1.82,1.827-3.951,2.101-5.057,2.101h-14.313v93.035H260.803z"></path><g><circle style="fill:#F5B947;" cx="287.05" cy="309.677" r="2.144"></circle><circle style="fill:#F5B947;" cx="328.968" cy="370.159" r="2.147"></circle><circle style="fill:#F5B947;" cx="339.373" cy="314.731" r="2.147"></circle><circle style="fill:#F5B947;" cx="299.305" cy="288.801" r="5.721"></circle><circle style="fill:#F5B947;" cx="274.861" cy="326.557" r="5.011"></circle><circle style="fill:#F5B947;" cx="331.115" cy="330.323" r="6.441"></circle><circle style="fill:#F5B947;" cx="352.322" cy="332.47" r="2.144"></circle><circle style="fill:#F5B947;" cx="336.103" cy="300.891" r="1.43"></circle><circle style="fill:#F5B947;" cx="281.336" cy="302.642" r="1.434"></circle><circle style="fill:#F5B947;" cx="320.776" cy="297.264" r="1.434"></circle><circle style="fill:#F5B947;" cx="355.229" cy="370.027" r="1.434"></circle><circle style="fill:#F5B947;" cx="271.492" cy="373.43" r="1.652"></circle><circle style="fill:#F5B947;" cx="360.514" cy="281.93" r="1.43"></circle><circle style="fill:#F5B947;" cx="352.851" cy="296.96" r="4.083"></circle><circle style="fill:#F5B947;" cx="337.755" cy="286.225" r="2.864"></circle><circle style="fill:#F5B947;" cx="287.351" cy="363.817" r="5.011"></circle><path style="fill:#F5B947;" d="M293.488,343.189c0,1.975-1.599,3.581-3.587,3.581c-1.972,0-3.571-1.605-3.571-3.581 s1.599-3.581,3.571-3.581C291.886,339.608,293.488,341.213,293.488,343.189z"></path><circle style="fill:#F5B947;" cx="346.343" cy="358.565" r="4.955"></circle><circle style="fill:#F5B947;" cx="319.257" cy="356.187" r="3.577"></circle><circle style="fill:#F5B947;" cx="272.714" cy="285.465" r="4.294"></circle></g><path style="fill:#FFFFFF;" d="M255.419,195.967c-3.587-3.591-8.294-5.384-12.992-5.384c-4.704,0-9.408-1.79-12.992-5.381 c-3.594-3.587-5.391-8.291-5.391-12.998v-33.072h-61.737v33.075c0,4.707-1.79,9.411-5.381,12.998 c-3.587,3.591-8.291,5.381-12.995,5.381c-4.7,0-9.411,1.794-12.992,5.384c-3.591,3.584-5.388,8.291-5.388,12.995v169.049 c0,4.704,1.797,9.408,5.388,12.995c3.581,3.587,8.291,5.384,12.992,5.384h98.492c4.697,0,9.404-1.797,12.992-5.384 c3.587-3.587,5.384-8.291,5.384-12.995V208.962C260.803,204.258,259.006,199.551,255.419,195.967z"></path><rect x="125.556" y="260.393" style="fill:#F67656;" width="135.244" height="66.131"></rect><g><rect x="150.548" y="276.348" style="fill:#FFFFFF;" width="85.266" height="6.861"></rect><rect x="150.548" y="290.056" style="fill:#FFFFFF;" width="85.266" height="6.861"></rect><rect x="150.548" y="303.765" style="fill:#FFFFFF;" width="42.635" height="6.861"></rect></g><g><path style="fill:#F67656;" d="M235.817,127.376c0-3.013-1.156-6.015-3.452-8.318c-2.292-2.292-5.305-3.445-8.318-3.445h-61.737 c-3.003,0-6.012,1.153-8.314,3.445c-2.299,2.299-3.449,5.302-3.449,8.318l0,0c0,3.013,1.15,6.018,3.449,8.318 s5.308,3.442,8.314,3.442h61.737c3.013,0,6.025-1.146,8.318-3.442C234.661,133.394,235.817,130.388,235.817,127.376 L235.817,127.376z"></path><circle style="fill:#F67656;" cx="312.353" cy="359.622" r="36.748"></circle></g><path style="fill:#FFFFFF;" d="M282.938,362.575c-1.622,0-2.94-1.315-2.94-2.94c0-8.628,3.366-16.751,9.474-22.865 c1.15-1.15,3.009-1.146,4.159-0.003c1.15,1.15,1.15,3.009,0.003,4.159c-5.004,5.008-7.759,11.647-7.759,18.709 C285.878,361.257,284.56,362.575,282.938,362.575z"></path><path style="fill:#3F4A5A;" d="M312.343,333.173c-1.622,0-2.94-1.315-2.94-2.94c0-5.54-4.509-10.048-10.048-10.048 c-1.622,0-2.94-1.315-2.94-2.94c0-1.625,1.315-2.94,2.94-2.94c8.78,0,15.925,7.145,15.925,15.925 C315.28,331.859,313.965,333.173,312.343,333.173z"></path></svg>