<!-- icon666.com - MILLIONS vector ICONS FREE --><svg version="1.1" id="Layer_1" xmlns="http://www.w3.org/2000/svg" xmlns:xlink="http://www.w3.org/1999/xlink" x="0px" y="0px" viewBox="0 0 496.158 496.158" style="enable-background:new 0 0 496.158 496.158;" xml:space="preserve"><path style="fill:#EA4949;" d="M248.082,0.003C111.07,0.003,0,111.063,0,248.085c0,137.001,111.07,248.07,248.082,248.07 c137.006,0,248.076-111.069,248.076-248.07C496.158,111.062,385.088,0.003,248.082,0.003z"></path><path style="fill:#EDC92F;" d="M248.295,137.537c-61.053,0-110.545,49.488-110.545,110.544c0,61.046,49.492,110.539,110.545,110.539 c61.049,0,110.542-49.493,110.542-110.539C358.837,187.026,309.344,137.537,248.295,137.537z"></path><g><path style="fill:#F4D65B;" d="M248.295,171.983c-42.029,0-76.099,34.067-76.099,76.098c0,42.024,34.069,76.094,76.099,76.094 c42.025,0,76.095-34.07,76.095-76.094C324.39,206.05,290.32,171.983,248.295,171.983z"></path><circle style="fill:#F4D65B;" cx="341.199" cy="248.269" r="9.804"></circle><circle style="fill:#F4D65B;" cx="155.839" cy="248.269" r="9.804"></circle><circle style="fill:#F4D65B;" cx="314.049" cy="313.799" r="9.804"></circle><circle style="fill:#F4D65B;" cx="182.989" cy="182.729" r="9.804"></circle><circle style="fill:#F4D65B;" cx="248.519" cy="340.949" r="9.803"></circle><circle style="fill:#F4D65B;" cx="248.519" cy="155.589" r="9.803"></circle><circle style="fill:#F4D65B;" cx="182.989" cy="313.799" r="9.803"></circle><circle style="fill:#F4D65B;" cx="314.059" cy="182.729" r="9.803"></circle></g><g><path style="fill:#EDC92F;" d="M85.762,193.745c-0.018-2.594-9.413-2.526-9.398,0.066l-3.479,134.156 c0.018,2.592,4.105,4.666,9.135,4.632c5.022-0.037,9.088-2.17,9.068-4.762L85.762,193.745z"></path><path style="fill:#EDC92F;" d="M103.408,172.171c-0.017-2.385-1.387-4.302-3.057-4.289s-3.016,1.95-2.999,4.332l0.291,18.525 c-1.856-0.387-4.259-0.734-7.339-0.956l-0.281-22.911c-0.016-2.38-1.384-4.299-3.056-4.287c-1.673,0.01-3.015,1.948-3,4.329 l0.282,22.641c-1.462-0.013-3.025-0.005-4.713,0.04c-0.854,0.022-1.672,0.053-2.475,0.089l-0.277-22.434 c-0.016-2.381-1.383-4.301-3.057-4.291c-1.673,0.01-3.013,1.947-2.998,4.333l0.285,22.859c-3.111,0.342-5.642,0.795-7.632,1.254 l-0.292-18.957c-0.021-2.384-1.387-4.302-3.059-4.291c-1.671,0.011-3.016,1.948-2.992,4.333l0.311,21.375 c0,0.372,0.046,0.73,0.109,1.076c0.378,22.459,5.324,33.324,23.283,33.202c17.903-0.122,22.729-10.985,22.828-33.302 c0.087-0.412,0.146-0.844,0.143-1.297L103.408,172.171z"></path><path style="fill:#EDC92F;" d="M420.555,195.641c0.022-2.598-2.059-4.722-4.654-4.747c-2.596-0.022-4.721,2.062-4.742,4.658 l-5.666,134.073c-0.024,2.597,4.033,4.735,9.056,4.787c5.029,0.047,9.127-2.022,9.149-4.612L420.555,195.641z"></path><path style="fill:#EDC92F;" d="M415.169,161.745c-13.228,0-23.949,19.458-23.949,41.41c0,13.228,10.722,23.949,23.949,23.949 c13.227,0,23.948-10.722,23.948-23.949C439.117,181.702,428.395,161.745,415.169,161.745z"></path></g></svg>