<svg xmlns="http://www.w3.org/2000/svg" width="54.529" height="50.239" viewBox="0 0 54.529 50.239">
  <g id="Group_4868" data-name="Group 4868" transform="translate(-284.17 -330.979)">
    <g id="Group_147" data-name="Group 147" transform="translate(357.839 238.4)">
      <g id="Group_146" data-name="Group 146" transform="translate(-73.669 92.579)">
        <path id="Path_718" data-name="Path 718" d="M640.012,277.107c.415-.578.847-1.178,1.249-1.818a12.933,12.933,0,0,0,1.539-6.981,3.726,3.726,0,0,1,.817,2.257c.027.354.019.761.01,1.158-.02.907-.038,1.689.328,2.063a.685.685,0,0,0,.5.205,1.016,1.016,0,0,0,.236-.03c6.13-1.534,6.276-9.827,6.174-12.349,1.19,1.369,1.006,3.73.864,5.508-.124,1.575-.22,2.816.692,2.914.07.006.143.011.222.011,1.414,0,3.407-1.227,4.754-4.667,2.953-7.535-4.6-14.855-8.995-17.28-.172-.1-.131-.165-.119-.192.03-.066.155-.053.155-.053,1.189.064,3.543.795,7.289,4.3a1.964,1.964,0,0,0,1.128.6.67.67,0,0,0,.55-.267c.242-.305.5-1.011-.12-3.6A21.691,21.691,0,0,0,651.1,238.6c-.046-.04-.117-.106-.065-.176s.212,0,.212,0c2.082.8,6.261,3.388,8.339,11.239,1.842,6.954,1.985,13.282.242,16.936-1.528,3.2-4.25,5.844-10.964,9.766-7.9,4.618-7.141,11.646-6.946,12.263-.094,0-.186,0-.277,0-3.936,0-4.214-3.255-4.223-3.408-.458-3.892,1.026-5.949,2.6-8.124" transform="translate(-606.524 -238.4)" fill="#ae5627"/>
        <path id="Path_719" data-name="Path 719" d="M572.064,277.107c-.419-.578-.849-1.178-1.254-1.818a13.006,13.006,0,0,1-1.536-6.981,3.748,3.748,0,0,0-.816,2.257c-.029.354-.019.761-.013,1.158.024.907.042,1.689-.328,2.063a.682.682,0,0,1-.5.205,1.011,1.011,0,0,1-.237-.03c-6.127-1.534-6.276-9.827-6.175-12.349-1.188,1.369-1,3.73-.862,5.508.124,1.575.224,2.816-.693,2.914-.065.006-.144.011-.22.011-1.415,0-3.4-1.227-4.756-4.667-2.952-7.535,4.6-14.855,8.993-17.28.175-.1.134-.165.123-.192-.029-.066-.158-.053-.158-.053-1.19.064-3.543.795-7.288,4.3a1.976,1.976,0,0,1-1.129.6.675.675,0,0,1-.552-.267c-.243-.305-.5-1.011.119-3.6a21.7,21.7,0,0,1,6.193-10.279c.048-.04.117-.106.063-.176s-.208,0-.208,0c-2.082.8-6.261,3.388-8.338,11.239-1.842,6.954-1.988,13.282-.244,16.936,1.527,3.2,4.249,5.844,10.964,9.766,7.9,4.618,7.139,11.646,6.949,12.263.089,0,.183,0,.273,0,3.936,0,4.215-3.255,4.227-3.408.454-3.892-1.03-5.949-2.6-8.124" transform="translate(-551.023 -238.4)" fill="#ae5627"/>
      </g>
    </g>
  </g>
</svg>
