<svg width="24" height="24" viewBox="0 0 24 24" fill="none" xmlns="http://www.w3.org/2000/svg">
<path d="M18 13.7143C18.682 13.7143 19.3361 13.9852 19.8183 14.4674C20.3005 14.9497 20.5714 15.6037 20.5714 16.2857V16.8986C20.5714 19.9646 16.9629 22.2857 12 22.2857C7.03716 22.2857 3.42859 20.0854 3.42859 16.8986V16.2857C3.42859 15.6037 3.69951 14.9497 4.18174 14.4674C4.66398 13.9852 5.31803 13.7143 6.00002 13.7143H18ZM18 15H6.00002C5.68054 15 5.3725 15.1189 5.13593 15.3336C4.89935 15.5484 4.75119 15.8435 4.7203 16.1614L4.7143 16.2857V16.8986C4.7143 19.1906 7.61916 21 12 21C16.2223 21 19.1615 19.1957 19.2815 17.0366L19.2857 16.8986V16.2857C19.2857 15.9662 19.1668 15.6582 18.9521 15.4216C18.7374 15.1851 18.4423 15.0369 18.1243 15.006L18 15ZM12 1.71429C12.6754 1.71429 13.3441 1.84732 13.9681 2.10577C14.5921 2.36422 15.159 2.74304 15.6366 3.2206C16.1141 3.69816 16.4929 4.2651 16.7514 4.88907C17.0099 5.51303 17.1429 6.18178 17.1429 6.85715C17.1429 7.53252 17.0099 8.20128 16.7514 8.82524C16.4929 9.4492 16.1141 10.0161 15.6366 10.4937C15.159 10.9713 14.5921 11.3501 13.9681 11.6085C13.3441 11.867 12.6754 12 12 12C10.636 12 9.32794 11.4582 8.36347 10.4937C7.399 9.52923 6.85716 8.22112 6.85716 6.85715C6.85716 5.49318 7.399 4.18507 8.36347 3.2206C9.32794 2.25613 10.636 1.71429 12 1.71429ZM12 3.00001C10.977 3.00001 9.99596 3.40638 9.27261 4.12974C8.54925 4.85309 8.14288 5.83417 8.14288 6.85715C8.14288 7.88013 8.54925 8.86121 9.27261 9.58456C9.99596 10.3079 10.977 10.7143 12 10.7143C13.023 10.7143 14.0041 10.3079 14.7274 9.58456C15.4508 8.86121 15.8572 7.88013 15.8572 6.85715C15.8572 5.83417 15.4508 4.85309 14.7274 4.12974C14.0041 3.40638 13.023 3.00001 12 3.00001Z" fill="white"/>
</svg>
