<!-- icon666.com - MILLIONS vector ICONS FREE --><svg version="1.1" id="Capa_1" xmlns="http://www.w3.org/2000/svg" xmlns:xlink="http://www.w3.org/1999/xlink" x="0px" y="0px" viewBox="0 0 512 512" style="enable-background:new 0 0 512 512;" xml:space="preserve"><circle style="fill:#FFAA20;" cx="256" cy="256" r="256"></circle><path style="fill:#E67500;" d="M511.456,272.496L333.838,96.369c-9.867-10.776-24.043-17.546-39.772-17.546 c-29.739,0-53.934,24.194-53.934,53.934v4.332L198.589,95.35c-9.816-10.182-23.587-16.527-38.814-16.527 c-29.739,0-53.934,24.194-53.934,53.934v20.421l82.733,82.576V399l109.533,109.533C414.16,489.325,503.849,392.074,511.456,272.496z "></path><path style="fill:#FFFFFF;" d="M294.066,78.823c-29.739,0-53.934,24.194-53.934,53.934v20.421h25.134v-20.421 c0-15.88,12.919-28.799,28.799-28.799s28.799,12.92,28.799,28.799v60.217H213.708v-60.217c0-29.739-24.195-53.934-53.934-53.934 s-53.934,24.194-53.934,53.934v20.421h25.134v-20.421c0-15.88,12.919-28.799,28.799-28.799s28.8,12.92,28.8,28.799V399h25.134 v-86.115h109.158V399H348V132.757C348,103.018,323.805,78.823,294.066,78.823z M213.708,281.557v-57.255h109.158v57.255H213.708z"></path><path style="fill:#FFEC97;" d="M294.07,78.82c-14.85,0-28.3,6.03-38.07,15.77v58.59h9.27v-20.42c0-15.88,12.92-28.8,28.8-28.8 s28.8,12.92,28.8,28.8v60.21H256v31.33h66.87v57.26H256v31.32h66.87V399H348V132.76C348,103.02,323.81,78.82,294.07,78.82z"></path><path style="fill:#00EFD1;" d="M256,512c106.004,0,196.959-64.429,235.843-156.263C477.102,362.47,464.217,374,437.663,374 c-45.419,0-45.419-20-90.837-20c-45.417,0-45.417,20-90.833,20c-45.415,0-45.415-20-90.83-20c-45.416,0-45.416,20-90.832,20 c-26.55,0-39.435-11.528-54.173-18.262C59.042,447.571,149.997,512,256,512z"></path><path style="fill:#00AD95;" d="M491.84,355.74C452.96,447.57,362,512,256,512V374c35.62,0,43.3-12.3,66.87-17.61 c6.48-1.46,14.16-2.39,23.96-2.39c0.39,0,0.78,0,1.17,0.01c44.24,0.33,44.63,19.99,89.66,19.99 C464.22,374,477.1,362.47,491.84,355.74z"></path><g><rect x="104.84" y="397.33" style="fill:#FFFFFF;" width="80.08" height="18"></rect><rect x="168.92" y="441.67" style="fill:#FFFFFF;" width="58" height="18"></rect></g><g><rect x="279.65" y="409.33" style="fill:#FFEC97;" width="58" height="18"></rect><rect x="373.92" y="391.33" style="fill:#FFEC97;" width="58" height="18"></rect></g></svg>