<!-- icon666.com - MILLIONS vector ICONS FREE --><svg version="1.1" id="Layer_1" xmlns="http://www.w3.org/2000/svg" xmlns:xlink="http://www.w3.org/1999/xlink" x="0px" y="0px" viewBox="0 0 496.063 496.063" style="enable-background:new 0 0 496.063 496.063;" xml:space="preserve"><g><path style="fill:#FFD422;" d="M347.779,272.174h20v58.36c1.232-0.031,2.479-0.05,3.75-0.05c37.05,0,57.01,13.45,73.05,24.26 c1.082,0.729,2.145,1.445,3.2,2.149V232.174h-100V272.174z"></path><path style="fill:#FFE477;" d="M327.779,338.305v-66.131h20v-40h-100v140c24.83,0,36.25-7.69,50.7-17.43 C306.646,349.24,315.839,343.054,327.779,338.305z"></path><path style="fill:#6A563D;" d="M327.779,272.174v66.131c10.704-4.258,23.619-7.358,40-7.771v-58.36H327.779z"></path><polygon style="fill:#FFA733;" points="347.779,232.174 496.063,232.174 347.779,83.89 "></polygon><polygon style="fill:#FFB655;" points="347.779,83.89 199.495,232.174 347.779,232.174 "></polygon><path style="fill:#FF9811;" d="M132.135,330.716V179.243c-6.223-2.359-12.961-3.662-20-3.662s-13.777,1.302-20,3.661v155.149 c9.054-2.402,19.516-3.909,31.894-3.909C126.831,330.484,129.523,330.57,132.135,330.716z"></path><path style="fill:#5EAC24;" d="M112.135,175.582c7.039,0,13.777,1.302,20,3.662c21.362,8.099,36.592,28.765,36.592,52.931h30 c0-28.366-13.71-53.59-34.852-69.394c14.009,2.427,27.128,10.074,36.125,22.457l24.271-17.634 c-16.673-22.948-42.59-35.296-68.983-35.655c12.76-6.271,27.868-7.796,42.424-3.066l9.271-28.531 c-22.013-7.154-45.479-5.311-66.078,5.185c-11.382,5.799-21.13,13.869-28.791,23.635L112.135,175.582z"></path><path style="fill:#6DC82A;" d="M112.112,129.171c-21.817-27.68-59.396-40.329-94.823-28.82l9.271,28.532 c14.556-4.729,29.664-3.205,42.424,3.066C42.59,132.307,16.672,144.655,0,167.604l24.271,17.634 c8.997-12.385,22.116-20.032,36.126-22.458c-21.142,15.804-34.854,41.028-34.854,69.395h30c0-24.166,15.23-44.832,36.592-52.931 c6.223-2.359,12.961-3.661,20-3.661L112.112,129.171z"></path><path style="fill:#FFA733;" d="M444.579,354.744c-16.04-10.81-36-24.26-73.05-24.26c-1.271,0-2.518,0.019-3.75,0.05 c-16.381,0.413-29.296,3.513-40,7.771c-11.94,4.749-21.133,10.935-29.3,16.439c-14.45,9.74-25.87,17.43-50.7,17.43v40h247.5v-40 c-22.971,0-34.466-6.583-47.5-15.281C446.725,356.189,445.661,355.473,444.579,354.744z"></path><path style="fill:#FFB655;" d="M247.779,372.174c-24.83,0-36.25-7.69-50.7-17.43c-14.827-9.992-33.023-22.232-64.944-24.027 c-2.612-0.147-5.304-0.233-8.106-0.233c-12.378,0-22.84,1.506-31.894,3.909c-18.047,4.789-30.475,13.153-41.156,20.351 c-14.46,9.74-25.87,17.43-50.7,17.43v40h247.5V372.174z"></path></g></svg>