<!-- icon666.com - MILLIONS vector ICONS FREE --><svg version="1.1" id="Capa_1" xmlns="http://www.w3.org/2000/svg" xmlns:xlink="http://www.w3.org/1999/xlink" x="0px" y="0px" viewBox="0 0 512.001 512.001" style="enable-background:new 0 0 512.001 512.001;" xml:space="preserve"><path style="fill:#F9545B;" d="M156.492,236.925c0,0-8.074-62.478,18.008-91.114c46.538-51.097,122.176-22.347,138.395-65.01 c5.636-14.825,0-38.416-20.193-55.161c-20.194-16.745-65.012-23.148-107.368-3.447c-42.356,19.7-58.389,58.419-62.549,76.831 C102.931,186.916,156.492,236.925,156.492,236.925z"></path><path style="fill:#FF6E79;" d="M382.267,97.584c-15.197-35.065-46.574-58.108-81.61-64.184c13.65,15.717,17.046,34.75,12.237,47.402 c-7.135,18.77-25.773,23.717-48.372,27.723c37.691,4.157,72.154,27.855,88.313,65.138c5.928,13.678,9.412,27.902,9.597,41.931 C391.196,184.796,400.094,138.717,382.267,97.584z"></path><path style="fill:#FFDAAE;" d="M350.227,350.061H295.48l-4.145-37.601c41.306-13.722,71.096-48.676,71.096-94.585v-2.286 c-0.186-14.028-3.67-28.252-9.597-41.929c-16.159-37.284-50.622-60.981-88.313-65.138c-28.769,5.099-63.959,8.672-90.022,37.289 c-25.024,27.476-18.607,86.095-18.046,90.802c6.848,36.276,33.408,63.544,68.429,75.547l-4.164,37.9h-53.81 c-23.948,0-43.373,19.415-43.373,43.363V502h270.053V393.424C393.59,369.475,374.176,350.061,350.227,350.061z"></path><g><circle style="fill:#65EAEA;" cx="314.258" cy="203.198" r="36.446"></circle><circle style="fill:#65EAEA;" cx="201.419" cy="203.198" r="36.446"></circle></g><path d="M257.84,290.749c-6.332,0-12.663-2.295-17.712-6.885c-4.087-3.715-4.388-10.04-0.673-14.126 c3.716-4.087,10.039-4.387,14.126-0.672c2.428,2.208,6.09,2.208,8.518,0c4.085-3.715,10.411-3.414,14.126,0.672 c3.715,4.086,3.414,10.411-0.673,14.126C270.503,288.454,264.172,290.749,257.84,290.749z"></path><rect x="167.799" y="426.026" style="fill:#FF8C5A;" width="180.079" height="75.969"></rect><path d="M350.227,340.06h-45.79l-2.306-20.92c19.403-7.839,35.93-20.092,48.131-35.758c14.186-18.215,21.81-40.289,22.138-63.923 c29.963-34.335,37.493-83.28,19.043-125.852c-15.564-35.911-47.425-61.646-85.664-69.414c-2.055-2.155-4.279-4.247-6.696-6.251 C286.968,7.895,268.817,1.619,247.974,0.27c-22.532-1.454-45.643,2.988-66.856,12.856c-52.305,24.327-65.893,73.986-68.085,83.694 c-10.878,48.151-0.517,85.485,10.092,108.326c8.968,19.311,19.573,31.787,24.202,36.715c7.683,34.434,32.198,62.574,66.771,76.908 l-2.34,21.292H166.91c-29.43,0-53.373,23.939-53.373,53.363v108.577c0,5.523,4.478,10,10,10h44.262h180.083h45.71 c5.522,0,10-4.477,10-10V393.424C403.591,363.999,379.652,340.06,350.227,340.06z M373.091,101.561 c12.608,29.092,10.69,61.726-4.145,88.267c-0.224-0.88-0.46-1.76-0.706-2.642c-0.076-0.275-0.159-0.55-0.238-0.825 c-0.179-0.627-0.361-1.255-0.551-1.883c-0.107-0.355-0.22-0.71-0.331-1.065c-0.172-0.552-0.346-1.103-0.527-1.655 c-0.124-0.379-0.251-0.758-0.379-1.137c-0.18-0.535-0.364-1.07-0.552-1.606c-0.134-0.381-0.269-0.762-0.407-1.143 c-0.197-0.545-0.4-1.091-0.605-1.637c-0.138-0.366-0.274-0.732-0.415-1.098c-0.23-0.596-0.467-1.192-0.707-1.789 c-0.126-0.314-0.248-0.627-0.376-0.94c-0.372-0.907-0.752-1.815-1.146-2.723c-0.473-1.092-0.968-2.172-1.472-3.245 c-0.14-0.298-0.282-0.595-0.425-0.891c-0.415-0.865-0.839-1.723-1.274-2.575c-0.114-0.224-0.225-0.449-0.34-0.673 c-0.537-1.035-1.088-2.061-1.653-3.077c-0.138-0.249-0.28-0.494-0.42-0.741c-0.456-0.807-0.921-1.607-1.395-2.401 c-0.167-0.279-0.332-0.559-0.501-0.836c-0.603-0.991-1.216-1.976-1.846-2.947c-0.072-0.111-0.147-0.219-0.22-0.33 c-0.57-0.872-1.152-1.734-1.743-2.589c-0.193-0.279-0.388-0.557-0.583-0.834c-0.557-0.791-1.122-1.574-1.698-2.349 c-0.126-0.17-0.249-0.342-0.376-0.512c-0.688-0.918-1.391-1.823-2.105-2.719c-0.193-0.242-0.389-0.481-0.584-0.722 c-0.567-0.701-1.142-1.395-1.724-2.082c-0.201-0.237-0.4-0.476-0.603-0.711c-0.746-0.866-1.501-1.723-2.271-2.567 c-0.139-0.152-0.281-0.301-0.421-0.452c-0.653-0.708-1.314-1.408-1.984-2.1c-0.236-0.244-0.473-0.488-0.711-0.73 c-0.71-0.722-1.428-1.436-2.156-2.139c-0.107-0.104-0.212-0.21-0.319-0.313c-0.823-0.789-1.66-1.563-2.505-2.328 c-0.241-0.218-0.485-0.434-0.727-0.65c-0.671-0.598-1.349-1.188-2.033-1.77c-0.221-0.188-0.441-0.379-0.664-0.566 c-0.87-0.73-1.749-1.448-2.639-2.152c-0.198-0.157-0.399-0.309-0.598-0.465c-0.727-0.568-1.461-1.128-2.201-1.679 c-0.268-0.199-0.535-0.399-0.805-0.596c-0.895-0.656-1.797-1.302-2.711-1.933c-0.036-0.025-0.071-0.05-0.106-0.075 c-0.943-0.649-1.898-1.28-2.86-1.902c-0.278-0.18-0.558-0.358-0.838-0.535c-0.775-0.493-1.556-0.977-2.343-1.451 c-0.223-0.134-0.443-0.272-0.667-0.405c-0.977-0.581-1.963-1.148-2.958-1.702c-0.247-0.137-0.497-0.271-0.745-0.407 c-0.795-0.435-1.595-0.862-2.4-1.279c-0.289-0.15-0.577-0.3-0.867-0.448c-1.021-0.519-2.047-1.027-3.083-1.516 c-0.113-0.054-0.228-0.104-0.341-0.157c-0.699-0.328-1.399-0.652-2.105-0.966c1.087-0.578,2.143-1.195,3.177-1.839 c0.102-0.063,0.205-0.125,0.307-0.189c0.453-0.286,0.898-0.582,1.34-0.882c0.122-0.083,0.244-0.165,0.366-0.248 c0.434-0.3,0.861-0.608,1.284-0.922c0.118-0.088,0.236-0.176,0.353-0.265c0.426-0.323,0.847-0.651,1.261-0.988 c0.097-0.079,0.193-0.161,0.29-0.241c0.43-0.357,0.857-0.719,1.274-1.092c0.04-0.036,0.079-0.074,0.12-0.111 c1.407-1.271,2.739-2.639,3.985-4.12c0.018-0.021,0.037-0.041,0.055-0.062c0.315-0.377,0.62-0.767,0.924-1.158 c0.143-0.183,0.288-0.363,0.428-0.55c0.263-0.35,0.519-0.711,0.773-1.072c0.172-0.245,0.344-0.49,0.513-0.74 c0.229-0.34,0.453-0.687,0.674-1.037c0.185-0.293,0.367-0.59,0.546-0.89c0.2-0.334,0.398-0.67,0.59-1.013 c0.192-0.341,0.378-0.691,0.563-1.042c0.171-0.324,0.344-0.647,0.509-0.979c0.203-0.407,0.396-0.827,0.589-1.247 c0.137-0.297,0.279-0.589,0.412-0.892c0.264-0.605,0.516-1.228,0.762-1.858c0.05-0.128,0.105-0.247,0.154-0.376 c0.217-0.571,0.42-1.154,0.611-1.746c3.267-9.946,2.769-21.378-1.069-32.517C344.548,60.006,362.966,78.197,373.091,101.561z M132.54,101.227c1.832-8.108,13.188-49.585,57.013-69.967c16.925-7.873,34.508-11.251,50.373-11.251 c19.566,0,36.518,5.14,46.393,13.329c3.14,2.604,5.854,5.39,8.164,8.272c0.003,0.003,0.005,0.007,0.008,0.01 c2.676,3.34,4.809,6.807,6.434,10.264c0.043,0.091,0.083,0.182,0.125,0.273c0.159,0.343,0.311,0.686,0.46,1.028 c0.103,0.238,0.203,0.476,0.301,0.713c0.07,0.168,0.138,0.336,0.205,0.504c3.199,8.039,3.578,15.649,2.093,21.109 c-0.021,0.075-0.042,0.149-0.064,0.223c-0.06,0.211-0.122,0.42-0.187,0.624c-0.079,0.243-0.162,0.482-0.249,0.717 c-0.021,0.057-0.04,0.117-0.061,0.174c-0.033,0.085-0.069,0.167-0.102,0.251c-0.132,0.338-0.268,0.672-0.411,0.998 c-0.085,0.195-0.177,0.383-0.267,0.574c-0.097,0.207-0.193,0.414-0.294,0.616c-0.115,0.229-0.236,0.454-0.358,0.678 c-0.078,0.144-0.156,0.289-0.237,0.43c-0.149,0.262-0.302,0.519-0.461,0.773c-0.049,0.08-0.1,0.159-0.15,0.238 c-4.496,7.026-12.41,10.95-24.486,13.973c-6.213,1.536-13.459,2.827-21.792,4.236c-1.008,0.17-2.028,0.343-3.053,0.518 c-16.926,2.882-36.105,6.479-54.249,15.548c-8.838,4.418-17.43,10.13-25.394,17.702c-0.915,0.87-1.824,1.76-2.722,2.68 c-0.83,0.85-1.652,1.722-2.466,2.616c-0.465,0.51-0.918,1.03-1.364,1.557c-0.159,0.188-0.312,0.38-0.468,0.57 c-0.281,0.342-0.562,0.684-0.836,1.032c-0.187,0.238-0.369,0.479-0.553,0.72c-0.231,0.303-0.462,0.607-0.687,0.915 c-0.2,0.272-0.396,0.547-0.591,0.822c-0.198,0.28-0.395,0.561-0.589,0.844c-0.207,0.302-0.412,0.606-0.614,0.912 c-0.167,0.253-0.331,0.508-0.495,0.763c-0.218,0.34-0.436,0.681-0.648,1.026c-0.124,0.202-0.246,0.407-0.368,0.611 c-0.242,0.402-0.484,0.805-0.719,1.213c-0.032,0.056-0.062,0.112-0.094,0.168c-9.462,16.56-12.719,37.54-13.544,54.872 C133.638,183.493,121.941,148.146,132.54,101.227z M177.799,492v-55.97h160.083V492H177.799z M383.591,492h-25.71V426.03 c0-5.523-4.478-10-10-10H167.799c-5.522,0-10,4.477-10,10V492h-24.262v-98.577c0-18.397,14.971-33.363,33.373-33.363h53.81 c5.101,0,9.383-3.838,9.94-8.908l4.164-37.9c0.511-4.651-2.271-9.035-6.698-10.552c-32.697-11.205-55.768-36.46-61.781-67.598 c-0.001-0.005-0.001-0.01-0.002-0.015c-0.04-0.355-0.102-0.933-0.175-1.701c8.525,9.94,21.161,16.257,35.253,16.257 c25.61,0,46.446-20.836,46.446-46.446s-20.836-46.446-46.446-46.446c-10.492,0-20.179,3.501-27.963,9.39 c1.835-4.269,4.046-8.19,6.708-11.559c0.02-0.025,0.04-0.049,0.06-0.074c0.538-0.677,1.092-1.333,1.667-1.964 c0.669-0.735,1.346-1.451,2.029-2.15c21.202-21.663,49.417-26.435,74.402-30.661c2.065-0.349,4.119-0.698,6.16-1.053 c0.092-0.016,0.188-0.032,0.28-0.048c0.34,0.042,0.68,0.084,1.019,0.13c0.535,0.072,1.069,0.146,1.601,0.227 c0.555,0.084,1.107,0.175,1.659,0.268c0.529,0.089,1.058,0.18,1.585,0.278c0.551,0.102,1.099,0.212,1.647,0.323 c0.522,0.106,1.044,0.213,1.563,0.327c0.547,0.12,1.092,0.248,1.637,0.378c0.515,0.123,1.03,0.246,1.543,0.376 c0.543,0.138,1.083,0.285,1.622,0.432c0.507,0.139,1.014,0.277,1.518,0.424c0.539,0.156,1.075,0.321,1.611,0.486 c0.499,0.154,0.997,0.308,1.493,0.469c0.536,0.175,1.068,0.358,1.6,0.541c0.489,0.169,0.978,0.337,1.464,0.513 c0.531,0.192,1.058,0.393,1.585,0.595c0.48,0.184,0.961,0.366,1.438,0.557c0.526,0.211,1.048,0.43,1.57,0.649 c0.47,0.197,0.941,0.394,1.407,0.598c0.52,0.228,1.036,0.465,1.552,0.701c0.461,0.212,0.923,0.422,1.38,0.64 c0.514,0.246,1.024,0.5,1.534,0.754c0.451,0.225,0.902,0.447,1.349,0.679c0.508,0.263,1.011,0.535,1.514,0.807 c0.44,0.238,0.882,0.473,1.318,0.717c0.502,0.281,0.999,0.571,1.495,0.861c0.429,0.25,0.859,0.497,1.284,0.753 c0.495,0.298,0.984,0.606,1.473,0.912c0.418,0.262,0.838,0.521,1.252,0.789c0.487,0.315,0.968,0.641,1.449,0.964 c0.407,0.274,0.816,0.544,1.219,0.824c0.479,0.332,0.95,0.674,1.424,1.015c0.395,0.285,0.793,0.566,1.184,0.857 c0.472,0.35,0.936,0.71,1.401,1.068c0.383,0.295,0.768,0.586,1.146,0.886c0.463,0.367,0.917,0.744,1.373,1.119 c0.371,0.305,0.745,0.607,1.111,0.917c0.453,0.384,0.898,0.779,1.345,1.171c0.358,0.314,0.719,0.625,1.072,0.945 c0.445,0.402,0.88,0.815,1.318,1.225c0.344,0.322,0.692,0.641,1.031,0.969c0.436,0.42,0.862,0.851,1.29,1.279 c0.33,0.33,0.664,0.656,0.989,0.991c0.426,0.438,0.84,0.886,1.258,1.332c0.317,0.338,0.638,0.672,0.95,1.015 c0.416,0.456,0.82,0.923,1.227,1.387c0.301,0.344,0.608,0.683,0.905,1.032c0.406,0.476,0.8,0.962,1.197,1.446 c0.286,0.349,0.578,0.693,0.859,1.045c0.398,0.498,0.783,1.007,1.172,1.514c0.268,0.349,0.541,0.694,0.805,1.047 c0.392,0.525,0.771,1.061,1.153,1.595c0.247,0.345,0.5,0.685,0.743,1.034c0.246,0.353,0.48,0.715,0.722,1.072 c-6.203-3.076-13.181-4.814-20.561-4.814c-25.61,0-46.446,20.836-46.446,46.446s20.836,46.446,46.446,46.446 c15.217,0,28.748-7.356,37.225-18.699c-4.833,33.38-28.156,60.351-63.301,72.025c-4.476,1.487-7.304,5.898-6.787,10.586 l4.145,37.601c0.559,5.068,4.841,8.904,9.939,8.904h54.748c18.397,0,33.363,14.967,33.363,33.363V492H383.591z M174.974,203.198 c0-14.583,11.863-26.446,26.446-26.446c14.583,0,26.446,11.864,26.446,26.446s-11.863,26.446-26.446,26.446 C186.838,229.644,174.974,217.78,174.974,203.198z M340.705,203.198c0,14.583-11.863,26.446-26.446,26.446 c-14.583,0-26.446-11.864-26.446-26.446s11.863-26.446,26.446-26.446C328.842,176.751,340.705,188.615,340.705,203.198z"></path><path d="M343.479,399.651c-0.65,0-1.301-0.07-1.95-0.2c-0.641-0.13-1.27-0.32-1.87-0.57c-0.61-0.25-1.19-0.56-1.73-0.92 c-0.54-0.36-1.06-0.78-1.52-1.24c-1.86-1.86-2.93-4.44-2.93-7.07c0-0.65,0.069-1.31,0.199-1.96c0.13-0.63,0.32-1.26,0.57-1.87 c0.25-0.6,0.56-1.18,0.92-1.72c0.36-0.55,0.78-1.06,1.24-1.52c0.46-0.461,0.979-0.88,1.52-1.25c0.54-0.36,1.12-0.67,1.73-0.92 c0.6-0.25,1.229-0.44,1.87-0.57c1.29-0.26,2.62-0.26,3.91,0c0.64,0.13,1.26,0.32,1.869,0.57c0.601,0.25,1.181,0.56,1.721,0.92 c0.55,0.37,1.06,0.789,1.52,1.25c1.87,1.86,2.931,4.44,2.931,7.07c0,2.63-1.061,5.21-2.931,7.07c-0.46,0.46-0.97,0.88-1.52,1.24 c-0.54,0.36-1.12,0.67-1.721,0.92c-0.609,0.25-1.23,0.44-1.869,0.57C344.789,399.581,344.138,399.651,343.479,399.651z"></path><path d="M306.925,399.649H167.799c-5.522,0-10-4.477-10-10c0-5.523,4.478-10,10-10h139.126c5.522,0,10,4.477,10,10 S312.447,399.649,306.925,399.649z"></path></svg>