<svg width="61" height="25" viewBox="0 0 61 25" fill="none" xmlns="http://www.w3.org/2000/svg">
<path d="M10.481 9.09864V12.9401H15.7985C15.6913 13.5525 15.4617 14.1369 15.1234 14.6586C14.7852 15.1802 14.3452 15.6283 13.8298 15.976C12.9414 16.586 11.8071 16.9333 10.4773 16.9333C7.90701 16.9333 5.73438 15.1723 4.95492 12.8153C4.54704 11.5753 4.54704 10.2372 4.95492 8.99713C5.73438 6.62614 7.90701 4.86513 10.4773 4.86513C11.174 4.85215 11.8663 4.97786 12.514 5.23494C13.1616 5.49202 13.7517 5.87534 14.2498 6.3626L17.0697 3.51107C15.2937 1.82369 12.9307 0.893842 10.481 0.918445C8.6485 0.925477 6.85444 1.44464 5.30136 2.41733C3.74828 3.39002 2.49804 4.7775 1.69178 6.42313C0.997277 7.81386 0.635742 9.34706 0.635742 10.9016C0.635742 12.4561 0.997277 13.9893 1.69178 15.38V15.394C2.49826 17.0386 3.74884 18.4248 5.30208 19.3958C6.85532 20.3668 8.64926 20.8838 10.481 20.8884C13.1323 20.8884 15.3748 20.0009 16.9998 18.4755C18.8624 16.7424 19.9249 14.1777 19.9249 11.1269C19.926 10.4475 19.8715 9.76916 19.762 9.09864H10.481ZM46.7452 8.72614C45.8019 7.85261 44.5167 7.40933 42.8908 7.40933C40.7991 7.40933 39.2272 8.186 38.1879 9.72445L40.1296 10.9593C40.8404 9.90387 41.8108 9.37616 43.0407 9.37616C43.8237 9.37806 44.5784 9.66964 45.1593 10.1947C45.4424 10.4405 45.6694 10.7442 45.8251 11.0853C45.9808 11.4264 46.0615 11.7969 46.0617 12.1718V12.6849C45.2143 12.2128 44.148 11.9632 42.8358 11.9632C41.3048 11.9632 40.0746 12.3245 39.1583 13.0593C38.2419 13.7941 37.7781 14.7644 37.7781 15.9984C37.7638 16.5498 37.8729 17.0975 38.0976 17.6013C38.3222 18.1052 38.6566 18.5525 39.0763 18.9104C39.9377 19.6871 41.032 20.0754 42.3162 20.0754C43.8332 20.0754 45.0364 19.3956 45.9481 18.0369H46.0412V19.6871H48.1468V12.3581C48.1533 10.8168 47.6886 9.59593 46.7452 8.72614ZM44.9544 17.0423C44.6315 17.3709 44.2464 17.632 43.8216 17.8104C43.3968 17.9888 42.9408 18.081 42.4801 18.0816C41.8607 18.0919 41.2571 17.8861 40.7731 17.4995C40.5472 17.3303 40.3641 17.1105 40.2384 16.8577C40.1128 16.6049 40.0481 16.3263 40.0495 16.044C40.0495 15.3921 40.3493 14.851 40.9379 14.4217C41.5265 13.9924 42.291 13.7698 43.1795 13.7698C44.405 13.7549 45.3642 14.0343 46.0477 14.5875C46.0477 15.5309 45.679 16.3485 44.9544 17.0423ZM36.2332 3.81839C35.739 3.32435 35.1501 2.93524 34.5018 2.67439C33.8536 2.41355 33.1593 2.28635 32.4606 2.30044H26.6244V19.6908H28.825V12.6467H32.4569C33.9469 12.6467 35.2041 12.1476 36.2295 11.1632C36.3114 11.0804 36.3934 10.9966 36.4762 10.9137C37.3736 9.93434 37.8508 8.642 37.8054 7.3145C37.7599 5.98699 37.1954 4.73032 36.2332 3.81467V3.81839ZM34.6891 9.61363C34.4117 9.90975 34.0744 10.1433 33.6996 10.2988C33.3248 10.4542 32.9211 10.528 32.5156 10.5151H28.825V4.44234H32.5156C33.3032 4.43948 34.0598 4.74852 34.6202 5.30189C35.1904 5.86965 35.5165 6.6374 35.5294 7.4419C35.5423 8.24641 35.2408 9.0242 34.6891 9.6099V9.61363ZM57.844 7.79487L54.4412 16.3345H54.3993L50.9145 7.79487H48.5221L53.3451 18.9281L50.6118 24.918H52.8795L60.2364 7.79487H57.844Z" fill="white"/>
</svg>
