<svg width="269" height="57" viewBox="0 0 269 57" fill="none" xmlns="http://www.w3.org/2000/svg">
<g clip-path="url(#clip0_68_11)">
<path d="M268.14 1.63846C267.705 2.97217 267.325 4.14479 266.868 5.47154C266.535 6.43971 265.868 7.01451 264.814 7.07713C263.042 7.07713 256.395 7.14296 254.451 7.14296C252.688 7.23716 251.665 8.08223 251.334 9.82162C250.835 12.4393 250.389 15.0666 249.918 17.6896C249.212 21.6233 248.529 25.5607 247.788 29.488C247.351 31.8043 248.105 32.7928 250.45 32.8025C251.308 32.8062 252.167 32.8249 253.023 32.7827C254.944 32.689 256.212 31.6812 256.631 29.8054C257.045 27.7309 257.274 26.3453 257.599 24.6156C257.666 24.2602 257.537 24.1403 257.196 24.1456C256.6 24.1553 255.726 24.1655 255.131 24.1387C253.75 24.0761 253.582 23.5955 253.605 22.2334C253.624 21.018 253.665 19.8031 253.654 18.5882C253.65 18.1172 253.851 17.9695 254.271 17.9695C255.954 17.9695 263.665 18.0262 264.563 18.0262C265.462 18.0262 265.97 18.6513 265.848 19.6275C265.71 20.7364 265.501 21.8368 265.311 22.9388C264.804 25.8695 264.294 28.7992 263.779 31.7278C263.408 33.8359 263.012 35.9403 262.661 38.0517C262.588 38.4905 262.449 38.6543 261.987 38.6388C260.916 38.6035 259.843 38.642 258.771 38.6211C257.428 38.5949 257.044 38.209 256.924 36.8844C256.892 36.5355 256.855 36.1041 256.811 35.6663C256.785 35.4067 256.412 35.3607 256.24 35.6401C255.046 37.5871 252.631 38.885 250.927 39.0257C249.224 39.1665 247.588 39.1205 245.927 39.0172C244.034 38.9 242.266 38.3696 240.989 36.8095C240.058 35.6706 239.737 34.3171 239.639 32.8945C239.513 31.0727 239.807 29.2857 240.121 27.5008C240.982 22.6037 241.846 17.7072 242.692 12.808C243.053 10.7186 243.436 8.64205 244.344 6.69928C245.798 3.59086 248.25 1.77065 251.588 1.18033C252.941 0.941094 254.331 0.873124 255.708 0.823886C257.35 0.765014 258.996 0.809971 260.64 0.809971C262.999 0.809971 265.098 0.807295 267.457 0.811041C268.135 0.813182 268.352 0.987121 268.14 1.63846ZM33.3633 5.91736C33.7647 8.93694 33.1081 11.8998 31.8841 14.6909C31.1112 16.4527 29.572 17.8801 27.7026 18.2456C27.299 18.3248 27.0015 18.3238 27.0277 18.6872C27.0469 18.9505 27.1834 18.9467 27.6255 19.0832C29.1123 19.5419 30.2228 20.4506 30.8121 21.9305C31.2541 23.0399 31.3804 24.2061 31.2509 25.3713C30.9785 27.8299 30.6478 30.2881 29.8107 32.6323C28.5883 36.0565 26.0745 37.9152 22.5406 38.4879C19.7945 38.9332 17.0264 38.7025 14.267 38.7565C13.7906 38.7656 13.3143 38.7581 12.838 38.7581C10.2888 38.7581 7.7397 38.7464 5.19109 38.7683C4.70941 38.7726 4.59702 38.6554 4.68426 38.1732C5.24996 35.0369 5.78783 31.8953 6.3332 28.7553C7.26605 23.3894 8.19569 18.0225 9.13068 12.6566C9.77184 8.97815 10.4216 5.30081 11.0606 1.6224C11.1291 1.22742 11.1746 0.924503 11.7269 0.92932C16.8241 0.977488 21.9214 1.06151 27.0175 1.06151C30.636 1.06151 32.9726 2.9802 33.3633 5.91736ZM20.8172 22.0006C19.1506 22.0006 17.6724 21.999 16.1 21.9776C15.6681 21.9717 15.4653 22.0958 15.3866 22.5497C14.8375 25.7138 14.267 28.8741 13.6922 32.0339C13.6097 32.4867 13.7601 32.6221 14.2076 32.6178C15.7345 32.6034 18.2938 32.5868 19.8501 32.5322C21.117 32.4878 22.0038 31.7273 22.2869 30.4722C22.6369 28.9201 23.0801 26.2533 23.3509 24.6846C23.6955 22.6765 22.4844 22.0006 20.8172 22.0006ZM23.2834 7.13012C21.7603 7.09801 20.2355 7.13547 18.7123 7.10229C18.2526 7.09265 18.0829 7.28051 18.0107 7.68833C17.5434 10.3092 17.0714 12.9295 16.5897 15.5482C16.5201 15.9272 16.6288 16.0594 17.0168 16.0594C18.054 16.0594 20.2692 16.0422 21.3021 16.0422C23.0934 16.0422 24.1628 15.1757 24.6011 13.4412C24.926 12.1551 25.1283 10.8326 25.3108 9.51603C25.5323 7.919 24.8783 7.1633 23.2834 7.13012ZM127.757 0.937883C125.232 0.975882 122.704 0.936278 120.182 1.05295C118.09 1.14982 116.544 2.22557 115.629 4.13248C115.207 5.01127 114.81 5.90398 114.44 6.80579C113.545 8.99207 112.392 11.637 111.649 13.3898C111.248 14.3349 110.967 15.0773 110.813 15.5932C110.476 16.7182 110.187 17.7923 109.922 18.8429C109.855 19.1105 109.432 19.0506 109.425 18.7739C109.417 18.5122 109.608 15.9726 109.621 15.6489C109.655 14.8889 109.678 14.1808 109.616 13.0333C109.46 10.1802 109.205 7.33135 108.919 4.48785C108.729 2.58576 107.939 1.42812 105.936 1.12734C105.56 1.07115 105.182 1.00104 104.804 0.99622C102.517 0.968389 100.229 0.963573 97.9419 0.935207C97.5447 0.93039 97.4217 1.09523 97.359 1.4688C97.1037 2.99358 91.9461 32.1495 90.9345 37.8724C90.8179 38.5307 90.9795 38.7555 91.6587 38.7565C93.7085 38.7592 97.1177 38.7758 97.6052 38.7758C98.0933 38.7758 98.4102 38.5869 98.5076 38.0169C99.2499 33.6786 99.9724 29.3355 100.799 25.0127C101.529 21.194 102.007 17.3513 102.261 13.4754C102.358 12.002 102.5 10.5313 102.65 9.06272C102.668 8.88556 102.864 8.72661 102.976 8.55909C103.155 8.71484 103.351 8.85506 103.503 9.03328C103.567 9.10767 103.535 9.26288 103.546 9.38169C103.621 10.1877 103.696 10.9942 103.77 11.8008C104.081 15.2159 104.387 18.6315 104.703 22.0455C104.881 23.9664 105.065 25.8861 105.263 27.8048C105.355 28.6889 105.7 29.0122 106.606 29.0641C107.247 29.101 108.376 29.0957 109.038 29.0957C110.051 29.0957 110.52 28.9073 110.94 27.9193C111.778 25.9487 119.191 9.20454 119.29 8.97762C119.472 8.56231 120.302 8.69182 120.169 9.17725C119.682 10.9423 119.218 12.7138 118.745 14.4837C118.254 16.3227 117.666 18.1429 117.306 20.0075C116.528 24.0488 115.869 28.1131 115.159 32.1677C114.778 34.3438 114.241 37.3559 114.144 37.9334C114.046 38.5109 114.246 38.7512 114.747 38.7512C115.247 38.7512 118.822 38.7442 121.109 38.7678C121.586 38.7726 121.651 38.4103 121.713 38.0512C122.365 34.3251 127.583 4.59917 128.146 1.46077C128.213 1.08881 128.167 0.931461 127.757 0.937883ZM91.7325 9.59149C91.2123 12.8316 88.8869 26.1403 88.2553 29.5554C87.9776 31.0572 87.4921 32.4979 86.7782 33.8589C85.2877 36.7008 82.9092 38.361 79.7939 38.8598C77.8768 39.1665 70.7201 39.1868 69.1113 39.0332C68.2716 38.953 67.4228 38.7121 66.6344 38.4001C64.278 37.4678 63.1851 35.5994 62.9662 33.153C62.7987 31.2846 63.0711 29.4462 63.3954 27.6148C63.9595 24.4298 66.0387 12.6726 66.5654 9.98914C66.9679 7.9388 67.6984 6.00513 69.0053 4.34013C70.7597 2.10408 73.1638 0.997825 75.9105 0.76662C78.3488 0.561104 83.9117 0.669214 86.2376 0.927714C88.7654 1.20869 90.9206 2.73989 91.5773 5.33399C91.9316 6.73675 91.96 8.17268 91.7325 9.59149ZM83.719 9.19866C83.8763 7.73114 83.1442 6.94387 81.6622 6.88125C80.3071 6.82452 78.945 6.82077 77.591 6.88446C76.2562 6.94708 75.3057 7.63695 74.8615 8.92892C74.7148 9.3544 74.6019 9.79647 74.5227 10.2401C73.8173 14.1969 73.1221 18.1557 72.4263 22.114C71.9527 24.8077 71.478 27.5008 71.0118 30.1961C70.7207 31.8776 71.5261 32.864 73.2404 32.9245C73.835 32.9454 76.0748 32.9384 76.5987 32.9325C78.6309 32.9095 79.7146 32.0505 80.0882 30.0724C80.5597 27.572 80.9782 25.0614 81.4219 22.5556C81.9288 19.6992 82.4442 16.844 82.9435 13.986C83.2223 12.3932 83.5467 10.8037 83.719 9.19866ZM62.3534 5.33346C62.7082 6.73621 62.7366 8.17215 62.5091 9.59095C61.9894 12.831 59.6635 26.1398 59.0319 29.5549C58.7542 31.0567 58.2688 32.4974 57.5553 33.8584C56.0648 36.7003 53.6859 38.3605 50.5705 38.8593C48.6534 39.166 41.4967 39.1863 39.8879 39.0327C39.0482 38.9524 38.1994 38.7116 37.411 38.3996C35.054 37.4673 33.9617 35.5989 33.7423 33.1525C33.5753 31.2841 33.8472 29.4457 34.1715 27.6143C34.7356 24.4293 36.8143 12.6721 37.3415 9.98861C37.7439 7.93827 38.4745 6.0046 39.7814 4.3396C41.5363 2.10354 43.9399 0.99729 46.6865 0.766085C49.1249 0.560569 54.6877 0.668679 57.0137 0.927179C59.5415 1.20816 61.6972 2.73936 62.3534 5.33346ZM54.4961 9.19866C54.654 7.73114 53.9213 6.94387 52.4394 6.88125C51.0843 6.82452 49.7227 6.82077 48.3681 6.88446C47.0334 6.94708 46.0834 7.63695 45.6386 8.92892C45.492 9.3544 45.3791 9.79647 45.2999 10.2401C44.595 14.1969 43.8998 18.1557 43.2035 22.114C42.7298 24.8077 42.2551 27.5008 41.789 30.1961C41.4978 31.8776 42.3033 32.864 44.0175 32.9245C44.6127 32.9454 46.8519 32.9384 47.3764 32.9325C49.4086 32.9095 50.4923 32.0505 50.8659 30.0724C51.3374 27.572 51.7559 25.0614 52.2001 22.5556C52.7064 19.6992 53.2224 16.844 53.7217 13.986C53.9995 12.3932 54.3238 10.8037 54.4961 9.19866ZM202.565 2.56809C202.825 5.86866 204.151 23.3546 205.294 38.1218C205.333 38.6249 205.221 38.7774 204.704 38.7689C202.893 38.7394 201.081 38.7689 199.27 38.7539C197.693 38.741 197.098 38.1336 197.025 36.5387C196.947 34.8244 196.859 33.1113 196.771 31.3976C196.732 30.6376 196.654 30.552 195.864 30.5488C193.505 30.5397 191.145 30.5557 188.785 30.5391C188.178 30.5348 187.826 30.7682 187.602 31.3446C186.889 33.1857 186.13 35.0091 185.399 36.8432C184.876 38.1555 183.889 38.7544 182.51 38.756C178.697 38.7598 174.883 38.7587 171.07 38.7533C170.785 38.7528 170.501 38.7052 170.217 38.6859C168.816 38.5917 168.168 37.791 167.831 36.4627C167.477 35.0696 166.994 33.4383 166.751 32.3561C166.544 31.4334 166.57 31.1219 167.296 30.4893C168.022 29.8567 171.839 26.6027 172.359 26.1585C172.88 25.7148 173.381 25.9434 173.61 26.7654C174.066 28.4048 174.843 31.1947 175.42 33.2049C175.851 34.7115 176.284 36.2176 176.716 37.7236C176.774 37.7209 176.833 37.7177 176.891 37.715C177.407 36.5173 177.926 35.3211 178.438 34.1223C182.878 23.7282 191.715 3.10383 192.09 2.22771C192.465 1.35159 193.27 0.880617 194.278 0.881687C196.447 0.884363 198.616 0.867772 200.785 0.887575C201.968 0.898814 202.472 1.38317 202.565 2.56809ZM196.185 13.4733C196.221 11.9967 196.442 9.37902 196.451 9.08091C196.46 8.78334 195.958 8.69129 195.896 8.99368C195.833 9.29553 194.183 14.3109 193.281 16.8402C192.474 19.1025 191.566 21.3278 190.703 23.5703C190.393 24.3774 190.463 24.486 191.294 24.4876C192.676 24.4903 194.058 24.4898 195.44 24.4876C196.424 24.486 196.479 24.4181 196.441 23.4033C196.354 21.0699 196.274 18.7364 196.181 16.1284C196.18 15.4262 196.161 14.4495 196.185 13.4733ZM239.846 0.933602C237.574 0.933602 235.341 0.92825 233.835 0.92825C233.061 0.92825 232.752 1.31092 232.621 2.06822C232.014 5.585 231.437 8.73678 230.83 12.2541C230.38 14.8562 229.826 17.4471 229.52 20.0664C229.13 23.3996 228.947 26.8645 228.772 30.2175C228.747 30.6809 228.065 30.7296 228.021 30.1875C227.046 18.3982 226.496 11.2747 225.873 3.6021C225.718 1.68555 224.851 0.92825 223.321 0.92825C221.236 0.92825 216.14 0.965178 214.902 0.92932C214.385 0.914334 214.213 1.09095 214.14 1.59457C213.929 3.02997 213.66 4.45734 213.408 5.88685C212.676 10.0336 208.313 34.9946 207.803 37.9489C207.664 38.7544 207.68 38.7581 208.471 38.7581C210.258 38.7587 212.046 38.7581 213.833 38.7581C215.393 38.7581 215.372 38.7549 215.631 37.2216C216.118 34.3358 218.223 23.0084 218.583 20.2039C218.951 17.3486 219.087 14.4634 219.32 11.5915C219.388 10.7604 219.424 9.92652 219.511 9.09804C219.557 8.66613 220.31 8.71805 220.336 9.13336C220.462 11.1543 220.667 13.5707 220.811 15.59C221.088 19.4862 222.008 32.6494 222.228 35.3318C222.396 37.38 223.386 38.3685 225.429 38.6035C226.161 38.6875 226.9 38.7432 227.636 38.7517C229.447 38.7726 231.258 38.7587 233.07 38.7581C233.889 38.7581 233.899 38.7592 234.043 37.9356C234.446 35.6149 239.535 6.40974 240.402 1.58601C240.501 1.03636 240.343 0.933602 239.846 0.933602ZM148.479 16.4559C147.998 16.4559 141.568 16.4575 138.112 16.4543C137.422 16.4538 137.406 16.4431 137.522 15.78C137.977 13.1784 138.465 10.5827 138.89 7.9768C138.992 7.35597 139.26 7.23876 139.827 7.24304C142.596 7.26338 146.086 7.25161 148.133 7.25161C150.18 7.25161 148.327 0.941094 147.48 0.941094C146.633 0.941094 137.476 0.941094 133.053 0.941094C132.117 0.941094 132.125 0.943235 131.963 1.89963C131.572 4.19884 127.95 24.8468 127.46 27.7079C127.102 29.7973 126.709 31.8825 127.228 34.0115C127.617 35.6085 128.479 36.8159 129.937 37.5919C131.651 38.5039 133.532 38.7052 135.412 38.7325C139.581 38.7929 143.753 38.7464 147.923 38.7689C148.421 38.7715 148.522 38.581 148.522 38.1469C148.522 37.0509 148.55 35.9548 148.577 34.8587C148.626 32.8506 148.249 32.4482 146.261 32.4434C143.567 32.4369 140.874 32.4471 138.181 32.4364C137.658 32.4343 137.131 32.4011 136.615 32.3251C135.634 32.1811 135.103 31.5694 135.084 30.5734C135.075 30.1227 135.092 29.6646 135.165 29.2209C135.502 27.1786 135.889 25.1438 136.199 23.0977C136.291 22.4881 136.525 22.327 137.118 22.3329C139.93 22.3613 142.742 22.3538 145.555 22.3378C146.799 22.3308 147.513 21.8218 147.916 20.6492C148.306 19.5157 148.927 17.6189 149.052 17.1533C149.175 16.6877 148.961 16.4559 148.479 16.4559ZM162.907 9.50639C161.326 9.11463 159.301 8.81706 157.864 8.66988C157.072 8.58853 156.708 8.79672 156.606 9.41166C156.037 12.8562 154.819 20.0557 154.211 23.6768C154.026 24.7809 154.805 24.6006 155.274 24.1317C158.25 21.1576 161.798 17.582 162.354 16.8423C162.909 16.1027 163.081 15.7479 163.272 14.8568C163.463 13.9657 163.682 12.215 163.867 11.1329C164.052 10.0502 163.74 9.71244 162.907 9.50639Z" fill="white"/>
<path d="M183.35 10.3196C177.021 18.4916 164.131 30.2568 154.712 38.2826C154.092 38.8109 152.97 38.6209 152.412 37.5917C151.48 35.8758 151.216 33.6478 153.574 31.0189C160.534 23.258 166.934 15.5078 170.674 10.873C171.882 9.37608 171.822 8.71511 169.844 8.3287C165.039 7.3905 158.148 6.34151 153.738 5.69714C152.282 5.48466 151.525 4.23926 151.302 3.08698C151.047 1.76879 151.426 1.07945 152.36 1.02433C159.736 0.589748 170.812 0.307699 180.067 1.16241C185.891 1.69975 186.705 5.98775 183.35 10.3196Z" fill="url(#paint0_linear_68_11)"/>
</g>
<g clip-path="url(#clip1_68_11)">
<path d="M10.1089 52.1281H7.67604L7.00148 53.3242H4.90039L9.04727 46.5771H11.2037L12.1436 53.3126H10.2637L10.1199 52.1164L10.1089 52.1281ZM9.93194 50.63L9.68866 48.5862L8.53859 50.63H9.943H9.93194Z" fill="white"/>
<path d="M20.107 47.0649C20.5272 47.39 20.7484 47.8662 20.7484 48.4933C20.7484 49.3874 20.483 50.0726 19.9522 50.5487C19.4214 51.0248 18.6694 51.2571 17.7073 51.2571H16.1481L15.6615 53.3126H13.8037L15.4072 46.5771H18.2602C19.0675 46.5771 19.6868 46.7397 20.107 47.0649ZM18.5809 49.4339C18.7468 49.2829 18.8353 49.0391 18.8353 48.6907C18.8353 48.3423 18.603 48.1565 18.1496 48.1565H16.889L16.5241 49.6661H17.829C18.1718 49.6661 18.4261 49.5849 18.592 49.4339H18.5809Z" fill="white"/>
<path d="M25.106 46.578L24.2103 50.3522C24.1771 50.4915 24.155 50.6425 24.155 50.8051C24.155 51.107 24.2435 51.3625 24.4315 51.5599C24.6084 51.7573 24.907 51.8502 25.3161 51.8502C25.8137 51.8502 26.1897 51.7109 26.4551 51.4322C26.7205 51.1534 26.8975 50.8399 26.9749 50.4799L27.8927 46.578H29.7505L28.7663 50.7354C28.5562 51.6296 28.1249 52.3031 27.4836 52.7676C26.8422 53.2321 26.057 53.4644 25.1171 53.4644C24.5863 53.4644 24.0997 53.3715 23.6795 53.1973C23.2482 53.0231 22.9165 52.7444 22.6621 52.3844C22.4188 52.0244 22.2861 51.5715 22.2861 51.0373C22.2861 50.747 22.3304 50.4335 22.4078 50.0967L23.2482 46.5664H25.106V46.578Z" fill="white"/>
<path d="M33.5192 48.1681L33.287 49.0971H36.6819L36.2948 50.7229H32.8999L32.6677 51.7332H36.3722L35.9852 53.3242H30.4229L32.0374 46.5771H37.5776L37.2016 48.1565H33.5192V48.1681Z" fill="white"/>
<path d="M42.9998 48.2038C42.646 48.1109 42.2921 48.0644 41.9382 48.0644C41.6397 48.0644 41.3853 48.0992 41.1973 48.1689C41.0093 48.2386 40.9098 48.3547 40.9098 48.5057C40.9098 48.6567 40.9983 48.7728 41.1863 48.8541C41.3632 48.9354 41.6728 49.0166 42.1152 49.1212C42.5243 49.2141 42.8893 49.3302 43.1878 49.4579C43.4975 49.5857 43.7518 49.7831 43.9619 50.0502C44.172 50.3173 44.2826 50.654 44.2826 51.0837C44.2826 51.5366 44.1499 51.9547 43.8956 52.3147C43.6412 52.6747 43.2763 52.965 42.8008 53.1624C42.3253 53.3714 41.7724 53.4643 41.142 53.4643C40.5559 53.4643 40.0141 53.3714 39.5165 53.1972C39.0188 53.0231 38.5765 52.7792 38.1895 52.4773L39.052 51.1186C39.3395 51.316 39.6934 51.4902 40.0915 51.6295C40.4896 51.7689 40.8877 51.8386 41.2858 51.8386C41.5401 51.8386 41.7613 51.8037 41.9382 51.7456C42.1152 51.6876 42.2036 51.5831 42.2036 51.4321C42.2036 51.3044 42.1373 51.2115 41.9935 51.1418C41.8498 51.0721 41.6175 51.0024 41.2858 50.9211L41.0978 50.8747C40.6444 50.7586 40.2574 50.6192 39.9477 50.4566C39.627 50.3057 39.3727 50.085 39.1847 49.8295C38.9857 49.5624 38.8972 49.2257 38.8972 48.8192C38.8972 48.3896 39.0078 47.9947 39.24 47.6231C39.4722 47.2631 39.815 46.9728 40.2905 46.7522C40.755 46.5315 41.33 46.427 42.0046 46.427C42.5464 46.427 43.033 46.4967 43.4643 46.636C43.8956 46.7754 44.3158 46.9728 44.7139 47.2167L44.0393 48.6102C43.7076 48.436 43.3648 48.2967 43.0109 48.2038H42.9998Z" fill="white"/>
<path d="M52.4538 48.1681H50.3306L49.1031 53.3126H47.2453L48.4728 48.1681H46.3496L46.7256 46.5771H52.8187L52.4428 48.1681H52.4538Z" fill="white"/>
<path d="M57.6502 52.1281H55.2174L54.5428 53.3242H52.4307L56.5886 46.5771H58.745L59.6849 53.3126H57.805L57.6613 52.1164L57.6502 52.1281ZM57.4733 50.63L57.23 48.5862L56.0799 50.63H57.4843H57.4733Z" fill="white"/>
<path d="M66.286 48.2038C65.9321 48.1109 65.5782 48.0644 65.2244 48.0644C64.9258 48.0644 64.6715 48.0992 64.4835 48.1689C64.2955 48.2386 64.1959 48.3547 64.1959 48.5057C64.1959 48.6567 64.2844 48.7728 64.4724 48.8541C64.6493 48.9354 64.959 49.0166 65.4013 49.1212C65.8105 49.2141 66.1754 49.3302 66.474 49.4579C66.7836 49.5857 67.0379 49.7831 67.248 50.0502C67.4582 50.3173 67.5687 50.654 67.5687 51.0837C67.5687 51.5366 67.436 51.9547 67.1817 52.3147C66.9274 52.6747 66.5624 52.965 66.0869 53.1624C65.6114 53.3714 65.0585 53.4643 64.4282 53.4643C63.8421 53.4643 63.3002 53.3714 62.8026 53.1972C62.305 53.0231 61.8626 52.7792 61.4756 52.4773L62.3381 51.1186C62.6257 51.316 62.9795 51.4902 63.3776 51.6295C63.7757 51.7689 64.1738 51.8386 64.5719 51.8386C64.8263 51.8386 65.0474 51.8037 65.2244 51.7456C65.4013 51.6876 65.4898 51.5831 65.4898 51.4321C65.4898 51.3044 65.4234 51.2115 65.2797 51.1418C65.1359 51.0721 64.9037 51.0024 64.5719 50.9211L64.3839 50.8747C63.9305 50.7586 63.5435 50.6192 63.2339 50.4566C62.9132 50.3057 62.6588 50.085 62.4708 49.8295C62.2718 49.5624 62.1833 49.2257 62.1833 48.8192C62.1833 48.3896 62.2939 47.9947 62.5261 47.6231C62.7584 47.2631 63.1012 46.9728 63.5767 46.7522C64.0411 46.5315 64.6162 46.427 65.2907 46.427C65.8326 46.427 66.3191 46.4967 66.7504 46.636C67.1817 46.7754 67.6019 46.9728 68 47.2167L67.3255 48.6102C66.9937 48.436 66.6509 48.2967 66.297 48.2038H66.286Z" fill="white"/>
<path d="M77.9106 46.9608C78.3419 47.2163 78.6516 47.5531 78.8617 47.9828C79.0718 48.4124 79.1713 48.9002 79.1713 49.446C79.1713 50.0963 79.0275 50.7118 78.729 51.3156C78.4304 51.9079 77.9991 52.3956 77.402 52.7672C76.8159 53.1388 76.0971 53.3246 75.2677 53.3246H71.9502L73.5537 46.5892H76.3072C76.9486 46.5892 77.4794 46.717 77.8996 46.9608H77.9106ZM76.3846 51.4085C76.6832 51.1879 76.9043 50.9208 77.0592 50.5724C77.214 50.2356 77.2914 49.8873 77.2914 49.5389C77.2914 49.144 77.1808 48.8073 76.9596 48.5518C76.7385 48.2963 76.4178 48.1686 75.9976 48.1686H75.0355L74.195 51.7337H75.3451C75.7432 51.7337 76.086 51.6292 76.3735 51.4085H76.3846Z" fill="white"/>
<path d="M83.4254 48.1686L83.1932 49.0976H86.5881L86.2011 50.7234H82.8062L82.5739 51.7337H86.2785L85.8915 53.3246H80.3291L81.9326 46.5892H87.4728L87.0968 48.1686H83.4144H83.4254Z" fill="white"/>
<path d="M94.274 47.0649C94.6942 47.39 94.9153 47.8662 94.9153 48.4933C94.9153 49.3874 94.6499 50.0726 94.1191 50.5487C93.5883 51.0248 92.8364 51.2571 91.8743 51.2571H90.3151L89.8285 53.3126H87.9707L89.5742 46.5771H92.4272C93.2345 46.5771 93.8537 46.7397 94.274 47.0649ZM92.7479 49.4339C92.9138 49.2829 93.0022 49.0391 93.0022 48.6907C93.0022 48.3423 92.77 48.1565 92.3166 48.1565H91.056L90.6911 49.6661H91.9959C92.3388 49.6661 92.5931 49.5849 92.759 49.4339H92.7479Z" fill="white"/>
<path d="M97.1055 52.71C96.5857 52.1991 96.3203 51.5139 96.3203 50.6197C96.3203 49.8184 96.4862 49.0984 96.829 48.4597C97.1607 47.821 97.6363 47.3217 98.2445 46.9617C98.8527 46.6017 99.5494 46.4159 100.346 46.4159C100.998 46.4159 101.54 46.532 101.993 46.7643C102.447 46.9965 102.789 47.3333 103.022 47.763C103.254 48.1926 103.376 48.692 103.376 49.2726C103.376 50.0739 103.21 50.7939 102.878 51.421C102.546 52.0597 102.071 52.5474 101.462 52.919C100.854 53.279 100.147 53.4648 99.3503 53.4648C98.3772 53.4648 97.6363 53.2094 97.1055 52.71ZM100.6 51.5023C100.898 51.2816 101.12 50.9797 101.263 50.5965C101.407 50.2249 101.485 49.8068 101.485 49.3655C101.485 48.9243 101.374 48.5991 101.153 48.3785C100.932 48.1578 100.611 48.0417 100.18 48.0417C99.7484 48.0417 99.3945 48.1578 99.096 48.3901C98.7974 48.6223 98.5762 48.9243 98.4214 49.2959C98.2666 49.6675 98.1892 50.0739 98.1892 50.5152C98.1892 50.9565 98.2998 51.2816 98.5209 51.5023C98.7421 51.7229 99.0738 51.8391 99.5051 51.8391C99.9364 51.8391 100.29 51.7229 100.589 51.5023H100.6Z" fill="white"/>
<path d="M111.194 50.015C110.94 50.4563 110.541 50.7582 110.022 50.944L110.718 53.3246H108.717L108.175 51.1414H106.925L106.406 53.3246H104.548L106.151 46.5892H109.104C109.9 46.5892 110.519 46.7518 110.94 47.0886C111.371 47.4254 111.581 47.8899 111.581 48.517C111.581 49.086 111.448 49.5969 111.194 50.0266V50.015ZM107.301 49.5389H108.673C109.004 49.5389 109.259 49.4692 109.425 49.3415C109.59 49.2021 109.679 48.9931 109.679 48.7144C109.679 48.517 109.624 48.3776 109.513 48.2963C109.402 48.215 109.226 48.1686 108.982 48.1686H107.633L107.301 49.5389Z" fill="white"/>
<path d="M119.501 48.1681H117.377L116.15 53.3126H114.292L115.52 48.1681H113.396L113.772 46.5771H119.866L119.49 48.1681H119.501Z" fill="white"/>
<path d="M121.688 46.5771H123.546L121.943 53.3126H120.085L121.688 46.5771Z" fill="white"/>
<path d="M132.426 46.5771L128.456 53.3126H126.145L125.371 46.5771H127.384L127.749 51.2455L130.347 46.5771H132.426Z" fill="white"/>
<path d="M137.303 52.1285H134.87L134.195 53.3246H132.083L136.23 46.5892H138.386L139.326 53.3246H137.446L137.303 52.1285ZM137.126 50.6305L136.882 48.5866L135.732 50.6305H137.137H137.126Z" fill="white"/>
<path d="M145.941 48.2038C145.587 48.1109 145.234 48.0644 144.88 48.0644C144.581 48.0644 144.327 48.0992 144.139 48.1689C143.951 48.2386 143.851 48.3547 143.851 48.5057C143.851 48.6567 143.94 48.7728 144.128 48.8541C144.305 48.9354 144.614 49.0166 145.057 49.1212C145.466 49.2141 145.831 49.3302 146.129 49.4579C146.439 49.5857 146.693 49.7831 146.903 50.0502C147.113 50.3173 147.224 50.654 147.224 51.0837C147.224 51.5366 147.091 51.9547 146.837 52.3147C146.583 52.6747 146.218 52.965 145.742 53.1624C145.267 53.3714 144.714 53.4643 144.083 53.4643C143.497 53.4643 142.955 53.3714 142.458 53.1972C141.96 53.0231 141.518 52.7792 141.131 52.4773L141.993 51.1186C142.281 51.316 142.635 51.4902 143.033 51.6295C143.431 51.7689 143.829 51.8386 144.227 51.8386C144.482 51.8386 144.703 51.8037 144.88 51.7456C145.057 51.6876 145.145 51.5831 145.145 51.4321C145.145 51.3044 145.079 51.2115 144.935 51.1418C144.791 51.0721 144.559 51.0024 144.227 50.9211L144.039 50.8747C143.586 50.7586 143.199 50.6192 142.889 50.4566C142.568 50.3057 142.314 50.085 142.126 49.8295C141.927 49.5624 141.839 49.2257 141.839 48.8192C141.839 48.3896 141.949 47.9947 142.181 47.6231C142.414 47.2631 142.756 46.9728 143.232 46.7522C143.696 46.5315 144.271 46.427 144.935 46.427C145.477 46.427 145.963 46.4967 146.395 46.636C146.826 46.7754 147.246 46.9728 147.644 47.2167L146.97 48.6102C146.638 48.436 146.295 48.2967 145.941 48.2038Z" fill="white"/>
</g>
<defs>
<linearGradient id="paint0_linear_68_11" x1="151.225" y1="19.5883" x2="185.323" y2="19.5883" gradientUnits="userSpaceOnUse">
<stop stop-color="#0098FF"/>
<stop offset="0.6974" stop-color="#FF0069"/>
</linearGradient>
<clipPath id="clip0_68_11">
<rect width="267.599" height="56.3916" fill="white" transform="translate(0.621094 0.608398)"/>
</clipPath>
<clipPath id="clip1_68_11">
<rect width="142.741" height="7.04895" fill="white" transform="translate(4.90137 46.4266)"/>
</clipPath>
</defs>
</svg>
