<svg width="24" height="25" viewBox="0 0 24 25" fill="none" xmlns="http://www.w3.org/2000/svg">
<path d="M22.35 6.00001L18 10.3C18 10.3 16.7 10.3 15.4 9.00001C14.1 7.70001 14.1 6.40001 14.1 6.40001L18.45 2.05001C16 1.45001 13.05 2.25001 11.25 4.05001C8.54998 6.75001 10.95 10.2 10.25 10.9C6.44998 14.85 2.54999 17.85 2.44999 18C1.29999 19.15 1.24999 21 2.34999 22.1C3.44999 23.2 5.29998 23.15 6.44999 22C6.59999 21.85 9.79998 17.8 13.55 14.05C14.25 13.35 17.55 15.9 20.35 13.15C22.1 11.35 22.95 8.45001 22.35 6.00001ZM4.69999 21.05C3.99998 21.05 3.44999 20.5 3.44999 19.8C3.44999 19.05 3.99998 18.5 4.69999 18.5C5.39999 18.5 5.94999 19.05 5.94999 19.75C5.94999 20.45 5.39999 21.05 4.69999 21.05Z" fill="white"/>
</svg>
