<svg width="59" height="25" viewBox="0 0 59 25" fill="none" xmlns="http://www.w3.org/2000/svg">
<path d="M11.0846 4.01216C10.3995 4.82282 9.3034 5.46221 8.20731 5.37087C8.07029 4.27477 8.60693 3.11017 9.2349 2.39085C9.91996 1.55736 11.1188 0.96364 12.0893 0.917969C12.2035 2.05974 11.7582 3.17867 11.0846 4.01216ZM12.0779 5.58781C10.4908 5.49647 9.13214 6.4898 8.37857 6.4898C7.61359 6.4898 6.4604 5.63348 5.20445 5.65631C3.57172 5.67915 2.05317 6.60398 1.21967 8.07687C-0.49298 11.0226 0.774384 15.3842 2.42995 17.7819C3.24061 18.9693 4.21111 20.271 5.48989 20.2253C6.70017 20.1796 7.17971 19.4375 8.64118 19.4375C10.1141 19.4375 10.5365 20.2253 11.8153 20.2025C13.1398 20.1796 13.9732 19.015 14.7839 17.8276C15.7087 16.4803 16.0855 15.1673 16.1084 15.0987C16.0855 15.0759 13.5508 14.1054 13.528 11.1825C13.5051 8.73909 15.5261 7.57449 15.6174 7.50598C14.4756 5.81616 12.6945 5.63348 12.0779 5.58781ZM21.2463 2.27667V20.0769H24.0094V13.9912H27.8343C31.3281 13.9912 33.7829 11.5935 33.7829 8.12254C33.7829 4.65156 31.3738 2.27667 27.9257 2.27667H21.2463ZM24.0094 4.60589H27.1949C29.5927 4.60589 30.9628 5.88467 30.9628 8.13395C30.9628 10.3832 29.5927 11.6734 27.1835 11.6734H24.0094V4.60589ZM38.8296 20.2139C40.5651 20.2139 42.175 19.3347 42.9057 17.9418H42.9628V20.0769H45.5203V11.2167C45.5203 8.64775 43.4652 6.99218 40.3025 6.99218C37.3681 6.99218 35.1987 8.67059 35.1188 10.977H37.6079C37.8134 9.88086 38.8296 9.16155 40.2225 9.16155C41.9123 9.16155 42.86 9.94937 42.86 11.3994V12.3813L39.4119 12.5869C36.2035 12.781 34.468 14.094 34.468 16.3775C34.468 18.6839 36.2606 20.2139 38.8296 20.2139ZM39.5717 18.1016C38.0988 18.1016 37.1626 17.3937 37.1626 16.309C37.1626 15.1901 38.0646 14.5393 39.7887 14.4365L42.86 14.2424V15.2472C42.86 16.9142 41.4442 18.1016 39.5717 18.1016ZM48.9342 24.918C51.6288 24.918 52.8962 23.8904 54.0037 20.7733L58.8562 7.16345H56.0475L52.7934 17.6791H52.7363L49.4823 7.16345H46.5936L51.2749 20.1225L51.0237 20.9104C50.6012 22.2462 49.9162 22.76 48.6945 22.76C48.4775 22.76 48.0551 22.7372 47.8838 22.7144V24.8495C48.0437 24.8951 48.7287 24.918 48.9342 24.918Z" fill="white"/>
</svg>
