<!-- icon666.com - MILLIONS vector ICONS FREE --><svg version="1.1" id="Layer_1" xmlns="http://www.w3.org/2000/svg" xmlns:xlink="http://www.w3.org/1999/xlink" x="0px" y="0px" viewBox="0 0 512 512" style="enable-background:new 0 0 512 512;" xml:space="preserve"><g><g><path d="M256,251.779c-8.53,0-15.918-3.061-21.956-9.099c-10.67-10.67-12.138-27.384-3.491-39.742 c5.286-7.555,3.448-17.964-4.107-23.251c-7.552-5.286-17.965-3.448-23.251,4.107c-17.952,25.656-14.909,60.35,7.238,82.497 c12.351,12.353,28.108,18.881,45.567,18.881c9.22,0,16.696-7.475,16.696-16.696C272.696,259.255,265.22,251.779,256,251.779z"></path></g></g><g><g><path d="M387.218,217.846c-0.553-25.186-8.334-50.382-23.689-72.331L269.68,11.346c-3.123-4.466-8.231-7.126-13.68-7.126 c-5.449,0-10.557,2.66-13.68,7.126l-93.847,134.168c-15.356,21.949-23.137,47.146-23.689,72.332C47.474,245.66,0,296.3,0,351.953 c0,43.297,27.87,83.346,78.475,112.768c47.758,27.766,110.806,43.058,177.525,43.058s129.766-15.292,177.525-43.058 C484.13,435.3,512,395.252,512,351.953C512,296.3,464.526,245.66,387.218,217.846z M175.833,164.654L256,50.044l80.167,114.61 c27.251,38.955,22.629,91.63-10.989,125.25c-18.481,18.481-43.049,28.659-69.178,28.659s-50.697-10.178-69.178-28.659 C153.204,256.285,148.581,203.61,175.833,164.654z M170.049,319.885c23.858,20.743,54.034,32.068,85.951,32.068 s62.093-11.325,85.951-32.068c9.764,7.207,19.788,18.023,19.788,32.068c0,18.185-17.085,30.996-27.268,37.014 c-20.34,12.019-48.208,18.638-78.471,18.638s-58.131-6.619-78.471-18.638c-10.183-6.017-27.268-18.828-27.268-37.014 C150.261,337.909,160.285,327.092,170.049,319.885z M416.742,435.854c-42.741,24.85-99.827,38.535-160.742,38.535 s-118.002-13.685-160.742-38.535c-39.895-23.195-61.866-52.991-61.866-83.901c0-47.77,50.697-82.417,95.164-99.853 c3.719,15.104,10.132,29.637,19.206,42.834c-19.832,15.635-30.891,35.723-30.891,57.019c0,25.765,15.51,49.12,43.672,65.762 c25.407,15.014,59.309,23.281,95.458,23.281s70.051-8.269,95.458-23.281c28.162-16.641,43.672-39.996,43.672-65.762 c0-21.296-11.06-41.385-30.891-57.02c9.074-13.196,15.487-27.729,19.206-42.834c44.478,17.443,95.164,52.137,95.164,99.854 C478.609,382.864,456.637,412.66,416.742,435.854z"></path></g></g></svg>