<!-- icon666.com - MILLIONS vector ICONS FREE --><svg version="1.1" id="Capa_1" xmlns="http://www.w3.org/2000/svg" xmlns:xlink="http://www.w3.org/1999/xlink" x="0px" y="0px" viewBox="0 0 512 512" style="enable-background:new 0 0 512 512;" xml:space="preserve"><g><g><path d="M509.769,36.574l-25.681-25.682c-2.185-2.186-5.474-2.833-8.325-1.64l-55.918,23.401c-3.88,1.623-5.708,6.085-4.085,9.964 c1.623,3.88,6.084,5.708,9.964,4.085l51.206-21.429l15.843,15.843l-73.726,54.952l-31.426-33.42l19.116-8 c3.88-1.623,5.708-6.085,4.085-9.964c-1.625-3.88-6.084-5.708-9.964-4.085L376.481,50.8c0,0-38.639-39.517-38.944-39.823 C330.469,3.912,321.065,0.013,311.053,0c-0.017,0-0.034,0-0.051,0c-10.021,0-19.441,3.902-26.529,10.99 c-7.29,7.29-11.192,16.98-10.987,27.285c0.203,10.238,4.432,19.709,11.912,26.69l38.863,38.019l-41.573,99.34 c-1.193,2.85-0.545,6.14,1.64,8.324l25.682,25.682c1.434,1.434,3.372,2.231,5.384,2.231c0.184,0,0.368-0.007,0.551-0.02 c2.205-0.159,4.233-1.271,5.554-3.044l59.207-79.435l13.502,12.696l-4.425,28.875c-0.367,2.396,0.428,4.824,2.142,6.538 l21.403,21.403c1.437,1.437,3.377,2.231,5.384,2.231c0.312,0,0.625-0.019,0.939-0.058c2.33-0.289,4.396-1.638,5.599-3.653 l15.419-25.824c5.365-0.322,10.662-1.964,15.397-4.911l8.077,8.078c1.486,1.487,3.436,2.231,5.384,2.231 c1.948,0,3.898-0.743,5.384-2.231c2.974-2.974,2.974-7.794,0-10.768l-8.076-8.076c2.905-4.665,4.544-9.876,4.899-15.162 l25.266-15.084c2.015-1.204,3.364-3.269,3.653-5.599s-0.512-4.663-2.173-6.323l-21.403-21.403 c-1.714-1.714-4.142-2.509-6.538-2.142l-27.909,4.276l-13.087-13.918l79.387-59.171c1.774-1.322,2.885-3.349,3.045-5.555 C512.138,40.305,511.332,38.137,509.769,36.574z M292.199,49.482c-2.176-3.408-3.403-7.345-3.486-11.509 c-0.122-6.124,2.197-11.883,6.529-16.216c4.211-4.211,9.807-6.528,15.761-6.528c0.009,0,0.02,0,0.029,0 c4.303,0.005,8.407,1.233,11.941,3.491c-7.62,1.307-14.659,4.915-20.26,10.516S293.506,41.856,292.199,49.482z M314.553,219.335 l-15.843-15.843l37.399-89.367l33.431,31.437L314.553,219.335z M417.188,207.894l-11.764-11.764l2.253-14.707l8.378,7.879 c2.649,2.491,5.591,4.456,8.701,5.915L417.188,207.894z M469.039,132.514l11.764,11.764l-12.024,7.178 c-1.467-3.177-3.46-6.181-5.998-8.881l-7.482-7.957L469.039,132.514z M451.686,153.009c2.795,2.972,4.368,6.626,4.76,10.369 c0.008,0.279,0.029,0.559,0.069,0.838c0.135,2.372-0.213,4.757-1.031,7.019l-38.354-38.353c-2.973-2.974-7.795-2.974-10.768,0 c-2.974,2.974-2.974,7.795,0,10.768l38.354,38.354c-6.11,2.208-13.155,0.971-18.227-3.798L313.393,71.8 c-4.106-4.155-6.427-9.611-6.517-15.486c-0.094-6.161,2.252-11.953,6.609-16.31c4.272-4.272,9.924-6.612,15.951-6.612 c0.12,0,0.239,0.001,0.358,0.003c5.873,0.09,11.327,2.409,15.481,6.512L451.686,153.009z"></path></g></g><g><g><path d="M227.586,447.942c-0.307-0.307-39.82-38.942-39.82-38.942l41.549-99.283c1.193-2.85,0.545-6.14-1.64-8.324l-25.682-25.682 c-1.565-1.565-3.729-2.373-5.936-2.21c-2.205,0.159-4.233,1.271-5.554,3.044l-59.171,79.388l-13.918-13.087l4.276-27.908 c0.367-2.396-0.428-4.824-2.142-6.538l-21.403-21.403c-1.66-1.66-3.993-2.462-6.323-2.173s-4.396,1.638-5.599,3.653 l-15.086,25.264c-5.285,0.355-10.496,1.994-15.162,4.899l-8.077-8.076c-2.974-2.974-7.796-2.974-10.768,0 c-2.974,2.974-2.974,7.796,0,10.768l8.076,8.076c-2.949,4.735-4.594,10.033-4.915,15.4l-25.819,15.415 c-2.015,1.204-3.364,3.269-3.653,5.599c-0.289,2.33,0.512,4.663,2.173,6.323l21.403,21.403c1.439,1.439,3.38,2.231,5.384,2.231 c0.383,0,0.769-0.029,1.153-0.087l28.875-4.425l12.696,13.502L3.068,463.977c-1.774,1.322-2.884,3.349-3.045,5.555 c-0.16,2.206,0.647,4.372,2.21,5.935l25.682,25.682c1.457,1.457,3.405,2.231,5.386,2.231c0.99,0,1.988-0.193,2.938-0.591 l99.34-41.572l38.019,38.863c6.981,7.48,16.451,11.709,26.689,11.912c0.258,0.005,0.514,0.008,0.772,0.008 c10.017,0,19.408-3.888,26.515-10.995c7.1-7.099,11.002-16.539,10.99-26.579C238.552,464.415,234.654,455.011,227.586,447.942z M94.286,304.676l11.764,11.764l-2.106,13.74l-7.957-7.482c-2.7-2.538-5.704-4.531-8.881-5.998L94.286,304.676z M42.435,380.055 l-11.764-11.764l12.678-7.569c1.459,3.11,3.425,6.052,5.915,8.701l7.879,8.379L42.435,380.055z M35.073,486.769l-15.843-15.843 l73.773-54.987l31.436,33.431L35.073,486.769z M166.76,472.085L60.359,358.991c-4.769-5.071-6.007-12.117-3.798-18.227 l38.354,38.354c1.486,1.487,3.436,2.231,5.384,2.231c1.948,0,3.898-0.743,5.384-2.231c2.974-2.974,2.974-7.795,0-10.768 l-38.354-38.354c2.262-0.817,4.647-1.166,7.018-1.031c0.279,0.04,0.559,0.061,0.84,0.069c3.744,0.392,7.398,1.966,10.369,4.76 l55.486,52.176c3.064,2.881,7.883,2.732,10.764-0.331c2.88-3.064,2.732-7.883-0.331-10.764l-8.977-8.441l54.952-73.727 l15.843,15.843l-37.375,89.31l-9.521-8.952c-3.064-2.88-7.883-2.733-10.764,0.331c-2.88,3.063-2.732,7.883,0.331,10.764 l42.709,40.222c4.092,4.153,6.405,9.599,6.495,15.462c0.094,6.161-2.252,11.953-6.609,16.31 c-4.357,4.357-10.175,6.693-16.309,6.61C176.373,478.515,170.916,476.192,166.76,472.085z M216.807,490.237 c-4.332,4.332-10.093,6.662-16.216,6.529c-4.165-0.082-8.101-1.311-11.511-3.488c7.626-1.307,14.647-4.914,20.248-10.515 c5.603-5.604,9.213-12.627,10.518-20.258C225.334,471.123,224.327,482.714,216.807,490.237z"></path></g></g><g><g><path d="M246.594,45.776c-0.338-4.191-4.001-7.314-8.202-6.979c-31.115,2.501-60.645,11.351-87.77,26.304 c-26.202,14.444-48.819,33.804-67.224,57.544c-2.577,3.324-1.971,8.107,1.352,10.684c1.388,1.076,3.03,1.597,4.66,1.597 c2.273,0,4.523-1.013,6.024-2.949c34.895-45.009,87.446-73.438,144.178-77.999C243.806,53.64,246.931,49.969,246.594,45.776z"></path></g></g><g><g><path d="M81.144,138.502c-3.569-2.227-8.266-1.138-10.491,2.431c-22.605,36.233-33.882,77.447-32.933,119.92l-16.557-14.094 c-3.202-2.725-8.009-2.34-10.735,0.863c-2.725,3.203-2.338,8.01,0.864,10.736l30.152,25.665c1.434,1.219,3.187,1.816,4.932,1.816 c2.154,0,4.296-0.91,5.801-2.679l25.665-30.152c2.726-3.202,2.34-8.009-0.863-10.735c-3.202-2.725-8.009-2.34-10.734,0.863 l-13.323,15.651c-0.54-38.891,9.939-76.593,30.651-109.795C85.8,145.425,84.713,140.727,81.144,138.502z"></path></g></g><g><g><path d="M500.458,254.223l-30.152-25.665c-1.538-1.31-3.534-1.953-5.546-1.792c-2.012,0.161-3.88,1.117-5.188,2.655 l-25.664,30.152c-2.726,3.202-2.339,8.009,0.863,10.735c1.434,1.219,3.187,1.816,4.932,1.816c2.155,0,4.296-0.91,5.803-2.679 l13.318-15.646c0.674,49.131-16.246,96.283-48.393,134.049c-35.14,41.284-84.254,66.411-138.293,70.755 c-4.192,0.337-7.317,4.008-6.98,8.201c0.32,3.985,3.653,7.006,7.582,7.006c0.205,0,0.411-0.008,0.618-0.025 c58.094-4.669,110.893-31.684,148.67-76.064c34.972-41.086,53.179-92.504,51.987-146.004l16.571,14.105 c3.202,2.726,8.009,2.34,10.735-0.863C504.048,261.754,503.661,256.949,500.458,254.223z"></path></g></g></svg>