<?xml version="1.0" encoding="UTF-8"?>
<svg xmlns="http://www.w3.org/2000/svg" width="314.978" height="75.829" viewBox="0 0 314.978 75.829">
  <defs>
    <style>.a{fill:#af5c37;}</style>
  </defs>
  <g transform="translate(-162.511 -6708.6)">
    <path class="a" d="M238.638,6773.7h1.729v10.523h-1.473l-5.515-7.486v7.487h-1.73V6773.7h1.63l5.359,7.276Z"></path>
    <path class="a" d="M259.655,6784.225H257.8l-1.014-2.539h-4.727l-1.031,2.539h-1.8l4.4-10.6h1.631Zm-5.245-8.389-1.714,4.211h3.444Z"></path>
    <path class="a" d="M271.455,6784.224h-1.772v-8.812h-3.171V6773.7l8.116,0v1.712h-3.174Z"></path>
    <path class="a" d="M292.028,6779.667c0,3.142-1.684,4.724-4.3,4.724-2.6,0-4.256-1.581-4.256-4.634V6773.7h1.754v5.986c0,1.953.957,3,2.53,3,1.557,0,2.514-.992,2.514-2.933V6773.7h1.755Z"></path>
    <path class="a" d="M309.041,6784.221l-2.457-3.668h-3.239v3.668H301.59V6773.7h5.5c2.3,0,3.713,1.278,3.713,3.337a3.121,3.121,0,0,1-2.387,3.2l2.7,3.984Zm-2.1-8.841h-3.594v3.535h3.61c1.258,0,2.059-.694,2.059-1.774,0-1.159-.772-1.761-2.075-1.761"></path>
    <path class="a" d="M327.517,6775.35h-5.659v2.735h5.015v1.654h-5.016v2.827h5.729v1.654H320.1V6773.7h7.415Z"></path>
    <path class="a" d="M355.176,6784.429,353.848,6783a4.3,4.3,0,0,1-3.073,1.367,3,3,0,0,1-3.257-3.02,3.145,3.145,0,0,1,2.128-2.964,3.546,3.546,0,0,1-.83-2.211,2.68,2.68,0,0,1,2.874-2.663,2.521,2.521,0,0,1,2.659,2.555,2.912,2.912,0,0,1-2.2,2.754l1.714,1.833a15.321,15.321,0,0,0,1.072-2.028l1.328.735a16.534,16.534,0,0,1-1.358,2.408l1.573,1.683Zm-4.556-4.9a1.944,1.944,0,0,0-1.331,1.758,1.556,1.556,0,0,0,1.671,1.551,2.685,2.685,0,0,0,1.887-.919Zm1.027-4.555a1.173,1.173,0,0,0-1.186,1.278,2.28,2.28,0,0,0,.755,1.577c1.029-.39,1.574-.873,1.574-1.654a1.107,1.107,0,0,0-1.143-1.2"></path>
    <path class="a" d="M380.623,6778.11c2.111.543,3.214,1.338,3.215,3.1,0,1.982-1.471,3.156-3.571,3.157a5.986,5.986,0,0,1-4.172-1.685l1.055-1.322a4.489,4.489,0,0,0,3.16,1.37c1.084,0,1.77-.529,1.77-1.341,0-.767-.4-1.172-2.258-1.623-2.126-.542-3.327-1.2-3.327-3.159a3.109,3.109,0,0,1,3.414-3.067,5.361,5.361,0,0,1,3.627,1.323l-.943,1.4a4.395,4.395,0,0,0-2.713-1.085c-1.03,0-1.63.559-1.63,1.263,0,.831.458,1.193,2.373,1.671"></path>
    <path class="a" d="M397.83,6780.831h-3.02v3.381h-1.758v-10.524h4.979c2.329,0,3.8,1.381,3.8,3.533,0,2.375-1.8,3.609-4,3.609m.058-5.459H394.81v3.791h3.078a1.911,1.911,0,0,0,2.156-1.894c0-1.25-.842-1.9-2.156-1.9"></path>
    <path class="a" d="M419.351,6784.211H417.49l-1.014-2.539h-4.729l-1.029,2.539h-1.8l4.4-10.6h1.63Zm-5.247-8.39-1.713,4.211h3.443Z"></path>
    <path class="a" d="M267,6720.052v-10.911l-35.361,0,0,32.734,35.361,0v-10.911l-20.081,10.043,0-14.573,10.691,5.347v-10.916l-10.69,5.346v-16.2Z"></path>
    <path class="a" d="M477.487,6717.851v-8.729l-21.83,0v8.728h9.826l0,15.279h-9.826v8.728l21.829,0v-8.728h-9.823v-15.278Z"></path>
    <path class="a" d="M337.158,6709.133l0,27.215-1.751-2.027,0-25.187h-2.182l0,22.659-19.568-22.658H303.542l0,32.737h9.117l0-27.215,1.755,2.028,0,25.187H316.6l0-22.66,19.569,22.658h10.117l0-32.737Z"></path>
    <path class="a" d="M187.66,6724c-2.357-.358-10.885-.667-12.652-.964-1.149-.2-3.654-.984-3.654-2.55,0-2.158,3.941-3.148,7.8-3.148,3.611,0,6.827,1.661,7.71,3.683l10.133-.006c0-6.957-7.539-12.411-17.214-12.411-9.606,0-16.093,4.364-16.093,10.6,0,4.56,3.8,6.709,9.914,7.538,3.37.454,9.531.406,12.649,1,1.19.224,3.222,1.239,3.222,2.807,0,2.157-3.883,3.15-8.377,3.15-3.759,0-7.113-1.661-8.029-3.683l-10.556.007c0,6.956,7.854,12.41,17.929,12.409,10.007,0,16.993-4.364,16.993-10.6,0-4.562-3.423-6.868-9.773-7.833"></path>
    <path class="a" d="M400.767,6717.276a2.47,2.47,0,0,1,2.589,2.009l15.781,0v-10.156h-6.245l-1.552,6.491c-1.887-4.194-6.784-6.821-13.332-6.819-8.32,0-14.125,4.429-14.124,10.766,0,5.35,3.07,8.4,9.386,9.324,1.808.263,3.612.369,5.208.464.868.049,1.679.1,2.4.165,1.835.159,3.054.556,3.054,1.974a2.4,2.4,0,0,1-2.683,2.257,2.889,2.889,0,0,1-3.109-2.322l-15.644,0v10.435h6.177l1.568-6.54c2,4.184,7.094,6.867,13.75,6.866,8.715,0,14.568-4.463,14.568-11.107,0-5.435-3.179-8.581-9.443-9.356-1.655-.2-3.073-.276-4.447-.345-1.157-.061-2.25-.118-3.371-.247-1.382-.167-2.8-.512-2.8-1.82a2.086,2.086,0,0,1,2.259-2.039"></path>
  </g>
</svg>
