<!-- icon666.com - MILLIONS vector ICONS FREE --><svg version="1.1" id="Capa_1" xmlns="http://www.w3.org/2000/svg" xmlns:xlink="http://www.w3.org/1999/xlink" x="0px" y="0px" viewBox="0 0 512 512" style="enable-background:new 0 0 512 512;" xml:space="preserve"><path style="fill:#F2F2F2;" d="M512,256c0,6.541-0.24,13.019-0.721,19.435c-3.72,49.445-21.473,94.971-49.298,132.598 c-33.646,45.526-82.035,79.496-138.115,94.866C302.258,508.834,279.5,512,256,512s-46.258-3.166-67.877-9.101 c-56.069-15.37-104.458-49.34-138.104-94.866C22.194,370.406,4.43,324.869,0.721,275.425C0.24,269.009,0,262.531,0,256 c0-56.728,18.453-109.15,49.685-151.583c31.201-42.402,75.17-74.836,126.224-91.638C201.101,4.483,228.028,0,256,0 s54.889,4.483,80.081,12.779c51.054,16.792,95.023,49.225,126.234,91.627C493.547,146.84,512,199.272,512,256z"></path><path style="fill:#DBDBDB;" d="M287.389,502.899c5.998,1.651,12.079,3.082,18.244,4.284C289.583,510.349,272.98,512,256,512 c-23.5,0-46.258-3.166-67.877-9.101c-56.069-15.37-104.458-49.34-138.104-94.866C22.194,370.406,4.43,324.869,0.721,275.425 C0.24,269.009,0,262.531,0,256c0-56.728,18.453-109.15,49.685-151.583c31.201-42.402,75.17-74.836,126.224-91.638 C201.101,4.483,228.028,0,256,0c16.98,0,33.573,1.651,49.633,4.807c-10.397,2.038-20.553,4.712-30.459,7.973 c-51.054,16.802-95.023,49.236-126.224,91.638C117.718,146.85,99.265,199.272,99.265,256c0,6.531,0.24,13.009,0.721,19.425 c3.709,49.445,21.473,94.981,49.298,132.608C182.93,453.559,231.32,487.528,287.389,502.899z"></path><path style="fill:#5A5C60;" d="M336.081,12.779C311.63,33.531,279.845,52.214,256,60.343c-11.975-4.086-25.966-10.836-40.02-19.163 c-13.918-8.265-27.909-18.077-40.072-28.4C201.101,4.483,228.028,0,256,0c16.98,0,33.573,1.651,49.633,4.807 C316.019,6.844,326.175,9.519,336.081,12.779z"></path><path style="fill:#404347;" d="M305.633,4.807c-10.397,2.038-20.553,4.712-30.459,7.973c-21.076,6.938-40.939,16.53-59.193,28.4 c-13.918-8.265-27.909-18.077-40.072-28.4C201.101,4.483,228.028,0,256,0C272.98,0,289.573,1.651,305.633,4.807z"></path><g><path style="fill:#5A5C60;" d="M255.997,140.69c-35.959,12.274-90.003,48.53-109.667,79.678c0,39.623,18.738,97.179,41.889,128.922 l0,0c43.957,14.901,91.599,14.901,135.556,0l0,0c23.151-31.743,41.889-95.895,41.889-128.922 C346,189.221,291.956,152.964,255.997,140.69z"></path><rect x="289.047" y="373.323" transform="matrix(-0.544 -0.8391 0.8391 -0.544 212.0072 877.5352)" style="fill:#5A5C60;" width="110.813" height="15.674"></rect><polygon style="fill:#5A5C60;" points="209.484,330.897 154.815,415.231 138.797,439.932 125.642,431.406 144.836,401.804 196.329,322.371 "></polygon><polygon style="fill:#5A5C60;" points="168.347,218.048 164.366,233.21 102.236,216.888 57.201,205.05 61.182,189.888 105.109,201.434 "></polygon><rect x="391.395" y="143.573" transform="matrix(-0.2542 -0.9672 0.9672 -0.2542 296.0883 651.4719)" style="fill:#5A5C60;" width="15.674" height="136"></rect><rect x="248.163" y="42.281" style="fill:#5A5C60;" width="15.673" height="116.475"></rect></g><path style="fill:#404347;" d="M79.214,202.731C63.08,226.795,30.762,257.4,0.721,275.425C0.24,269.009,0,262.531,0,256 c0-56.728,18.453-109.15,49.685-151.583C65.62,134.687,77.354,175.031,79.214,202.731z"></path><path style="fill:#5A5C60;" d="M512,256c0,6.541-0.24,13.019-0.721,19.435c-30.041-18.035-62.37-48.64-78.503-72.704 c1.86-27.7,13.594-68.054,29.539-98.325C493.547,146.84,512,199.272,512,256z"></path><path style="fill:#404347;" d="M188.123,502.899c-56.069-15.37-104.458-49.34-138.104-94.866 c32.726-4.138,71.576-1.902,96.883,4.984C163.025,434.333,179.921,470.507,188.123,502.899z"></path><path style="fill:#5A5C60;" d="M461.981,408.033c-33.646,45.526-82.035,79.496-138.115,94.866 c8.202-32.392,25.098-68.566,41.221-89.882C390.395,406.131,429.255,403.895,461.981,408.033z"></path><g><path style="fill:#404347;" d="M61.182,189.888l43.928,11.546c-1.118,5.099-2.069,10.25-2.873,15.454L57.201,205.05L61.182,189.888 z"></path><path style="fill:#404347;" d="M154.815,415.231l-16.018,24.701l-13.155-8.526l19.195-29.602c1.452,2.1,2.936,4.18,4.451,6.228 C151.085,410.466,152.924,412.869,154.815,415.231z"></path></g></svg>