<!-- icon666.com - MILLIONS vector ICONS FREE --><svg version="1.1" id="Layer_1" xmlns="http://www.w3.org/2000/svg" xmlns:xlink="http://www.w3.org/1999/xlink" x="0px" y="0px" viewBox="0 0 485.656 485.656" style="enable-background:new 0 0 485.656 485.656;" xml:space="preserve"><path style="fill:#C94E4E;" d="M352,274.828c0,2.808,0.776,5.56,2.224,8h27.552c1.448-2.432,2.224-5.192,2.224-8 c0-8.824-7.176-16-16-16S352,266.012,352,274.828z"></path><g><polygon style="fill:#B5E2DE;" points="219.312,354.828 248,383.516 248,342.14 240,334.14 "></polygon><path style="fill:#B5E2DE;" d="M376,330.828h84.904l-10.664-32h-64.464h-35.544h-72.464L264,340.124v102.704 c0,13.232,10.768,24,24,24h152c13.232,0,24-10.768,24-24v-96h-88V330.828z M328,346.828h-16v-16h16V346.828z M360,346.828h-16v-16 h16V346.828z"></path><path style="fill:#B5E2DE;" d="M320,130.828c0,13.232,10.768,24,24,24h80c13.232,0,24-10.768,24-24v-88H320V130.828z M336,58.828 h16v16h-16V58.828z M336,90.828h16v40h-16V90.828z"></path></g><path style="fill:#C94E4E;" d="M126.792,450.46c0.456,9.184,8.016,16.368,17.208,16.368s16.752-7.184,17.208-16.368l6.384-127.632 h-47.176L126.792,450.46z M136,434.828h16v16h-16V434.828z"></path><g><path style="fill:#B5E2DE;" d="M272,146.828c0-70.576-57.424-128-128-128s-128,57.424-128,128s57.424,128,128,128 S272,217.412,272,146.828z M40,146.828c0-57.344,46.656-104,104-104s104,46.656,104,104s-46.656,104-104,104S40,204.172,40,146.828 z"></path><path style="fill:#B5E2DE;" d="M144,290.828c-5.416,0-10.736-0.36-16-0.944v16.944h32v-16.944 C154.744,290.468,149.416,290.828,144,290.828z"></path></g><path style="fill:#8FB3AF;" d="M232,146.828c0-48.52-39.48-88-88-88s-88,39.48-88,88s39.48,88,88,88S232,195.356,232,146.828z"></path><g><path style="fill:#030130;" d="M248,146.828c0-57.344-46.656-104-104-104s-104,46.656-104,104s46.656,104,104,104 S248,204.172,248,146.828z M56,146.828c0-48.52,39.48-88,88-88s88,39.48,88,88s-39.48,88-88,88S56,195.356,56,146.828z"></path><path style="fill:#030130;" d="M176,306.828v-19.712c64.032-14.6,112-71.896,112-140.288c0-79.4-64.6-144-144-144 S0,67.436,0,146.828c0,68.392,47.968,125.688,112,140.288v19.712c-2.192,0-4.288,0.896-5.8,2.488 c-1.504,1.584-2.304,3.728-2.192,5.912l6.8,136.032c0.888,17.704,15.464,31.568,33.192,31.568s32.304-13.864,33.184-31.568 l6.8-136.032c0.112-2.184-0.68-4.328-2.192-5.912C180.288,307.732,178.192,306.828,176,306.828z M16,146.828 c0-70.576,57.424-128,128-128s128,57.424,128,128s-57.424,128-128,128S16,217.412,16,146.828z M128,289.884 c5.264,0.584,10.584,0.944,16,0.944s10.736-0.36,16-0.944v16.944h-32V289.884z M161.208,450.46 c-0.456,9.184-8.016,16.368-17.208,16.368s-16.752-7.184-17.208-16.368l-6.384-127.632h47.176L161.208,450.46z"></path><rect x="136" y="434.828" style="fill:#030130;" width="16" height="16"></rect><path style="fill:#030130;" d="M464,289.532v-14.704c0-46.32-37.68-84-84-84s-84,37.68-84,84v8h-24c-3.448,0-6.496,2.2-7.592,5.472 l-11.904,35.72l-6.848-6.848c-3.128-3.128-8.184-3.128-11.312,0l-32,32c-3.128,3.128-3.128,8.184,0,11.312L248,406.14v36.688 c0,22.056,17.944,40,40,40h152c22.056,0,40-17.944,40-40v-104c0-0.856-0.136-1.712-0.408-2.528L464,289.532z M312,274.828 c0-37.496,30.504-68,68-68s68,30.512,68,68v8h-49.168c0.688-2.608,1.168-5.272,1.168-8c0-17.648-14.352-32-32-32s-32,14.352-32,32 c0,2.728,0.48,5.392,1.168,8H312V274.828z M352,274.828c0-8.824,7.176-16,16-16s16,7.176,16,16c0,2.808-0.776,5.56-2.224,8h-27.552 C352.776,280.396,352,277.636,352,274.828z M219.312,354.828L240,334.14l8,8v41.376L219.312,354.828z M440,466.828H288 c-13.232,0-24-10.768-24-24V340.124l13.768-41.296h72.464h35.544h64.464l10.664,32H376v16h88v96 C464,456.068,453.232,466.828,440,466.828z"></path><rect x="344" y="330.828" style="fill:#030130;" width="16" height="16"></rect><rect x="312" y="330.828" style="fill:#030130;" width="16" height="16"></rect><path style="fill:#030130;" d="M296,30.14l8,8v92.688c0,22.056,17.944,40,40,40h80c22.056,0,40-17.944,40-40V38.14l8-8l2.344,2.344 l11.312-11.312l-16-16l-11.312,11.312l2.344,2.344l-8,8H315.312l-8-8l2.344-2.344L298.344,5.172l-16,16l11.312,11.312L296,30.14z M320,42.828h128v88c0,13.232-10.768,24-24,24h-80c-13.232,0-24-10.768-24-24V42.828z"></path><rect x="336" y="90.828" style="fill:#030130;" width="16" height="40"></rect><rect x="336" y="58.828" style="fill:#030130;" width="16" height="16"></rect></g></svg>