<!-- icon666.com - MILLIONS vector ICONS FREE --><svg viewBox="0 -31 512 512" xmlns="http://www.w3.org/2000/svg"><path d="m452 344.699219c0 57.902343-48.101562 105-106 105h-180c-57.898438 0-106-47.097657-106-105 0-8.398438 6.597656-15 15-15h362c8.402344 0 15 6.601562 15 15zm0 0" fill="#70da40"></path><path d="m452 344.699219c0 57.902343-48.101562 105-106 105h-90v-120h181c8.402344 0 15 6.601562 15 15zm0 0" fill="#56c225"></path><path d="m482 239.699219v75c0 24.898437-20.097656 45-45 45h-362c-24.902344 0-45-20.101563-45-45v-75c0-82.800781 68.199219-150 151-150h150c82.800781 0 151 67.199219 151 150zm0 0" fill="#90e36a"></path><path d="m482 239.699219v75c0 24.898437-20.097656 45-45 45h-181v-270h75c82.800781 0 151 67.199219 151 150zm0 0" fill="#70da40"></path><path d="m226 299.699219c-8.289062 0-15-6.707031-15-15v-30c0-8.289063 6.710938-15 15-15s15 6.710937 15 15v30c0 8.292969-6.710938 15-15 15zm0 0" fill="#68544f"></path><path d="m286 299.699219c-8.289062 0-15-6.707031-15-15v-30c0-8.289063 6.710938-15 15-15s15 6.710937 15 15v30c0 8.292969-6.710938 15-15 15zm0 0" fill="#53433f"></path><path d="m328.597656 96.300781-60-90c-2.996094-4.203125-7.796875-6.300781-12.597656-6.300781s-9.601562 2.097656-12.597656 6.300781l-60 90c-3.300782 5.097657-3.300782 11.699219 0 16.796875l60 90c2.996094 4.203125 7.5 6.601563 12.597656 6.601563s9.601562-2.398438 12.597656-6.601563l60-90c3.304688-5.097656 3.304688-11.699218 0-16.796875zm0 0" fill="#70da40"></path><path d="m414.808594 90.425781c-46.222656 3.734375-83.808594 42.109375-83.808594 89.273438 0 49.628906 41.371094 90 91 90 26.835938 0 50.6875-12.039063 67.191406-30.726563zm0 0" fill="#dfd7d5"></path><path d="m97.191406 90.425781-74.382812 148.546875c16.503906 18.6875 40.355468 30.726563 67.191406 30.726563 49.628906 0 91-40.371094 91-90 0-47.164063-37.585938-85.539063-83.808594-89.273438zm0 0" fill="#ede9e8"></path><path d="m268.597656 203.097656c-2.996094 4.203125-7.5 6.601563-12.597656 6.601563v-209.699219c4.800781 0 9.601562 2.097656 12.597656 6.300781l60 90c3.300782 5.097657 3.300782 11.699219 0 16.796875zm0 0" fill="#56c225"></path><path d="m482 164.699219 24.472656-15c-12.425781-34.84375-45.414062-60-84.472656-60-2.464844 0-4.777344.535156-7.191406.726562-14.019532 15.875-22.808594 36.480469-22.808594 59.273438 0 49.628906 40.371094 90 90 90 2.464844 0 4.777344-.53125 7.191406-.726563 14.019532-15.871094 22.808594-36.476562 22.808594-59.273437zm0 0" fill="#99503d"></path><path d="m467 149.699219c-8.289062 0-15 6.710937-15 15 0 8.292969 6.710938 15 15 15h45c0-10.570313-2.164062-20.570313-5.527344-30zm0 0" fill="#53433f"></path><path d="m97.191406 90.425781c-2.414062-.191406-4.730468-.726562-7.191406-.726562-39.058594 0-72.046875 25.15625-84.472656 60l24.472656 15-30 15c0 22.796875 8.789062 43.402343 22.808594 59.273437 2.414062.195313 4.730468.726563 7.191406.726563 49.628906 0 90-40.371094 90-90 0-22.792969-8.789062-43.398438-22.808594-59.273438zm0 0" fill="#b35f49"></path><path d="m60 164.699219c0-8.289063-6.710938-15-15-15h-39.472656c-3.363282 9.429687-5.527344 19.429687-5.527344 30h45c8.289062 0 15-6.707031 15-15zm0 0" fill="#68544f"></path></svg>