<svg width="39" height="25" viewBox="0 0 39 25" fill="none" xmlns="http://www.w3.org/2000/svg">
<path d="M14.1807 22.3523H24.6807V3.48364H14.1807L14.1807 22.3523Z" fill="#FF5F00"/>
<path d="M14.8469 12.918C14.8469 9.08997 16.6393 5.68131 19.4303 3.48365C17.3177 1.81783 14.7046 0.913823 12.0143 0.917983C5.38762 0.917983 0.015625 6.29064 0.015625 12.918C0.015625 19.5453 5.38762 24.918 12.0146 24.918C14.705 24.9221 17.318 24.0181 19.4306 22.3523C16.6396 20.155 14.8473 16.7456 14.8473 12.918" fill="#EB001B"/>
<path fill-rule="evenodd" clip-rule="evenodd" d="M38.471 19.8883V20.8876H38.3853V20.131L38.254 20.7831H38.165L38.0336 20.1331V20.8883H37.948V19.8883H38.0696L38.2093 20.5755L38.3493 19.8883H38.471ZM37.701 20.058V20.8883H37.7006H37.6156V20.0587H37.46V19.8897H37.8566V20.058H37.701Z" fill="#231F20"/>
<path d="M38.846 12.918C38.846 19.5453 33.4733 24.918 26.8463 24.918C24.1561 24.9221 21.5432 24.0181 19.4307 22.3523C22.2217 20.155 24.014 16.7456 24.014 12.918C24.014 9.08997 22.2217 5.68131 19.4307 3.48365C21.5433 1.81779 24.1563 0.913771 26.8467 0.917983C33.4736 0.917983 38.846 6.29064 38.846 12.918Z" fill="#F79E1B"/>
</svg>
