<!-- icon666.com - MILLIONS vector ICONS FREE --><svg version="1.1" id="Capa_1" xmlns="http://www.w3.org/2000/svg" xmlns:xlink="http://www.w3.org/1999/xlink" x="0px" y="0px" viewBox="0 0 512 512" style="enable-background:new 0 0 512 512;" xml:space="preserve"><path style="fill:#C1C1C1;" d="M422,45v30c0,24.901-20.099,45-45,45s-45-20.099-45-45V60c0-16.5-13.5-30-30-30s-30,13.5-30,30v75 c0,8.401-7.599,15-16,15s-16-6.599-16-15V60c0-15,6.4-28.801,16-39.3C266.8,8.101,284.001,0,302,0c32.999,0,60,27.001,60,60v15 c0,8.401,6.599,15,15,15s15-6.599,15-15V45c0-8.401,6.599-15,15-15S422,36.599,422,45z"></path><path style="fill:#4A98F7;" d="M302,165v29.099c0,8.401-6.599,15-15,15h-62c-8.401,0-15-6.599-15-15V165c0-24.901,21.099-45,46-45 S302,140.099,302,165z"></path><path style="fill:#4A7AFF;" d="M302,165v29.099c0,8.401-6.599,15-15,15h-31V120C280.901,120,302,140.099,302,165z"></path><path style="fill:#595959;" d="M508.4,377l-17.701-141.301C484.701,188,443.899,150,395.9,150c-14.7,0-29.399,3.6-42.599,10.201 c-26.1,12.9-56.201,19.799-85.3,19.799H244c-29.099,0-59.2-6.899-85.3-19.799C145.499,153.6,130.8,150,116.1,150 c-47.999,0-88.801,38-94.799,85.699L3.6,377C1.199,396.2,0,416,0,435.5C0,477.8,34.2,512,76.5,512c22.5,0,43.801-9.901,58.5-27.001 L192.299,422h118.4l67.8,67.5c14.101,14.399,33.9,22.5,57.001,22.5c42.299,0,76.5-34.2,76.5-76.5C512,416,510.801,396.2,508.4,377z"></path><path style="fill:#474747;" d="M512,435.5c0,42.299-34.2,76.5-76.5,76.5c-23.101,0-42.9-8.101-57.001-22.5l-67.8-67.5H256V180 h12.001c29.099,0,59.2-6.899,85.3-19.799C366.501,153.6,381.2,150,395.9,150c47.999,0,88.801,38,94.799,85.699L508.4,377 C510.801,396.2,512,416,512,435.5z"></path><g><path style="fill:#E5E5E5;" d="M135,272h-15v-15c0-8.291-6.709-15-15-15s-15,6.709-15,15v15H75c-8.291,0-15,6.709-15,15 s6.709,15,15,15h15v15c0,8.291,6.709,15,15,15s15-6.709,15-15v-15h15c8.291,0,15-6.709,15-15S143.291,272,135,272z"></path><path style="fill:#E5E5E5;" d="M225,302h-30c-8.291,0-15-6.709-15-15s6.709-15,15-15h30c8.291,0,15,6.709,15,15 S233.291,302,225,302z"></path></g><path style="fill:#CFCFCF;" d="M317,302h-30c-8.291,0-15-6.709-15-15s6.709-15,15-15h30c8.291,0,15,6.709,15,15S325.291,302,317,302 z"></path><circle style="fill:#FFC247;" cx="407" cy="257" r="15"></circle><circle style="fill:#FF468C;" cx="437" cy="287" r="15"></circle><circle style="fill:#00CB7E;" cx="407" cy="317" r="15"></circle><circle style="fill:#4A7AFF;" cx="377" cy="287" r="15"></circle><path style="fill:#C1C1C1;" d="M180,452c-33.091,0-60-26.909-60-60s26.909-60,60-60s60,26.909,60,60S213.091,452,180,452z"></path><path style="fill:#9C9C9C;" d="M332,452c-33.091,0-60-26.909-60-60s26.909-60,60-60s60,26.909,60,60S365.091,452,332,452z"></path></svg>