<svg width="24" height="24" viewBox="0 0 24 24" fill="none" xmlns="http://www.w3.org/2000/svg">
<g clip-path="url(#clip0_1_254)">
<path d="M12.0001 1.33334C9.92353 1.33508 7.93205 2.15847 6.4606 3.62367C4.98915 5.08888 4.1573 7.07683 4.14673 9.15334C4.14673 12.2667 5.8934 14.8733 7.1734 16.7733L7.40673 17.12C8.68025 18.9658 10.0464 20.7458 11.5001 22.4533L12.0067 23.0467L12.5134 22.4533C13.9668 20.7457 15.333 18.9656 16.6067 17.12L16.8401 16.7667C18.1134 14.8667 19.8601 12.2667 19.8601 9.15334C19.8495 7.07568 19.0167 5.08672 17.5438 3.62132C16.0709 2.15593 14.0778 1.33332 12.0001 1.33334ZM12.0001 12.6667C11.1351 12.6667 10.2896 12.4102 9.57037 11.9296C8.85118 11.4491 8.29064 10.7661 7.95963 9.96695C7.62862 9.16782 7.54201 8.28849 7.71076 7.44015C7.87951 6.5918 8.29603 5.81255 8.90765 5.20093C9.51927 4.58931 10.2985 4.17279 11.1469 4.00404C11.9952 3.8353 12.8745 3.9219 13.6737 4.25291C14.4728 4.58392 15.1558 5.14446 15.6364 5.86365C16.1169 6.58284 16.3734 7.42838 16.3734 8.29334C16.3734 9.45322 15.9126 10.5656 15.0925 11.3858C14.2723 12.2059 13.1599 12.6667 12.0001 12.6667Z" fill="#6B2A76"/>
<path d="M12.0001 10.78C13.3734 10.78 14.4868 9.66669 14.4868 8.29334C14.4868 6.91999 13.3734 5.80667 12.0001 5.80667C10.6267 5.80667 9.51343 6.91999 9.51343 8.29334C9.51343 9.66669 10.6267 10.78 12.0001 10.78Z" fill="#6B2A76"/>
</g>
<defs>
<clipPath id="clip0_1_254">
<rect width="24" height="24" fill="white"/>
</clipPath>
</defs>
</svg>
