<svg width="35" height="35" viewBox="0 0 35 35" fill="none" xmlns="http://www.w3.org/2000/svg">
<mask id="mask0_1_87" style="mask-type:luminance" maskUnits="userSpaceOnUse" x="0" y="3" width="35" height="29">
<path d="M6.5625 29.1667L2.91666 12.3958L10.2083 16.0417L17.5 5.83334L24.7917 16.0417L32.0833 12.3958L28.4375 29.1667H6.5625Z" fill="white" stroke="white" stroke-width="4" stroke-linejoin="round"/>
<path d="M17.5 24.0625C18.2735 24.0625 19.0154 23.7552 19.5624 23.2082C20.1094 22.6613 20.4167 21.9194 20.4167 21.1459C20.4167 20.3723 20.1094 19.6304 19.5624 19.0835C19.0154 18.5365 18.2735 18.2292 17.5 18.2292C16.7264 18.2292 15.9846 18.5365 15.4376 19.0835C14.8906 19.6304 14.5833 20.3723 14.5833 21.1459C14.5833 21.9194 14.8906 22.6613 15.4376 23.2082C15.9846 23.7552 16.7264 24.0625 17.5 24.0625Z" fill="black" stroke="black" stroke-width="4" stroke-linejoin="round"/>
</mask>
<g mask="url(#mask0_1_87)">
<path d="M0 0H35V35H0V0Z" fill="white"/>
</g>
</svg>
