<!-- icon666.com - MILLIONS vector ICONS FREE --><svg version="1.1" id="Capa_1" xmlns="http://www.w3.org/2000/svg" xmlns:xlink="http://www.w3.org/1999/xlink" x="0px" y="0px" viewBox="0 0 297 297" style="enable-background:new 0 0 297 297;" xml:space="preserve"><g><path d="M170.607,277.775h-12.495v-75.932h53.825c14.045,0,25.471-11.426,25.471-25.471c0-14.045-11.426-25.471-25.471-25.471 h-53.825V88.747h123.64c3.496,0,6.716-1.898,8.409-4.957c1.693-3.058,1.592-6.796-0.264-9.758 c-23.751-37.909-74.831-63.093-131.871-65.634C157.429,3.664,153.396,0,148.5,0s-8.929,3.664-9.527,8.398 C81.933,10.939,30.854,36.123,7.103,74.032c-1.856,2.962-1.957,6.7-0.264,9.758c1.693,3.059,4.913,4.957,8.409,4.957h123.64v62.155 H85.064c-14.045,0-25.471,11.426-25.471,25.471c0,14.045,11.426,25.471,25.471,25.471h53.825v75.932h-12.495 c-5.308,0-9.612,4.304-9.612,9.612s4.304,9.612,9.612,9.612h44.213c5.308,0,9.612-4.304,9.612-9.612 S175.915,277.775,170.607,277.775z M148.5,27.393c46.188,0,88.584,16.108,113.559,42.13H34.941 C59.916,43.501,102.312,27.393,148.5,27.393z M78.816,176.373c0-3.445,2.803-6.248,6.248-6.248h126.873 c3.445,0,6.248,2.803,6.248,6.248s-2.803,6.248-6.248,6.248H85.064C81.619,182.62,78.816,179.817,78.816,176.373z"></path><path d="M95.727,221.865c-0.977-4.398-4.878-7.527-9.383-7.527H39.569V112.936c0-5.308-4.304-9.612-9.612-9.612 s-9.612,4.304-9.612,9.612v109.96L6.477,285.302c-1.152,5.181,2.116,10.316,7.298,11.467c0.702,0.156,1.403,0.231,2.094,0.231 c4.405,0,8.378-3.049,9.373-7.529l12.425-55.91h40.968l12.425,55.91c0.995,4.48,4.967,7.529,9.373,7.529 c0.691,0,1.392-0.075,2.094-0.231c5.182-1.152,8.45-6.286,7.298-11.467L95.727,221.865z"></path><path d="M276.654,222.896v-109.96c0-5.308-4.304-9.612-9.612-9.612c-5.308,0-9.612,4.304-9.612,9.612v101.402h-46.776 c-4.504,0-8.405,3.128-9.383,7.527l-14.097,63.436c-1.152,5.181,2.116,10.316,7.298,11.467c0.702,0.156,1.403,0.231,2.094,0.231 c4.405,0,8.378-3.049,9.373-7.529l12.425-55.91h40.968l12.425,55.91c0.995,4.48,4.967,7.529,9.373,7.529 c0.691,0,1.392-0.075,2.094-0.231c5.182-1.152,8.45-6.286,7.298-11.467L276.654,222.896z"></path></g></svg>