<!-- icon666.com - MILLIONS vector ICONS FREE --><svg version="1.1" id="Layer_1" xmlns="http://www.w3.org/2000/svg" xmlns:xlink="http://www.w3.org/1999/xlink" x="0px" y="0px" viewBox="0 0 512 512" style="enable-background:new 0 0 512 512;" xml:space="preserve"><g><g><path d="M282.949,79.889c-20.182-3.46-41.373-2.961-61.351,1.464c-4.818,1.068-7.859,5.838-6.791,10.656 c0.923,4.169,4.617,7.006,8.716,7.006c0.64,0,1.29-0.069,1.941-0.213c17.727-3.927,36.556-4.369,54.467-1.299 c4.865,0.836,9.483-2.433,10.317-7.298C291.081,85.342,287.814,80.724,282.949,79.889z"></path></g></g><g><g><path d="M368.014,335.387c-3.49-3.489-9.148-3.489-12.638,0.001c-26.544,26.544-61.835,41.162-99.374,41.162 c-44.727,0-87.193-21.599-113.597-57.778c-2.91-3.988-8.5-4.861-12.485-1.95c-3.987,2.91-4.86,8.5-1.95,12.485 c29.758,40.772,77.621,65.114,128.033,65.114c42.312,0,82.091-16.478,112.012-46.397 C371.504,344.534,371.504,338.875,368.014,335.387z"></path></g></g><g><g><path d="M443.282,379.644c31.455-40.989,48.731-91.805,48.731-143.625C492.013,105.878,386.141,0,256.006,0 C125.865,0,19.987,105.878,19.987,236.019c0,48.729,14.658,95.314,42.427,135.014L34.436,475.449 c-2.006,7.49-0.977,15.312,2.9,22.026c3.877,6.714,10.136,11.517,17.624,13.524c2.501,0.67,5.039,1.001,7.56,1.001 c5.029,0,9.994-1.319,14.466-3.901c6.714-3.876,11.518-10.136,13.524-17.624l18.672-69.682 c41.647,33.129,93.244,51.235,146.826,51.235c50.294,0,99.37-16.172,139.667-45.766l17.206,64.213 c2.006,7.49,6.809,13.748,13.524,17.624c4.473,2.582,9.435,3.901,14.466,3.901c2.521,0,5.059-0.331,7.56-1.001 c7.488-2.008,13.747-6.809,17.624-13.524c3.876-6.714,4.907-14.536,2.9-22.024L443.282,379.644z M106.998,359.882L73.245,485.848 c-0.771,2.877-2.616,5.283-5.196,6.772c-2.58,1.489-5.586,1.886-8.463,1.114c-2.879-0.771-5.283-2.617-6.772-5.196 c-1.489-2.581-1.886-5.586-1.114-8.464l33.753-125.966c0.771-2.877,2.617-5.283,5.196-6.772c1.718-0.993,3.626-1.499,5.558-1.499 c0.969,0,1.944,0.128,2.905,0.385c2.877,0.771,5.283,2.617,6.772,5.196C107.373,353.999,107.77,357.004,106.998,359.882z M408.789,231.217c6.446-11.163,8.158-24.168,4.821-36.619L385.047,88.005c-1.277-4.767-6.178-7.594-10.945-6.32 c-4.767,1.277-7.596,6.178-6.32,10.945l23.622,88.161l-20.719,5.551l-23.622-88.161c-1.277-4.767-6.179-7.593-10.945-6.32 c-4.767,1.277-7.596,6.178-6.32,10.945l23.622,88.161l-20.719,5.552l-23.622-88.161c-1.277-4.767-6.18-7.593-10.945-6.32 c-4.767,1.277-7.596,6.178-6.32,10.945l28.562,106.595c5.771,21.536,25.319,35.773,46.625,35.773c1.205,0,2.415-0.06,3.628-0.153 l20.751,77.442c-3.813,2.464-7.024,5.799-9.359,9.843c-3.876,6.714-4.907,14.536-2.9,22.024l11.551,43.111 c-38.238,30.044-85.83,46.534-134.669,46.534c-52.148,0-102.265-18.544-141.746-52.324l10-37.322 c2.006-7.49,0.977-15.312-2.9-22.026c-2.335-4.045-5.547-7.379-9.359-9.843l25.708-95.946c2.894,0.396,5.751,0.593,8.563,0.593 c11.086,0,21.46-3.068,30.594-9.13c14.968-9.933,25.847-27.248,32.334-51.46c14-52.246-1.537-100.273-35.369-109.339 c-33.833-9.064-71.3,24.76-85.299,77.006c-6.488,24.213-5.723,44.647,2.272,60.733c6.116,12.304,16.279,21.495,29.646,26.956 l-25.71,95.949c-4.536,0.226-8.985,1.52-13.03,3.857c-6.228,3.596-10.779,9.257-13.012,16.03 c-20.225-33.71-30.84-72.01-30.84-111.87c0-120.288,97.86-218.148,218.147-218.148c120.28,0,218.135,97.86,218.135,218.147 c0,43.88-12.678,85.474-36.828,121.349l-2.113-7.885c-3.336-12.448-14.326-20.836-26.552-21.472l-20.746-77.425 C396.608,246.424,403.859,239.754,408.789,231.217z M374.86,236.438c-16.186,4.336-32.879-5.303-37.214-21.486l-0.313-1.17 l29.346-7.864c0.001,0,0.002,0,0.004,0s0.002-0.001,0.004-0.001l29.346-7.864l0.313,1.17c2.101,7.84,1.022,16.029-3.035,23.057 C389.252,229.31,382.699,234.339,374.86,236.438z M133.562,217.65c-27.774-7.442-37.634-31.827-27.765-68.662 c10.03-37.432,34.967-65.206,56.966-65.206c2.183,0,4.337,0.273,6.445,0.839c23.347,6.255,33.757,46.303,22.731,87.449 c-5.327,19.881-13.722,33.741-24.953,41.195C157.482,219.573,146.237,221.046,133.562,217.65z M450.575,488.539 c-1.489,2.581-3.895,4.425-6.772,5.196c-2.879,0.771-5.883,0.375-8.463-1.114c-2.581-1.489-4.425-3.895-5.196-6.772 l-33.752-125.966c-0.771-2.877-0.375-5.883,1.114-8.463c1.489-2.581,3.895-4.425,6.772-5.196c0.963-0.259,1.931-0.381,2.883-0.381 c4.924,0,9.442,3.291,10.776,8.268l33.752,125.967C452.461,482.953,452.065,485.959,450.575,488.539z"></path></g></g></svg>