<!-- icon666.com - MILLIONS vector ICONS FREE --><svg version="1.1" id="Capa_1" xmlns="http://www.w3.org/2000/svg" xmlns:xlink="http://www.w3.org/1999/xlink" x="0px" y="0px" viewBox="0 0 512 512" style="enable-background:new 0 0 512 512;" xml:space="preserve"><circle style="fill:#8D24A9;" cx="256" cy="256" r="256"></circle><path style="fill:#6A1B99;" d="M60,315.348L257.514,511.98C398.201,511.164,512,396.879,512,256c0-2.141-0.029-4.275-0.081-6.404 l-86.963-86.963l-42.53,56.237L275.56,112.004l-57.107,146.877L60,315.348z"></path><path style="fill:#EB407A;" d="M343.887,250.163c-50.718,0-95.104,21.083-119.484,52.599c24.38,31.516,68.766,52.599,119.484,52.599 s95.104-21.083,119.484-52.599C438.991,271.247,394.605,250.163,343.887,250.163z"></path><g><path style="fill:#FE4080;" d="M168.113,250.163c50.718,0,95.104,21.083,119.484,52.599 c-24.38,31.516-68.766,52.599-119.484,52.599s-95.104-21.083-119.484-52.599C73.009,271.247,117.395,250.163,168.113,250.163z"></path><path style="fill:#FE4080;" d="M303.272,209.927c-35.864,35.863-52.341,82.156-47.296,121.681 c39.525,5.046,85.82-11.431,121.683-47.294c35.864-35.863,52.341-82.156,47.296-121.681 C385.431,157.587,339.136,174.064,303.272,209.927z"></path></g><path style="fill:#F96EA0;" d="M208.728,209.927c35.864,35.863,52.341,82.156,47.296,121.681 c-39.525,5.046-85.82-11.431-121.683-47.294C98.477,248.451,82,202.158,87.045,162.633 C126.569,157.587,172.864,174.064,208.728,209.927z"></path><path style="fill:#FE4080;" d="M203.378,212.123c0,50.718,21.083,95.104,52.599,119.484c31.516-24.38,52.599-68.766,52.599-119.484 s-21.083-95.104-52.599-119.484C224.461,117.019,203.378,161.405,203.378,212.123z"></path><path style="fill:#EB407A;" d="M255.977,331.607c31.516-24.38,52.599-68.766,52.599-119.484s-21.083-95.104-52.599-119.484 L255.977,331.607L255.977,331.607z"></path></svg>