<svg width="24" height="24" viewBox="0 0 24 24" fill="none" xmlns="http://www.w3.org/2000/svg">
<g clip-path="url(#clip0_1_24)">
<path d="M23.2144 12.5434L20.8625 1.92576C20.776 1.53755 20.5391 1.1995 20.2037 0.985753C19.8683 0.772009 19.4618 0.700033 19.0734 0.785615L8.45592 3.13752C8.26359 3.18012 8.08153 3.26019 7.92014 3.37316C7.75875 3.48612 7.6212 3.62977 7.51533 3.7959C7.40946 3.96203 7.33735 4.14738 7.30312 4.34138C7.26889 4.53538 7.27321 4.73422 7.31583 4.92655L8.30119 9.37499H2.25C1.85231 9.37544 1.47104 9.53361 1.18983 9.81482C0.908625 10.096 0.750447 10.4773 0.75 10.875V21.75C0.750447 22.1477 0.908625 22.5289 1.18983 22.8102C1.47104 23.0914 1.85231 23.2495 2.25 23.25H13.125C13.5227 23.2495 13.904 23.0914 14.1852 22.8102C14.4664 22.5289 14.6246 22.1477 14.625 21.75V15.9823L22.0742 14.3323C22.4624 14.2459 22.8005 14.009 23.0142 13.6736C23.228 13.3382 23.2999 12.9318 23.2144 12.5434ZM13.125 21.75H2.25V10.875H8.63348L9.66769 15.544C9.74155 15.8769 9.92652 16.1747 10.1922 16.3885C10.4578 16.6023 10.7883 16.7192 11.1292 16.7202C11.2394 16.7201 11.3491 16.708 11.4566 16.6842L13.1254 16.3145L13.1259 21.75H13.125ZM21.75 12.8678L11.1322 15.2196L8.78034 4.60199L19.398 2.24999L21.7508 12.8674L21.75 12.8678Z" fill="#434650"/>
<path d="M3.75 12.375H5.625V14.25H3.75V12.375ZM3.75 18.375H5.625V20.25H3.75V18.375ZM9.75 18.375H11.625V20.25H9.75V18.375ZM6.75 15.375H8.625V17.25H6.75V15.375ZM10.5682 5.74534L12.3989 5.34015L12.8041 7.17085L10.9734 7.57604L10.5682 5.74534ZM17.7247 10.3027L19.5554 9.8972L19.9609 11.7279L18.1302 12.1333L17.7247 10.3027ZM14.1471 8.02224L15.9777 7.61677L16.3831 9.44738L14.5526 9.85285L14.1471 8.02224Z" fill="#434650"/>
</g>
<defs>
<clipPath id="clip0_1_24">
<rect width="24" height="24" fill="white"/>
</clipPath>
</defs>
</svg>
