<!-- icon666.com - MILLIONS vector ICONS FREE --><svg id="svg16" viewBox="0 0 24 24" xmlns="http://www.w3.org/2000/svg" xmlns:osb="http://www.openswatchbook.org/uri/2009/osb"><path id="path876" d="m12 0c-1.1472908 0-2.1442052.66366317-2.6455052 1.6219463-.12785817.24441318-.41435656.40985859-.68994818.39839484-1.0804197-.04494205-2.1534759.48620524-2.7270466 1.4796589-.5735864.99348078-.49597584 2.1884401.08347751 3.1016635.14778315.23290752.14773761.5637183-.00009698.79658623-.57972945.91318544-.65710516 2.10803-.08338053 3.1017502.57360912.99352014 1.6465944 1.5247104 2.7270404 1.4796971.27559687-.0114818.56202084.15400402.69026703.39819956.34757267.66181847.93339018 1.1778535 1.6451926 1.4346033v2.9433594c0 .55228475-.17882634.58570272-.48443169.12637577-.20868801-.31365951-.44833005-.6098425-.72064644-.88223515-1.2868863-1.286526-2.9509124-1.507744-4.795045-1.5452172-.55211839-.0112192-1.0035797.4402758-.99235814.99243665.03747779 1.8441019.25870747 3.5080996 1.5452156 4.794968 1.3121003 1.311733 3.1426905 1.9202968 4.9539036 1.7014456.27407289-.03311658.49336198.14350581.49336198.41964818v.63671875c.00000277.5522836.4477164.99999723 1 1 .5522836-.00000277.99999723-.4477164 1-1v-.63671875c0-.27614237.21928746-.45276513.49335831-.41964863 1.8112143.21885245 3.6418061-.38971124 4.9539073-1.7014451 1.286526-1.2868863 1.507744-2.9509124 1.5452172-4.795045.0112192-.55211839-.4402758-1.0035797-.99243665-.99235814-1.8441019.0374778-3.5080996.25870747-4.794968 1.5452156-.27231718.27239344-.51195982.56857737-.72064825.88223789-.30560409.45932561-.48442987.42590624-.48442987-.12637851v-2.9433594c.71180293-.25675002 1.2976208-.77278565 1.6451934-1.4346049.12824561-.24419477.41466447-.40968106.69025525-.39819848 1.0804497.04501728 2.1534403-.48617315 2.7270514-1.4796967.5734678-.99327535.49569053-2.1868266-.08351707-3.0996819-.14778061-.2329084-.14753349-.56360342.00044439-.79637891.58069005-.9134501.65727505-2.1093915.08307268-3.1039392-.57356874-.99345021-1.6466196-1.5245973-2.7270355-1.4796593-.27559778.01146299-.56209962-.15397605-.68995387-.39838401-.50129823-.95828871-1.4982157-1.6219567-2.6455107-1.6219567zm0 5c1.1045695 0 2 .8954305 2 2s-.8954305 2-2 2-2-.8954305-2-2 .8954305-2 2-2z" paint-order="fill markers stroke"></path></svg>