<svg width="176" height="31" viewBox="0 0 176 31" fill="none" xmlns="http://www.w3.org/2000/svg">
<g clip-path="url(#clip0_95_347)">
<path fill-rule="evenodd" clip-rule="evenodd" d="M24.985 3.45912C24.7865 3.61415 24.5922 3.77386 24.4023 3.93781C21.1566 6.74154 19.1021 10.8688 19.1021 15.4751C19.1021 20.081 21.1566 24.2083 24.4023 27.012C24.5926 27.1762 24.7869 27.3358 24.985 27.4907C25.183 27.3358 25.3773 27.1762 25.5677 27.012C28.8133 24.2083 30.8678 20.081 30.8678 15.4751C30.8678 10.8688 28.8133 6.74154 25.5677 3.93781C25.3774 3.77354 25.1831 3.61392 24.985 3.45912ZM34.5041 0.184345C31.4698 0.179622 28.5024 1.06891 25.9776 2.7396C26.1025 2.84112 26.2287 2.94136 26.3498 3.04584C28.1417 4.59153 29.5787 6.50095 30.5637 8.64517C31.5487 10.7894 32.0587 13.1185 32.0594 15.4751C32.0585 17.8317 31.5485 20.1606 30.5636 22.3047C29.5787 24.4488 28.1419 26.3582 26.3502 27.904C26.2296 28.0076 26.1025 28.1083 25.9776 28.2102C28.5024 29.8809 31.4698 30.7702 34.5041 30.7655C43.0105 30.7655 49.9065 23.9195 49.9065 15.4751C49.9065 7.02994 43.0105 0.184345 34.5041 0.184345ZM23.6202 27.904C23.7404 28.0076 23.8674 28.1083 23.9924 28.2102C21.4677 29.8812 18.5002 30.7707 15.4659 30.7659C6.95904 30.7659 0.0634766 23.9195 0.0634766 15.4751C0.0634766 7.03037 6.95904 0.184345 15.4659 0.184345C18.6191 0.184345 21.5507 1.12558 23.9924 2.7396C23.8674 2.84112 23.7412 2.94136 23.6202 3.04542C21.8282 4.59122 20.3913 6.50073 19.4063 8.64501C18.4213 10.7893 17.9113 13.1184 17.9106 15.4751C17.9113 17.8317 18.4214 20.1607 19.4063 22.3049C20.3913 24.449 21.8283 26.3583 23.6202 27.904ZM80.668 15.541C80.668 13.7541 81.8463 12.2861 83.775 12.2861C85.6182 12.2861 86.8611 13.6904 86.8611 15.541C86.8611 17.3916 85.6182 18.7958 83.775 18.7958C81.8463 18.7958 80.668 17.3283 80.668 15.541ZM88.961 15.541V10.4568H86.7323V11.6902C86.0251 10.7758 84.9538 10.2015 83.4965 10.2015C80.6248 10.2015 78.3752 12.4352 78.3752 15.541C78.3752 18.6471 80.6248 20.8808 83.4965 20.8808C84.9538 20.8808 86.0251 20.3066 86.7323 19.3917V20.626H88.961V15.541ZM164.221 15.541C164.221 13.7541 165.4 12.2861 167.328 12.2861C169.171 12.2861 170.414 13.6904 170.414 15.541C170.414 17.3916 169.171 18.7958 167.328 18.7958C165.4 18.7958 164.221 17.3283 164.221 15.541ZM175.007 20.1431V20.3028H175.156C175.184 20.3041 175.212 20.2972 175.237 20.2828C175.257 20.2696 175.267 20.2492 175.267 20.2216C175.268 20.21 175.265 20.1985 175.26 20.1881C175.254 20.1777 175.246 20.169 175.237 20.1626C175.212 20.1482 175.184 20.1414 175.156 20.1431H175.007ZM175.157 20.0305C175.234 20.0305 175.294 20.0475 175.337 20.0819C175.378 20.1159 175.399 20.163 175.399 20.2216C175.4 20.2444 175.396 20.2671 175.387 20.2883C175.379 20.3094 175.366 20.3285 175.349 20.3444C175.309 20.3792 175.259 20.4 175.207 20.4039L175.404 20.6298H175.249L175.066 20.4051H175.007V20.6298H174.878V20.0305H175.157ZM175.119 20.8358C175.185 20.8363 175.251 20.8235 175.312 20.7981C175.373 20.7728 175.428 20.7355 175.474 20.6884C175.521 20.6416 175.558 20.5861 175.583 20.525C175.608 20.4639 175.621 20.3985 175.621 20.3325C175.621 20.2628 175.608 20.1979 175.582 20.1363C175.556 20.0768 175.52 20.0226 175.474 19.9766C175.428 19.9314 175.374 19.8953 175.315 19.87C175.253 19.8437 175.186 19.8304 175.119 19.8309C174.984 19.83 174.853 19.8824 174.757 19.9766C174.71 20.0233 174.673 20.0789 174.648 20.1399C174.623 20.201 174.61 20.2665 174.61 20.3325C174.61 20.3985 174.622 20.464 174.648 20.5251C174.673 20.5862 174.71 20.6417 174.757 20.6884C174.853 20.7833 174.983 20.8363 175.119 20.8358ZM175.119 19.6873C175.248 19.687 175.375 19.7242 175.483 19.7943C175.591 19.8644 175.676 19.9643 175.728 20.0819C175.763 20.1605 175.78 20.2437 175.78 20.3325C175.78 20.4213 175.763 20.5045 175.728 20.5827C175.659 20.7375 175.533 20.8605 175.376 20.9267C175.295 20.9613 175.207 20.9788 175.119 20.9781C175.031 20.9791 174.944 20.9627 174.863 20.9298C174.781 20.897 174.708 20.8485 174.645 20.787C174.586 20.7284 174.538 20.6591 174.505 20.5827C174.47 20.5038 174.452 20.4186 174.453 20.3325C174.453 20.2437 174.47 20.1605 174.505 20.0819C174.539 20.0033 174.586 19.9349 174.645 19.8763C174.708 19.8153 174.782 19.7672 174.863 19.7348C174.944 19.7024 175.031 19.6862 175.119 19.6873ZM172.514 15.541V6.37201H170.286V11.6902C169.578 10.7758 168.507 10.2015 167.049 10.2015C164.178 10.2015 161.928 12.4352 161.928 15.541C161.928 18.6471 164.178 20.8808 167.049 20.8808C168.507 20.8808 169.578 20.3066 170.286 19.3917V20.626H172.514V15.541ZM116.605 12.18C118.041 12.18 118.962 13.0732 119.198 14.6477H113.883C114.119 13.1798 115.019 12.18 116.605 12.18ZM116.648 10.2015C113.648 10.2015 111.548 12.3711 111.548 15.541C111.548 18.775 113.733 20.8808 116.798 20.8808C118.341 20.8808 119.755 20.4981 120.998 19.4558L119.905 17.8172C119.048 18.4985 117.955 18.8811 116.926 18.8811C115.491 18.8811 114.183 18.2215 113.862 16.3921H121.469C121.491 16.1152 121.512 15.8391 121.512 15.541C121.491 12.3711 119.52 10.2015 116.648 10.2015ZM143.541 15.541C143.541 13.7541 144.72 12.2861 146.649 12.2861C148.492 12.2861 149.735 13.6904 149.735 15.541C149.735 17.3916 148.492 18.7958 146.649 18.7958C144.72 18.7958 143.541 17.3283 143.541 15.541ZM151.835 15.541V10.4568H149.606V11.6902C148.899 10.7758 147.828 10.2015 146.37 10.2015C143.499 10.2015 141.249 12.4352 141.249 15.541C141.249 18.6471 143.499 20.8808 146.37 20.8808C147.828 20.8808 148.899 20.3066 149.606 19.3917V20.626H151.835V15.541ZM130.962 15.541C130.962 18.6259 133.127 20.8808 136.427 20.8808C137.97 20.8808 138.999 20.5402 140.113 19.6682L139.041 17.8813C138.205 18.4772 137.327 18.7958 136.363 18.7958C134.585 18.775 133.277 17.4982 133.277 15.541C133.277 13.5837 134.585 12.3074 136.363 12.2861C137.327 12.2861 138.205 12.6051 139.041 13.201L140.113 11.4141C138.999 10.5417 137.97 10.2015 136.427 10.2015C133.127 10.2015 130.962 12.4565 130.962 15.541ZM159.678 10.2015C158.392 10.2015 157.556 10.797 156.978 11.6902V10.4568H154.771V20.626H156.999V14.9242C156.999 13.2435 157.728 12.3074 159.185 12.3074C159.635 12.3074 160.107 12.3711 160.578 12.5627L161.264 10.478C160.771 10.2865 160.128 10.2015 159.678 10.2015ZM99.9758 11.2651C98.904 10.563 97.4254 10.2015 95.797 10.2015C93.2039 10.2015 91.5323 11.435 91.5323 13.4563C91.5323 15.1158 92.7756 16.1369 95.068 16.4559L96.1184 16.6049C97.3399 16.7748 97.9183 17.0938 97.9183 17.6685C97.9183 18.4556 97.1041 18.9024 95.5827 18.9024C94.0399 18.9024 92.9254 18.4131 92.1749 17.8388L91.125 19.562C92.3469 20.4552 93.8897 20.8808 95.5613 20.8808C98.5186 20.8808 100.233 19.4979 100.233 17.5623C100.233 15.775 98.8827 14.8389 96.654 14.5199L95.6041 14.3708C94.6397 14.2434 93.8683 14.0518 93.8683 13.3714C93.8683 12.6264 94.5969 12.18 95.8184 12.18C97.1255 12.18 98.3898 12.6693 99.0114 13.052L99.9758 11.2651ZM128.712 10.2015C127.427 10.2015 126.591 10.797 126.012 11.6902V10.4568H123.805V20.626H126.034V14.9242C126.034 13.2435 126.762 12.3074 128.22 12.3074C128.67 12.3074 129.141 12.3711 129.613 12.5627L130.298 10.478C129.806 10.2865 129.162 10.2015 128.712 10.2015ZM109.705 10.4568H106.061V7.37186H103.812V10.4568H101.733V12.4777H103.812V17.1155C103.812 19.4766 104.733 20.8808 107.369 20.8808C108.333 20.8808 109.447 20.5831 110.155 20.0938L109.512 18.2007C108.847 18.5834 108.119 18.775 107.541 18.775C106.426 18.775 106.061 18.0941 106.061 17.0726V12.4777H109.705V10.4568ZM76.4033 20.626V14.2434C76.4033 11.8393 74.8605 10.2227 72.3747 10.2015C71.0676 10.1803 69.7174 10.5842 68.7748 12.0096C68.0676 10.8824 66.9531 10.2015 65.3889 10.2015C64.2957 10.2015 63.2244 10.5205 62.3888 11.7119V10.4568H60.1598V20.626H62.4102V14.9879C62.4102 13.2223 63.396 12.2861 64.9174 12.2861C66.396 12.2861 67.146 13.2435 67.146 14.9667V20.626H69.3961V14.9879C69.3961 13.2223 70.4246 12.2861 71.9032 12.2861C73.4246 12.2861 74.1533 13.2435 74.1533 14.9667V20.626H76.4033ZM49.4251 24.9499V24.3565H49.2694L49.0897 24.7647L48.91 24.3565H48.7543V24.9499H48.8642V24.5022L49.0328 24.8883H49.147L49.3152 24.5014V24.9499H49.4251ZM48.4368 24.9499V24.4576H48.6366V24.3578H48.1275V24.4576H48.3277V24.9499H48.4368Z" fill="#A0A0A0"/>
</g>
<defs>
<clipPath id="clip0_95_347">
<rect width="175.844" height="30.5816" fill="white" transform="translate(0.0634766 0.184326)"/>
</clipPath>
</defs>
</svg>
