<svg width="97" height="30" viewBox="0 0 97 30" fill="none" xmlns="http://www.w3.org/2000/svg">
<g clip-path="url(#clip0_95_342)">
<path fill-rule="evenodd" clip-rule="evenodd" d="M33.9228 29.4122L38.7451 0.796835H46.5606L41.7383 29.4122H33.9228ZM69.8406 1.46231C68.3441 0.963203 66.0161 0.297729 62.8566 0.297729C55.2075 0.297729 49.8863 4.1242 49.72 9.78073C49.72 13.7736 53.7109 16.1027 56.5377 17.4337C59.6972 18.931 60.6949 19.7628 60.6949 21.0938C60.6949 22.9238 58.2006 23.7557 56.0389 23.7557C52.8794 23.7557 51.2166 23.4229 48.7223 22.2584L47.5583 21.9256L46.5606 28.2476C48.3897 29.0795 51.7154 29.7449 55.2075 29.7449C63.3555 29.7449 68.6766 25.9185 68.8429 20.0956C68.8429 16.7682 66.6812 14.2727 62.1915 12.2763C59.5309 10.9453 57.868 10.1135 57.868 8.78252C57.868 7.61794 59.3646 6.28699 62.3578 6.28699C64.8521 6.28699 66.6812 6.7861 68.1778 7.2852L68.8429 7.61794L69.8406 1.46231ZM89.9613 0.796835H83.8087C81.9795 0.796835 80.6493 1.29594 79.8178 3.12599L68.1778 29.4122H76.3258C76.3258 29.4122 77.6561 25.9185 77.9887 25.0866H87.9659C88.2984 26.0848 88.9636 29.4122 88.9636 29.4122H96.1139L89.9613 0.796835ZM80.3167 19.2637C80.9818 17.6 83.3098 11.278 83.3098 11.278C83.3098 11.278 83.975 9.61436 84.4738 8.44978L84.9727 10.9453C84.9727 10.9453 86.4693 17.7664 86.8018 19.2637H80.3167ZM27.2714 0.796835L19.7885 20.2619L18.957 16.2691C17.4605 11.7772 13.137 6.7861 8.14844 4.29057L15.1325 29.4122H23.2805L35.5857 0.796835H27.2714Z" fill="#A0A0A0"/>
<path fill-rule="evenodd" clip-rule="evenodd" d="M12.6378 0.796875H0.166286L0 1.46235C9.81089 3.79151 16.2961 9.44803 18.9566 16.2691L16.1298 3.2924C15.7972 1.46235 14.3006 0.796875 12.6378 0.796875Z" fill="#646464"/>
</g>
<defs>
<clipPath id="clip0_95_342">
<rect width="96.1135" height="29.4894" fill="white" transform="translate(0 0.276611)"/>
</clipPath>
</defs>
</svg>
