<svg width="196" height="40" viewBox="0 0 196 40" fill="none" xmlns="http://www.w3.org/2000/svg">
<path d="M195.254 1.42198C194.937 2.39397 194.659 3.24855 194.326 4.21547C194.084 4.92106 193.597 5.33997 192.83 5.3856C191.538 5.3856 186.694 5.43358 185.277 5.43358C183.993 5.50222 183.247 6.1181 183.005 7.38574C182.642 9.29345 182.317 11.2082 181.973 13.1198C181.459 15.9866 180.961 18.8561 180.421 21.7183C180.103 23.4064 180.653 24.1268 182.361 24.1338C182.987 24.1366 183.613 24.1502 184.237 24.1194C185.636 24.0511 186.56 23.3167 186.866 21.9496C187.168 20.4378 187.334 19.4279 187.572 18.1673C187.62 17.9083 187.526 17.821 187.278 17.8249C186.843 17.8319 186.206 17.8393 185.773 17.8198C184.766 17.7742 184.644 17.4239 184.66 16.4312C184.674 15.5455 184.704 14.6601 184.697 13.7747C184.693 13.4314 184.84 13.3238 185.146 13.3238C186.373 13.3238 191.992 13.3651 192.647 13.3651C193.302 13.3651 193.672 13.8207 193.583 14.5321C193.482 15.3403 193.331 16.1422 193.192 16.9453C192.822 19.0812 192.451 21.2163 192.075 23.3506C191.805 24.887 191.517 26.4206 191.26 27.9594C191.207 28.2792 191.106 28.3986 190.77 28.3872C189.989 28.3615 189.207 28.3896 188.425 28.3744C187.447 28.3553 187.167 28.074 187.079 27.1087C187.056 26.8544 187.029 26.54 186.997 26.2209C186.978 26.0318 186.706 25.9982 186.581 26.2018C185.711 27.6208 183.951 28.5667 182.709 28.6692C181.468 28.7718 180.276 28.7383 179.065 28.663C177.686 28.5776 176.397 28.1911 175.467 27.0541C174.788 26.2241 174.554 25.2376 174.482 24.2009C174.391 22.8732 174.605 21.5708 174.834 20.2701C175.462 16.7012 176.091 13.1326 176.708 9.56219C176.971 8.03946 177.25 6.52609 177.911 5.11023C178.971 2.84486 180.758 1.51832 183.191 1.0881C184.177 0.913752 185.19 0.864217 186.193 0.828333C187.39 0.785428 188.59 0.818192 189.788 0.818192C191.507 0.818192 193.037 0.816242 194.755 0.818972C195.25 0.820532 195.408 0.947296 195.254 1.42198ZM24.152 4.54038C24.4445 6.741 23.966 8.90028 23.0739 10.9344C22.5107 12.2184 21.3889 13.2586 20.0265 13.525C19.7324 13.5828 19.5156 13.582 19.5347 13.8468C19.5487 14.0387 19.6482 14.036 19.9704 14.1354C21.0539 14.4697 21.8632 15.132 22.2927 16.2105C22.6149 17.019 22.7069 17.8689 22.6125 18.7181C22.414 20.5099 22.1729 22.3014 21.5629 24.0098C20.672 26.5053 18.84 27.8599 16.2646 28.2773C14.2632 28.6018 12.2459 28.4337 10.2349 28.4731C9.88773 28.4797 9.5406 28.4742 9.19346 28.4742C7.33568 28.4742 5.4779 28.4656 3.62052 28.4816C3.26948 28.4848 3.18757 28.3993 3.25114 28.0479C3.66342 25.7623 4.05541 23.4727 4.45287 21.1843C5.13271 17.2737 5.81022 13.3624 6.49163 9.4518C6.9589 6.77103 7.43241 4.09105 7.89812 1.41028C7.94805 1.12243 7.9812 0.901661 8.38373 0.905171C12.0985 0.940275 15.8133 1.00151 19.5273 1.00151C22.1644 1.00151 23.8673 2.39982 24.152 4.54038ZM15.0086 16.2616C13.794 16.2616 12.7167 16.2604 11.5708 16.2448C11.256 16.2405 11.1082 16.331 11.0508 16.6618C10.6507 18.9677 10.2349 21.2709 9.81597 23.5737C9.7559 23.9037 9.8655 24.0024 10.1916 23.9993C11.3044 23.9887 13.1696 23.9766 14.3038 23.9368C15.227 23.9045 15.8733 23.3502 16.0797 22.4356C16.3348 21.3044 16.6577 19.3609 16.8551 18.2176C17.1063 16.7542 16.2236 16.2616 15.0086 16.2616ZM16.8059 5.42422C15.6959 5.40081 14.5846 5.42812 13.4746 5.40393C13.1395 5.39691 13.0159 5.53382 12.9632 5.83103C12.6227 7.74107 12.2787 9.65073 11.9277 11.5592C11.877 11.8354 11.9561 11.9317 12.2389 11.9317C12.9948 11.9317 14.6092 11.9192 15.362 11.9192C16.6675 11.9192 17.4468 11.2877 17.7662 10.0236C18.003 9.08633 18.1504 8.12254 18.2834 7.16303C18.4449 5.99914 17.9683 5.4484 16.8059 5.42422ZM92.9447 0.911412C91.1045 0.939105 89.262 0.910242 87.4241 0.995272C85.8998 1.06587 84.7726 1.84986 84.106 3.23958C83.7986 3.88003 83.5088 4.53063 83.2397 5.18785C82.5871 6.78118 81.7466 8.70877 81.2052 9.98616C80.9131 10.675 80.7087 11.216 80.596 11.592C80.3503 12.4118 80.1396 13.1947 79.9469 13.9603C79.8978 14.1553 79.5897 14.1117 79.5842 13.91C79.5787 13.7193 79.7176 11.8685 79.7277 11.6325C79.7519 11.0787 79.7691 10.5626 79.7234 9.72639C79.6099 7.64707 79.4239 5.57087 79.216 3.49857C79.0771 2.11236 78.5018 1.26869 77.0415 1.04949C76.7677 1.00853 76.4923 0.957437 76.217 0.953927C74.5499 0.933645 72.8829 0.930134 71.2158 0.909462C70.9264 0.905952 70.8367 1.02608 70.7911 1.29834C70.605 2.40957 66.8462 23.658 66.109 27.8287C66.024 28.3085 66.1417 28.4723 66.6367 28.4731C68.1306 28.475 70.6152 28.4871 70.9705 28.4871C71.3262 28.4871 71.5571 28.3494 71.6281 27.934C72.1691 24.7723 72.6956 21.6071 73.2979 18.4567C73.8303 15.6738 74.1786 12.8733 74.3639 10.0486C74.4345 8.97478 74.5378 7.90294 74.647 6.83266C74.6603 6.70356 74.8027 6.58772 74.885 6.46563C75.0148 6.57913 75.158 6.68133 75.2688 6.81121C75.3152 6.86543 75.2922 6.97854 75.3004 7.06513C75.3546 7.65253 75.4096 8.24033 75.463 8.82812C75.6896 11.317 75.9131 13.8062 76.1432 16.2943C76.2727 17.6942 76.4069 19.0933 76.5516 20.4916C76.6183 21.1359 76.8699 21.3715 77.5298 21.4094C77.9975 21.4363 78.8201 21.4324 79.3022 21.4324C80.0409 21.4324 80.3826 21.2951 80.6888 20.5751C81.2992 19.1389 86.7017 6.93602 86.7739 6.77065C86.9065 6.46797 87.5118 6.56236 87.4143 6.91613C87.0594 8.2025 86.7212 9.49354 86.3768 10.7834C86.0191 12.1236 85.5905 13.4501 85.3284 14.8091C84.7609 17.7543 84.2807 20.7163 83.7635 23.6712C83.4858 25.2571 83.0946 27.4523 83.0236 27.8732C82.9526 28.294 83.0977 28.4692 83.4628 28.4692C83.8279 28.4692 86.4326 28.4641 88.0996 28.4812C88.4472 28.4848 88.4943 28.2207 88.54 27.959C89.0151 25.2435 92.8176 3.5797 93.2279 1.29248C93.2771 1.0214 93.2431 0.906732 92.9447 0.911412ZM66.6905 7.21803C66.3114 9.57935 64.6167 19.2786 64.1564 21.7674C63.954 22.8619 63.6002 23.9119 63.0799 24.9038C61.9936 26.9749 60.2603 28.1848 57.9898 28.5483C56.5927 28.7718 51.377 28.7867 50.2046 28.6747C49.5926 28.6162 48.974 28.4407 48.3994 28.2133C46.6821 27.5338 45.8856 26.1722 45.7261 24.3893C45.604 23.0277 45.8025 21.6879 46.0389 20.3531C46.45 18.032 47.9653 9.46351 48.3491 7.50783C48.6424 6.01357 49.1749 4.60434 50.1273 3.39092C51.4059 1.76132 53.158 0.955097 55.1597 0.786598C56.9367 0.636822 60.9908 0.71561 62.686 0.904001C64.5281 1.10877 66.0988 2.22469 66.5774 4.11523C66.8356 5.13753 66.8563 6.18402 66.6905 7.21803ZM60.8504 6.93173C60.9651 5.86223 60.4315 5.28848 59.3515 5.24285C58.3639 5.2015 57.3712 5.19877 56.3844 5.24519C55.4116 5.29082 54.7189 5.79359 54.3952 6.73515C54.2883 7.04524 54.206 7.36741 54.1483 7.69076C53.6342 10.5743 53.1276 13.4595 52.6205 16.3443C52.2753 18.3074 51.9293 20.2701 51.5896 22.2343C51.3774 23.4598 51.9644 24.1787 53.2138 24.2228C53.6471 24.238 55.2794 24.2329 55.6613 24.2286C57.1423 24.2118 57.9321 23.5858 58.2044 22.1442C58.548 20.3219 58.853 18.4922 59.1763 16.666C59.5457 14.5844 59.9213 12.5035 60.2852 10.4207C60.4885 9.2599 60.7248 8.10147 60.8504 6.93173ZM45.2795 4.11484C45.5381 5.13714 45.5588 6.18363 45.393 7.21764C45.0143 9.57896 43.3191 19.2782 42.8589 21.767C42.6564 22.8615 42.3027 23.9115 41.7828 24.9034C40.6965 26.9745 38.9627 28.1844 36.6923 28.5479C35.2952 28.7714 30.0795 28.7863 28.907 28.6743C28.2951 28.6158 27.6764 28.4403 27.1019 28.2129C25.3842 27.5334 24.5881 26.1718 24.4282 24.3889C24.3065 23.0273 24.5046 21.6875 24.741 20.3527C25.1521 18.0316 26.667 9.46312 27.0512 7.50744C27.3445 6.01318 27.8769 4.60395 28.8294 3.39053C30.1084 1.76093 31.86 0.954707 33.8617 0.786208C35.6388 0.636431 39.6929 0.71522 41.388 0.903611C43.2302 1.10838 44.8013 2.2243 45.2795 4.11484ZM39.5533 6.93173C39.6683 5.86223 39.1344 5.28848 38.0543 5.24285C37.0667 5.2015 36.0745 5.19877 35.0873 5.24519C34.1145 5.29082 33.4222 5.79359 33.098 6.73515C32.9912 7.04524 32.9089 7.36741 32.8511 7.69076C32.3375 10.5743 31.8308 13.4595 31.3233 16.3443C30.9782 18.3074 30.6322 20.2701 30.2925 22.2343C30.0803 23.4598 30.6673 24.1787 31.9166 24.2228C32.3503 24.238 33.9823 24.2329 34.3645 24.2286C35.8455 24.2118 36.6353 23.5858 36.9076 22.1442C37.2512 20.3219 37.5562 18.4922 37.88 16.666C38.249 14.5844 38.625 12.5035 38.9889 10.4207C39.1913 9.2599 39.4277 8.10147 39.5533 6.93173ZM147.464 2.09948C147.653 4.50488 148.62 17.2484 149.452 28.0105C149.481 28.3771 149.399 28.4883 149.022 28.482C147.703 28.4606 146.382 28.482 145.062 28.4711C143.913 28.4617 143.48 28.019 143.426 26.8567C143.369 25.6074 143.305 24.3589 143.241 23.11C143.212 22.5561 143.155 22.4937 142.58 22.4913C140.86 22.4847 139.141 22.4964 137.421 22.4843C136.978 22.4812 136.722 22.6513 136.559 23.0713C136.039 24.4131 135.486 25.742 134.953 27.0787C134.572 28.035 133.852 28.4715 132.848 28.4727C130.069 28.4754 127.289 28.4746 124.51 28.4707C124.303 28.4703 124.096 28.4356 123.888 28.4216C122.868 28.3529 122.396 27.7694 122.15 26.8013C121.892 25.786 121.54 24.5972 121.363 23.8085C121.212 23.1361 121.231 22.9091 121.76 22.4481C122.289 21.987 125.071 19.6156 125.45 19.2918C125.83 18.9685 126.195 19.135 126.361 19.7341C126.694 20.9288 127.26 22.9621 127.68 24.4271C127.995 25.5251 128.31 26.6227 128.625 27.7203C128.668 27.7183 128.71 27.716 128.753 27.714C129.129 26.8411 129.507 25.9694 129.88 25.0957C133.116 17.5206 139.556 2.48992 139.83 1.85142C140.103 1.21292 140.689 0.869677 141.424 0.870458C143.004 0.872408 144.585 0.860316 146.166 0.874748C147.028 0.882939 147.396 1.23593 147.464 2.09948ZM142.814 10.047C142.84 8.97088 143.001 7.06318 143.008 6.84592C143.015 6.62906 142.648 6.56197 142.603 6.78235C142.557 7.00233 141.355 10.6574 140.697 12.5008C140.109 14.1495 139.447 15.7713 138.819 17.4056C138.593 17.9938 138.643 18.0729 139.249 18.0741C140.257 18.0761 141.264 18.0757 142.271 18.0741C142.988 18.0729 143.028 18.0234 143.001 17.2839C142.937 15.5833 142.878 13.8827 142.811 11.982C142.81 11.4703 142.796 10.7584 142.814 10.047ZM174.633 0.908292C172.977 0.908292 171.35 0.904391 170.253 0.904391C169.689 0.904391 169.463 1.18327 169.368 1.73518C168.926 4.29816 168.505 6.59513 168.062 9.15849C167.735 11.0549 167.331 12.9431 167.108 14.852C166.824 17.2811 166.69 19.8063 166.563 22.2499C166.545 22.5877 166.048 22.6232 166.015 22.2281C165.305 13.6362 164.904 8.44471 164.45 2.85305C164.337 1.4563 163.705 0.904391 162.59 0.904391C161.071 0.904391 157.357 0.931304 156.454 0.905171C156.078 0.89425 155.952 1.02296 155.899 1.39C155.746 2.43609 155.549 3.47634 155.365 4.51814C154.833 7.5402 151.653 25.7314 151.281 27.8845C151.18 28.4715 151.191 28.4742 151.768 28.4742C153.07 28.4746 154.373 28.4742 155.675 28.4742C156.812 28.4742 156.797 28.4719 156.986 27.3544C157.341 25.2513 158.875 16.996 159.137 14.9522C159.405 12.8713 159.504 10.7686 159.675 8.67562C159.724 8.06988 159.75 7.46219 159.814 6.85841C159.847 6.54364 160.396 6.58147 160.414 6.88415C160.507 8.35695 160.656 10.118 160.761 11.5896C160.963 14.4291 161.633 24.0223 161.793 25.9772C161.916 27.4699 162.637 28.1903 164.126 28.3615C164.66 28.4227 165.198 28.4633 165.735 28.4695C167.055 28.4848 168.374 28.4746 169.695 28.4742C170.292 28.4742 170.299 28.475 170.404 27.8747C170.698 26.1835 174.407 4.89922 175.039 1.38375C175.111 0.98318 174.996 0.908292 174.633 0.908292ZM108.047 12.2207C107.696 12.2207 103.01 12.2219 100.491 12.2196C99.9885 12.2192 99.9764 12.2114 100.061 11.7281C100.393 9.8321 100.749 7.94039 101.058 6.04126C101.132 5.58881 101.328 5.50339 101.741 5.50651C103.759 5.52134 106.302 5.51276 107.794 5.51276C109.286 5.51276 107.936 0.913752 107.318 0.913752C106.701 0.913752 100.028 0.913752 96.8046 0.913752C96.122 0.913752 96.1283 0.915313 96.0097 1.61232C95.7246 3.28795 93.0852 18.3358 92.7279 20.421C92.4669 21.9437 92.1806 23.4633 92.559 25.0149C92.8429 26.1788 93.4705 27.0588 94.5334 27.6243C95.7827 28.289 97.1533 28.4356 98.5231 28.4555C101.562 28.4996 104.602 28.4656 107.642 28.482C108.004 28.484 108.078 28.3451 108.078 28.0288C108.078 27.23 108.098 26.4312 108.118 25.6324C108.154 24.1689 107.879 23.8756 106.43 23.8721C104.467 23.8674 102.504 23.8748 100.542 23.867C100.161 23.8655 99.7764 23.8413 99.4 23.7859C98.6854 23.681 98.2985 23.2352 98.2844 22.5093C98.2778 22.1809 98.2903 21.847 98.3437 21.5237C98.5891 20.0352 98.8715 18.5523 99.0973 17.0612C99.1644 16.6169 99.3348 16.4995 99.7666 16.5038C101.816 16.5245 103.866 16.519 105.915 16.5073C106.822 16.5022 107.343 16.1313 107.637 15.2767C107.92 14.4506 108.373 13.0683 108.464 12.7289C108.554 12.3896 108.397 12.2207 108.047 12.2207ZM118.562 7.15601C117.409 6.8705 115.934 6.65363 114.886 6.54637C114.309 6.48708 114.043 6.63881 113.969 7.08697C113.555 9.59729 112.667 14.8442 112.224 17.4832C112.089 18.2878 112.657 18.1564 112.999 17.8147C115.167 15.6473 117.753 13.0414 118.158 12.5023C118.563 11.9633 118.688 11.7047 118.828 11.0553C118.967 10.4059 119.126 9.13002 119.261 8.34135C119.396 7.55229 119.168 7.30617 118.562 7.15601Z" fill="white"/>
<path d="M133.457 7.75098C128.844 13.7066 119.45 22.2809 112.585 28.13C112.133 28.5149 111.316 28.3765 110.909 27.6264C110.23 26.3759 110.038 24.7522 111.756 22.8363C116.828 17.1803 121.492 11.5321 124.218 8.15429C125.099 7.06334 125.055 6.58163 123.613 6.30002C120.112 5.61627 115.09 4.85179 111.876 4.38218C110.815 4.22733 110.263 3.3197 110.1 2.47993C109.915 1.51926 110.191 1.01688 110.871 0.976707C116.247 0.659992 124.319 0.454439 131.064 1.07734C135.309 1.46894 135.901 4.59397 133.457 7.75098Z" fill="url(#paint0_linear_275_1727)"/>
<path d="M4.98474 38.3032H2.8007L2.19327 39.327H0.289062L4.0224 33.5461H5.96073L6.80704 39.327H5.11441L4.98474 38.3032ZM4.82093 37.0201L4.60253 35.2661L3.56511 37.0201H4.82776H4.82093Z" fill="#FF0069"/>
<path d="M13.1756 33.9691C13.5578 34.2489 13.7489 34.6584 13.7489 35.1907C13.7489 35.962 13.51 36.5489 13.0322 36.9585C12.5545 37.368 11.8788 37.5659 11.012 37.5659H9.61285L9.16922 39.3268H7.49707L8.93717 33.5459H11.5102C12.2337 33.5459 12.7934 33.6892 13.1756 33.9691ZM11.8037 36.0029C11.9539 35.8733 12.0289 35.6617 12.0289 35.3614C12.0289 35.0611 11.8242 34.9041 11.4147 34.9041H10.2749L9.94728 36.2009H11.1212C11.4283 36.2009 11.6536 36.1326 11.8037 36.0029Z" fill="#FF0069"/>
<path d="M14.9002 38.8083C14.4293 38.3715 14.1904 37.7778 14.1904 37.0202C14.1904 36.3308 14.3406 35.7166 14.6477 35.1706C14.948 34.6246 15.378 34.1946 15.924 33.8874C16.47 33.5803 17.1048 33.4233 17.8214 33.4233C18.4083 33.4233 18.8998 33.5257 19.3093 33.7236C19.7188 33.9216 20.0259 34.2082 20.2375 34.5768C20.4491 34.9453 20.5514 35.3753 20.5514 35.8736C20.5514 36.5629 20.4013 37.1771 20.101 37.7232C19.8007 38.2692 19.3775 38.6923 18.8247 39.0063C18.2718 39.3202 17.6439 39.4704 16.9205 39.4704C16.0469 39.4704 15.3712 39.252 14.9002 38.822V38.8083ZM18.0466 37.7709C18.3128 37.5798 18.5107 37.3205 18.6472 36.9997C18.7769 36.6789 18.8452 36.324 18.8452 35.9418C18.8452 35.5596 18.7496 35.2866 18.5517 35.0955C18.3537 34.9044 18.0603 34.8088 17.6781 34.8088C17.2959 34.8088 16.9682 34.9044 16.7021 35.1023C16.4359 35.3002 16.2311 35.5596 16.0946 35.8804C15.9581 36.2012 15.8899 36.5492 15.8899 36.9314C15.8899 37.3137 15.9923 37.5867 16.1902 37.7778C16.3949 37.9689 16.6884 38.0644 17.0774 38.0644C17.4665 38.0644 17.7873 37.9689 18.0534 37.7709H18.0466Z" fill="#FF0069"/>
<path d="M25.228 34.938C24.9072 34.8561 24.5864 34.8152 24.2725 34.8152C23.9995 34.8152 23.7742 34.8493 23.6036 34.9107C23.433 34.9721 23.3443 35.0677 23.3443 35.2042C23.3443 35.3407 23.4262 35.4362 23.59 35.4977C23.7538 35.5659 24.0336 35.641 24.4226 35.7297C24.7912 35.8116 25.1188 35.9072 25.3918 36.0232C25.6648 36.1324 25.9037 36.303 26.0948 36.5283C26.2859 36.7535 26.3814 37.0538 26.3814 37.4155C26.3814 37.8114 26.2654 38.1595 26.0334 38.4734C25.8013 38.7874 25.4737 39.0263 25.0437 39.2037C24.6137 39.3812 24.1223 39.4631 23.5558 39.4631C23.0303 39.4631 22.5457 39.388 22.0953 39.2378C21.6448 39.0877 21.249 38.8829 20.9009 38.6167L21.6789 37.4565C21.9383 37.6271 22.2522 37.7704 22.614 37.8933C22.9757 38.0161 23.3306 38.0707 23.6855 38.0707C23.9176 38.0707 24.1087 38.0434 24.2725 37.9888C24.4363 37.9342 24.5114 37.8455 24.5114 37.7158C24.5114 37.6066 24.4499 37.5247 24.3203 37.4633C24.1974 37.4087 23.979 37.3405 23.6787 37.2722L23.5081 37.2313C23.0986 37.1289 22.7505 37.006 22.4707 36.8763C22.184 36.7398 21.9588 36.5624 21.7813 36.3372C21.6039 36.1119 21.522 35.8253 21.522 35.4704C21.522 35.1018 21.6243 34.7606 21.8359 34.4466C22.0407 34.1327 22.3546 33.8869 22.7778 33.6958C23.2009 33.5047 23.7128 33.416 24.3203 33.416C24.8048 33.416 25.2485 33.4774 25.6375 33.5935C26.0334 33.7163 26.4019 33.8801 26.7568 34.0917L26.1494 35.2861C25.8559 35.1359 25.5488 35.0131 25.2212 34.9312L25.228 34.938Z" fill="#FF0069"/>
<path d="M32.9263 34.9165H31.0153L29.9096 39.3324H28.2375L29.3432 34.9165H27.4321L27.7666 33.5515H33.2539L32.9195 34.9165H32.9263Z" fill="#FF0069"/>
<path d="M36.7816 38.303H34.5976L33.9902 39.3268H32.0928L35.8261 33.5459H37.7644L38.6108 39.3268H36.9181L36.7884 38.303H36.7816ZM36.6178 37.0199L36.3994 35.2658L35.362 37.0199H36.6246H36.6178Z" fill="#FF0069"/>
<path d="M43.7436 34.938C43.4228 34.8561 43.1021 34.8152 42.7881 34.8152C42.5151 34.8152 42.2899 34.8493 42.1192 34.9107C41.9486 34.9721 41.8599 35.0677 41.8599 35.2042C41.8599 35.3407 41.9418 35.4362 42.1056 35.4977C42.2694 35.5659 42.5492 35.641 42.9383 35.7297C43.3068 35.8116 43.6344 35.9072 43.9074 36.0232C44.1804 36.1324 44.4193 36.303 44.6104 36.5283C44.8015 36.7535 44.8971 37.0538 44.8971 37.4155C44.8971 37.8114 44.781 38.1595 44.549 38.4734C44.3169 38.7874 43.9893 39.0263 43.5593 39.2037C43.1294 39.3812 42.638 39.4631 42.0715 39.4631C41.5459 39.4631 41.0614 39.388 40.6109 39.2378C40.1604 39.0877 39.7646 38.8829 39.4165 38.6167L40.1946 37.4565C40.4539 37.6271 40.7679 37.7704 41.1296 37.8933C41.4913 38.0161 41.8462 38.0707 42.2011 38.0707C42.4332 38.0707 42.6243 38.0434 42.7881 37.9888C42.9519 37.9342 43.027 37.8455 43.027 37.7158C43.027 37.6066 42.9656 37.5247 42.8359 37.4633C42.713 37.4087 42.4946 37.3405 42.1943 37.2722L42.0237 37.2313C41.6142 37.1289 41.2661 37.006 40.9863 36.8763C40.6996 36.7398 40.4744 36.5624 40.2969 36.3372C40.1195 36.1119 40.0376 35.8253 40.0376 35.4704C40.0376 35.1018 40.14 34.7606 40.3515 34.4466C40.5563 34.1327 40.8703 33.8869 41.2934 33.6958C41.7166 33.5047 42.2284 33.416 42.8359 33.416C43.3205 33.416 43.7641 33.4774 44.1531 33.5935C44.549 33.7163 44.9175 33.8801 45.2724 34.0917L44.665 35.2861C44.3715 35.1359 44.0644 35.0131 43.7368 34.9312L43.7436 34.938Z" fill="#FF0069"/>
<path d="M49.9961 34.9041L49.7913 35.6958H52.8558L52.5009 37.0881H49.4433L49.2317 37.9549H52.576L52.2347 39.3199H47.2251L48.6584 33.5459H53.6475L53.3131 34.9041H49.9961Z" fill="#FF0069"/>
<path d="M57.7158 34.938C57.395 34.8561 57.0742 34.8152 56.7603 34.8152C56.4873 34.8152 56.262 34.8493 56.0914 34.9107C55.9208 34.9721 55.8321 35.0677 55.8321 35.2042C55.8321 35.3407 55.914 35.4362 56.0778 35.4977C56.2416 35.5659 56.5214 35.641 56.9104 35.7297C57.279 35.8116 57.6066 35.9072 57.8796 36.0232C58.1526 36.1324 58.3915 36.303 58.5826 36.5283C58.7737 36.7535 58.8692 37.0538 58.8692 37.4155C58.8692 37.8114 58.7532 38.1595 58.5212 38.4734C58.2891 38.7874 57.9615 39.0263 57.5315 39.2037C57.1015 39.3812 56.6101 39.4631 56.0436 39.4631C55.5181 39.4631 55.0335 39.388 54.5831 39.2378C54.1326 39.0877 53.7368 38.8829 53.3887 38.6167L54.1667 37.4565C54.4261 37.6271 54.74 37.7704 55.1018 37.8933C55.4635 38.0161 55.8184 38.0707 56.1733 38.0707C56.4054 38.0707 56.5965 38.0434 56.7603 37.9888C56.9241 37.9342 56.9991 37.8455 56.9991 37.7158C56.9991 37.6066 56.9377 37.5247 56.808 37.4633C56.6852 37.4087 56.4668 37.3405 56.1665 37.2722L55.9959 37.2313C55.5864 37.1289 55.2383 37.006 54.9584 36.8763C54.6718 36.7398 54.4466 36.5624 54.2691 36.3372C54.0917 36.1119 54.0098 35.8253 54.0098 35.4704C54.0098 35.1018 54.1121 34.7606 54.3237 34.4466C54.5285 34.1327 54.8424 33.8869 55.2656 33.6958C55.6887 33.5047 56.2006 33.416 56.808 33.416C57.2926 33.416 57.7363 33.4774 58.1253 33.5935C58.5211 33.7163 58.8897 33.8801 59.2446 34.0917L58.6372 35.2861C58.3437 35.1359 58.0366 35.0131 57.709 34.9312L57.7158 34.938Z" fill="#FF0069"/>
<path d="M65.0672 33.9691C65.4494 34.2489 65.6405 34.6584 65.6405 35.1907C65.6405 35.962 65.4016 36.5489 64.9238 36.9585C64.4461 37.368 63.7704 37.5659 62.9036 37.5659H61.5045L61.0608 39.3268H59.3887L60.8288 33.5459H63.4018C64.1253 33.5459 64.685 33.6892 65.0672 33.9691ZM63.6953 36.0029C63.8455 35.8733 63.9205 35.6617 63.9205 35.3614C63.9205 35.0611 63.7158 34.9041 63.3063 34.9041H62.1665L61.8389 36.2009H63.0128C63.3199 36.2009 63.5452 36.1326 63.6953 36.0029Z" fill="#FF0069"/>
<path d="M66.7987 38.8083C66.3277 38.3715 66.0889 37.7778 66.0889 37.0202C66.0889 36.3308 66.239 35.7166 66.5461 35.1706C66.8465 34.6246 67.2764 34.1946 67.8224 33.8874C68.3684 33.5803 69.0032 33.4233 69.7198 33.4233C70.3068 33.4233 70.7982 33.5257 71.2077 33.7236C71.6172 33.9216 71.9243 34.2082 72.1359 34.5768C72.3475 34.9453 72.4499 35.3753 72.4499 35.8736C72.4499 36.5629 72.2997 37.1771 71.9994 37.7232C71.6991 38.2692 71.2759 38.6923 70.7231 39.0063C70.1703 39.3202 69.5424 39.4704 68.8189 39.4704C67.9453 39.4704 67.2696 39.252 66.7987 38.822V38.8083ZM69.945 37.7709C70.2112 37.5798 70.4092 37.3205 70.5457 36.9997C70.6753 36.6789 70.7436 36.324 70.7436 35.9418C70.7436 35.5596 70.648 35.2866 70.4501 35.0955C70.2522 34.9044 69.9587 34.8088 69.5765 34.8088C69.1943 34.8088 68.8667 34.9044 68.6005 35.1023C68.3343 35.3002 68.1296 35.5596 67.9931 35.8804C67.8566 36.2012 67.7883 36.5492 67.7883 36.9314C67.7883 37.3137 67.8907 37.5867 68.0886 37.7778C68.2934 37.9689 68.5869 38.0644 68.9759 38.0644C69.3649 38.0644 69.6857 37.9689 69.9519 37.7709H69.945Z" fill="#FF0069"/>
<path d="M78.6643 36.4943C78.4323 36.8697 78.0774 37.1359 77.6064 37.2929L78.2343 39.3336H76.4325L75.9411 37.4567H74.8081L74.344 39.3336H72.6719L74.1188 33.5459H76.7806C77.504 33.5459 78.0569 33.6892 78.4391 33.9691C78.8213 34.2557 79.0192 34.6584 79.0192 35.1907C79.0192 35.6822 78.9032 36.1121 78.6711 36.4875L78.6643 36.4943ZM75.1562 36.0917H76.3916C76.6919 36.0917 76.9171 36.0371 77.0672 35.921C77.2174 35.805 77.2925 35.6276 77.2925 35.3819C77.2925 35.2112 77.2447 35.0952 77.1423 35.0201C77.0399 34.9519 76.883 34.9109 76.6646 34.9109H75.4497L75.1562 36.0917Z" fill="#FF0069"/>
<path d="M85.3316 34.9165H83.4206L82.3149 39.3324H80.6428L81.7484 34.9165H79.8374L80.1718 33.5515H85.6592L85.3248 34.9165H85.3316Z" fill="#FF0069"/>
<path d="M86.485 33.5459H88.1572L86.7171 39.3268H85.0449L86.485 33.5459Z" fill="#FF0069"/>
<path d="M95.3346 33.5459L91.7583 39.3268H89.6766L88.9805 33.5459H90.7891L91.1167 37.5522L93.4577 33.5459H95.3346Z" fill="#FF0069"/>
<path d="M98.9144 38.303H96.7304L96.123 39.3268H94.2256L97.9589 33.5459H99.8972L100.744 39.3268H99.0509L98.9213 38.303H98.9144ZM98.7506 37.0199L98.5322 35.2658L97.4948 37.0199H98.7575H98.7506Z" fill="#FF0069"/>
<path d="M105.873 34.938C105.552 34.8561 105.231 34.8152 104.918 34.8152C104.644 34.8152 104.419 34.8493 104.249 34.9107C104.078 34.9721 103.989 35.0677 103.989 35.2042C103.989 35.3407 104.071 35.4362 104.235 35.4977C104.399 35.5659 104.679 35.641 105.068 35.7297C105.436 35.8116 105.764 35.9072 106.037 36.0232C106.31 36.1324 106.549 36.303 106.74 36.5283C106.931 36.7535 107.026 37.0538 107.026 37.4155C107.026 37.8114 106.91 38.1595 106.678 38.4734C106.446 38.7874 106.119 39.0263 105.689 39.2037C105.259 39.3812 104.767 39.4631 104.201 39.4631C103.675 39.4631 103.191 39.388 102.74 39.2378C102.29 39.0877 101.894 38.8829 101.546 38.6167L102.324 37.4565C102.583 37.6271 102.897 37.7704 103.259 37.8933C103.621 38.0161 103.976 38.0707 104.331 38.0707C104.563 38.0707 104.754 38.0434 104.918 37.9888C105.081 37.9342 105.156 37.8455 105.156 37.7158C105.156 37.6066 105.095 37.5247 104.965 37.4633C104.842 37.4087 104.624 37.3405 104.324 37.2722L104.153 37.2313C103.744 37.1289 103.396 37.006 103.116 36.8763C102.829 36.7398 102.604 36.5624 102.426 36.3372C102.249 36.1119 102.167 35.8253 102.167 35.4704C102.167 35.1018 102.269 34.7606 102.481 34.4466C102.686 34.1327 103 33.8869 103.423 33.6958C103.846 33.5047 104.358 33.416 104.965 33.416C105.45 33.416 105.893 33.4774 106.283 33.5935C106.678 33.7163 107.047 33.8801 107.402 34.0917L106.794 35.2861C106.501 35.1359 106.194 35.0131 105.866 34.9312L105.873 34.938Z" fill="#FF0069"/>
<defs>
<linearGradient id="paint0_linear_275_1727" x1="110.044" y1="14.5059" x2="134.895" y2="14.5059" gradientUnits="userSpaceOnUse">
<stop stop-color="#0098FF"/>
<stop offset="0.6974" stop-color="#FF0069"/>
</linearGradient>
</defs>
</svg>
