<svg width="24" height="24" viewBox="0 0 24 24" fill="none" xmlns="http://www.w3.org/2000/svg">
<path fill-rule="evenodd" clip-rule="evenodd" d="M10.8 0.600007C10.9287 0.599803 11.0541 0.640988 11.1576 0.717479C11.2611 0.793971 11.3372 0.901716 11.3748 1.02481L13.6884 8.62441L20.6064 11.1528C20.7205 11.1946 20.8192 11.27 20.8895 11.3691C20.9597 11.4683 20.9983 11.5864 20.9999 11.7078C21.0016 11.8293 20.9664 11.9484 20.8989 12.0495C20.8314 12.1505 20.7349 12.2287 20.622 12.2736L13.7496 15.0036L11.3748 22.9716C11.3378 23.0953 11.2619 23.2037 11.1583 23.2808C11.0548 23.3579 10.9291 23.3995 10.8 23.3995C10.6709 23.3995 10.5453 23.3579 10.4417 23.2808C10.3382 23.2037 10.2622 23.0953 10.2252 22.9716L7.85041 15.0036L0.978005 12.2736C0.865136 12.2287 0.768572 12.1505 0.701086 12.0495C0.633601 11.9484 0.598373 11.8293 0.600064 11.7078C0.601755 11.5864 0.640284 11.4683 0.710555 11.3691C0.780826 11.27 0.879528 11.1946 0.993605 11.1528L7.91161 8.62441L10.2264 1.02481C10.2639 0.901913 10.3399 0.79431 10.4432 0.717837C10.5464 0.641364 10.6715 0.600061 10.8 0.600007ZM10.8 3.25921L8.97241 9.25921C8.94531 9.34812 8.89793 9.42952 8.834 9.497C8.77007 9.56447 8.69133 9.61616 8.60401 9.64801L2.88361 11.7408L8.56441 13.9968C8.64857 14.0304 8.72404 14.0826 8.78514 14.1495C8.84625 14.2164 8.8914 14.2963 8.91721 14.3832L10.8012 20.7L12.6828 14.3832C12.7086 14.2963 12.7538 14.2164 12.8149 14.1495C12.876 14.0826 12.9514 14.0304 13.0356 13.9968L18.7164 11.7408L12.996 9.65041C12.9087 9.61856 12.8299 9.56687 12.766 9.4994C12.7021 9.43192 12.6547 9.35052 12.6276 9.26161L10.8 3.25921Z" fill="#0B2850"/>
<path d="M20.1 22.944C19.98 22.944 19.872 22.848 19.86 22.728C19.644 20.544 19.476 19.848 17.472 19.656C17.352 19.644 17.256 19.536 17.256 19.416C17.256 19.296 17.352 19.188 17.472 19.176C19.524 18.984 19.644 18.456 19.86 16.272C19.86 16.152 19.98 16.056 20.1 16.056C20.22 16.056 20.328 16.152 20.34 16.272C20.556 18.456 20.688 18.984 22.728 19.176C22.848 19.188 22.944 19.296 22.944 19.416C22.944 19.536 22.848 19.644 22.728 19.656C20.712 19.848 20.556 20.544 20.34 22.74C20.34 22.86 20.232 22.956 20.1 22.956V22.944Z" fill="#0B2850"/>
</svg>
