<!-- icon666.com - MILLIONS vector ICONS FREE --><svg version="1.1" id="Layer_1" xmlns="http://www.w3.org/2000/svg" xmlns:xlink="http://www.w3.org/1999/xlink" x="0px" y="0px" viewBox="0 0 495 495" style="enable-background:new 0 0 495 495;" xml:space="preserve"><g><path style="fill:#00E7F0;" d="M126.653,460.001v31.336h40V461.6H146.65C139.845,461.6,133.167,461.048,126.653,460.001z"></path><path style="fill:#44FFE8;" d="M328.347,461.6v29.737h40v-31.336c-6.514,1.047-13.192,1.599-19.997,1.599H328.347z"></path><path style="fill:#44FFE8;" d="M166.653,381.599v-93.337H21.09v47.768c0,62.434,45.803,114.363,105.563,123.971 c6.514,1.047,13.192,1.599,19.997,1.599H247.5v-80.001H166.653z"></path><path style="fill:#44FFE8;" d="M473.913,94.666c0-50.179-40.824-91.003-91.002-91.003c-50.179,0-91.003,40.824-91.003,91.003v6.589 h40v-6.589c0-28.123,22.88-51.003,51.003-51.003s51.002,22.88,51.002,51.003v153.595h40V94.666z"></path><rect x="265.706" y="101.255" style="fill:#00E7F0;" width="92.403" height="40"></rect><path style="fill:#00E7F0;" d="M495,248.261H328.347v133.337H247.5V461.6h100.85c6.805,0,13.483-0.552,19.997-1.599 c59.76-9.607,105.563-61.537,105.563-123.971v-47.768H495V248.261z"></path><rect y="248.261" style="fill:#00E7F0;" width="166.653" height="40"></rect><rect x="166.653" y="248.261" style="fill:#FF3F62;" width="161.694" height="133.337"></rect></g></svg>