<svg width="24" height="24" viewBox="0 0 24 24" fill="none" xmlns="http://www.w3.org/2000/svg">
<path d="M14.35 8.52999C14.15 8.02999 13.8543 7.63866 13.463 7.35599C13.0717 7.07333 12.6007 6.93133 12.05 6.92999C11.75 6.92999 11.4327 6.98433 11.098 7.09299C10.7633 7.20233 10.4793 7.39266 10.246 7.66399L9.526 6.94499C9.77267 6.67299 10.08 6.45399 10.448 6.28799C10.816 6.12266 11.1667 6.02166 11.5 5.98499V4.34599H12.5V5.97299C13.0447 6.03299 13.5747 6.23466 14.09 6.57799C14.6053 6.92066 15.0047 7.43966 15.288 8.13499L14.35 8.53099V8.52999ZM19.338 20.754L15.162 16.577C14.886 16.9677 14.4993 17.2967 14.002 17.564C13.5047 17.8313 13.004 17.969 12.5 17.977V19.615H11.5V17.927C10.6693 17.7703 10.0057 17.4287 9.509 16.902C9.01167 16.3753 8.62167 15.6837 8.339 14.827L9.3 14.45C9.51334 15.15 9.854 15.75 10.322 16.25C10.7907 16.75 11.4167 17 12.2 17C12.68 17 13.112 16.8953 13.496 16.686C13.8807 16.476 14.196 16.2 14.442 15.858L3.246 4.66199L3.954 3.95399L20.046 20.046L19.338 20.754Z" fill="#0B2951"/>
</svg>
