<svg width="24" height="24" viewBox="0 0 24 24" fill="none" xmlns="http://www.w3.org/2000/svg">
<path d="M2.57143 6.85713H21.4286M12 6.85713V3.42856M9.42858 16.2857L5.14286 6.85713L0.857147 16.2857C0.857147 17.4223 1.30868 18.5124 2.1124 19.3162C2.91613 20.1199 4.00622 20.5714 5.14286 20.5714C6.2795 20.5714 7.36959 20.1199 8.17332 19.3162C8.97705 18.5124 9.42858 17.4223 9.42858 16.2857ZM23.1429 16.2857L18.8571 6.85713L14.5714 16.2857C14.5714 17.4223 15.023 18.5124 15.8267 19.3162C16.6304 20.1199 17.7205 20.5714 18.8571 20.5714C19.9938 20.5714 21.0839 20.1199 21.8876 19.3162C22.6913 18.5124 23.1429 17.4223 23.1429 16.2857Z" stroke="#0B2951" stroke-linecap="round" stroke-linejoin="round"/>
</svg>
