<!-- icon666.com - MILLIONS vector ICONS FREE --><svg version="1.1" id="Capa_1" xmlns="http://www.w3.org/2000/svg" xmlns:xlink="http://www.w3.org/1999/xlink" x="0px" y="0px" viewBox="0 0 491.52 491.52" style="enable-background:new 0 0 491.52 491.52;" xml:space="preserve"><circle style="fill:#E05B49;" cx="245.76" cy="245.76" r="245.76"></circle><polygon style="fill:#64798A;" points="238.175,256.611 231.635,252.581 261.125,204.716 386.56,204.716 386.56,212.396 265.415,212.396 "></polygon><path style="fill:#FFFFFF;" d="M104.961,314.862l-0.001,0.001l0.001,0.001c77.762,95.597,203.838,95.597,281.599,0v-0.001v-0.001 C308.798,219.265,182.722,219.265,104.961,314.862z"></path><path style="fill:#44C4A1;" d="M286.776,293.094c-10.63,0-19.249-8.618-19.249-19.249c0-4.981,1.943-9.478,5.048-12.895 c-8.084-4.03-17.169-6.354-26.817-6.354c-33.283,0-60.265,26.982-60.265,60.265s26.982,60.265,60.265,60.265 c33.285,0,60.266-26.982,60.266-60.265c0-9.647-2.324-18.731-6.354-26.815C296.254,291.151,291.758,293.094,286.776,293.094z"></path><circle style="fill:#64798A;" cx="245.76" cy="314.88" r="18.662"></circle><circle style="fill:#FFFFFF;" cx="258.202" cy="302.387" r="6.211"></circle><rect x="261.683" y="104.96" style="fill:#FCD462;" width="27.141" height="8.172"></rect><rect x="302.592" y="104.96" style="fill:#44C4A1;" width="27.141" height="8.172"></rect><rect x="343.45" y="104.96" style="fill:#E56353;" width="43.11" height="8.172"></rect><rect x="261.683" y="130.826" style="fill:#64798A;" width="16.922" height="8.172"></rect><rect x="287.232" y="131.308" style="fill:#27A2DB;" width="36.096" height="8.172"></rect><rect x="335.155" y="130.826" style="fill:#FCD462;" width="30.013" height="8.172"></rect><rect x="261.683" y="158.295" style="fill:#E56353;" width="23.951" height="8.172"></rect><g><rect x="297.165" y="158.295" style="fill:#64798A;" width="27.146" height="8.172"></rect><rect x="329.882" y="158.295" style="fill:#64798A;" width="27.146" height="8.172"></rect><rect x="362.926" y="158.295" style="fill:#64798A;" width="23.629" height="8.172"></rect><rect x="261.683" y="184.156" style="fill:#64798A;" width="16.922" height="8.172"></rect></g><rect x="287.232" y="184.627" style="fill:#44C4A1;" width="36.096" height="8.172"></rect><rect x="335.155" y="184.156" style="fill:#27A2DB;" width="30.013" height="8.172"></rect></svg>