<!-- icon666.com - MILLIONS vector ICONS FREE --><svg version="1.1" id="Capa_1" xmlns="http://www.w3.org/2000/svg" xmlns:xlink="http://www.w3.org/1999/xlink" x="0px" y="0px" viewBox="0 0 512.003 512.003" style="enable-background:new 0 0 512.003 512.003;" xml:space="preserve"><path style="fill:#808080;" d="M350.759,262.5v75h30c24.853,0,45-20.147,45-45L350.759,262.5z"></path><path style="fill:#999999;" d="M395.759,292.5l-45-30l-15,30v45h15C375.612,337.5,395.759,317.353,395.759,292.5z"></path><path style="fill:#9DB55F;" d="M425.759,192.5c0-11.046-8.954-20-20-20h-30l20,120h30V192.5z"></path><path style="fill:#B9D171;" d="M395.759,192.5c0-11.046-8.954-20-20-20h-20c-11.046,0-20,8.954-20,20v100h60V192.5z"></path><circle style="fill:#60312C;" cx="380.761" cy="30" r="22.5"></circle><path style="fill:#A45E43;" d="M415.014,68.335c0.01-0.01-34.255-0.005-34.255-0.005v74.17c24.85,0,45-20.15,45-45 C425.759,86.38,421.714,76.185,415.014,68.335z"></path><path style="fill:#C27749;" d="M394.649,80.51l-48.145-12.175c-6.7,7.85-10.745,18.045-10.745,29.165c0,24.85,20.15,45,45,45 c8.28,0,15-20.15,15-45C395.759,91.49,395.369,85.75,394.649,80.51z"></path><path style="fill:#40211D;" d="M380.759,52.5l13.89,28.01c7.45-2.23,14.475-6.295,20.365-12.175 C406.764,58.645,394.479,52.5,380.759,52.5z"></path><path style="fill:#60312C;" d="M380.759,52.5c-13.72,0-26.005,6.145-34.255,15.835c13.04,13.04,31.645,17.105,48.145,12.175 C392.419,64.08,387.039,52.5,380.759,52.5z"></path><path style="fill:#808080;" d="M191.244,37.5v165l40-30c11,0,20-9,20-20v-55C251.244,64.363,224.382,37.5,191.244,37.5z"></path><path style="fill:#999999;" d="M221.244,152.5v-55c0-33.137-13.431-60-30-60c-33.137,0-60,26.863-60,60v55c0,11,9,20,20,20l40,30 l10-30C212.244,172.5,221.244,163.5,221.244,152.5z"></path><path style="fill:#1990C2;" d="M191.245,262.5v75c24.853,0,45-20.147,45-45L191.245,262.5z"></path><g><path style="fill:#2DADE3;" d="M206.245,292.5l-15-30l-45,30c0,24.853,20.147,45,45,45 C199.529,337.5,206.245,317.353,206.245,292.5z"></path><polygon style="fill:#2DADE3;" points="251.244,247.5 221.244,172.5 191.244,232.5 221.244,292.5 251.244,292.5 "></polygon></g><polygon style="fill:#49C9FF;" points="161.244,172.5 131.244,247.5 131.244,292.5 221.244,292.5 221.244,217.5 236.244,195 221.244,172.5 "></polygon><path style="fill:#696969;" d="M161.244,172.5v45c0,16.57-13.43,30-30,30v-55c0-11.05,8.95-20,20-20H161.244z"></path><path style="fill:#4F4F4F;" d="M251.244,192.5v55c-16.57,0-30-13.43-30-30v-45h10C242.295,172.5,251.244,181.45,251.244,192.5z"></path><rect x="161.241" y="97.5" style="fill:#FFD9D4;" width="60" height="30"></rect><path d="M380.759,150c28.949,0,52.5-23.552,52.5-52.5c0-20.964-12.356-39.09-30.165-47.499c4.762-5.312,7.665-12.323,7.665-20.001 c0-16.542-13.458-30-30-30s-30,13.458-30,30c0,7.678,2.903,14.689,7.665,20.001c-17.808,8.408-30.165,26.534-30.165,47.499 C328.259,126.448,351.811,150,380.759,150z M403.782,67.931c-13.838,9.419-32.205,9.42-46.045,0 c6.36-4.963,14.349-7.931,23.022-7.931C389.433,60,397.422,62.968,403.782,67.931z M365.759,30c0-8.271,6.729-15,15-15 s15,6.729,15,15s-6.729,15-15,15S365.759,38.271,365.759,30z M347.939,79.384c9.751,7.072,21.284,10.615,32.82,10.615 s23.07-3.543,32.82-10.615c2.978,5.374,4.68,11.549,4.68,18.116c0,20.678-16.822,37.5-37.5,37.5c-20.678,0-37.5-16.822-37.5-37.5 C343.259,90.933,344.961,84.758,347.939,79.384z"></path><path d="M405.759,165h-50c-12.563,0-23.178,8.472-26.452,20h-71.611c-1.375-4.84-4.042-9.139-7.607-12.5 c5.323-5.018,8.655-12.125,8.655-20v-55c0-37.22-30.28-67.5-67.5-67.5s-67.5,30.28-67.5,67.5v55c0,7.875,3.332,14.982,8.655,20 c-4.577,4.315-7.676,10.177-8.455,16.743c-29.166,30.192-45.2,69.81-45.2,111.896V337.5c0,4.143,3.358,7.5,7.5,7.5 s7.5-3.357,7.5-7.5v-36.361c0-32.497,10.544-63.37,30-88.728V292.5c0,4.143,3.358,7.5,7.5,7.5h8.044 c1.621,11.281,6.84,21.41,14.456,29.192v159.903l-24.872,8.29c-3.93,1.31-6.053,5.558-4.744,9.487 c1.048,3.143,3.974,5.13,7.114,5.13c0.786,0,1.586-0.125,2.373-0.387l30-10c3.063-1.021,5.128-3.887,5.128-7.115V339.924 c6.824,3.251,14.452,5.076,22.5,5.076s15.676-1.825,22.5-5.076V494.5c0,3.229,2.066,6.095,5.128,7.115l30,10 c0.787,0.262,1.586,0.387,2.373,0.387c3.14,0,6.066-1.987,7.114-5.13c1.31-3.93-0.814-8.178-4.744-9.487l-24.872-8.29V329.192 c7.616-7.782,12.835-17.911,14.456-29.192h8.044c4.142,0,7.5-3.357,7.5-7.5V240h65.974c1.184,0,2.363-0.025,3.541-0.063V330h-62.034 c-10.727,0-20.002,7.646-22.061,18.188c-1.152,5.898,0.062,11.893,3.418,16.878s8.454,8.365,14.403,9.527l77.97,14.664l3.365,25.961 c0.49,3.781,3.715,6.537,7.429,6.537c0.321,0,0.646-0.021,0.973-0.063c4.108-0.532,7.006-4.294,6.474-8.401l-4.065-31.361 c-0.417-3.221-2.86-5.807-6.052-6.407l-83.271-15.661c-1.966-0.384-3.666-1.511-4.784-3.172c-1.119-1.662-1.523-3.66-1.14-5.626 c0.687-3.515,3.772-6.063,7.349-6.063h107.024v144.095l-24.872,8.29c-3.93,1.31-6.053,5.558-4.744,9.487 c1.048,3.143,3.974,5.13,7.114,5.13c0.786,0,1.586-0.125,2.373-0.387l30-10c3.063-1.021,5.128-3.887,5.128-7.115V344.456 c25.407-3.651,45-25.554,45-51.956v-100C433.259,177.337,420.923,165,405.759,165z M243.745,192.5v46.21 c-8.729-3.096-15-11.433-15-21.21V180h2.5C238.137,180,243.745,185.607,243.745,192.5z M138.745,152.5v-55 c0-28.948,23.551-52.5,52.5-52.5s52.5,23.552,52.5,52.5v55c0,6.893-5.607,12.5-12.5,12.5h-80 C144.352,165,138.745,159.393,138.745,152.5z M153.745,180v37.5c0,9.777-6.271,18.114-15,21.21v-46.207 c0.001-6.896,5.608-12.503,12.5-12.503L153.745,180L153.745,180z M191.245,330c-18.11,0-33.261-12.904-36.745-30h73.491 C224.506,317.096,209.355,330,191.245,330z M138.745,285v-30.755c17.096-3.484,30-18.635,30-36.745V180h45v37.5 c0,18.11,12.904,33.261,30,36.745V285H138.745z M324.718,225h-65.974v-25h69.515v24.928C327.082,224.971,325.902,225,324.718,225z M402.447,197.196c-2.929-2.928-7.678-2.928-10.606,0c-13.477,13.477-30.293,22.401-48.582,26.003v-30.7 c0-6.893,5.607-12.5,12.5-12.5h50c6.893,0,12.5,5.607,12.5,12.5V285h-75v-46.552c22.311-3.768,42.865-14.322,59.188-30.645 C405.376,204.874,405.376,200.126,402.447,197.196z M380.759,330h-37.5v-30h74.245C414.02,317.096,398.869,330,380.759,330z"></path><path d="M221.245,135c4.142,0,7.5-3.357,7.5-7.5v-30c0-4.143-3.358-7.5-7.5-7.5h-60c-4.142,0-7.5,3.357-7.5,7.5v30 c0,4.143,3.358,7.5,7.5,7.5H221.245z M213.745,120h-15v-15h15V120z M168.745,105h15v15h-15V105z"></path></svg>