<svg width="24" height="24" viewBox="0 0 24 24" fill="none" xmlns="http://www.w3.org/2000/svg">
<g clip-path="url(#clip0_1_31)">
<path d="M12 21C13.2403 21 14.2457 19.9945 14.2457 18.7543C14.2457 17.514 13.2403 16.5085 12 16.5085C10.7597 16.5085 9.7543 17.514 9.7543 18.7543C9.7543 19.9945 10.7597 21 12 21Z" stroke="#434650" stroke-width="2" stroke-linecap="round" stroke-linejoin="round"/>
<path d="M7.76572 13.7143C8.32316 13.142 8.98957 12.6872 9.72564 12.3766C10.4617 12.066 11.2525 11.906 12.0514 11.906C12.8503 11.906 13.6412 12.066 14.3772 12.3766C15.1133 12.6872 15.7797 13.142 16.3371 13.7143M4.04572 10.8171C5.08922 9.76755 6.32994 8.93461 7.6965 8.36623C9.06307 7.79785 10.5285 7.50525 12.0086 7.50525C13.4886 7.50525 14.9541 7.79785 16.3206 8.36623C17.6872 8.93461 18.9279 9.76755 19.9714 10.8171" stroke="#434650" stroke-width="2" stroke-linecap="round" stroke-linejoin="round"/>
<path d="M0.857147 7.62857C2.32017 6.16478 4.05728 5.0036 5.96921 4.21136C7.88114 3.41912 9.93043 3.01135 12 3.01135C14.0696 3.01135 16.1189 3.41912 18.0308 4.21136C19.9427 5.0036 21.6798 6.16478 23.1429 7.62857" stroke="#434650" stroke-width="2" stroke-linecap="round" stroke-linejoin="round"/>
</g>
<defs>
<clipPath id="clip0_1_31">
<rect width="24" height="24" fill="white"/>
</clipPath>
</defs>
</svg>
