<!-- icon666.com - MILLIONS vector ICONS FREE --><svg version="1.1" id="Layer_1" xmlns="http://www.w3.org/2000/svg" xmlns:xlink="http://www.w3.org/1999/xlink" x="0px" y="0px" viewBox="0 0 512 512" style="enable-background:new 0 0 512 512;" xml:space="preserve"><rect x="0.001" y="0.262" style="fill:#2E3192;" width="511.476" height="400.355"></rect><rect x="0.001" y="359.897" style="fill:#585AA8;" width="511.476" height="39.955"></rect><rect x="0.001" y="383.864" style="fill:#ABADD3;" width="511.476" height="15.984"></rect><path style="fill:#F2F2F2;" d="M334.332,224.031c12.788-32.744,44.643-55.941,81.917-55.941c48.551,0,87.91,39.359,87.91,87.91 c0,45.858-35.112,83.515-79.919,87.552"></path><path style="fill:#B3B3B3;" d="M415.586,168.09c-6.932,0-13.676,0.808-20.146,2.325c38.994,8.996,68.097,43.857,68.097,85.585 c0,33.861-19.174,63.203-47.229,77.888l7.268,9.663c44.807-4.037,79.919-41.694,79.919-87.552 C503.496,207.449,464.138,168.09,415.586,168.09z"></path><polyline style="fill:#C69C6D;" points="471.529,399.853 255.75,128.131 39.97,399.853 "></polyline><polyline style="fill:#998675;" points="471.529,399.853 255.75,128.131 367.635,399.853 "></polyline><polygon style="fill:#C9961A;" points="223.782,167.762 255.75,127.803 279.725,167.762 "></polygon><rect x="0.001" y="400.344" style="fill:#FBB03B;" width="511.476" height="111.394"></rect><polygon style="fill:#F7931E;" points="262.336,511.738 0.01,511.738 0.01,400.344 463.537,399.853 "></polygon><rect x="40.834" y="431.619" width="112.033" height="15.706"></rect><rect x="152.867" y="448.372" width="47.117" height="15.706"></rect><rect x="71.198" y="479.783" width="32.458" height="15.706"></rect><rect y="471.406" width="15.706" height="15.706"></rect><rect x="215.689" y="479.783" width="159.149" height="15.706"></rect><rect x="327.722" y="448.372" width="56.54" height="15.706"></rect><rect x="384.262" y="431.619" width="23.035" height="15.706"></rect><rect x="255.476" y="431.619" width="39.787" height="15.706"></rect><rect x="456.507" y="455.701" width="55.493" height="15.706"></rect><rect x="414.626" y="488.159" width="16.753" height="15.706"></rect><rect x="486.871" y="424.29" width="25.129" height="15.706"></rect><rect y="424.29" width="15.706" height="15.706"></rect><rect x="215.689" y="264.094" width="24.082" height="15.706"></rect><rect x="279.558" y="367.75" width="32.458" height="15.706"></rect><rect x="232.442" y="192.895" width="30.364" height="15.706"></rect><rect x="207.313" y="207.554" width="25.129" height="15.706"></rect><rect x="255.476" y="296.552" width="39.787" height="15.706"></rect><path d="M475.183,391.828l-34.476-43.413c17.317-4.695,33.06-14.196,45.414-27.643c16.268-17.706,25.227-40.71,25.227-64.771 c0-52.804-42.959-95.763-95.763-95.763c-19.655,0-38.544,5.912-54.624,17.097c-12.483,8.682-22.592,20.047-29.702,33.257 l-75.511-95.088L36.315,391.828H0v15.706h512v-15.706H475.183z M415.586,175.943c44.144,0,80.057,35.913,80.057,80.057 c0,20.116-7.488,39.344-21.087,54.146c-11.908,12.961-27.573,21.549-44.677,24.633l-87.796-110.557 C354.779,194.798,383.319,175.943,415.586,175.943z M253.581,143.49l6.976,16.943h-20.432L253.581,143.49z M56.371,391.828 l6.849-8.624l104.306,0.248v-15.706H75.494l5.82-7.329h29.671v-15.706H93.787l64.023-80.622h57.879v-15.706h-45.407l57.371-72.245 h39.371l62.514,151.82h-17.522v15.706h23.989l19.832,48.164H56.371z M372.823,391.828l-12.934-31.411h24.373v-15.706h-30.839 L284.187,176.57l81.973,103.225h-14.357V295.5h26.829l6.652,8.376h-17.776v15.706h30.247l57.371,72.245H372.823z"></path><g><rect x="31.411" y="24.323" style="fill:#FFFFFF;" width="16.753" height="15.706"></rect><rect x="87.951" y="72.486" style="fill:#FFFFFF;" width="15.706" height="15.706"></rect><rect x="63.869" y="136.355" style="fill:#FFFFFF;" width="16.753" height="15.706"></rect><rect x="15.706" y="232.683" style="fill:#FFFFFF;" width="15.706" height="15.706"></rect><rect x="87.951" y="272.47" style="fill:#FFFFFF;" width="15.706" height="15.706"></rect><rect x="120.409" y="176.143" style="fill:#FFFFFF;" width="15.706" height="15.706"></rect><rect x="359.133" y="88.192" style="fill:#FFFFFF;" width="15.706" height="15.706"></rect><rect x="463.836" y="127.979" style="fill:#FFFFFF;" width="15.706" height="15.706"></rect><rect x="223.018" y="64.11" style="fill:#FFFFFF;" width="16.753" height="15.706"></rect><rect x="295.264" y="15.942" style="fill:#FFFFFF;" width="16.753" height="15.706"></rect><rect x="424.049" y="32.699" style="fill:#FFFFFF;" width="15.706" height="15.706"></rect><rect x="496.294" y="336.339" style="fill:#FFFFFF;" width="15.706" height="15.706"></rect></g></svg>