<!-- icon666.com - MILLIONS vector ICONS FREE --><svg version="1.1" id="Capa_1" xmlns="http://www.w3.org/2000/svg" xmlns:xlink="http://www.w3.org/1999/xlink" x="0px" y="0px" viewBox="0 0 507.988 507.988" style="enable-background:new 0 0 507.988 507.988;" xml:space="preserve"><g><g><path d="M467.244,333.688h-357.8v-220.6c0-7.8-6.3-14.1-14.1-14.1s-14.1,6.3-14.1,14.1v220.6h-40.4c-22.5,0-40.8,18.3-40.8,40.8 v74.9c0,21.3,16.4,38.8,37.2,40.6v3.9c0,7.8,6.3,14.1,14.1,14.1c7.8,0,14.1-6.3,14.1-14.1v-3.7h377.1v3.7 c0,7.8,6.3,14.1,14.1,14.1c7.8,0,14.1-6.3,14.1-14.1v-3.9c20.8-1.8,37.2-19.3,37.2-40.6v-74.9 C508.044,351.988,489.744,333.688,467.244,333.688z M479.844,449.387c0,6.9-5.6,12.5-12.5,12.5h-426.5c-6.9,0-12.5-5.6-12.5-12.5 v-74.9c0-6.9,5.6-12.5,12.5-12.5h426.5c6.9,0,12.5,5.6,12.5,12.5V449.387z"></path></g></g><g><g><path d="M76.144,397.788h-8.7c-7.8,0-14.1,6.3-14.1,14.1c0,7.8,6.3,14.1,14.1,14.1h8.7c7.8,0,14.1-6.3,14.1-14.1 C90.244,404.087,83.944,397.788,76.144,397.788z"></path></g></g><g><g><path d="M145.144,397.788h-8.7c-7.8,0-14.1,6.3-14.1,14.1c0,7.8,6.3,14.1,14.1,14.1h8.7c7.8,0,14.1-6.3,14.1-14.1 C159.244,404.087,152.944,397.788,145.144,397.788z"></path></g></g><g><g><path d="M214.244,397.788h-8.7c-7.8,0-14.1,6.3-14.1,14.1c0,7.8,6.3,14.1,14.1,14.1h8.7c7.8,0,14.1-6.3,14.1-14.1 C228.344,404.087,222.044,397.788,214.244,397.788z"></path></g></g><g><g><path d="M283.244,397.788h-8.7c-7.8,0-14.1,6.3-14.1,14.1c0,7.8,6.3,14.1,14.1,14.1h8.7c7.8,0,14.1-6.3,14.1-14.1 C297.344,404.087,291.044,397.788,283.244,397.788z"></path></g></g><g><g><path d="M175.444,32.988c-44.2-44-116-44-160.1,0.1c-5.5,5.5-5.5,14.4,0,20c5.5,5.5,14.5,5.5,20-0.1c33.1-33.1,87-33.1,120.1,0 c2.8,2.8,12,7.9,20,0C180.944,47.488,180.944,38.587,175.444,32.988z"></path></g></g><g><g><path d="M137.744,70.787c-23.4-23.4-61.4-23.3-84.7,0c-5.5,5.5-5.5,14.4,0,20c5.5,5.5,14.4,5.5,20,0c12.3-12.3,32.4-12.3,44.7,0 c2.8,2.8,12.8,7.2,20,0C143.244,85.287,143.244,76.388,137.744,70.787z"></path></g></g></svg>