<!-- icon666.com - MILLIONS vector ICONS FREE --><svg version="1.1" id="Capa_1" xmlns="http://www.w3.org/2000/svg" xmlns:xlink="http://www.w3.org/1999/xlink" x="0px" y="0px" viewBox="0 0 512.002 512.002" style="enable-background:new 0 0 512.002 512.002;" xml:space="preserve"><g><g><g><path d="M327.348,73.471h68.435c27.979,0,50.742,22.866,50.742,50.971v8.771c0,4.143,3.357,7.5,7.5,7.5s7.5-3.357,7.5-7.5v-8.771 c0-36.376-29.492-65.971-65.742-65.971h-68.435c-4.143,0-7.5,3.357-7.5,7.5C319.848,70.113,323.205,73.471,327.348,73.471z"></path><path d="M174.462,200.157c4.143,0,7.5-3.357,7.5-7.5s-3.357-7.5-7.5-7.5H46.329c-17.274,0-31.328-14.122-31.328-31.48 c0-17.358,14.054-31.48,31.328-31.48h1.224c2.317,0,4.505-1.071,5.926-2.902c1.42-1.831,1.915-4.216,1.339-6.461 c-0.655-2.558-0.988-5.21-0.988-7.882c0-17.358,14.054-31.48,31.328-31.48h128.133c10.985,0,20.978,5.626,26.729,15.049 c2.158,3.537,6.775,4.652,10.309,2.494c3.536-2.158,4.652-6.773,2.494-10.309c-8.498-13.923-23.276-22.234-39.532-22.234H102.912 C106.533,33.908,127.663,15,153.106,15h87.363c27.979,0,50.742,22.865,50.742,50.971c0,4.143,3.357,7.5,7.5,7.5 s7.5-3.357,7.5-7.5C306.212,29.595,276.72,0,240.47,0h-87.363c-33.724,0-61.598,25.612-65.32,58.471h-2.629 c-25.546,0-46.328,20.851-46.328,46.48c0,0.948,0.028,1.896,0.086,2.84c-22.035,3.57-38.915,22.787-38.915,45.886 c0,25.63,20.783,46.48,46.328,46.48H174.462z"></path><path d="M465.673,248.883c25.545,0,46.328-20.851,46.328-46.48c0-25.629-20.783-46.48-46.328-46.48H405.17 c0.036-0.747,0.054-1.496,0.054-2.245c0-25.629-20.783-46.48-46.328-46.48H230.763c-25.545,0-46.328,20.851-46.328,46.48 c0,25.629,20.783,46.48,46.328,46.48h20.385c4.143,0,7.5-3.357,7.5-7.5s-3.357-7.5-7.5-7.5h-20.385 c-17.274,0-31.328-14.122-31.328-31.48c0-17.358,14.054-31.48,31.328-31.48h128.133c17.274,0,31.328,14.122,31.328,31.48 c0,2.672-0.333,5.324-0.988,7.882c-0.576,2.245-0.081,4.63,1.339,6.461c1.421,1.831,3.609,2.902,5.926,2.902h69.173 c17.274,0,31.328,14.122,31.328,31.48c0,17.358-14.054,31.48-31.328,31.48H337.541c-17.274,0-31.328-14.122-31.328-31.48 c0-2.673,0.333-5.324,0.988-7.882c1.03-4.012-1.388-8.099-5.401-9.128c-4.016-1.032-8.1,1.389-9.128,5.401 c-0.968,3.773-1.459,7.679-1.459,11.608c0,25.629,20.783,46.48,46.328,46.48h20.799l-15.943,55.235 c-6.193,21.762-26.256,36.96-48.788,36.96h-6.81v-53.216h40.064c4.143,0,7.5-3.357,7.5-7.5s-3.357-7.5-7.5-7.5H172.696 c-0.113-0.002-0.229-0.002-0.342,0h-38.661c-18.06,0-34.902-9.779-43.958-25.522c-1.294-2.251-3.661-3.672-6.256-3.757 c-19.867-0.649-37.62-12.994-45.228-31.449c-1.579-3.83-5.964-5.655-9.792-4.075c-3.83,1.578-5.654,5.963-4.075,9.792 c9.325,22.621,30.438,38.153,54.506,40.461c12.122,18.325,32.761,29.551,54.803,29.551h33.165l9.817,34.497 c5.651,19.854,23.969,33.719,44.548,33.719h2.04v103.527c-28.913,1.838-55.437,5.238-77.392,10.004 c-39.369,8.546-58.507,19.959-58.507,34.893c0,4.143,3.357,7.5,7.5,7.5h68.596c4.143,0,7.5-3.357,7.5-7.5s-3.357-7.5-7.5-7.5 h-52.953c6.776-3.795,18.626-8.41,38.545-12.734c33.412-7.252,77.942-11.246,125.392-11.246c47.45,0,91.981,3.994,125.392,11.246 c19.919,4.324,31.769,8.939,38.545,12.734h-246.77c-4.143,0-7.5,3.357-7.5,7.5s3.357,7.5,7.5,7.5h262.412 c4.143,0,7.5-3.357,7.5-7.5c0-14.934-19.138-26.347-58.507-34.893c-6.05-1.313-12.449-2.523-19.149-3.625v-33.688l76.173-20.393 c6.588-1.762,11.19-7.765,11.19-14.599c0-6.832-4.6-12.835-11.188-14.599l-76.175-20.393v-3.989c0-4.143-3.357-7.5-7.5-7.5 s-7.5,3.357-7.5,7.5v105.438c-24.748-3.283-52.747-5.225-82.07-5.651V356.079h6.81c29.201,0,55.196-19.679,63.208-47.827 l5.885-20.389h62.203c13.973,0,27.318-4.342,38.59-12.556c3.348-2.44,4.084-7.131,1.645-10.479 c-2.439-3.348-7.131-4.082-10.479-1.645c-8.69,6.332-18.98,9.679-29.756,9.679h-57.874l6.921-23.979v0H465.673z M223.262,341.078 h-2.04c-13.91,0-26.296-9.386-30.12-22.824l-8.649-30.392h40.809V341.078z M271.798,458.024 c-11.381,0.035-22.594,0.297-33.535,0.776V287.862h33.535V458.024z M383.868,377.843l72.296,19.354 c0.027,0.006,0.067,0.042,0.067,0.108c0,0.066-0.04,0.101-0.067,0.108l-72.296,19.354V377.843z"></path></g></g></g></svg>