<svg width="20" height="20" viewBox="0 0 20 20" fill="none" xmlns="http://www.w3.org/2000/svg">
<path fill-rule="evenodd" clip-rule="evenodd" d="M13.3333 2.5C15.5575 2.5 17.6883 4.38167 17.0625 6.83833C16.4313 9.30265 15.1492 11.552 13.3505 13.3508C11.5518 15.1497 9.30259 16.4319 6.83833 17.0633C4.38167 17.6875 2.5 15.5567 2.5 13.3333V12.5C2.5 11.5608 3.25083 10.8792 4.08333 10.7967C4.76583 10.7293 5.43577 10.5681 6.07417 10.3175C6.22501 10.2583 6.38986 10.2443 6.54853 10.2773C6.70719 10.3103 6.85279 10.3888 6.9675 10.5033L7.80333 11.3383C9.28495 10.5083 10.5083 9.28494 11.3383 7.80333L10.5033 6.96667C10.3888 6.85196 10.3103 6.70636 10.2773 6.54769C10.2443 6.38903 10.2583 6.22418 10.3175 6.07333C10.5681 5.43467 10.7294 4.76445 10.7967 4.08167C10.8792 3.25167 11.5608 2.5 12.5 2.5H13.3333Z" fill="#913208"/>
</svg>
