<!-- icon666.com - MILLIONS vector ICONS FREE --><svg version="1.1" id="Capa_1" xmlns="http://www.w3.org/2000/svg" xmlns:xlink="http://www.w3.org/1999/xlink" x="0px" y="0px" viewBox="0 0 512 512" style="enable-background:new 0 0 512 512;" xml:space="preserve"><path style="fill:#87DCFA;" d="M506.464,261.536C506.464,398.985,395.245,512,256,512C117.117,512,5.536,399.326,5.536,261.536 C5.536,123.209,117.672,11.072,256,11.072C394.585,11.072,506.464,123.446,506.464,261.536z"></path><path style="fill:#898890;" d="M253.594,342.362c-4.269,0-7.731-3.46-7.731-7.731v-43.427c0-9.946,8.092-18.038,18.038-18.038 h25.426c1.42,0,2.577-1.155,2.577-2.577v-17.866c0-4.27,3.461-7.731,7.731-7.731c4.269,0,7.731,3.46,7.731,7.731v17.866 c0,9.946-8.092,18.038-18.038,18.038h-25.426c-1.42,0-2.577,1.155-2.577,2.577v43.427 C261.325,338.902,257.865,342.362,253.594,342.362z"></path><path style="fill:#2D2D2D;" d="M427.106,362.031v57.382c0,3.69-0.402,7.287-1.165,10.751c-4.917,22.244-24.748,38.891-48.487,38.891 H134.546c-27.428,0-49.652-22.223-49.652-49.641v-57.382c0-23.017,15.657-42.374,36.911-47.992c4.061-1.082,8.329-1.66,12.74-1.66 h242.908C404.883,312.379,427.106,334.613,427.106,362.031z"></path><g><path style="fill:#464646;" d="M427.106,362.031v57.382c0,3.69-0.402,7.287-1.165,10.751c-4.072,1.082-8.339,1.66-12.75,1.66 H170.272c-27.418,0-49.641-22.223-49.641-49.641V324.8c0-3.69,0.402-7.298,1.175-10.761c4.061-1.082,8.329-1.66,12.74-1.66h242.908 C404.883,312.379,427.106,334.613,427.106,362.031z"></path><path style="fill:#464646;" d="M119.05,293.29H81.713c-2.893,0-5.239-2.346-5.239-5.239v-55.447c0-2.893,2.346-5.239,5.239-5.239 h37.337c2.893,0,5.239,2.346,5.239,5.239v55.447C124.29,290.944,121.944,293.29,119.05,293.29z"></path><path style="fill:#464646;" d="M426.301,293.29h-37.337c-2.893,0-5.239-2.346-5.239-5.239v-55.447c0-2.893,2.346-5.239,5.239-5.239 h37.337c2.893,0,5.239,2.346,5.239,5.239v55.447C431.54,290.944,429.194,293.29,426.301,293.29z"></path></g><path style="fill:#2D2D2D;" d="M437.335,243.551H74.665c-11.327,0-20.509-9.182-20.509-20.509V20.509 C54.156,9.182,63.338,0,74.665,0h362.67c11.327,0,20.509,9.182,20.509,20.509v202.533 C457.844,234.369,448.662,243.551,437.335,243.551z"></path><path style="fill:#5A5A5A;" d="M428.721,44.3v154.957c0,6.032-4.889,10.921-10.921,10.921H94.2c-6.031,0-10.921-4.889-10.921-10.921 V44.3c0-6.031,4.889-10.93,10.921-10.93h323.601C423.832,33.37,428.721,38.269,428.721,44.3z"></path><path style="fill:#6E6E6E;" d="M428.721,44.3v154.957c0,6.032-4.889,10.921-10.921,10.921H135.032 c-6.031,0-10.93-4.889-10.93-10.921V44.3c0-6.031,4.899-10.93,10.93-10.93h282.769C423.832,33.37,428.721,38.269,428.721,44.3z"></path><circle style="fill:#FF3C2D;" cx="395.223" cy="227.313" r="4.865"></circle><circle style="fill:#509137;" cx="415.498" cy="227.313" r="4.865"></circle><path style="fill:#82D2AF;" d="M214.014,372.856h-13.057c-1.898,0-3.436-1.538-3.436-3.436v-13.057 c0-9.826-8.04-17.866-17.866-17.866l0,0c-9.826,0-17.866,8.04-17.866,17.866v13.057c0,1.898-1.538,3.436-3.436,3.436h-13.057 c-9.826,0-17.866,8.04-17.866,17.866l0,0c0,9.826,8.04,17.866,17.866,17.866h13.057c1.898,0,3.436,1.538,3.436,3.436v13.057 c0,9.826,8.04,17.866,17.866,17.866l0,0c9.826,0,17.866-8.04,17.866-17.866v-13.056c0-1.898,1.538-3.436,3.436-3.436h13.057 c9.826,0,17.866-8.04,17.866-17.866l0,0C231.88,380.896,223.84,372.856,214.014,372.856z"></path><g><circle style="fill:#FF3C2D;" cx="370.001" cy="390.719" r="14.565"></circle><circle style="fill:#FF3C2D;" cx="300.59" cy="390.719" r="14.565"></circle><circle style="fill:#FF3C2D;" cx="335.295" cy="356.013" r="14.565"></circle><circle style="fill:#FF3C2D;" cx="335.295" cy="425.435" r="14.565"></circle></g></svg>