<!-- icon666.com - MILLIONS vector ICONS FREE --><svg viewBox="0 0 512 512" xmlns="http://www.w3.org/2000/svg"><path d="m502 30.5v79.5h-492v-79.5c0-11.28125 10.730469-20.5 23.851562-20.5h444.296876c13.121093 0 23.851562 9.21875 23.851562 20.5zm0 0" fill="#c9f3ff"></path><path d="m502 110v259.5c0 11.28125-10.730469 20.5-23.851562 20.5h-131.96875l-40-40h155.191406v-200h-410.742188v200h156.601563l40 40h-213.378907c-13.121093 0-23.851562-9.21875-23.851562-20.5v-259.5zm0 0" fill="#f7f7f7"></path><path d="m109.871094 214.78125 11.320312 31.769531 7.378906 20.6875c1.339844 4.042969 3.601563 7.703125 6.609376 10.710938l72.050781 72.050781h-156.601563v-200h179.371094v123.820312l-43.261719-43.261718-2.148437-2.136719c-2.960938-2.972656-6.578125-5.210937-10.550782-6.5625l-20.738281-7.417969-31.710937-11.363281c-7.28125-2.609375-14.320313 4.410156-11.71875 11.703125zm0 0" fill="#c2cee9"></path><path d="m461.371094 150v200h-155.191406l-76.179688-76.179688v-123.820312zm0 0" fill="#ffa3bf"></path><path d="m161.855469 255.441406 24.882812-24.878906 210.425781 210.425781-24.878906 24.882813zm0 0" fill="#fade76"></path><path d="m372.289062 465.871094-24.589843 24.597656-210.429688-210.429688 24.589844-24.597656zm0 0" fill="#ffc954"></path><path d="m186.738281 230.558594-24.878906 24.882812-24.589844 24.597656-2.089843-2.089843c-3.007813-3.007813-5.269532-6.667969-6.609376-10.710938l-7.378906-20.6875 32.109375-32.109375 20.738281 7.417969c3.972657 1.351563 7.589844 3.589844 10.550782 6.5625zm0 0" fill="#fee4bb"></path><path d="m153.300781 214.441406-32.109375 32.109375-11.320312-31.769531c-2.601563-7.292969 4.4375-14.3125 11.71875-11.703125zm0 0" fill="#262e30"></path><path d="m397.371094 441.195312-.199219-.207031c13.652344 13.65625 13.988281 35.859375.507813 49.34375l-.648438.644531c-13.484375 13.484376-35.480469 13.347657-49.136719-.304687" fill="#f9b"></path><path d="m191 70.332031h259.5c5.523438 0 10-4.476562 10-10 0-5.523437-4.476562-10-10-10h-259.5c-5.523438 0-10 4.476563-10 10 0 5.523438 4.476562 10 10 10zm0 0"></path><path d="m54.78125 68.648438c.539062.363281 1.117188.671874 1.726562.921874.601563.25 1.230469.441407 1.871094.570313s1.300782.1875 1.949219.1875c2.640625 0 5.210937-1.058594 7.070313-2.929687 1.871093-1.859376 2.929687-4.4375 2.929687-7.070313 0-.648437-.058594-1.296875-.1875-1.949219-.132813-.640625-.320313-1.269531-.570313-1.867187-.25-.601563-.5625-1.191407-.921874-1.730469-.367188-.550781-.789063-1.0625-1.25-1.519531-2.320313-2.320313-5.769532-3.390625-9.019532-2.730469-.640625.128906-1.269531.320312-1.871094.570312-.609374.25-1.1875.558594-1.726562.917969-.550781.359375-1.0625.78125-1.523438 1.242188-.457031.457031-.878906.96875-1.238281 1.519531-.359375.539062-.671875 1.128906-.921875 1.730469-.25.597656-.4375 1.226562-.566406 1.867187-.132812.652344-.203125 1.300782-.203125 1.949219 0 2.632813 1.070313 5.210937 2.933594 7.070313.457031.472656.96875.882812 1.519531 1.25zm0 0"></path><path d="m91.101562 64.160156c.25.601563.558594 1.179688.917969 1.71875.359375.550782.78125 1.0625 1.242188 1.519532.457031.460937.96875.882812 1.519531 1.25.539062.363281 1.117188.671874 1.730469.921874.597656.25 1.226562.441407 1.867187.570313s1.300782.1875 1.949219.1875c2.640625 0 5.210937-1.058594 7.070313-2.929687.460937-.457032.882812-.96875 1.25-1.519532.359374-.539062.671874-1.117187.921874-1.71875.25-.601562.4375-1.230468.570313-1.871094.128906-.648437.1875-1.300781.1875-1.960937 0-.648437-.058594-1.296875-.1875-1.949219-.132813-.640625-.320313-1.269531-.570313-1.867187-.25-.601563-.5625-1.191407-.921874-1.730469-.367188-.550781-.789063-1.0625-1.25-1.519531-.460938-.460938-.96875-.882813-1.519532-1.242188-.539062-.359375-1.121094-.667969-1.71875-.917969-.609375-.25-1.242187-.441406-1.871094-.570312-1.289062-.261719-2.621093-.261719-3.910156 0-.640625.128906-1.269531.320312-1.871094.570312-.609374.25-1.1875.558594-1.726562.917969-.550781.359375-1.0625.78125-1.523438 1.242188-.457031.457031-.878906.96875-1.238281 1.519531-.359375.539062-.671875 1.128906-.921875 1.730469-.25.597656-.4375 1.226562-.566406 1.867187-.132812.652344-.203125 1.300782-.203125 1.949219 0 .660156.070313 1.3125.203125 1.960937.128906.640626.320312 1.269532.570312 1.871094zm0 0"></path><path d="m131.101562 64.160156c.25.601563.558594 1.179688.917969 1.71875.359375.550782.78125 1.0625 1.242188 1.519532.457031.472656.96875.882812 1.519531 1.25.539062.363281 1.117188.671874 1.730469.921874.597656.25 1.226562.441407 1.867187.570313s1.300782.1875 1.949219.1875c.652344 0 1.3125-.058594 1.960937-.1875.632813-.128906 1.261719-.320313 1.871094-.570313.601563-.25 1.179688-.558593 1.71875-.921874.550782-.367188 1.0625-.777344 1.519532-1.25.460937-.457032.882812-.96875 1.25-1.519532.363281-.539062.671874-1.117187.921874-1.71875.238282-.609375.441407-1.238281.570313-1.871094.128906-.648437.1875-1.300781.1875-1.960937 0-.648437-.058594-1.308594-.1875-1.949219s-.332031-1.269531-.570313-1.867187c-.25-.601563-.558593-1.191407-.921874-1.730469-.367188-.550781-.789063-1.0625-1.25-1.519531-.457032-.460938-.96875-.882813-1.519532-1.242188-.539062-.359375-1.117187-.667969-1.71875-.917969-.609375-.25-1.238281-.441406-1.871094-.570312-1.289062-.261719-2.617187-.261719-3.910156 0-.640625.128906-1.269531.320312-1.867187.570312-.613281.25-1.191407.558594-1.730469.917969-.550781.359375-1.0625.78125-1.519531 1.242188-.460938.457031-.882813.96875-1.242188 1.519531-.359375.539062-.667969 1.128906-.917969 1.730469-.25.597656-.441406 1.226562-.570312 1.867187-.132812.640625-.199219 1.300782-.199219 1.949219 0 .660156.066407 1.3125.199219 1.960937.128906.632813.320312 1.261719.570312 1.871094zm0 0"></path><path d="m270 220h151.367188c5.523437 0 10-4.476562 10-10s-4.476563-10-10-10h-151.367188c-5.523438 0-10 4.476562-10 10s4.476562 10 10 10zm0 0"></path><path d="m421.367188 240h-20.367188c-5.523438 0-10 4.476562-10 10s4.476562 10 10 10h20.367188c5.523437 0 10-4.476562 10-10s-4.476563-10-10-10zm0 0"></path><path d="m370.570312 246.511719c-.25-.613281-.5625-1.191407-.921874-1.730469-.367188-.550781-.789063-1.0625-1.25-1.519531-.460938-.460938-.96875-.882813-1.519532-1.242188-.539062-.359375-1.121094-.667969-1.71875-.917969-.609375-.25-1.242187-.441406-1.871094-.570312-1.289062-.261719-2.621093-.261719-3.910156 0-.640625.128906-1.269531.320312-1.871094.570312-.609374.25-1.1875.558594-1.726562.917969-.550781.359375-1.0625.78125-1.523438 1.242188-.457031.457031-.878906.96875-1.238281 1.519531-.359375.539062-.671875 1.117188-.921875 1.730469-.25.597656-.4375 1.226562-.566406 1.867187-.132812.640625-.203125 1.300782-.203125 1.949219 0 .652344.070313 1.3125.203125 1.960937.128906.632813.316406 1.261719.566406 1.871094.25.601563.5625 1.179688.921875 1.71875.359375.550782.78125 1.0625 1.238281 1.519532.460938.472656.972657.882812 1.523438 1.25.539062.363281 1.117188.671874 1.726562.921874.601563.25 1.230469.441407 1.871094.570313s1.300782.1875 1.949219.1875 1.3125-.058594 1.960937-.1875c.628907-.128906 1.261719-.320313 1.871094-.570313.597656-.25 1.179688-.558593 1.71875-.921874.550782-.367188 1.058594-.777344 1.519532-1.25.460937-.457032.882812-.96875 1.25-1.519532.359374-.539062.671874-1.117187.921874-1.71875.25-.609375.4375-1.238281.570313-1.871094.128906-.648437.1875-1.308593.1875-1.960937 0-.648437-.058594-1.308594-.1875-1.949219s-.320313-1.269531-.570313-1.867187zm0 0"></path><path d="m321 240h-51c-5.523438 0-10 4.476562-10 10s4.476562 10 10 10h51c5.523438 0 10-4.476562 10-10s-4.476562-10-10-10zm0 0"></path><path d="m478.148438 0h-444.296876c-18.667968 0-33.851562 13.683594-33.851562 30.5v339c0 16.816406 15.183594 30.5 33.851562 30.5h209.238282l97.539062 97.539062.195313.199219c8.476562 8.476563 19.710937 13.1875 31.640625 13.261719h.289062c11.863282 0 22.988282-4.59375 31.351563-12.953125l.644531-.644531c17.359375-17.363282 17.222656-45.75-.316406-63.289063l-.148438-.144531c-.015625-.019531-.027344-.035156-.042968-.050781l-33.917969-33.917969h107.824219c18.667968 0 33.851562-13.683594 33.851562-30.5v-339c0-16.816406-15.183594-30.5-33.851562-30.5zm-444.296876 20h444.296876c7.507812 0 13.851562 4.808594 13.851562 10.5v69.5h-472v-69.5c0-5.691406 6.34375-10.5 13.851562-10.5zm417.519532 140v180h-141.050782l-40-40h151.046876c5.523437 0 10-4.476562 10-10s-4.476563-10-10-10h-151.367188c-5.417969 0-9.820312 4.3125-9.984375 9.691406l-20.015625-20.011718v-109.679688zm-231.371094 89.679688-26.183594-26.1875c-.003906 0-.003906-.003907-.007812-.003907 0-.003906 0-.003906-.003906-.003906l-.011719-.011719-2.121094-2.113281c-3.988281-4.003906-8.945313-7.09375-14.332031-8.9375l-52.375-18.753906c-7.042969-2.527344-14.710938-.8125-20.007813 4.472656-5.292969 5.289063-7.019531 12.949219-4.507812 19.996094l18.667969 52.367187c1.824218 5.4375 4.933593 10.457032 8.992187 14.515625l54.976563 54.980469h-122.457032v-180h159.371094zm-65.199219-1.316407c-.003906.003907-.007812.003907-.011719.007813 0 0-.003906.007812-.003906.007812l-16.433594 16.4375c-.09375-.242187-.207031-.476562-.289062-.722656-.023438-.070312-.046875-.140625-.074219-.210938l-5.253906-14.738281 23.160156-23.160156 14.773438 5.289063c.050781.019531.101562.035156.152343.054687.246094.082031.480469.195313.71875.289063zm-34.914062-35.273437 15.179687 5.4375-9.761718 9.761718zm94.417969 129.84375c-.003907-.003906-.003907-.003906-.003907-.007813l-62.890625-62.886719 10.453125-10.453124 196.285157 196.285156-10.449219 10.453125-93.394531-93.394531c-.003907 0-.003907 0-.003907-.003907zm176.300781 140.324218-.644531.648438c-4.617188 4.613281-10.765626 7.113281-17.371094 7.09375-3.273438-.019531-6.449219-.671875-9.394532-1.886719l32.605469-32.609375c3.691407 8.964844 1.976563 19.585938-5.195312 26.753906zm-18.3125-31.527343-196.289063-196.289063 10.738282-10.738281 112.363281 112.363281c.003906.003906.003906.003906.007812.007813l39.992188 39.992187c.003906.003906.003906.003906.007812.007813l43.914063 43.914062zm105.855469-71.730469h-127.824219l-20-20h131.046875c5.519531 0 10-4.476562 10-10v-200c0-5.523438-4.480469-10-10-10h-410.742188c-5.519531 0-10 4.476562-10 10v200c0 5.523438 4.480469 10 10 10h152.460938l20 20h-189.238282c-7.507812 0-13.851562-4.808594-13.851562-10.5v-249.5h472v249.5c0 5.691406-6.34375 10.5-13.851562 10.5zm0 0"></path></svg>