<!-- icon666.com - MILLIONS vector ICONS FREE --><svg id="Layer_1" viewBox="0 0 512 512" xmlns="http://www.w3.org/2000/svg" xmlns:xlink="http://www.w3.org/1999/xlink" data-name="Layer 1"><linearGradient id="linear-gradient" gradientUnits="userSpaceOnUse" x1="74.679" x2="74.679" y1="463.425" y2="99.992"><stop offset=".322" stop-color="#a163f5"></stop><stop offset=".466" stop-color="#b074ee"></stop><stop offset=".752" stop-color="#d8a1dd"></stop><stop offset=".898" stop-color="#efbad3"></stop></linearGradient><linearGradient id="linear-gradient-2" x1="256" x2="256" xlink:href="#linear-gradient" y1="463.425" y2="99.992"></linearGradient><path d="m74.679 94.137a5.39 5.39 0 1 0 5.391 5.39 5.4 5.4 0 0 0 -5.391-5.39z" fill="url(#linear-gradient)"></path><path d="m496.623 295.636c-1.909-.289-8.6-4.4-20.251-17.911a261.821 261.821 0 0 1 -27.659-39.19c-7.718-13.488-21.364-23.806-39.462-29.841a106.2 106.2 0 0 0 -23.585-4.978c-19.946-14.478-46.688-19.909-77.973-15.389-48.566 7.018-86.909-2.666-95.552-5.138a32.669 32.669 0 0 0 -9.62-10.277c-3.114-2.162-7.01-2.855-11.164-2.644-3.261-1.6-14.306-8-19.657-23.318-8.736-25-28.388-45.2-32.8-49.516-10.467-26.823-33.966-30.387-45.042-28.49-.607.1-15 2.5-26.539 5.193-10.866 2.535-15.848 13.025-17.8 18.8l-33.078 8.4a7.2 7.2 0 0 0 -5.441 7.17 23.909 23.909 0 0 0 7.538 17.051 38.112 38.112 0 0 0 32.4 27.584c23.936 2.7 26.622 7.084 26.636 7.084a191.669 191.669 0 0 1 4.7 21c1.975 10.7 4.018 21.765 9.353 34.01 3.338 7.662 2.957 13.515 2.476 20.925a89.425 89.425 0 0 0 .274 18.971c2.508 18.535 18.832 42.126 34.344 50.22 2.542 7.4 4.4 12.837 4.82 14.086 4.482 20.644 14.085 76.618 5.734 92.169a1.482 1.482 0 0 1 -.966.769c-9.154 1.629-19.394 13.579-20.074 14.637-1.284 2-1.369 4.508-.251 7.458.64 1.689 2.466 5.714 5.6 6.6 4.688 1.323 10.823 1.976 18.645 1.976l14.022-.031c3.63 0 8.436-.03 15.109-.09 8-.072 14.01-2.524 17.849-7.288 6.611-8.2 4.088-20.332 3.138-24.9-.03-.148-.059-.285-.086-.41a15.931 15.931 0 0 1 2.675-2.725 8.316 8.316 0 0 0 2.932-6.808c-1.6-27.26-2.185-62.174.974-76.953 3.2.188 6.626.3 10.272.3a176.932 176.932 0 0 0 66.058-12.752 154.189 154.189 0 0 1 29.947-9.09c16.918 30.14 36.737 51.376 58.946 63.144 1.626.862 3.39 1.764 5.229 2.7 9.222 4.716 23.157 11.842 25.129 18.008 2.707 8.463 1.158 20.7.331 26.612-7.837.678-16.888 4.561-18.72 13.684-.784 3.9.252 10.119 3.341 13.761a8.5 8.5 0 0 0 6.517 3.188h.279l36.231-.559 1.815.011c12-.413 18.048-1.181 21.684-6.416a11.768 11.768 0 0 0 1.957-8.141c-.849-7.045-3.327-31.147.412-45.5 4.5-17.265-5.928-27.31-12.223-30.306-21.7-12.019-18.894-37.884-18.492-40.861a147.416 147.416 0 0 0 4.9-26.721c9.212 10.715 21.822 17.861 37.228 20.913a93.916 93.916 0 0 0 18.182 1.72 102.236 102.236 0 0 0 18.961-1.745 5.15 5.15 0 0 0 -.2-10.149zm-474.681-182.452a13.59 13.59 0 0 1 -.749-2.734l1.408-.357a3.909 3.909 0 0 1 .952 1.729c-.003.009-.268.57-1.611 1.362zm75.372-3.8c.088-.212 8.679-21.275 3.078-30.677-.031-.052-.051-.094-.08-.143 7.575.25 22.164 3.458 29.538 23.214a8.186 8.186 0 0 1 -1.371 5.716c-1.461 2.334-5.064 5.308-7.7 7.48-1.46 1.206-2.722 2.248-3.63 3.165-1.946 1.968-3.747 4.12-5.488 6.2-4.9 5.856-8.364 9.658-11.755 9.046-.322-.057-.916-.606-1.517-1.7-3.179-5.808-2.922-17.828-1.075-22.3zm90.523 291.133c-4.15 3.658-5.952 6.878-5.659 10.088a19.984 19.984 0 0 0 .381 2.164c.686 3.3 2.509 12.067-1.134 16.586-1.87 2.322-5.286 3.521-10.153 3.564-1.243.012-2.4.021-3.521.031 4.546-8 2.415-18.18 1.559-22.231-.03-.143-.059-.277-.085-.4a16 16 0 0 1 2.675-2.719 8.315 8.315 0 0 0 2.932-6.807c-2.505-42.66-1.109-71.188 1.64-79.872 2.805.6 7.02 1.388 12.384 2.031-3.839 20.355-1.875 62.675-1.019 77.566zm214.612 32.517c-5.561.082-11.251.193-15.707.336a9.412 9.412 0 0 1 -.9-4.952c.505-2.512 3.65-5.526 10.854-5.752a8.074 8.074 0 0 0 7.75-6.979l.1-.73c.952-6.754 2.934-20.81-.6-31.85-3.24-10.129-17.51-17.425-30.1-23.864-1.794-.917-3.515-1.8-5.1-2.637-19.6-10.384-37.339-29.057-52.812-55.548 13.39-.542 18.742 3.495 19.8 4.445 16.473 28.425 35.648 48.558 57.126 59.939 5.418 2.871 21.9 11.608 24.808 20.683 2.757 8.618 1.818 20.574 1.068 26.636-11.743.947-15.623 7.89-16.786 13.688a12.175 12.175 0 0 0 .499 6.586zm28.925-71.715c.1.056.163.089.269.138 1.077.522 10.42 5.487 6.952 18.807-4.182 16.059-1.565 41.734-.663 49.221a1.826 1.826 0 0 1 -.242 1.24c-.975 1.4-6.229 1.866-13.816 2.127a34.381 34.381 0 0 1 -10.57-1.871 2.221 2.221 0 0 1 -1.543-2.563c.534-2.664 1.71-5.525 8.933-5.752a8.074 8.074 0 0 0 7.75-6.979c1.043-7.467 2.267-21.632-1.244-32.609-3.674-11.483-17.776-20.179-29.651-26.472-28.128-14.906-47.908-45.125-59.549-67.853a277.891 277.891 0 0 1 -18.886-46.838 5 5 0 0 0 -9.641 2.655 281.761 281.761 0 0 0 18.862 47.23c-10.935-2.015-28.765-1.017-56.9 10.311a167.606 167.606 0 0 1 -89.616 9.629c6.49-14.311 8.486-39.355 8.724-42.656a5 5 0 1 0 -9.974-.72c-.975 13.506-4.643 37.234-10.337 43.409-3.045 3.3-6.558 11.449-6.692 45.4-.072 18.242.883 36.853 1.254 43.34-4.151 3.658-5.953 6.878-5.66 10.088a19.661 19.661 0 0 0 .388 2.181c.736 3.484 2.46 11.641-1.091 16.192-1.9 2.43-5.376 3.757-10.347 3.945-8.75.331-15.581-.046-20.341-1.118-.068-.128-.135-.26-.2-.391 2.772-3 8.955-8.565 12.517-9.2a11.5 11.5 0 0 0 8.022-5.882c11.638-21.669-3.113-91.426-4.834-99.308a5.111 5.111 0 0 0 -.151-.545c-.766-2.249-18.81-55.243-24.85-70.9-3.42-8.862 13.436-33.189 26.5-47.633a5 5 0 0 0 -7.416-6.71c-5.943 6.568-35.246 40.229-28.41 57.944 2.873 7.444 8.662 23.933 13.916 39.1-9.081-9.36-17.048-23.392-18.55-34.494a80.039 80.039 0 0 1 -.206-16.982c.525-8.065 1.02-15.683-3.286-25.568-4.877-11.194-6.728-21.218-8.687-31.832a202.6 202.6 0 0 0 -4.96-22.055c-1.474-4.909-6.794-10.954-35.093-14.145a28.088 28.088 0 0 1 -17.374-8.762c9.885 3.028 19.735 3.151 22.815 2.672a5 5 0 1 0 -1.53-9.882c-3.63.56-18.318-.518-27.42-6.455a11.267 11.267 0 0 0 4.86-7.28 10.638 10.638 0 0 0 -.769-5.956l20.842-5.3a7.229 7.229 0 0 0 5.136-4.938c.8-2.738 3.974-11.8 10.971-13.433 6.908-1.611 15.067-3.148 20.364-4.1a19.1 19.1 0 0 0 1.847 4.05c1.367 2.3-.114 12.991-3.729 21.74-3.06 7.408-3.049 22.531 1.553 30.925 2.622 4.783 6.088 6.306 8.534 6.741a14.733 14.733 0 0 0 2.6.234c7.941 0 13.561-6.716 18.575-12.708 1.61-1.924 3.275-3.913 4.929-5.585.553-.559 1.687-1.5 2.888-2.486 3.333-2.752 7.482-6.177 9.8-9.884.379-.606.7-1.2.992-1.793 7.264 8.221 18.554 22.758 24.312 39.238a52.265 52.265 0 0 0 15.746 23.042 98.4 98.4 0 0 0 -16.733 8.158 5 5 0 0 0 5.237 8.52c15.587-9.565 27.3-10.93 30.31-8.842 7.872 5.464 11.169 14.2 9.045 23.975a5 5 0 1 0 9.771 2.124 35.356 35.356 0 0 0 .506-12.632c15.63 3.752 50.2 9.813 92.982 3.632 40.868-5.9 71.8 5.778 89.457 33.785a16.137 16.137 0 0 0 1.392 2.019c6.543 7.508 20.405 29.869 7.862 75.231a4.943 4.943 0 0 0 -.119.55c-.221 1.457-5.274 35.642 23.667 51.52zm-8.849-94.384c-1.781-21.222-10.036-33.723-14.911-39.359-.14-.2-.328-.51-.574-.9a85.964 85.964 0 0 0 -7.773-10.484c2.236.564 4.613 1.244 7.067 2.07 15.827 5.328 27.165 13.82 33.7 25.238a272.212 272.212 0 0 0 28.766 40.757 139.176 139.176 0 0 0 12.746 13.2c-17.397.687-45.478-2.957-59.021-30.521z" fill="url(#linear-gradient-2)"></path></svg>