<!-- icon666.com - MILLIONS vector ICONS FREE --><svg version="1.1" id="Capa_1" xmlns="http://www.w3.org/2000/svg" xmlns:xlink="http://www.w3.org/1999/xlink" x="0px" y="0px" viewBox="0 0 512 512" style="enable-background:new 0 0 512 512;" xml:space="preserve"><path style="fill:#6D7C8A;" d="M470.804,382.13H41.196C18.444,382.13,0,363.685,0,340.933V88.696C0,65.944,18.444,47.5,41.196,47.5 h429.608C493.556,47.5,512,65.944,512,88.696v252.237C512,363.685,493.556,382.13,470.804,382.13z"></path><path style="fill:#5A6570;" d="M470.793,47.5h-30.905c22.758,0,41.207,18.439,41.207,41.185v252.259 c0,22.746-18.449,41.185-41.207,41.185h30.905c22.758,0,41.207-18.439,41.207-41.185V88.685C512,65.939,493.551,47.5,470.793,47.5z"></path><path style="fill:#40C7E3;" d="M41.207,351.292c-5.681,0-10.302-4.621-10.302-10.302V88.596c0-5.681,4.621-10.302,10.302-10.302 h429.586c5.681,0,10.302,4.621,10.302,10.302V340.99c0,5.681-4.621,10.302-10.302,10.302H41.207z"></path><path style="fill:#E0F3FC;" d="M299.04,275.949H58.766c-2.209,0-4-1.791-4-4V131.603c0-2.209,1.791-4,4-4H299.04 c2.209,0,4,1.791,4,4v140.346C303.04,274.159,301.249,275.949,299.04,275.949z"></path><path style="fill:#FAC55A;" d="M112.689,275.949H81.784v-57.811c0-2.209,1.791-4,4-4h22.905c2.209,0,4,1.791,4,4 C112.689,218.138,112.689,275.949,112.689,275.949z"></path><path style="fill:#C8DA52;" d="M222.771,275.949h-30.905v-72.233c0-2.209,1.791-4,4-4h22.905c2.209,0,4,1.791,4,4V275.949z"></path><path style="fill:#E53366;" d="M167.549,275.949h-30.905v-32.056c0-2.209,1.791-4,4-4h22.905c2.209,0,4,1.791,4,4V275.949z"></path><path style="fill:#E97424;" d="M277.034,275.949h-30.905V228.44c0-2.209,1.791-4,4-4h22.905c2.209,0,4,1.791,4,4V275.949z"></path><path style="fill:#ABBFCF;" d="M345.282,441.134H166.718c0,0,17.636-19.1,17.636-68.528h143.292 C327.646,422.034,345.282,441.134,345.282,441.134z"></path><path style="fill:#7C8D9C;" d="M327.646,372.606h-30.905c0,49.428,17.636,68.528,17.636,68.528h30.905 C345.282,441.134,327.646,422.034,327.646,372.606z"></path><circle style="fill:#FAC55A;" cx="394.04" cy="201.78" r="64.03"></circle><g><path style="fill:#A64C3C;" d="M277.034,170.95h-27.816l-21.163-21.002c-1.405-1.395-3.304-2.177-5.283-2.177h-30.905 c-2.561,0-4.945,1.307-6.323,3.466l-22.105,34.65H139.82l-22.757-23.475c-1.413-1.458-3.355-2.28-5.385-2.28H80.772 c-4.142,0-7.5,3.358-7.5,7.5s3.358,7.5,7.5,7.5h27.73l22.757,23.475c1.413,1.458,3.355,2.28,5.385,2.28h30.905 c2.561,0,4.945-1.307,6.323-3.466l22.105-34.65h23.704l21.163,21.002c1.405,1.395,3.304,2.177,5.283,2.177h30.906 c4.142,0,7.5-3.358,7.5-7.5S281.176,170.95,277.034,170.95z"></path><path style="fill:#A64C3C;" d="M417.196,216.457c0-12.435-10.386-22.551-23.151-22.551c-4.495,0-8.152-3.387-8.152-7.551 s3.657-7.551,8.152-7.551c3.682,0,6.92,2.297,7.874,5.587c1.154,3.978,5.313,6.268,9.293,5.113 c3.978-1.154,6.267-5.314,5.113-9.293c-2.096-7.226-7.752-12.82-14.785-15.181v-0.249c0-4.142-3.358-7.5-7.5-7.5 s-7.5,3.358-7.5,7.5v0.246c-9.092,3.044-15.647,11.452-15.647,21.328c0,12.435,10.386,22.551,23.152,22.551 c4.495,0,8.151,3.387,8.151,7.551s-3.657,7.551-8.151,7.551c-3.332,0-6.297-1.85-7.557-4.712c-1.668-3.792-6.094-5.513-9.885-3.846 c-3.792,1.667-5.513,6.093-3.846,9.885c2.628,5.975,7.695,10.415,13.782,12.445v0.991c0,4.142,3.358,7.5,7.5,7.5s7.5-3.358,7.5-7.5 v-0.983C410.637,234.747,417.196,226.337,417.196,216.457z"></path></g><path style="fill:#E0F3FC;" d="M470.793,382.197H41.207C18.449,382.197,0,363.748,0,340.99v-10.302h512v10.302 C512,363.748,493.551,382.197,470.793,382.197z"></path><path style="fill:#ABBFCF;" d="M481.095,330.688v10.302c0,22.758-18.449,41.207-41.207,41.207h30.905 c22.758,0,41.207-18.449,41.207-41.207v-10.302H481.095z"></path><path style="fill:#6D7C8A;" d="M378.6,464.5H133.4c-8.53,0-15.444-6.915-15.444-15.444l0,0c0-8.53,6.915-15.444,15.444-15.444h245.2 c8.53,0,15.444,6.915,15.444,15.444l0,0C394.044,457.585,387.13,464.5,378.6,464.5z"></path><path style="fill:#5A6570;" d="M378.592,433.611h-30.905c8.534,0,15.453,6.915,15.453,15.444c0,8.53-6.918,15.444-15.453,15.444 h30.905c8.534,0,15.453-6.915,15.453-15.444C394.044,440.526,387.126,433.611,378.592,433.611z"></path></svg>