<svg width="24" height="24" viewBox="0 0 24 24" fill="none" xmlns="http://www.w3.org/2000/svg">
<path d="M9.479 3.49999C9.19775 3.21909 8.8165 3.06131 8.419 3.06131C8.0215 3.06131 7.64025 3.21909 7.359 3.49999L3.5 7.34999C3.22008 7.63201 3.06208 8.01265 3.06 8.40999C3.06035 8.80768 3.21861 9.18896 3.5 9.46999L14.519 20.5C14.8018 20.7817 15.1848 20.9399 15.584 20.9399C15.9832 20.9399 16.3662 20.7817 16.649 20.5L20.499 16.64C20.6392 16.5013 20.7504 16.3363 20.8264 16.1543C20.9023 15.9724 20.9414 15.7772 20.9414 15.58C20.9414 15.3828 20.9023 15.1876 20.8264 15.0057C20.7504 14.8237 20.6392 14.6586 20.499 14.52L9.479 3.49999ZM8.359 7.07999C8.31213 7.12647 8.27494 7.18177 8.24955 7.2427C8.22417 7.30363 8.2111 7.36898 8.2111 7.43499C8.2111 7.501 8.22417 7.56635 8.24955 7.62728C8.27494 7.68821 8.31213 7.74351 8.359 7.78999C8.45574 7.8791 8.58247 7.92857 8.714 7.92857C8.84553 7.92857 8.97225 7.8791 9.069 7.78999C9.619 7.22999 10.159 6.68999 10.719 6.14999L11.969 7.39999L11.069 8.29999C11.0216 8.34511 10.9838 8.3994 10.958 8.45957C10.9322 8.51973 10.9188 8.58452 10.9188 8.64999C10.9188 8.71546 10.9322 8.78025 10.958 8.84041C10.9838 8.90058 11.0216 8.95487 11.069 8.99999C11.1155 9.04685 11.1708 9.08405 11.2317 9.10944C11.2926 9.13482 11.358 9.14789 11.424 9.14789C11.49 9.14789 11.5554 9.13482 11.6163 9.10944C11.6772 9.08405 11.7325 9.04685 11.779 8.99999C12.069 8.69999 12.379 8.39999 12.679 8.10999L13.929 9.35999L12.289 11.01C12.1977 11.1031 12.1469 11.2285 12.1475 11.359C12.1482 11.4894 12.2003 11.6143 12.2925 11.7065C12.3847 11.7987 12.5096 11.8508 12.64 11.8514C12.7704 11.8521 12.8959 11.8013 12.989 11.71C13.549 11.16 14.089 10.62 14.639 10.07L15.889 11.32L14.989 12.22C14.8982 12.3178 14.8481 12.4465 14.849 12.58C14.8482 12.7105 14.8985 12.8361 14.989 12.93C15.0845 13.0215 15.2117 13.0727 15.344 13.0727C15.4763 13.0727 15.6035 13.0215 15.699 12.93L16.599 12.03L17.859 13.29L16.209 14.93C16.1624 14.9766 16.1254 15.032 16.1002 15.0929C16.0749 15.1538 16.062 15.2191 16.062 15.285C16.062 15.3509 16.0749 15.4162 16.1002 15.4771C16.1254 15.538 16.1624 15.5934 16.209 15.64C16.2556 15.6866 16.311 15.7236 16.3719 15.7488C16.4328 15.774 16.4981 15.787 16.564 15.787C16.6299 15.787 16.6952 15.774 16.7561 15.7488C16.817 15.7236 16.8724 15.6866 16.919 15.64C17.469 15.08 18.009 14.54 18.569 14L19.799 15.23C19.8906 15.3235 19.9419 15.4491 19.9419 15.58C19.9419 15.7109 19.8906 15.8365 19.799 15.93L15.939 19.79C15.8925 19.8369 15.8372 19.8741 15.7763 19.8994C15.7154 19.9248 15.65 19.9379 15.584 19.9379C15.518 19.9379 15.4526 19.9248 15.3917 19.8994C15.3308 19.8741 15.2755 19.8369 15.229 19.79L4.209 8.76999C4.16073 8.72341 4.12252 8.66744 4.09672 8.60552C4.07092 8.54361 4.05808 8.47706 4.059 8.40999C4.05909 8.34455 4.07243 8.2798 4.09821 8.21965C4.12399 8.1595 4.16168 8.10519 4.209 8.05999L8.069 4.19999C8.16342 4.11023 8.28872 4.06018 8.419 4.06018C8.54928 4.06018 8.67457 4.11023 8.769 4.19999L10.009 5.43999L8.359 7.07999Z" fill="white"/>
<path d="M18.939 12.96L18.899 12.92C18.909 12.92 18.909 12.92 18.919 12.93C18.929 12.94 18.939 12.95 18.939 12.96Z" fill="white"/>
</svg>
