<!-- icon666.com - MILLIONS vector ICONS FREE --><svg version="1.1" id="Capa_1" xmlns="http://www.w3.org/2000/svg" xmlns:xlink="http://www.w3.org/1999/xlink" x="0px" y="0px" viewBox="0 0 512 512" style="enable-background:new 0 0 512 512;" xml:space="preserve"><rect x="40.078" y="119.233" style="fill:#34495E;" width="176.344" height="128.25"></rect><rect x="40.078" y="119.233" style="fill:#2C3E50;" width="16.031" height="128.25"></rect><polyline style="fill:#34495E;" points="416.814,143.28 416.814,47.092 384.751,15.029 272.532,15.029 272.532,143.28 "></polyline><g><rect x="296.579" y="207.405" style="fill:#E74C3C;" width="64.125" height="72.141"></rect><path style="fill:#E74C3C;" d="M328.642,175.342c-17.705,0-32.063,14.358-32.063,32.063v72.141h-32.063v-72.141 c0-17.705,14.358-32.063,32.063-32.063H328.642z"></path></g><path style="fill:#C0392B;" d="M280.548,179.631v99.915h-16.031v-72.141C264.517,195.542,270.969,185.172,280.548,179.631z"></path><path style="fill:#FFE166;" d="M360.704,207.405c0-14.94,10.218-27.493,24.047-31.053v-65.135c0,22.134-17.944,40.078-40.078,40.078 l0,0c-2.745,0-5.426-0.278-8.016-0.804v24.851h-8.016c-17.708,0-32.063,14.355-32.063,32.063H360.704L360.704,207.405z"></path><path style="fill:#E74C3C;" d="M360.704,279.546v-72.141c0-17.708,14.355-32.063,32.063-32.063l0,0 c17.708,0,32.063,14.355,32.063,32.063v72.141"></path><rect x="24.047" y="311.609" style="fill:#D35400;" width="464.908" height="184.36"></rect><circle style="fill:#FFE166;" cx="256.501" cy="403.789" r="64.125"></circle><rect x="8.016" y="279.546" style="fill:#E67E22;" width="496.971" height="32.063"></rect><rect x="8.016" y="279.546" style="fill:#D35400;" width="24.047" height="32.063"></rect><path style="fill:#FFE166;" d="M384.751,111.217L384.751,111.217c0,22.135-17.944,40.078-40.078,40.078l0,0 c-22.134,0-40.078-17.944-40.078-40.078V63.123h32.063c8.853,0,16.031,7.177,16.031,16.031l0,0c0,8.854,7.177,16.031,16.031,16.031 l0,0C377.574,95.186,384.751,102.363,384.751,111.217z"></path><path style="fill:#F39C12;" d="M320.626,111.217V63.123h-16.031v48.094c0,22.134,17.944,40.078,40.078,40.078l0,0 c2.745,0,5.426-0.278,8.016-0.804C334.395,146.779,320.626,130.607,320.626,111.217z"></path><rect x="104.204" y="207.405" style="fill:#34495E;" width="48.094" height="72.141"></rect><g><rect x="384.751" y="231.953" style="fill:#FFFFFF;" width="16.031" height="15.029"></rect><rect x="296.579" y="31.562" style="fill:#FFFFFF;" width="16.031" height="15.029"></rect></g><path d="M431.843,272.532v-65.127c0-21.823-17.755-39.577-39.577-39.577c-0.168,0,0.501,0.011-0.501,0.013v-16.545h32.063V43.98 L387.864,8.016H264.517v143.28h32.063v-15.029h-17.033V23.045h102.093l27.159,27.159v86.062h-17.033v-25.049 c0-12.983-10.312-23.546-23.296-23.546c-4.696,0-8.391-3.57-8.391-8.266c0-12.983-10.437-23.296-23.421-23.296h-40.078v55.108 c0,20.806,14.027,38.523,32.063,44.977v12.135h-32.063c-21.823,0-40.078,17.254-40.078,39.076v48.094h15.029v-48.094 c0-13.536,11.513-24.047,25.049-24.047h1.053c-5.356,6.012-9.069,14.779-9.069,24.047v65.127H159.311v-17.033h64.125v-143.28H32.063 v143.28h64.125v17.033H0v47.092h432.845v-15.029H15.029v-17.033h81.659h63.123h337.159v17.033h-48.094v15.029h32.063v169.331H31.061 V335.656H16.031v168.329h479.937v-184.36H512v-47.092H431.843z M96.188,200.391v40.078H47.092V127.249h161.315V240.47h-49.096 v-40.078H96.188z M144.282,272.532h-33.065v-57.112h33.065V272.532z M311.609,111.217V71.139h25.049c4.696,0,8.517,3.57,8.517,8.266 c0,12.983,10.563,23.421,23.546,23.421c4.696,0,8.517,3.758,8.517,8.455c0,17.956-14.859,32.533-32.814,32.533 C326.468,143.812,311.609,129.173,311.609,111.217z M352.689,272.532h-49.096v-57.112h49.096V272.532z M353.914,200.391h-48.64 c3.182-10.02,12.451-17.033,23.367-17.033h8.016h7.014v-24.561c1.002,0.002,0.333,0.013,0.501,0.013 c12.589,0,24.548-4.923,32.564-12.931v25.128C365.714,176.103,356.428,187.366,353.914,200.391z M416.814,272.532h-49.096v-65.127 c0-13.536,11.013-24.548,24.548-24.548s24.548,11.012,24.548,24.548V272.532z"></path><path d="M328.141,403.789c0-39.502-32.138-71.64-71.64-71.64s-71.64,32.138-71.64,71.64s32.138,71.64,71.64,71.64 S328.141,443.291,328.141,403.789z M199.89,403.789c0-31.215,25.396-56.611,56.611-56.611s56.611,25.396,56.611,56.611 s-25.396,56.611-56.611,56.611S199.89,435.004,199.89,403.789z"></path><rect x="248.485" y="395.773" width="15.029" height="48.094"></rect><rect x="248.485" y="363.71" width="15.029" height="16.031"></rect></svg>