<!-- icon666.com - MILLIONS vector ICONS FREE --><svg xmlns="http://www.w3.org/2000/svg" version="1.1" viewBox="1 -57 511.99901 511"><g id="surface1"><path d="M 504.425781 45.425781 L 504.425781 200.3125 C 504.425781 224.4375 487.007812 244.230469 465.457031 244.988281 C 465.042969 244.996094 464.621094 245.007812 464.195312 245.007812 L 47.804688 245.007812 C 47.378906 245.007812 46.957031 244.996094 46.542969 244.988281 C 46.332031 244.976562 46.109375 244.96875 45.894531 244.945312 C 42.269531 244.765625 38.777344 244.039062 35.464844 242.847656 C 19.328125 237.03125 7.574219 220.125 7.574219 200.3125 L 7.574219 45.425781 C 7.574219 24.796875 22.628906 8.074219 41.199219 8.074219 L 470.800781 8.074219 C 482.96875 8.074219 493.621094 15.253906 499.527344 25.996094 C 502.628906 31.664062 504.425781 38.316406 504.425781 45.425781 Z M 504.425781 45.425781 " style=" stroke:none;fill-rule:nonzero;fill:rgb(14.117647%,46.27451%,92.941176%);fill-opacity:1;"></path><path d="M 504.425781 45.425781 L 504.425781 200.3125 C 504.425781 224.4375 487.007812 244.230469 465.457031 244.988281 C 465.042969 244.996094 464.621094 245.007812 464.195312 245.007812 L 47.804688 245.007812 C 47.378906 245.007812 46.957031 244.996094 46.542969 244.988281 C 46.332031 244.976562 46.109375 244.96875 45.894531 244.945312 C 40.855469 237.484375 37.867188 228.234375 37.867188 218.238281 L 37.867188 63.351562 C 37.867188 42.71875 52.925781 25.996094 71.496094 25.996094 L 499.527344 25.996094 C 502.628906 31.664062 504.425781 38.316406 504.425781 45.425781 Z M 504.425781 45.425781 " style=" stroke:none;fill-rule:nonzero;fill:rgb(33.333333%,58.823529%,98.431373%);fill-opacity:1;"></path><path d="M 465.457031 216.078125 L 465.457031 244.988281 C 465.042969 244.996094 464.621094 245.007812 464.195312 245.007812 L 47.804688 245.007812 C 47.378906 245.007812 46.957031 244.996094 46.542969 244.988281 L 46.542969 216.078125 C 46.542969 213.460938 46.894531 210.917969 47.574219 208.503906 C 50.25 198.777344 57.964844 191.101562 67.699219 188.457031 C 70.070312 187.800781 72.574219 187.457031 75.160156 187.457031 L 436.839844 187.457031 C 439.425781 187.457031 441.929688 187.800781 444.300781 188.457031 C 454.035156 191.101562 461.75 198.777344 464.425781 208.503906 C 465.105469 210.917969 465.457031 213.460938 465.457031 216.078125 Z M 465.457031 216.078125 " style=" stroke:none;fill-rule:nonzero;fill:rgb(29.411765%,31.372549%,33.333333%);fill-opacity:1;"></path><path d="M 465.457031 68.722656 C 465.457031 74.246094 462.40625 79.042969 457.894531 81.546875 C 455.792969 82.710938 453.378906 83.367188 450.816406 83.367188 C 442.726562 83.367188 436.171875 76.8125 436.171875 68.722656 C 436.171875 60.632812 442.726562 54.082031 450.816406 54.082031 C 453.378906 54.082031 455.792969 54.738281 457.894531 55.898438 C 462.40625 58.402344 465.457031 63.199219 465.457031 68.722656 Z M 465.457031 68.722656 " style=" stroke:none;fill-rule:nonzero;fill:rgb(83.921569%,18.823529%,18.823529%);fill-opacity:1;"></path><path d="M 407.886719 68.722656 C 407.886719 74.246094 404.835938 79.042969 400.324219 81.546875 C 398.234375 82.710938 395.820312 83.367188 393.246094 83.367188 C 385.167969 83.367188 378.601562 76.8125 378.601562 68.722656 C 378.601562 60.632812 385.167969 54.082031 393.246094 54.082031 C 395.820312 54.082031 398.234375 54.738281 400.324219 55.898438 C 404.835938 58.402344 407.886719 63.199219 407.886719 68.722656 Z M 407.886719 68.722656 " style=" stroke:none;fill-rule:nonzero;fill:rgb(83.921569%,18.823529%,18.823529%);fill-opacity:1;"></path><path d="M 465.457031 68.722656 C 465.457031 74.246094 462.40625 79.042969 457.894531 81.546875 C 453.378906 79.054688 450.320312 74.246094 450.320312 68.722656 C 450.320312 63.199219 453.378906 58.394531 457.894531 55.898438 C 462.40625 58.402344 465.457031 63.199219 465.457031 68.722656 Z M 465.457031 68.722656 " style=" stroke:none;fill-rule:nonzero;fill:rgb(98.431373%,34.509804%,34.509804%);fill-opacity:1;"></path><path d="M 407.886719 68.722656 C 407.886719 74.246094 404.835938 79.042969 400.324219 81.546875 C 395.808594 79.054688 392.75 74.246094 392.75 68.722656 C 392.75 63.199219 395.808594 58.394531 400.324219 55.898438 C 404.835938 58.402344 407.886719 63.199219 407.886719 68.722656 Z M 407.886719 68.722656 " style=" stroke:none;fill-rule:nonzero;fill:rgb(98.431373%,34.509804%,34.509804%);fill-opacity:1;"></path><path d="M 322.273438 68.722656 C 322.273438 73.144531 320.46875 77.175781 317.539062 80.09375 C 314.628906 83.011719 310.601562 84.820312 306.179688 84.820312 L 205.820312 84.820312 C 196.976562 84.820312 189.726562 77.578125 189.726562 68.722656 C 189.726562 64.300781 191.53125 60.269531 194.460938 57.351562 C 197.371094 54.433594 201.398438 52.625 205.820312 52.625 L 306.179688 52.625 C 315.023438 52.625 322.273438 59.867188 322.273438 68.722656 Z M 322.273438 68.722656 " style=" stroke:none;fill-rule:nonzero;fill:rgb(47.843137%,95.686275%,67.058824%);fill-opacity:1;"></path><path d="M 322.273438 68.722656 L 222.949219 68.722656 C 214.09375 68.722656 206.851562 61.484375 206.851562 52.625 L 306.179688 52.625 C 315.023438 52.625 322.273438 59.867188 322.273438 68.722656 Z M 322.273438 68.722656 " style=" stroke:none;fill-rule:nonzero;fill:rgb(63.137255%,100%,73.72549%);fill-opacity:1;"></path><path d="M 470.800781 0.5 L 99.988281 0.5 C 95.804688 0.5 92.414062 3.890625 92.414062 8.074219 C 92.414062 12.253906 95.804688 15.648438 99.988281 15.648438 L 470.800781 15.648438 C 485.164062 15.648438 496.851562 29.003906 496.851562 45.425781 L 496.851562 200.316406 C 496.851562 217.097656 486.699219 231.585938 473.035156 236.03125 L 473.035156 216.074219 C 473.035156 196.226562 456.84375 179.882812 436.84375 179.882812 C 55.082031 180.328125 74.289062 178.792969 65.714844 181.148438 C 49.964844 185.425781 38.964844 199.785156 38.964844 216.074219 L 38.964844 236.011719 C 24.332031 231.277344 15.148438 215.933594 15.148438 200.316406 L 15.148438 45.425781 C 15.148438 29.007812 26.835938 15.648438 41.199219 15.648438 L 69.691406 15.648438 C 73.875 15.648438 77.265625 12.253906 77.265625 8.074219 C 77.265625 3.890625 73.875 0.5 69.691406 0.5 L 41.199219 0.5 C 18.484375 0.5 0 20.65625 0 45.425781 L 0 200.316406 C 0 222.929688 13.222656 242.882812 32.890625 249.964844 C 46.269531 254.804688 16.550781 251.960938 464.195312 252.582031 C 490.261719 252.582031 512 229.359375 512 200.320312 L 512 45.425781 C 512 20.65625 493.515625 0.5 470.800781 0.5 Z M 457.886719 237.433594 C 451.65625 237.433594 62.800781 237.433594 54.113281 237.433594 L 54.113281 223.648438 L 359.585938 223.648438 C 363.769531 223.648438 367.15625 220.257812 367.15625 216.074219 C 367.15625 211.894531 363.769531 208.5 359.585938 208.5 L 55.554688 208.5 C 57.929688 202.398438 63.085938 197.558594 69.703125 195.757812 C 74.71875 194.382812 52.632812 195.289062 436.84375 195.03125 C 445.527344 195.03125 453.300781 200.421875 456.445312 208.5 L 389.878906 208.5 C 385.695312 208.5 382.304688 211.894531 382.304688 216.074219 C 382.304688 220.257812 385.695312 223.648438 389.878906 223.648438 L 457.886719 223.648438 Z M 457.886719 237.433594 " style=" stroke:none;fill-rule:nonzero;fill:rgb(0%,0%,0%);fill-opacity:1;"></path><path d="M 99.539062 262.929688 C 95.355469 262.929688 91.964844 266.320312 91.964844 270.503906 L 91.964844 298.902344 C 91.964844 305.320312 86.746094 310.542969 80.328125 310.542969 C 65.558594 310.542969 53.542969 322.558594 53.542969 337.324219 L 53.542969 389.015625 C 53.542969 393.199219 56.933594 396.589844 61.117188 396.589844 C 65.300781 396.589844 68.691406 393.199219 68.691406 389.015625 L 68.691406 337.324219 C 68.691406 330.910156 73.910156 325.6875 80.328125 325.6875 C 95.097656 325.6875 107.113281 313.671875 107.113281 298.902344 L 107.113281 270.5 C 107.113281 266.320312 103.722656 262.929688 99.539062 262.929688 Z M 99.539062 262.929688 " style=" stroke:none;fill-rule:nonzero;fill:rgb(0%,0%,0%);fill-opacity:1;"></path><path d="M 162.125 262.929688 C 157.941406 262.929688 154.550781 266.320312 154.550781 270.503906 L 154.550781 298.902344 C 154.550781 305.320312 149.328125 310.542969 142.914062 310.542969 C 128.144531 310.542969 116.128906 322.558594 116.128906 337.324219 L 116.128906 389.015625 C 116.128906 393.199219 119.515625 396.589844 123.703125 396.589844 C 127.886719 396.589844 131.273438 393.199219 131.273438 389.015625 L 131.273438 337.324219 C 131.273438 330.910156 136.496094 325.6875 142.914062 325.6875 C 157.683594 325.6875 169.699219 313.671875 169.699219 298.902344 L 169.699219 270.5 C 169.699219 266.320312 166.304688 262.929688 162.125 262.929688 Z M 162.125 262.929688 " style=" stroke:none;fill-rule:nonzero;fill:rgb(0%,0%,0%);fill-opacity:1;"></path><path d="M 224.707031 262.929688 C 220.523438 262.929688 217.132812 266.320312 217.132812 270.503906 L 217.132812 298.902344 C 217.132812 305.320312 211.914062 310.542969 205.496094 310.542969 C 190.726562 310.542969 178.710938 322.558594 178.710938 337.324219 L 178.710938 389.015625 C 178.710938 393.199219 182.101562 396.589844 186.285156 396.589844 C 190.46875 396.589844 193.859375 393.199219 193.859375 389.015625 L 193.859375 337.324219 C 193.859375 330.910156 199.078125 325.6875 205.496094 325.6875 C 220.265625 325.6875 232.28125 313.671875 232.28125 298.902344 L 232.28125 270.5 C 232.28125 266.320312 228.890625 262.929688 224.707031 262.929688 Z M 224.707031 262.929688 " style=" stroke:none;fill-rule:nonzero;fill:rgb(0%,0%,0%);fill-opacity:1;"></path><path d="M 287.292969 262.929688 C 283.109375 262.929688 279.71875 266.320312 279.71875 270.503906 L 279.71875 298.902344 C 279.71875 305.320312 274.496094 310.542969 268.082031 310.542969 C 253.3125 310.542969 241.296875 322.558594 241.296875 337.324219 L 241.296875 389.015625 C 241.296875 393.199219 244.6875 396.589844 248.871094 396.589844 C 253.054688 396.589844 256.441406 393.199219 256.441406 389.015625 L 256.441406 337.324219 C 256.441406 330.910156 261.664062 325.6875 268.082031 325.6875 C 282.851562 325.6875 294.863281 313.671875 294.863281 298.902344 L 294.863281 270.5 C 294.863281 266.320312 291.476562 262.929688 287.292969 262.929688 Z M 287.292969 262.929688 " style=" stroke:none;fill-rule:nonzero;fill:rgb(0%,0%,0%);fill-opacity:1;"></path><path d="M 349.875 262.929688 C 345.691406 262.929688 342.300781 266.320312 342.300781 270.503906 L 342.300781 298.902344 C 342.300781 305.320312 337.082031 310.542969 330.664062 310.542969 C 315.894531 310.542969 303.878906 322.558594 303.878906 337.324219 L 303.878906 389.015625 C 303.878906 393.199219 307.269531 396.589844 311.453125 396.589844 C 315.636719 396.589844 319.027344 393.199219 319.027344 389.015625 L 319.027344 337.324219 C 319.027344 330.910156 324.25 325.6875 330.664062 325.6875 C 345.433594 325.6875 357.449219 313.671875 357.449219 298.902344 L 357.449219 270.5 C 357.449219 266.320312 354.058594 262.929688 349.875 262.929688 Z M 349.875 262.929688 " style=" stroke:none;fill-rule:nonzero;fill:rgb(0%,0%,0%);fill-opacity:1;"></path><path d="M 412.460938 262.929688 C 408.277344 262.929688 404.886719 266.320312 404.886719 270.503906 L 404.886719 298.902344 C 404.886719 305.320312 399.664062 310.542969 393.246094 310.542969 C 378.476562 310.542969 366.464844 322.558594 366.464844 337.324219 L 366.464844 389.015625 C 366.464844 393.199219 369.851562 396.589844 374.035156 396.589844 C 378.222656 396.589844 381.609375 393.199219 381.609375 389.015625 L 381.609375 337.324219 C 381.609375 330.910156 386.832031 325.6875 393.25 325.6875 C 408.019531 325.6875 420.035156 313.671875 420.035156 298.902344 L 420.035156 270.5 C 420.035156 266.320312 416.644531 262.929688 412.460938 262.929688 Z M 412.460938 262.929688 " style=" stroke:none;fill-rule:nonzero;fill:rgb(0%,0%,0%);fill-opacity:1;"></path><path d="M 473.035156 68.722656 C 473.035156 56.472656 463.066406 46.507812 450.816406 46.507812 C 438.566406 46.507812 428.601562 56.472656 428.601562 68.722656 C 428.601562 80.972656 438.566406 90.941406 450.816406 90.941406 C 463.066406 90.941406 473.035156 80.972656 473.035156 68.722656 Z M 443.75 68.722656 C 443.75 64.828125 446.921875 61.65625 450.816406 61.65625 C 454.714844 61.65625 457.886719 64.828125 457.886719 68.722656 C 457.886719 72.621094 454.714844 75.792969 450.816406 75.792969 C 446.921875 75.792969 443.75 72.621094 443.75 68.722656 Z M 443.75 68.722656 " style=" stroke:none;fill-rule:nonzero;fill:rgb(0%,0%,0%);fill-opacity:1;"></path><path d="M 415.464844 68.722656 C 415.464844 56.472656 405.5 46.507812 393.25 46.507812 C 381 46.507812 371.03125 56.472656 371.03125 68.722656 C 371.03125 80.972656 381 90.941406 393.25 90.941406 C 405.5 90.941406 415.464844 80.972656 415.464844 68.722656 Z M 386.179688 68.722656 C 386.179688 64.828125 389.351562 61.65625 393.25 61.65625 C 397.144531 61.65625 400.316406 64.828125 400.316406 68.722656 C 400.316406 72.621094 397.144531 75.792969 393.25 75.792969 C 389.351562 75.792969 386.179688 72.621094 386.179688 68.722656 Z M 386.179688 68.722656 " style=" stroke:none;fill-rule:nonzero;fill:rgb(0%,0%,0%);fill-opacity:1;"></path><path d="M 205.824219 60.203125 L 266.980469 60.203125 C 271.164062 60.203125 274.554688 56.8125 274.554688 52.628906 C 274.554688 48.445312 271.164062 45.054688 266.980469 45.054688 L 205.824219 45.054688 C 192.773438 45.054688 182.15625 55.671875 182.15625 68.722656 C 182.15625 81.777344 192.773438 92.394531 205.824219 92.394531 L 306.175781 92.394531 C 319.226562 92.394531 329.84375 81.773438 329.84375 68.722656 C 329.84375 55.671875 319.226562 45.054688 306.175781 45.054688 L 297.277344 45.054688 C 293.089844 45.054688 289.703125 48.445312 289.703125 52.628906 C 289.703125 56.8125 293.089844 60.203125 297.277344 60.203125 L 306.175781 60.203125 C 310.875 60.203125 314.695312 64.027344 314.695312 68.722656 C 314.695312 73.421875 310.875 77.246094 306.175781 77.246094 L 205.824219 77.246094 C 201.125 77.246094 197.300781 73.421875 197.300781 68.722656 C 197.300781 64.027344 201.125 60.203125 205.824219 60.203125 Z M 205.824219 60.203125 " style=" stroke:none;fill-rule:nonzero;fill:rgb(0%,0%,0%);fill-opacity:1;"></path></g></svg>