<!-- icon666.com - MILLIONS vector ICONS FREE --><svg version="1.1" id="Capa_1" xmlns="http://www.w3.org/2000/svg" xmlns:xlink="http://www.w3.org/1999/xlink" x="0px" y="0px" viewBox="0 0 511.865 511.865" style="enable-background:new 0 0 511.865 511.865;" xml:space="preserve"><polygon style="fill:#F6BB42;" points="391.739,398.504 79.977,398.504 79.977,183.953 262.749,99.975 391.457,168.574 391.739,183.953 "></polygon><path style="fill:#EAC6BB;" d="M262.726,99.975c0,0,46.081,35.537,113.173,62.608v17.37c0,53.024-29.117,103.737-63.983,136.924 c-25.274,24.072-53.587,39.028-75.98,39.028c-22.392,0-50.705-14.871-75.979-39.028c-31.351-29.827-58.062-73.816-63.108-120.928 v-15.902C161.8,163.388,220.018,129.936,262.726,99.975z"></path><path style="fill:#E6E9ED;" d="M96.848,180.047v15.902c0.578,5.381,1.468,10.716,2.585,15.996h272.982 c2.218-10.489,3.483-21.182,3.483-31.991v-17.37c-5.413-2.18-10.63-4.429-15.754-6.702h-194.94 C143.609,165.52,120.693,173.932,96.848,180.047z"></path><g style="opacity:0.5;"><rect x="79.982" y="179.953" style="fill:#FFFFFF;" width="15.996" height="218.55"></rect></g><g style="opacity:0.2;"><rect x="375.902" y="159.963" width="15.996" height="238.54"></rect></g><path style="fill:#F6BB42;" d="M391.895,159.959c0-85.508-68.834-154.857-154.1-155.865c9.536,36.756,24.955,95.881,24.955,95.881 s53.642,41.2,128.708,68.599C391.614,165.707,391.895,162.864,391.895,159.959z"></path><path id="SVGCleanerId_0" style="fill:#FFCE54;" d="M235.935,4C149.802,4,79.977,73.825,79.977,159.958 c0,8.029,0.797,15.847,1.968,23.548c140.4-29.805,253.292-142.579,253.933-143.22C308.807,17.653,273.981,4,235.935,4z"></path><path style="fill:#F6BB42;" d="M391.895,159.959c0-48.089-21.769-91.062-55.985-119.648c-26.634-22.244-73.16,59.664-73.16,59.664 s53.642,41.2,128.708,68.599C391.614,165.707,391.895,162.864,391.895,159.959z"></path><g><path id="SVGCleanerId_0_1_" style="fill:#FFCE54;" d="M235.935,4C149.802,4,79.977,73.825,79.977,159.958 c0,8.029,0.797,15.847,1.968,23.548c140.4-29.805,253.292-142.579,253.933-143.22C308.807,17.653,273.981,4,235.935,4z"></path></g><g style="opacity:0.2;"><path d="M335.91,40.311c-0.016-0.008-0.023-0.016-0.031-0.023C308.807,17.653,273.981,4,235.935,4 c-2.538,0-5.006,0.258-7.514,0.375c34.71,1.875,66.428,14.98,91.46,35.912c0.008,0.008,0.016,0.016,0.031,0.023 c34.218,28.586,55.985,71.559,55.985,119.648c0,0.859-0.094,1.703-0.125,2.546c5.123,2.077,10.333,4.116,15.684,6.068 c0.156-2.866,0.438-5.709,0.438-8.615C391.895,111.87,370.126,68.897,335.91,40.311z"></path></g><g style="opacity:0.5;"><path style="fill:#FFFFFF;" d="M95.974,159.959c0-83.595,65.826-151.631,148.444-155.583c-2.819-0.148-5.624-0.375-8.482-0.375 c-86.133,0-155.958,69.825-155.958,155.958c0,8.029,0.797,15.847,1.968,23.548c5.217-1.109,10.396-2.367,15.542-3.694 C96.614,173.299,95.974,166.707,95.974,159.959z"></path></g><path style="fill:#EAC6BB;" d="M407.89,403.893c-10.396-3.843-25.032-7.919-39.755-13.199c-27.906-10.075-56.22-24.556-56.22-50.783 v-23.033c-25.274,24.072-53.587,39.028-75.98,39.028c-22.392,0-50.705-14.871-75.979-39.028v23.033 c0,26.228-28.312,40.708-56.219,50.783c-5.366,1.921-10.802,3.687-15.917,5.358c-8.966,2.882-17.276,5.357-23.837,7.841 c-31.992,11.997-47.987,23.994-47.987,55.985s0,47.987,0,47.987h439.882c0,0,0-15.996,0-47.987S439.881,415.89,407.89,403.893z"></path><g style="opacity:0.2;"><path d="M359.903,155.882v24.072c0,53.024-29.117,103.737-63.982,136.924c-22.361,21.3-47.089,35.413-67.998,38.389 c2.734,0.39,5.42,0.64,8.013,0.64c22.393,0,50.706-14.956,75.98-39.028c34.866-33.187,63.983-83.899,63.983-136.924v-17.37 L359.903,155.882z"></path></g><g style="opacity:0.5;"><path style="fill:#FFFFFF;" d="M175.952,316.877c-31.352-29.827-58.062-73.816-63.108-120.928l-0.695-20.167l-15.3,4.265v15.902 c5.045,47.112,31.757,91.101,63.108,120.928c25.274,24.157,53.587,39.028,75.979,39.028c2.578,0,5.257-0.25,7.982-0.64 C223.01,352.29,198.305,338.24,175.952,316.877z"></path></g><path style="fill:#E6E9ED;" d="M430.126,413.89c0,0-42.231,45.988-125.81,33.991c-59.907-9.2-131.481-19.276-168.354-59.983 l-7.201-7.998c-11.755,6.24-25.353,11.036-37.904,15.113l-2.882,16.878c-7.998,55.985,23.993,87.977,23.993,87.977l8.076,7.998h7.92 h55.985h119.969h39.988h111.971c0,0,0-15.996,0-47.987C455.877,436.447,447.317,423.732,430.126,413.89z"></path><g style="opacity:0.2;"><path d="M295.92,332.873v-2.366c5.404-4.147,10.771-8.639,15.995-13.63v23.033c0,26.228,28.313,40.708,56.22,50.783 c5.365,1.921,10.802,3.687,15.918,5.358c8.966,2.882,17.276,5.357,23.837,7.841c31.991,11.997,47.987,23.994,47.987,55.985 s0,47.987,0,47.987h-15.996c0-7.826,0-18.362,0-31.991c0-31.992-15.996-43.988-47.986-55.985 c-6.562-2.483-14.871-4.96-23.838-7.842c-5.116-1.671-10.552-3.437-15.918-5.358c-27.906-10.075-56.219-24.556-56.219-50.783 V332.873z"></path></g><path style="fill:#656D78;" d="M407.89,355.906c4.397,0,7.998,3.602,7.998,7.998c0,4.397-3.601,7.998-7.998,7.998 s-7.998-3.601-7.998-7.998C399.892,359.507,403.493,355.906,407.89,355.906z"></path><path style="fill:#ED5565;" d="M447.879,443.882h47.987c0,13.278-10.716,23.994-23.993,23.994 C458.595,467.876,447.879,457.161,447.879,443.882z"></path><path style="fill:#656D78;" d="M455.877,499.868v7.998h-95.975v-7.998c0-4.397,3.601-7.998,7.998-7.998h39.989h39.989 C452.277,491.87,455.877,495.47,455.877,499.868z"></path><g style="opacity:0.2;"><path style="fill:#FFFFFF;" d="M375.899,491.87h-7.998c-4.397,0-7.998,3.601-7.998,7.998v7.998h7.998v-7.998 C367.901,495.47,371.501,491.87,375.899,491.87z"></path></g><g style="opacity:0.2;"><path d="M439.881,491.87h7.998c4.397,0,7.998,3.601,7.998,7.998v7.998h-7.998v-7.998C447.879,495.47,444.279,491.87,439.881,491.87 z"></path></g><path style="fill:#ED5565;" d="M319.913,443.882H367.9c0,13.278-10.716,23.994-23.994,23.994 C330.629,467.876,319.913,457.161,319.913,443.882z"></path><g style="opacity:0.3;"><path style="fill:#FFFFFF;" d="M327.911,443.882h-7.998c0,13.278,10.716,23.994,23.993,23.994c1.375,0,2.688-0.188,4-0.406 C336.549,465.564,327.911,455.786,327.911,443.882z"></path></g><g style="opacity:0.2;"><path d="M359.903,443.882h7.998c0,13.278-10.716,23.994-23.994,23.994c-1.374,0-2.687-0.188-3.998-0.406 C351.264,465.564,359.903,455.786,359.903,443.882z"></path></g><g style="opacity:0.3;"><path style="fill:#FFFFFF;" d="M455.877,443.882h-7.998c0,13.278,10.716,23.994,23.994,23.994c1.374,0,2.687-0.188,3.998-0.406 C464.516,465.564,455.877,455.786,455.877,443.882z"></path></g><g style="opacity:0.2;"><path d="M487.869,443.882h7.998c0,13.278-10.716,23.994-23.993,23.994c-1.375,0-2.688-0.188-4-0.406 C479.23,465.564,487.869,455.786,487.869,443.882z"></path></g><g style="opacity:0.5;"><path style="fill:#FFFFFF;" d="M175.952,332.873v-2.366c-5.405-4.147-10.771-8.639-15.996-13.63v23.033 c0,26.228-28.312,40.708-56.219,50.783c-5.366,1.921-10.802,3.687-15.917,5.358c-8.966,2.882-17.276,5.357-23.837,7.841 c-31.992,11.997-47.987,23.994-47.987,55.985s0,47.987,0,47.987h15.995c0-7.826,0-18.362,0-31.991 c0-31.992,15.996-43.988,47.987-55.985c6.561-2.483,14.871-4.96,23.837-7.842c5.116-1.671,10.552-3.437,15.917-5.358 c27.907-10.075,56.22-24.556,56.22-50.783V332.873z"></path></g><g><path style="fill:#3A3847;" d="M391.895,367.903h-47.988c-2.21,0-3.998-1.788-3.998-3.999c0-2.21,1.788-3.998,3.998-3.998h47.988 c2.21,0,3.998,1.788,3.998,3.998C395.893,366.115,394.105,367.903,391.895,367.903z"></path><path style="fill:#3A3847;" d="M471.873,367.903h-47.988c-2.21,0-3.998-1.788-3.998-3.999c0-2.21,1.788-3.998,3.998-3.998h47.988 c2.21,0,3.998,1.788,3.998,3.998C475.871,366.115,474.083,367.903,471.873,367.903z"></path><path style="fill:#3A3847;" d="M343.907,471.875c-15.433,0-27.992-12.56-27.992-27.993c0-2.21,1.789-3.998,3.999-3.998 s3.999,1.788,3.999,3.998c0,11.028,8.967,19.995,19.994,19.995c11.029,0,19.995-8.967,19.995-19.995 c0-2.21,1.788-3.998,3.999-3.998c2.21,0,3.999,1.788,3.999,3.998C371.9,459.316,359.34,471.875,343.907,471.875z"></path><path style="fill:#3A3847;" d="M367.901,447.881h-47.987c-2.21,0-3.999-1.788-3.999-3.999c0-2.21,1.789-3.998,3.999-3.998h47.987 c2.21,0,3.999,1.788,3.999,3.998C371.9,446.093,370.111,447.881,367.901,447.881z"></path><path style="fill:#3A3847;" d="M319.913,439.884c-0.531,0-1.062-0.102-1.577-0.32c-2.031-0.875-2.969-3.227-2.102-5.257 l23.994-55.985c0.882-2.038,3.233-2.96,5.256-2.101c2.031,0.875,2.968,3.226,2.102,5.257l-23.994,55.984 C322.936,438.978,321.46,439.884,319.913,439.884z"></path><path style="fill:#3A3847;" d="M367.901,439.884c-1.547,0-3.022-0.906-3.679-2.422l-23.993-55.984 c-0.867-2.031,0.07-4.382,2.101-5.257c2.007-0.852,4.374,0.07,5.257,2.101l23.993,55.985c0.867,2.03-0.07,4.382-2.101,5.257 C368.963,439.783,368.432,439.884,367.901,439.884z"></path><path style="fill:#3A3847;" d="M471.873,471.875c-15.434,0-27.993-12.56-27.993-27.993c0-2.21,1.788-3.998,3.999-3.998 s3.999,1.788,3.999,3.998c0,11.028,8.966,19.995,19.995,19.995c11.027,0,19.994-8.967,19.994-19.995 c0-2.21,1.789-3.998,3.999-3.998s3.999,1.788,3.999,3.998C499.866,459.316,487.306,471.875,471.873,471.875z"></path><path style="fill:#3A3847;" d="M495.867,447.881H447.88c-2.211,0-3.999-1.788-3.999-3.999c0-2.21,1.788-3.998,3.999-3.998h47.987 c2.21,0,3.999,1.788,3.999,3.998C499.866,446.093,498.077,447.881,495.867,447.881z"></path><path style="fill:#3A3847;" d="M447.879,439.884c-0.531,0-1.062-0.102-1.578-0.32c-2.03-0.875-2.968-3.227-2.101-5.257 l23.993-55.985c0.883-2.038,3.234-2.96,5.257-2.101c2.03,0.875,2.968,3.226,2.101,5.257l-23.993,55.984 C450.902,438.978,449.426,439.884,447.879,439.884z"></path><path style="fill:#3A3847;" d="M495.867,439.884c-1.547,0-3.022-0.906-3.679-2.422l-23.994-55.984 c-0.866-2.031,0.07-4.382,2.102-5.257c2.015-0.852,4.373,0.07,5.256,2.101l23.994,55.985c0.867,2.03-0.07,4.382-2.102,5.257 C496.928,439.783,496.398,439.884,495.867,439.884z"></path><path style="fill:#3A3847;" d="M407.89,375.901c-6.615,0-11.997-5.382-11.997-11.997s5.382-11.996,11.997-11.996 s11.997,5.381,11.997,11.996S414.505,375.901,407.89,375.901z M407.89,359.906c-2.202,0-3.999,1.796-3.999,3.998 c0,2.203,1.797,3.999,3.999,3.999s3.999-1.796,3.999-3.999C411.889,361.702,410.092,359.906,407.89,359.906z"></path><path style="fill:#3A3847;" d="M407.89,359.906c-2.21,0-3.999-1.789-3.999-4v-7.997c0-2.211,1.789-3.999,3.999-3.999 s3.999,1.788,3.999,3.999v7.997C411.889,358.117,410.1,359.906,407.89,359.906z"></path><path style="fill:#3A3847;" d="M407.89,495.869c-2.21,0-3.999-1.789-3.999-3.999V379.9c0-2.211,1.789-3.999,3.999-3.999 s3.999,1.788,3.999,3.999v111.97C411.889,494.079,410.1,495.869,407.89,495.869z"></path><path style="fill:#3A3847;" d="M447.879,495.869H367.9c-2.211,0-3.999-1.789-3.999-3.999s1.788-3.999,3.999-3.999h79.979 c2.211,0,3.999,1.789,3.999,3.999S450.09,495.869,447.879,495.869z"></path><path style="fill:#3A3847;" d="M359.903,503.867c-2.21,0-3.999-1.789-3.999-3.999c0-6.615,5.382-11.997,11.997-11.997 c2.21,0,3.999,1.789,3.999,3.999s-1.789,3.999-3.999,3.999c-2.203,0-3.999,1.797-3.999,3.999 C363.902,502.078,362.114,503.867,359.903,503.867z"></path><path style="fill:#3A3847;" d="M455.877,503.867c-2.211,0-3.999-1.789-3.999-3.999c0-2.202-1.796-3.999-3.999-3.999 c-2.211,0-3.999-1.789-3.999-3.999s1.788-3.999,3.999-3.999c6.615,0,11.997,5.382,11.997,11.997 C459.876,502.078,458.087,503.867,455.877,503.867z"></path><path style="fill:#3A3847;" d="M359.903,511.865c-2.21,0-3.999-1.789-3.999-3.999v-7.998c0-2.21,1.789-3.999,3.999-3.999 c2.211,0,3.999,1.789,3.999,3.999v7.998C363.902,510.076,362.114,511.865,359.903,511.865z"></path><path style="fill:#3A3847;" d="M455.877,511.865c-2.211,0-3.999-1.789-3.999-3.999v-7.998c0-2.21,1.788-3.999,3.999-3.999 c2.21,0,3.999,1.789,3.999,3.999v7.998C459.876,510.076,458.087,511.865,455.877,511.865z"></path><path style="fill:#3A3847;" d="M455.877,511.865h-95.975c-2.21,0-3.999-1.789-3.999-3.999c0-2.211,1.789-3.999,3.999-3.999h95.975 c2.21,0,3.999,1.788,3.999,3.999C459.876,510.076,458.087,511.865,455.877,511.865z"></path><path style="fill:#3A3847;" d="M235.935,359.913c-54.782,0-134.003-79.308-143.071-163.535c-0.234-2.195,1.351-4.171,3.546-4.405 c2.179-0.226,4.171,1.351,4.405,3.546c4.069,37.826,23.439,77.784,53.126,109.626c26.899,28.852,58.312,46.77,81.993,46.77 c51.143,0,135.964-83.283,135.964-171.954c0-2.21,1.788-3.999,3.999-3.999c2.21,0,3.999,1.789,3.999,3.999 C379.898,275.81,290.171,359.913,235.935,359.913z"></path><path style="fill:#3A3847;" d="M330.2,375.838c-0.844,0-1.687-0.266-2.405-0.805c-13.191-9.958-19.878-21.775-19.878-35.123 c0-2.21,1.789-3.999,3.999-3.999c2.211,0,3.999,1.789,3.999,3.999c0,10.856,5.46,20.26,16.691,28.734 c1.765,1.336,2.116,3.843,0.789,5.601C332.606,375.291,331.411,375.838,330.2,375.838z"></path><path style="fill:#3A3847;" d="M343.907,511.865H15.995c-2.211,0-3.999-1.789-3.999-3.999v-47.987 c0-34.319,17.776-47.472,50.588-59.734c5.139-1.913,11.325-3.889,18.065-6.029c31.78-10.099,75.308-23.932,75.308-54.204 c0-2.21,1.789-3.999,3.999-3.999c2.21,0,3.999,1.789,3.999,3.999c0,36.123-46.753,50.986-80.885,61.827 c-6.6,2.101-12.66,4.022-17.69,5.904c-30.75,11.489-45.386,22.244-45.386,52.236v43.988h323.913c2.211,0,4,1.788,4,3.999 C347.907,510.076,346.118,511.865,343.907,511.865z"></path><path style="fill:#3A3847;" d="M159.956,343.91c-2.21,0-3.999-1.789-3.999-3.999v-23.002c0-2.21,1.789-3.999,3.999-3.999 c2.21,0,3.999,1.789,3.999,3.999v23.002C163.955,342.121,162.166,343.91,159.956,343.91z"></path><path style="fill:#3A3847;" d="M311.915,343.91c-2.21,0-3.999-1.789-3.999-3.999v-23.01c0-2.21,1.789-3.999,3.999-3.999 c2.211,0,3.999,1.789,3.999,3.999v23.01C315.914,342.121,314.126,343.91,311.915,343.91z"></path><path style="fill:#3A3847;" d="M391.895,163.957c-2.211,0-4-1.788-4-3.999c0-83.79-68.169-151.959-151.959-151.959 S83.977,76.168,83.977,159.958c0,2.21-1.789,3.999-3.999,3.999s-3.999-1.788-3.999-3.999C75.979,71.755,147.733,0,235.936,0 c88.204,0,159.958,71.755,159.958,159.958C395.893,162.169,394.105,163.957,391.895,163.957z"></path><path style="fill:#3A3847;" d="M79.977,383.899c-2.21,0-3.999-1.789-3.999-3.999V159.959c0-2.21,1.789-3.999,3.999-3.999 s3.999,1.789,3.999,3.999V379.9C83.976,382.11,82.188,383.899,79.977,383.899z"></path><path style="fill:#3A3847;" d="M391.895,343.91c-2.211,0-4-1.789-4-3.999V159.959c0-2.21,1.789-3.999,4-3.999 c2.21,0,3.998,1.789,3.998,3.999v179.952C395.893,342.121,394.105,343.91,391.895,343.91z"></path><path style="fill:#3A3847;" d="M79.97,187.952c-1.851,0-3.515-1.297-3.905-3.195c-0.453-2.156,0.945-4.272,3.108-4.717 C218.026,151.383,331.942,38.57,333.082,37.429c1.562-1.562,4.092-1.562,5.654,0c1.562,1.555,1.562,4.093,0,5.655 c-1.148,1.148-116.696,115.641-257.955,144.782C80.516,187.928,80.243,187.952,79.97,187.952z"></path><path style="fill:#3A3847;" d="M391.731,172.674c-0.453,0-0.914-0.078-1.367-0.242c-74.926-27.297-129.504-68.872-130.051-69.286 c-1.75-1.343-2.078-3.858-0.734-5.608c1.352-1.75,3.866-2.07,5.607-0.734c0.531,0.406,54.196,41.262,127.911,68.114 c2.077,0.758,3.147,3.054,2.39,5.124C394.893,171.666,393.363,172.674,391.731,172.674z"></path><path style="fill:#3A3847;" d="M336.277,159.959H189.136c-2.21,0-3.999-1.789-3.999-3.999s1.789-3.999,3.999-3.999h147.141 c2.21,0,3.999,1.789,3.999,3.999S338.487,159.959,336.277,159.959z"></path><path style="fill:#3A3847;" d="M357.966,215.944H113.914c-2.21,0-3.999-1.789-3.999-3.999c0-2.21,1.789-3.999,3.999-3.999h244.052 c2.21,0,3.999,1.789,3.999,3.999S360.176,215.944,357.966,215.944z"></path><path style="fill:#3A3847;" d="M191.947,199.948h-71.98c-2.21,0-3.999-1.789-3.999-3.999s1.789-3.999,3.999-3.999h71.98 c2.211,0,3.999,1.789,3.999,3.999S194.158,199.948,191.947,199.948z"></path><path style="fill:#3A3847;" d="M351.905,183.953h-71.98c-2.21,0-3.999-1.789-3.999-3.999c0-2.21,1.789-3.999,3.999-3.999h71.98 c2.211,0,3.999,1.789,3.999,3.999C355.904,182.163,354.116,183.953,351.905,183.953z"></path><path style="fill:#3A3847;" d="M304.325,451.88c-0.203,0-0.414-0.016-0.617-0.047l-4.726-0.727 c-60.539-9.294-129.161-19.83-165.987-60.522c-1.476-1.64-1.351-4.171,0.281-5.655c1.64-1.46,4.17-1.343,5.655,0.281 c34.912,38.592,102.043,48.901,161.269,57.992l4.726,0.727c2.18,0.336,3.679,2.375,3.343,4.562 C307.963,450.466,306.261,451.88,304.325,451.88z"></path><path style="fill:#3A3847;" d="M303.918,503.867c-2.211,0-3.999-1.789-3.999-3.999c0-9.231-25.157-15.074-51.799-21.268 c-49.221-11.442-116.633-27.11-131.895-81.627c-0.594-2.124,0.648-4.335,2.773-4.929c2.14-0.632,4.334,0.648,4.928,2.773 c13.988,49.955,78.729,64.998,126.005,75.987c33.663,7.826,57.984,13.48,57.984,29.062 C307.916,502.078,306.128,503.867,303.918,503.867z"></path><path style="fill:#3A3847;" d="M183.95,503.867c-0.601,0-1.21-0.133-1.789-0.422c-3.358-1.68-82.188-41.762-82.188-99.552 c0-2.21,1.788-3.999,3.999-3.999s3.999,1.789,3.999,3.999c0,52.846,76.995,92.007,77.768,92.397 c1.976,0.992,2.772,3.39,1.789,5.365C186.824,503.054,185.41,503.867,183.95,503.867z"></path><path style="fill:#3A3847;" d="M111.961,503.867c-1.015,0-2.038-0.391-2.819-1.172c-1.367-1.367-33.312-34.061-25.126-91.366 c0.312-2.187,2.366-3.679,4.522-3.397c2.187,0.312,3.71,2.336,3.397,4.522c-7.6,53.188,22.564,84.282,22.869,84.595 c1.554,1.562,1.546,4.092-0.016,5.646C114.008,503.476,112.984,503.867,111.961,503.867z"></path></g></svg>