<svg xmlns="http://www.w3.org/2000/svg" xmlns:xlink="http://www.w3.org/1999/xlink">
    
  <symbol id="inst" viewBox="0 0 32 32" xmlns="http://www.w3.org/2000/svg">
    <path fill-rule="evenodd" clip-rule="evenodd" d="M7.74857 1.79886C6.1704 1.79886 4.65683 2.42563 3.54068 3.54135C2.42453 4.65707 1.79718 6.1704 1.79657 7.74857V23.6206C1.79657 25.1991 2.42365 26.7131 3.53987 27.8293C4.65609 28.9455 6.17 29.5726 7.74857 29.5726H23.6206C25.1987 29.572 26.7121 28.9446 27.8278 27.8285C28.9435 26.7123 29.5703 25.1987 29.5703 23.6206V7.74857C29.5697 6.1708 28.9426 4.65781 27.827 3.54216C26.7113 2.4265 25.1983 1.79946 23.6206 1.79886H7.74857ZM25.3326 7.75772C25.3326 8.21237 25.152 8.64841 24.8305 8.9699C24.509 9.29139 24.0729 9.472 23.6183 9.472C23.1636 9.472 22.7276 9.29139 22.4061 8.9699C22.0846 8.64841 21.904 8.21237 21.904 7.75772C21.904 7.30306 22.0846 6.86702 22.4061 6.54553C22.7276 6.22404 23.1636 6.04343 23.6183 6.04343C24.0729 6.04343 24.509 6.22404 24.8305 6.54553C25.152 6.86702 25.3326 7.30306 25.3326 7.75772ZM15.6869 10.9303C14.4259 10.9303 13.2167 11.4312 12.3251 12.3228C11.4335 13.2144 10.9326 14.4237 10.9326 15.6846C10.9326 16.9455 11.4335 18.1548 12.3251 19.0464C13.2167 19.938 14.4259 20.4389 15.6869 20.4389C16.9478 20.4389 18.157 19.938 19.0486 19.0464C19.9402 18.1548 20.4411 16.9455 20.4411 15.6846C20.4411 14.4237 19.9402 13.2144 19.0486 12.3228C18.157 11.4312 16.9478 10.9303 15.6869 10.9303ZM8.64457 15.6846C8.64457 13.8174 9.38628 12.0268 10.7065 10.7065C12.0268 9.38628 13.8174 8.64457 15.6846 8.64457C17.5517 8.64457 19.3423 9.38628 20.6626 10.7065C21.9829 12.0268 22.7246 13.8174 22.7246 15.6846C22.7246 17.5517 21.9829 19.3424 20.6626 20.6626C19.3423 21.9829 17.5517 22.7246 15.6846 22.7246C13.8174 22.7246 12.0268 21.9829 10.7065 20.6626C9.38628 19.3424 8.64457 17.5517 8.64457 15.6846Z"/>
  </symbol>

  <symbol id="tg" viewBox="0 0 32 32" xmlns="http://www.w3.org/2000/svg">
    <g clip-path="url(#clip0_2_205)">
    <path d="M29.4022 2.83894L1.0517 13.8281C-0.0891702 14.3398 -0.475045 15.3646 0.775955 15.9208L8.04908 18.2441L25.6346 7.31975C26.5948 6.63394 27.5778 6.81681 26.7319 7.57125L11.6283 21.3172L11.1539 27.1344C11.5933 28.0326 12.398 28.0368 12.9112 27.5904L17.0898 23.6161L24.2464 29.0028C25.9086 29.9919 26.813 29.3536 27.1706 27.5406L31.8647 5.19875C32.3521 2.96719 31.521 1.98394 29.4022 2.83894Z"/>
    </g>
    <defs>
    <clipPath id="clip0_2_205">
    <rect width="32" height="32" fill="white"/>
    </clipPath>
    </defs>
  </symbol>


</svg>
