<svg width="25" height="24" viewBox="0 0 25 24" fill="none" xmlns="http://www.w3.org/2000/svg">
<path d="M22.5 11V3.6C22.5 3.44087 22.4368 3.28826 22.3243 3.17574C22.2117 3.06321 22.0591 3 21.9 3H3.1C2.94087 3 2.78826 3.06321 2.67574 3.17574C2.56321 3.28826 2.5 3.44087 2.5 3.6V11M22.5 11H2.5M22.5 11L21.71 13.584C21.5849 13.9936 21.3317 14.3523 20.9875 14.6072C20.6433 14.8621 20.2263 14.9998 19.798 15H18.5M2.5 11L3.29 13.584C3.41507 13.9936 3.66834 14.3523 4.01254 14.6072C4.35674 14.8621 4.77369 14.9998 5.202 15H6.5M18.5 7H19.5M10 14.5C10 14.5 10 21.5 6.5 21.5M15 14.5C15 14.5 15 21.5 18.5 21.5M12.5 14.5V21.5" stroke="#434650" stroke-width="1.5" stroke-linecap="round" stroke-linejoin="round"/>
</svg>
