<!-- icon666.com - MILLIONS vector ICONS FREE --><svg version="1.1" id="Capa_1" xmlns="http://www.w3.org/2000/svg" xmlns:xlink="http://www.w3.org/1999/xlink" x="0px" y="0px" viewBox="0 0 296.083 296.083" style="enable-background:new 0 0 296.083 296.083;" xml:space="preserve"><g><path d="M293.8,283.5l-16.649-21.924c-1.369-1.803-3.655-2.943-5.913-3.139l-57.505-4.932v-27.32 c10-12.703,15.474-25.242,17.646-30.631c10.471-6.75,15.38-17.016,14.838-30.539c-0.618-15.43-8.484-22.816-13.484-26.23v-19.93 l0.364-0.051l3.161-108.557l-6.045-1.641C228.906,8.256,197.652,0,148.022,0C98.351,0,67.047,8.598,65.738,8.963l-6.062,1.674 l2.057,98.814v29.508c-6,3.48-11.855,10.896-12.462,26.078c-0.543,13.527,4.56,23.82,15.293,30.582 c2.153,5.457,7.17,17.979,17.17,30.676v27.211l-57.188,4.932c-2.258,0.195-4.277,1.336-5.646,3.139L2.274,283.5 c-1.838,2.42-2.132,5.548-0.779,8.268c1.355,2.719,4.148,4.315,7.191,4.315H148.05h0.02h139.345c3.043,0,5.823-1.596,7.178-4.315 C295.945,289.048,295.638,285.92,293.8,283.5z M218.968,59.139l-0.419,14.92C205.026,71.518,180.455,68,148.05,68 c-32.674,0-57.401,3.719-70.873,6.369l-0.323-14.936C90.252,56.779,115.108,53,148.05,53C180.789,53,205.536,56.592,218.968,59.139 z M148.05,99c-33.357,0-58.287,4.121-70.199,6.58l-0.322-14.932C89.31,88.197,114.395,84,148.05,84 c33.184,0,58.037,3.918,70.045,6.291l-0.419,14.916C205.51,102.828,180.844,99,148.05,99z M78.84,187.629l-0.695-2.061 l-1.644-1.426c-0.752-0.65-1.476-1.064-2.243-1.5c-3.036-1.729-9.357-5.326-8.89-16.986c0.443-11.055,5.233-13.563,6.339-13.988 l6.025-0.813v-27.76c12,3.088,35.433,7.238,70.174,7.238c34.164,0,56.826-3.689,68.826-6.504v20.049l-0.316,6.867l6.902,0.947 c1.125,0.373,6.719,2.779,7.169,13.963c0.471,11.762-5.856,15.463-8.569,17.043c-0.725,0.422-1.397,0.82-2.114,1.441l-1.606,1.406 l-0.699,2.006c-0.177,0.504-15.614,43.413-50.781,55.485c-0.639,0.22-1.284,0.429-1.936,0.627 c-1.305,0.398-2.635,0.753-3.993,1.062c-4.072,0.926-8.383,1.438-12.936,1.439c-6.823-0.003-13.088-1.151-18.817-3.125 c-0.637-0.219-1.267-0.448-1.89-0.688C93.482,229.439,79.006,188.113,78.84,187.629z M197.733,260.305 c-4,4.895-17.915,19.527-49.177,19.527c-31.066,0-46.823-13.488-50.823-18.383v-18.027c14,12.404,31.825,18.661,50.09,18.661 c0.022,0,0.041,0,0.062,0c18.356,0,34.849-6.325,49.849-18.858V260.305z"></path></g></svg>