<!-- icon666.com - MILLIONS vector ICONS FREE --><svg id="_01-Poker_Chip" viewBox="0 0 64 64" xmlns="http://www.w3.org/2000/svg" data-name="01-Poker Chip"><path d="m43 3v4a2.006 2.006 0 0 1 -2 2h-5v-8h5a2.006 2.006 0 0 1 2 2z" fill="#ff636e"></path><path d="m22 1h7v8h-7z" fill="#ff636e"></path><path d="m8 1h7v8h-7z" fill="#ff636e"></path><path d="m29 1h7v8h-7z" fill="#e9edf5"></path><path d="m15 1h7v8h-7z" fill="#e9edf5"></path><path d="m8 1v8h-5a2.006 2.006 0 0 1 -2-2v-4a2.006 2.006 0 0 1 2-2z" fill="#e9edf5"></path><path d="m43 5v-2a2.006 2.006 0 0 0 -2-2h-5v4z" fill="#f03049"></path><path d="m22 1h7v4h-7z" fill="#f03049"></path><path d="m8 1h7v4h-7z" fill="#f03049"></path><path d="m29 1h7v4h-7z" fill="#cdd2e1"></path><path d="m15 1h7v4h-7z" fill="#cdd2e1"></path><path d="m8 5v-4h-5a2.006 2.006 0 0 0 -2 2v4a2.006 2.006 0 0 0 2 2h2v-4z" fill="#cdd2e1"></path><path d="m43 19v4a2.006 2.006 0 0 1 -2 2h-5v-8h5a2.006 2.006 0 0 1 2 2z" fill="#ff636e"></path><path d="m22 17h7v8h-7z" fill="#ff636e"></path><path d="m8 17h7v8h-7z" fill="#ff636e"></path><path d="m29 17h7v8h-7z" fill="#e9edf5"></path><path d="m15 17h7v8h-7z" fill="#e9edf5"></path><path d="m8 17v8h-5a2.006 2.006 0 0 1 -2-2v-4a2.006 2.006 0 0 1 2-2z" fill="#e9edf5"></path><path d="m43 21v-2a2.006 2.006 0 0 0 -2-2h-5v4z" fill="#f03049"></path><path d="m22 17h7v4h-7z" fill="#f03049"></path><path d="m8 17h7v4h-7z" fill="#f03049"></path><path d="m29 17h7v4h-7z" fill="#cdd2e1"></path><path d="m15 17h7v4h-7z" fill="#cdd2e1"></path><path d="m8 21v-4h-5a2.006 2.006 0 0 0 -2 2v4a2.006 2.006 0 0 0 2 2h2v-4z" fill="#cdd2e1"></path><path d="m47 11v4a2.006 2.006 0 0 1 -2 2h-5v-8h5a2.006 2.006 0 0 1 2 2z" fill="#96e8ff"></path><path d="m26 9h7v8h-7z" fill="#96e8ff"></path><path d="m12 9h7v8h-7z" fill="#96e8ff"></path><path d="m33 9h7v8h-7z" fill="#e9edf5"></path><path d="m19 9h7v8h-7z" fill="#e9edf5"></path><path d="m12 9v8h-5a2.006 2.006 0 0 1 -2-2v-4a2.006 2.006 0 0 1 2-2z" fill="#e9edf5"></path><path d="m47 13v-2a2.006 2.006 0 0 0 -2-2h-5v4z" fill="#19cffc"></path><path d="m26 9h7v4h-7z" fill="#19cffc"></path><path d="m12 9h7v4h-7z" fill="#19cffc"></path><path d="m33 9h7v4h-7z" fill="#cdd2e1"></path><path d="m19 9h7v4h-7z" fill="#cdd2e1"></path><path d="m12 13v-4h-5a2.006 2.006 0 0 0 -2 2v4a2.006 2.006 0 0 0 2 2h2v-4z" fill="#cdd2e1"></path><path d="m47 27v4a2.006 2.006 0 0 1 -2 2h-5v-8h5a2.006 2.006 0 0 1 2 2z" fill="#96e8ff"></path><path d="m26 25h7v8h-7z" fill="#96e8ff"></path><path d="m12 25h7v8h-7z" fill="#96e8ff"></path><path d="m33 25h7v8h-7z" fill="#e9edf5"></path><path d="m19 25h7v8h-7z" fill="#e9edf5"></path><path d="m12 25v8h-5a2.006 2.006 0 0 1 -2-2v-4a2.006 2.006 0 0 1 2-2z" fill="#e9edf5"></path><path d="m47 29v-2a2.006 2.006 0 0 0 -2-2h-5v4z" fill="#19cffc"></path><path d="m26 25h7v4h-7z" fill="#19cffc"></path><path d="m12 25h7v4h-7z" fill="#19cffc"></path><path d="m33 25h7v4h-7z" fill="#cdd2e1"></path><path d="m19 25h7v4h-7z" fill="#cdd2e1"></path><path d="m12 29v-4h-5a2.006 2.006 0 0 0 -2 2v4a2.006 2.006 0 0 0 2 2h2v-4z" fill="#cdd2e1"></path><path d="m13 44h7v2h-7z" fill="#7e8596"></path><path d="m17 37.172h2v5.657h-2z" fill="#7e8596" transform="matrix(.707 -.707 .707 .707 -23.012 24.444)"></path><path d="m15.172 49h5.657v2h-5.657z" fill="#7e8596" transform="matrix(.707 -.707 .707 .707 -30.083 27.373)"></path><path d="m47.97 39.94a3.01 3.01 0 0 1 0 4.53l-4.97 4.53-4.97-4.53a3.01 3.01 0 0 1 0-4.53 3.762 3.762 0 0 1 4.97 0 3.762 3.762 0 0 1 4.97 0z" fill="#ff636e"></path><path d="m41.03 44.47a3.01 3.01 0 0 1 0-4.53 3.5 3.5 0 0 1 .985-.618 3.762 3.762 0 0 0 -3.985.618 3.01 3.01 0 0 0 0 4.53l4.97 4.53 1.5-1.367z" fill="#f03049"></path><path d="m43 33a10 10 0 1 1 -10 10 10 10 0 0 1 10-10zm4.97 11.47a3.01 3.01 0 0 0 0-4.53 3.762 3.762 0 0 0 -4.97 0 3.762 3.762 0 0 0 -4.97 0 3.01 3.01 0 0 0 0 4.53l4.97 4.53z" fill="#f2f6fc"></path><path d="m36 43a10 10 0 0 1 8.5-9.875 10 10 0 1 0 0 19.75 10 10 0 0 1 -8.5-9.875z" fill="#dce1eb"></path><path d="m56.3 38.64a13.928 13.928 0 0 1 0 8.72 14.024 14.024 0 0 1 -10.14 9.28 14.049 14.049 0 0 1 -6.32 0 14.024 14.024 0 0 1 -10.14-9.28 13.687 13.687 0 0 1 -.7-4.36 13.967 13.967 0 0 1 .69-4.36h.01a14.024 14.024 0 0 1 10.14-9.28 14.049 14.049 0 0 1 6.32 0 14.024 14.024 0 0 1 10.14 9.28zm-3.3 4.36a10 10 0 1 0 -10 10 10 10 0 0 0 10-10z" fill="#cdd2e1"></path><path d="m62.04 36.87-5.74 1.77a13.96 13.96 0 0 0 -3.27-5.4l4.22-4.26a19.864 19.864 0 0 1 4.79 7.89z" fill="#e9edf5"></path><path d="m56.3 47.36 5.74 1.77a19.864 19.864 0 0 1 -4.79 7.89l-4.22-4.26a13.96 13.96 0 0 0 3.27-5.4z" fill="#e9edf5"></path><path d="m46.16 56.64 1.45 5.82a19.948 19.948 0 0 1 -9.22 0l1.45-5.82a14.049 14.049 0 0 0 6.32 0z" fill="#e9edf5"></path><path d="m32.97 52.76-4.22 4.26a19.864 19.864 0 0 1 -4.79-7.89l5.74-1.77a13.96 13.96 0 0 0 3.27 5.4z" fill="#e9edf5"></path><path d="m28.75 28.98 4.22 4.26a13.96 13.96 0 0 0 -3.27 5.4h-.01l-5.73-1.77a19.864 19.864 0 0 1 4.79-7.89z" fill="#e9edf5"></path><path d="m47.61 23.54-1.45 5.82a14.049 14.049 0 0 0 -6.32 0l-1.45-5.82a19.948 19.948 0 0 1 9.22 0z" fill="#e9edf5"></path><g fill="#ff636e"><path d="m62.04 36.87a20.051 20.051 0 0 1 0 12.26l-5.74-1.77a13.928 13.928 0 0 0 0-8.72z"></path><path d="m53.03 52.76 4.22 4.26a19.746 19.746 0 0 1 -9.64 5.44l-1.45-5.82a13.955 13.955 0 0 0 6.87-3.88z"></path><path d="m39.84 56.64-1.45 5.82a19.746 19.746 0 0 1 -9.64-5.44l4.22-4.26a13.955 13.955 0 0 0 6.87 3.88z"></path><path d="m29.7 47.36-5.74 1.77a20.051 20.051 0 0 1 0-12.26l5.73 1.77a13.967 13.967 0 0 0 -.69 4.36 13.687 13.687 0 0 0 .7 4.36z"></path><path d="m38.39 23.54 1.45 5.82a14.032 14.032 0 0 0 -6.87 3.88l-4.22-4.26a19.746 19.746 0 0 1 9.64-5.44z"></path><path d="m57.25 28.98-4.22 4.26a13.955 13.955 0 0 0 -6.87-3.88l1.45-5.82a19.746 19.746 0 0 1 9.64 5.44z"></path></g><path d="m44.52 62.94c-.5.04-1.01.06-1.52.06a19.457 19.457 0 0 1 -4.61-.54l.22-.88a19.383 19.383 0 0 0 5.91 1.36z" fill="#cdd2e1"></path><path d="m30.33 55.42-1.58 1.6a19.864 19.864 0 0 1 -4.79-7.89l2.75-.85a19.772 19.772 0 0 0 3.62 7.14z" fill="#cdd2e1"></path><path d="m30.33 30.58a19.772 19.772 0 0 0 -3.62 7.14l-2.75-.85a19.864 19.864 0 0 1 4.79-7.89z" fill="#cdd2e1"></path><path d="m44.52 23.06a19.383 19.383 0 0 0 -5.91 1.36l-.22-.88a19.457 19.457 0 0 1 4.61-.54c.51 0 1.02.02 1.52.06z" fill="#cdd2e1"></path><path d="m38.61 61.58-.22.88a19.746 19.746 0 0 1 -9.64-5.44l1.58-1.6a19.744 19.744 0 0 0 8.28 6.16z" fill="#f03049"></path><path d="m26 43a19.967 19.967 0 0 0 .71 5.28l-2.75.85a20.051 20.051 0 0 1 0-12.26l2.75.85a19.967 19.967 0 0 0 -.71 5.28z" fill="#f03049"></path><path d="m38.61 24.42a19.744 19.744 0 0 0 -8.28 6.16l-1.58-1.6a19.746 19.746 0 0 1 9.64-5.44z" fill="#f03049"></path><path d="m62.993 36.565a20.963 20.963 0 0 0 -5.028-8.284 20.716 20.716 0 0 0 -10.119-5.713 20.4 20.4 0 0 0 -3.846-.536v-3.032a3.253 3.253 0 0 0 -.162-1h1.162a2.916 2.916 0 0 0 3-3v-4a3 3 0 0 0 -3-3h-1.184a2.966 2.966 0 0 0 .184-1v-4a3 3 0 0 0 -3-3h-38a3 3 0 0 0 -3 3v4a3 3 0 0 0 3 3h1.184a2.966 2.966 0 0 0 -.184 1v4a2.966 2.966 0 0 0 .184 1h-1.184a3 3 0 0 0 -3 3v4a3 3 0 0 0 3 3h1.184a2.966 2.966 0 0 0 -.184 1v4a3 3 0 0 0 3 3h17.032a20.415 20.415 0 0 0 -1.024 2.564 20.951 20.951 0 0 0 5.027 21.155 20.969 20.969 0 0 0 29.927 0 20.994 20.994 0 0 0 5.031-21.157zm-.993 6.435a19.008 19.008 0 0 1 -.646 4.872l-3.832-1.182a14.482 14.482 0 0 0 0-7.38l3.832-1.182a19 19 0 0 1 .646 4.872zm-1.25-6.779-3.843 1.185a15.009 15.009 0 0 0 -2.507-4.129l2.826-2.853a18.969 18.969 0 0 1 3.524 5.797zm-13.383 21.126a14.969 14.969 0 0 0 5.633-3.198l2.823 2.851a18.7 18.7 0 0 1 -7.49 4.228zm-4.367-1.347a13 13 0 1 1 13-13 13.015 13.015 0 0 1 -13 13zm-5.333 5.228a18.717 18.717 0 0 1 -7.49-4.228l2.823-2.851a14.969 14.969 0 0 0 5.632 3.2zm-13.021-13.356a18.695 18.695 0 0 1 0-9.744l3.832 1.182a14.482 14.482 0 0 0 0 7.38zm4.447-10.466-3.843-1.185a18.978 18.978 0 0 1 3.523-5.8l2.827 2.856a15.009 15.009 0 0 0 -2.507 4.129zm-15.093-19.406v6h-5v-6zm20-2v-6h5v6zm3 9v-.021q.331-.11.667-.207l.966 3.881a14.969 14.969 0 0 0 -5.633 3.198l-2.823-2.851a18.715 18.715 0 0 1 6.762-4zm6-1a18.762 18.762 0 0 1 3.389.3l-.974 3.908a13.8 13.8 0 0 0 -4.83 0l-.974-3.908a18.82 18.82 0 0 1 3.389-.3zm10 7.851a14.969 14.969 0 0 0 -5.632-3.2l.966-3.881a18.717 18.717 0 0 1 7.489 4.23zm-19-7.831v-.02h-4v-6h5v5.588c-.336.138-.672.276-1 .432zm-11-.02v-6h5v6zm-7 0v-6h5v6zm9-14v6h-5v-6zm7 0v6h-5v-6zm-2-2v-6h5v6zm-2 0h-5v-6h5zm-7 0h-5v-6h5zm-7 0h-5v-6h5zm4 2v6h-5v-6zm0 16v6h-5v-6zm2 0h5v6h-5zm10.689 0a20.885 20.885 0 0 0 -2.651 2.278c-.362.367-.705.751-1.038 1.143v-3.421zm11.311-7v3.032a20.318 20.318 0 0 0 -3.837.534c-.392.092-.778.2-1.163.316v-4.882h3.988a.919.919 0 0 1 1.012 1zm4-8v4a.915.915 0 0 1 -1 1h-4v-6h4a1 1 0 0 1 1 1zm-4-8v4a1 1 0 0 1 -1 1h-4v-6h4a1 1 0 0 1 1 1zm-40 4v-4a1 1 0 0 1 1-1h4v6h-4a1 1 0 0 1 -1-1zm9 3v6h-4a1 1 0 0 1 -1-1v-4a1 1 0 0 1 1-1zm-9 13v-4a1 1 0 0 1 1-1h4v6h-4a1 1 0 0 1 -1-1zm4 8v-4a1 1 0 0 1 1-1h4v6h-4a1 1 0 0 1 -1-1zm19.25 18.779 3.843-1.185a15.009 15.009 0 0 0 2.507 4.129l-2.826 2.853a18.969 18.969 0 0 1 -3.524-5.797zm14.361 11.921.974-3.908a13.8 13.8 0 0 0 4.83 0l.974 3.908a19.245 19.245 0 0 1 -6.778 0zm17.616-6.119-2.827-2.858a15.009 15.009 0 0 0 2.506-4.129l3.843 1.185a18.978 18.978 0 0 1 -3.522 5.797z"></path><path d="m43 32a11 11 0 1 0 11 11 11.013 11.013 0 0 0 -11-11zm0 20a9 9 0 1 1 9-9 9.011 9.011 0 0 1 -9 9z"></path><path d="m48.645 39.2a4.805 4.805 0 0 0 -5.645-.506 4.807 4.807 0 0 0 -5.645.5 4.009 4.009 0 0 0 0 6.009l4.971 4.531a1 1 0 0 0 1.348 0l4.971-4.531a4.009 4.009 0 0 0 0-6.009zm-1.345 4.53-4.3 3.917-4.3-3.917a2.009 2.009 0 0 1 0-3.053 2.744 2.744 0 0 1 3.623 0 1 1 0 0 0 1.348 0 2.745 2.745 0 0 1 3.623 0 2.008 2.008 0 0 1 0 3.052z"></path><path d="m13 44h7v2h-7z"></path><path d="m17 37.172h2v5.657h-2z" transform="matrix(.707 -.707 .707 .707 -23.012 24.444)"></path><path d="m15.172 49h5.657v2h-5.657z" transform="matrix(.707 -.707 .707 .707 -30.083 27.373)"></path></svg>