<svg width="91" height="29" viewBox="0 0 91 29" fill="none" xmlns="http://www.w3.org/2000/svg">
<g clip-path="url(#clip0_95_370)">
<path d="M34.4004 21.3712V7.75541H38.9842C40.2014 7.6764 41.4185 7.99243 42.4544 8.67717C43.2831 9.33559 43.7233 10.3627 43.6456 11.4425C43.6456 12.0482 43.4903 12.6276 43.1536 13.128C42.791 13.6547 42.299 14.0498 41.7034 14.2868C42.3767 14.4448 42.9723 14.8399 43.3866 15.4193C43.8011 15.9986 44.0082 16.6834 43.9822 17.3945C44.0599 18.5006 43.6197 19.6068 42.791 20.3442C41.7811 21.0816 40.5639 21.4503 39.3208 21.3712H34.4004ZM36.7312 13.4967H39.0101C39.6316 13.5231 40.2272 13.3651 40.7193 12.9964C41.1595 12.6276 41.3666 12.0746 41.3149 11.5215C41.3666 10.9684 41.1595 10.4154 40.7452 10.0467C40.2272 9.7043 39.6057 9.54627 38.9842 9.59894H36.7312V13.4967ZM36.7312 15.235V19.5013H39.3208C39.9424 19.5277 40.5639 19.3433 41.056 18.9483C41.4444 18.5796 41.6774 18.0265 41.6516 17.4735C41.7293 16.8678 41.5221 16.2884 41.1077 15.867C40.6934 15.4456 40.0977 15.235 39.528 15.3139L36.7312 15.235Z" fill="#A0A0A0"/>
<path d="M46.0804 8.62458C46.0546 8.30854 46.1841 7.99252 46.3912 7.75548C46.6502 7.51845 46.9868 7.38678 47.3235 7.41311C47.6601 7.38678 48.0227 7.51845 48.2557 7.75548C48.4629 7.99252 48.5924 8.30854 48.5665 8.62458C48.5665 8.94062 48.4629 9.25666 48.2557 9.46734C47.9968 9.70437 47.6601 9.83605 47.3235 9.80972C46.9868 9.83605 46.6502 9.70437 46.3912 9.46734C46.1841 9.25666 46.0546 8.94062 46.0804 8.62458ZM48.4629 21.3713H46.2099V11.2582H48.4629V21.3713Z" fill="#A0A0A0"/>
<path fill-rule="evenodd" clip-rule="evenodd" d="M53.6677 8.78247V11.2317H55.4287V12.9173H53.6677V18.6059C53.6418 18.8956 53.7195 19.2117 53.9007 19.4486C54.1339 19.633 54.4187 19.7384 54.7036 19.712C54.9626 19.712 55.2216 19.6857 55.4804 19.633V21.3976C55.0143 21.5292 54.5223 21.6083 54.0302 21.6083C52.2952 21.6083 51.4406 20.6338 51.4406 18.6586V12.9436H49.7832V11.2581H51.4406V8.80881H53.6677V8.78247Z" fill="#A0A0A0"/>
<path fill-rule="evenodd" clip-rule="evenodd" d="M61.2301 19.7384C61.748 19.7648 62.266 19.6068 62.6803 19.2644C63.0429 18.9483 63.2501 18.527 63.2759 18.0529H65.3995C65.3736 18.685 65.1664 19.2907 64.8039 19.8175C64.4413 20.3706 63.9493 20.8182 63.3537 21.108C62.7321 21.424 62.033 21.6083 61.3337 21.582C60.0906 21.6347 58.8734 21.1342 58.0188 20.1862C57.1642 19.1327 56.7241 17.7632 56.8018 16.3937V16.1566C56.7241 14.8136 57.1642 13.4967 58.0188 12.4697C58.8734 11.5215 60.0906 11.0211 61.3337 11.0738C62.3955 11.0211 63.4314 11.3898 64.2341 12.1272C64.9851 12.8384 65.4254 13.8391 65.4254 14.8925H63.2242C63.2242 14.3394 63.017 13.8127 62.6544 13.4177C62.266 13.0227 61.748 12.812 61.2042 12.8646C60.5568 12.8384 59.9353 13.128 59.5468 13.6547C59.1066 14.3658 58.8734 15.235 58.9512 16.0777V16.4464C58.8994 17.3155 59.1066 18.1583 59.5468 18.8957C59.8835 19.475 60.5568 19.7911 61.2301 19.7384Z" fill="#A0A0A0"/>
<path d="M66.5902 16.2357C66.5902 15.3139 66.7715 14.3922 67.1599 13.5495C67.5224 12.7857 68.0922 12.1272 68.8173 11.7059C69.5424 11.2845 70.3711 11.0475 71.2257 11.0738C72.4428 11.0211 73.6341 11.4952 74.4887 12.3906C75.3433 13.3387 75.8354 14.6029 75.8612 15.8934V16.4201C75.8871 17.3418 75.6799 18.2636 75.2914 19.1063C74.929 19.8701 74.3851 20.5022 73.66 20.9235C72.9349 21.3713 72.0803 21.582 71.2257 21.582C69.9309 21.6347 68.7137 21.0816 67.8591 20.1072C66.9786 19.0537 66.5125 17.6842 66.5902 16.2884V16.2357ZM68.8431 16.4464C68.7914 17.3155 69.0245 18.1582 69.4906 18.8956C69.879 19.475 70.5523 19.8174 71.2516 19.7912C71.9509 19.8174 72.6241 19.475 73.0126 18.8956C73.4787 18.1056 73.7117 17.1838 73.66 16.2621C73.7117 15.393 73.4787 14.5502 73.0126 13.8391C72.5982 13.286 71.9509 12.9437 71.2516 12.9437C70.5523 12.9437 69.9049 13.286 69.4906 13.8391C68.9986 14.6029 68.7655 15.4983 68.8431 16.4464Z" fill="#A0A0A0"/>
<path d="M77.7517 8.62458C77.7259 8.30854 77.8552 7.99252 78.0625 7.75548C78.2955 7.51845 78.6321 7.38678 78.9688 7.41311C79.3055 7.38678 79.668 7.51845 79.9012 7.75548C80.1342 7.99252 80.2378 8.30854 80.2378 8.62458C80.2378 8.94062 80.1342 9.25666 79.9012 9.46734C79.6422 9.70437 79.3055 9.83605 78.9688 9.80972C78.6321 9.83605 78.2955 9.70437 78.0365 9.46734C77.8294 9.25666 77.7259 8.94062 77.7517 8.62458ZM80.1342 21.3713H77.8812V11.2582H80.1342V21.3713Z" fill="#A0A0A0"/>
<path fill-rule="evenodd" clip-rule="evenodd" d="M84.6143 11.2582L84.6919 12.4434C85.3911 11.5479 86.4529 11.0475 87.5924 11.1002C89.6642 11.1002 90.7259 12.3117 90.7518 14.7346V21.424H88.4988V14.7609C88.5506 14.2342 88.3951 13.7075 88.0843 13.2861C87.7218 12.9437 87.2297 12.7594 86.7378 12.8121C85.8572 12.8121 85.0544 13.3388 84.7178 14.1553V21.345H82.5166V11.2582H84.6143Z" fill="#A0A0A0"/>
<path fill-rule="evenodd" clip-rule="evenodd" d="M10.6745 28.2374C18.1251 30.1588 25.6826 25.5546 27.572 17.9776C28.4989 14.2797 27.9285 10.4006 26.0035 7.17406C24.0784 3.91124 20.977 1.59101 17.3765 0.684678C9.89026 -1.16425 2.36838 3.43995 0.514647 11.0532C-1.33908 18.6664 3.1883 26.3159 10.6745 28.2374ZM15.7217 8.07592C17.7864 8.28024 19.4059 8.92876 19.5614 10.8296L19.6127 10.8916C19.8097 12.0366 19.2287 13.1478 18.2041 13.6217C18.9639 13.7344 19.6518 14.163 20.0608 14.8088C20.4699 15.4547 20.6184 16.2387 20.4298 16.993C20.1651 19.4438 18.3086 20.1208 15.627 20.2536L15.6286 22.9003L14.0119 22.885L14.1045 20.327L12.8511 20.2975L12.8179 22.9527L11.2359 22.9288L11.2607 20.2383L10.1195 20.2187L8.06183 20.1991L8.38199 18.294L9.43855 18.1107C9.58552 18.1121 9.72417 18.0782 9.84618 17.9738C9.96819 17.8696 10.0472 17.7384 10.0486 17.5889L10.1218 13.3953L10.1493 10.4058C10.0841 9.97434 9.68058 9.66275 9.24797 9.6938C9.27431 9.65008 8.10682 9.67415 8.10682 9.67415L8.10531 7.95946L10.3266 8.05096L11.3124 8.03395L11.3191 5.42245L12.9013 5.4463L12.8862 8.02256L14.1661 8.00836L14.1811 5.4321L15.7631 5.45596L15.7217 8.07592ZM13.0912 18.2693C14.375 18.33 17.2577 18.4664 17.2434 16.5407C17.2685 14.6702 14.4745 14.7208 13.1674 14.7444C13.0367 14.7468 12.921 14.7488 12.8243 14.7487L12.8093 18.2571C12.8908 18.2599 12.9856 18.2643 13.0912 18.2693ZM13.1061 13.1176C14.2198 13.1409 16.5299 13.1893 16.5374 11.5306L16.6066 11.5137C16.5989 9.78773 14.2902 9.85501 13.1549 9.8881C13.0408 9.89141 12.9386 9.8944 12.8517 9.89517L12.8048 13.113C12.8901 13.113 12.9918 13.1152 13.1061 13.1176Z" fill="#A0A0A0"/>
</g>
<defs>
<clipPath id="clip0_95_370">
<rect width="90.6525" height="28.3972" fill="white" transform="translate(0.0996094 0.276611)"/>
</clipPath>
</defs>
</svg>
