<svg width="488" height="107" viewBox="0 0 488 107" fill="none" xmlns="http://www.w3.org/2000/svg">
<path d="M336.79 17.3674C325.514 31.9829 302.549 53.023 285.766 67.3762C284.661 68.3204 282.663 67.9807 281.668 66.1397C280.008 63.0723 279.537 59.0855 283.738 54.3844C296.139 40.5058 307.541 26.6448 314.203 18.3566C316.356 15.6788 316.249 14.4973 312.723 13.8078C304.162 12.1292 291.886 10.2533 284.027 9.10172C281.434 8.72203 280.085 6.49387 279.687 4.43307C279.231 2.07501 279.906 0.843524 281.571 0.743607C294.713 -0.0332533 314.447 -0.537838 330.937 0.990903C341.317 1.95261 342.767 9.62129 336.79 17.3674Z" fill="url(#paint0_linear_13_1471)"/>
<path d="M487.861 1.84281C487.087 4.22835 486.407 6.32412 485.593 8.69717C485.001 10.4282 483.812 11.4574 481.935 11.5673C478.777 11.5673 466.934 11.6847 463.472 11.6847C460.332 11.8546 458.508 13.3658 457.918 16.4758C457.029 21.1569 456.233 25.8555 455.394 30.5467C454.138 37.5809 452.921 44.6226 451.599 51.6468C450.82 55.7909 452.164 57.5569 456.343 57.5744C457.871 57.5819 459.401 57.6144 460.927 57.5394C464.348 57.3721 466.608 55.571 467.355 52.2138C468.091 48.5044 468.499 46.0264 469.079 42.934C469.199 42.2995 468.97 42.0847 468.36 42.0946C467.3 42.1121 465.742 42.1296 464.682 42.0822C462.221 41.9698 461.922 41.1105 461.962 38.675C461.997 36.5018 462.069 34.3285 462.051 32.1553C462.044 31.3135 462.402 31.0488 463.149 31.0488C466.148 31.0488 479.885 31.1512 481.487 31.1512C483.09 31.1512 483.993 32.2702 483.777 34.0138C483.53 35.9972 483.16 37.9656 482.819 39.9364C481.915 45.1771 481.007 50.4178 480.089 55.6535C479.429 59.4229 478.722 63.1873 478.098 66.9617C477.968 67.746 477.72 68.0383 476.898 68.0133C474.99 67.9509 473.078 68.0183 471.167 67.9808C468.776 67.9334 468.091 67.2439 467.877 64.8734C467.82 64.2489 467.755 63.477 467.676 62.6952C467.628 62.2306 466.964 62.1481 466.658 62.6477C464.53 66.1298 460.227 68.4504 457.194 68.7027C454.158 68.955 451.246 68.8726 448.285 68.6877C444.912 68.4779 441.762 67.5287 439.487 64.741C437.827 62.7052 437.255 60.2847 437.081 57.7393C436.857 54.4819 437.38 51.2846 437.939 48.0947C439.475 39.3369 441.013 30.5816 442.521 21.8189C443.163 18.0819 443.845 14.3675 445.465 10.8954C448.056 5.33494 452.423 2.08262 458.371 1.02599C460.782 0.598838 463.258 0.476439 465.712 0.389011C468.639 0.284098 471.57 0.364032 474.499 0.364032C478.703 0.364032 482.44 0.359036 486.644 0.36653C487.851 0.36653 488.239 0.676275 487.861 1.84281ZM69.5638 9.49401C70.2806 14.8946 69.1084 20.1927 66.9284 25.1836C65.5522 28.3335 62.8098 30.8864 59.4776 31.5408C58.7584 31.6832 58.2283 31.6807 58.2756 32.3302C58.3105 32.8023 58.5543 32.7948 59.3407 33.0396C61.9886 33.8614 63.9695 35.4851 65.0172 38.1329C65.8036 40.1163 66.0301 42.2021 65.7986 44.2853C65.3133 48.6817 64.7235 53.0781 63.2329 57.2721C61.0554 63.3946 56.5759 66.7194 50.2798 67.7435C45.3872 68.5404 40.4548 68.1282 35.5399 68.2231C34.6913 68.2406 33.8427 68.2256 32.9941 68.2256C28.4524 68.2256 23.9107 68.2056 19.369 68.2431C18.5105 68.2506 18.3114 68.0408 18.4657 67.179C19.4736 61.5686 20.4317 55.9532 21.4047 50.3379C23.0671 40.7408 24.7245 31.1412 26.3894 21.5466C27.5316 14.967 28.6888 8.39242 29.8286 1.81284C29.9505 1.10592 30.0302 0.563867 31.0156 0.573859C40.0965 0.661287 49.1773 0.811163 58.2582 0.811163C64.7061 0.808665 68.8695 4.24084 69.5638 9.49401ZM47.2114 38.2578C44.2425 38.2578 41.6071 38.2553 38.8074 38.2153C38.0384 38.2054 37.6776 38.4277 37.5357 39.237C36.5577 44.8948 35.5424 50.5477 34.5171 56.198C34.3703 57.0074 34.639 57.2497 35.4354 57.2422C38.1554 57.2172 42.717 57.1872 45.4893 57.0898C47.7464 57.0099 49.3267 55.651 49.8294 53.4053C50.454 50.6301 51.2429 45.8615 51.7257 43.0539C52.3403 39.4643 50.1827 38.2578 47.2114 38.2578ZM51.6062 11.6622C48.8912 11.6048 46.1761 11.6722 43.4611 11.6123C42.6423 11.5948 42.3412 11.932 42.2118 12.6614C41.3781 17.35 40.5395 22.0337 39.6809 26.7173C39.5565 27.3943 39.7506 27.6316 40.4424 27.6316C42.2889 27.6316 46.2383 27.6016 48.0774 27.6016C51.2702 27.6016 53.174 26.0529 53.9554 22.9504C54.5353 20.6498 54.8961 18.2868 55.2196 15.9312C55.6128 13.0736 54.4482 11.7222 51.6062 11.6622ZM237.745 0.588847C233.246 0.656291 228.741 0.586349 224.249 0.793678C220.524 0.966036 217.767 2.88945 216.137 6.30164C215.385 7.87285 214.676 9.46903 214.019 11.0827C212.424 14.992 210.368 19.7231 209.044 22.858C208.33 24.5491 207.83 25.8755 207.554 26.7998C206.954 28.8106 206.439 30.7315 205.966 32.6125C205.846 33.0921 205.092 32.9847 205.08 32.4876C205.067 32.0205 205.406 27.4792 205.431 26.8997C205.49 25.5408 205.533 24.2743 205.421 22.2235C205.145 17.1202 204.689 12.0269 204.181 6.94111C203.843 3.53892 202.434 1.46812 198.866 0.931065C198.196 0.831147 197.522 0.70625 196.85 0.696258C192.774 0.646299 188.7 0.638805 184.624 0.586349C183.917 0.578855 183.698 0.871114 183.586 1.54056C183.131 4.26832 173.943 56.4104 172.138 66.6444C171.932 67.821 172.218 68.2231 173.43 68.2256C177.081 68.2306 183.155 68.2606 184.026 68.2606C184.895 68.2606 185.46 67.9234 185.634 66.9042C186.955 59.1456 188.245 51.3795 189.715 43.6484C191.017 36.819 191.868 29.9472 192.321 23.0154C192.493 20.38 192.746 17.7497 193.013 15.1244C193.045 14.8071 193.393 14.5224 193.595 14.2226C193.914 14.4999 194.262 14.7522 194.533 15.0719C194.645 15.2043 194.59 15.4816 194.61 15.6939C194.742 17.1352 194.877 18.5765 195.009 20.0203C195.561 26.1278 196.109 32.2353 196.671 38.3427C196.987 41.7774 197.315 45.2121 197.669 48.6418C197.833 50.2229 198.445 50.8025 200.06 50.8949C201.203 50.9598 203.213 50.9524 204.393 50.9524C206.2 50.9524 207.033 50.6151 207.782 48.8491C209.276 45.3245 222.483 15.3792 222.659 14.9745C222.983 14.2326 224.463 14.4649 224.225 15.3317C223.356 18.4891 222.53 21.6565 221.689 24.8214C220.813 28.1087 219.765 31.366 219.125 34.7007C217.739 41.9273 216.565 49.1963 215.3 56.4478C214.621 60.3396 213.665 65.7252 213.491 66.7593C213.317 67.791 213.673 68.2206 214.566 68.2206C215.46 68.2206 221.826 68.2081 225.902 68.2506C226.75 68.2581 226.867 67.6111 226.979 66.9692C228.142 60.3046 237.436 7.14345 238.439 1.53307C238.556 0.858624 238.474 0.578855 237.745 0.588847ZM173.559 16.0636C172.634 21.8588 168.49 45.6592 167.365 51.7667C166.87 54.452 166.004 57.0298 164.735 59.4628C162.08 64.5462 157.841 67.5137 152.292 68.4055C148.875 68.955 136.126 68.99 133.259 68.7152C131.764 68.5728 130.251 68.1407 128.847 67.5836C124.649 65.915 122.7 62.5753 122.312 58.1989C122.013 54.8566 122.499 51.5693 123.076 48.2945C124.081 42.5992 127.784 21.5716 128.723 16.773C129.439 13.106 130.741 9.64888 133.07 6.67134C136.196 2.67213 140.479 0.69376 145.371 0.2816C149.716 -0.0855977 159.626 0.106744 163.772 0.568863C168.276 1.07095 172.116 3.81119 173.286 8.44987C173.913 10.9603 173.965 13.5282 173.559 16.0636ZM159.282 15.3617C159.564 12.7363 158.257 11.33 155.619 11.2176C153.205 11.1152 150.779 11.1102 148.365 11.2226C145.986 11.335 144.294 12.569 143.502 14.8796C143.241 15.6414 143.039 16.4308 142.9 17.2251C141.643 24.3018 140.404 31.381 139.165 38.4601C138.321 43.2762 137.475 48.0947 136.644 52.9132C136.126 55.9208 137.56 57.6843 140.616 57.7917C141.676 57.8292 145.665 57.8167 146.601 57.8067C150.221 57.7667 152.153 56.228 152.817 52.6909C153.658 48.2196 154.402 43.7283 155.194 39.2495C156.097 34.1412 157.015 29.0354 157.906 23.9246C158.396 21.0745 158.974 18.2318 159.282 15.3617ZM121.214 8.44987C121.847 10.9578 121.896 13.5257 121.493 16.0636C120.567 21.8588 116.424 45.6592 115.299 51.7667C114.804 54.452 113.94 57.0298 112.669 59.4628C110.013 64.5462 105.775 67.5137 100.223 68.4055C96.8064 68.955 84.0574 68.99 81.1905 68.7152C79.6949 68.5728 78.1818 68.1407 76.7783 67.5836C72.58 65.915 70.6315 62.5753 70.2407 58.1989C69.9421 54.8566 70.4274 51.5693 71.0047 48.2945C72.0101 42.5992 75.7132 21.5716 76.6513 16.773C77.3681 13.106 78.6696 9.64888 80.9989 6.67134C84.1246 2.67213 88.4074 0.69376 93.3025 0.2816C97.6476 -0.0855977 107.557 0.106744 111.703 0.568863C116.205 1.07095 120.047 3.81119 121.214 8.44987ZM107.216 15.3617C107.497 12.7363 106.191 11.33 103.553 11.2176C101.139 11.1152 98.7127 11.1102 96.2987 11.2226C93.9221 11.335 92.2274 12.569 91.436 14.8796C91.1747 15.6414 90.9732 16.4308 90.8313 17.2251C89.5746 24.3018 88.3353 31.381 87.0959 38.4601C86.2523 43.2762 85.4062 48.0947 84.575 52.9132C84.0574 55.9208 85.4908 57.6843 88.5468 57.7917C89.6069 57.8292 93.5961 57.8167 94.5318 57.8067C98.1527 57.7667 100.084 56.228 100.748 52.6909C101.589 48.2196 102.334 43.7283 103.125 39.2495C104.026 34.1412 104.947 29.0354 105.835 23.9246C106.333 21.0745 106.91 18.2318 107.216 15.3617ZM371.029 3.50394C371.492 9.40658 373.853 40.6783 375.889 67.0866C375.959 67.9858 375.76 68.2581 374.839 68.2431C371.611 68.1907 368.383 68.2431 365.158 68.2156C362.349 68.1931 361.289 67.1065 361.159 64.2539C361.02 61.1889 360.863 58.1239 360.706 55.059C360.636 53.7001 360.497 53.5452 359.091 53.5402C354.888 53.5252 350.682 53.5527 346.479 53.5227C345.396 53.5152 344.769 53.9324 344.371 54.9615C343.099 58.2538 341.746 61.5137 340.444 64.7959C339.513 67.144 337.754 68.2131 335.298 68.2156C328.504 68.2231 321.71 68.2206 314.914 68.2106C314.408 68.2106 313.901 68.1232 313.393 68.0907C310.897 67.9209 309.745 66.4895 309.143 64.114C308.511 61.6236 307.652 58.706 307.219 56.7701C306.851 55.1214 306.895 54.5644 308.189 53.4303C309.481 52.2987 316.282 46.4785 317.211 45.6867C318.139 44.8923 319.032 45.302 319.438 46.7733C320.249 49.7059 321.635 54.6943 322.663 58.2888C323.432 60.9841 324.204 63.6769 324.973 66.3697C325.077 66.3647 325.179 66.3597 325.284 66.3547C326.202 64.2139 327.128 62.0732 328.041 59.93C335.952 41.3403 351.695 4.45816 352.364 2.89195C353.034 1.32574 354.465 0.481435 356.262 0.483933C360.126 0.488929 363.991 0.458954 367.853 0.493925C369.964 0.518904 370.862 1.38569 371.029 3.50394ZM359.658 23.0079C359.723 20.3676 360.116 15.6864 360.134 15.1543C360.151 14.6223 359.255 14.4574 359.143 14.997C359.031 15.5365 356.092 24.5066 354.485 29.0304C353.046 33.0771 351.429 37.0563 349.893 41.0655C349.341 42.5093 349.463 42.7041 350.946 42.7066C353.41 42.7116 355.871 42.7091 358.335 42.7066C360.086 42.7041 360.186 42.5817 360.116 40.7682C359.962 36.5967 359.818 32.4226 359.651 27.759C359.651 26.5 359.616 24.7514 359.658 23.0079ZM437.449 0.581353C433.4 0.581353 429.424 0.571361 426.741 0.571361C425.362 0.571361 424.81 1.2558 424.576 2.60968C423.496 8.8995 422.465 14.5349 421.383 20.8247C420.582 25.4783 419.594 30.112 419.049 34.7957C418.354 40.7558 418.028 46.9531 417.717 52.9507C417.675 53.78 416.458 53.8675 416.378 52.8982C414.644 31.8131 413.663 19.0761 412.553 5.35242C412.277 1.92525 410.732 0.571361 408.007 0.571361C404.291 0.571361 395.213 0.636308 393.006 0.573859C392.085 0.546382 391.779 0.86362 391.647 1.76288C391.273 4.33076 390.791 6.88116 390.343 9.43906C389.041 16.8554 381.267 61.4937 380.359 66.7768C380.11 68.2181 380.14 68.2231 381.548 68.2231C384.733 68.2231 387.916 68.2231 391.102 68.2231C393.879 68.2231 393.844 68.2181 394.305 65.4754C395.173 60.3146 398.923 40.0563 399.565 35.0405C400.22 29.9347 400.464 24.7739 400.879 19.6382C400.999 18.1519 401.064 16.6606 401.22 15.1793C401.302 14.4075 402.644 14.4999 402.689 15.2418C402.915 18.8563 403.281 23.1777 403.535 26.7898C404.03 33.7565 405.667 57.2996 406.058 62.0957C406.357 65.7577 408.121 67.5262 411.762 67.9459C413.066 68.0957 414.382 68.1956 415.694 68.2106C418.922 68.2481 422.147 68.2231 425.375 68.2231C426.835 68.2231 426.853 68.2256 427.109 66.7518C427.828 62.6028 436.897 10.3733 438.44 1.74539C438.616 0.763703 438.335 0.581353 437.449 0.581353ZM274.663 28.341C273.807 28.341 262.35 28.3435 256.193 28.3385C254.964 28.3385 254.934 28.3185 255.14 27.132C255.952 22.4808 256.82 17.8371 257.579 13.176C257.758 12.0644 258.236 11.8571 259.249 11.8646C264.181 11.8995 270.4 11.8795 274.046 11.8795C277.692 11.8795 274.392 0.593843 272.881 0.593843C271.371 0.593843 255.058 0.593843 247.179 0.593843C245.509 0.593843 245.527 0.598838 245.236 2.30743C244.539 6.41904 238.086 43.3461 237.212 48.4619C236.575 52.1988 235.874 55.9282 236.799 59.7351C237.494 62.5903 239.029 64.751 241.627 66.1398C244.681 67.771 248.033 68.1307 251.38 68.1807C258.808 68.2881 266.242 68.2056 273.673 68.2456C274.559 68.2506 274.74 67.9109 274.74 67.134C274.74 65.1731 274.79 63.2122 274.837 61.2539C274.925 57.6618 274.253 56.9424 270.711 56.9349C265.913 56.9224 261.115 56.9424 256.317 56.9224C255.387 56.9199 254.446 56.86 253.525 56.7226C251.778 56.4653 250.833 55.3712 250.798 53.5902C250.783 52.7833 250.813 51.964 250.942 51.1722C251.542 47.5202 252.231 43.8807 252.784 40.2212C252.948 39.1321 253.363 38.8423 254.421 38.8523C259.431 38.9023 264.443 38.8898 269.452 38.8598C271.669 38.8473 272.941 37.9356 273.66 35.8398C274.355 33.8115 275.462 30.4193 275.684 29.5875C275.905 28.7556 275.522 28.341 274.663 28.341ZM300.37 15.9112C297.553 15.2093 293.945 14.6797 291.384 14.415C289.973 14.2701 289.324 14.6423 289.144 15.7414C288.132 21.9013 285.961 34.7757 284.879 41.2528C284.548 43.2262 285.937 42.904 286.773 42.0672C292.073 36.7491 298.397 30.3543 299.387 29.0304C300.375 27.7065 300.684 27.0745 301.025 25.4783C301.366 23.8822 301.757 20.7547 302.085 18.8188C302.409 16.8854 301.854 16.2809 300.37 15.9112Z" fill="white"/>
<path d="M0 107L4.66285 83.5122H9.05925L15.6872 100.155L13.3557 100.121L26.2785 83.5122H30.908L26.2785 107H21.216L24.3134 91.2632H25.3459L15.0543 104.517H12.6563L7.1608 91.2296L8.15999 91.3303L5.06252 107H0Z" fill="#0A92F9"/>
<path d="M44.2331 92.9744H55.4572L54.6245 97.2022H43.4004L44.2331 92.9744ZM42.701 102.638H55.4239L54.5246 107H36.4727L41.1356 83.5122H58.7545L57.8552 87.8742H45.6319L42.701 102.638Z" fill="#0A92F9"/>
<path d="M63.4806 107L68.1434 83.5122H77.9021C80.3001 83.5122 82.354 83.9149 84.0637 84.7202C85.7956 85.5031 87.1168 86.6327 88.0271 88.1091C88.9375 89.5631 89.3927 91.2967 89.3927 93.31C89.3927 95.3903 89.0374 97.2694 88.3269 98.9471C87.6386 100.625 86.6505 102.068 85.3627 103.276C84.0748 104.461 82.5427 105.378 80.7664 106.027C78.9901 106.676 77.025 107 74.8713 107H63.4806ZM69.7754 102.537H75.0378C76.9251 102.537 78.5238 102.146 79.8339 101.363C81.1661 100.58 82.1764 99.5175 82.8647 98.1753C83.5752 96.8331 83.9305 95.312 83.9305 93.612C83.9305 92.4488 83.6863 91.4533 83.1978 90.6257C82.7093 89.7756 81.9654 89.1269 80.9663 88.6795C79.9893 88.2098 78.7681 87.9749 77.3026 87.9749H72.673L69.7754 102.537Z" fill="#0A92F9"/>
<path d="M95.66 107L100.323 83.5122H105.752L101.089 107H95.66Z" fill="#0A92F9"/>
<path d="M108.187 107L123.242 83.5122H128.604L134.332 107H128.937L124.407 86.1965H126.539L113.949 107H108.187ZM114.415 101.967L116.614 97.8398H128.637L129.27 101.967H114.415Z" fill="#0A92F9"/>
<defs>
<linearGradient id="paint0_linear_13_1471" x1="279.552" y1="33.9428" x2="340.306" y2="33.9428" gradientUnits="userSpaceOnUse">
<stop stop-color="#0098FF"/>
<stop offset="0.6974" stop-color="#FF0069"/>
</linearGradient>
</defs>
</svg>
