<svg width="65" height="65" viewBox="0 0 65 65" fill="none" xmlns="http://www.w3.org/2000/svg">
<circle cx="32.5" cy="32.5" r="32.5" fill="#0098FF"/>
<path d="M32.3137 24.121C32.7759 23.6471 33.3275 23.2696 33.9366 23.0106C34.5458 22.7515 35.2003 22.6159 35.8622 22.6118C36.5241 22.6076 37.1803 22.735 37.7926 22.9864C38.405 23.2378 38.9613 23.6083 39.4293 24.0764C39.8974 24.5445 40.2678 25.1009 40.5191 25.7132C40.7704 26.3256 40.8977 26.9818 40.8934 27.6437C40.8892 28.3057 40.7536 28.9602 40.4944 29.5693C40.2352 30.1784 39.8577 30.7299 39.3837 31.192L31.6067 38.97C31.329 39.2523 30.9982 39.4769 30.6332 39.6307C30.2683 39.7845 29.8765 39.8646 29.4805 39.8662C29.0845 39.8679 28.6921 39.7911 28.3259 39.6404C27.9597 39.4896 27.627 39.2678 27.3469 38.9878C27.0668 38.7078 26.845 38.3752 26.6941 38.009C26.5433 37.6428 26.4664 37.2504 26.468 36.8544C26.4695 36.4584 26.5495 36.0666 26.7032 35.7016C26.857 35.3367 27.0815 35.0058 27.3637 34.728L35.1417 26.95L36.5557 28.364L28.7777 36.142C28.6822 36.2342 28.606 36.3446 28.5536 36.4666C28.5012 36.5886 28.4736 36.7198 28.4725 36.8526C28.4713 36.9854 28.4966 37.1171 28.5469 37.2399C28.5972 37.3628 28.6714 37.4745 28.7653 37.5684C28.8592 37.6623 28.9709 37.7365 29.0938 37.7868C29.2167 37.8371 29.3484 37.8624 29.4811 37.8612C29.6139 37.8601 29.7451 37.8325 29.8671 37.7801C29.9891 37.7277 30.0995 37.6515 30.1917 37.556L37.9707 29.778C38.2493 29.4994 38.4703 29.1686 38.6211 28.8046C38.7719 28.4406 38.8495 28.0505 38.8495 27.6565C38.8495 27.2625 38.7719 26.8724 38.6211 26.5083C38.4703 26.1443 38.2493 25.8136 37.9707 25.535C37.6921 25.2564 37.3614 25.0354 36.9974 24.8846C36.6334 24.7338 36.2432 24.6562 35.8492 24.6562C35.4552 24.6562 35.0651 24.7338 34.7011 24.8846C34.3371 25.0354 34.0063 25.2564 33.7277 25.535L25.9497 33.314C25.0389 34.257 24.535 35.52 24.5464 36.831C24.5578 38.142 25.0836 39.396 26.0106 40.3231C26.9377 41.2501 28.1917 41.776 29.5027 41.7874C30.8137 41.7988 32.0767 41.2948 33.0197 40.384L41.5057 31.899L42.9197 33.314L34.4347 41.799C33.1219 43.1118 31.3413 43.8494 29.4847 43.8494C27.6281 43.8494 25.8476 43.1118 24.5347 41.799C23.2219 40.4862 22.4844 38.7056 22.4844 36.849C22.4844 34.9924 23.2219 33.2118 24.5347 31.899L32.3137 24.121Z" fill="white"/>
</svg>
