<svg width="32" height="32" viewBox="0 0 32 32" fill="none" xmlns="http://www.w3.org/2000/svg">
<path d="M27.1083 8.24698L17.5781 2.73298C16.6832 2.21498 15.2324 2.21498 14.3374 2.73298L4.8073 8.24698C4.10336 8.65398 3.95337 9.25998 4.35734 9.75198L15.2114 15.95C15.7723 16.062 16.3933 16.044 16.9352 15.896L27.4223 9.89398C27.9862 9.38098 27.8822 8.69398 27.1083 8.24698ZM9.95983 9.96598C9.1809 10.428 7.91902 10.428 7.14009 9.96598C6.36116 9.50398 6.36116 8.75498 7.14009 8.29298C7.91902 7.83098 9.1809 7.83098 9.95983 8.29298C10.7388 8.75498 10.7388 9.50398 9.95983 9.96598ZM17.3962 14.378C16.6172 14.84 15.3553 14.84 14.5764 14.378C13.7975 13.916 13.7975 13.167 14.5764 12.705C15.3553 12.243 16.6172 12.243 17.3962 12.705C18.1751 13.167 18.1751 13.916 17.3962 14.378ZM14.5764 8.30898C15.3553 7.84698 16.6172 7.84698 17.3962 8.30898C18.1751 8.77098 18.1751 9.51998 17.3962 9.98198C16.6172 10.444 15.3553 10.444 14.5764 9.98198C13.7975 9.51998 13.7975 8.77098 14.5764 8.30898ZM17.3962 5.58598C16.6172 6.04798 15.3553 6.04798 14.5764 5.58598C13.7975 5.12398 13.7975 4.37498 14.5764 3.91298C15.3553 3.45098 16.6172 3.45098 17.3962 3.91298C18.1751 4.37498 18.1751 5.12398 17.3962 5.58598ZM24.8035 9.98198C24.0246 10.444 22.7627 10.444 21.9838 9.98198C21.2048 9.51998 21.2048 8.77098 21.9838 8.30898C22.7627 7.84698 24.0246 7.84698 24.8035 8.30898C25.5824 8.77098 25.5824 9.51998 24.8035 9.98198ZM27.7632 10.18L16.6642 16.532C16.4952 16.767 16.3503 17.026 16.2373 17.292H16.2913V29.229C16.5862 29.521 17.0612 29.547 17.5961 29.237L26.7633 23.943C27.6582 23.426 28.3842 22.169 28.3842 21.135V11.295C28.3842 10.697 28.1412 10.305 27.7622 10.181L27.7632 10.18ZM20.0899 24.856C20.0919 25.717 19.464 26.779 18.689 27.228C17.9141 27.677 17.2842 27.344 17.2822 26.483C17.2822 26.481 17.2822 26.479 17.2822 26.477C17.2802 25.616 17.9081 24.554 18.683 24.105C19.458 23.656 20.0879 23.989 20.0899 24.85C20.0899 24.852 20.0899 24.854 20.0899 24.856ZM20.0899 17.199C20.0919 18.06 19.464 19.122 18.689 19.571C17.9141 20.02 17.2842 19.687 17.2822 18.826C17.2822 18.824 17.2822 18.822 17.2822 18.82C17.2802 17.959 17.9081 16.897 18.683 16.448C19.458 15.999 20.0879 16.332 20.0899 17.193C20.0899 17.195 20.0899 17.197 20.0899 17.199ZM23.5836 22.838C23.5856 23.699 22.9577 24.761 22.1827 25.21C21.4078 25.659 20.7779 25.326 20.7759 24.465C20.7759 24.463 20.7759 24.461 20.7759 24.459C20.7739 23.598 21.4018 22.536 22.1767 22.087C22.9517 21.638 23.5816 21.971 23.5836 22.832C23.5836 22.834 23.5836 22.836 23.5836 22.838ZM23.5836 15.181C23.5856 16.042 22.9577 17.104 22.1827 17.553C21.4078 18.002 20.7779 17.669 20.7759 16.808C20.7759 16.806 20.7759 16.804 20.7759 16.802C20.7739 15.941 21.4018 14.879 22.1767 14.43C22.9517 13.981 23.5816 14.314 23.5836 15.175C23.5836 15.177 23.5836 15.179 23.5836 15.181ZM27.0783 20.821C27.0803 21.682 26.4524 22.744 25.6774 23.193C24.9025 23.642 24.2725 23.309 24.2705 22.448C24.2705 22.446 24.2705 22.444 24.2705 22.442C24.2685 21.581 24.8965 20.519 25.6714 20.07C26.4464 19.621 27.0763 19.954 27.0783 20.815C27.0783 20.817 27.0783 20.819 27.0783 20.821ZM27.0783 13.164C27.0803 14.025 26.4524 15.087 25.6774 15.536C24.9025 15.985 24.2725 15.652 24.2705 14.791C24.2705 14.789 24.2705 14.787 24.2705 14.785C24.2685 13.924 24.8965 12.862 25.6714 12.413C26.4464 11.964 27.0763 12.297 27.0783 13.158C27.0783 13.16 27.0783 13.162 27.0783 13.164ZM15.7393 17.352C15.6073 17.027 15.4273 16.711 15.2134 16.433L4.23835 10.166C3.83138 10.271 3.56641 10.671 3.56641 11.295V21.135C3.56641 22.169 4.29234 23.426 5.18726 23.943L14.3544 29.237C14.9404 29.575 15.4543 29.513 15.7383 29.139L15.7393 17.352ZM7.68104 22.448C7.67904 23.309 7.05009 23.642 6.27416 23.193C5.49823 22.744 4.87129 21.682 4.87329 20.821C4.87329 20.819 4.87329 20.817 4.87329 20.815C4.87529 19.954 5.50423 19.621 6.28016 20.07C7.05609 20.519 7.68304 21.581 7.68104 22.442C7.68104 22.444 7.68104 22.446 7.68104 22.448ZM7.68104 14.791C7.67904 15.652 7.05009 15.985 6.27416 15.536C5.49823 15.087 4.87129 14.025 4.87329 13.164C4.87329 13.162 4.87329 13.16 4.87329 13.158C4.87529 12.297 5.50423 11.964 6.28016 12.413C7.05609 12.862 7.68304 13.924 7.68104 14.785C7.68104 14.787 7.68104 14.789 7.68104 14.791ZM14.6694 26.483C14.6674 27.344 14.0385 27.677 13.2625 27.228C12.4866 26.779 11.8597 25.717 11.8617 24.856C11.8617 24.854 11.8617 24.852 11.8617 24.85C11.8637 23.989 12.4926 23.656 13.2685 24.105C14.0445 24.554 14.6714 25.616 14.6694 26.477C14.6694 26.479 14.6694 26.481 14.6694 26.483ZM14.6694 18.826C14.6674 19.687 14.0385 20.02 13.2625 19.571C12.4866 19.122 11.8597 18.06 11.8617 17.199C11.8617 17.197 11.8617 17.195 11.8617 17.193C11.8637 16.332 12.4926 15.999 13.2685 16.448C14.0445 16.897 14.6714 17.959 14.6694 18.82C14.6694 18.822 14.6694 18.824 14.6694 18.826Z" fill="black"/>
<path d="M27.1083 8.24698L17.5781 2.73298C16.6832 2.21498 15.2324 2.21498 14.3374 2.73298L4.8073 8.24698C4.10336 8.65398 3.95337 9.25998 4.35734 9.75198L15.2114 15.95C15.7723 16.062 16.3933 16.044 16.9352 15.896L27.4223 9.89398C27.9862 9.38098 27.8822 8.69398 27.1083 8.24698ZM9.95983 9.96598C9.1809 10.428 7.91902 10.428 7.14009 9.96598C6.36116 9.50398 6.36116 8.75498 7.14009 8.29298C7.91902 7.83098 9.1809 7.83098 9.95983 8.29298C10.7388 8.75498 10.7388 9.50398 9.95983 9.96598ZM17.3962 14.378C16.6172 14.84 15.3553 14.84 14.5764 14.378C13.7975 13.916 13.7975 13.167 14.5764 12.705C15.3553 12.243 16.6172 12.243 17.3962 12.705C18.1751 13.167 18.1751 13.916 17.3962 14.378ZM14.5764 8.30898C15.3553 7.84698 16.6172 7.84698 17.3962 8.30898C18.1751 8.77098 18.1751 9.51998 17.3962 9.98198C16.6172 10.444 15.3553 10.444 14.5764 9.98198C13.7975 9.51998 13.7975 8.77098 14.5764 8.30898ZM17.3962 5.58598C16.6172 6.04798 15.3553 6.04798 14.5764 5.58598C13.7975 5.12398 13.7975 4.37498 14.5764 3.91298C15.3553 3.45098 16.6172 3.45098 17.3962 3.91298C18.1751 4.37498 18.1751 5.12398 17.3962 5.58598ZM24.8035 9.98198C24.0246 10.444 22.7627 10.444 21.9838 9.98198C21.2048 9.51998 21.2048 8.77098 21.9838 8.30898C22.7627 7.84698 24.0246 7.84698 24.8035 8.30898C25.5824 8.77098 25.5824 9.51998 24.8035 9.98198ZM27.7632 10.18L16.6642 16.532C16.4952 16.767 16.3503 17.026 16.2373 17.292H16.2913V29.229C16.5862 29.521 17.0612 29.547 17.5961 29.237L26.7633 23.943C27.6582 23.426 28.3842 22.169 28.3842 21.135V11.295C28.3842 10.697 28.1412 10.305 27.7622 10.181L27.7632 10.18ZM20.0899 24.856C20.0919 25.717 19.464 26.779 18.689 27.228C17.9141 27.677 17.2842 27.344 17.2822 26.483C17.2822 26.481 17.2822 26.479 17.2822 26.477C17.2802 25.616 17.9081 24.554 18.683 24.105C19.458 23.656 20.0879 23.989 20.0899 24.85C20.0899 24.852 20.0899 24.854 20.0899 24.856ZM20.0899 17.199C20.0919 18.06 19.464 19.122 18.689 19.571C17.9141 20.02 17.2842 19.687 17.2822 18.826C17.2822 18.824 17.2822 18.822 17.2822 18.82C17.2802 17.959 17.9081 16.897 18.683 16.448C19.458 15.999 20.0879 16.332 20.0899 17.193C20.0899 17.195 20.0899 17.197 20.0899 17.199ZM23.5836 22.838C23.5856 23.699 22.9577 24.761 22.1827 25.21C21.4078 25.659 20.7779 25.326 20.7759 24.465C20.7759 24.463 20.7759 24.461 20.7759 24.459C20.7739 23.598 21.4018 22.536 22.1767 22.087C22.9517 21.638 23.5816 21.971 23.5836 22.832C23.5836 22.834 23.5836 22.836 23.5836 22.838ZM23.5836 15.181C23.5856 16.042 22.9577 17.104 22.1827 17.553C21.4078 18.002 20.7779 17.669 20.7759 16.808C20.7759 16.806 20.7759 16.804 20.7759 16.802C20.7739 15.941 21.4018 14.879 22.1767 14.43C22.9517 13.981 23.5816 14.314 23.5836 15.175C23.5836 15.177 23.5836 15.179 23.5836 15.181ZM27.0783 20.821C27.0803 21.682 26.4524 22.744 25.6774 23.193C24.9025 23.642 24.2725 23.309 24.2705 22.448C24.2705 22.446 24.2705 22.444 24.2705 22.442C24.2685 21.581 24.8965 20.519 25.6714 20.07C26.4464 19.621 27.0763 19.954 27.0783 20.815C27.0783 20.817 27.0783 20.819 27.0783 20.821ZM27.0783 13.164C27.0803 14.025 26.4524 15.087 25.6774 15.536C24.9025 15.985 24.2725 15.652 24.2705 14.791C24.2705 14.789 24.2705 14.787 24.2705 14.785C24.2685 13.924 24.8965 12.862 25.6714 12.413C26.4464 11.964 27.0763 12.297 27.0783 13.158C27.0783 13.16 27.0783 13.162 27.0783 13.164ZM15.7393 17.352C15.6073 17.027 15.4273 16.711 15.2134 16.433L4.23835 10.166C3.83138 10.271 3.56641 10.671 3.56641 11.295V21.135C3.56641 22.169 4.29234 23.426 5.18726 23.943L14.3544 29.237C14.9404 29.575 15.4543 29.513 15.7383 29.139L15.7393 17.352ZM7.68104 22.448C7.67904 23.309 7.05009 23.642 6.27416 23.193C5.49823 22.744 4.87129 21.682 4.87329 20.821C4.87329 20.819 4.87329 20.817 4.87329 20.815C4.87529 19.954 5.50423 19.621 6.28016 20.07C7.05609 20.519 7.68304 21.581 7.68104 22.442C7.68104 22.444 7.68104 22.446 7.68104 22.448ZM7.68104 14.791C7.67904 15.652 7.05009 15.985 6.27416 15.536C5.49823 15.087 4.87129 14.025 4.87329 13.164C4.87329 13.162 4.87329 13.16 4.87329 13.158C4.87529 12.297 5.50423 11.964 6.28016 12.413C7.05609 12.862 7.68304 13.924 7.68104 14.785C7.68104 14.787 7.68104 14.789 7.68104 14.791ZM14.6694 26.483C14.6674 27.344 14.0385 27.677 13.2625 27.228C12.4866 26.779 11.8597 25.717 11.8617 24.856C11.8617 24.854 11.8617 24.852 11.8617 24.85C11.8637 23.989 12.4926 23.656 13.2685 24.105C14.0445 24.554 14.6714 25.616 14.6694 26.477C14.6694 26.479 14.6694 26.481 14.6694 26.483ZM14.6694 18.826C14.6674 19.687 14.0385 20.02 13.2625 19.571C12.4866 19.122 11.8597 18.06 11.8617 17.199C11.8617 17.197 11.8617 17.195 11.8617 17.193C11.8637 16.332 12.4926 15.999 13.2685 16.448C14.0445 16.897 14.6714 17.959 14.6694 18.82C14.6694 18.822 14.6694 18.824 14.6694 18.826Z" fill="url(#paint0_linear_203_243)"/>
<defs>
<linearGradient id="paint0_linear_203_243" x1="3.56772" y1="15.8149" x2="28.383" y2="15.8149" gradientUnits="userSpaceOnUse">
<stop stop-color="#0098FF"/>
<stop offset="0.00390625" stop-color="#0198FF"/>
<stop offset="0.0078125" stop-color="#0197FE"/>
<stop offset="0.0117188" stop-color="#0396FD"/>
<stop offset="0.015625" stop-color="#0496FD"/>
<stop offset="0.0195312" stop-color="#0695FC"/>
<stop offset="0.0234375" stop-color="#0794FB"/>
<stop offset="0.0273438" stop-color="#0993FA"/>
<stop offset="0.03125" stop-color="#0A92F9"/>
<stop offset="0.0351562" stop-color="#0C91F8"/>
<stop offset="0.0390625" stop-color="#0D90F7"/>
<stop offset="0.0429688" stop-color="#0F8FF6"/>
<stop offset="0.046875" stop-color="#108EF6"/>
<stop offset="0.0507812" stop-color="#128EF5"/>
<stop offset="0.0546875" stop-color="#138DF4"/>
<stop offset="0.0585938" stop-color="#158CF3"/>
<stop offset="0.0625" stop-color="#168BF2"/>
<stop offset="0.0664062" stop-color="#178AF1"/>
<stop offset="0.0703125" stop-color="#1989F0"/>
<stop offset="0.0742188" stop-color="#1A88EF"/>
<stop offset="0.078125" stop-color="#1C87EF"/>
<stop offset="0.0820312" stop-color="#1D86EE"/>
<stop offset="0.0859375" stop-color="#1F86ED"/>
<stop offset="0.0898438" stop-color="#2085EC"/>
<stop offset="0.09375" stop-color="#2284EB"/>
<stop offset="0.0976562" stop-color="#2383EA"/>
<stop offset="0.101562" stop-color="#2582E9"/>
<stop offset="0.105469" stop-color="#2681E8"/>
<stop offset="0.109375" stop-color="#2880E8"/>
<stop offset="0.113281" stop-color="#297FE7"/>
<stop offset="0.117188" stop-color="#2B7EE6"/>
<stop offset="0.121094" stop-color="#2C7EE5"/>
<stop offset="0.125" stop-color="#2E7DE4"/>
<stop offset="0.128906" stop-color="#2F7CE3"/>
<stop offset="0.132812" stop-color="#317BE2"/>
<stop offset="0.136719" stop-color="#327AE1"/>
<stop offset="0.140625" stop-color="#3479E0"/>
<stop offset="0.144531" stop-color="#3578E0"/>
<stop offset="0.148438" stop-color="#3777DF"/>
<stop offset="0.152344" stop-color="#3876DE"/>
<stop offset="0.15625" stop-color="#3A76DD"/>
<stop offset="0.160156" stop-color="#3B75DC"/>
<stop offset="0.164062" stop-color="#3D74DB"/>
<stop offset="0.167969" stop-color="#3E73DA"/>
<stop offset="0.171875" stop-color="#4072D9"/>
<stop offset="0.175781" stop-color="#4171D9"/>
<stop offset="0.179688" stop-color="#4370D8"/>
<stop offset="0.183594" stop-color="#446FD7"/>
<stop offset="0.1875" stop-color="#466ED6"/>
<stop offset="0.191406" stop-color="#476ED5"/>
<stop offset="0.195312" stop-color="#496DD4"/>
<stop offset="0.199219" stop-color="#4A6CD3"/>
<stop offset="0.203125" stop-color="#4C6BD2"/>
<stop offset="0.207031" stop-color="#4D6AD2"/>
<stop offset="0.210938" stop-color="#4F69D1"/>
<stop offset="0.214844" stop-color="#5068D0"/>
<stop offset="0.21875" stop-color="#5267CF"/>
<stop offset="0.222656" stop-color="#5366CE"/>
<stop offset="0.226562" stop-color="#5565CD"/>
<stop offset="0.230469" stop-color="#5665CC"/>
<stop offset="0.234375" stop-color="#5864CB"/>
<stop offset="0.238281" stop-color="#5963CB"/>
<stop offset="0.242188" stop-color="#5B62CA"/>
<stop offset="0.246094" stop-color="#5C61C9"/>
<stop offset="0.25" stop-color="#5E60C8"/>
<stop offset="0.253906" stop-color="#5F5FC7"/>
<stop offset="0.257812" stop-color="#615EC6"/>
<stop offset="0.261719" stop-color="#625DC5"/>
<stop offset="0.265625" stop-color="#645DC4"/>
<stop offset="0.269531" stop-color="#655CC3"/>
<stop offset="0.273438" stop-color="#675BC3"/>
<stop offset="0.277344" stop-color="#685AC2"/>
<stop offset="0.28125" stop-color="#6A59C1"/>
<stop offset="0.285156" stop-color="#6B58C0"/>
<stop offset="0.289062" stop-color="#6D57BF"/>
<stop offset="0.292969" stop-color="#6E56BE"/>
<stop offset="0.296875" stop-color="#7055BD"/>
<stop offset="0.300781" stop-color="#7155BC"/>
<stop offset="0.304688" stop-color="#7354BC"/>
<stop offset="0.308594" stop-color="#7453BB"/>
<stop offset="0.3125" stop-color="#7652BA"/>
<stop offset="0.316406" stop-color="#7751B9"/>
<stop offset="0.320312" stop-color="#7950B8"/>
<stop offset="0.324219" stop-color="#7A4FB7"/>
<stop offset="0.328125" stop-color="#7C4EB6"/>
<stop offset="0.332031" stop-color="#7D4DB5"/>
<stop offset="0.335938" stop-color="#7F4DB5"/>
<stop offset="0.339844" stop-color="#804CB4"/>
<stop offset="0.34375" stop-color="#824BB3"/>
<stop offset="0.347656" stop-color="#834AB2"/>
<stop offset="0.351562" stop-color="#8549B1"/>
<stop offset="0.355469" stop-color="#8648B0"/>
<stop offset="0.359375" stop-color="#8847AF"/>
<stop offset="0.363281" stop-color="#8946AE"/>
<stop offset="0.367188" stop-color="#8A45AE"/>
<stop offset="0.371094" stop-color="#8C45AD"/>
<stop offset="0.375" stop-color="#8D44AC"/>
<stop offset="0.378906" stop-color="#8F43AB"/>
<stop offset="0.382812" stop-color="#9042AA"/>
<stop offset="0.386719" stop-color="#9241A9"/>
<stop offset="0.390625" stop-color="#9340A8"/>
<stop offset="0.394531" stop-color="#953FA7"/>
<stop offset="0.398438" stop-color="#963EA6"/>
<stop offset="0.402344" stop-color="#983DA6"/>
<stop offset="0.40625" stop-color="#993DA5"/>
<stop offset="0.410156" stop-color="#9B3CA4"/>
<stop offset="0.414062" stop-color="#9C3BA3"/>
<stop offset="0.417969" stop-color="#9E3AA2"/>
<stop offset="0.421875" stop-color="#9F39A1"/>
<stop offset="0.425781" stop-color="#A138A0"/>
<stop offset="0.429688" stop-color="#A2379F"/>
<stop offset="0.433594" stop-color="#A4369F"/>
<stop offset="0.4375" stop-color="#A5359E"/>
<stop offset="0.441406" stop-color="#A7359D"/>
<stop offset="0.445312" stop-color="#A8349C"/>
<stop offset="0.449219" stop-color="#AA339B"/>
<stop offset="0.453125" stop-color="#AB329A"/>
<stop offset="0.457031" stop-color="#AD3199"/>
<stop offset="0.460938" stop-color="#AE3098"/>
<stop offset="0.464844" stop-color="#B02F98"/>
<stop offset="0.46875" stop-color="#B12E97"/>
<stop offset="0.472656" stop-color="#B32D96"/>
<stop offset="0.476562" stop-color="#B42D95"/>
<stop offset="0.480469" stop-color="#B62C94"/>
<stop offset="0.484375" stop-color="#B72B93"/>
<stop offset="0.488281" stop-color="#B92A92"/>
<stop offset="0.492188" stop-color="#BA2991"/>
<stop offset="0.496094" stop-color="#BC2891"/>
<stop offset="0.5" stop-color="#BD2790"/>
<stop offset="0.503906" stop-color="#BF268F"/>
<stop offset="0.507812" stop-color="#C0258E"/>
<stop offset="0.511719" stop-color="#C2248D"/>
<stop offset="0.515625" stop-color="#C3248C"/>
<stop offset="0.519531" stop-color="#C5238B"/>
<stop offset="0.523438" stop-color="#C6228A"/>
<stop offset="0.527344" stop-color="#C8218A"/>
<stop offset="0.53125" stop-color="#C92089"/>
<stop offset="0.535156" stop-color="#CB1F88"/>
<stop offset="0.539062" stop-color="#CC1E87"/>
<stop offset="0.542969" stop-color="#CE1D86"/>
<stop offset="0.546875" stop-color="#CF1C85"/>
<stop offset="0.550781" stop-color="#D11C84"/>
<stop offset="0.554688" stop-color="#D21B83"/>
<stop offset="0.558594" stop-color="#D41A82"/>
<stop offset="0.5625" stop-color="#D51982"/>
<stop offset="0.566406" stop-color="#D71881"/>
<stop offset="0.570312" stop-color="#D81780"/>
<stop offset="0.574219" stop-color="#DA167F"/>
<stop offset="0.578125" stop-color="#DB157E"/>
<stop offset="0.582031" stop-color="#DD147D"/>
<stop offset="0.585938" stop-color="#DE147C"/>
<stop offset="0.589844" stop-color="#E0137B"/>
<stop offset="0.59375" stop-color="#E1127B"/>
<stop offset="0.597656" stop-color="#E3117A"/>
<stop offset="0.601562" stop-color="#E41079"/>
<stop offset="0.605469" stop-color="#E60F78"/>
<stop offset="0.609375" stop-color="#E70E77"/>
<stop offset="0.613281" stop-color="#E90D76"/>
<stop offset="0.617188" stop-color="#EA0C75"/>
<stop offset="0.621094" stop-color="#EC0C74"/>
<stop offset="0.625" stop-color="#ED0B74"/>
<stop offset="0.628906" stop-color="#EF0A73"/>
<stop offset="0.632812" stop-color="#F00972"/>
<stop offset="0.636719" stop-color="#F20871"/>
<stop offset="0.640625" stop-color="#F30770"/>
<stop offset="0.644531" stop-color="#F5066F"/>
<stop offset="0.648438" stop-color="#F6056E"/>
<stop offset="0.652344" stop-color="#F8046D"/>
<stop offset="0.65625" stop-color="#F9046D"/>
<stop offset="0.660156" stop-color="#FB036C"/>
<stop offset="0.664062" stop-color="#FC026B"/>
<stop offset="0.667969" stop-color="#FE016A"/>
<stop offset="0.671875" stop-color="#FF0069"/>
<stop offset="0.6875" stop-color="#FF0069"/>
<stop offset="0.75" stop-color="#FF0069"/>
<stop offset="1" stop-color="#FF0069"/>
</linearGradient>
</defs>
</svg>
