<svg width="32" height="32" viewBox="0 0 32 32" fill="none" xmlns="http://www.w3.org/2000/svg">
<path d="M12.7579 16.089C12.9989 16.337 13.3328 16.493 13.7038 16.5H13.7048C13.7078 16.5 13.7128 16.5 13.7168 16.5C14.0148 16.5 14.2847 16.38 14.4817 16.185L16.1846 14.482C16.3786 14.286 16.4995 14.016 16.4995 13.717C16.4995 13.713 16.4995 13.709 16.4995 13.705V13.706C16.4925 13.334 16.3366 13.001 16.0896 12.76L15.5256 12.196C15.5756 12.0833 15.6226 11.9697 15.6666 11.855L16.4635 11.859C16.4865 11.861 16.5125 11.861 16.5395 11.861C17.1885 11.861 17.7174 11.351 17.7484 10.71V10.707V8.30001C17.7174 7.65601 17.1875 7.14601 16.5395 7.14601C16.5125 7.14601 16.4865 7.14701 16.4605 7.14901H16.4645H15.6676C15.6236 7.03301 15.5756 6.91901 15.5256 6.80601L16.0926 6.24501C16.3436 6.02201 16.5005 5.69801 16.5005 5.33701C16.5005 5.02301 16.3815 4.73701 16.1856 4.52101L16.1866 4.522L14.4847 2.82001C14.2697 2.625 13.9838 2.50601 13.6698 2.50601C13.3088 2.50601 12.9849 2.66401 12.7619 2.91401L12.7609 2.91501L12.1969 3.47901C12.0843 3.42901 11.9706 3.38201 11.856 3.33801L11.86 2.54001C11.862 2.517 11.862 2.49101 11.862 2.46401C11.862 1.815 11.352 1.286 10.7111 1.255H10.7081H8.30027C7.65633 1.286 7.14638 1.816 7.14638 2.46401C7.14638 2.49101 7.14738 2.51701 7.14938 2.54301V2.53901V3.336C7.03339 3.38 6.9204 3.42701 6.80641 3.47801L6.24546 2.91101C6.02248 2.65901 5.69851 2.50001 5.33754 2.50001C5.02357 2.50001 4.73659 2.62 4.52161 2.817L4.52261 2.81601L2.82077 4.51801C2.62578 4.71701 2.50479 4.99001 2.50479 5.29101C2.50479 5.35301 2.50979 5.41301 2.51979 5.47201L2.51879 5.46601C2.56779 5.77201 2.70978 6.03801 2.91476 6.24101L3.47871 6.80401C3.42771 6.91801 3.37972 7.03201 3.33572 7.14901L2.53879 7.14501C2.51579 7.14301 2.4888 7.14301 2.4628 7.14301C1.81486 7.14301 1.2859 7.65301 1.25391 8.29301V8.29601V10.704C1.2849 11.348 1.81486 11.858 2.4628 11.858C2.4898 11.858 2.51579 11.857 2.54179 11.855H2.53779H3.33472C3.37872 11.971 3.42671 12.084 3.47671 12.198L2.91076 12.759C2.66278 13.001 2.50779 13.336 2.50179 13.707V13.708C2.50179 13.712 2.50179 13.716 2.50179 13.72C2.50179 14.017 2.62178 14.286 2.81677 14.481L4.51861 16.184C4.7146 16.378 4.98457 16.498 5.28354 16.498C5.28754 16.498 5.29154 16.498 5.29454 16.498C5.66651 16.491 5.99948 16.335 6.24046 16.088L6.80441 15.525C6.9184 15.576 7.03239 15.623 7.14838 15.668L7.14438 16.464C7.14238 16.487 7.14238 16.513 7.14238 16.54C7.14238 17.189 7.65233 17.718 8.29327 17.749H8.29627H10.7031C11.347 17.718 11.857 17.188 11.857 16.54C11.857 16.513 11.856 16.487 11.854 16.461V16.465V15.667C11.9699 15.623 12.0839 15.575 12.1969 15.525L12.7579 16.089ZM10.3551 16.25H8.64624L8.65224 15.177C8.65224 15.159 8.64324 15.144 8.64224 15.126C8.62724 15.021 8.60125 14.926 8.56525 14.836L8.56825 14.844C8.50926 14.718 8.41526 14.617 8.29827 14.551L8.29527 14.549C8.25228 14.52 8.20228 14.494 8.15029 14.474L8.14529 14.472C8.13129 14.467 8.12129 14.456 8.10629 14.452C7.68133 14.33 7.31136 14.173 6.96639 13.977L6.99239 13.99C6.8934 13.936 6.77441 13.904 6.64842 13.904H6.64742C6.62942 13.904 6.61543 13.908 6.59643 13.908C6.41144 13.914 6.24546 13.988 6.11947 14.105L6.09447 14.115L5.36954 14.914L4.12365 13.668L4.88658 12.913L4.89758 12.886C5.01257 12.763 5.08656 12.599 5.09456 12.419V12.417C5.09556 12.396 5.09956 12.38 5.09956 12.359C5.09956 12.358 5.09956 12.357 5.09956 12.356C5.09956 12.23 5.06756 12.111 5.01157 12.008L5.01357 12.012C4.83059 11.693 4.6736 11.325 4.56061 10.937L4.55161 10.901C4.54761 10.886 4.53561 10.875 4.53061 10.86C4.48862 10.765 4.43962 10.683 4.38163 10.607L4.38363 10.61C4.35063 10.576 4.31463 10.545 4.27564 10.518L4.27364 10.516C4.23964 10.488 4.20264 10.463 4.16265 10.441L4.15865 10.439C4.12065 10.421 4.07465 10.406 4.02766 10.395L4.02266 10.394C3.98066 10.38 3.93167 10.37 3.88067 10.365H3.87767C3.86067 10.364 3.84667 10.355 3.82968 10.355H2.75277V8.64601L3.82968 8.65101C3.98166 8.64701 4.12165 8.59701 4.23664 8.51501L4.23464 8.51701C4.25864 8.50301 4.27963 8.48901 4.29863 8.47401L4.29663 8.47501C4.40562 8.38701 4.48762 8.26901 4.53161 8.13501L4.53261 8.13001C4.53561 8.12001 4.54661 8.11501 4.54961 8.10501C4.6716 7.68101 4.82859 7.31201 5.02457 6.96801L5.01157 6.99301C5.06556 6.89301 5.09756 6.77401 5.09756 6.64801C5.09856 6.62701 5.09356 6.61101 5.09256 6.59001C5.08456 6.40801 5.01257 6.24501 4.89758 6.12101L4.88658 6.09401L4.12465 5.33201L5.33254 4.12401L6.08747 4.88701C6.10547 4.90501 6.13447 4.89901 6.15347 4.91501C6.27346 5.02401 6.43044 5.09501 6.60343 5.10501H6.60543L6.62243 5.11001C6.75741 5.11001 6.8834 5.07401 6.99239 5.01201L6.98839 5.01401C7.30636 4.83101 7.67433 4.674 8.0623 4.562L8.09829 4.55301C8.11329 4.54901 8.12429 4.53701 8.13929 4.53201C8.19328 4.51101 8.23928 4.48701 8.28228 4.45901L8.27928 4.46101C8.39727 4.38401 8.49326 4.28301 8.56125 4.16301L8.56325 4.15901C8.58025 4.12201 8.59525 4.07801 8.60525 4.03301L8.60625 4.028C8.62025 3.985 8.63124 3.93401 8.63624 3.88101V3.87801C8.63724 3.86201 8.64624 3.84701 8.64624 3.83101V2.75401H10.3561L10.3501 3.82701C10.3501 3.84401 10.3591 3.85901 10.3601 3.87601C10.3651 3.93101 10.3751 3.98201 10.3911 4.03101L10.3901 4.02601C10.4021 4.07601 10.4171 4.12001 10.4351 4.16201L10.4331 4.15701C10.4571 4.20201 10.4831 4.24101 10.5131 4.27701L10.5121 4.27601C10.5401 4.31601 10.5701 4.352 10.6041 4.384C10.6371 4.411 10.6731 4.43701 10.7121 4.45801L10.7161 4.46001C10.7561 4.48701 10.8031 4.51101 10.851 4.53001L10.856 4.53201C10.871 4.53701 10.882 4.54901 10.898 4.55301C11.322 4.67501 11.69 4.83101 12.0339 5.02601L12.0079 5.01301C12.1089 5.07301 12.2299 5.10901 12.3599 5.10901C12.5469 5.10901 12.7169 5.03501 12.8419 4.91401C12.8609 4.89901 12.8879 4.90501 12.9049 4.88801L13.6668 4.12601L14.8757 5.33501L14.1128 6.09001L14.1018 6.11701C13.9868 6.24001 13.9138 6.40301 13.9058 6.58201V6.58401C13.9048 6.60501 13.8998 6.62201 13.9008 6.64301C13.9008 6.64401 13.9008 6.64501 13.9008 6.64501C13.9008 6.77101 13.9328 6.88901 13.9888 6.99301L13.9868 6.98901C14.1687 7.30801 14.3267 7.67701 14.4397 8.06601L14.4487 8.10301C14.4517 8.11401 14.4637 8.11901 14.4667 8.12901C14.5127 8.26701 14.5947 8.38301 14.7007 8.47001L14.7017 8.47101C14.7197 8.48501 14.7417 8.49901 14.7627 8.51301L14.7657 8.51501C14.8777 8.59601 15.0177 8.64501 15.1687 8.64901H16.2466V10.358L15.1697 10.353C15.1537 10.353 15.1407 10.361 15.1257 10.362C15.0657 10.367 15.0107 10.379 14.9577 10.396L14.9627 10.395C14.9177 10.406 14.8787 10.419 14.8417 10.436L14.8467 10.434C14.7977 10.46 14.7557 10.489 14.7167 10.522L14.7177 10.521C14.6807 10.547 14.6487 10.575 14.6187 10.606C14.5907 10.64 14.5637 10.678 14.5417 10.719L14.5397 10.723C14.5137 10.762 14.4907 10.807 14.4717 10.854L14.4697 10.859C14.4647 10.874 14.4527 10.885 14.4477 10.901C14.3267 11.324 14.1697 11.692 13.9748 12.036L13.9878 12.011C13.9338 12.111 13.9018 12.229 13.9018 12.355C13.9018 12.356 13.9018 12.357 13.9018 12.358C13.9008 12.377 13.9048 12.392 13.9058 12.411C13.9128 12.595 13.9858 12.76 14.1018 12.884L14.1128 12.91L14.9117 13.634L13.6668 14.88L12.9099 14.117L12.8849 14.107C12.7619 13.991 12.5969 13.917 12.4149 13.91H12.4139C12.3939 13.909 12.3789 13.905 12.3589 13.905C12.2319 13.905 12.1129 13.937 12.0089 13.993L12.0129 13.991C11.694 14.173 11.325 14.331 10.936 14.444L10.899 14.453C10.882 14.458 10.871 14.47 10.854 14.476C10.7591 14.519 10.6771 14.568 10.6021 14.626L10.6051 14.624C10.5741 14.655 10.5461 14.688 10.5201 14.724L10.5181 14.726C10.4881 14.762 10.4601 14.803 10.4371 14.846L10.4351 14.85C10.4191 14.886 10.4041 14.929 10.3941 14.973L10.3931 14.978C10.3781 15.022 10.3681 15.074 10.3631 15.127V15.13C10.3621 15.146 10.3541 15.16 10.3541 15.176L10.3551 16.25ZM12.3939 9.50201C12.3939 7.90401 11.099 6.60901 9.50117 6.60901C7.90331 6.60901 6.60843 7.90401 6.60843 9.50201C6.60843 11.1 7.90331 12.395 9.50117 12.395C11.098 12.393 12.3909 11.099 12.3939 9.50301V9.50201ZM9.50117 10.895C8.73224 10.895 8.10829 10.272 8.10829 9.50201C8.10829 8.73201 8.73124 8.10901 9.50117 8.10901C10.2701 8.10901 10.894 8.73201 10.894 9.50201C10.893 10.271 10.2701 10.893 9.50217 10.895H9.50117ZM29.4254 19.578H28.5485C28.4945 19.435 28.4355 19.294 28.3725 19.155L28.9954 18.539C29.2544 18.31 29.4164 17.977 29.4164 17.606C29.4164 17.285 29.2954 16.993 29.0964 16.772L29.0974 16.773L27.2886 14.964C27.0876 14.766 26.8116 14.644 26.5066 14.644C26.5026 14.644 26.4986 14.644 26.4946 14.644C26.1127 14.652 25.7707 14.811 25.5237 15.065L24.9028 15.686C24.7641 15.6233 24.6241 15.5653 24.4828 15.512L24.4868 14.634C24.4888 14.61 24.4898 14.581 24.4898 14.553C24.4898 13.89 23.9689 13.348 23.3149 13.315H23.3119H20.7552C20.0962 13.348 19.5753 13.891 19.5753 14.555C19.5753 14.583 19.5763 14.611 19.5783 14.639V14.635V15.512C19.4363 15.566 19.2963 15.624 19.1583 15.687L18.5394 15.064C18.2924 14.81 17.9494 14.65 17.5694 14.642H17.5674C17.5634 14.642 17.5594 14.642 17.5554 14.642C17.2515 14.642 16.9765 14.764 16.7755 14.962L14.9657 16.771C14.7677 16.99 14.6467 17.281 14.6467 17.601C14.6467 17.972 14.8097 18.305 15.0677 18.532L15.0687 18.533L15.6896 19.154C15.6266 19.293 15.5676 19.434 15.5136 19.578L14.6367 19.574C14.6127 19.572 14.5837 19.571 14.5557 19.571C13.8928 19.571 13.3508 20.092 13.3178 20.746V20.749V23.308C13.3508 23.966 13.8928 24.486 14.5557 24.486C14.5847 24.486 14.6127 24.485 14.6407 24.483H14.6367H15.5136C15.5676 24.625 15.6256 24.765 15.6886 24.904L15.0667 25.522C14.8117 25.77 14.6517 26.114 14.6447 26.495C14.6447 26.499 14.6447 26.504 14.6447 26.509C14.6447 26.813 14.7667 27.088 14.9647 27.287L16.7735 29.096C16.9735 29.295 17.2505 29.418 17.5554 29.418C17.5584 29.418 17.5624 29.418 17.5654 29.418C17.9484 29.41 18.2924 29.248 18.5394 28.993L19.1573 28.374C19.2973 28.438 19.4383 28.496 19.5823 28.55L19.5783 29.426C19.5763 29.45 19.5753 29.479 19.5753 29.507C19.5753 30.17 20.0962 30.711 20.7502 30.744H20.7532H23.3099C23.9689 30.711 24.4898 30.169 24.4898 29.505C24.4898 29.477 24.4888 29.449 24.4868 29.422V29.426V28.548C24.6288 28.494 24.7688 28.436 24.9088 28.373L25.5277 28.999C25.7757 29.251 26.1177 29.409 26.4966 29.417H26.5036C26.5046 29.417 26.5066 29.417 26.5076 29.417C26.8116 29.417 27.0876 29.295 27.2886 29.097L29.0934 27.29C29.2934 27.09 29.4174 26.813 29.4174 26.507C29.4174 26.506 29.4174 26.504 29.4174 26.503C29.4114 26.119 29.2514 25.773 28.9974 25.523L28.3755 24.901C28.4385 24.763 28.4955 24.624 28.5485 24.482L29.4264 24.486C29.4504 24.488 29.4794 24.489 29.5074 24.489C30.1703 24.489 30.7113 23.968 30.7443 23.314V23.311V20.754C30.7113 20.096 30.1703 19.575 29.5074 19.575C29.4784 19.575 29.4504 19.576 29.4224 19.578H29.4264H29.4254ZM29.2434 22.986L28.0515 22.98C28.0375 22.98 28.0265 22.987 28.0135 22.988C27.9505 22.993 27.8925 23.005 27.8375 23.024L27.8425 23.023C27.7075 23.068 27.5925 23.141 27.4986 23.235C27.4716 23.268 27.4456 23.305 27.4236 23.344L27.4216 23.348C27.3956 23.388 27.3716 23.433 27.3526 23.481L27.3506 23.486C27.3446 23.502 27.3326 23.514 27.3276 23.53C27.1996 23.983 27.0316 24.377 26.8216 24.744L26.8356 24.718C26.7816 24.817 26.7496 24.936 26.7496 25.062C26.7496 25.064 26.7496 25.066 26.7496 25.068C26.7496 25.083 26.7526 25.095 26.7536 25.111C26.7586 25.297 26.8326 25.465 26.9516 25.591L26.9626 25.617L27.8045 26.459L26.4546 27.809L25.6207 26.967C25.6127 26.959 25.6007 26.963 25.5927 26.955C25.4697 26.84 25.3067 26.767 25.1258 26.759H25.1238C25.1038 26.758 25.0878 26.754 25.0678 26.754C25.0658 26.754 25.0648 26.754 25.0628 26.754C24.9378 26.754 24.8198 26.786 24.7178 26.842L24.7218 26.84C24.3808 27.034 23.9849 27.203 23.5699 27.324L23.5299 27.334C23.5129 27.339 23.5019 27.351 23.4859 27.357C23.4359 27.377 23.3929 27.399 23.3519 27.426L23.3549 27.424C23.1539 27.552 23.017 27.764 22.992 28.009V28.012C22.991 28.027 22.983 28.04 22.983 28.056V29.247H21.0731L21.0791 28.059C21.0791 28.043 21.0711 28.029 21.0701 28.013C21.0651 27.958 21.0551 27.908 21.0391 27.86L21.0401 27.865C21.0001 27.678 20.8831 27.524 20.7252 27.435L20.7222 27.433C20.6782 27.403 20.6292 27.377 20.5762 27.357L20.5712 27.355C20.5572 27.35 20.5472 27.339 20.5322 27.335C20.0782 27.206 19.6823 27.037 19.3143 26.827L19.3413 26.841C19.2423 26.788 19.1253 26.757 19.0003 26.757C18.9993 26.757 18.9993 26.757 18.9983 26.757C18.9743 26.758 18.9503 26.76 18.9273 26.763H18.9303C18.7523 26.772 18.5924 26.843 18.4704 26.955L18.4714 26.954C18.4624 26.962 18.4494 26.958 18.4404 26.967L17.5994 27.809L16.2496 26.459L17.0935 25.623C17.1015 25.615 17.0985 25.602 17.1055 25.594C17.2195 25.471 17.2925 25.309 17.3005 25.13V25.128C17.3015 25.107 17.3065 25.09 17.3055 25.069C17.3055 25.068 17.3055 25.067 17.3055 25.067C17.3055 24.941 17.2735 24.823 17.2175 24.719L17.2195 24.723C17.0245 24.382 16.8565 23.988 16.7355 23.573L16.7255 23.534C16.7215 23.518 16.7095 23.508 16.7045 23.493C16.6835 23.44 16.6595 23.394 16.6315 23.351L16.6335 23.354C16.6105 23.312 16.5865 23.276 16.5585 23.243L16.5595 23.244C16.4595 23.13 16.3236 23.049 16.1696 23.02L16.1656 23.019C16.1386 23.011 16.1056 23.004 16.0716 23H16.0676C16.0456 22.998 16.0266 22.987 16.0046 22.987H14.8137V21.077L16.0046 21.083C16.1946 21.077 16.3656 21 16.4915 20.878C16.5435 20.826 16.5865 20.764 16.6175 20.696L16.6195 20.692C16.6525 20.637 16.7085 20.601 16.7265 20.536C16.8575 20.081 17.0255 19.686 17.2345 19.317L17.2205 19.344C17.2755 19.244 17.3075 19.125 17.3075 18.999C17.3085 18.98 17.3045 18.965 17.3035 18.946C17.2975 18.761 17.2235 18.595 17.1055 18.47L17.0965 18.447L16.2546 17.603L17.6044 16.253L18.4404 17.097C18.4584 17.115 18.4854 17.108 18.5044 17.124C18.6273 17.239 18.7913 17.312 18.9713 17.32H18.9733C19.1083 17.32 19.2353 17.284 19.3443 17.221L19.3403 17.223C19.6813 17.027 20.0762 16.859 20.4912 16.739L20.5292 16.729C20.5442 16.725 20.5552 16.713 20.5702 16.708C20.6232 16.688 20.6682 16.664 20.7102 16.636L20.7072 16.638C20.8731 16.549 20.9931 16.395 21.0351 16.211L21.0361 16.207C21.0511 16.162 21.0621 16.11 21.0671 16.056V16.053C21.0681 16.037 21.0761 16.024 21.0761 16.008V14.817H22.986L22.98 16.005C22.98 16.021 22.988 16.033 22.989 16.049C22.995 16.114 23.008 16.174 23.028 16.231L23.026 16.226C23.034 16.257 23.043 16.282 23.053 16.307L23.051 16.303C23.1369 16.509 23.3089 16.666 23.5209 16.729L23.5259 16.73C23.9799 16.86 24.3738 17.028 24.7428 17.237L24.7158 17.223C24.8208 17.283 24.9468 17.319 25.0818 17.319C25.2628 17.311 25.4267 17.239 25.5507 17.124C25.5697 17.109 25.5967 17.115 25.6147 17.098L26.4566 16.256L27.8065 17.606L26.9626 18.441L26.9516 18.467C26.8356 18.59 26.7626 18.754 26.7546 18.935V18.937C26.7536 18.957 26.7496 18.973 26.7496 18.993C26.7496 18.994 26.7496 18.996 26.7496 18.997C26.7496 19.123 26.7816 19.242 26.8376 19.345L26.8356 19.341C27.0316 19.683 27.2006 20.078 27.3206 20.494L27.3296 20.532C27.3326 20.544 27.3456 20.549 27.3486 20.56C27.3946 20.697 27.4756 20.813 27.5815 20.899L27.5825 20.9C27.6015 20.914 27.6225 20.929 27.6445 20.942L27.6475 20.944C27.7605 21.025 27.8995 21.075 28.0505 21.079H28.0515H29.2424L29.2434 22.986ZM22.029 19.004C20.3582 19.004 19.0023 20.359 19.0023 22.03C19.0023 23.701 20.3572 25.056 22.028 25.056C23.6989 25.056 25.0538 23.702 25.0538 22.031C25.0518 20.36 23.6989 19.006 22.029 19.004ZM22.029 23.557C21.1861 23.557 20.5022 22.874 20.5022 22.031C20.5022 21.188 21.1851 20.505 22.028 20.505C22.871 20.505 23.5539 21.188 23.5539 22.031C23.5519 22.873 22.87 23.556 22.029 23.557Z" fill="black"/>
<path d="M12.7579 16.089C12.9989 16.337 13.3328 16.493 13.7038 16.5H13.7048C13.7078 16.5 13.7128 16.5 13.7168 16.5C14.0148 16.5 14.2847 16.38 14.4817 16.185L16.1846 14.482C16.3786 14.286 16.4995 14.016 16.4995 13.717C16.4995 13.713 16.4995 13.709 16.4995 13.705V13.706C16.4925 13.334 16.3366 13.001 16.0896 12.76L15.5256 12.196C15.5756 12.0833 15.6226 11.9697 15.6666 11.855L16.4635 11.859C16.4865 11.861 16.5125 11.861 16.5395 11.861C17.1885 11.861 17.7174 11.351 17.7484 10.71V10.707V8.30001C17.7174 7.65601 17.1875 7.14601 16.5395 7.14601C16.5125 7.14601 16.4865 7.14701 16.4605 7.14901H16.4645H15.6676C15.6236 7.03301 15.5756 6.91901 15.5256 6.80601L16.0926 6.24501C16.3436 6.02201 16.5005 5.69801 16.5005 5.33701C16.5005 5.02301 16.3815 4.73701 16.1856 4.52101L16.1866 4.522L14.4847 2.82001C14.2697 2.625 13.9838 2.50601 13.6698 2.50601C13.3088 2.50601 12.9849 2.66401 12.7619 2.91401L12.7609 2.91501L12.1969 3.47901C12.0843 3.42901 11.9706 3.38201 11.856 3.33801L11.86 2.54001C11.862 2.517 11.862 2.49101 11.862 2.46401C11.862 1.815 11.352 1.286 10.7111 1.255H10.7081H8.30027C7.65633 1.286 7.14638 1.816 7.14638 2.46401C7.14638 2.49101 7.14738 2.51701 7.14938 2.54301V2.53901V3.336C7.03339 3.38 6.9204 3.42701 6.80641 3.47801L6.24546 2.91101C6.02248 2.65901 5.69851 2.50001 5.33754 2.50001C5.02357 2.50001 4.73659 2.62 4.52161 2.817L4.52261 2.81601L2.82077 4.51801C2.62578 4.71701 2.50479 4.99001 2.50479 5.29101C2.50479 5.35301 2.50979 5.41301 2.51979 5.47201L2.51879 5.46601C2.56779 5.77201 2.70978 6.03801 2.91476 6.24101L3.47871 6.80401C3.42771 6.91801 3.37972 7.03201 3.33572 7.14901L2.53879 7.14501C2.51579 7.14301 2.4888 7.14301 2.4628 7.14301C1.81486 7.14301 1.2859 7.65301 1.25391 8.29301V8.29601V10.704C1.2849 11.348 1.81486 11.858 2.4628 11.858C2.4898 11.858 2.51579 11.857 2.54179 11.855H2.53779H3.33472C3.37872 11.971 3.42671 12.084 3.47671 12.198L2.91076 12.759C2.66278 13.001 2.50779 13.336 2.50179 13.707V13.708C2.50179 13.712 2.50179 13.716 2.50179 13.72C2.50179 14.017 2.62178 14.286 2.81677 14.481L4.51861 16.184C4.7146 16.378 4.98457 16.498 5.28354 16.498C5.28754 16.498 5.29154 16.498 5.29454 16.498C5.66651 16.491 5.99948 16.335 6.24046 16.088L6.80441 15.525C6.9184 15.576 7.03239 15.623 7.14838 15.668L7.14438 16.464C7.14238 16.487 7.14238 16.513 7.14238 16.54C7.14238 17.189 7.65233 17.718 8.29327 17.749H8.29627H10.7031C11.347 17.718 11.857 17.188 11.857 16.54C11.857 16.513 11.856 16.487 11.854 16.461V16.465V15.667C11.9699 15.623 12.0839 15.575 12.1969 15.525L12.7579 16.089ZM10.3551 16.25H8.64624L8.65224 15.177C8.65224 15.159 8.64324 15.144 8.64224 15.126C8.62724 15.021 8.60125 14.926 8.56525 14.836L8.56825 14.844C8.50926 14.718 8.41526 14.617 8.29827 14.551L8.29527 14.549C8.25228 14.52 8.20228 14.494 8.15029 14.474L8.14529 14.472C8.13129 14.467 8.12129 14.456 8.10629 14.452C7.68133 14.33 7.31136 14.173 6.96639 13.977L6.99239 13.99C6.8934 13.936 6.77441 13.904 6.64842 13.904H6.64742C6.62942 13.904 6.61543 13.908 6.59643 13.908C6.41144 13.914 6.24546 13.988 6.11947 14.105L6.09447 14.115L5.36954 14.914L4.12365 13.668L4.88658 12.913L4.89758 12.886C5.01257 12.763 5.08656 12.599 5.09456 12.419V12.417C5.09556 12.396 5.09956 12.38 5.09956 12.359C5.09956 12.358 5.09956 12.357 5.09956 12.356C5.09956 12.23 5.06756 12.111 5.01157 12.008L5.01357 12.012C4.83059 11.693 4.6736 11.325 4.56061 10.937L4.55161 10.901C4.54761 10.886 4.53561 10.875 4.53061 10.86C4.48862 10.765 4.43962 10.683 4.38163 10.607L4.38363 10.61C4.35063 10.576 4.31463 10.545 4.27564 10.518L4.27364 10.516C4.23964 10.488 4.20264 10.463 4.16265 10.441L4.15865 10.439C4.12065 10.421 4.07465 10.406 4.02766 10.395L4.02266 10.394C3.98066 10.38 3.93167 10.37 3.88067 10.365H3.87767C3.86067 10.364 3.84667 10.355 3.82968 10.355H2.75277V8.64601L3.82968 8.65101C3.98166 8.64701 4.12165 8.59701 4.23664 8.51501L4.23464 8.51701C4.25864 8.50301 4.27963 8.48901 4.29863 8.47401L4.29663 8.47501C4.40562 8.38701 4.48762 8.26901 4.53161 8.13501L4.53261 8.13001C4.53561 8.12001 4.54661 8.11501 4.54961 8.10501C4.6716 7.68101 4.82859 7.31201 5.02457 6.96801L5.01157 6.99301C5.06556 6.89301 5.09756 6.77401 5.09756 6.64801C5.09856 6.62701 5.09356 6.61101 5.09256 6.59001C5.08456 6.40801 5.01257 6.24501 4.89758 6.12101L4.88658 6.09401L4.12465 5.33201L5.33254 4.12401L6.08747 4.88701C6.10547 4.90501 6.13447 4.89901 6.15347 4.91501C6.27346 5.02401 6.43044 5.09501 6.60343 5.10501H6.60543L6.62243 5.11001C6.75741 5.11001 6.8834 5.07401 6.99239 5.01201L6.98839 5.01401C7.30636 4.83101 7.67433 4.674 8.0623 4.562L8.09829 4.55301C8.11329 4.54901 8.12429 4.53701 8.13929 4.53201C8.19328 4.51101 8.23928 4.48701 8.28228 4.45901L8.27928 4.46101C8.39727 4.38401 8.49326 4.28301 8.56125 4.16301L8.56325 4.15901C8.58025 4.12201 8.59525 4.07801 8.60525 4.03301L8.60625 4.028C8.62025 3.985 8.63124 3.93401 8.63624 3.88101V3.87801C8.63724 3.86201 8.64624 3.84701 8.64624 3.83101V2.75401H10.3561L10.3501 3.82701C10.3501 3.84401 10.3591 3.85901 10.3601 3.87601C10.3651 3.93101 10.3751 3.98201 10.3911 4.03101L10.3901 4.02601C10.4021 4.07601 10.4171 4.12001 10.4351 4.16201L10.4331 4.15701C10.4571 4.20201 10.4831 4.24101 10.5131 4.27701L10.5121 4.27601C10.5401 4.31601 10.5701 4.352 10.6041 4.384C10.6371 4.411 10.6731 4.43701 10.7121 4.45801L10.7161 4.46001C10.7561 4.48701 10.8031 4.51101 10.851 4.53001L10.856 4.53201C10.871 4.53701 10.882 4.54901 10.898 4.55301C11.322 4.67501 11.69 4.83101 12.0339 5.02601L12.0079 5.01301C12.1089 5.07301 12.2299 5.10901 12.3599 5.10901C12.5469 5.10901 12.7169 5.03501 12.8419 4.91401C12.8609 4.89901 12.8879 4.90501 12.9049 4.88801L13.6668 4.12601L14.8757 5.33501L14.1128 6.09001L14.1018 6.11701C13.9868 6.24001 13.9138 6.40301 13.9058 6.58201V6.58401C13.9048 6.60501 13.8998 6.62201 13.9008 6.64301C13.9008 6.64401 13.9008 6.64501 13.9008 6.64501C13.9008 6.77101 13.9328 6.88901 13.9888 6.99301L13.9868 6.98901C14.1687 7.30801 14.3267 7.67701 14.4397 8.06601L14.4487 8.10301C14.4517 8.11401 14.4637 8.11901 14.4667 8.12901C14.5127 8.26701 14.5947 8.38301 14.7007 8.47001L14.7017 8.47101C14.7197 8.48501 14.7417 8.49901 14.7627 8.51301L14.7657 8.51501C14.8777 8.59601 15.0177 8.64501 15.1687 8.64901H16.2466V10.358L15.1697 10.353C15.1537 10.353 15.1407 10.361 15.1257 10.362C15.0657 10.367 15.0107 10.379 14.9577 10.396L14.9627 10.395C14.9177 10.406 14.8787 10.419 14.8417 10.436L14.8467 10.434C14.7977 10.46 14.7557 10.489 14.7167 10.522L14.7177 10.521C14.6807 10.547 14.6487 10.575 14.6187 10.606C14.5907 10.64 14.5637 10.678 14.5417 10.719L14.5397 10.723C14.5137 10.762 14.4907 10.807 14.4717 10.854L14.4697 10.859C14.4647 10.874 14.4527 10.885 14.4477 10.901C14.3267 11.324 14.1697 11.692 13.9748 12.036L13.9878 12.011C13.9338 12.111 13.9018 12.229 13.9018 12.355C13.9018 12.356 13.9018 12.357 13.9018 12.358C13.9008 12.377 13.9048 12.392 13.9058 12.411C13.9128 12.595 13.9858 12.76 14.1018 12.884L14.1128 12.91L14.9117 13.634L13.6668 14.88L12.9099 14.117L12.8849 14.107C12.7619 13.991 12.5969 13.917 12.4149 13.91H12.4139C12.3939 13.909 12.3789 13.905 12.3589 13.905C12.2319 13.905 12.1129 13.937 12.0089 13.993L12.0129 13.991C11.694 14.173 11.325 14.331 10.936 14.444L10.899 14.453C10.882 14.458 10.871 14.47 10.854 14.476C10.7591 14.519 10.6771 14.568 10.6021 14.626L10.6051 14.624C10.5741 14.655 10.5461 14.688 10.5201 14.724L10.5181 14.726C10.4881 14.762 10.4601 14.803 10.4371 14.846L10.4351 14.85C10.4191 14.886 10.4041 14.929 10.3941 14.973L10.3931 14.978C10.3781 15.022 10.3681 15.074 10.3631 15.127V15.13C10.3621 15.146 10.3541 15.16 10.3541 15.176L10.3551 16.25ZM12.3939 9.50201C12.3939 7.90401 11.099 6.60901 9.50117 6.60901C7.90331 6.60901 6.60843 7.90401 6.60843 9.50201C6.60843 11.1 7.90331 12.395 9.50117 12.395C11.098 12.393 12.3909 11.099 12.3939 9.50301V9.50201ZM9.50117 10.895C8.73224 10.895 8.10829 10.272 8.10829 9.50201C8.10829 8.73201 8.73124 8.10901 9.50117 8.10901C10.2701 8.10901 10.894 8.73201 10.894 9.50201C10.893 10.271 10.2701 10.893 9.50217 10.895H9.50117ZM29.4254 19.578H28.5485C28.4945 19.435 28.4355 19.294 28.3725 19.155L28.9954 18.539C29.2544 18.31 29.4164 17.977 29.4164 17.606C29.4164 17.285 29.2954 16.993 29.0964 16.772L29.0974 16.773L27.2886 14.964C27.0876 14.766 26.8116 14.644 26.5066 14.644C26.5026 14.644 26.4986 14.644 26.4946 14.644C26.1127 14.652 25.7707 14.811 25.5237 15.065L24.9028 15.686C24.7641 15.6233 24.6241 15.5653 24.4828 15.512L24.4868 14.634C24.4888 14.61 24.4898 14.581 24.4898 14.553C24.4898 13.89 23.9689 13.348 23.3149 13.315H23.3119H20.7552C20.0962 13.348 19.5753 13.891 19.5753 14.555C19.5753 14.583 19.5763 14.611 19.5783 14.639V14.635V15.512C19.4363 15.566 19.2963 15.624 19.1583 15.687L18.5394 15.064C18.2924 14.81 17.9494 14.65 17.5694 14.642H17.5674C17.5634 14.642 17.5594 14.642 17.5554 14.642C17.2515 14.642 16.9765 14.764 16.7755 14.962L14.9657 16.771C14.7677 16.99 14.6467 17.281 14.6467 17.601C14.6467 17.972 14.8097 18.305 15.0677 18.532L15.0687 18.533L15.6896 19.154C15.6266 19.293 15.5676 19.434 15.5136 19.578L14.6367 19.574C14.6127 19.572 14.5837 19.571 14.5557 19.571C13.8928 19.571 13.3508 20.092 13.3178 20.746V20.749V23.308C13.3508 23.966 13.8928 24.486 14.5557 24.486C14.5847 24.486 14.6127 24.485 14.6407 24.483H14.6367H15.5136C15.5676 24.625 15.6256 24.765 15.6886 24.904L15.0667 25.522C14.8117 25.77 14.6517 26.114 14.6447 26.495C14.6447 26.499 14.6447 26.504 14.6447 26.509C14.6447 26.813 14.7667 27.088 14.9647 27.287L16.7735 29.096C16.9735 29.295 17.2505 29.418 17.5554 29.418C17.5584 29.418 17.5624 29.418 17.5654 29.418C17.9484 29.41 18.2924 29.248 18.5394 28.993L19.1573 28.374C19.2973 28.438 19.4383 28.496 19.5823 28.55L19.5783 29.426C19.5763 29.45 19.5753 29.479 19.5753 29.507C19.5753 30.17 20.0962 30.711 20.7502 30.744H20.7532H23.3099C23.9689 30.711 24.4898 30.169 24.4898 29.505C24.4898 29.477 24.4888 29.449 24.4868 29.422V29.426V28.548C24.6288 28.494 24.7688 28.436 24.9088 28.373L25.5277 28.999C25.7757 29.251 26.1177 29.409 26.4966 29.417H26.5036C26.5046 29.417 26.5066 29.417 26.5076 29.417C26.8116 29.417 27.0876 29.295 27.2886 29.097L29.0934 27.29C29.2934 27.09 29.4174 26.813 29.4174 26.507C29.4174 26.506 29.4174 26.504 29.4174 26.503C29.4114 26.119 29.2514 25.773 28.9974 25.523L28.3755 24.901C28.4385 24.763 28.4955 24.624 28.5485 24.482L29.4264 24.486C29.4504 24.488 29.4794 24.489 29.5074 24.489C30.1703 24.489 30.7113 23.968 30.7443 23.314V23.311V20.754C30.7113 20.096 30.1703 19.575 29.5074 19.575C29.4784 19.575 29.4504 19.576 29.4224 19.578H29.4264H29.4254ZM29.2434 22.986L28.0515 22.98C28.0375 22.98 28.0265 22.987 28.0135 22.988C27.9505 22.993 27.8925 23.005 27.8375 23.024L27.8425 23.023C27.7075 23.068 27.5925 23.141 27.4986 23.235C27.4716 23.268 27.4456 23.305 27.4236 23.344L27.4216 23.348C27.3956 23.388 27.3716 23.433 27.3526 23.481L27.3506 23.486C27.3446 23.502 27.3326 23.514 27.3276 23.53C27.1996 23.983 27.0316 24.377 26.8216 24.744L26.8356 24.718C26.7816 24.817 26.7496 24.936 26.7496 25.062C26.7496 25.064 26.7496 25.066 26.7496 25.068C26.7496 25.083 26.7526 25.095 26.7536 25.111C26.7586 25.297 26.8326 25.465 26.9516 25.591L26.9626 25.617L27.8045 26.459L26.4546 27.809L25.6207 26.967C25.6127 26.959 25.6007 26.963 25.5927 26.955C25.4697 26.84 25.3067 26.767 25.1258 26.759H25.1238C25.1038 26.758 25.0878 26.754 25.0678 26.754C25.0658 26.754 25.0648 26.754 25.0628 26.754C24.9378 26.754 24.8198 26.786 24.7178 26.842L24.7218 26.84C24.3808 27.034 23.9849 27.203 23.5699 27.324L23.5299 27.334C23.5129 27.339 23.5019 27.351 23.4859 27.357C23.4359 27.377 23.3929 27.399 23.3519 27.426L23.3549 27.424C23.1539 27.552 23.017 27.764 22.992 28.009V28.012C22.991 28.027 22.983 28.04 22.983 28.056V29.247H21.0731L21.0791 28.059C21.0791 28.043 21.0711 28.029 21.0701 28.013C21.0651 27.958 21.0551 27.908 21.0391 27.86L21.0401 27.865C21.0001 27.678 20.8831 27.524 20.7252 27.435L20.7222 27.433C20.6782 27.403 20.6292 27.377 20.5762 27.357L20.5712 27.355C20.5572 27.35 20.5472 27.339 20.5322 27.335C20.0782 27.206 19.6823 27.037 19.3143 26.827L19.3413 26.841C19.2423 26.788 19.1253 26.757 19.0003 26.757C18.9993 26.757 18.9993 26.757 18.9983 26.757C18.9743 26.758 18.9503 26.76 18.9273 26.763H18.9303C18.7523 26.772 18.5924 26.843 18.4704 26.955L18.4714 26.954C18.4624 26.962 18.4494 26.958 18.4404 26.967L17.5994 27.809L16.2496 26.459L17.0935 25.623C17.1015 25.615 17.0985 25.602 17.1055 25.594C17.2195 25.471 17.2925 25.309 17.3005 25.13V25.128C17.3015 25.107 17.3065 25.09 17.3055 25.069C17.3055 25.068 17.3055 25.067 17.3055 25.067C17.3055 24.941 17.2735 24.823 17.2175 24.719L17.2195 24.723C17.0245 24.382 16.8565 23.988 16.7355 23.573L16.7255 23.534C16.7215 23.518 16.7095 23.508 16.7045 23.493C16.6835 23.44 16.6595 23.394 16.6315 23.351L16.6335 23.354C16.6105 23.312 16.5865 23.276 16.5585 23.243L16.5595 23.244C16.4595 23.13 16.3236 23.049 16.1696 23.02L16.1656 23.019C16.1386 23.011 16.1056 23.004 16.0716 23H16.0676C16.0456 22.998 16.0266 22.987 16.0046 22.987H14.8137V21.077L16.0046 21.083C16.1946 21.077 16.3656 21 16.4915 20.878C16.5435 20.826 16.5865 20.764 16.6175 20.696L16.6195 20.692C16.6525 20.637 16.7085 20.601 16.7265 20.536C16.8575 20.081 17.0255 19.686 17.2345 19.317L17.2205 19.344C17.2755 19.244 17.3075 19.125 17.3075 18.999C17.3085 18.98 17.3045 18.965 17.3035 18.946C17.2975 18.761 17.2235 18.595 17.1055 18.47L17.0965 18.447L16.2546 17.603L17.6044 16.253L18.4404 17.097C18.4584 17.115 18.4854 17.108 18.5044 17.124C18.6273 17.239 18.7913 17.312 18.9713 17.32H18.9733C19.1083 17.32 19.2353 17.284 19.3443 17.221L19.3403 17.223C19.6813 17.027 20.0762 16.859 20.4912 16.739L20.5292 16.729C20.5442 16.725 20.5552 16.713 20.5702 16.708C20.6232 16.688 20.6682 16.664 20.7102 16.636L20.7072 16.638C20.8731 16.549 20.9931 16.395 21.0351 16.211L21.0361 16.207C21.0511 16.162 21.0621 16.11 21.0671 16.056V16.053C21.0681 16.037 21.0761 16.024 21.0761 16.008V14.817H22.986L22.98 16.005C22.98 16.021 22.988 16.033 22.989 16.049C22.995 16.114 23.008 16.174 23.028 16.231L23.026 16.226C23.034 16.257 23.043 16.282 23.053 16.307L23.051 16.303C23.1369 16.509 23.3089 16.666 23.5209 16.729L23.5259 16.73C23.9799 16.86 24.3738 17.028 24.7428 17.237L24.7158 17.223C24.8208 17.283 24.9468 17.319 25.0818 17.319C25.2628 17.311 25.4267 17.239 25.5507 17.124C25.5697 17.109 25.5967 17.115 25.6147 17.098L26.4566 16.256L27.8065 17.606L26.9626 18.441L26.9516 18.467C26.8356 18.59 26.7626 18.754 26.7546 18.935V18.937C26.7536 18.957 26.7496 18.973 26.7496 18.993C26.7496 18.994 26.7496 18.996 26.7496 18.997C26.7496 19.123 26.7816 19.242 26.8376 19.345L26.8356 19.341C27.0316 19.683 27.2006 20.078 27.3206 20.494L27.3296 20.532C27.3326 20.544 27.3456 20.549 27.3486 20.56C27.3946 20.697 27.4756 20.813 27.5815 20.899L27.5825 20.9C27.6015 20.914 27.6225 20.929 27.6445 20.942L27.6475 20.944C27.7605 21.025 27.8995 21.075 28.0505 21.079H28.0515H29.2424L29.2434 22.986ZM22.029 19.004C20.3582 19.004 19.0023 20.359 19.0023 22.03C19.0023 23.701 20.3572 25.056 22.028 25.056C23.6989 25.056 25.0538 23.702 25.0538 22.031C25.0518 20.36 23.6989 19.006 22.029 19.004ZM22.029 23.557C21.1861 23.557 20.5022 22.874 20.5022 22.031C20.5022 21.188 21.1851 20.505 22.028 20.505C22.871 20.505 23.5539 21.188 23.5539 22.031C23.5519 22.873 22.87 23.556 22.029 23.557Z" fill="url(#paint0_linear_203_237)"/>
<defs>
<linearGradient id="paint0_linear_203_237" x1="1.25547" y1="15.9052" x2="30.7428" y2="15.9052" gradientUnits="userSpaceOnUse">
<stop stop-color="#0098FF"/>
<stop offset="0.00390625" stop-color="#0198FF"/>
<stop offset="0.0078125" stop-color="#0197FE"/>
<stop offset="0.0117188" stop-color="#0396FD"/>
<stop offset="0.015625" stop-color="#0496FD"/>
<stop offset="0.0195312" stop-color="#0695FC"/>
<stop offset="0.0234375" stop-color="#0794FB"/>
<stop offset="0.0273438" stop-color="#0993FA"/>
<stop offset="0.03125" stop-color="#0A92F9"/>
<stop offset="0.0351562" stop-color="#0C91F8"/>
<stop offset="0.0390625" stop-color="#0D90F7"/>
<stop offset="0.0429688" stop-color="#0F8FF6"/>
<stop offset="0.046875" stop-color="#108EF6"/>
<stop offset="0.0507812" stop-color="#128EF5"/>
<stop offset="0.0546875" stop-color="#138DF4"/>
<stop offset="0.0585938" stop-color="#158CF3"/>
<stop offset="0.0625" stop-color="#168BF2"/>
<stop offset="0.0664062" stop-color="#178AF1"/>
<stop offset="0.0703125" stop-color="#1989F0"/>
<stop offset="0.0742188" stop-color="#1A88EF"/>
<stop offset="0.078125" stop-color="#1C87EF"/>
<stop offset="0.0820312" stop-color="#1D86EE"/>
<stop offset="0.0859375" stop-color="#1F86ED"/>
<stop offset="0.0898438" stop-color="#2085EC"/>
<stop offset="0.09375" stop-color="#2284EB"/>
<stop offset="0.0976562" stop-color="#2383EA"/>
<stop offset="0.101562" stop-color="#2582E9"/>
<stop offset="0.105469" stop-color="#2681E8"/>
<stop offset="0.109375" stop-color="#2880E8"/>
<stop offset="0.113281" stop-color="#297FE7"/>
<stop offset="0.117188" stop-color="#2B7EE6"/>
<stop offset="0.121094" stop-color="#2C7EE5"/>
<stop offset="0.125" stop-color="#2E7DE4"/>
<stop offset="0.128906" stop-color="#2F7CE3"/>
<stop offset="0.132812" stop-color="#317BE2"/>
<stop offset="0.136719" stop-color="#327AE1"/>
<stop offset="0.140625" stop-color="#3479E0"/>
<stop offset="0.144531" stop-color="#3578E0"/>
<stop offset="0.148438" stop-color="#3777DF"/>
<stop offset="0.152344" stop-color="#3876DE"/>
<stop offset="0.15625" stop-color="#3A76DD"/>
<stop offset="0.160156" stop-color="#3B75DC"/>
<stop offset="0.164062" stop-color="#3D74DB"/>
<stop offset="0.167969" stop-color="#3E73DA"/>
<stop offset="0.171875" stop-color="#4072D9"/>
<stop offset="0.175781" stop-color="#4171D9"/>
<stop offset="0.179688" stop-color="#4370D8"/>
<stop offset="0.183594" stop-color="#446FD7"/>
<stop offset="0.1875" stop-color="#466ED6"/>
<stop offset="0.191406" stop-color="#476ED5"/>
<stop offset="0.195312" stop-color="#496DD4"/>
<stop offset="0.199219" stop-color="#4A6CD3"/>
<stop offset="0.203125" stop-color="#4C6BD2"/>
<stop offset="0.207031" stop-color="#4D6AD2"/>
<stop offset="0.210938" stop-color="#4F69D1"/>
<stop offset="0.214844" stop-color="#5068D0"/>
<stop offset="0.21875" stop-color="#5267CF"/>
<stop offset="0.222656" stop-color="#5366CE"/>
<stop offset="0.226562" stop-color="#5565CD"/>
<stop offset="0.230469" stop-color="#5665CC"/>
<stop offset="0.234375" stop-color="#5864CB"/>
<stop offset="0.238281" stop-color="#5963CB"/>
<stop offset="0.242188" stop-color="#5B62CA"/>
<stop offset="0.246094" stop-color="#5C61C9"/>
<stop offset="0.25" stop-color="#5E60C8"/>
<stop offset="0.253906" stop-color="#5F5FC7"/>
<stop offset="0.257812" stop-color="#615EC6"/>
<stop offset="0.261719" stop-color="#625DC5"/>
<stop offset="0.265625" stop-color="#645DC4"/>
<stop offset="0.269531" stop-color="#655CC3"/>
<stop offset="0.273438" stop-color="#675BC3"/>
<stop offset="0.277344" stop-color="#685AC2"/>
<stop offset="0.28125" stop-color="#6A59C1"/>
<stop offset="0.285156" stop-color="#6B58C0"/>
<stop offset="0.289062" stop-color="#6D57BF"/>
<stop offset="0.292969" stop-color="#6E56BE"/>
<stop offset="0.296875" stop-color="#7055BD"/>
<stop offset="0.300781" stop-color="#7155BC"/>
<stop offset="0.304688" stop-color="#7354BC"/>
<stop offset="0.308594" stop-color="#7453BB"/>
<stop offset="0.3125" stop-color="#7652BA"/>
<stop offset="0.316406" stop-color="#7751B9"/>
<stop offset="0.320312" stop-color="#7950B8"/>
<stop offset="0.324219" stop-color="#7A4FB7"/>
<stop offset="0.328125" stop-color="#7C4EB6"/>
<stop offset="0.332031" stop-color="#7D4DB5"/>
<stop offset="0.335938" stop-color="#7F4DB5"/>
<stop offset="0.339844" stop-color="#804CB4"/>
<stop offset="0.34375" stop-color="#824BB3"/>
<stop offset="0.347656" stop-color="#834AB2"/>
<stop offset="0.351562" stop-color="#8549B1"/>
<stop offset="0.355469" stop-color="#8648B0"/>
<stop offset="0.359375" stop-color="#8847AF"/>
<stop offset="0.363281" stop-color="#8946AE"/>
<stop offset="0.367188" stop-color="#8A45AE"/>
<stop offset="0.371094" stop-color="#8C45AD"/>
<stop offset="0.375" stop-color="#8D44AC"/>
<stop offset="0.378906" stop-color="#8F43AB"/>
<stop offset="0.382812" stop-color="#9042AA"/>
<stop offset="0.386719" stop-color="#9241A9"/>
<stop offset="0.390625" stop-color="#9340A8"/>
<stop offset="0.394531" stop-color="#953FA7"/>
<stop offset="0.398438" stop-color="#963EA6"/>
<stop offset="0.402344" stop-color="#983DA6"/>
<stop offset="0.40625" stop-color="#993DA5"/>
<stop offset="0.410156" stop-color="#9B3CA4"/>
<stop offset="0.414062" stop-color="#9C3BA3"/>
<stop offset="0.417969" stop-color="#9E3AA2"/>
<stop offset="0.421875" stop-color="#9F39A1"/>
<stop offset="0.425781" stop-color="#A138A0"/>
<stop offset="0.429688" stop-color="#A2379F"/>
<stop offset="0.433594" stop-color="#A4369F"/>
<stop offset="0.4375" stop-color="#A5359E"/>
<stop offset="0.441406" stop-color="#A7359D"/>
<stop offset="0.445312" stop-color="#A8349C"/>
<stop offset="0.449219" stop-color="#AA339B"/>
<stop offset="0.453125" stop-color="#AB329A"/>
<stop offset="0.457031" stop-color="#AD3199"/>
<stop offset="0.460938" stop-color="#AE3098"/>
<stop offset="0.464844" stop-color="#B02F98"/>
<stop offset="0.46875" stop-color="#B12E97"/>
<stop offset="0.472656" stop-color="#B32D96"/>
<stop offset="0.476562" stop-color="#B42D95"/>
<stop offset="0.480469" stop-color="#B62C94"/>
<stop offset="0.484375" stop-color="#B72B93"/>
<stop offset="0.488281" stop-color="#B92A92"/>
<stop offset="0.492188" stop-color="#BA2991"/>
<stop offset="0.496094" stop-color="#BC2891"/>
<stop offset="0.5" stop-color="#BD2790"/>
<stop offset="0.503906" stop-color="#BF268F"/>
<stop offset="0.507812" stop-color="#C0258E"/>
<stop offset="0.511719" stop-color="#C2248D"/>
<stop offset="0.515625" stop-color="#C3248C"/>
<stop offset="0.519531" stop-color="#C5238B"/>
<stop offset="0.523438" stop-color="#C6228A"/>
<stop offset="0.527344" stop-color="#C8218A"/>
<stop offset="0.53125" stop-color="#C92089"/>
<stop offset="0.535156" stop-color="#CB1F88"/>
<stop offset="0.539062" stop-color="#CC1E87"/>
<stop offset="0.542969" stop-color="#CE1D86"/>
<stop offset="0.546875" stop-color="#CF1C85"/>
<stop offset="0.550781" stop-color="#D11C84"/>
<stop offset="0.554688" stop-color="#D21B83"/>
<stop offset="0.558594" stop-color="#D41A82"/>
<stop offset="0.5625" stop-color="#D51982"/>
<stop offset="0.566406" stop-color="#D71881"/>
<stop offset="0.570312" stop-color="#D81780"/>
<stop offset="0.574219" stop-color="#DA167F"/>
<stop offset="0.578125" stop-color="#DB157E"/>
<stop offset="0.582031" stop-color="#DD147D"/>
<stop offset="0.585938" stop-color="#DE147C"/>
<stop offset="0.589844" stop-color="#E0137B"/>
<stop offset="0.59375" stop-color="#E1127B"/>
<stop offset="0.597656" stop-color="#E3117A"/>
<stop offset="0.601562" stop-color="#E41079"/>
<stop offset="0.605469" stop-color="#E60F78"/>
<stop offset="0.609375" stop-color="#E70E77"/>
<stop offset="0.613281" stop-color="#E90D76"/>
<stop offset="0.617188" stop-color="#EA0C75"/>
<stop offset="0.621094" stop-color="#EC0C74"/>
<stop offset="0.625" stop-color="#ED0B74"/>
<stop offset="0.628906" stop-color="#EF0A73"/>
<stop offset="0.632812" stop-color="#F00972"/>
<stop offset="0.636719" stop-color="#F20871"/>
<stop offset="0.640625" stop-color="#F30770"/>
<stop offset="0.644531" stop-color="#F5066F"/>
<stop offset="0.648438" stop-color="#F6056E"/>
<stop offset="0.652344" stop-color="#F8046D"/>
<stop offset="0.65625" stop-color="#F9046D"/>
<stop offset="0.660156" stop-color="#FB036C"/>
<stop offset="0.664062" stop-color="#FC026B"/>
<stop offset="0.667969" stop-color="#FE016A"/>
<stop offset="0.671875" stop-color="#FF0069"/>
<stop offset="0.6875" stop-color="#FF0069"/>
<stop offset="0.75" stop-color="#FF0069"/>
<stop offset="1" stop-color="#FF0069"/>
</linearGradient>
</defs>
</svg>
