<svg width="162" height="34" viewBox="0 0 162 34" fill="none" xmlns="http://www.w3.org/2000/svg">
<path d="M109.869 5.85537C106.053 10.7829 98.2811 17.8766 92.6015 22.7157C92.2276 23.034 91.5513 22.9195 91.2144 22.2988C90.6527 21.2646 90.4935 19.9205 91.9151 18.3355C96.1117 13.6564 99.9705 8.9832 102.225 6.18887C102.953 5.28606 102.917 4.88771 101.724 4.65527C98.8268 4.08933 94.6724 3.45686 92.0128 3.06862C91.1353 2.94061 90.6788 2.18939 90.5441 1.4946C90.3899 0.699583 90.6182 0.284392 91.1816 0.250705C95.6291 -0.0112113 102.308 -0.18133 107.888 0.33408C111.4 0.658317 111.891 3.24379 109.869 5.85537Z" fill="url(#paint0_linear_13_1449)"/>
<path d="M160.993 0.621305C160.731 1.42558 160.501 2.13216 160.226 2.93223C160.025 3.51586 159.623 3.86283 158.988 3.89989C157.919 3.89989 153.911 3.93947 152.74 3.93947C151.677 3.99674 151.06 4.50625 150.86 5.55476C150.559 7.13299 150.29 8.71712 150.006 10.2987C149.581 12.6703 149.169 15.0444 148.722 17.4126C148.458 18.8097 148.913 19.4051 150.327 19.411C150.844 19.4136 151.362 19.4245 151.878 19.3993C153.036 19.3428 153.801 18.7356 154.054 17.6037C154.303 16.3531 154.441 15.5177 154.637 14.4751C154.678 14.2611 154.6 14.1887 154.394 14.1921C154.035 14.198 153.508 14.2039 153.149 14.1879C152.316 14.15 152.215 13.8603 152.229 13.0392C152.24 12.3065 152.265 11.5738 152.259 10.8411C152.256 10.5573 152.378 10.468 152.63 10.468C153.645 10.468 158.294 10.5025 158.836 10.5025C159.379 10.5025 159.684 10.8798 159.611 11.4677C159.528 12.1363 159.402 12.8 159.287 13.4645C158.981 15.2313 158.674 16.9982 158.363 18.7634C158.14 20.0343 157.901 21.3034 157.689 22.5759C157.645 22.8404 157.561 22.9389 157.283 22.9305C156.637 22.9094 155.991 22.9322 155.344 22.9195C154.534 22.9035 154.303 22.6711 154.23 21.8719C154.211 21.6613 154.189 21.4011 154.162 21.1375C154.146 20.9809 153.921 20.9531 153.818 21.1215C153.098 22.2955 151.642 23.0779 150.615 23.1629C149.587 23.248 148.602 23.2202 147.6 23.1579C146.459 23.0871 145.393 22.7671 144.623 21.8272C144.061 21.1409 143.867 20.3248 143.809 19.4666C143.733 18.3684 143.91 17.2904 144.099 16.215C144.619 13.2623 145.139 10.3105 145.649 7.35617C145.867 6.09628 146.098 4.84396 146.646 3.67334C147.522 1.79866 149 0.702154 151.013 0.345915C151.829 0.201903 152.667 0.160636 153.498 0.13116C154.488 0.0957889 155.48 0.122738 156.471 0.122738C157.894 0.122738 159.159 0.121054 160.581 0.123581C160.99 0.123581 161.121 0.22801 160.993 0.621305ZM19.4355 3.20088C19.678 5.02166 19.2813 6.80791 18.5436 8.49058C18.0779 9.55256 17.1498 10.4133 16.0221 10.6339C15.7787 10.6819 15.5994 10.6811 15.6154 10.9C15.6271 11.0592 15.7097 11.0567 15.9758 11.1392C16.8719 11.4163 17.5422 11.9637 17.8968 12.8564C18.1629 13.5251 18.2396 14.2283 18.1612 14.9307C17.997 16.4129 17.7974 17.8951 17.293 19.3091C16.5561 21.3733 15.0401 22.4942 12.9095 22.8395C11.2537 23.1082 9.58455 22.9692 7.92126 23.0012C7.63407 23.0071 7.34689 23.0021 7.05971 23.0021C5.52275 23.0021 3.98578 22.9953 2.44881 23.008C2.15826 23.0105 2.09089 22.9397 2.1431 22.6492C2.48418 20.7577 2.80842 18.8645 3.13771 16.9713C3.70028 13.7356 4.26117 10.4992 4.82458 7.26437C5.21114 5.04609 5.60275 2.82948 5.98847 0.611199C6.02973 0.372864 6.05668 0.190112 6.39018 0.193481C9.46328 0.222957 12.5364 0.273488 15.6095 0.273488C17.7915 0.272645 19.2005 1.42979 19.4355 3.20088ZM11.871 12.8985C10.8663 12.8985 9.97447 12.8977 9.02703 12.8842C8.7668 12.8808 8.64468 12.9558 8.59668 13.2286C8.26571 15.1362 7.9221 17.042 7.57512 18.947C7.52543 19.2199 7.61639 19.3016 7.88588 19.299C8.80638 19.2906 10.3501 19.2805 11.2883 19.2477C12.0521 19.2207 12.5869 18.7626 12.757 18.0055C12.9684 17.0698 13.2354 15.4621 13.3988 14.5155C13.6068 13.3053 12.8766 12.8985 11.871 12.8985ZM13.3583 3.93189C12.4395 3.91252 11.5207 3.93526 10.6019 3.91505C10.3248 3.90915 10.2229 4.02284 10.1791 4.26876C9.897 5.84952 9.61318 7.4286 9.32263 9.00767C9.28052 9.2359 9.34621 9.31591 9.58034 9.31591C10.2052 9.31591 11.5418 9.3058 12.1641 9.3058C13.2446 9.3058 13.8889 8.78365 14.1533 7.73767C14.3496 6.96203 14.4717 6.16533 14.5812 5.37116C14.7142 4.40772 14.3201 3.9521 13.3583 3.93189ZM76.3504 0.198534C74.8277 0.221273 73.3034 0.197692 71.7833 0.267592C70.5225 0.325702 69.5894 0.974176 69.0378 2.12459C68.7835 2.65431 68.5434 3.19246 68.3211 3.73651C67.7813 5.05451 67.0856 6.64958 66.6376 7.70651C66.3959 8.27666 66.2266 8.72386 66.1331 9.03546C65.9302 9.71341 65.7558 10.361 65.5958 10.9952C65.5554 11.1569 65.3002 11.1207 65.296 10.9531C65.2918 10.7956 65.4063 9.26453 65.4148 9.06915C65.435 8.61101 65.4493 8.18402 65.4114 7.4926C65.3179 5.77204 65.1638 4.05485 64.992 2.34018C64.8774 1.19314 64.4008 0.494979 63.1931 0.313912C62.9666 0.280225 62.7383 0.238116 62.5109 0.234748C61.1315 0.217904 59.7528 0.215378 58.3733 0.197692C58.1342 0.195165 58.0601 0.2937 58.0222 0.519402C57.868 1.43906 54.7587 19.0186 54.1482 22.469C54.0783 22.8656 54.1751 23.0012 54.5853 23.0021C55.8207 23.0038 57.8765 23.0139 58.1712 23.0139C58.4651 23.0139 58.6563 22.9002 58.7153 22.5566C59.1625 19.9408 59.5987 17.3225 60.0964 14.7159C60.5369 12.4134 60.8249 10.0966 60.9782 7.75957C61.0363 6.87108 61.1222 5.98427 61.2123 5.09914C61.2233 4.99219 61.3412 4.89618 61.4094 4.79512C61.5172 4.8886 61.6351 4.97366 61.7269 5.08146C61.7648 5.12609 61.7463 5.21957 61.753 5.29116C61.7976 5.77709 61.8431 6.26303 61.8877 6.7498C62.0747 8.80892 62.26 10.868 62.4503 12.9271C62.5573 14.0851 62.6684 15.2431 62.788 16.3994C62.8436 16.9325 63.0508 17.1279 63.5973 17.1591C63.9839 17.181 64.6644 17.1784 65.0636 17.1784C65.675 17.1784 65.9571 17.0647 66.2106 16.4693C66.7159 15.281 71.1853 5.18504 71.2451 5.04861C71.3546 4.79849 71.8557 4.87681 71.7749 5.16904C71.4809 6.23355 71.2013 7.30143 70.9167 8.36846C70.6202 9.47676 70.2657 10.575 70.0492 11.6993C69.5802 14.1357 69.1826 16.5864 68.7548 19.0312C68.5249 20.3433 68.2015 22.1591 68.1426 22.5077C68.0836 22.8555 68.204 23.0004 68.5064 23.0004C68.8087 23.0004 70.963 22.9962 72.3425 23.0105C72.6297 23.013 72.6692 22.7949 72.7071 22.5785C73.1004 20.3315 76.246 2.4084 76.5854 0.516876C76.6249 0.289489 76.5971 0.195165 76.3504 0.198534ZM54.629 5.4158C54.3158 7.36964 52.9135 15.3939 52.5329 17.453C52.3653 18.3583 52.0722 19.2274 51.6427 20.0477C50.7441 21.7615 49.3099 22.7621 47.4318 23.0627C46.2755 23.248 41.9611 23.2598 40.9909 23.1671C40.4847 23.1191 39.9727 22.9734 39.4977 22.7856C38.077 22.2231 37.4175 21.0971 37.2862 19.6216C37.1851 18.4948 37.3493 17.3865 37.5447 16.2824C37.8849 14.3622 39.1381 7.27279 39.4556 5.65498C39.6981 4.41867 40.1386 3.2531 40.9269 2.24923C41.9846 0.900907 43.434 0.233905 45.0897 0.0949468C46.5602 -0.0288528 49.9137 0.0359946 51.3168 0.191797C52.8411 0.361074 54.1406 1.28494 54.5364 2.84885C54.7486 3.69524 54.7663 4.56099 54.629 5.4158ZM49.7975 5.17915C49.8927 4.29402 49.4505 3.81988 48.5578 3.78198C47.7409 3.74745 46.9198 3.74577 46.1029 3.78367C45.2978 3.82157 44.7251 4.2376 44.4573 5.01661C44.3688 5.27347 44.3006 5.5396 44.2535 5.80741C43.8282 8.19329 43.4088 10.58 42.9894 12.9667C42.7039 14.5904 42.4175 16.215 42.1362 17.8395C41.9611 18.8535 42.4462 19.4481 43.4804 19.4843C43.8391 19.4969 45.1891 19.4927 45.5058 19.4894C46.7311 19.4759 47.3847 18.9571 47.6095 17.7646C47.8942 16.2571 48.146 14.7429 48.4138 13.2329C48.7195 11.5106 49.0303 9.78921 49.3318 8.06612C49.4977 7.1052 49.6931 6.14681 49.7975 5.17915ZM36.9148 2.84885C37.1287 3.6944 37.1455 4.56015 37.0091 5.4158C36.6958 7.36964 35.2936 15.3939 34.9129 17.453C34.7453 18.3583 34.4531 19.2274 34.0227 20.0477C33.1241 21.7615 31.6899 22.7621 29.811 23.0627C28.6547 23.248 24.3403 23.2598 23.3701 23.1671C22.8639 23.1191 22.3519 22.9734 21.8769 22.7856C20.4562 22.2231 19.7967 21.0971 19.6645 19.6216C19.5635 18.4948 19.7277 17.3865 19.9231 16.2824C20.2633 14.3622 21.5165 7.27279 21.834 5.65498C22.0765 4.41867 22.517 3.2531 23.3052 2.24923C24.363 0.900907 25.8124 0.233905 27.4689 0.0949468C28.9394 -0.0288528 32.2929 0.0359946 33.696 0.191797C35.2195 0.361074 36.5198 1.28494 36.9148 2.84885ZM32.1775 5.17915C32.2727 4.29402 31.8306 3.81988 30.9379 3.78198C30.121 3.74745 29.2998 3.74577 28.4829 3.78367C27.6786 3.82157 27.1051 4.2376 26.8373 5.01661C26.7489 5.27347 26.6807 5.5396 26.6327 5.80741C26.2074 8.19329 25.788 10.58 25.3686 12.9667C25.0831 14.5904 24.7967 16.215 24.5154 17.8395C24.3403 18.8535 24.8254 19.4481 25.8596 19.4843C26.2183 19.4969 27.5683 19.4927 27.885 19.4894C29.1103 19.4759 29.7639 18.9571 29.9887 17.7646C30.2734 16.2571 30.5252 14.7429 30.793 13.2329C31.0979 11.5106 31.4095 9.78921 31.7101 8.06612C31.8786 7.1052 32.0739 6.14681 32.1775 5.17915ZM121.456 1.18135C121.612 3.17141 122.411 13.7146 123.1 22.618C123.124 22.9212 123.056 23.013 122.745 23.008C121.653 22.9903 120.56 23.008 119.469 22.9987C118.518 22.9911 118.159 22.6248 118.115 21.663C118.068 20.6297 118.015 19.5963 117.962 18.563C117.939 18.1048 117.891 18.0526 117.416 18.0509C115.993 18.0459 114.57 18.0551 113.147 18.045C112.781 18.0425 112.569 18.1832 112.434 18.5301C112.004 19.6401 111.546 20.7391 111.105 21.8458C110.79 22.6374 110.195 22.9979 109.364 22.9987C107.064 23.0012 104.765 23.0004 102.465 22.997C102.294 22.997 102.123 22.9675 101.951 22.9566C101.106 22.8993 100.716 22.4168 100.512 21.6159C100.298 20.7762 100.008 19.7925 99.8613 19.1399C99.7367 18.584 99.7519 18.3962 100.19 18.0139C100.627 17.6324 102.929 15.6701 103.243 15.4031C103.557 15.1353 103.859 15.2734 103.996 15.7695C104.271 16.7582 104.74 18.44 105.088 19.6519C105.348 20.5606 105.609 21.4685 105.869 22.3763C105.905 22.3746 105.939 22.373 105.975 22.3713C106.285 21.6495 106.599 20.9278 106.908 20.2052C109.585 13.9378 114.913 1.50306 115.139 0.975018C115.366 0.446975 115.85 0.162321 116.458 0.163163C117.766 0.164847 119.074 0.154741 120.381 0.166532C121.095 0.174953 121.399 0.467187 121.456 1.18135ZM117.608 7.75704C117.63 6.86687 117.763 5.28863 117.768 5.10925C117.774 4.92987 117.471 4.87428 117.433 5.05619C117.395 5.2381 116.401 8.26235 115.857 9.78752C115.37 11.1518 114.823 12.4934 114.303 13.8451C114.116 14.3319 114.157 14.3976 114.659 14.3984C115.493 14.4001 116.326 14.3993 117.16 14.3984C117.752 14.3976 117.786 14.3563 117.763 13.7449C117.71 12.3385 117.662 10.9312 117.605 9.35886C117.605 8.9344 117.593 8.34488 117.608 7.75704ZM143.933 0.196008C142.563 0.196008 141.217 0.192639 140.309 0.192639C139.843 0.192639 139.656 0.423394 139.577 0.879853C139.211 3.00045 138.862 4.90039 138.496 7.02098C138.225 8.58995 137.891 10.1522 137.706 11.7313C137.471 13.7407 137.361 15.8301 137.256 17.8522C137.241 18.1318 136.829 18.1613 136.802 17.8345C136.215 10.7257 135.884 6.43146 135.508 1.80456C135.415 0.649097 134.892 0.192639 133.969 0.192639C132.712 0.192639 129.64 0.214535 128.893 0.193481C128.581 0.184217 128.478 0.291173 128.433 0.594356C128.307 1.46011 128.143 2.31997 127.992 3.18236C127.551 5.68277 124.92 20.7324 124.613 22.5136C124.529 22.9995 124.539 23.0012 125.015 23.0012C126.093 23.0012 127.171 23.0012 128.248 23.0012C129.188 23.0012 129.177 22.9995 129.332 22.0748C129.626 20.3349 130.895 13.5049 131.113 11.8138C131.334 10.0924 131.417 8.35246 131.557 6.62095C131.598 6.11986 131.62 5.61708 131.673 5.11767C131.701 4.85744 132.154 4.8886 132.17 5.13872C132.246 6.35735 132.37 7.81431 132.456 9.03209C132.624 11.3809 133.178 19.3184 133.31 20.9354C133.411 22.17 134.008 22.7663 135.24 22.9077C135.682 22.9583 136.127 22.992 136.571 22.997C137.663 23.0096 138.755 23.0012 139.847 23.0012C140.341 23.0012 140.347 23.0021 140.434 22.5052C140.677 21.1063 143.746 3.49733 144.268 0.588461C144.328 0.257486 144.233 0.196008 143.933 0.196008ZM88.844 9.55508C88.5543 9.55508 84.677 9.55593 82.5934 9.55424C82.1774 9.55424 82.1673 9.5475 82.2372 9.14747C82.5117 7.57934 82.8056 6.01374 83.0625 4.44225C83.1231 4.06748 83.2848 3.99758 83.6276 4.00011C85.2968 4.0119 87.4014 4.00516 88.6352 4.00516C89.869 4.00516 88.7522 0.200218 88.241 0.200218C87.7298 0.200218 82.2094 0.200218 79.5431 0.200218C78.978 0.200218 78.9839 0.201903 78.8853 0.77795C78.6495 2.16417 76.4658 14.614 76.1702 16.3388C75.9546 17.5987 75.7171 18.856 76.0304 20.1395C76.2653 21.1021 76.785 21.8306 77.6642 22.2989C78.6975 22.8488 79.8319 22.9701 80.9647 22.9869C83.4785 23.0231 85.9941 22.9953 88.5088 23.0088C88.8087 23.0105 88.8701 22.896 88.8701 22.634C88.8701 21.9729 88.887 21.3118 88.903 20.6516C88.9325 19.4405 88.7051 19.198 87.5067 19.1954C85.8829 19.1912 84.2592 19.198 82.6355 19.1912C82.3206 19.1904 82.0022 19.1702 81.6906 19.1239C81.0994 19.0371 80.7794 18.6682 80.7676 18.0678C80.7625 17.7958 80.7726 17.5195 80.8164 17.2526C81.0194 16.0213 81.2527 14.7942 81.4396 13.5605C81.4952 13.1933 81.6359 13.0956 81.9938 13.099C83.6891 13.1158 85.3852 13.1116 87.0805 13.1015C87.8309 13.0973 88.2612 12.7899 88.5046 12.0833C88.7396 11.3994 89.1144 10.2558 89.1893 9.97533C89.2643 9.69488 89.1346 9.55508 88.844 9.55508ZM97.5437 5.36443C96.5903 5.12778 95.3692 4.94924 94.5026 4.85997C94.0251 4.81112 93.8053 4.9366 93.7446 5.30716C93.4019 7.38396 92.6675 11.7245 92.3011 13.9083C92.1891 14.5736 92.6591 14.465 92.942 14.1828C94.7359 12.3898 96.8758 10.2339 97.211 9.78752C97.5454 9.34117 97.6498 9.1281 97.7652 8.58995C97.8805 8.0518 98.0128 6.9974 98.1239 6.34472C98.2334 5.69287 98.0456 5.48907 97.5437 5.36443Z" fill="#2B2B2B"/>
<path d="M6.43926 27.473C6.93109 27.8646 7.177 28.4162 7.177 29.1278C7.177 29.7115 7.03552 30.2235 6.75339 30.6623C6.47126 31.101 6.0687 31.4396 5.54656 31.6788C5.02525 31.9171 4.41889 32.0375 3.72746 32.0375H2.33282L1.97406 33.8617H0L1.39464 26.8843H4.34562C5.24843 26.8843 5.94743 27.0813 6.43926 27.473ZM4.82902 30.1738C5.06399 29.9683 5.18274 29.6752 5.18274 29.2971C5.18274 29.0108 5.08841 28.7969 4.89808 28.6537C4.70859 28.5105 4.43826 28.4389 4.08623 28.4389H3.04951L2.6419 30.4829H3.81757C4.25635 30.4837 4.59321 30.3801 4.82902 30.1738Z" fill="#0098FF"/>
<path d="M13.516 32.5066H10.5456L9.73797 33.8617H7.65527L12.1297 26.8843H14.0735L15.7578 33.8617H13.7947L13.516 32.5066ZM13.2161 31.0505L12.7471 28.7876L11.4114 31.0505H13.2161Z" fill="#0098FF"/>
<path d="M24.5993 30.7574C24.2608 31.2189 23.785 31.5558 23.1752 31.7689L24.361 33.8617H22.2977L21.261 32.0081H20.2638L19.895 33.8617H17.9209L19.3164 26.8843H22.2968C23.1879 26.8843 23.8784 27.0805 24.3703 27.473C24.8621 27.8646 25.1072 28.4086 25.1072 29.1068C25.1072 29.7451 24.9379 30.2959 24.5993 30.7574ZM22.8257 28.6545C22.6329 28.5114 22.3642 28.4398 22.0189 28.4398H20.9822L20.5636 30.4837H21.7393C22.1781 30.4837 22.5175 30.3801 22.7558 30.1747C22.995 29.9692 23.1146 29.6761 23.1146 29.2979C23.1137 29.0116 23.0186 28.7977 22.8257 28.6545Z" fill="#0098FF"/>
<path d="M29.3534 28.4499H27.2109L27.5293 26.8851H33.779L33.4599 28.4499H31.3266L30.2411 33.8625H28.267L29.3534 28.4499Z" fill="#0098FF"/>
<path d="M42.7402 26.8843L41.3447 33.8617H39.7202L37.4176 30.034L36.6496 33.8617H34.7168L36.1114 26.8843H37.7368L40.0494 30.7019L40.8057 26.8843H42.7402Z" fill="#0098FF"/>
<path d="M47.375 28.4095L47.1459 29.586H50.2468L49.9571 31.0606H46.8478L46.5985 32.3374H50.2569L49.9377 33.8625H44.3457L45.7412 26.8851H51.2027L50.8944 28.4103L47.375 28.4095Z" fill="#0098FF"/>
<path d="M59.3161 30.7574C58.9776 31.2189 58.5017 31.5558 57.8912 31.7689L59.077 33.8617H57.0136L55.9778 32.0081H54.9806L54.6118 33.8617H52.6377L54.0323 26.8843H57.0128C57.9038 26.8843 58.5944 27.0805 59.0862 27.473C59.578 27.8646 59.824 28.4086 59.824 29.1068C59.824 29.7451 59.6547 30.2959 59.3161 30.7574ZM57.5408 28.6545C57.348 28.5114 57.0793 28.4398 56.734 28.4398H55.6973L55.2796 30.4837H56.4553C56.894 30.4837 57.2326 30.3801 57.4718 30.1747C57.7101 29.9692 57.8305 29.6761 57.8305 29.2979C57.8305 29.0116 57.7345 28.7977 57.5408 28.6545Z" fill="#0098FF"/>
<path d="M62.5646 33.7917C62.0458 33.6527 61.6247 33.4734 61.2988 33.2527L62.0762 31.7781C62.4282 32.0046 62.8038 32.1756 63.2021 32.2909C63.6022 32.4072 63.9997 32.4661 64.3989 32.4661C64.7778 32.4661 65.0718 32.4105 65.2815 32.3019C65.4903 32.1916 65.5948 32.04 65.5948 31.848C65.5948 31.682 65.5004 31.5515 65.3109 31.4589C65.1215 31.3662 64.8275 31.266 64.4283 31.1607C63.9769 31.0403 63.6022 30.9199 63.3024 30.7969C63.0034 30.674 62.7457 30.4862 62.5292 30.2327C62.3136 29.9809 62.205 29.649 62.205 29.2355C62.205 28.737 62.3414 28.3016 62.6143 27.9251C62.8855 27.5495 63.2754 27.259 63.7807 27.0526C64.286 26.8471 64.8764 26.7444 65.5535 26.7444C66.0521 26.7444 66.5178 26.7966 66.9498 26.8985C67.381 27.0021 67.7532 27.1503 68.0657 27.3423L67.3473 28.8077C67.0753 28.6351 66.7746 28.5037 66.4462 28.4136C66.1177 28.3235 65.78 28.2788 65.4339 28.2788C65.0414 28.2788 64.7349 28.342 64.5117 28.4692C64.2894 28.5946 64.1782 28.758 64.1782 28.9576C64.1782 29.1303 64.2742 29.2625 64.4679 29.356C64.6608 29.4494 64.9598 29.5488 65.364 29.6549C65.8162 29.7678 66.1893 29.8832 66.4858 30.0036C66.7814 30.1232 67.0349 30.3059 67.2479 30.551C67.461 30.7978 67.5671 31.1195 67.5671 31.5178C67.5671 32.0097 67.429 32.4434 67.1536 32.819C66.8774 33.1938 66.4858 33.4851 65.9779 33.6906C65.4701 33.8961 64.8789 33.9997 64.2077 33.9997C63.6316 34.0014 63.0826 33.9315 62.5646 33.7917Z" fill="#0098FF"/>
<defs>
<linearGradient id="paint0_linear_13_1449" x1="90.4985" y1="11.4437" x2="111.058" y2="11.4437" gradientUnits="userSpaceOnUse">
<stop stop-color="#0098FF"/>
<stop offset="0.6974" stop-color="#FF0069"/>
</linearGradient>
</defs>
</svg>
