<svg width="32" height="32" viewBox="0 0 32 32" fill="none" xmlns="http://www.w3.org/2000/svg">
<g clip-path="url(#clip0_2_20760)">
<mask id="mask0_2_20760" style="mask-type:luminance" maskUnits="userSpaceOnUse" x="0" y="0" width="32" height="32">
<path d="M32 0H0V32H32V0Z" fill="white"/>
</mask>
<g mask="url(#mask0_2_20760)">
<path d="M16 32C24.8365 32 32 24.8365 32 16C32 7.16347 24.8365 0 16 0C7.16347 0 0 7.16347 0 16C0 24.8365 7.16347 32 16 32Z" fill="#039BE5"/>
<path d="M7.32168 15.6533L22.7483 9.70534C23.4643 9.44667 24.0897 9.88 23.8577 10.9627L23.859 10.9613L21.2323 23.336C21.0377 24.2133 20.5163 24.4267 19.787 24.0133L15.787 21.0653L13.8577 22.924C13.6443 23.1373 13.4643 23.3173 13.051 23.3173L13.335 19.2467L20.7483 12.5493C21.071 12.2653 20.6763 12.1053 20.251 12.388L11.0897 18.156L7.14035 16.924C6.28302 16.652 6.26435 16.0667 7.32168 15.6533Z" fill="white"/>
</g>
</g>
<defs>
<clipPath id="clip0_2_20760">
<rect width="32" height="32" fill="white"/>
</clipPath>
</defs>
</svg>
