<!-- icon666.com - MILLIONS vector ICONS FREE --><svg viewBox="-15 0 495 496" xmlns="http://www.w3.org/2000/svg"><path d="m248.5 88c0 8.835938-7.164062 16-16 16s-16-7.164062-16-16 7.164062-16 16-16 16 7.164062 16 16zm0 0" fill="#fcd770"></path><path d="m296.5 424v16c0 8.800781-7.199219 16-16 16h-96c-8.800781 0-16-7.199219-16-16v-16zm0 0" fill="#ccd1d9"></path><path d="m296.5 424h160v32c0 17.679688-14.320312 32-32 32h-384c-17.679688 0-32-14.320312-32-32v-32h160v16c0 8.800781 7.199219 16 16 16h96c8.800781 0 16-7.199219 16-16zm0 0" fill="#838f9b"></path><path d="m8.5 424v-256c0-17.679688 14.320312-32 32-32h384c17.679688 0 32 14.320312 32 32v256zm0 0" fill="#ccd1d9"></path><path d="m424.5 176v248h-384v-248c0-4.398438 3.601562-8 8-8h368c4.398438 0 8 3.601562 8 8zm0 0" fill="#69d6f4"></path><path d="m336.5 256c0-30.929688-46.5625-56-104-56s-104 25.070312-104 56 46.5625 56 104 56 104-25.070312 104-56zm0 0" fill="#e6e9ed"></path><path d="m232.5 200c30.960938 0 56 25.039062 56 56s-25.039062 56-56 56-56-25.039062-56-56 25.039062-56 56-56zm0 0" fill="#3bafda"></path><path d="m256.5 256c0 13.253906-10.746094 24-24 24s-24-10.746094-24-24 10.746094-24 24-24 24 10.746094 24 24zm0 0" fill="#e6e9ed"></path><path d="m232.5 224c-17.648438 0-32 14.351562-32 32s14.351562 32 32 32 32-14.351562 32-32-14.351562-32-32-32zm0 48c-8.824219 0-16-7.175781-16-16s7.175781-16 16-16 16 7.175781 16 16-7.175781 16-16 16zm0 0"></path><path d="m139.859375 268.128906-14 7.742188c14.609375 26.394531 57.464844 44.128906 106.640625 44.128906s92.03125-17.734375 106.640625-44.128906l-14-7.742188c-6.863281 12.40625-22.871094 22.582032-43.578125 28.894532 9.3125-11.121094 14.9375-25.421876 14.9375-41.023438s-5.625-29.902344-14.9375-41.023438c20.707031 6.3125 36.714844 16.488282 43.578125 28.894532l14-7.742188c-14.609375-26.394531-57.464844-44.128906-106.640625-44.128906s-92.03125 17.734375-106.640625 44.128906l14 7.742188c6.863281-12.40625 22.871094-22.582032 43.578125-28.894532-9.3125 11.121094-14.9375 25.421876-14.9375 41.023438s5.625 29.902344 14.9375 41.023438c-20.699219-6.3125-36.714844-16.488282-43.578125-28.894532zm44.640625-12.128906c0-26.472656 21.527344-48 48-48s48 21.527344 48 48-21.527344 48-48 48-48-21.527344-48-48zm0 0"></path><path d="m424.5 128h-384c-22.054688 0-40 17.945312-40 40v288c0 22.054688 17.945312 40 40 40h384c22.054688 0 40-17.945312 40-40v-288c0-22.054688-17.945312-40-40-40zm24 328c0 13.230469-10.769531 24-24 24h-384c-13.230469 0-24-10.769531-24-24v-24h144v8c0 13.230469 10.769531 24 24 24h96c13.230469 0 24-10.769531 24-24v-8h144zm-32-40h-368v-240h368zm-240 16h112v8c0 4.40625-3.59375 8-8 8h-96c-4.40625 0-8-3.59375-8-8zm256-16v-240c0-8.824219-7.175781-16-16-16h-368c-8.824219 0-16 7.175781-16 16v240h-16v-248c0-13.230469 10.769531-24 24-24h384c13.230469 0 24 10.769531 24 24v248zm0 0"></path><path d="m208.5 88c0 13.230469 10.769531 24 24 24s24-10.769531 24-24-10.769531-24-24-24-24 10.769531-24 24zm32 0c0 4.40625-3.59375 8-8 8s-8-3.59375-8-8 3.59375-8 8-8 8 3.59375 8 8zm0 0"></path><path d="m232.5 16c32.054688 0 62.183594 12.488281 84.847656 35.152344l11.3125-11.3125c-25.679687-25.6875-59.832031-39.839844-96.160156-39.839844s-70.480469 14.152344-96.167969 39.832031l11.3125 11.3125c22.671875-22.65625 52.800781-35.144531 84.855469-35.144531zm0 0"></path><path d="m306.035156 62.464844c-19.648437-19.648438-45.757812-30.464844-73.535156-30.464844s-53.886719 10.816406-73.535156 30.464844l11.3125 11.3125c16.621094-16.625 38.71875-25.777344 62.222656-25.777344s45.601562 9.152344 62.222656 25.777344zm0 0"></path><path d="m320.5 448h16v16h-16zm0 0"></path><path d="m352.5 448h16v16h-16zm0 0"></path><path d="m384.5 448h16v16h-16zm0 0"></path></svg>