<!-- icon666.com - MILLIONS vector ICONS FREE --><svg enable-background="new 0 0 2210.986 2210.986" viewBox="0 0 2210.986 2210.986" xmlns="http://www.w3.org/2000/svg" xmlns:xlink="http://www.w3.org/1999/xlink"><linearGradient id="SVGID_1_" gradientTransform="matrix(0 -1 1 0 2006.385 -3045.001)" gradientUnits="userSpaceOnUse" x1="-4932.193" x2="-3368.79" y1="-119.192" y2="-1682.595"><stop offset="0" stop-color="#ffb600"></stop><stop offset="1" stop-color="#ffe83e"></stop></linearGradient><linearGradient id="SVGID_2_" gradientUnits="userSpaceOnUse" x1="920.408" x2="1307.87" y1="1444.948" y2="1444.948"><stop offset="0" stop-color="#e84d00"></stop><stop offset=".3627" stop-color="#d43917"></stop><stop offset=".7208" stop-color="#c62c27"></stop><stop offset="1" stop-color="#c1272d"></stop></linearGradient><path d="m1105.484 2210.986c-610.539 0-1105.484-494.945-1105.484-1105.501 0-610.539 494.946-1105.485 1105.484-1105.485 610.556 0 1105.502 494.945 1105.502 1105.484 0 610.556-494.946 1105.502-1105.502 1105.502z" fill="url(#SVGID_1_)"></path><path d="m986.443 1305.007c36.48 0 66.052 29.572 66.052 66.035v20.115c0 33.997 27.647 61.644 61.644 61.644 33.98 0 61.627-27.647 61.627-61.644v-20.115c0-36.463 29.572-66.035 66.052-66.035s66.052 29.572 66.052 66.035v20.115c0 106.822-86.91 193.731-193.731 193.731-106.838 0-193.731-86.91-193.731-193.731v-20.115c0-36.462 29.572-66.035 66.035-66.035z" fill="url(#SVGID_2_)"></path><circle cx="548.781" cy="983.696" fill="#282d35" r="87.547"></circle><circle cx="1627.441" cy="983.696" fill="#282d35" r="87.547"></circle><g fill="#f97e58"><ellipse cx="422.321" cy="1348.308" rx="201.034" ry="95.38"></ellipse><ellipse cx="1766.869" cy="1348.308" rx="201.034" ry="95.38"></ellipse></g></svg>