<!-- icon666.com - MILLIONS vector ICONS FREE --><svg viewBox="-53 0 507 507.34" xmlns="http://www.w3.org/2000/svg"><path d="m397.488281 417.179688v47.261718c0 21.480469-17.417969 38.898438-38.898437 38.898438h-315.519532c-21.5 0-38.898437-17.417969-38.898437-38.898438v-47.261718c0-61.398438 49.757813-111.179688 111.179687-111.179688h33.378907c5.519531 0 10-4.480469 10-10v-46.179688h84.199219v46.179688c0 5.519531 4.480468 10 10 10h33.378906c61.421875 0 111.179687 49.78125 111.179687 111.179688zm0 0" fill="#1c868e"></path><path d="m397.488281 417.179688v47.261718c0 21.480469-17.417969 38.898438-38.898437 38.898438h-275.519532c-21.5 0-38.898437-17.417969-38.898437-38.898438v-47.261718c0-61.398438 49.757813-111.179688 111.179687-111.179688h33.378907c5.519531 0 10-4.480469 10-10v-46.179688h44.199219v46.179688c0 5.519531 4.480468 10 10 10h33.378906c61.421875 0 111.179687 49.78125 111.179687 111.179688zm0 0" fill="#40c4df"></path><path d="m142.964844 364.910156h-72.613282c-5.523437 0-10 4.480469-10 10v72.613282c0 5.523437 4.476563 10 10 10h72.613282c5.519531 0 10-4.476563 10-10v-72.613282c0-5.519531-4.476563-10-10-10zm0 0" fill="#7befe4"></path><path d="m120.882812 386.992188h-28.449218c-5.523438 0-10 4.480468-10 10v28.453124c0 5.519532 4.476562 10 10 10h28.449218c5.523438 0 10-4.480468 10-10v-28.453124c0-5.523438-4.476562-10-10-10zm0 0" fill="#56c1b3"></path><path d="m288.941406 178.105469h36.039063c15.605469 0 28.253906-12.648438 28.253906-28.253907 0-15.605468-12.648437-28.253906-28.253906-28.253906h-36.039063zm0 0" fill="#7befe4"></path><path d="m112.71875 121.597656h-36.039062c-15.605469 0-28.253907 12.648438-28.253907 28.253906 0 15.605469 12.648438 28.253907 28.253907 28.253907h36.035156v-56.507813zm0 0" fill="#7befe4"></path><path d="m306.050781 133.679688v35.519531c0 51.261719-36.679687 93.980469-85.222656 103.320312-6.476563 1.242188-13.15625 1.902344-20 1.902344-58.097656 0-105.21875-47.121094-105.21875-105.222656v-35.519531c0-58.101563 47.121094-105.21875 105.21875-105.21875 6.84375 0 13.523437.660156 20 1.898437 21.042969 4.0625 39.84375 14.359375 54.402344 28.921875 19.039062 19.039062 30.820312 45.359375 30.820312 74.398438zm0 0" fill="#d8d6d7"></path><path d="m306.050781 133.679688v35.519531c0 51.261719-36.679687 93.980469-85.222656 103.320312-48.539063-9.339843-85.21875-52.058593-85.21875-103.320312v-35.519531c0-51.257813 36.679687-93.980469 85.21875-103.320313 21.042969 4.0625 39.84375 14.359375 54.402344 28.921875 19.039062 19.039062 30.820312 45.359375 30.820312 74.398438zm0 0" fill="#fff"></path><path d="m160.6875 147.503906c0 8.671875-7.03125 15.707032-15.707031 15.707032s-15.707031-7.035157-15.707031-15.707032c0-8.675781 7.03125-15.710937 15.707031-15.710937s15.707031 7.035156 15.707031 15.710937zm0 0" fill="#40c4df"></path><path d="m272.386719 147.503906c0 8.671875-7.03125 15.707032-15.707031 15.707032-8.675782 0-15.707032-7.035157-15.707032-15.707032 0-8.675781 7.03125-15.710937 15.707032-15.710937 8.675781 0 15.707031 7.035156 15.707031 15.710937zm0 0" fill="#40c4df"></path><path d="m238.6875 219.769531h-75c-5.5 0-10-4.5-10-10v-21.664062c0-5.5 4.5-10 10-10h75c5.5 0 10 4.5 10 10v21.664062c0 5.5-4.5 10-10 10zm0 0" fill="#40c4df"></path><g fill="#491352"><path d="m164.691406 147.5c0-10.859375-8.839844-19.699219-19.703125-19.699219-10.878906 0-19.71875 8.839844-19.71875 19.699219s8.839844 19.699219 19.71875 19.699219c10.863281 0 19.703125-8.839844 19.703125-19.699219zm-19.703125 11.699219c-6.457031 0-11.71875-5.238281-11.71875-11.699219s5.261719-11.699219 11.71875-11.699219c6.441407 0 11.703125 5.238281 11.703125 11.699219s-5.261718 11.699219-11.703125 11.699219zm0 0"></path><path d="m256.671875 167.199219c10.878906 0 19.71875-8.839844 19.71875-19.699219s-8.839844-19.699219-19.71875-19.699219c-10.863281 0-19.703125 8.839844-19.703125 19.699219s8.839844 19.699219 19.703125 19.699219zm0-31.398438c6.457031 0 11.71875 5.238281 11.71875 11.699219s-5.261719 11.699219-11.71875 11.699219c-6.441406 0-11.703125-5.238281-11.703125-11.699219s5.261719-11.699219 11.703125-11.699219zm0 0"></path><path d="m252.691406 209.78125v-21.679688c0-7.722656-6.28125-14-14-14h-75c-7.722656 0-14 6.277344-14 14v21.679688c0 7.71875 6.277344 14 14 14h75c7.71875 0 14-6.28125 14-14zm-30.152344-27.679688h16.152344c3.296875 0 6 2.699219 6 6v6.835938h-22.152344zm-42.703124 33.679688h-16.144532c-3.320312 0-6-2.703125-6-6v-6.84375h22.144532zm0-20.84375h-22.144532v-6.835938c0-3.300781 2.679688-6 6-6h16.144532zm34.703124 20.84375h-26.703124v-12.84375h26.703124zm0-20.84375h-26.703124v-12.835938h26.703124zm8 8h22.152344v6.84375c0 3.296875-2.703125 6-6 6h-16.152344zm0 0"></path><path d="m286.308594 302h-33.378906c-3.300782 0-6-2.699219-6-6v-27.800781c33.539062-15.660157 57.839843-47.898438 62.359374-86.097657h15.699219c17.78125 0 32.242188-14.460937 32.242188-32.242187 0-15.398437-10.820313-28.300781-25.28125-31.480469-6.738281-66.398437-62.980469-118.378906-131.121094-118.378906-68.15625 0-124.378906 51.980469-131.117187 118.378906-14.460938 3.179688-25.28125 16.082032-25.28125 31.480469 0 16.421875 12.339843 30.019531 28.242187 31.980469h.007813v36.222656c0 7.71875 6.277343 14 14 14h24.890624c10.941407 15.5 25.820313 28.039062 43.160157 36.136719v27.800781c0 3.300781-2.699219 6-6 6h-33.378907c-63.523437 0-115.179687 51.660156-115.179687 115.179688v47.261718c0 23.636719 19.238281 42.898438 42.898437 42.898438h315.519532c23.660156 0 42.898437-19.261719 42.898437-42.898438v-47.261718c0-63.519532-51.660156-115.179688-115.179687-115.179688zm62.921875-152.140625c0 13.359375-10.878907 24.242187-24.242188 24.242187h-15.058593c.226562-4.558593.234374-42.921874-.179688-48.5.671875 0 15.578125 0 15.238281 0 13.1875 0 24.242188 10.730469 24.242188 24.257813zm-148.402344-141.859375c63.460937 0 115.921875 48 122.980469 109.601562h-14.9375c-7.800782-52.621093-53.28125-93.140624-108.042969-93.140624-54.757813 0-100.238281 40.519531-108.039063 93.140624h-14.9375c7.058594-61.601562 59.519532-109.601562 122.976563-109.601562zm-124.15625 166.101562c-13.363281 0-24.242187-10.882812-24.242187-24.242187 0-10.738281 7.019531-19.878906 16.699218-23.039063 2.382813-.800781 4.902344-1.21875 7.542969-1.21875.363281 0 15.507813 0 15.238281 0-.527344 7.054688-.3125 45.847657-.179687 48.5zm10.007813 49.960938c-3.308594 0-6-2.691406-6-6v-35.960938h11.691406c1.777344 15.136719 6.699218 29.359376 14.058594 41.957032 0 0 0 .003906.003906.003906zm34.890624 8h49.164063c2.207031 0 4-1.792969 4-4s-1.792969-4-4-4h-54.921875s-.003906-.003906-.003906-.003906c-8.039063-12.398438-13.417969-26.660156-15.378906-41.957032-.960938-7.46875-1.769532-50.480468.460937-64.5 7.71875-48.179687 49.597656-85.140624 99.9375-85.140624 50.34375 0 92.222656 36.960937 99.941406 85.140624 1.738281 10.929688 2.054688 52.101563.460938 64.5-11.246094 88.089844-123.851563 120.371094-179.660157 49.960938zm271.917969 232.378906c0 19.238282-15.660156 34.898438-34.898437 34.898438h-315.519532c-19.261718 0-34.898437-15.660156-34.898437-34.898438v-47.261718c0-59.101563 48.078125-107.179688 107.179687-107.179688h33.378907c7.71875 0 14-6.28125 14-14v-24.441406c24.34375 9.117187 51.660156 9.1875 76.199219 0v24.441406c0 7.71875 6.28125 14 14 14h33.378906c59.101562 0 107.179687 48.078125 107.179687 107.179688zm0 0"></path><path d="m183.835938 393.101562c6.089843 0 6.101562-9.214843 0-9.214843h-26.265626v-8.964844c0-8.058594-6.539062-14.621094-14.601562-14.621094h-8.976562v-26.257812c0-6.089844-9.214844-6.101563-9.214844 0v26.257812h-13.507813v-26.257812c0-2.542969-2.0625-4.605469-4.609375-4.605469s-4.609375 2.058594-4.609375 4.605469v26.257812h-13.507812v-26.257812c0-6.089844-9.214844-6.101563-9.214844 0v26.257812h-8.976563c-8.0625 0-14.601562 6.5625-14.601562 14.621094v8.964844h-26.269531c-2.542969 0-4.605469 2.0625-4.605469 4.609375s2.0625 4.609375 4.605469 4.609375h26.269531v13.507812h-26.269531c-2.542969 0-4.605469 2.0625-4.605469 4.609375s2.0625 4.605469 4.605469 4.605469h26.269531v13.511719h-26.269531c-2.542969 0-4.605469 2.058594-4.605469 4.605468 0 2.546876 2.0625 4.609376 4.605469 4.609376h26.269531v8.96875c0 8.0625 6.539062 14.621093 14.601562 14.621093h8.976563v26.253907c0 2.546874 2.0625 4.609374 4.609375 4.609374 2.542969 0 4.605469-2.0625 4.605469-4.609374v-26.253907h13.511719v26.253907c0 2.546874 2.0625 4.609374 4.605468 4.609374 2.546875 0 4.609375-2.0625 4.609375-4.609374v-26.253907h13.511719v26.253907c0 2.546874 2.0625 4.609374 4.605469 4.609374 2.546875 0 4.609375-2.0625 4.609375-4.609374v-26.253907h8.976562c8.0625 0 14.601563-6.558593 14.601563-14.621093v-8.96875h26.265625c6.089844 0 6.101562-9.214844 0-9.214844h-26.269532v-13.507813h26.265626c6.089843 0 6.101562-9.214843 0-9.214843h-26.265626v-13.507813h26.265626zm-35.484376 54.417969c0 2.980469-2.421874 5.402344-5.382812 5.402344-25.835938 0-30.140625 0-72.617188 0-2.980468 0-5.402343-2.421875-5.402343-5.402344 0-34.835937 0-40.730469 0-72.597656 0-2.980469 2.421875-5.402344 5.402343-5.402344h72.617188c2.960938 0 5.382812 2.421875 5.382812 5.402344zm0 0"></path><path d="m120.890625 382.378906h-28.460937c-8.058594 0-14.601563 6.5625-14.601563 14.621094v28.441406c0 8.058594 6.542969 14.617188 14.601563 14.617188h28.460937c8.039063 0 14.597656-6.558594 14.597656-14.617188v-28.441406c0-8.058594-6.558593-14.621094-14.597656-14.621094zm5.378906 43.0625c0 2.980469-2.417969 5.398438-5.378906 5.398438h-28.460937c-2.960938 0-5.378907-2.417969-5.378907-5.398438v-28.441406c0-2.980469 2.417969-5.398438 5.378907-5.398438h28.460937c2.960937 0 5.378906 2.417969 5.378906 5.398438zm0 0"></path></g></svg>