<!-- icon666.com - MILLIONS vector ICONS FREE --><svg clip-rule="evenodd" fill-rule="evenodd" image-rendering="optimizeQuality" shape-rendering="geometricPrecision" text-rendering="geometricPrecision" viewBox="0 0 3 3" xmlns="http://www.w3.org/2000/svg" xmlns:xlink="http://www.w3.org/1999/xlink"><linearGradient id="id0" gradientUnits="userSpaceOnUse" x1=".045" x2="2.955" y1="1.89" y2="1.11"><stop offset="0" stop-color="#8936f5"></stop><stop offset="1" stop-color="#1b4ad4"></stop></linearGradient><g id="Layer_x0020_1"><path d="m2.94889 1.11177c.214409.800197-.260465 1.6227-1.06066 1.83712-.800197.214409-1.6227-.260465-1.83712-1.06066-.214409-.800197.260465-1.6227 1.06066-1.83712.800197-.214409 1.6227.260465 1.83712 1.06066z" fill="url(#id0)"></path><g fill="#fff"><path d="m1.5.146665c.373705 0 .712043.151484.956949.396386.244902.244906.396386.583244.396386.956949s-.151484.712043-.396386.956949c-.244906.244902-.583244.396386-.956949.396386s-.712043-.151484-.956949-.396386c-.244902-.244906-.396386-.583244-.396386-.956949s.151484-.712043.396386-.956949c.244906-.244902.583244-.396386.956949-.396386zm.928673.424661c-.237661-.237657-.566004-.384661-.928673-.384661s-.691012.147004-.928673.384661c-.237657.237661-.384661.566004-.384661.928673s.147004.691012.384661.928673c.237661.237657.566004.384661.928673.384661s.691012-.147004.928673-.384661c.237657-.237661.384661-.566004.384661-.928673s-.147004-.691012-.384661-.928673z" fill-rule="nonzero"></path><path d="m1.47643 1.26943v.251957c0 .0310394.0471417.0310866.0471417 0v-.251957c0-.0129803-.0105748-.0235669-.0235669-.0235669-.0129882 0-.0235748.0106339-.0235748.0235669z"></path><path d="m1.5 1.64007c-.0309882 0-.0310945.0471378 0 .0471378s.0309882-.0471378 0-.0471378z"></path><path d="m1.56357 1.52138c0 .0837795-.127142.0837756-.127142 0v-.251957c0-.0349567.0286142-.0635669.063563-.0635669.0349803 0 .0635787.0286181.0635787.0635669v.251957zm-.189669-.272157-.185862.321921c-.0190709.0330276-.0388543.0578819-.0388543.0975 0 .0760748.0587205.11602.130386.11602h.440756c.015563 0 .0281535.00049606.0442283-.00370079.0730984-.0191339.10822-.103303.0717283-.16878-.00068898-.00099606-.00129134-.00204724-.00179921-.00315354l-.21526-.372831c-.0169173-.029311-.0280748-.0541772-.0599331-.072374-.0361693-.0206535-.0818307-.0206417-.117976 0-.0344094.0196496-.0484921.052626-.0674134.0853976zm.126094.350846c.083752 0 .0835906.127138 0 .127138-.0835984 0-.0837441-.127138 0-.127138z"></path><path d="m1.01846 1.15103v.469906c0 .272421.23102.470043.481539.526571.25052-.0565276.481539-.25415.481539-.526571v-.469906c-.0808937-.0239252-.161138-.0573031-.236886-.0942559-.0833189-.0406417-.17215-.0906181-.244654-.14872-.123.0985669-.329587.198075-.481539.242976zm.134654.400811.184035-.31876c.0242362-.0419764.0399331-.0784921.0844843-.103941.048315-.0275906.109055-.0275827.157346 0 .041374.0236339.0540787.0513583.0753504.0882126l.215606.373429.0000748-.00004331.00093307.00182677c.0494961.0883189.0022874.201181-.0963858.226988-.0195354.00511417-.0354055.00511024-.0542283.00511024h-.439457c-.0945827 0-.171685-.0570079-.171685-.15602 0-.0491063.020437-.0761299.0439252-.116803z"></path><path d="m.8142507 1.011565v.607307c0 .370417.297583.649685.643996.725744.0103386.00226772.0383819.00992126.0460394.00822441l.0374528-.00822441c.346421-.0760591.644012-.355319.644012-.725744v-.606913c.0001811-.00890551-.00564567-.0171535-.014622-.0196575l-.00006693.00004331c-.124559-.0347717-.220244-.061063-.337622-.118327-.138815-.0677126-.203433-.12335-.319551-.221736-.00729528-.00706693-.0189173-.00758661-.0268031-.00085039-.116559.0987795-.181228.154606-.320531.222598-.116882.0570236-.212126.0832835-.336142.117906-.00920866.0017874-.0161614.00989764-.0161614.0196299zm.164209.609372v-.484508c-.0001811-.00890551.00564567-.0171535.014622-.0196575l.00006693.00004331c.141815-.0395787.387307-.153539.492965-.249004.00729528-.00705906.0189055-.00756693.0267874-.00083465.0716024.0606811.165043.112783.249256.153862.0773543.0377362.160327.0722717.243256.0955709.00918898.00180709.016126.00990945.016126.019626v.484902c0 .292579-.246087.506646-.516272.566346-.00301969.00083071-.00628346.00095669-.00955118.00022047-.270575-.0594134-.517256-.273618-.517256-.566567z"></path></g></g></svg>