<!-- icon666.com - MILLIONS vector ICONS FREE --><svg enable-background="new 0 0 3873 3873" viewBox="0 0 3873 3873" xmlns="http://www.w3.org/2000/svg" xmlns:xlink="http://www.w3.org/1999/xlink"><clipPath id="SVGID_2_"><path id="SVGID_1_" d="m554.5 45.4h2763.9c280 0 509.2 229.1 509.2 509.2v2763.9c0 280-229.1 509.2-509.2 509.2h-2763.9c-280 0-509.2-229.1-509.2-509.2v-2764c.1-280 229.2-509.1 509.2-509.1z" fill="#000000" style="fill: rgb(236, 64, 122);"></path></clipPath><g id="Layer_1"><path clip-rule="evenodd" d="m554.5 45.4h2763.9c280 0 509.2 229.1 509.2 509.2v2763.9c0 280-229.1 509.2-509.2 509.2h-2763.9c-280 0-509.2-229.1-509.2-509.2v-2764c.1-280 229.2-509.1 509.2-509.1z" fill="#ec407a" fill-rule="evenodd"></path><g><g clip-path="url(#SVGID_2_)" clip-rule="evenodd" fill="#bf3463" fill-rule="evenodd"><g><path d="m2185.5 730.2 2148.1 2148.1 2.4 3.3 2.2 3.6 1.8 3.8 1.5 3.9 1 4.2.7 4.3.2 4.4-2148-2148.1-.3-4.4-.6-4.3-1.1-4.1-1.4-4-1.9-3.8-2.1-3.6z" fill="#000000" style="fill: rgb(236, 64, 122);"></path><path d="m2195.4 757.7 2148 2148.1v106.6l-2148-2148.1z" fill="#000000" style="fill: rgb(236, 64, 122);"></path><path d="m2407.1 907.6 2148.1 2148v398.1l-2148.1-2148.1z" fill="#000000" style="fill: rgb(236, 64, 122);"></path><path d="m2397.2 880.1 2148.1 2148 2.5 3.4 2.2 3.5 1.8 3.8 1.4 4 1.1 4.1.6 4.3.3 4.4-2148.1-2148-.2-4.5-.7-4.3-1-4.1-1.5-4-1.8-3.7-2.2-3.6z" fill="#000000" style="fill: rgb(236, 64, 122);"></path><path d="m2843.4 1203.2 2148 2148.1 197.6 125-2148.1-2148.1z" fill="#000000" style="fill: rgb(236, 64, 122);"></path><path d="m2786.6 1292.9 2148.1 2148.1 56.7-89.7-2148-2148.1z" fill="#000000" style="fill: rgb(236, 64, 122);"></path><path d="m3020.7 1441 2148.1 2148.1 3.6 2.6 3.2 2.8 2.9 3.1-2148-2148.1-3-3.1-3.2-2.8z" fill="#000000" style="fill: rgb(236, 64, 122);"></path><path d="m2984.2 1417.9 2148 2148.1 36.6 23.1-2148.1-2148.1z" fill="#000000" style="fill: rgb(236, 64, 122);"></path><path d="m3087.1 1255.2 2148.1 2148.1-197.5-125-2148.1-2148.1z" fill="#000000" style="fill: rgb(236, 64, 122);"></path><path d="m3094.7 1243.2 2148.1 2148-7.6 12.1-2148.1-2148.1z" fill="#000000" style="fill: rgb(236, 64, 122);"></path><path d="m3142.7 1305.3 2148.1 2148.1-.5-2.1-.7-2-.7-2-.8-2-.9-1.9-1-1.8-1.1-1.8-1.1-1.8-1.3-1.7-1.3-1.6-2148.1-2148.1 1.3 1.6 1.3 1.7 1.2 1.8 1 1.8 1 1.8.9 2 .9 1.9.7 2 .6 2.1z" fill="#000000" style="fill: rgb(236, 64, 122);"></path><path d="m1127.4 739.3 2148.1 2148.1 2.8 3 2.5 3.4 2.1 3.5 1.9 3.8 1.4 4 1.1 4.1.6 4.3.3 4.4-2148.1-2148-.2-4.5-.7-4.3-1-4.1-1.5-4-1.8-3.7-2.2-3.6-2.5-3.3z" fill="#000000" style="fill: rgb(236, 64, 122);"></path><path d="m1140.1 769.9 2148.1 2148v94.5l-2148.1-2148.1z" fill="#000000" style="fill: rgb(236, 64, 122);"></path><path d="m1479.2 739.3 2148.1 2148.1 2.7 3 2.5 3.4 2.2 3.5 1.8 3.8 1.5 4 1 4.1.7 4.3.2 4.4-2148.1-2148-.2-4.5-.6-4.3-1.1-4.1-1.4-4-1.9-3.7-2.1-3.6-2.5-3.3z" fill="#000000" style="fill: rgb(236, 64, 122);"></path><path d="m1491.8 769.9 2148.1 2148v94.5l-2148.1-2148.1z" fill="#000000" style="fill: rgb(236, 64, 122);"></path><path d="m764 1348.8 2148.1 2148.1v1723.2l-2148.1-2148z" fill="#000000" style="fill: rgb(236, 64, 122);"></path><path d="m2320.6 1348.8 2148.1 2148.1h-1556.6l-2148.1-2148.1z" fill="#000000" style="fill: rgb(236, 64, 122);"></path><path d="m1155.3 1712.1 2148.1 2148.1h-253.4l-2148.1-2148.1z" fill="#000000" style="fill: rgb(236, 64, 122);"></path><path d="m901.9 1712.1 2148.1 2148.1-4.5-.2-4.2-.7-4.2-1-4-1.5-3.7-1.8-3.6-2.2-3.3-2.5-3.1-2.7-2148.1-2148.1 3.1 2.8 3.3 2.5 3.6 2.1 3.8 1.8 3.9 1.5 4.2 1.1 4.3.6z" fill="#000000" style="fill: rgb(236, 64, 122);"></path><path d="m720.8 3158.5 2148.1 2148.1-4.4-.3-4.3-.6-4.2-1.1-3.9-1.4-3.8-1.8-3.6-2.2-3.3-2.5-2148.1-2148.1 3.3 2.5 3.6 2.2 3.8 1.8 4 1.5 4.1 1 4.3.7z" fill="#000000" style="fill: rgb(236, 64, 122);"></path><path d="m1833.7 742.4 2148.1 2148 2.5 3.4 2.2 3.5 1.8 3.8 1.4 4 1.1 4.1.6 4.3.3 4.4-2148.1-2148-.2-4.5-.7-4.3-1-4.1-1.5-4-1.8-3.7-2.2-3.6z" fill="#000000" style="fill: rgb(236, 64, 122);"></path><path d="m2213.4 1638.4 2148 2148 2.8 3.1 2.5 3.3 2.2 3.6 1.8 3.8 1.4 3.9 1.1 4.2.7 4.3.2 4.4-2148.1-2148.1-.2-4.4-.7-4.3-1-4.1-1.5-4-1.8-3.8-2.2-3.6-2.5-3.3z" fill="#000000" style="fill: rgb(236, 64, 122);"></path><path d="m1185.9 1638.4 2148 2148 2.8 3.1 2.5 3.3 2.2 3.6 1.8 3.8 1.4 3.9 1.1 4.2.7 4.3.2 4.4-2148.1-2148.1-.2-4.4-.7-4.3-1-4.1-1.5-4-1.8-3.8-2.2-3.6-2.4-3.3z" fill="#000000" style="fill: rgb(236, 64, 122);"></path><path d="m2182.8 1712.1 2148.1 2148.1h-867.9l-2148-2148.1z" fill="#000000" style="fill: rgb(236, 64, 122);"></path><path d="m1843.6 769.9 2148.1 2148v94.5l-2148.1-2148.1z" fill="#000000" style="fill: rgb(236, 64, 122);"></path><path d="m2407.1 1305.6 2148.1 2148.1v425.4l-2148.1-2148z" fill="#000000" style="fill: rgb(236, 64, 122);"></path><path d="m2690.4 1283.2 2148.1 2148.1 1.2-1.8 1.3-1.7 1.3-1.6 1.5-1.6 1.5-1.5 1.5-1.4 1.6-1.3 1.7-1.3 1.8-1.2 1.8-1.1 1.9-1 1.9-.9 1.9-.8 2-.7 2.1-.6 2.1-.5-2148.1-2148.1-2.1.5-2 .6-2 .7-2 .9-1.9.9-1.9 1-1.8 1.1-1.7 1.1-1.7 1.3-1.7 1.3-1.5 1.4-1.5 1.5-1.4 1.6-1.4 1.7-1.3 1.7z" fill="#000000" style="fill: rgb(236, 64, 122);"></path><path d="m2750.1 1269.8 2148.1 2148.1 36.5 23.1-2148.1-2148.1z" fill="#000000" style="fill: rgb(236, 64, 122);"></path><path d="m3034.4 1500.3 2148 2148.1 102.6-162.1-2148.1-2148.1z" fill="#000000" style="fill: rgb(236, 64, 122);"></path><path d="m2717.5 1264.2 2148.1 2148.1 2.1-.5 2.1-.3 2.1-.2 2.1-.1h2.1l2.1.1 2.1.2 2.1.3 2.1.5 2 .5 2.1.6 2 .7 1.9.8 1.9.9 1.9 1 1.9 1.1-2148.1-2148.1-1.9-1.1-1.8-1-2-.9-1.9-.8-2-.7-2-.6-2.1-.5-2-.4-2.1-.3-2.1-.2-2.1-.2h-2.2l-2.1.1-2.1.3-2.1.3z" fill="#000000" style="fill: rgb(236, 64, 122);"></path><path d="m2226 1668.9 2148.1 2148.1-.2 4.4-.7 4.3-1.1 4.1-1.4 4-1.8 3.8-2.2 3.6-2.5 3.3-2.8 3.1-3 2.7-3.4 2.5-3.5 2.2-3.8 1.8-4 1.5-4.1 1-4.3.7-4.4.2-2148.1-2148.1 4.4-.2 4.3-.6 4.1-1.1 4-1.5 3.8-1.8 3.6-2.1 3.3-2.5 3.1-2.8 2.7-3.1 2.5-3.3 2.2-3.6 1.8-3.8 1.5-3.9 1-4.2.7-4.3z" fill="#000000" style="fill: rgb(236, 64, 122);"></path><path d="m2407.1 1731.1 2148.1 2148-86.5 136.7-2148.1-2148.1z" fill="#000000" style="fill: rgb(236, 64, 122);"></path><path d="m1315 1712.1 2148 2148.1-4.4-.2-4.3-.7-4.1-1-4-1.5-3.8-1.8-3.5-2.2-3.3-2.5-3.1-2.7-2148.1-2148.1 3.1 2.8 3.3 2.5 3.6 2.1 3.8 1.8 3.9 1.5 4.2 1.1 4.3.6z" fill="#000000" style="fill: rgb(236, 64, 122);"></path><path d="m1198.5 1939.7 2148.1 2148-.2 4.5-.7 4.3-1.1 4.1-1.4 4-1.8 3.7-2.2 3.6-2.5 3.3-2.8 3.1-3 2.8-3.4 2.5-3.5 2.2-3.8 1.8-4 1.4-4.1 1.1-4.3.6-4.4.3-2148.1-2148.1 4.4-.2 4.3-.7 4.2-1 3.9-1.5 3.8-1.8 3.6-2.2 3.3-2.5 3.1-2.8 2.8-3 2.4-3.4 2.2-3.5 1.8-3.8 1.5-4 1-4.1.7-4.3z" fill="#000000" style="fill: rgb(236, 64, 122);"></path><path d="m2213.4 1909.1 2148 2148.1 2.8 3.1 2.5 3.3 2.2 3.5 1.8 3.8 1.4 4 1.1 4.1.7 4.3.2 4.4-2148.1-2148-.2-4.4-.7-4.3-1-4.2-1.5-4-1.8-3.7-2.2-3.6-2.5-3.3z" fill="#000000" style="fill: rgb(236, 64, 122);"></path><path d="m2226 1939.7 2148.1 2148-.2 4.5-.7 4.3-1.1 4.1-1.4 4-1.8 3.7-2.2 3.6-2.5 3.3-2.8 3.1-3 2.8-3.4 2.5-3.5 2.2-3.8 1.8-4 1.4-4.1 1.1-4.3.6-4.4.3-2148.1-2148.1 4.4-.2 4.3-.7 4.1-1 4-1.5 3.8-1.8 3.6-2.2 3.3-2.5 3.1-2.8 2.7-3 2.5-3.4 2.2-3.5 1.8-3.8 1.5-4 1-4.1.7-4.3z" fill="#000000" style="fill: rgb(236, 64, 122);"></path><path d="m1315 1982.9 2148 2148.1-4.4-.3-4.3-.6-4.1-1.1-4-1.4-3.8-1.8-3.5-2.2-3.3-2.5-3.1-2.8-2148.1-2148.1 3.1 2.8 3.3 2.5 3.6 2.2 3.8 1.8 3.9 1.5 4.2 1 4.3.7z" fill="#000000" style="fill: rgb(236, 64, 122);"></path><path d="m1198.5 1668.9 2148.1 2148.1-.2 4.4-.7 4.3-1.1 4.1-1.4 4-1.8 3.8-2.2 3.6-2.5 3.3-2.8 3.1-3 2.7-3.4 2.5-3.5 2.2-3.8 1.8-4 1.5-4.1 1-4.3.7-4.4.2-2148.1-2148.1 4.4-.2 4.3-.6 4.2-1.1 3.9-1.5 3.8-1.8 3.6-2.1 3.3-2.5 3.1-2.8 2.8-3.1 2.4-3.3 2.2-3.6 1.8-3.8 1.5-3.9 1-4.2.7-4.3z" fill="#000000" style="fill: rgb(236, 64, 122);"></path><path d="m2182.8 1982.9 2148.1 2148.1h-867.9l-2148-2148.1z" fill="#000000" style="fill: rgb(236, 64, 122);"></path><path d="m1185.9 1909.1 2148 2148.1 2.8 3.1 2.5 3.3 2.2 3.5 1.8 3.8 1.4 4 1.1 4.1.7 4.3.2 4.4-2148.1-2148-.2-4.4-.7-4.3-1-4.2-1.5-4-1.8-3.7-2.2-3.6-2.4-3.3z" fill="#000000" style="fill: rgb(236, 64, 122);"></path><path d="m1155.3 1982.9 2148.1 2148.1h-253.4l-2148.1-2148.1z" fill="#000000" style="fill: rgb(236, 64, 122);"></path><path d="m901.9 1982.9 2148.1 2148.1-4.5-.3-4.2-.6-4.2-1.1-4-1.4-3.7-1.8-3.6-2.2-3.3-2.5-2148.1-2148.1 3.3 2.5 3.6 2.2 3.8 1.8 3.9 1.5 4.2 1 4.3.7z" fill="#000000" style="fill: rgb(236, 64, 122);"></path><path d="m1964.5 2253.7 2148.1 2148h-649.6l-2148-2148z" fill="#000000" style="fill: rgb(236, 64, 122);"></path><path d="m2937.9 1491 2148.1 2148.1-610.3 964.5-2148.1-2148z" fill="#000000" style="fill: rgb(236, 64, 122);"></path><path d="m1198.5 2210.4 2148.1 2148.1-.2 4.4-.7 4.3-1.1 4.2-1.4 3.9-1.8 3.8-2.2 3.6-2.5 3.3-2.8 3.1-3 2.8-3.4 2.4-3.5 2.2-3.8 1.8-4 1.5-4.1 1.1-4.3.6-4.4.2-2148.1-2148 4.4-.3 4.3-.6 4.2-1.1 3.9-1.4 3.8-1.9 3.6-2.1 3.3-2.5 3.1-2.8 2.8-3.1 2.4-3.3 2.2-3.6 1.8-3.7 1.5-4 1-4.2.7-4.3z" fill="#000000" style="fill: rgb(236, 64, 122);"></path><path d="m901.9 2253.7 2148.1 2148-4.5-.2-4.2-.6-4.2-1.1-4-1.5-3.7-1.8-3.6-2.2-3.3-2.4-2148.1-2148.1 3.3 2.5 3.6 2.1 3.8 1.9 3.9 1.4 4.2 1.1 4.3.6z" fill="#000000" style="fill: rgb(236, 64, 122);"></path><path d="m901.9 2524.4 2148.1 2148.1-4.5-.2-4.2-.7-4.2-1.1-4-1.4-3.7-1.8-3.6-2.2-3.3-2.5-2148.1-2148.1 3.3 2.5 3.6 2.2 3.8 1.8 3.9 1.5 4.2 1 4.3.7z" fill="#000000" style="fill: rgb(236, 64, 122);"></path><path d="m1155.3 2795.2 2148.1 2148h-253.4l-2148.1-2148z" fill="#000000" style="fill: rgb(236, 64, 122);"></path><path d="m901.9 2795.2 2148.1 2148-4.5-.2-4.2-.6-4.2-1.1-4-1.5-3.7-1.8-3.6-2.1-3.3-2.5-2148.1-2148.1 3.3 2.5 3.6 2.2 3.8 1.8 3.9 1.4 4.2 1.1 4.3.7z" fill="#000000" style="fill: rgb(236, 64, 122);"></path><path d="m1315 2253.7 2148 2148-4.4-.2-4.3-.6-4.1-1.1-4-1.5-3.8-1.8-3.5-2.1-3.4-2.5-3-2.8-2148.1-2148.1 3.1 2.8 3.3 2.5 3.6 2.1 3.7 1.9 4 1.4 4.2 1.1 4.3.6z" fill="#000000" style="fill: rgb(236, 64, 122);"></path><path d="m3087.1 1134.4 2148.1 2148.1 2.8 3.5 2.6 3.6 2.5 3.8 2.2 3.8 2.1 3.9 1.9 4.1 1.7 4.1 1.4 4.1 1.3 4.2 1.1 4.3.8 4.4.7 4.3.5 4.4.2 4.4v4.5l-.2 4.4-.4 4.4-.6 4.5-.8 4.4-1.1 4.3-1.3 4.4-1.5 4.3-1.7 4.3-2 4.1-2.2 4.2-2.4 4-2148.1-2148 2.5-4.1 2.2-4.1 1.9-4.2 1.8-4.3 1.5-4.3 1.2-4.3 1.1-4.4.8-4.4.7-4.4.4-4.5.2-4.4-.1-4.4-.2-4.5-.5-4.4-.6-4.3-.9-4.3-1.1-4.3-1.2-4.3-1.5-4.1-1.7-4.1-1.9-4-2-4-2.3-3.8-2.4-3.7-2.7-3.7z" fill="#000000" style="fill: rgb(236, 64, 122);"></path><path d="m3137.1 1337.9 2148 2148.1 1.2-1.8 1-1.9.9-1.9.8-2 .7-2 .6-2 .5-2.1.4-2 .3-2.1.2-2.1.1-2.1v-2.1l-.1-2.2-.2-2.1-.3-2.1-.4-2.1-2148.1-2148.1.4 2.1.4 2.2.2 2.1.1 2.1v2.1l-.1 2.1-.2 2.1-.4 2.1-.4 2.1-.5 2-.6 2-.7 2-.8 2-.9 1.9-1 1.9z" fill="#000000" style="fill: rgb(236, 64, 122);"></path><path d="m3136.9 1338.2 2148.1 2148.1.1-.3-2148-2148.1z" fill="#000000" style="fill: rgb(236, 64, 122);"></path><path d="m2786.6 1292.9 2148.1 2148.1 98.8 62.5-2148.1-2148.1z" fill="#000000" style="fill: rgb(236, 64, 122);"></path><path d="m2327.6 2455.6 2148.1 2148-.6 1-2148.1-2148.1z" fill="#000000" style="fill: rgb(236, 64, 122);"></path><path d="m1995.1 2179.9 2148 2148 2.8 3.1 2.5 3.3 2.2 3.6 1.8 3.8 1.5 4 1 4.1.7 4.3.2 4.4-2148.1-2148.1-.2-4.4-.6-4.3-1.1-4.1-1.5-4-1.8-3.8-2.1-3.5-2.5-3.4z" fill="#000000" style="fill: rgb(236, 64, 122);"></path><path d="m2239.7 2594.5 2148.1 2148-17.1 27.1-2148.1-2148.1z" fill="#000000" style="fill: rgb(236, 64, 122);"></path><path d="m2222.6 2621.5 2148.1 2148.1-54.8 29.7-2148.1-2148z" fill="#000000" style="fill: rgb(236, 64, 122);"></path><path d="m1939.4 2480.5 2148.1 2148.1.2-2.8.4-2.7.6-2.7.7-2.6 1-2.6 1-2.5 1.3-2.5 1.4-2.4-2148.1-2148-1.4 2.4-1.2 2.4-1.1 2.5-.9 2.6-.8 2.7-.6 2.6-.4 2.8z" fill="#000000" style="fill: rgb(236, 64, 122);"></path><path d="m1853.3 2450.6 2148.1 2148.1 2.8 3.1 2.5 3.3 2.1 3.6 1.9 3.7 1.4 4 1.1 4.2.6 4.2.3 4.5-2148.1-2148.1-.2-4.4-.7-4.3-1.1-4.2-1.4-3.9-1.8-3.8-2.2-3.6-2.5-3.3z" fill="#000000" style="fill: rgb(236, 64, 122);"></path><path d="m1155.3 2253.7 2148.1 2148h-253.4l-2148.1-2148z" fill="#000000" style="fill: rgb(236, 64, 122);"></path><path d="m1182.8 2447.8 2148.1 2148.1 3 2.8 2.8 3.1 2.5 3.3 2.2 3.6 1.8 3.7 1.4 4 1.1 4.1.7 4.3.2 4.5-2148.1-2148.1-.2-4.4-.7-4.3-1-4.2-1.5-3.9-1.8-3.8-2.2-3.6-2.4-3.3-2.8-3.1z" fill="#000000" style="fill: rgb(236, 64, 122);"></path><path d="m1155.3 2524.4 2148.1 2148.1h-253.4l-2148.1-2148.1z" fill="#000000" style="fill: rgb(236, 64, 122);"></path><path d="m1198.5 2481.2 2148.1 2148.1-.2 4.4-.7 4.3-1.1 4.1-1.4 4-1.8 3.8-2.2 3.5-2.5 3.4-2.8 3-3 2.8-3.4 2.5-3.5 2.2-3.8 1.8-4 1.4-4.1 1.1-4.3.7-4.4.2-2148.1-2148.1 4.4-.2 4.3-.7 4.2-1 3.9-1.5 3.8-1.8 3.6-2.2 3.3-2.5 3.1-2.7 2.8-3.1 2.4-3.3 2.2-3.6 1.8-3.8 1.5-4 1-4.1.7-4.3z" fill="#000000" style="fill: rgb(236, 64, 122);"></path><path d="m1315 2524.4 2148 2148.1-4.4-.2-4.3-.7-4.1-1.1-4-1.4-3.8-1.8-3.5-2.2-3.4-2.5-2148-2148.1 3.3 2.5 3.6 2.2 3.7 1.8 4 1.5 4.2 1 4.3.7z" fill="#000000" style="fill: rgb(236, 64, 122);"></path><path d="m1182.8 2718.6 2148.1 2148.1 3 2.8 2.8 3 2.5 3.4 2.2 3.5 1.8 3.8 1.4 4 1.1 4.1.7 4.3.2 4.4-2148.1-2148.1-.2-4.4-.7-4.3-1-4.1-1.5-4-1.8-3.8-2.2-3.5-2.4-3.3-2.8-3.1z" fill="#000000" style="fill: rgb(236, 64, 122);"></path><path d="m1198.5 2751.9 2148.1 2148.1-.2 4.4-.7 4.3-1.1 4.2-1.4 3.9-1.8 3.8-2.2 3.6-2.5 3.3-2.8 3.1-3 2.8-3.4 2.5-3.5 2.1-3.8 1.8-4 1.5-4.1 1.1-4.3.6-4.4.2-2148.1-2148 4.4-.2 4.3-.7 4.2-1.1 3.9-1.4 3.8-1.8 3.6-2.2 3.3-2.5 3.1-2.8 2.8-3.1 2.4-3.3 2.2-3.5 1.8-3.8 1.5-4 1-4.1.7-4.3z" fill="#000000" style="fill: rgb(236, 64, 122);"></path><path d="m1185.9 2179.9 2148 2148 2.8 3.1 2.5 3.3 2.2 3.6 1.8 3.8 1.4 3.9 1.1 4.2.7 4.3.2 4.4-2148.1-2148.1-.2-4.4-.7-4.3-1-4.1-1.5-4-1.8-3.8-2.2-3.5-2.4-3.4z" fill="#000000" style="fill: rgb(236, 64, 122);"></path><path d="m1866 2481.2 2148.1 2148.1-.3 4.4-.6 4.3-1.1 4.1-1.4 4-1.9 3.8-2.1 3.5-2.5 3.4-2.8 3-3.1 2.8-3.3 2.5-3.6 2.2-3.7 1.8-4 1.4-4.2 1.1-4.2.7-4.5.2-2148-2148.1 4.4-.2 4.3-.7 4.1-1 4-1.5 3.8-1.8 3.5-2.2 3.4-2.5 3-2.7 2.8-3.1 2.5-3.3 2.2-3.6 1.8-3.8 1.4-4 1.1-4.1.7-4.3z" fill="#000000" style="fill: rgb(236, 64, 122);"></path><path d="m1822.8 2524.4 2148 2148.1h-507.8l-2148-2148.1z" fill="#000000" style="fill: rgb(236, 64, 122);"></path><path d="m1315 2795.2 2148 2148-4.4-.2-4.3-.6-4.1-1.1-4-1.5-3.8-1.8-3.5-2.1-3.4-2.5-2148-2148.1 3.3 2.5 3.6 2.2 3.7 1.8 4 1.4 4.2 1.1 4.3.7z" fill="#000000" style="fill: rgb(236, 64, 122);"></path><path d="m1844 2751.9 2148 2148.1-.2 4.4-.6 4.3-1.1 4.2-1.4 3.9-1.9 3.8-2.1 3.6-2.5 3.3-2.8 3.1-3.1 2.8-3.3 2.5-3.6 2.1-3.7 1.8-4 1.5-4.2 1.1-4.3.6-4.4.2-2148-2148 4.4-.2 4.3-.7 4.1-1.1 4-1.4 3.8-1.8 3.5-2.2 3.4-2.5 3-2.8 2.8-3.1 2.5-3.3 2.2-3.5 1.8-3.8 1.4-4 1.1-4.1.7-4.3z" fill="#000000" style="fill: rgb(236, 64, 122);"></path><path d="m2167.8 2651.3 2148.1 2148-155.9 84.7-2148.1-2148.1z" fill="#000000" style="fill: rgb(236, 64, 122);"></path><path d="m2007.7 2210.4 2148.1 2148.1-.2 4.4-.7 4.3-1 4.2-1.5 3.9-1.8 3.8-2.2 3.6-2.5 3.3-2.8 3.1-3 2.8-3.3 2.5-3.6 2.1-3.8 1.8-4 1.5-4.1 1.1-4.3.6-4.4.2-2148.1-2148 4.4-.3 4.3-.6 4.2-1.1 3.9-1.4 3.8-1.9 3.6-2.1 3.3-2.5 3.1-2.8 2.8-3.1 2.5-3.3 2.1-3.6 1.8-3.7 1.5-4 1.1-4.2.6-4.2z" fill="#000000" style="fill: rgb(236, 64, 122);"></path><path d="m1831.3 2721.4 2148.1 2148.1 2.8 3 2.5 3.4 2.1 3.5 1.9 3.8 1.4 4 1.1 4.1.6 4.3.2 4.4-2148-2148.1-.2-4.4-.7-4.3-1.1-4.1-1.4-4-1.8-3.8-2.2-3.5-2.5-3.3z" fill="#000000" style="fill: rgb(236, 64, 122);"></path><path d="m1800.8 2795.2 2148 2148h-485.8l-2148-2148z" fill="#000000" style="fill: rgb(236, 64, 122);"></path><path d="m2327 2456.5 2148.1 2148.1-87.3 137.9-2148.1-2148z" fill="#000000" style="fill: rgb(236, 64, 122);"></path><path d="m2407.1 2491.6 2148.1 2148.1v623.7l-2148.1-2148.1z" fill="#000000" style="fill: rgb(236, 64, 122);"></path><path d="m2407.1 3115.3 2148.1 2148.1-.3 4.4-.6 4.3-1.1 4.1-1.4 4-1.8 3.8-2.2 3.5-2.5 3.3-2.8 3.1-3.1 2.8-3.3 2.5-3.6 2.2-3.7 1.8-4 1.4-4.1 1.1-4.3.6-4.5.3-2148-2148.1 4.4-.2 4.3-.7 4.1-1 4-1.5 3.8-1.8 3.5-2.2 3.4-2.5 3-2.8 2.8-3 2.5-3.4 2.2-3.5 1.8-3.8 1.5-4 1-4.1.7-4.3z" fill="#000000" style="fill: rgb(236, 64, 122);"></path><path d="m2363.9 3158.5 2148 2148.1h-1643l-2148.1-2148.1z" fill="#000000" style="fill: rgb(236, 64, 122);"></path></g><path d="m2690.4 1283.2c6.1-9.7 15.9-16.5 27-19.1 11.2-2.5 22.9-.5 32.6 5.6l36.5 23.1 56.8-89.7 197.5 125-56.8 89.7 36.5 23.1c20 12.7 26.1 39.1 13.7 59.2l102.5-162.1.2-.3c6.1-9.7 8.2-21.4 5.6-32.6-2.5-11.2-9.4-20.9-19.1-27l-36.5-23.1-197.5-125-36.5-23.1c-20.1-12.7-46.6-6.8-59.4 13.1-.1.1-.1.2-.2.3zm-744.4 1176.6c-4.1 6.5-6.3 13.6-6.6 20.7.4-7.3 2.7-14.5 6.6-20.7zm461.1-1154.2v425.5l-86.4 136.6v-518.9h-1556.7v1723.2h1556.6v-443.8l86.4-136.6v623.6c0 23.9-19.4 43.2-43.2 43.2h-1643c-23.9 0-43.2-19.4-43.2-43.2v-1809.2c0-.1 0-.3 0-.4s0-.3 0-.4v-397.6c0-23.9 19.4-43.2 43.2-43.2h168.5v-94.5c0-23.9 19.4-43.2 43.2-43.2h164.3c23.9 0 43.2 19.4 43.2 43.2v94.5h101v-94.5c0-23.9 19.4-43.2 43.2-43.2h164.3c23.9 0 43.2 19.4 43.2 43.2v94.5h101v-94.5c0-23.9 19.4-43.2 43.2-43.2h164.3c23.9 0 43.2 19.4 43.2 43.2v94.5h101v-106.7c0-23.9 19.4-43.2 43.2-43.2h164.3c23.9 0 43.2 19.4 43.2 43.2v106.6h168.5c23.9 0 43.2 19.4 43.2 43.2v398.1zm-224.3 320.1h-867.8c-23.9 0-43.2 19.4-43.2 43.2 0 23.9 19.4 43.2 43.2 43.2h867.8c23.9 0 43.2-19.4 43.2-43.2 0-23.9-19.3-43.2-43.2-43.2zm-867.8 270.7c-23.9 0-43.2 19.4-43.2 43.2 0 23.9 19.4 43.2 43.2 43.2h867.8c23.9 0 43.2-19.4 43.2-43.2 0-23.9-19.4-43.2-43.2-43.2zm0 270.8c-23.9 0-43.2 19.4-43.2 43.2 0 23.9 19.4 43.2 43.2 43.2h649.5c23.9 0 43.2-19.4 43.2-43.2 0-23.9-19.4-43.2-43.2-43.2zm0 270.8c-23.9 0-43.2 19.4-43.2 43.2 0 23.9 19.4 43.2 43.2 43.2h507.8c23.9 0 43.2-19.4 43.2-43.2 0-23.9-19.4-43.2-43.2-43.2zm-413.1 270.7c-23.9 0-43.2 19.4-43.2 43.2 0 23.9 19.4 43.2 43.2 43.2h253.4c23.9 0 43.2-19.4 43.2-43.2 0-23.9-19.4-43.2-43.2-43.2zm1995.3-1590.5c27.1-42.8 84-55.6 126.8-28.5l42.2 26.7c42.8 27.1 55.6 84 28.5 126.8l-7.6 12-197.5-125zm-110.6 174.7 98.8 62.5c-.1 0-.1-.1-.2-.1zm-46.2 73.1 62.2 39.4 73.1 46.2 62.2 39.4-610.3 964.6-.6 1-87.3 137.9-17.1 27-54.8 29.8-155.9 84.6 9.7-177.1 3.4-62.3 17.1-27 357.7-565.4 1-1.6zm-1425.4 1342.7c-23.9 0-43.2 19.4-43.2 43.2 0 23.9 19.4 43.2 43.2 43.2h485.8c23.9 0 43.2-19.4 43.2-43.2 0-23.9-19.4-43.2-43.2-43.2zm-413.1-270.7c-23.9 0-43.2 19.4-43.2 43.2 0 23.9 19.4 43.2 43.2 43.2h253.4c23.9 0 43.2-19.4 43.2-43.2 0-23.9-19.4-43.2-43.2-43.2zm253.4-270.8h-253.4c-23.9 0-43.2 19.4-43.2 43.2 0 23.9 19.4 43.2 43.2 43.2h253.4c23.9 0 43.2-19.4 43.2-43.2s-19.3-43.2-43.2-43.2zm0-270.8h-253.4c-23.9 0-43.2 19.4-43.2 43.2 0 23.9 19.4 43.2 43.2 43.2h253.4c23.9 0 43.2-19.4 43.2-43.2s-19.3-43.2-43.2-43.2zm0-270.7h-253.4c-23.9 0-43.2 19.4-43.2 43.2 0 23.9 19.4 43.2 43.2 43.2h253.4c23.9 0 43.2-19.4 43.2-43.2 0-23.9-19.3-43.2-43.2-43.2z" fill="#bf3463"></path></g></g><g clip-rule="evenodd" fill="#fff" fill-rule="evenodd"><path d="m1284.3 950.8h-187.4c-23.9 0-43.2-19.4-43.2-43.2 0-23.9 19.4-43.2 43.2-43.2h187.4c23.9 0 43.2 19.4 43.2 43.2s-19.3 43.2-43.2 43.2z" fill="#fff"></path><path d="m1987.8 950.8h-187.4c-23.9 0-43.2-19.4-43.2-43.2 0-23.9 19.4-43.2 43.2-43.2h187.4c23.9 0 43.2 19.4 43.2 43.2.1 23.8-19.3 43.2-43.2 43.2z" fill="#fff"></path><path d="m2363.9 3158.5h-1643.1c-23.9 0-43.2-19.4-43.2-43.2v-2207.7c0-23.9 19.4-43.2 43.2-43.2h211.7c23.9 0 43.2 19.4 43.2 43.2 0 23.9-19.3 43.2-43.2 43.2h-168.5v2121.3h1556.6v-592.9c0-23.9 19.4-43.2 43.2-43.2 23.9 0 43.2 19.4 43.2 43.2v636.2c.1 23.7-19.3 43.1-43.1 43.1z" fill="#fff"></path><path d="m2363.9 1923.5c-23.9 0-43.2-19.4-43.2-43.2v-929.5h-168.5c-23.9 0-43.2-19.4-43.2-43.2 0-23.9 19.4-43.2 43.2-43.2h211.7c23.9 0 43.2 19.4 43.2 43.2v972.7c0 23.8-19.4 43.2-43.2 43.2z" fill="#fff"></path><path d="m1636.1 950.8h-187.4c-23.9 0-43.2-19.4-43.2-43.2 0-23.9 19.4-43.2 43.2-43.2h187.4c23.9 0 43.2 19.4 43.2 43.2s-19.4 43.2-43.2 43.2z" fill="#fff"></path><path d="m1096.9 1088.5h-164.3c-23.9 0-43.2-19.4-43.2-43.2v-275.4c0-23.9 19.4-43.2 43.2-43.2h164.3c23.9 0 43.2 19.4 43.2 43.2v275.4c0 23.8-19.4 43.2-43.2 43.2zm-121.1-86.5h77.9v-188.9h-77.9z" fill="#fff"></path><path d="m1448.6 1088.5h-164.3c-23.9 0-43.2-19.4-43.2-43.2v-275.4c0-23.9 19.4-43.2 43.2-43.2h164.3c23.9 0 43.2 19.4 43.2 43.2v275.4c0 23.8-19.3 43.2-43.2 43.2zm-121.1-86.5h77.9v-188.9h-77.9z" fill="#fff"></path><path d="m1800.4 1088.5h-164.3c-23.9 0-43.2-19.4-43.2-43.2v-275.4c0-23.9 19.4-43.2 43.2-43.2h164.3c23.9 0 43.2 19.4 43.2 43.2v275.4c0 23.8-19.3 43.2-43.2 43.2zm-121.1-86.5h77.9v-188.9h-77.9z" fill="#fff"></path><path d="m2152.1 1076.3h-164.3c-23.9 0-43.2-19.4-43.2-43.2v-275.4c0-23.9 19.4-43.2 43.2-43.2h164.3c23.9 0 43.2 19.4 43.2 43.2v275.4c.1 23.9-19.3 43.2-43.2 43.2zm-121-86.4h77.9v-189h-77.9z" fill="#fff"></path><path d="m2363.9 1348.8h-1643.1c-23.9 0-43.2-19.4-43.2-43.2 0-23.9 19.4-43.2 43.2-43.2h1643.1c23.9 0 43.2 19.4 43.2 43.2 0 23.9-19.4 43.2-43.2 43.2z" fill="#fff"></path><path d="m1155.3 1712.1h-253.4c-23.9 0-43.2-19.4-43.2-43.2 0-23.9 19.4-43.2 43.2-43.2h253.4c23.9 0 43.2 19.4 43.2 43.2 0 23.9-19.3 43.2-43.2 43.2z" fill="#fff"></path><path d="m2182.8 1712.1h-867.8c-23.9 0-43.2-19.4-43.2-43.2 0-23.9 19.4-43.2 43.2-43.2h867.8c23.9 0 43.2 19.4 43.2 43.2 0 23.9-19.3 43.2-43.2 43.2z" fill="#fff"></path><path d="m1155.3 1982.9h-253.4c-23.9 0-43.2-19.4-43.2-43.2 0-23.9 19.4-43.2 43.2-43.2h253.4c23.9 0 43.2 19.4 43.2 43.2s-19.3 43.2-43.2 43.2z" fill="#fff"></path><path d="m2182.8 1982.9h-867.8c-23.9 0-43.2-19.4-43.2-43.2 0-23.9 19.4-43.2 43.2-43.2h867.8c23.9 0 43.2 19.4 43.2 43.2s-19.3 43.2-43.2 43.2z" fill="#fff"></path><path d="m1155.3 2253.7h-253.4c-23.9 0-43.2-19.4-43.2-43.2 0-23.9 19.4-43.2 43.2-43.2h253.4c23.9 0 43.2 19.4 43.2 43.2s-19.3 43.2-43.2 43.2z" fill="#fff"></path><path d="m1964.5 2253.7h-649.5c-23.9 0-43.2-19.4-43.2-43.2 0-23.9 19.4-43.2 43.2-43.2h649.5c23.9 0 43.2 19.4 43.2 43.2s-19.3 43.2-43.2 43.2z" fill="#fff"></path><path d="m1155.3 2524.4h-253.4c-23.9 0-43.2-19.4-43.2-43.2 0-23.9 19.4-43.2 43.2-43.2h253.4c23.9 0 43.2 19.4 43.2 43.2 0 23.9-19.3 43.2-43.2 43.2z" fill="#fff"></path><path d="m1822.8 2524.4h-507.8c-23.9 0-43.2-19.4-43.2-43.2 0-23.9 19.4-43.2 43.2-43.2h507.8c23.9 0 43.2 19.4 43.2 43.2 0 23.9-19.4 43.2-43.2 43.2z" fill="#fff"></path><path d="m1155.3 2795.2h-253.4c-23.9 0-43.2-19.4-43.2-43.2 0-23.9 19.4-43.2 43.2-43.2h253.4c23.9 0 43.2 19.4 43.2 43.2s-19.3 43.2-43.2 43.2z" fill="#fff"></path><path d="m1800.8 2795.2h-485.8c-23.9 0-43.2-19.4-43.2-43.2 0-23.9 19.4-43.2 43.2-43.2h485.8c23.9 0 43.2 19.4 43.2 43.2s-19.4 43.2-43.2 43.2z" fill="#fff"></path><path d="m1964.5 2854.1c-8 0-16.1-2.2-23.1-6.7-13.2-8.4-20.9-23.3-20-38.9l18-328c.4-7.4 2.7-14.5 6.6-20.7l744.4-1176.5c6.1-9.7 15.9-16.5 27-19.1 11.2-2.5 22.9-.5 32.6 5.6l270.6 171.2c20.2 12.8 26.2 39.5 13.4 59.6l-744.4 1176.5c-3.9 6.2-9.4 11.4-15.9 14.9l-288.6 156.7c-6.4 3.6-13.5 5.4-20.6 5.4zm60.6-357.6-13.2 239.4 210.7-114.4 715.3-1130.5-197.5-125z" fill="#fff"></path><path d="m2997.5 1520.8c-7.9 0-15.9-2.2-23.1-6.7l-270.6-171.2c-9.7-6.1-16.5-15.9-19.1-27-2.5-11.2-.5-22.9 5.6-32.6l103-162.8c12.8-20.2 39.5-26.2 59.6-13.4l270.6 171.2c9.7 6.1 16.5 15.9 19.1 27 2.5 11.2.5 22.9-5.6 32.6l-103 162.8c-8.1 13-22.1 20.1-36.5 20.1zm-210.9-227.9 197.5 125 56.8-89.7-197.5-125z" fill="#fff"></path><path d="m3100.5 1358.1c-7.9 0-15.9-2.2-23.1-6.7l-270.6-171.2c-20.2-12.8-26.2-39.5-13.4-59.6l30.7-48.6c52.6-83.1 163-107.9 246.1-55.4l42.2 26.7c83.1 52.6 107.9 163 55.4 246.1l-30.7 48.6c-8.2 12.9-22.3 20.1-36.6 20.1zm-210.9-227.9 197.5 125 7.6-12c27.1-42.8 14.3-99.7-28.5-126.8l-42.2-26.7c-42.8-27.1-99.7-14.3-126.8 28.5z" fill="#fff"></path><path d="m2253.1 2697.3c-7.9 0-15.9-2.2-23.1-6.7l-270.6-171.2c-20.2-12.8-26.2-39.5-13.4-59.6 12.8-20.2 39.5-26.2 59.6-13.4l270.6 171.2c20.2 12.8 26.2 39.5 13.4 59.6-8.1 13-22.2 20.1-36.5 20.1z" fill="#fff"></path><path d="m2117.8 2611.7c-7.9 0-15.9-2.2-23.1-6.7-20.2-12.8-26.2-39.5-13.4-59.6l744.4-1176.5c12.8-20.2 39.5-26.2 59.6-13.4 20.2 12.8 26.2 39.5 13.4 59.6l-744.4 1176.5c-8.2 13-22.2 20.1-36.5 20.1z" fill="#fff"></path></g></g></svg>