<!-- icon666.com - MILLIONS vector ICONS FREE --><svg viewBox="-26 0 512 512" xmlns="http://www.w3.org/2000/svg"><path d="m450 50v412c0 22.089844-17.910156 40-40 40h-360c22.089844 0 40-17.910156 40-40 0-18.078125 0-378.464844 0-412 0-22.078125-17.917969-40-40-40h360c22.089844 0 40 17.910156 40 40zm0 0" fill="#eafaff"></path><path d="m150 70h240v126h-240zm0 0" fill="#fff"></path><path d="m90 422v40c0 22.089844-17.910156 40-40 40s-40-17.910156-40-40v-40zm0 0" fill="#96c8ef"></path><path d="m90 50v40h-80v-40c0-22.089844 17.910156-40 40-40 22.078125 0 40 17.917969 40 40zm0 0" fill="#96c8ef"></path><path d="m160 256c0 5.519531 4.480469 10 10 10s10-4.480469 10-10-4.480469-10-10-10-10 4.480469-10 10zm0 0"></path><path d="m50 512h360c27.570312 0 50-22.429688 50-50v-412c0-27.570312-22.429688-50-50-50h-360c-27.570312 0-50 22.429688-50 50v40c0 5.523438 4.476562 10 10 10h70v312h-70c-5.523438 0-10 4.476562-10 10v40c0 27.570312 22.429688 50 50 50zm390-462v412c0 16.542969-13.457031 30-30 30h-320.027344c6.292969-8.363281 10.027344-18.753906 10.027344-30v-412c0-10.964844-3.515625-21.390625-10.003906-30h320.003906c16.542969 0 30 13.457031 30 30zm-420 30v-30c0-16.542969 13.457031-30 30-30 16.570312 0 30 13.429688 30 30v30zm0 352h60v30c0 16.542969-13.457031 30-30 30s-30-13.457031-30-30zm0 0"></path><path d="m150 206h240c5.523438 0 10-4.476562 10-10v-126c0-5.523438-4.476562-10-10-10h-240c-5.523438 0-10 4.476562-10 10v126c0 5.523438 4.476562 10 10 10zm10-126h220v106h-220zm0 0"></path><path d="m210 246c-5.523438 0-10 4.476562-10 10s4.476562 10 10 10h160c5.523438 0 10-4.476562 10-10s-4.476562-10-10-10zm0 0"></path><path d="m150 392h240c5.523438 0 10-4.476562 10-10s-4.476562-10-10-10h-240c-5.523438 0-10 4.476562-10 10s4.476562 10 10 10zm0 0"></path><path d="m150 432h240c5.523438 0 10-4.476562 10-10s-4.476562-10-10-10h-240c-5.523438 0-10 4.476562-10 10s4.476562 10 10 10zm0 0"></path><path d="m150 352h240c5.523438 0 10-4.476562 10-10s-4.476562-10-10-10h-240c-5.523438 0-10 4.476562-10 10s4.476562 10 10 10zm0 0"></path></svg>