<!-- icon666.com - MILLIONS vector ICONS FREE --><svg xmlns="http://www.w3.org/2000/svg" xmlns:xlink="http://www.w3.org/1999/xlink" version="1.1" id="Layer_1" x="0px" y="0px" viewBox="0 0 512 512" style="enable-background:new 0 0 512 512;" xml:space="preserve"><g><path style="fill:#00C0F1;" d="M436,151c0,41.4-33.6,75-75,75s-75-33.6-75-75s33.6-75,75-75S436,109.6,436,151z"></path><path style="fill:#009AE4;" d="M436,151c0,41.4-33.6,75-75,75V76C402.4,76,436,109.6,436,151z"></path><path style="fill:#00C0F1;" d="M226,151c0,41.4-33.6,75-75,75s-75-33.6-75-75s33.6-75,75-75S226,109.6,226,151z"></path><path style="fill:#009AE4;" d="M226,151c0,41.4-33.6,75-75,75V76C192.4,76,226,109.6,226,151z"></path><path style="fill:#00C0F1;" d="M331,361c0,41.4-33.6,75-75,75s-75-33.6-75-75s33.6-75,75-75S331,319.6,331,361z"></path><path style="fill:#009AE4;" d="M331,361c0,41.4-33.6,75-75,75V286C297.4,286,331,319.6,331,361z"></path><path style="fill:#537983;" d="M0,151v210h512V151H0z"></path><rect x="256" y="151" style="fill:#3E5959;" width="256" height="210"></rect><path style="fill:#00C0F1;" d="M87.367,214.633C70.36,197.641,61,175.038,61,151s9.36-46.641,26.367-63.633 c5.596-5.61,11.895-10.459,18.735-14.385l14.941,26.016c-4.526,2.607-8.716,5.815-12.451,9.565C97.24,119.916,91,134.975,91,151 s6.24,31.084,17.578,42.422L87.367,214.633z"></path><path style="fill:#009AE4;" d="M214.633,214.633l-21.211-21.211C204.76,182.084,211,167.025,211,151s-6.24-31.084-17.578-42.422 c-3.75-3.765-7.939-6.973-12.466-9.58l14.941-26.016c6.841,3.926,13.14,8.774,18.75,14.399C231.64,104.359,241,126.962,241,151 S231.64,197.641,214.633,214.633z"></path><path style="fill:#00C0F1;" d="M211.073,447.045c-6.812-3.94-13.11-8.774-18.706-14.37C175.36,415.668,166,393.065,166,369.027 s9.36-46.641,26.367-63.633l21.211,21.211C202.24,337.943,196,353.002,196,369.027s6.24,31.099,17.578,42.437 c3.75,3.75,7.954,6.973,12.495,9.595L211.073,447.045z"></path><path style="fill:#009AE4;" d="M300.927,447.045l-15-25.986c4.541-2.622,8.745-5.845,12.495-9.595 C309.76,400.126,316,385.053,316,369.027s-6.24-31.084-17.578-42.422l21.211-21.211C336.64,322.387,346,344.989,346,369.027 s-9.36,46.641-26.367,63.647C314.037,438.271,307.738,443.104,300.927,447.045z"></path><path style="fill:#25D9F8;" d="M256,391c-32.999,0-60,26.7-60,60c0,33.001,27.001,61,60,61s60-27.999,60-61 C316,417.7,288.999,391,256,391z"></path><path style="fill:#00C0F1;" d="M316,451c0,33.001-27.001,61-60,61V391C288.999,391,316,417.7,316,451z"></path><path style="fill:#25D9F8;" d="M151,0c-32.999,0-60,28.001-60,61s27.001,60,60,60s60-27.001,60-60S183.999,0,151,0z"></path><path style="fill:#00C0F1;" d="M211,61c0,32.999-27.001,60-60,60V0C183.999,0,211,28.001,211,61z"></path><path style="fill:#00C0F1;" d="M297.367,214.633C280.36,197.641,271,175.038,271,151s9.36-46.641,26.367-63.633 c5.596-5.61,11.895-10.459,18.735-14.385l14.941,26.016c-4.526,2.607-8.716,5.815-12.451,9.565C307.24,119.916,301,134.975,301,151 s6.24,31.084,17.578,42.422L297.367,214.633z"></path><path style="fill:#009AE4;" d="M424.633,214.633l-21.211-21.211C414.76,182.084,421,167.025,421,151s-6.24-31.084-17.578-42.422 c-3.75-3.765-7.939-6.973-12.466-9.58l14.941-26.016c6.841,3.926,13.14,8.774,18.75,14.399C441.64,104.359,451,126.962,451,151 S441.64,197.641,424.633,214.633z"></path><path style="fill:#25D9F8;" d="M361,0c-32.999,0-60,28.001-60,61s27.001,60,60,60s60-27.001,60-60S393.999,0,361,0z"></path><path style="fill:#00C0F1;" d="M421,61c0,32.999-27.001,60-60,60V0C393.999,0,421,28.001,421,61z"></path></g></svg>