<!-- icon666.com - MILLIONS vector ICONS FREE --><svg version="1.1" id="Layer_1" xmlns="http://www.w3.org/2000/svg" xmlns:xlink="http://www.w3.org/1999/xlink" x="0px" y="0px" viewBox="0 0 512 512" style="enable-background:new 0 0 512 512;" xml:space="preserve"><g><path style="fill:#F5760F;" d="M314.754,146.885H104.918c-4.635,0-8.393-3.758-8.393-8.393c0-4.635,3.758-8.393,8.393-8.393 h209.836c4.635,0,8.393,3.758,8.393,8.393C323.148,143.127,319.389,146.885,314.754,146.885z"></path><path style="fill:#F5760F;" d="M314.754,222.426H104.918c-4.635,0-8.393-3.758-8.393-8.393c0-4.635,3.758-8.393,8.393-8.393 h209.836c4.635,0,8.393,3.758,8.393,8.393C323.148,218.668,319.389,222.426,314.754,222.426z"></path><path style="fill:#F5760F;" d="M314.754,297.967H104.918c-4.635,0-8.393-3.758-8.393-8.393s3.758-8.393,8.393-8.393h209.836 c4.635,0,8.393,3.758,8.393,8.393S319.389,297.967,314.754,297.967z"></path></g><path style="fill:#FFB266;" d="M373.508,0c-46.281,0-83.934,37.653-83.934,83.934v339.934c0,13.884,11.297,25.18,25.18,25.18 c13.884,0,25.18-11.297,25.18-25.18V83.934c0-18.513,15.061-33.574,33.574-33.574c18.513,0,33.574,15.061,33.574,33.574 c0,13.884,11.297,25.18,25.18,25.18c13.884,0,25.18-11.297,25.18-25.18C457.443,37.653,419.79,0,373.508,0z"></path><path style="fill:#FF9940;" d="M306.361,423.869V83.934c0-43.449,33.186-79.289,75.541-83.514C379.14,0.145,376.341,0,373.508,0 c-46.281,0-83.934,37.653-83.934,83.934v339.934c0,13.884,11.297,25.18,25.18,25.18c2.942,0,5.766-0.512,8.393-1.444 C313.379,444.14,306.361,434.811,306.361,423.869z"></path><path style="fill:#FFB266;" d="M163.672,0c-46.281,0-83.934,37.653-83.934,83.934v339.934c0,13.884,11.297,25.18,25.18,25.18 s25.18-11.297,25.18-25.18V83.934c0-18.513,15.061-33.574,33.574-33.574s33.574,15.061,33.574,33.574 c0,13.884,11.297,25.18,25.18,25.18s25.18-11.297,25.18-25.18C247.607,37.653,209.954,0,163.672,0z"></path><path style="fill:#FF9940;" d="M96.525,423.869V83.934c0-43.449,33.186-79.289,75.541-83.514C169.304,0.145,166.505,0,163.672,0 c-46.281,0-83.934,37.653-83.934,83.934v339.934c0,13.884,11.297,25.18,25.18,25.18c2.942,0,5.766-0.512,8.393-1.444 C103.543,444.14,96.525,434.811,96.525,423.869z"></path><path style="fill:#38CED9;" d="M491.016,377.705c-4.635,0-8.393,3.758-8.393,8.393c0,13.884-11.297,25.18-25.18,25.18 c-13.884,0-25.18-11.297-25.18-25.18c0-4.635-3.758-8.393-8.393-8.393s-8.393,3.758-8.393,8.393c0,13.884-11.297,25.18-25.18,25.18 c-13.884,0-25.18-11.297-25.18-25.18c0-4.635-3.758-8.393-8.393-8.393c-4.635,0-8.393,3.758-8.393,8.393 c0,13.884-11.297,25.18-25.18,25.18c-13.884,0-25.18-11.297-25.18-25.18c0-4.635-3.758-8.393-8.393-8.393s-8.393,3.758-8.393,8.393 c0,13.884-11.297,25.18-25.18,25.18s-25.18-11.297-25.18-25.18c0-4.635-3.758-8.393-8.393-8.393c-4.635,0-8.393,3.758-8.393,8.393 c0,13.884-11.297,25.18-25.18,25.18s-25.18-11.297-25.18-25.18c0-4.635-3.758-8.393-8.393-8.393c-4.635,0-8.393,3.758-8.393,8.393 c0,13.884-11.297,25.18-25.18,25.18s-25.18-11.297-25.18-25.18c0-4.635-3.758-8.393-8.393-8.393s-8.393,3.758-8.393,8.393 c0,13.884-11.297,25.18-25.18,25.18s-25.18-11.297-25.18-25.18c0-4.635-3.758-8.393-8.393-8.393s-8.393,3.758-8.393,8.393v117.508 c0,4.635,3.758,8.393,8.393,8.393h470.033c4.635,0,8.393-3.758,8.393-8.393V386.098C499.41,381.463,495.652,377.705,491.016,377.705 z"></path><path style="fill:#89EBF0;" d="M491.016,440.656c-4.635,0-8.393,3.758-8.393,8.393c0,13.884-11.297,25.18-25.18,25.18 c-13.884,0-25.18-11.297-25.18-25.18c0-4.635-3.758-8.393-8.393-8.393s-8.393,3.758-8.393,8.393c0,13.884-11.297,25.18-25.18,25.18 c-13.884,0-25.18-11.297-25.18-25.18c0-4.635-3.758-8.393-8.393-8.393c-4.635,0-8.393,3.758-8.393,8.393 c0,13.884-11.297,25.18-25.18,25.18c-13.884,0-25.18-11.297-25.18-25.18c0-4.635-3.758-8.393-8.393-8.393s-8.393,3.758-8.393,8.393 c0,13.884-11.297,25.18-25.18,25.18s-25.18-11.297-25.18-25.18c0-4.635-3.758-8.393-8.393-8.393c-4.635,0-8.393,3.758-8.393,8.393 c0,13.884-11.297,25.18-25.18,25.18s-25.18-11.297-25.18-25.18c0-4.635-3.758-8.393-8.393-8.393c-4.635,0-8.393,3.758-8.393,8.393 c0,13.884-11.297,25.18-25.18,25.18s-25.18-11.297-25.18-25.18c0-4.635-3.758-8.393-8.393-8.393s-8.393,3.758-8.393,8.393 c0,13.884-11.297,25.18-25.18,25.18s-25.18-11.297-25.18-25.18c0-4.635-3.758-8.393-8.393-8.393s-8.393,3.758-8.393,8.393v54.557 c0,4.635,3.758,8.393,8.393,8.393h470.033c4.635,0,8.393-3.758,8.393-8.393v-54.557C499.41,444.414,495.652,440.656,491.016,440.656 z"></path></svg>