<!-- icon666.com - MILLIONS vector ICONS FREE --><svg version="1.1" id="Layer_1" xmlns="http://www.w3.org/2000/svg" xmlns:xlink="http://www.w3.org/1999/xlink" x="0px" y="0px" viewBox="0 0 512 512" style="enable-background:new 0 0 512 512;" xml:space="preserve"><path style="fill:#DCFFE8;" d="M439.659,489.739H61.244c-24.588,0-44.522-19.933-44.522-44.522V66.783 c0-24.588,19.933-44.522,44.522-44.522h378.415c24.588,0,44.522,19.933,44.522,44.522v378.435 C484.181,469.806,464.247,489.739,439.659,489.739z"></path><path style="fill:#C1F4D3;" d="M39.058,483.812c-13.345-7.688-22.337-22.087-22.337-38.595V66.783 c0-24.588,19.932-44.522,44.52-44.522H439.66c24.587,0,44.52,19.933,44.52,44.522v137.901 c-48.459-44.177-112.904-71.118-183.643-71.118l0,0c-150.599,0-272.685,122.09-272.685,272.696l0,0 C27.852,433.206,31.779,459.228,39.058,483.812z"></path><path style="fill:#EDB311;" d="M272.711,456.348H27.852V178.087h244.86V456.348L272.711,456.348z"></path><path style="fill:#F7DB4F;" d="M272.711,456.348H150.282V178.087h122.429V456.348z"></path><path style="fill:#D8962B;" d="M194.802,456.348h-89.04V333.814c0-24.534,19.889-44.423,44.423-44.423h0.194 c24.534,0,44.423,19.889,44.423,44.423v122.534H194.802z"></path><path style="fill:#782593;" d="M450.791,345.044v89.043c0,6.147-4.983,11.13-11.13,11.13c-6.147,0-11.13-4.983-11.13-11.13v-89.043 c0-6.147,4.983-11.13,11.13-11.13C445.807,333.913,450.791,338.896,450.791,345.044z"></path><path style="fill:#007784;" d="M512,333.913c0,6.147-4.983,11.13-11.13,11.13H417.4c-24.56,0-46.123-17.431-51.269-41.449 l-15.082-70.387c-5.462-25.49-28.347-43.991-54.414-43.991H28.965c-6.147,0-11.13-4.983-11.13-11.13s4.983-11.13,11.13-11.13h267.67 c17.768,0,35.162,6.152,48.979,17.322c13.817,11.171,23.477,26.891,27.199,44.266l15.082,70.387 c2.963,13.821,15.371,23.851,29.505,23.851h83.469C507.017,322.783,512,327.766,512,333.913z"></path><path style="fill:#782593;" d="M205.931,333.913v100.174c0,6.147-4.983,11.13-11.13,11.13c-6.147,0-11.13-4.983-11.13-11.13V333.913 c0-18.412-14.978-33.391-33.39-33.391s-33.39,14.979-33.39,33.391v100.174c0,6.147-4.983,11.13-11.13,11.13 c-6.147,0-11.13-4.983-11.13-11.13V333.913c0-30.687,24.964-55.652,55.65-55.652S205.931,303.227,205.931,333.913z M16.723,434.087 c0,6.147,4.983,11.13,11.13,11.13s11.13-4.983,11.13-11.13V89.044H16.723V434.087z M261.581,434.087 c0,6.147,4.983,11.13,11.13,11.13c6.147,0,11.13-4.983,11.13-11.13V89.044h-22.26v345.043H261.581z"></path><path style="fill:#C92B00;" d="M298.208,97.091c4.443,3.456,2.086,10.788-3.467,10.788H5.79c-5.554,0-7.91-7.332-3.467-10.788 l106.333-82.707C120.661,5.048,135.261,0,150.266,0l0,0c15.005,0,29.605,5.048,41.609,14.384L298.208,97.091z"></path><path style="fill:#FF4800;" d="M150.266,107.88H5.801c-5.554,0-7.91-7.332-3.467-10.788l106.333-82.707 c0.12-0.093,0.24-0.186,0.361-0.278c17.056-13.088,41.237-0.184,41.237,21.821V107.88z"></path><path style="fill:#00CEA6;" d="M512,406.157v61.321c0,24.588-19.932,44.522-44.52,44.522H44.542 c-24.587,0-44.52-19.933-44.52-44.522v-61.321c16.294,17.7,39.223,27.93,63.786,27.93c24.702,0,47.756-10.339,64.067-28.226 c16.312,17.887,39.366,28.226,64.068,28.226s47.756-10.339,64.068-28.226c16.311,17.887,39.365,28.226,64.067,28.226 c24.702,0,47.756-10.339,64.068-28.226c16.311,17.887,39.365,28.226,64.067,28.226C472.778,434.087,495.705,423.857,512,406.157z"></path><path style="fill:#00A384;" d="M512,434.383v33.095c0,24.588-19.932,44.522-44.52,44.522H44.542 c-24.587,0-44.52-19.933-44.52-44.522v-33.095c16.295,17.7,39.223,27.93,63.787,27.93c24.702,0,47.756-10.339,64.067-28.226 c16.312,17.887,39.366,28.226,64.068,28.226c24.702,0,47.756-10.339,64.068-28.226c16.312,17.887,39.366,28.226,64.068,28.226 c24.702,0,47.756-10.339,64.068-28.226c16.312,17.887,39.366,28.226,64.068,28.226C472.778,462.313,495.705,452.083,512,434.383z"></path></svg>