<svg width="16" height="14" viewBox="0 0 16 14" fill="none" xmlns="http://www.w3.org/2000/svg">
<path d="M13.9062 0.8125H2.09375C1.57178 0.813058 1.07134 1.02066 0.70225 1.38975C0.333159 1.75884 0.125558 2.25928 0.125 2.78125V11.2188C0.125558 11.7407 0.333159 12.2412 0.70225 12.6103C1.07134 12.9793 1.57178 13.1869 2.09375 13.1875H13.9062C14.4282 13.1869 14.9287 12.9793 15.2978 12.6103C15.6668 12.2412 15.8744 11.7407 15.875 11.2188V2.78125C15.8744 2.25928 15.6668 1.75884 15.2978 1.38975C14.9287 1.02066 14.4282 0.813058 13.9062 0.8125ZM13.4077 4.06902L8.34523 8.00652C8.24652 8.08327 8.12504 8.12493 8 8.12493C7.87496 8.12493 7.75348 8.08327 7.65477 8.00652L2.59227 4.06902C2.53279 4.02411 2.48283 3.96782 2.44529 3.90342C2.40775 3.83903 2.38339 3.76782 2.37361 3.69393C2.36383 3.62004 2.36884 3.54494 2.38834 3.473C2.40783 3.40106 2.44143 3.33371 2.48718 3.27487C2.53293 3.21603 2.58992 3.16687 2.65484 3.13024C2.71975 3.09362 2.7913 3.07025 2.86532 3.06152C2.93934 3.05278 3.01436 3.05884 3.08602 3.07935C3.15767 3.09986 3.22454 3.1344 3.28273 3.18098L8 6.84988L12.7173 3.18098C12.8352 3.0919 12.9835 3.05283 13.13 3.07222C13.2766 3.09161 13.4096 3.1679 13.5003 3.28459C13.591 3.40128 13.6322 3.549 13.6149 3.69579C13.5975 3.84259 13.5231 3.97666 13.4077 4.06902Z" fill="white"/>
</svg>
