<svg width="20" height="20" viewBox="0 0 20 20" fill="none" xmlns="http://www.w3.org/2000/svg">
<path d="M4.5 6.75C4.5 6.15326 4.73705 5.58097 5.15901 5.15901C5.58097 4.73705 6.15326 4.5 6.75 4.5C7.34674 4.5 7.91903 4.73705 8.34099 5.15901C8.76295 5.58097 9 6.15326 9 6.75C9 7.34674 8.76295 7.91903 8.34099 8.34099C7.91903 8.76295 7.34674 9 6.75 9C6.15326 9 5.58097 8.76295 5.15901 8.34099C4.73705 7.91903 4.5 7.34674 4.5 6.75ZM6.75 3.5C5.88805 3.5 5.0614 3.84241 4.4519 4.4519C3.84241 5.0614 3.5 5.88805 3.5 6.75C3.5 7.61195 3.84241 8.4386 4.4519 9.0481C5.0614 9.65759 5.88805 10 6.75 10C7.61195 10 8.4386 9.65759 9.0481 9.0481C9.65759 8.4386 10 7.61195 10 6.75C10 5.88805 9.65759 5.0614 9.0481 4.4519C8.4386 3.84241 7.61195 3.5 6.75 3.5ZM12.437 15.145C12.975 15.365 13.652 15.5 14.5 15.5C16.381 15.5 17.421 14.832 17.969 14.066C18.2549 13.664 18.4342 13.1961 18.49 12.706C18.495 12.6605 18.4983 12.6148 18.5 12.569V12.5C18.5 12.303 18.4612 12.108 18.3858 11.926C18.3104 11.744 18.1999 11.5786 18.0607 11.4393C17.9214 11.3001 17.756 11.1896 17.574 11.1142C17.392 11.0388 17.197 11 17 11H12.37C12.61 11.29 12.79 11.629 12.895 12H17C17.1326 12 17.2598 12.0527 17.3536 12.1464C17.4473 12.2402 17.5 12.3674 17.5 12.5V12.554L17.495 12.604C17.4567 12.9211 17.3398 13.2235 17.155 13.484C16.828 13.943 16.118 14.5 14.5 14.5C13.768 14.5 13.222 14.386 12.813 14.219C12.731 14.499 12.612 14.815 12.437 15.145ZM1.5 13C1.5 12.4696 1.71071 11.9609 2.08579 11.5858C2.46086 11.2107 2.96957 11 3.5 11H10C10.5304 11 11.0391 11.2107 11.4142 11.5858C11.7893 11.9609 12 12.4696 12 13V13.084C12 13.094 12 13.107 11.998 13.124C11.9858 13.322 11.9574 13.5187 11.913 13.712C11.828 14.08 11.659 14.572 11.318 15.066C10.617 16.08 9.263 17 6.75 17C4.237 17 2.883 16.08 2.182 15.066C1.81282 14.5283 1.58263 13.9074 1.512 13.259C1.50602 13.2008 1.50202 13.1425 1.5 13.084V13ZM2.5 13.06V13.078L2.507 13.161C2.56118 13.6404 2.73219 14.0991 3.005 14.497C3.492 15.201 4.513 16 6.75 16C8.987 16 10.008 15.201 10.495 14.497C10.7679 14.0992 10.9389 13.6404 10.993 13.161C10.9963 13.1334 10.9983 13.1057 10.999 13.078L11 13.061V13C11 12.7348 10.8946 12.4804 10.7071 12.2929C10.5196 12.1054 10.2652 12 10 12H3.5C3.23478 12 2.98043 12.1054 2.79289 12.2929C2.60536 12.4804 2.5 12.7348 2.5 13V13.06ZM13 7.5C13 7.10218 13.158 6.72064 13.4393 6.43934C13.7206 6.15804 14.1022 6 14.5 6C14.8978 6 15.2794 6.15804 15.5607 6.43934C15.842 6.72064 16 7.10218 16 7.5C16 7.89782 15.842 8.27936 15.5607 8.56066C15.2794 8.84196 14.8978 9 14.5 9C14.1022 9 13.7206 8.84196 13.4393 8.56066C13.158 8.27936 13 7.89782 13 7.5ZM14.5 5C13.837 5 13.2011 5.26339 12.7322 5.73223C12.2634 6.20107 12 6.83696 12 7.5C12 8.16304 12.2634 8.79893 12.7322 9.26777C13.2011 9.73661 13.837 10 14.5 10C15.163 10 15.7989 9.73661 16.2678 9.26777C16.7366 8.79893 17 8.16304 17 7.5C17 6.83696 16.7366 6.20107 16.2678 5.73223C15.7989 5.26339 15.163 5 14.5 5Z" fill="white"/>
</svg>
