<svg width="25" height="25" viewBox="0 0 25 25" fill="none" xmlns="http://www.w3.org/2000/svg">
<path d="M12.625 24.918C19.2524 24.918 24.625 19.5454 24.625 12.918C24.625 6.29055 19.2524 0.917969 12.625 0.917969C5.99758 0.917969 0.625 6.29055 0.625 12.918C0.625 19.5454 5.99758 24.918 12.625 24.918Z" fill="#F3BA2F"/>
<path d="M10.1145 11.8869L12.6246 9.37673L15.1348 11.8892L16.5949 10.4291L12.6246 6.45642L8.6543 10.4267L10.1145 11.8869Z" fill="white"/>
<path d="M7.62314 11.4569L6.16309 12.9169L7.62314 14.377L9.08319 12.9169L7.62314 11.4569Z" fill="white"/>
<path d="M10.1139 13.9494L12.624 16.4596L15.1342 13.9471L16.5967 15.4072H16.5943L12.624 19.3799L8.65371 15.4096L8.65137 15.4072L10.1139 13.9494Z" fill="white"/>
<path d="M17.6251 11.4594L16.165 12.9194L17.6251 14.3795L19.0851 12.9194L17.6251 11.4594Z" fill="white"/>
<path d="M14.1055 12.9181L12.6242 11.4345L11.5297 12.5314L11.4031 12.6556L11.143 12.9158L11.1406 12.9181L11.143 12.9205L12.6242 14.4017L14.1055 12.9181Z" fill="white"/>
</svg>
