<svg width="34" height="34" viewBox="0 0 34 34" fill="none" xmlns="http://www.w3.org/2000/svg">
<path d="M17 0.333252C7.8 0.333252 0.333333 7.79992 0.333333 16.9999C0.333333 26.1999 7.8 33.6666 17 33.6666C26.2 33.6666 33.6667 26.1999 33.6667 16.9999C33.6667 7.79992 26.2 0.333252 17 0.333252ZM24.7333 11.6666C24.4833 14.2999 23.4 20.6999 22.85 23.6499C22.6167 24.8999 22.15 25.3166 21.7167 25.3666C20.75 25.4499 20.0167 24.7333 19.0833 24.1166C17.6167 23.1499 16.7833 22.5499 15.3667 21.6166C13.7167 20.5333 14.7833 19.9333 15.7333 18.9666C15.9833 18.7166 20.25 14.8333 20.3333 14.4833C20.3449 14.4302 20.3434 14.3752 20.3288 14.3229C20.3143 14.2706 20.2873 14.2227 20.25 14.1833C20.15 14.0999 20.0167 14.1333 19.9 14.1499C19.75 14.1833 17.4167 15.7333 12.8667 18.7999C12.2 19.2499 11.6 19.4833 11.0667 19.4666C10.4667 19.4499 9.33333 19.1333 8.48333 18.8499C7.43333 18.5166 6.61667 18.3333 6.68333 17.7499C6.71667 17.4499 7.13333 17.1499 7.91667 16.8333C12.7833 14.7166 16.0167 13.3166 17.6333 12.6499C22.2667 10.7166 23.2167 10.3833 23.85 10.3833C23.9833 10.3833 24.3 10.4166 24.5 10.5833C24.6667 10.7166 24.7167 10.8999 24.7333 11.0333C24.7167 11.1333 24.75 11.4333 24.7333 11.6666Z" fill="#434650"/>
</svg>
