<!-- icon666.com - MILLIONS vector ICONS FREE --><svg viewBox="0 0 512 512" xmlns="http://www.w3.org/2000/svg"><path d="m369.976562 433.652344c-3.480468 2.242187-4.484374 6.886718-2.238281 10.367187 2.242188 3.480469 6.886719 4.484375 10.367188 2.238281 13.519531-8.710937 26.203125-18.960937 37.699219-30.453124 42.6875-42.6875 66.195312-99.441407 66.195312-159.804688 0-54.699219-19.75-107.425781-55.609375-148.464844-1.367187-1.5625-3.320313-2.488281-5.398437-2.5625-2.070313-.070312-4.085938.726563-5.554688 2.191406l-308.269531 308.273438c-1.46875 1.46875-2.261719 3.480469-2.191407 5.554688.070313 2.078124.996094 4.03125 2.558594 5.398437 41.042969 35.859375 93.765625 55.609375 148.464844 55.609375 32.511719 0 63.820312-6.703125 93.058594-19.921875 3.773437-1.707031 5.449218-6.148437 3.742187-9.925781-1.707031-3.773438-6.148437-5.449219-9.921875-3.742188-27.285156 12.335938-56.515625 18.589844-86.878906 18.589844-48.375 0-95.089844-16.539062-132.445312-46.734375l96.765624-96.765625h188.679688c4.140625 0 7.5-3.355469 7.5-7.5v-60c0-4.144531-3.359375-7.5-7.5-7.5h-52.804688c-4.140624 0-7.5 3.355469-7.5 7.5s3.359376 7.5 7.5 7.5h45.304688v45h-81v-45h3.75c4.140625 0 7.5-3.355469 7.5-7.5s-3.359375-7.5-7.5-7.5h-28.929688l124.945313-124.945312c30.195313 37.351562 46.734375 84.070312 46.734375 132.445312 0 56.355469-21.949219 109.34375-61.804688 149.195312-10.742187 10.746094-22.59375 20.320313-35.21875 28.457032zm-64.476562-170.152344v45h-70.179688l45-45zm0 0"></path><path d="m437.019531 74.980469c-48.355469-48.351563-112.640625-74.980469-181.019531-74.980469-55.429688 0-108.179688 17.425781-152.542969 50.394531-3.324219 2.472657-4.015625 7.167969-1.546875 10.492188 2.472656 3.328125 7.167969 4.019531 10.496094 1.546875 41.753906-31.03125 91.410156-47.433594 143.59375-47.433594 132.886719 0 241 108.113281 241 241s-108.113281 241-241 241-241-108.113281-241-241c0-66.039062 26.191406-127.664062 73.75-173.515625 2.980469-2.875 3.066406-7.621094.191406-10.605469-2.871094-2.976562-7.621094-3.066406-10.601562-.191406-24.511719 23.628906-43.78125 51.375-57.277344 82.472656-13.976562 32.195313-21.0625 66.457032-21.0625 101.839844 0 68.378906 26.628906 132.664062 74.980469 181.019531 48.355469 48.351563 112.640625 74.980469 181.019531 74.980469s132.664062-26.628906 181.019531-74.980469c48.351563-48.355469 74.980469-112.640625 74.980469-181.019531s-26.628906-132.664062-74.980469-181.019531zm0 0"></path><path d="m404.464844 85.609375c-41.042969-35.859375-93.765625-55.609375-148.464844-55.609375-60.363281 0-117.113281 23.507812-159.804688 66.195312-42.6875 42.6875-66.195312 99.441407-66.195312 159.804688 0 54.699219 19.75 107.425781 55.609375 148.464844 1.367187 1.5625 3.320313 2.488281 5.398437 2.5625.082032 0 .167969.003906.25.003906 1.984376 0 3.894532-.789062 5.304688-2.195312l308.269531-308.273438c1.46875-1.46875 2.261719-3.480469 2.191407-5.554688-.070313-2.078124-.996094-4.03125-2.558594-5.398437zm-263.964844 177.890625h76.179688l-45 45h-31.179688zm151.03125-75.128906c-8.933594 0-17.433594-4.308594-22.742188-11.519532-1.203124-1.632812-3.015624-2.710937-5.027343-2.984374-2.007813-.273438-4.042969.277343-5.640625 1.53125-3.417969 2.683593-7.53125 4.101562-11.890625 4.101562-3.8125 0-7.5-1.109375-10.664063-3.210938-3.140625-2.082031-7.339844-1.511718-9.808594 1.332032-3.574218 4.117187-8.746093 6.480468-14.1875 6.480468-1.277343 0-2.566406-.132812-3.832031-.390624-3.375-.6875-6.789062 1.011718-8.269531 4.121093-4.085938 8.570313-12.855469 14.109375-22.339844 14.109375-3.148437 0-6.222656-.589844-9.136718-1.75-3.6875-1.46875-7.886719.195313-9.566407 3.792969-2.445312 5.226563-7.75 8.605469-13.519531 8.605469-1.574219 0-3.140625-.253906-4.652344-.746094-2.167968-.710938-4.542968-.398438-6.449218.851562s-3.140626 3.300782-3.355469 5.570313c-.386719 4.125-3.804688 7.230469-7.953125 7.230469-4.410156 0-8-3.582032-8-7.988282 0-4.355468 3.5-7.910156 7.835937-7.996093 2.433594.148437 4.816407-.828125 6.367188-2.703125 1.421875-1.726563 2.003906-3.992188 1.582031-6.191406-.1875-.988282-.285156-1.980469-.285156-2.949219 0-8.222657 6.6875-14.910157 14.980468-14.910157 3.96875 0 7.25-3.089843 7.488282-7.050781.777344-13.015625 11.609375-23.207031 24.664062-23.207031 3.863282 0 7.558594.863281 10.980469 2.570312 3.09375 1.542969 6.84375.769532 9.078125-1.871093 3.59375-4.257813 8.835938-6.699219 14.378906-6.699219 3.550782 0 7.007813.996094 10 2.882812 3.1875 2.007813 7.367188 1.34375 9.773438-1.554687 3.6875-4.449219 9.117187-7 14.886718-7 4.359376 0 8.472657 1.417969 11.890626 4.101563 1.597656 1.253906 3.628906 1.808593 5.644531 1.53125 2.011719-.273438 3.824219-1.355469 5.027343-2.988282 5.382813-7.316406 13.667969-11.511718 22.738282-11.511718 8.847656 0 17.019531 4.035156 22.417968 11.082031 2.476563 3.234375 7.089844 3.898437 10.378907 1.488281 3.3125-2.421875 7.246093-3.703125 11.375-3.703125 1.136719 0 2.257812.105469 3.355469.292969l-47.238282 47.242187c-.09375 0-.191406.007813-.285156.007813zm59.3125-59.035156c-4.667969-2.304688-9.804688-3.507813-15.144531-3.507813-5.003907 0-9.847657 1.066406-14.296875 3.109375-7.992188-7.679688-18.570313-11.976562-29.875-11.976562-11.34375 0-22.226563 4.523437-30.242188 12.355468-4.664062-2.273437-9.828125-3.488281-15.054687-3.488281-8.191407 0-15.984375 2.890625-22.128907 8.078125-3.964843-1.585938-8.210937-2.40625-12.53125-2.40625-8.085937 0-15.804687 2.878906-21.875 8.039062-4.035156-1.34375-8.296874-2.039062-12.566406-2.039062-18.804687 0-34.742187 13.171875-38.742187 30.976562-12.757813 2.847657-22.472657 13.875-23.328125 27.265626-9.042969 3.101562-15.5625 11.6875-15.5625 21.769531 0 12.675781 10.320312 22.988281 23 22.988281 9.105468 0 16.992187-5.214844 20.714844-12.957031.5625.03125 1.128906.046875 1.695312.046875 9.320312 0 18.035156-4.394532 23.632812-11.582032 2.808594.621094 5.679688.933594 8.589844.933594 13.386719 0 25.882813-6.863281 33.167969-17.863281 8.164063.300781 16.089844-2.359375 22.355469-7.371094 4.261718 1.839844 8.867187 2.792969 13.574218 2.792969 5.226563 0 10.394532-1.214844 15.058594-3.488281 4.929688 4.816406 10.941406 8.375 17.476563 10.40625l-47.082031 47.082031h-98.679688c-1.964844 0-3.75.761719-5.085938 2h-21.050781c-6.265625 0-11.363281 5.097656-11.363281 11.363281v48.273438c0 6.265625 5.097656 11.363281 11.363281 11.363281h21.050781c1.335938 1.238281 3.121094 2 5.085938 2h23.679688l-64.945313 64.941406c-30.195313-37.347656-46.734375-84.066406-46.734375-132.441406 0-56.355469 21.949219-109.34375 61.804688-149.195312 39.851562-39.855469 92.839843-61.804688 149.195312-61.804688 48.375 0 95.089844 16.539062 132.445312 46.734375zm-240.34375 177.164062v-41h15v41zm0 0"></path></svg>