<!-- icon666.com - MILLIONS vector ICONS FREE --><svg version="1.1" id="Capa_1" xmlns="http://www.w3.org/2000/svg" xmlns:xlink="http://www.w3.org/1999/xlink" x="0px" y="0px" viewBox="0 0 359.6 359.6" style="enable-background:new 0 0 359.6 359.6;" xml:space="preserve"><path style="fill:#78B943;" d="M98.536,7.6c-35.344,0-64,28.656-64,64s28.656,64,64,64s64-28.656,64-64S133.88,7.6,98.536,7.6z M98.536,119.6c-26.512,0-48-21.488-48-48s21.488-48,48-48s48,21.488,48,48S125.048,119.6,98.536,119.6z"></path><circle style="fill:#CFE078;" cx="98.535" cy="71.598" r="48"></circle><g><path style="fill:#CDDCF0;" d="M274.536,199.6c0-11.2-2.016-21.904-5.536-31.904c-5.68-17.552-14.896-36.704-14.896-56.144 c0-13.76,1.536-27.088,4.256-39.952H98.728c2.704,12.864,4.256,26.208,4.256,39.952c0,19.44-9.216,38.592-14.896,56.144 c-3.536,10-5.552,20.704-5.552,31.904c0,47.552,34.608,86.928,80,94.56v33.44l-48,16v16h128v-16l-48-16v-33.44 C239.928,286.528,274.536,247.152,274.536,199.6z"></path><polygon style="fill:#CDDCF0;" points="224.52,71.6 232.872,45.936 325.064,15.2 320.007,0 220.2,33.264 207.736,71.6 "></polygon></g><path style="fill:#D84333;" d="M251.783,167.599c-52.947,0-93.484,0-146.495,0c-4.288,9.809-6.752,20.607-6.752,32 c0,44.178,35.823,80,80,80c44.176,0,80-35.822,80-80C258.536,188.206,256.072,177.408,251.783,167.599z"></path><path style="fill:#AF372C;" d="M178.536,167.6h-2.032l-33.6,103.28c0.016,0.016,0.032,0.016,0.048,0.032 c4.736,2.336,9.728,4.192,14.976,5.584L193.32,167.6L178.536,167.6L178.536,167.6z"></path><path style="fill:#6C8EC6;" d="M193.32,167.6l31.2-96h-16.784l-31.232,96C183.314,167.6,186.509,167.6,193.32,167.6z"></path><path style="fill:#779945;" d="M146.536,71.6c0,25.264-19.584,45.744-44.368,47.632c-0.624,5.488-1.696,10.944-3.248,16.32 c35.168-0.208,63.616-28.736,63.616-63.952H146.536z"></path><path style="fill:#9EB979;" d="M102.984,111.552c0,2.576-0.512,5.12-0.816,7.68c24.784-1.888,44.368-22.368,44.368-47.632H98.728 C101.432,84.464,102.984,97.808,102.984,111.552z"></path></svg>