<?xml version="1.0" encoding="UTF-8"?>
<svg width="261px" height="82px" viewBox="0 0 261 82" version="1.1" xmlns="http://www.w3.org/2000/svg" xmlns:xlink="http://www.w3.org/1999/xlink">
    <title>wave-resort-logo-send-blank-290618</title>
    <g id="Page-1" stroke="none" stroke-width="1" fill="none" fill-rule="evenodd">
        <g id="Desktop-XXL" transform="translate(-600.000000, -29.000000)">
            <g id="wave-resort-logo-send-blank-290618" transform="translate(601.000000, 30.000000)">
                <path d="M102.499924,21.9804851 L102.132541,21.9804851 L101.765157,21.9804851 L101.214082,21.9804851 L100.111933,21.9804851 L99.5608579,21.9804851 L98.2750166,22.1651951 C98.0913249,22.1651951 97.9076333,22.1651951 97.7239417,22.349905 C97.5402501,22.349905 97.3565585,22.349905 97.1728668,22.534615 C96.9891752,22.534615 96.8054836,22.534615 96.621792,22.719325 C96.4381004,22.719325 96.2544087,22.9040349 95.8870255,22.9040349 C95.7033339,22.9040349 95.5196423,23.0887449 95.3359506,23.0887449 L94.7848758,23.2734548 C94.6011842,23.2734548 94.4174925,23.4581648 94.2338009,23.4581648 C94.0501093,23.4581648 93.8664177,23.6428747 93.6827261,23.6428747 C93.4990344,23.6428747 93.3153428,23.8275847 93.1316512,23.8275847 C92.9479596,23.8275847 92.764268,24.0122947 92.5805763,24.1970046 C92.3968847,24.3817146 92.2131931,24.3817146 92.0295015,24.5664245 C91.8458099,24.7511345 91.6621182,24.7511345 91.4784266,24.9358445 C91.294735,25.1205544 91.1110434,25.1205544 90.9273518,25.3052644 C90.7436601,25.4899743 90.5599685,25.4899743 90.3762769,25.6746843 C90.1925853,25.8593943 90.0088937,26.0441042 90.0088937,26.0441042 C89.825202,26.2288142 89.6415104,26.4135241 89.6415104,26.4135241 C89.4578188,26.5982341 89.4578188,26.7829441 89.2741272,26.7829441 C89.0904356,26.967654 89.0904356,27.152364 88.9067439,27.152364 C88.9067439,27.3370739 88.7230523,27.5217839 88.7230523,27.7064938 C88.7230523,27.8912038 88.5393607,28.0759138 88.5393607,28.2606237 C88.5393607,28.4453337 88.3556691,28.6300436 88.3556691,28.8147536 C88.3556691,28.9994636 88.3556691,29.1841735 88.1719775,29.5535934 C88.1719775,29.7383034 88.1719775,30.1077233 88.1719775,30.2924333 C88.1719775,30.4771432 88.1719775,30.8465631 88.1719775,31.0312731 C88.1719775,31.2159831 88.1719775,31.400693 88.1719775,31.585403 C88.1719775,31.7701129 88.1719775,31.9548229 88.1719775,32.1395329 C88.1719775,32.3242428 88.1719775,32.5089528 88.3556691,32.6936627 C88.3556691,32.8783727 88.3556691,33.0630827 88.5393607,33.2477926 C88.5393607,33.4325026 88.7230523,33.6172125 88.7230523,33.6172125 C88.7230523,33.8019225 88.9067439,33.8019225 88.9067439,33.9866325 C88.9067439,34.1713424 89.0904356,34.1713424 89.0904356,34.3560524 C89.0904356,34.5407623 89.2741272,34.5407623 89.2741272,34.7254723 C89.4578188,34.9101822 89.4578188,34.9101822 89.6415104,35.0948922 C89.825202,35.2796022 89.825202,35.2796022 90.0088937,35.4643121 C90.1925853,35.6490221 90.1925853,35.6490221 90.3762769,35.833732 C90.5599685,36.018442 90.7436601,36.018442 90.7436601,36.203152 C90.9273518,36.3878619 91.1110434,36.3878619 91.294735,36.5725719 C91.4784266,36.7572818 91.6621182,36.7572818 91.8458099,36.9419918 C92.0295015,37.1267018 92.2131931,37.1267018 92.3968847,37.1267018 C92.5805763,37.1267018 92.764268,37.3114117 92.9479596,37.3114117 C93.1316512,37.3114117 93.3153428,37.4961217 93.4990344,37.4961217 C93.6827261,37.4961217 93.8664177,37.6808316 94.0501093,37.6808316 L94.6011842,37.8655416 C94.7848758,37.8655416 94.9685674,38.0502515 95.3359506,38.0502515 C95.5196423,38.0502515 95.7033339,38.2349615 96.0707171,38.2349615 C96.2544087,38.2349615 96.4381004,38.4196715 96.8054836,38.4196715 C96.9891752,38.4196715 97.3565585,38.4196715 97.5402501,38.6043814 C97.7239417,38.6043814 98.0913249,38.6043814 98.2750166,38.7890914 L99.009783,38.7890914 L99.7445495,38.7890914 L100.479316,38.7890914 L101.214082,38.7890914 L101.948849,38.7890914 L102.683615,38.7890914 L103.418382,38.7890914 L104.153148,38.7890914 L104.704223,38.7890914 L105.255298,38.7890914 L106.908523,38.7890914 L107.826981,38.7890914 L110.03128,38.6043814 L112.23558,38.4196715 L113.337729,38.2349615 L114.439879,38.0502515 L115.542029,37.8655416 L116.093104,37.6808316 L117.195253,37.4961217 L117.746328,37.3114117 L118.297403,37.1267018 L118.297403,21.6110652 L102.499924,21.6110652 L102.499924,21.9804851 Z M103.602074,44.88452 C102.499924,44.88452 101.581466,44.88452 100.663008,44.88452 C99.7445495,44.88452 98.8260914,44.6998101 97.9076333,44.6998101 C96.9891752,44.5151001 96.2544087,44.5151001 95.5196423,44.3303902 C94.7848758,44.1456802 94.0501093,43.9609702 93.3153428,43.7762603 C92.764268,43.5915503 92.5805763,43.4068404 92.2131931,43.4068404 C91.8458099,43.2221304 91.4784266,43.2221304 91.294735,43.0374204 C90.9273518,42.8527105 90.7436601,42.8527105 90.3762769,42.6680005 C90.0088937,42.4832906 89.825202,42.4832906 89.4578188,42.2985806 C89.0904356,42.1138706 88.9067439,42.1138706 88.5393607,41.9291607 C88.3556691,41.7444507 87.9882858,41.7444507 87.8045942,41.5597408 C87.6209026,41.3750308 87.2535194,41.1903209 87.0698278,41.1903209 C86.8861361,41.0056109 86.5187529,40.8209009 86.3350613,40.636191 C86.1513697,40.451481 85.967678,40.2667711 85.6002948,40.0820611 C85.4166032,39.8973511 85.2329116,39.7126412 85.0492199,39.5279312 C84.8655283,39.3432213 84.6818367,39.1585113 84.4981451,38.9738013 C84.3144535,38.7890914 84.1307618,38.6043814 83.9470702,38.4196715 C83.7633786,38.2349615 83.579687,38.0502515 83.3959954,37.8655416 C83.2123037,37.6808316 83.0286121,37.4961217 83.0286121,37.3114117 C82.8449205,37.1267018 82.8449205,36.9419918 82.6612289,36.7572818 C82.4775373,36.5725719 82.4775373,36.3878619 82.2938456,36.203152 C82.110154,35.833732 81.9264624,35.4643121 81.9264624,34.9101822 C81.7427708,34.5407623 81.7427708,33.9866325 81.5590792,33.6172125 C81.5590792,33.2477926 81.3753875,32.8783727 81.3753875,32.3242428 C81.3753875,31.9548229 81.3753875,31.400693 81.3753875,31.0312731 C81.3753875,30.6618532 81.3753875,30.2924333 81.3753875,30.1077233 C81.3753875,29.7383034 81.3753875,29.3688835 81.5590792,29.1841735 C81.5590792,28.8147536 81.7427708,28.6300436 81.7427708,28.2606237 C81.7427708,27.8912038 81.9264624,27.7064938 81.9264624,27.3370739 C81.9264624,26.967654 82.110154,26.7829441 82.2938456,26.4135241 C82.4775373,26.0441042 82.4775373,25.8593943 82.6612289,25.4899743 C82.8449205,25.1205544 83.0286121,24.9358445 83.0286121,24.7511345 C83.2123037,24.5664245 83.3959954,24.1970046 83.579687,24.0122947 C83.7633786,23.8275847 83.9470702,23.6428747 84.1307618,23.2734548 C84.3144535,23.0887449 84.4981451,22.9040349 84.6818367,22.534615 C84.8655283,22.349905 85.0492199,22.1651951 85.2329116,21.9804851 C85.4166032,21.7957752 85.6002948,21.6110652 85.7839864,21.4263552 C85.967678,21.2416453 86.1513697,21.0569353 86.5187529,20.8722254 C86.7024445,20.6875154 86.8861361,20.5028054 87.2535194,20.3180955 C87.437211,20.1333855 87.8045942,19.9486756 87.9882858,19.7639656 C88.1719775,19.5792557 88.5393607,19.3945457 88.7230523,19.3945457 C88.9067439,19.2098357 89.2741272,19.0251258 89.4578188,19.0251258 C89.6415104,18.8404158 90.0088937,18.8404158 90.1925853,18.6557059 C90.3762769,18.4709959 90.7436601,18.4709959 90.9273518,18.2862859 C91.294735,18.101576 91.4784266,18.101576 91.8458099,17.916866 C92.0295015,17.7321561 92.3968847,17.7321561 92.764268,17.7321561 C93.1316512,17.7321561 93.3153428,17.5474461 93.6827261,17.5474461 C94.0501093,17.5474461 94.2338009,17.3627361 94.6011842,17.3627361 C94.9685674,17.3627361 95.152259,17.1780262 95.5196423,17.1780262 C95.8870255,17.1780262 96.0707171,16.9933162 96.4381004,16.9933162 C96.8054836,16.9933162 96.9891752,16.8086063 97.3565585,16.8086063 L98.2750166,16.6238963 C98.6423998,16.6238963 98.8260914,16.6238963 99.1934747,16.4391863 C99.5608579,16.4391863 99.7445495,16.4391863 100.111933,16.4391863 L101.030391,16.4391863 L101.948849,16.4391863 L102.867307,16.4391863 L117.562637,16.4391863 L117.562637,14.7767967 C117.562637,14.0379569 117.562637,13.483827 117.378945,12.7449872 C117.378945,12.3755673 117.195253,12.1908573 117.195253,11.8214374 C117.195253,11.4520175 117.011562,11.2673075 117.011562,10.8978876 L117.011562,10.8978876 C117.011562,10.7131776 117.011562,10.7131776 116.82787,10.5284677 C116.82787,10.3437577 116.82787,10.3437577 116.644179,10.1590477 C116.644179,9.97433778 116.460487,9.97433778 116.460487,9.78962783 C116.460487,9.60491787 116.276795,9.60491787 116.276795,9.42020791 C116.276795,9.23549795 116.093104,9.23549795 116.093104,9.05078799 C116.093104,9.05078799 115.909412,8.86607803 115.909412,8.68136807 C115.909412,8.49665811 115.72572,8.49665811 115.72572,8.31194815 C115.72572,8.31194815 115.542029,8.12723819 115.358337,7.94252824 C115.174646,7.94252824 115.174646,7.75781828 114.990954,7.75781828 C114.807262,7.75781828 114.807262,7.57310832 114.623571,7.57310832 C114.439879,7.57310832 114.439879,7.38839836 114.256187,7.38839836 C114.072496,7.38839836 113.888804,7.2036884 113.888804,7.2036884 C113.705113,7.2036884 113.521421,7.01897844 113.337729,7.01897844 C113.154038,7.01897844 112.970346,6.83426848 112.786655,6.83426848 C112.602963,6.83426848 112.419271,6.64955852 112.23558,6.64955852 C112.051888,6.64955852 111.868196,6.46484856 111.684505,6.46484856 C111.500813,6.46484856 111.13343,6.2801386 110.949738,6.2801386 C110.766047,6.2801386 110.398663,6.09542865 110.214972,6.09542865 C109.847589,6.09542865 109.663897,6.09542865 109.480205,5.91071869 C109.112822,5.91071869 108.92913,5.91071869 108.561747,5.72600873 C108.194364,5.72600873 108.010672,5.72600873 107.643289,5.72600873 C107.275906,5.72600873 106.908523,5.72600873 106.541139,5.72600873 C106.173756,5.72600873 105.806373,5.72600873 105.43899,5.72600873 C105.071606,5.72600873 104.704223,5.72600873 104.33684,5.72600873 L103.602074,5.72600873 L102.867307,5.72600873 L102.132541,5.72600873 L101.397774,5.72600873 L100.663008,5.72600873 L99.9282411,5.72600873 L99.009783,5.72600873 L98.0913249,5.91071869 L97.1728668,6.09542865 L96.2544087,6.46484856 L95.3359506,6.64955852 L94.4174925,6.83426848 L93.4990344,7.01897844 L92.5805763,7.2036884 L91.6621182,7.38839836 L90.7436601,7.57310832 C90.5599685,7.57310832 90.5599685,7.57310832 90.3762769,7.75781828 C90.1925853,7.75781828 90.0088937,7.75781828 90.0088937,7.75781828 C89.825202,7.75781828 89.6415104,7.75781828 89.6415104,7.75781828 C89.4578188,7.75781828 89.4578188,7.75781828 89.2741272,7.57310832 C89.0904356,7.57310832 88.9067439,7.38839836 88.9067439,7.38839836 C88.7230523,7.38839836 88.5393607,7.2036884 88.5393607,7.2036884 C88.3556691,7.01897844 88.3556691,7.01897844 88.1719775,6.83426848 C87.9882858,6.64955852 87.9882858,6.64955852 87.9882858,6.46484856 C87.9882858,6.2801386 87.8045942,6.2801386 87.8045942,6.09542865 L87.6209026,5.72600873 C87.6209026,5.54129877 87.437211,5.54129877 87.437211,5.35658881 C87.437211,5.17187885 87.437211,4.98716889 87.437211,4.80245893 C87.437211,4.61774897 87.437211,4.43303902 87.437211,4.24832906 C87.437211,4.0636191 87.437211,3.87890914 87.6209026,3.69419918 C87.6209026,3.50948922 87.8045942,3.32477926 87.8045942,3.32477926 C87.8045942,3.1400693 87.9882858,3.1400693 88.1719775,2.95535934 C88.3556691,2.77064938 88.3556691,2.77064938 88.5393607,2.58593943 C88.7230523,2.58593943 88.7230523,2.40122947 88.9067439,2.40122947 C89.0904356,2.40122947 89.2741272,2.21651951 89.2741272,2.21651951 C89.4578188,2.21651951 89.825202,2.03180955 90.0088937,2.03180955 L90.7436601,1.84709959 L91.4784266,1.66238963 L92.3968847,1.47767967 L93.3153428,1.29296971 L94.0501093,0.923549795 L94.9685674,0.738839836 L95.8870255,0.554129877 L96.9891752,0.369419918 L98.0913249,0.184709959 L99.1934747,0 L100.295624,0 L101.397774,0 L102.499924,0 L103.602074,0 L104.704223,0 C105.43899,0 106.173756,0 106.908523,0 C107.643289,0 108.378056,0 108.92913,0.184709959 C109.663897,0.184709959 110.214972,0.369419918 110.949738,0.369419918 C111.500813,0.369419918 112.23558,0.554129877 112.786655,0.738839836 C113.337729,0.923549795 113.888804,0.923549795 114.439879,1.10825975 C114.990954,1.29296971 115.542029,1.47767967 116.093104,1.66238963 C116.644179,1.84709959 117.011562,2.03180955 117.562637,2.21651951 C118.113711,2.40122947 118.481095,2.58593943 118.848478,2.95535934 C119.215861,3.1400693 119.766936,3.50948922 120.134319,3.87890914 C120.501703,4.24832906 120.869086,4.61774897 121.236469,4.80245893 C121.603852,5.17187885 121.971235,5.54129877 122.154927,5.91071869 C122.52231,6.2801386 122.706002,6.64955852 122.889694,7.2036884 C123.073385,7.57310832 123.257077,8.12723819 123.440768,8.49665811 C123.62446,9.05078799 123.808152,9.42020791 123.808152,9.97433778 C123.991843,10.5284677 123.991843,10.8978876 123.991843,11.4520175 C123.991843,12.0061473 123.991843,12.5602772 123.991843,13.1144071 L123.991843,39.3432213 C123.991843,39.5279312 123.991843,39.7126412 123.991843,39.8973511 C123.991843,40.0820611 123.991843,40.2667711 123.808152,40.451481 C123.808152,40.636191 123.62446,40.8209009 123.62446,41.0056109 C123.440768,41.1903209 123.440768,41.3750308 123.257077,41.3750308 C123.073385,41.5597408 123.073385,41.5597408 122.889694,41.7444507 C122.706002,41.7444507 122.706002,41.9291607 122.52231,41.9291607 C122.338619,41.9291607 122.338619,42.1138706 122.154927,42.1138706 C121.971235,42.1138706 121.787544,42.2985806 121.787544,42.2985806 C121.420161,42.4832906 121.052777,42.4832906 120.685394,42.6680005 C120.318011,42.8527105 119.950628,42.8527105 119.583244,43.0374204 C119.215861,43.0374204 118.848478,43.2221304 118.481095,43.2221304 C118.113711,43.2221304 117.746328,43.4068404 117.378945,43.4068404 L116.276795,43.5915503 C115.909412,43.5915503 115.542029,43.7762603 115.174646,43.7762603 C114.807262,43.7762603 114.439879,43.9609702 114.072496,43.9609702 C113.705113,43.9609702 113.337729,44.1456802 112.970346,44.1456802 L111.868196,44.3303902 L110.766047,44.5151001 L109.663897,44.5151001 L108.561747,44.5151001 L107.459598,44.5151001 L106.357448,44.5151001 L105.255298,44.5151001 L103.602074,44.88452 Z M176.711338,2.40122947 C176.711338,2.21651951 176.89503,2.21651951 176.89503,2.03180955 C176.89503,1.84709959 177.078721,1.84709959 177.078721,1.66238963 C177.262413,1.47767967 177.262413,1.47767967 177.446105,1.29296971 C177.629796,1.29296971 177.629796,1.10825975 177.813488,1.10825975 C177.99718,1.10825975 177.99718,0.923549795 178.180871,0.923549795 C178.364563,0.923549795 178.364563,0.923549795 178.548254,0.738839836 C178.731946,0.738839836 178.731946,0.738839836 178.915638,0.738839836 C179.099329,0.738839836 179.099329,0.738839836 179.283021,0.738839836 L180.752554,0.738839836 C181.119937,0.738839836 181.48732,0.738839836 181.671012,0.923549795 C182.038395,1.10825975 182.222087,1.10825975 182.405778,1.29296971 C182.58947,1.47767967 182.773162,1.66238963 182.956853,2.03180955 C183.140545,2.21651951 183.140545,2.58593943 183.140545,2.95535934 L183.140545,3.50948922 C183.140545,3.50948922 183.140545,3.69419918 183.140545,3.69419918 L164.771383,41.7444507 L164.771383,41.7444507 L164.771383,41.7444507 C164.771383,41.9291607 164.587691,41.9291607 164.587691,42.1138706 C164.587691,42.2985806 164.404,42.2985806 164.404,42.4832906 C164.404,42.6680005 164.220308,42.6680005 164.220308,42.8527105 C164.036616,43.0374204 164.036616,43.0374204 163.852925,43.2221304 C163.669233,43.2221304 163.669233,43.4068404 163.485542,43.4068404 C163.30185,43.4068404 163.30185,43.5915503 163.118158,43.5915503 C162.934467,43.5915503 162.934467,43.7762603 162.750775,43.7762603 C162.567083,43.7762603 162.567083,43.7762603 162.383392,43.7762603 C162.1997,43.7762603 162.1997,43.7762603 162.016009,43.7762603 L161.648625,43.7762603 L161.281242,43.7762603 L160.179092,43.7762603 C159.995401,43.7762603 159.995401,43.7762603 159.811709,43.7762603 C159.628018,43.7762603 159.628018,43.7762603 159.444326,43.7762603 C159.260634,43.7762603 159.260634,43.7762603 159.076943,43.7762603 C158.893251,43.7762603 158.893251,43.7762603 158.709559,43.7762603 L158.709559,43.7762603 C158.525868,43.7762603 158.525868,43.7762603 158.342176,43.5915503 C158.158485,43.5915503 158.158485,43.4068404 157.974793,43.4068404 C157.791101,43.4068404 157.791101,43.2221304 157.60741,43.2221304 C157.423718,43.2221304 157.423718,43.0374204 157.240026,42.8527105 L157.056335,42.6680005 L156.872643,42.4832906 L156.688952,42.2985806 C156.50526,41.9291607 156.321568,41.5597408 156.137877,41.3750308 C153.933577,37.6808316 151.91297,33.4325026 149.70867,29.1841735 C147.688062,24.9358445 145.483763,20.3180955 143.463155,15.8850565 C142.544697,13.668537 141.442547,11.6367274 140.524089,9.60491787 C139.605631,7.57310832 138.687173,5.72600873 137.768715,3.69419918 C137.768715,3.69419918 137.768715,3.50948922 137.768715,3.50948922 L137.768715,2.95535934 C137.768715,2.58593943 137.768715,2.21651951 137.952406,2.03180955 C138.136098,1.66238963 138.136098,1.47767967 138.503481,1.29296971 C138.687173,1.10825975 139.054556,0.923549795 139.238248,0.923549795 C139.605631,0.923549795 139.789323,0.738839836 140.156706,0.738839836 L141.626239,0.738839836 C141.993622,0.738839836 142.177314,0.738839836 142.361005,0.923549795 C142.544697,0.923549795 142.91208,1.10825975 143.095772,1.29296971 C143.279463,1.47767967 143.463155,1.66238963 143.646847,1.84709959 C143.830538,2.03180955 144.01423,2.21651951 144.01423,2.58593943 L148.422829,11.4520175 C152.464044,19.5792557 156.321568,27.7064938 160.179092,35.833732 C162.016009,31.7701129 164.036616,27.8912038 165.873533,23.8275847 C167.89414,19.5792557 169.914748,15.3309266 171.935356,11.0825975 L176.711338,2.40122947 Z M215.837653,5.72600873 C214.551812,5.72600873 213.265971,5.72600873 211.980129,5.91071869 C211.429054,5.91071869 210.877979,6.09542865 210.326905,6.2801386 C209.77583,6.46484856 209.224755,6.46484856 208.67368,6.64955852 C208.122605,6.83426848 207.755222,7.01897844 207.204147,7.2036884 C206.836764,7.38839836 206.285689,7.57310832 205.918306,7.94252824 C205.550922,8.12723819 205.183539,8.49665811 204.816156,8.68136807 C204.448773,9.05078799 204.08139,9.23549795 203.714006,9.60491787 C203.346623,9.97433778 202.97924,10.3437577 202.795548,10.7131776 C202.428165,11.0825975 202.244473,11.4520175 201.87709,11.8214374 C201.693398,12.1908573 201.326015,12.5602772 201.142324,13.1144071 C200.958632,13.483827 200.77494,14.0379569 200.591249,14.4073768 C200.407557,14.7767967 200.223866,15.1462166 200.223866,15.5156366 C200.040174,15.8850565 200.040174,16.2544764 199.856482,16.8086063 C199.672791,17.1780262 199.672791,17.5474461 199.489099,18.101576 C199.489099,18.4709959 199.305407,18.6557059 199.305407,19.0251258 L232.737282,19.0251258 L232.737282,18.4709959 L232.737282,18.101576 C232.737282,17.916866 232.737282,17.5474461 232.553591,17.3627361 C232.553591,17.1780262 232.553591,16.8086063 232.369899,16.6238963 C232.369899,16.4391863 232.186207,16.0697664 232.186207,15.8850565 C232.186207,15.7003465 232.002516,15.3309266 232.002516,15.1462166 L231.818824,14.7767967 L231.635132,14.4073768 C231.635132,14.2226668 231.451441,14.0379569 231.451441,13.8532469 C231.451441,13.668537 231.267749,13.483827 231.084058,13.299117 C230.900366,13.1144071 230.900366,12.9296971 230.716674,12.7449872 C230.532983,12.5602772 230.532983,12.3755673 230.349291,12.1908573 C230.1656,12.0061473 230.1656,11.8214374 229.981908,11.6367274 C229.798216,11.4520175 229.798216,11.2673075 229.614525,11.0825975 C229.430833,10.8978876 229.247141,10.7131776 229.247141,10.5284677 C229.06345,10.3437577 228.879758,10.1590477 228.696067,9.97433778 C228.512375,9.78962783 228.328683,9.60491787 228.144992,9.42020791 C227.9613,9.23549795 227.777608,9.05078799 227.593917,9.05078799 C227.410225,8.86607803 227.226534,8.68136807 227.042842,8.68136807 C226.85915,8.49665811 226.675459,8.31194815 226.308076,8.31194815 C226.124384,8.12723819 225.757001,8.12723819 225.573309,7.94252824 C225.389617,7.75781828 225.022234,7.75781828 224.838543,7.57310832 C224.654851,7.38839836 224.287468,7.38839836 224.103776,7.2036884 C223.920084,7.01897844 223.552701,7.01897844 223.185318,6.83426848 C222.817935,6.83426848 222.634243,6.64955852 222.26686,6.64955852 C221.899477,6.64955852 221.532093,6.46484856 221.348402,6.46484856 C220.981019,6.46484856 220.613635,6.2801386 220.429944,6.2801386 C220.06256,6.2801386 219.695177,6.09542865 219.327794,6.09542865 C218.960411,6.09542865 218.593027,6.09542865 218.225644,5.91071869 C217.858261,5.91071869 217.490878,5.91071869 216.939803,5.91071869 C216.756111,5.91071869 216.205036,5.72600873 215.837653,5.72600873 Z M199.305407,24.7511345 L199.305407,25.8593943 L199.305407,26.5982341 L199.489099,27.3370739 C199.489099,27.7064938 199.672791,27.8912038 199.672791,28.2606237 C199.672791,28.6300436 199.856482,28.8147536 199.856482,29.1841735 C199.856482,29.5535934 200.040174,29.7383034 200.040174,30.1077233 C200.040174,30.4771432 200.223866,30.6618532 200.407557,31.0312731 C200.591249,31.400693 200.591249,31.585403 200.77494,31.7701129 C200.958632,31.9548229 200.958632,32.3242428 201.142324,32.5089528 C201.326015,32.6936627 201.326015,33.0630827 201.509707,33.2477926 C201.693398,33.4325026 201.87709,33.6172125 201.87709,33.9866325 C202.060782,34.1713424 202.244473,34.3560524 202.244473,34.5407623 C202.428165,34.7254723 202.611857,34.9101822 202.795548,35.0948922 C202.97924,35.2796022 203.162931,35.4643121 203.346623,35.6490221 C203.530315,35.833732 203.714006,36.018442 203.897698,36.203152 C204.08139,36.3878619 204.265081,36.5725719 204.448773,36.7572818 C204.632464,36.9419918 204.816156,37.1267018 204.999848,37.1267018 C205.183539,37.3114117 205.367231,37.4961217 205.550922,37.4961217 C205.734614,37.6808316 205.918306,37.6808316 206.285689,37.8655416 C206.469381,38.0502515 206.653072,38.0502515 207.020455,38.2349615 C207.204147,38.4196715 207.387839,38.4196715 207.755222,38.6043814 C207.938914,38.7890914 208.306297,38.7890914 208.489988,38.7890914 C208.67368,38.7890914 209.041063,38.9738013 209.224755,38.9738013 C209.592138,38.9738013 209.77583,39.1585113 210.143213,39.1585113 C210.510596,39.1585113 210.694288,39.3432213 211.061671,39.3432213 C211.429054,39.3432213 211.612746,39.5279312 211.980129,39.5279312 C212.347512,39.5279312 212.531204,39.7126412 212.898587,39.7126412 C213.265971,39.7126412 213.449662,39.7126412 213.817045,39.8973511 C214.184429,39.8973511 214.36812,39.8973511 214.735503,39.8973511 C215.102887,39.8973511 215.47027,39.8973511 215.653962,39.8973511 C216.021345,39.8973511 216.205036,39.8973511 216.57242,39.8973511 L217.307186,39.8973511 L218.041953,39.8973511 L218.776719,39.8973511 L219.511486,39.8973511 C220.797327,39.7126412 221.899477,39.7126412 223.001626,39.5279312 C224.103776,39.3432213 225.022234,39.1585113 226.124384,38.7890914 C227.042842,38.4196715 227.9613,38.0502515 228.879758,37.4961217 C229.798216,36.9419918 230.716674,36.3878619 231.818824,35.6490221 L231.818824,35.6490221 C232.002516,35.4643121 232.186207,35.2796022 232.369899,35.2796022 C232.553591,35.2796022 232.553591,35.0948922 232.737282,35.0948922 C232.920974,35.0948922 232.920974,35.0948922 233.104665,35.0948922 C233.288357,35.0948922 233.288357,35.0948922 233.472049,35.0948922 C233.65574,35.0948922 233.65574,35.0948922 233.839432,35.0948922 C233.839432,35.0948922 234.023124,35.0948922 234.023124,35.0948922 C234.023124,35.0948922 234.206815,35.0948922 234.206815,35.0948922 C234.206815,35.0948922 234.390507,35.0948922 234.390507,35.2796022 C234.390507,35.2796022 234.574198,35.2796022 234.574198,35.4643121 C234.75789,35.4643121 234.75789,35.6490221 234.941582,35.6490221 L235.492656,36.018442 L235.676348,36.203152 C235.676348,36.203152 235.86004,36.3878619 235.86004,36.3878619 C235.86004,36.3878619 236.043731,36.5725719 236.043731,36.5725719 C236.043731,36.5725719 236.227423,36.7572818 236.227423,36.7572818 C236.411115,36.9419918 236.411115,37.1267018 236.594806,37.3114117 C236.594806,37.4961217 236.778498,37.6808316 236.778498,38.0502515 C236.778498,38.2349615 236.778498,38.4196715 236.594806,38.7890914 C236.594806,38.9738013 236.411115,39.1585113 236.227423,39.3432213 L236.227423,39.5279312 C236.043731,39.7126412 236.043731,39.7126412 235.86004,39.8973511 C234.75789,41.0056109 233.472049,41.7444507 232.186207,42.4832906 C230.900366,43.2221304 229.798216,43.7762603 228.512375,44.3303902 C227.226534,44.88452 225.940692,45.06923 224.471159,45.4386499 C223.001626,45.6233599 221.532093,45.8080698 219.878869,45.9927798 L218.960411,45.9927798 L218.041953,45.9927798 L217.123495,45.9927798 L216.205036,45.9927798 C215.837653,45.9927798 215.286578,45.9927798 214.919195,45.9927798 C214.551812,45.9927798 214.000737,45.9927798 213.633354,45.9927798 C213.265971,45.9927798 212.898587,45.9927798 212.347512,45.8080698 C211.980129,45.8080698 211.612746,45.8080698 211.061671,45.6233599 C210.694288,45.6233599 210.326905,45.4386499 209.959521,45.4386499 C209.592138,45.4386499 209.224755,45.2539399 208.857372,45.2539399 C208.489988,45.2539399 208.122605,45.06923 207.755222,45.06923 C207.387839,44.88452 207.020455,44.88452 206.653072,44.6998101 C206.285689,44.5151001 205.918306,44.5151001 205.550922,44.3303902 C205.183539,44.1456802 204.816156,44.1456802 204.448773,43.9609702 C204.08139,43.7762603 203.714006,43.5915503 203.346623,43.5915503 C202.97924,43.4068404 202.611857,43.2221304 202.428165,43.0374204 C202.060782,42.8527105 201.87709,42.6680005 201.509707,42.4832906 C201.142324,42.2985806 200.958632,42.1138706 200.591249,41.9291607 C200.223866,41.7444507 200.040174,41.5597408 199.672791,41.3750308 C199.305407,41.1903209 199.121716,41.0056109 198.938024,40.636191 C198.754333,40.451481 198.386949,40.0820611 198.203258,39.8973511 C198.019566,39.7126412 197.652183,39.3432213 197.468491,39.1585113 C197.2848,38.9738013 196.917416,38.6043814 196.733725,38.2349615 C196.550033,37.8655416 196.366341,37.6808316 196.18265,37.3114117 C195.998958,36.9419918 195.815267,36.7572818 195.631575,36.3878619 C195.447883,36.018442 195.264192,35.833732 195.0805,35.4643121 C194.896809,35.0948922 194.713117,34.7254723 194.529425,34.3560524 C194.345734,33.9866325 194.162042,33.6172125 194.162042,33.2477926 C193.97835,32.8783727 193.794659,32.5089528 193.794659,32.1395329 C193.610967,31.7701129 193.610967,31.400693 193.427276,31.0312731 C193.243584,30.6618532 193.243584,30.2924333 193.059892,29.7383034 C193.059892,29.3688835 192.876201,28.9994636 192.876201,28.4453337 C192.876201,28.0759138 192.692509,27.5217839 192.692509,27.152364 C192.692509,26.7829441 192.508817,26.2288142 192.508817,25.8593943 C192.508817,25.4899743 192.508817,24.9358445 192.508817,24.5664245 C192.508817,24.0122947 192.508817,23.6428747 192.508817,23.0887449 C192.508817,22.1651951 192.508817,21.2416453 192.692509,20.3180955 C192.692509,19.3945457 192.876201,18.6557059 193.059892,17.7321561 C193.243584,16.9933162 193.427276,16.0697664 193.610967,15.3309266 C193.794659,14.5920868 193.97835,13.8532469 194.345734,13.1144071 C194.529425,12.3755673 194.896809,11.6367274 195.264192,11.0825975 C195.631575,10.3437577 195.998958,9.78962783 196.366341,9.23549795 C196.733725,8.68136807 197.2848,8.12723819 197.652183,7.57310832 C198.019566,7.01897844 198.570641,6.64955852 198.938024,6.09542865 L198.938024,6.09542865 L199.121716,5.91071869 C199.672791,5.35658881 200.223866,4.98716889 200.77494,4.61774897 C201.326015,4.24832906 201.87709,3.87890914 202.611857,3.50948922 C203.162931,3.1400693 203.897698,2.77064938 204.632464,2.58593943 C205.367231,2.21651951 205.918306,2.03180955 206.653072,1.84709959 C207.387839,1.66238963 208.122605,1.47767967 208.857372,1.29296971 C209.592138,1.10825975 210.326905,0.923549795 211.245363,0.923549795 C211.980129,0.738839836 212.898587,0.738839836 213.633354,0.738839836 C214.551812,0.738839836 215.286578,0.738839836 216.205036,0.738839836 C218.225644,0.738839836 220.06256,0.923549795 221.899477,1.10825975 C223.552701,1.29296971 225.205926,1.66238963 226.675459,2.21651951 L226.675459,2.21651951 C227.042842,2.40122947 227.410225,2.40122947 227.777608,2.58593943 C228.144992,2.77064938 228.512375,2.95535934 228.879758,2.95535934 C229.247141,3.1400693 229.614525,3.32477926 229.798216,3.50948922 C230.1656,3.69419918 230.349291,3.87890914 230.716674,4.0636191 C231.267749,4.43303902 231.818824,4.80245893 232.369899,5.17187885 C232.553591,5.35658881 232.920974,5.54129877 233.104665,5.72600873 C233.288357,5.91071869 233.65574,6.09542865 233.839432,6.46484856 L233.839432,6.46484856 C234.023124,6.64955852 234.390507,7.01897844 234.574198,7.2036884 C234.75789,7.38839836 234.941582,7.75781828 235.308965,7.94252824 C235.492656,8.12723819 235.676348,8.49665811 235.86004,8.68136807 C236.043731,8.86607803 236.227423,9.23549795 236.411115,9.42020791 L236.411115,9.42020791 C236.594806,9.60491787 236.778498,9.97433778 236.962189,10.1590477 C237.145881,10.5284677 237.329573,10.7131776 237.329573,11.0825975 C237.513264,11.4520175 237.696956,11.6367274 237.696956,12.0061473 C237.880648,12.3755673 237.880648,12.5602772 238.064339,12.9296971 C238.248031,13.1144071 238.248031,13.483827 238.431722,13.8532469 C238.615414,14.2226668 238.615414,14.4073768 238.615414,14.7767967 C238.615414,15.1462166 238.799106,15.3309266 238.799106,15.7003465 C238.799106,16.0697664 238.982797,16.2544764 238.982797,16.6238963 C238.982797,16.9933162 239.166489,17.3627361 239.166489,17.5474461 C239.166489,17.916866 239.166489,18.101576 239.350181,18.4709959 C239.350181,18.8404158 239.350181,19.2098357 239.350181,19.3945457 C239.350181,19.7639656 239.350181,19.9486756 239.350181,20.3180955 L239.350181,20.3180955 C239.350181,20.5028054 239.350181,20.6875154 239.350181,20.8722254 C239.350181,21.0569353 239.350181,21.2416453 239.350181,21.4263552 C239.350181,21.6110652 239.350181,21.7957752 239.166489,21.9804851 C239.166489,22.1651951 239.166489,22.349905 238.982797,22.349905 C238.982797,22.534615 238.799106,22.719325 238.799106,22.9040349 C238.799106,23.0887449 238.615414,23.2734548 238.431722,23.4581648 C238.248031,23.6428747 238.248031,23.8275847 238.064339,23.8275847 C237.880648,24.0122947 237.880648,24.0122947 237.696956,24.1970046 C237.513264,24.1970046 237.513264,24.3817146 237.329573,24.3817146 C237.145881,24.3817146 237.145881,24.5664245 236.962189,24.5664245 C236.778498,24.5664245 236.594806,24.7511345 236.594806,24.7511345 C236.411115,24.7511345 236.227423,24.9358445 236.043731,24.9358445 C235.86004,24.9358445 235.676348,24.9358445 235.676348,24.9358445 C235.492656,24.9358445 235.308965,24.9358445 235.125273,24.9358445 C234.941582,24.9358445 234.75789,24.9358445 234.574198,24.9358445 C234.390507,24.9358445 234.206815,24.9358445 234.023124,24.9358445 L199.305407,24.9358445 L199.305407,24.7511345 Z M32.8807999,12.3755673 L31.2275754,15.7003465 L20.0223866,41.3750308 C20.0223866,41.5597408 19.8386949,41.7444507 19.8386949,41.9291607 C19.8386949,42.1138706 19.6550033,42.2985806 19.6550033,42.2985806 C19.6550033,42.4832906 19.4713117,42.4832906 19.4713117,42.6680005 C19.4713117,42.8527105 19.2876201,42.8527105 19.2876201,43.0374204 C19.1039285,43.2221304 19.1039285,43.2221304 18.9202368,43.4068404 C18.7365452,43.4068404 18.7365452,43.4068404 18.5528536,43.5915503 C18.369162,43.5915503 18.369162,43.7762603 18.1854704,43.7762603 C18.0017787,43.7762603 18.0017787,43.9609702 17.8180871,43.9609702 C17.8180871,43.9609702 17.6343955,43.9609702 17.4507039,43.9609702 C17.2670123,43.9609702 17.2670123,43.9609702 17.0833206,43.9609702 C16.899629,43.9609702 16.899629,43.9609702 16.7159374,43.9609702 L16.3485542,43.9609702 L15.4300961,43.9609702 L15.0627128,43.9609702 L14.6953296,43.9609702 C14.511638,43.9609702 14.511638,43.9609702 14.3279463,43.9609702 C14.1442547,43.9609702 14.1442547,43.9609702 13.9605631,43.9609702 C13.7768715,43.9609702 13.7768715,43.9609702 13.5931799,43.7762603 C13.4094882,43.7762603 13.4094882,43.5915503 13.2257966,43.5915503 C13.4094882,43.4068404 13.4094882,43.4068404 13.2257966,43.4068404 C13.042105,43.4068404 13.042105,43.2221304 12.8584134,43.2221304 C12.8584134,43.2221304 12.6747218,43.0374204 12.6747218,43.0374204 C12.6747218,43.0374204 12.4910301,42.8527105 12.4910301,42.8527105 C12.4910301,42.8527105 12.3073385,42.6680005 12.3073385,42.4832906 C12.3073385,42.2985806 12.1236469,42.2985806 12.1236469,42.1138706 L11.9399553,41.9291607 L11.9399553,41.7444507 L11.9399553,41.5597408 L11.9399553,41.3750308 C9.55196423,33.9866325 0.734766479,9.42020791 0,3.87890914 L0,3.50948922 C0,3.32477926 0,3.1400693 0,2.95535934 C0,2.77064938 0.18369162,2.58593943 0.18369162,2.40122947 C0.367383239,2.21651951 0.367383239,2.03180955 0.551074859,2.03180955 C0.734766479,1.84709959 0.918458099,1.84709959 1.10214972,1.66238963 C1.10214972,1.66238963 1.28584134,1.66238963 1.28584134,1.47767967 C1.46953296,1.47767967 1.46953296,1.47767967 1.65322458,1.47767967 C1.8369162,1.47767967 1.8369162,1.47767967 2.02060782,1.47767967 C2.20429944,1.47767967 2.20429944,1.47767967 2.38799106,1.47767967 L3.85752401,1.47767967 C4.22490725,1.47767967 4.40859887,1.47767967 4.77598211,1.66238963 C4.95967373,1.66238963 5.32705697,1.84709959 5.51074859,2.03180955 C5.69444021,2.21651951 5.87813183,2.40122947 6.06182345,2.58593943 C6.24551507,2.77064938 6.42920669,2.95535934 6.42920669,3.32477926 L15.6137877,33.2477926 L16.3485542,35.4643121 C18.7365452,30.1077233 20.9408446,24.7511345 23.3288357,19.2098357 L23.6962189,18.4709959 C25.5331351,14.2226668 27.3700513,9.97433778 29.2069675,6.09542865 L29.3906592,5.72600873 L29.5743508,5.54129877 C29.5743508,5.35658881 29.7580424,5.17187885 29.7580424,5.17187885 C29.941734,4.98716889 29.941734,4.98716889 30.1254256,4.80245893 C30.3091173,4.61774897 30.3091173,4.61774897 30.4928089,4.43303902 C30.6765005,4.43303902 30.8601921,4.24832906 30.8601921,4.24832906 C31.0438837,4.24832906 31.0438837,4.24832906 31.2275754,4.0636191 C31.411267,4.0636191 31.411267,4.0636191 31.5949586,4.0636191 C31.7786502,4.0636191 31.7786502,4.0636191 31.9623418,4.0636191 C32.1460335,4.0636191 32.1460335,4.0636191 32.3297251,4.0636191 L33.4318748,4.0636191 C33.6155664,4.0636191 33.6155664,4.0636191 33.799258,4.0636191 C33.9829496,4.0636191 33.9829496,4.0636191 34.1666413,4.0636191 C34.3503329,4.0636191 34.3503329,4.0636191 34.5340245,4.0636191 C34.7177161,4.0636191 34.7177161,4.0636191 34.9014077,4.24832906 C35.0850994,4.24832906 35.268791,4.43303902 35.268791,4.43303902 C35.4524826,4.43303902 35.4524826,4.61774897 35.6361742,4.80245893 C35.8198658,4.98716889 35.8198658,4.98716889 36.0035575,5.17187885 C36.1872491,5.35658881 36.1872491,5.35658881 36.1872491,5.54129877 L36.3709407,5.72600873 C36.5546323,6.09542865 36.7383239,6.2801386 36.9220156,6.64955852 C39.126315,11.6367274 41.3306144,16.6238963 43.3512223,21.2416453 C44.453372,23.6428747 45.5555217,26.0441042 46.6576714,28.6300436 C47.5761295,30.8465631 48.4945876,32.8783727 49.4130457,35.2796022 L50.5151954,32.1395329 L59.5160848,3.32477926 C59.5160848,3.1400693 59.6997764,2.95535934 59.6997764,2.95535934 C59.6997764,2.77064938 59.883468,2.77064938 59.883468,2.58593943 C60.0671597,2.40122947 60.0671597,2.40122947 60.2508513,2.21651951 C60.4345429,2.03180955 60.4345429,2.03180955 60.6182345,2.03180955 C60.8019261,2.03180955 60.8019261,1.84709959 60.9856177,1.84709959 C61.1693094,1.84709959 61.1693094,1.84709959 61.353001,1.66238963 C61.5366926,1.66238963 61.5366926,1.66238963 61.7203842,1.66238963 C61.9040758,1.66238963 61.9040758,1.66238963 62.0877675,1.66238963 L63.5573004,1.66238963 C63.9246837,1.66238963 64.2920669,1.66238963 64.4757585,1.84709959 C64.8431418,2.03180955 65.0268334,2.03180955 65.210525,2.21651951 C65.3942166,2.40122947 65.5779082,2.58593943 65.7615999,2.95535934 C65.9452915,3.1400693 65.9452915,3.50948922 65.9452915,3.87890914 L65.9452915,4.24832906 C65.210525,8.31194815 56.025944,34.1713424 53.8216446,41.0056109 C53.8216446,41.1903209 53.637953,41.3750308 53.637953,41.7444507 C53.637953,41.9291607 53.4542613,42.1138706 53.2705697,42.2985806 C53.0868781,42.4832906 53.0868781,42.6680005 52.9031865,42.8527105 C52.7194949,43.0374204 52.5358032,43.2221304 52.3521116,43.2221304 L52.3521116,43.2221304 C52.16842,43.4068404 51.9847284,43.4068404 51.8010368,43.5915503 C51.6173451,43.7762603 51.4336535,43.7762603 51.2499619,43.7762603 C51.0662703,43.7762603 50.8825787,43.9609702 50.5151954,43.9609702 C50.3315038,43.9609702 50.1478122,43.9609702 49.7804289,43.9609702 L49.0456625,43.9609702 L48.6782792,43.9609702 L48.310896,43.9609702 C48.1272044,43.9609702 48.1272044,43.9609702 47.9435127,43.9609702 C47.7598211,43.9609702 47.7598211,43.9609702 47.5761295,43.9609702 C47.3924379,43.9609702 47.3924379,43.9609702 47.2087463,43.7762603 C47.0250547,43.7762603 47.0250547,43.5915503 46.841363,43.5915503 C46.6576714,43.5915503 46.6576714,43.4068404 46.4739798,43.4068404 C46.2902882,43.4068404 46.2902882,43.2221304 46.1065966,43.2221304 C45.9229049,43.0374204 45.9229049,43.0374204 45.7392133,42.8527105 C45.5555217,42.6680005 45.5555217,42.6680005 45.3718301,42.4832906 C45.1881385,42.2985806 45.1881385,42.1138706 45.0044468,41.9291607 C45.0044468,41.7444507 44.8207552,41.5597408 44.8207552,41.3750308 C43.1675306,38.0502515 41.5143061,34.5407623 40.0447731,31.0312731 C38.5752401,27.5217839 36.9220156,23.8275847 35.4524826,20.3180955 L35.4524826,20.3180955 C35.0850994,17.5474461 33.9829496,14.9615067 32.8807999,12.3755673 Z" id="Shape" stroke="#fff" stroke-width="0.4069"></path>
                <path d="M102.499924,21.9804851 L102.132541,21.9804851 L101.765157,21.9804851 L101.214082,21.9804851 L100.111933,21.9804851 L99.5608579,21.9804851 L98.2750166,22.1651951 C98.0913249,22.1651951 97.9076333,22.1651951 97.7239417,22.349905 C97.5402501,22.349905 97.3565585,22.349905 97.1728668,22.534615 C96.9891752,22.534615 96.8054836,22.534615 96.621792,22.719325 C96.4381004,22.719325 96.2544087,22.9040349 95.8870255,22.9040349 C95.7033339,22.9040349 95.5196423,23.0887449 95.3359506,23.0887449 L94.7848758,23.2734548 C94.6011842,23.2734548 94.4174925,23.4581648 94.2338009,23.4581648 C94.0501093,23.4581648 93.8664177,23.6428747 93.6827261,23.6428747 C93.4990344,23.6428747 93.3153428,23.8275847 93.1316512,23.8275847 C92.9479596,23.8275847 92.764268,24.0122947 92.5805763,24.1970046 C92.3968847,24.3817146 92.2131931,24.3817146 92.0295015,24.5664245 C91.8458099,24.7511345 91.6621182,24.7511345 91.4784266,24.9358445 C91.294735,25.1205544 91.1110434,25.1205544 90.9273518,25.3052644 C90.7436601,25.4899743 90.5599685,25.4899743 90.3762769,25.6746843 C90.1925853,25.8593943 90.0088937,26.0441042 90.0088937,26.0441042 C89.825202,26.2288142 89.6415104,26.4135241 89.6415104,26.4135241 C89.4578188,26.5982341 89.4578188,26.7829441 89.2741272,26.7829441 C89.0904356,26.967654 89.0904356,27.152364 88.9067439,27.152364 C88.9067439,27.3370739 88.7230523,27.5217839 88.7230523,27.7064938 C88.7230523,27.8912038 88.5393607,28.0759138 88.5393607,28.2606237 C88.5393607,28.4453337 88.3556691,28.6300436 88.3556691,28.8147536 C88.3556691,28.9994636 88.3556691,29.1841735 88.1719775,29.5535934 C88.1719775,29.7383034 88.1719775,30.1077233 88.1719775,30.2924333 C88.1719775,30.4771432 88.1719775,30.8465631 88.1719775,31.0312731 C88.1719775,31.2159831 88.1719775,31.400693 88.1719775,31.585403 C88.1719775,31.7701129 88.1719775,31.9548229 88.1719775,32.1395329 C88.1719775,32.3242428 88.1719775,32.5089528 88.3556691,32.6936627 C88.3556691,32.8783727 88.3556691,33.0630827 88.5393607,33.2477926 C88.5393607,33.4325026 88.7230523,33.6172125 88.7230523,33.6172125 C88.7230523,33.8019225 88.9067439,33.8019225 88.9067439,33.9866325 C88.9067439,34.1713424 89.0904356,34.1713424 89.0904356,34.3560524 C89.0904356,34.5407623 89.2741272,34.5407623 89.2741272,34.7254723 C89.4578188,34.9101822 89.4578188,34.9101822 89.6415104,35.0948922 C89.825202,35.2796022 89.825202,35.2796022 90.0088937,35.4643121 C90.1925853,35.6490221 90.1925853,35.6490221 90.3762769,35.833732 C90.5599685,36.018442 90.7436601,36.018442 90.7436601,36.203152 C90.9273518,36.3878619 91.1110434,36.3878619 91.294735,36.5725719 C91.4784266,36.7572818 91.6621182,36.7572818 91.8458099,36.9419918 C92.0295015,37.1267018 92.2131931,37.1267018 92.3968847,37.1267018 C92.5805763,37.1267018 92.764268,37.3114117 92.9479596,37.3114117 C93.1316512,37.3114117 93.3153428,37.4961217 93.4990344,37.4961217 C93.6827261,37.4961217 93.8664177,37.6808316 94.0501093,37.6808316 L94.6011842,37.8655416 C94.7848758,37.8655416 94.9685674,38.0502515 95.3359506,38.0502515 C95.5196423,38.0502515 95.7033339,38.2349615 96.0707171,38.2349615 C96.2544087,38.2349615 96.4381004,38.4196715 96.8054836,38.4196715 C96.9891752,38.4196715 97.3565585,38.4196715 97.5402501,38.6043814 C97.7239417,38.6043814 98.0913249,38.6043814 98.2750166,38.7890914 L99.009783,38.7890914 L99.7445495,38.7890914 L100.479316,38.7890914 L101.214082,38.7890914 L101.948849,38.7890914 L102.683615,38.7890914 L103.418382,38.7890914 L104.153148,38.7890914 L104.704223,38.7890914 L105.255298,38.7890914 L106.908523,38.7890914 L107.826981,38.7890914 L110.03128,38.6043814 L112.23558,38.4196715 L113.337729,38.2349615 L114.439879,38.0502515 L115.542029,37.8655416 L116.093104,37.6808316 L117.195253,37.4961217 L117.746328,37.3114117 L118.113711,37.1267018 L118.113711,21.6110652 L102.499924,21.6110652 L102.499924,21.9804851 Z M103.602074,44.88452 C102.499924,44.88452 101.581466,44.88452 100.663008,44.88452 C99.7445495,44.88452 98.8260914,44.6998101 97.9076333,44.6998101 C96.9891752,44.5151001 96.2544087,44.5151001 95.5196423,44.3303902 C94.7848758,44.1456802 94.0501093,43.9609702 93.3153428,43.7762603 C92.764268,43.5915503 92.5805763,43.4068404 92.2131931,43.4068404 C91.8458099,43.2221304 91.4784266,43.2221304 91.294735,43.0374204 C90.9273518,42.8527105 90.7436601,42.8527105 90.3762769,42.6680005 C90.0088937,42.4832906 89.825202,42.4832906 89.4578188,42.2985806 C89.0904356,42.1138706 88.9067439,42.1138706 88.5393607,41.9291607 C88.3556691,41.7444507 87.9882858,41.7444507 87.8045942,41.5597408 C87.6209026,41.3750308 87.2535194,41.1903209 87.0698278,41.1903209 C86.8861361,41.0056109 86.5187529,40.8209009 86.3350613,40.636191 C86.1513697,40.451481 85.967678,40.2667711 85.6002948,40.0820611 C85.4166032,39.8973511 85.2329116,39.7126412 85.0492199,39.5279312 C84.8655283,39.3432213 84.6818367,39.1585113 84.4981451,38.9738013 C84.3144535,38.7890914 84.1307618,38.6043814 83.9470702,38.4196715 C83.7633786,38.2349615 83.579687,38.0502515 83.3959954,37.8655416 C83.2123037,37.6808316 83.0286121,37.4961217 83.0286121,37.3114117 C82.8449205,37.1267018 82.8449205,36.9419918 82.6612289,36.7572818 C82.4775373,36.5725719 82.4775373,36.3878619 82.2938456,36.203152 C82.110154,35.833732 81.9264624,35.4643121 81.9264624,34.9101822 C81.7427708,34.5407623 81.7427708,33.9866325 81.5590792,33.6172125 C81.5590792,33.2477926 81.3753875,32.8783727 81.3753875,32.3242428 C81.3753875,31.9548229 81.3753875,31.400693 81.3753875,31.0312731 C81.3753875,30.6618532 81.3753875,30.2924333 81.3753875,30.1077233 C81.3753875,29.7383034 81.3753875,29.3688835 81.5590792,29.1841735 C81.5590792,28.8147536 81.7427708,28.6300436 81.7427708,28.2606237 C81.7427708,27.8912038 81.9264624,27.7064938 81.9264624,27.3370739 C81.9264624,26.967654 82.110154,26.7829441 82.2938456,26.4135241 C82.4775373,26.0441042 82.4775373,25.8593943 82.6612289,25.4899743 C82.8449205,25.1205544 83.0286121,24.9358445 83.0286121,24.7511345 C83.2123037,24.5664245 83.3959954,24.1970046 83.579687,24.0122947 C83.7633786,23.8275847 83.9470702,23.6428747 84.1307618,23.2734548 C84.3144535,23.0887449 84.4981451,22.9040349 84.6818367,22.534615 C84.8655283,22.349905 85.0492199,22.1651951 85.2329116,21.9804851 C85.4166032,21.7957752 85.6002948,21.6110652 85.7839864,21.4263552 C85.967678,21.2416453 86.1513697,21.0569353 86.5187529,20.8722254 C86.7024445,20.6875154 86.8861361,20.5028054 87.2535194,20.3180955 C87.437211,20.1333855 87.8045942,19.9486756 87.9882858,19.7639656 C88.1719775,19.5792557 88.5393607,19.3945457 88.7230523,19.3945457 C88.9067439,19.2098357 89.2741272,19.0251258 89.4578188,19.0251258 C89.6415104,18.8404158 90.0088937,18.8404158 90.1925853,18.6557059 C90.3762769,18.4709959 90.7436601,18.4709959 90.9273518,18.2862859 C91.294735,18.101576 91.4784266,18.101576 91.8458099,17.916866 C92.2131931,17.7321561 92.3968847,17.7321561 92.764268,17.7321561 C93.1316512,17.7321561 93.3153428,17.5474461 93.6827261,17.5474461 C94.0501093,17.5474461 94.2338009,17.3627361 94.6011842,17.3627361 C94.9685674,17.3627361 95.152259,17.1780262 95.5196423,17.1780262 C95.8870255,17.1780262 96.0707171,16.9933162 96.4381004,16.9933162 C96.8054836,16.9933162 96.9891752,16.8086063 97.3565585,16.8086063 L98.2750166,16.6238963 C98.6423998,16.6238963 98.8260914,16.6238963 99.1934747,16.4391863 C99.5608579,16.4391863 99.7445495,16.4391863 100.111933,16.4391863 L101.030391,16.4391863 L101.948849,16.4391863 L102.867307,16.4391863 L117.562637,16.4391863 L117.562637,14.7767967 C117.562637,14.0379569 117.562637,13.483827 117.378945,12.7449872 C117.378945,12.3755673 117.195253,12.1908573 117.195253,11.8214374 C117.195253,11.4520175 117.011562,11.2673075 117.011562,10.8978876 L117.011562,10.8978876 C117.011562,10.7131776 117.011562,10.7131776 116.82787,10.5284677 C116.82787,10.3437577 116.82787,10.3437577 116.644179,10.1590477 C116.644179,9.97433778 116.460487,9.97433778 116.460487,9.78962783 C116.460487,9.60491787 116.276795,9.60491787 116.276795,9.42020791 C116.276795,9.23549795 116.093104,9.23549795 116.093104,9.05078799 C116.093104,9.05078799 115.909412,8.86607803 115.909412,8.68136807 C115.909412,8.49665811 115.72572,8.49665811 115.72572,8.31194815 C115.72572,8.31194815 115.542029,8.12723819 115.358337,7.94252824 C115.174646,7.94252824 115.174646,7.75781828 114.990954,7.75781828 C114.807262,7.75781828 114.807262,7.57310832 114.623571,7.57310832 C114.439879,7.57310832 114.439879,7.38839836 114.256187,7.38839836 C114.072496,7.38839836 113.888804,7.2036884 113.888804,7.2036884 C113.705113,7.2036884 113.521421,7.01897844 113.337729,7.01897844 C113.154038,7.01897844 112.970346,6.83426848 112.786655,6.83426848 C112.602963,6.83426848 112.419271,6.64955852 112.23558,6.64955852 C112.051888,6.64955852 111.868196,6.46484856 111.684505,6.46484856 C111.500813,6.46484856 111.13343,6.2801386 110.949738,6.2801386 C110.766047,6.2801386 110.398663,6.09542865 110.214972,6.09542865 C110.03128,6.09542865 109.663897,6.09542865 109.480205,5.91071869 C109.112822,5.91071869 108.92913,5.91071869 108.561747,5.72600873 C108.194364,5.72600873 108.010672,5.72600873 107.643289,5.72600873 C107.275906,5.72600873 106.908523,5.72600873 106.541139,5.72600873 C106.173756,5.72600873 105.806373,5.72600873 105.43899,5.72600873 C105.071606,5.72600873 104.704223,5.72600873 104.33684,5.72600873 L103.602074,5.72600873 L102.867307,5.72600873 L102.132541,5.72600873 L101.397774,5.72600873 L100.663008,5.72600873 L99.9282411,5.72600873 L99.009783,5.72600873 L98.0913249,5.91071869 L97.1728668,6.09542865 L96.2544087,6.46484856 L95.3359506,6.64955852 L94.4174925,6.83426848 L93.4990344,7.01897844 L92.5805763,7.2036884 L91.6621182,7.38839836 L90.7436601,7.57310832 C90.5599685,7.57310832 90.5599685,7.57310832 90.3762769,7.75781828 C90.1925853,7.75781828 90.0088937,7.75781828 90.0088937,7.75781828 C89.825202,7.75781828 89.6415104,7.75781828 89.6415104,7.75781828 C89.4578188,7.75781828 89.4578188,7.75781828 89.2741272,7.57310832 C89.0904356,7.57310832 88.9067439,7.38839836 88.9067439,7.38839836 C88.7230523,7.38839836 88.5393607,7.2036884 88.5393607,7.2036884 C88.3556691,7.01897844 88.3556691,7.01897844 88.1719775,6.83426848 C87.9882858,6.64955852 87.9882858,6.64955852 87.9882858,6.46484856 C87.9882858,6.2801386 87.8045942,6.2801386 87.8045942,6.09542865 L87.6209026,5.72600873 C87.6209026,5.54129877 87.437211,5.54129877 87.437211,5.35658881 C87.437211,5.17187885 87.437211,4.98716889 87.437211,4.80245893 C87.437211,4.61774897 87.437211,4.43303902 87.437211,4.24832906 C87.437211,4.0636191 87.437211,3.87890914 87.6209026,3.69419918 C87.6209026,3.50948922 87.8045942,3.32477926 87.8045942,3.32477926 C87.8045942,3.1400693 87.9882858,3.1400693 88.1719775,2.95535934 C88.3556691,2.77064938 88.3556691,2.77064938 88.5393607,2.58593943 C88.7230523,2.58593943 88.7230523,2.40122947 88.9067439,2.40122947 C89.0904356,2.40122947 89.2741272,2.21651951 89.2741272,2.21651951 C89.4578188,2.21651951 89.825202,2.03180955 90.0088937,2.03180955 L90.7436601,1.84709959 L91.4784266,1.66238963 L92.3968847,1.47767967 L93.3153428,1.29296971 L94.0501093,0.923549795 L94.9685674,0.738839836 L95.8870255,0.554129877 L96.9891752,0.369419918 L98.0913249,0.184709959 L99.1934747,0 L100.295624,0 L101.397774,0 L102.499924,0 L103.602074,0 L104.704223,0 C105.43899,0 106.173756,0 106.908523,0 C107.643289,0 108.378056,0 108.92913,0.184709959 C109.663897,0.184709959 110.214972,0.369419918 110.949738,0.369419918 C111.500813,0.369419918 112.23558,0.554129877 112.786655,0.738839836 C113.337729,0.923549795 113.888804,0.923549795 114.439879,1.10825975 C114.990954,1.29296971 115.542029,1.47767967 116.093104,1.66238963 C116.644179,1.84709959 117.011562,2.03180955 117.562637,2.21651951 C118.113711,2.40122947 118.481095,2.58593943 118.848478,2.95535934 C119.215861,3.1400693 119.766936,3.50948922 120.134319,3.87890914 C120.501703,4.24832906 120.869086,4.61774897 121.236469,4.80245893 C121.603852,5.17187885 121.971235,5.54129877 122.154927,5.91071869 C122.52231,6.2801386 122.706002,6.64955852 122.889694,7.2036884 C123.073385,7.57310832 123.257077,8.12723819 123.440768,8.49665811 C123.62446,9.05078799 123.808152,9.42020791 123.808152,9.97433778 C123.991843,10.5284677 123.991843,10.8978876 123.991843,11.4520175 C123.991843,12.0061473 123.991843,12.5602772 123.991843,13.1144071 L123.991843,39.3432213 C123.991843,39.5279312 123.991843,39.7126412 123.991843,39.8973511 C123.991843,40.0820611 123.991843,40.2667711 123.808152,40.451481 C123.808152,40.636191 123.62446,40.8209009 123.62446,41.0056109 C123.440768,41.1903209 123.440768,41.3750308 123.257077,41.3750308 C123.073385,41.5597408 123.073385,41.5597408 122.889694,41.7444507 C122.706002,41.7444507 122.706002,41.9291607 122.52231,41.9291607 C122.338619,41.9291607 122.338619,42.1138706 122.154927,42.1138706 C121.971235,42.1138706 121.787544,42.2985806 121.787544,42.2985806 C121.420161,42.4832906 121.052777,42.4832906 120.685394,42.6680005 C120.318011,42.8527105 119.950628,42.8527105 119.583244,43.0374204 C119.215861,43.0374204 118.848478,43.2221304 118.481095,43.2221304 C118.113711,43.2221304 117.746328,43.4068404 117.378945,43.4068404 L116.276795,43.5915503 C115.909412,43.5915503 115.542029,43.7762603 115.174646,43.7762603 C114.807262,43.7762603 114.439879,43.9609702 114.072496,43.9609702 C113.705113,43.9609702 113.337729,44.1456802 112.970346,44.1456802 L111.868196,44.3303902 L110.766047,44.5151001 L109.663897,44.5151001 L108.561747,44.5151001 L107.459598,44.5151001 L106.357448,44.5151001 L105.255298,44.5151001 L103.602074,44.88452 Z M176.711338,2.40122947 C176.711338,2.21651951 176.89503,2.21651951 176.89503,2.03180955 C176.89503,1.84709959 177.078721,1.84709959 177.078721,1.66238963 C177.262413,1.47767967 177.262413,1.47767967 177.446105,1.29296971 C177.629796,1.29296971 177.629796,1.10825975 177.813488,1.10825975 C177.99718,1.10825975 177.99718,0.923549795 178.180871,0.923549795 C178.364563,0.923549795 178.364563,0.923549795 178.548254,0.738839836 C178.731946,0.738839836 178.731946,0.738839836 178.915638,0.738839836 C179.099329,0.738839836 179.099329,0.738839836 179.283021,0.738839836 L180.752554,0.738839836 C181.119937,0.738839836 181.48732,0.738839836 181.671012,0.923549795 C182.038395,1.10825975 182.222087,1.10825975 182.405778,1.29296971 C182.58947,1.47767967 182.773162,1.66238963 182.956853,2.03180955 C183.140545,2.21651951 183.140545,2.58593943 183.140545,2.95535934 L183.140545,3.50948922 C183.140545,3.50948922 183.140545,3.69419918 183.140545,3.69419918 L164.771383,41.7444507 L164.771383,41.7444507 L164.771383,41.7444507 C164.771383,41.9291607 164.587691,41.9291607 164.587691,42.1138706 C164.587691,42.2985806 164.404,42.2985806 164.404,42.4832906 C164.404,42.6680005 164.220308,42.6680005 164.220308,42.8527105 C164.036616,43.0374204 164.036616,43.0374204 163.852925,43.2221304 C163.669233,43.2221304 163.669233,43.4068404 163.485542,43.4068404 C163.30185,43.4068404 163.30185,43.5915503 163.118158,43.5915503 C162.934467,43.5915503 162.934467,43.7762603 162.750775,43.7762603 C162.567083,43.7762603 162.567083,43.7762603 162.383392,43.7762603 C162.1997,43.7762603 162.1997,43.7762603 162.016009,43.7762603 L161.648625,43.7762603 L161.281242,43.7762603 L160.179092,43.7762603 C159.995401,43.7762603 159.995401,43.7762603 159.811709,43.7762603 C159.628018,43.7762603 159.628018,43.7762603 159.444326,43.7762603 C159.260634,43.7762603 159.260634,43.7762603 159.076943,43.7762603 C158.893251,43.7762603 158.893251,43.7762603 158.709559,43.7762603 L158.709559,43.7762603 C158.525868,43.7762603 158.525868,43.7762603 158.342176,43.5915503 C158.158485,43.5915503 158.158485,43.4068404 157.974793,43.4068404 C157.791101,43.4068404 157.791101,43.2221304 157.60741,43.2221304 C157.423718,43.2221304 157.423718,43.0374204 157.240026,42.8527105 L157.056335,42.6680005 L156.872643,42.4832906 L156.688952,42.2985806 C156.50526,41.9291607 156.321568,41.5597408 156.137877,41.3750308 C153.933577,37.6808316 151.91297,33.4325026 149.70867,29.1841735 C147.688062,24.9358445 145.483763,20.3180955 143.463155,15.8850565 C142.544697,13.668537 141.442547,11.6367274 140.524089,9.60491787 C139.605631,7.57310832 138.687173,5.72600873 137.768715,3.69419918 C137.768715,3.69419918 137.768715,3.50948922 137.768715,3.50948922 L137.768715,2.95535934 C137.768715,2.58593943 137.768715,2.21651951 137.952406,2.03180955 C138.136098,1.66238963 138.136098,1.47767967 138.503481,1.29296971 C138.687173,1.10825975 139.054556,0.923549795 139.238248,0.923549795 C139.605631,0.923549795 139.789323,0.738839836 140.156706,0.738839836 L141.626239,0.738839836 C141.993622,0.738839836 142.177314,0.738839836 142.361005,0.923549795 C142.544697,0.923549795 142.91208,1.10825975 143.095772,1.29296971 C143.279463,1.47767967 143.463155,1.66238963 143.646847,1.84709959 C143.830538,2.03180955 144.01423,2.21651951 144.01423,2.58593943 L148.422829,11.4520175 C152.464044,19.5792557 156.321568,27.7064938 160.179092,35.833732 C162.016009,31.7701129 164.036616,27.8912038 165.873533,23.8275847 C167.89414,19.5792557 169.914748,15.3309266 171.935356,11.0825975 L176.711338,2.40122947 Z M215.837653,5.72600873 C214.551812,5.72600873 213.265971,5.72600873 211.980129,5.91071869 C211.429054,5.91071869 210.877979,6.09542865 210.326905,6.2801386 C209.77583,6.46484856 209.224755,6.46484856 208.67368,6.64955852 C208.122605,6.83426848 207.755222,7.01897844 207.204147,7.2036884 C206.836764,7.38839836 206.285689,7.57310832 205.918306,7.94252824 C205.550922,8.12723819 205.183539,8.49665811 204.816156,8.68136807 C204.448773,9.05078799 204.08139,9.23549795 203.714006,9.60491787 C203.346623,9.97433778 202.97924,10.3437577 202.795548,10.7131776 C202.428165,11.0825975 202.244473,11.4520175 201.87709,11.8214374 C201.693398,12.1908573 201.326015,12.5602772 201.142324,13.1144071 C200.958632,13.483827 200.77494,14.0379569 200.591249,14.4073768 C200.407557,14.7767967 200.223866,15.1462166 200.223866,15.5156366 C200.040174,15.8850565 200.040174,16.2544764 199.856482,16.8086063 C199.672791,17.1780262 199.672791,17.5474461 199.489099,18.101576 C199.489099,18.4709959 199.305407,18.6557059 199.305407,19.0251258 L232.737282,19.0251258 L232.737282,18.4709959 L232.737282,18.101576 C232.737282,17.916866 232.737282,17.5474461 232.553591,17.3627361 C232.553591,17.1780262 232.553591,16.8086063 232.369899,16.6238963 C232.369899,16.4391863 232.186207,16.0697664 232.186207,15.8850565 C232.186207,15.7003465 232.002516,15.3309266 232.002516,15.1462166 L231.818824,14.7767967 L231.635132,14.4073768 C231.635132,14.2226668 231.451441,14.0379569 231.451441,13.8532469 C231.451441,13.668537 231.267749,13.483827 231.084058,13.299117 C230.900366,13.1144071 230.900366,12.9296971 230.716674,12.7449872 C230.532983,12.5602772 230.532983,12.3755673 230.349291,12.1908573 C230.1656,12.0061473 230.1656,11.8214374 229.981908,11.6367274 C229.798216,11.4520175 229.798216,11.2673075 229.614525,11.0825975 C229.430833,10.8978876 229.247141,10.7131776 229.247141,10.5284677 C229.06345,10.3437577 228.879758,10.1590477 228.696067,9.97433778 C228.512375,9.78962783 228.328683,9.60491787 228.144992,9.42020791 C227.9613,9.23549795 227.777608,9.05078799 227.593917,9.05078799 C227.410225,8.86607803 227.226534,8.68136807 227.042842,8.68136807 C226.85915,8.49665811 226.675459,8.31194815 226.308076,8.31194815 C226.124384,8.12723819 225.757001,8.12723819 225.573309,7.94252824 C225.389617,7.75781828 225.022234,7.75781828 224.838543,7.57310832 C224.654851,7.38839836 224.287468,7.38839836 224.103776,7.2036884 C223.920084,7.01897844 223.552701,7.01897844 223.185318,6.83426848 C222.817935,6.83426848 222.634243,6.64955852 222.26686,6.64955852 C221.899477,6.64955852 221.532093,6.46484856 221.348402,6.46484856 C220.981019,6.46484856 220.613635,6.2801386 220.429944,6.2801386 C220.06256,6.2801386 219.695177,6.09542865 219.327794,6.09542865 C218.960411,6.09542865 218.593027,6.09542865 218.225644,5.91071869 C217.858261,5.91071869 217.490878,5.91071869 216.939803,5.91071869 C216.756111,5.91071869 216.205036,5.72600873 215.837653,5.72600873 Z M199.305407,24.7511345 L199.305407,25.8593943 L199.305407,26.5982341 L199.489099,27.3370739 C199.489099,27.7064938 199.672791,27.8912038 199.672791,28.2606237 C199.672791,28.6300436 199.856482,28.8147536 199.856482,29.1841735 C199.856482,29.5535934 200.040174,29.7383034 200.040174,30.1077233 C200.040174,30.4771432 200.223866,30.6618532 200.407557,31.0312731 C200.591249,31.400693 200.591249,31.585403 200.77494,31.7701129 C200.958632,31.9548229 200.958632,32.3242428 201.142324,32.5089528 C201.326015,32.6936627 201.326015,33.0630827 201.509707,33.2477926 C201.693398,33.4325026 201.87709,33.6172125 201.87709,33.9866325 C202.060782,34.1713424 202.244473,34.3560524 202.244473,34.5407623 C202.428165,34.7254723 202.611857,34.9101822 202.795548,35.0948922 C202.97924,35.2796022 203.162931,35.4643121 203.346623,35.6490221 C203.530315,35.833732 203.714006,36.018442 203.897698,36.203152 C204.08139,36.3878619 204.265081,36.5725719 204.448773,36.7572818 C204.632464,36.9419918 204.816156,37.1267018 204.999848,37.1267018 C205.183539,37.3114117 205.367231,37.4961217 205.550922,37.4961217 C205.734614,37.6808316 205.918306,37.6808316 206.285689,37.8655416 C206.469381,38.0502515 206.653072,38.0502515 207.020455,38.2349615 C207.204147,38.4196715 207.387839,38.4196715 207.755222,38.6043814 C207.938914,38.7890914 208.306297,38.7890914 208.489988,38.7890914 C208.67368,38.7890914 209.041063,38.9738013 209.224755,38.9738013 C209.592138,38.9738013 209.77583,39.1585113 210.143213,39.1585113 C210.510596,39.1585113 210.694288,39.3432213 211.061671,39.3432213 C211.429054,39.3432213 211.612746,39.5279312 211.980129,39.5279312 C212.347512,39.5279312 212.531204,39.7126412 212.898587,39.7126412 C213.265971,39.7126412 213.449662,39.7126412 213.817045,39.8973511 C214.184429,39.8973511 214.36812,39.8973511 214.735503,39.8973511 C215.102887,39.8973511 215.47027,39.8973511 215.653962,39.8973511 C216.021345,39.8973511 216.205036,39.8973511 216.57242,39.8973511 L217.307186,39.8973511 L218.041953,39.8973511 L218.776719,39.8973511 L219.511486,39.8973511 C220.797327,39.7126412 221.899477,39.7126412 223.001626,39.5279312 C224.103776,39.3432213 225.022234,39.1585113 226.124384,38.7890914 C227.042842,38.4196715 227.9613,38.0502515 228.879758,37.4961217 C229.798216,36.9419918 230.716674,36.3878619 231.818824,35.6490221 L231.818824,35.6490221 C232.002516,35.4643121 232.186207,35.2796022 232.369899,35.2796022 C232.553591,35.2796022 232.553591,35.0948922 232.737282,35.0948922 C232.920974,35.0948922 232.920974,35.0948922 233.104665,35.0948922 C233.288357,35.0948922 233.288357,35.0948922 233.472049,35.0948922 C233.65574,35.0948922 233.65574,35.0948922 233.839432,35.0948922 C233.839432,35.0948922 234.023124,35.0948922 234.023124,35.0948922 C234.023124,35.0948922 234.206815,35.0948922 234.206815,35.0948922 C234.206815,35.0948922 234.390507,35.0948922 234.390507,35.2796022 C234.390507,35.2796022 234.574198,35.2796022 234.574198,35.4643121 C234.75789,35.4643121 234.75789,35.6490221 234.941582,35.6490221 L235.492656,36.018442 L235.676348,36.203152 C235.676348,36.203152 235.86004,36.3878619 235.86004,36.3878619 C235.86004,36.3878619 236.043731,36.5725719 236.043731,36.5725719 C236.043731,36.5725719 236.227423,36.7572818 236.227423,36.7572818 C236.411115,36.9419918 236.411115,37.1267018 236.594806,37.3114117 C236.594806,37.4961217 236.778498,37.6808316 236.778498,38.0502515 C236.778498,38.2349615 236.778498,38.4196715 236.594806,38.7890914 C236.594806,38.9738013 236.411115,39.1585113 236.227423,39.3432213 L236.227423,39.5279312 C236.043731,39.7126412 236.043731,39.7126412 235.86004,39.8973511 C234.75789,41.0056109 233.472049,41.7444507 232.186207,42.4832906 C230.900366,43.2221304 229.798216,43.7762603 228.512375,44.3303902 C227.226534,44.88452 225.940692,45.06923 224.471159,45.4386499 C223.001626,45.6233599 221.532093,45.8080698 219.878869,45.9927798 L218.960411,45.9927798 L218.041953,45.9927798 L217.123495,45.9927798 L216.205036,45.9927798 C215.837653,45.9927798 215.286578,45.9927798 214.919195,45.9927798 C214.551812,45.9927798 214.000737,45.9927798 213.633354,45.9927798 C213.265971,45.9927798 212.898587,45.9927798 212.347512,45.8080698 C211.980129,45.8080698 211.612746,45.8080698 211.061671,45.6233599 C210.694288,45.6233599 210.326905,45.4386499 209.959521,45.4386499 C209.592138,45.4386499 209.224755,45.2539399 208.857372,45.2539399 C208.489988,45.2539399 208.122605,45.06923 207.755222,45.06923 C207.387839,44.88452 207.020455,44.88452 206.653072,44.6998101 C206.285689,44.5151001 205.918306,44.5151001 205.550922,44.3303902 C205.183539,44.1456802 204.816156,44.1456802 204.448773,43.9609702 C204.08139,43.7762603 203.714006,43.5915503 203.346623,43.5915503 C202.97924,43.4068404 202.611857,43.2221304 202.428165,43.0374204 C202.060782,42.8527105 201.87709,42.6680005 201.509707,42.4832906 C201.142324,42.2985806 200.958632,42.1138706 200.591249,41.9291607 C200.223866,41.7444507 200.040174,41.5597408 199.672791,41.3750308 C199.305407,41.1903209 199.121716,41.0056109 198.938024,40.636191 C198.754333,40.451481 198.386949,40.0820611 198.203258,39.8973511 C198.019566,39.7126412 197.652183,39.3432213 197.468491,39.1585113 C197.2848,38.9738013 196.917416,38.6043814 196.733725,38.2349615 C196.550033,37.8655416 196.366341,37.6808316 196.18265,37.3114117 C195.998958,36.9419918 195.815267,36.7572818 195.631575,36.3878619 C195.447883,36.018442 195.264192,35.833732 195.0805,35.4643121 C194.896809,35.0948922 194.713117,34.7254723 194.529425,34.3560524 C194.345734,33.9866325 194.162042,33.6172125 194.162042,33.2477926 C193.97835,32.8783727 193.794659,32.5089528 193.794659,32.1395329 C193.610967,31.7701129 193.610967,31.400693 193.427276,31.0312731 C193.243584,30.6618532 193.243584,30.2924333 193.059892,29.7383034 C193.059892,29.3688835 192.876201,28.9994636 192.876201,28.4453337 C192.876201,28.0759138 192.692509,27.5217839 192.692509,27.152364 C192.692509,26.7829441 192.508817,26.2288142 192.508817,25.8593943 C192.508817,25.4899743 192.508817,24.9358445 192.508817,24.5664245 C192.508817,24.0122947 192.508817,23.6428747 192.508817,23.0887449 C192.508817,22.1651951 192.508817,21.2416453 192.692509,20.3180955 C192.692509,19.3945457 192.876201,18.6557059 193.059892,17.7321561 C193.243584,16.9933162 193.427276,16.0697664 193.610967,15.3309266 C193.794659,14.5920868 193.97835,13.8532469 194.345734,13.1144071 C194.529425,12.3755673 194.896809,11.6367274 195.264192,11.0825975 C195.631575,10.3437577 195.998958,9.78962783 196.366341,9.23549795 C196.733725,8.68136807 197.2848,8.12723819 197.652183,7.57310832 C198.019566,7.01897844 198.570641,6.64955852 198.938024,6.09542865 L198.938024,6.09542865 L199.121716,5.91071869 C199.672791,5.35658881 200.223866,4.98716889 200.77494,4.61774897 C201.326015,4.24832906 201.87709,3.87890914 202.611857,3.50948922 C203.162931,3.1400693 203.897698,2.77064938 204.632464,2.58593943 C205.367231,2.21651951 205.918306,2.03180955 206.653072,1.84709959 C207.387839,1.66238963 208.122605,1.47767967 208.857372,1.29296971 C209.592138,1.10825975 210.326905,0.923549795 211.245363,0.923549795 C211.980129,0.738839836 212.898587,0.738839836 213.633354,0.738839836 C214.551812,0.738839836 215.286578,0.738839836 216.205036,0.738839836 C218.225644,0.738839836 220.06256,0.923549795 221.899477,1.10825975 C223.552701,1.29296971 225.205926,1.66238963 226.675459,2.21651951 L226.675459,2.21651951 C227.042842,2.40122947 227.410225,2.40122947 227.777608,2.58593943 C228.144992,2.77064938 228.512375,2.95535934 228.879758,2.95535934 C229.247141,3.1400693 229.614525,3.32477926 229.798216,3.50948922 C230.1656,3.69419918 230.349291,3.87890914 230.716674,4.0636191 C231.267749,4.43303902 231.818824,4.80245893 232.369899,5.17187885 C232.553591,5.35658881 232.920974,5.54129877 233.104665,5.72600873 C233.288357,5.91071869 233.65574,6.09542865 233.839432,6.46484856 L233.839432,6.46484856 C234.023124,6.64955852 234.390507,7.01897844 234.574198,7.2036884 C234.75789,7.38839836 234.941582,7.75781828 235.308965,7.94252824 C235.492656,8.12723819 235.676348,8.49665811 235.86004,8.68136807 C236.043731,8.86607803 236.227423,9.23549795 236.411115,9.42020791 L236.411115,9.42020791 C236.594806,9.60491787 236.778498,9.97433778 236.962189,10.1590477 C237.145881,10.5284677 237.329573,10.7131776 237.329573,11.0825975 C237.513264,11.4520175 237.696956,11.6367274 237.696956,12.0061473 C237.880648,12.3755673 237.880648,12.5602772 238.064339,12.9296971 C238.248031,13.1144071 238.248031,13.483827 238.431722,13.8532469 C238.615414,14.2226668 238.615414,14.4073768 238.615414,14.7767967 C238.615414,15.1462166 238.799106,15.3309266 238.799106,15.7003465 C238.799106,16.0697664 238.982797,16.2544764 238.982797,16.6238963 C238.982797,16.9933162 239.166489,17.3627361 239.166489,17.5474461 C239.166489,17.916866 239.166489,18.101576 239.350181,18.4709959 C239.350181,18.8404158 239.350181,19.2098357 239.350181,19.3945457 C239.350181,19.7639656 239.350181,19.9486756 239.350181,20.3180955 L239.350181,20.3180955 C239.350181,20.5028054 239.350181,20.6875154 239.350181,20.8722254 C239.350181,21.0569353 239.350181,21.2416453 239.350181,21.4263552 C239.350181,21.6110652 239.350181,21.7957752 239.166489,21.9804851 C239.166489,22.1651951 239.166489,22.349905 238.982797,22.349905 C238.982797,22.534615 238.799106,22.719325 238.799106,22.9040349 C238.799106,23.0887449 238.615414,23.2734548 238.431722,23.4581648 C238.248031,23.6428747 238.248031,23.8275847 238.064339,23.8275847 C237.880648,24.0122947 237.880648,24.0122947 237.696956,24.1970046 C237.513264,24.1970046 237.513264,24.3817146 237.329573,24.3817146 C237.145881,24.3817146 237.145881,24.5664245 236.962189,24.5664245 C236.778498,24.5664245 236.594806,24.7511345 236.594806,24.7511345 C236.411115,24.7511345 236.227423,24.9358445 236.043731,24.9358445 C235.86004,24.9358445 235.676348,24.9358445 235.676348,24.9358445 C235.492656,24.9358445 235.308965,24.9358445 235.125273,24.9358445 C234.941582,24.9358445 234.75789,24.9358445 234.574198,24.9358445 C234.390507,24.9358445 234.206815,24.9358445 234.023124,24.9358445 L199.305407,24.9358445 L199.305407,24.7511345 Z M32.8807999,12.3755673 L31.2275754,15.7003465 L20.0223866,41.3750308 C20.0223866,41.5597408 19.8386949,41.7444507 19.8386949,41.9291607 C19.8386949,42.1138706 19.6550033,42.2985806 19.6550033,42.2985806 C19.6550033,42.4832906 19.4713117,42.4832906 19.4713117,42.6680005 C19.4713117,42.8527105 19.2876201,42.8527105 19.2876201,43.0374204 C19.1039285,43.2221304 19.1039285,43.2221304 18.9202368,43.4068404 C18.7365452,43.4068404 18.7365452,43.4068404 18.5528536,43.5915503 C18.369162,43.5915503 18.369162,43.7762603 18.1854704,43.7762603 C18.0017787,43.7762603 18.0017787,43.9609702 17.8180871,43.9609702 C17.8180871,43.9609702 17.6343955,43.9609702 17.4507039,43.9609702 C17.2670123,43.9609702 17.2670123,43.9609702 17.0833206,43.9609702 C16.899629,43.9609702 16.899629,43.9609702 16.7159374,43.9609702 L16.3485542,43.9609702 L15.4300961,43.9609702 L15.0627128,43.9609702 L14.6953296,43.9609702 C14.511638,43.9609702 14.511638,43.9609702 14.3279463,43.9609702 C14.1442547,43.9609702 14.1442547,43.9609702 13.9605631,43.9609702 C13.7768715,43.9609702 13.7768715,43.9609702 13.5931799,43.7762603 C13.4094882,43.7762603 13.4094882,43.5915503 13.2257966,43.5915503 C13.4094882,43.4068404 13.4094882,43.4068404 13.2257966,43.4068404 C13.042105,43.4068404 13.042105,43.2221304 12.8584134,43.2221304 C12.8584134,43.2221304 12.6747218,43.0374204 12.6747218,43.0374204 C12.6747218,43.0374204 12.4910301,42.8527105 12.4910301,42.8527105 C12.4910301,42.8527105 12.3073385,42.6680005 12.3073385,42.4832906 C12.3073385,42.2985806 12.1236469,42.2985806 12.1236469,42.1138706 L11.9399553,41.9291607 L11.9399553,41.7444507 L11.9399553,41.5597408 L11.9399553,41.3750308 C9.55196423,33.9866325 0.734766479,9.42020791 0,3.87890914 L0,3.50948922 C0,3.32477926 0,3.1400693 0,2.95535934 C0,2.77064938 0.18369162,2.58593943 0.18369162,2.40122947 C0.367383239,2.21651951 0.367383239,2.03180955 0.551074859,2.03180955 C0.734766479,1.84709959 0.918458099,1.84709959 1.10214972,1.66238963 C1.10214972,1.66238963 1.28584134,1.66238963 1.28584134,1.47767967 C1.46953296,1.47767967 1.46953296,1.47767967 1.65322458,1.47767967 C1.8369162,1.47767967 1.8369162,1.47767967 2.02060782,1.47767967 C2.20429944,1.47767967 2.20429944,1.47767967 2.38799106,1.47767967 L3.85752401,1.47767967 C4.22490725,1.47767967 4.40859887,1.47767967 4.77598211,1.66238963 C4.95967373,1.66238963 5.32705697,1.84709959 5.51074859,2.03180955 C5.69444021,2.21651951 5.87813183,2.40122947 6.06182345,2.58593943 C6.24551507,2.77064938 6.42920669,3.1400693 6.42920669,3.32477926 L15.6137877,33.2477926 L16.3485542,35.4643121 C18.7365452,30.1077233 20.9408446,24.7511345 23.3288357,19.2098357 L23.6962189,18.4709959 C25.5331351,14.2226668 27.3700513,9.97433778 29.2069675,6.09542865 L29.3906592,5.72600873 L29.5743508,5.54129877 C29.5743508,5.35658881 29.7580424,5.17187885 29.7580424,5.17187885 C29.941734,4.98716889 29.941734,4.98716889 30.1254256,4.80245893 C30.3091173,4.61774897 30.3091173,4.61774897 30.4928089,4.43303902 C30.6765005,4.43303902 30.8601921,4.24832906 30.8601921,4.24832906 C31.0438837,4.24832906 31.0438837,4.24832906 31.2275754,4.0636191 C31.411267,4.0636191 31.411267,4.0636191 31.5949586,4.0636191 C31.7786502,4.0636191 31.7786502,4.0636191 31.9623418,4.0636191 C32.1460335,4.0636191 32.1460335,4.0636191 32.3297251,4.0636191 L33.4318748,4.0636191 C33.6155664,4.0636191 33.6155664,4.0636191 33.799258,4.0636191 C33.9829496,4.0636191 33.9829496,4.0636191 34.1666413,4.0636191 C34.3503329,4.0636191 34.3503329,4.0636191 34.5340245,4.0636191 C34.7177161,4.0636191 34.7177161,4.0636191 34.9014077,4.24832906 C35.0850994,4.24832906 35.268791,4.43303902 35.268791,4.43303902 C35.4524826,4.43303902 35.4524826,4.61774897 35.6361742,4.80245893 C35.8198658,4.98716889 35.8198658,4.98716889 36.0035575,5.17187885 C36.1872491,5.35658881 36.1872491,5.35658881 36.1872491,5.54129877 L36.3709407,5.72600873 C36.5546323,6.09542865 36.7383239,6.2801386 36.9220156,6.64955852 C39.126315,11.6367274 41.3306144,16.6238963 43.3512223,21.2416453 C44.453372,23.6428747 45.5555217,26.0441042 46.6576714,28.6300436 C47.5761295,30.8465631 48.4945876,32.8783727 49.4130457,35.2796022 L50.5151954,32.1395329 L59.5160848,3.32477926 C59.5160848,3.1400693 59.6997764,2.95535934 59.6997764,2.95535934 C59.6997764,2.77064938 59.883468,2.77064938 60.0671597,2.58593943 C60.2508513,2.40122947 60.2508513,2.40122947 60.4345429,2.21651951 C60.6182345,2.03180955 60.6182345,2.03180955 60.8019261,2.03180955 C60.9856177,2.03180955 60.9856177,1.84709959 61.1693094,1.84709959 C61.353001,1.84709959 61.353001,1.84709959 61.5366926,1.66238963 C61.7203842,1.66238963 61.7203842,1.66238963 61.9040758,1.66238963 C62.0877675,1.66238963 62.0877675,1.66238963 62.2714591,1.66238963 L63.740992,1.66238963 C64.1083753,1.66238963 64.4757585,1.66238963 64.6594501,1.84709959 C65.0268334,2.03180955 65.210525,2.03180955 65.3942166,2.21651951 C65.5779082,2.40122947 65.7615999,2.58593943 65.9452915,2.95535934 C66.1289831,3.1400693 66.1289831,3.50948922 66.1289831,3.87890914 L66.1289831,4.24832906 C65.210525,8.31194815 56.025944,34.1713424 53.8216446,41.0056109 C53.8216446,41.1903209 53.637953,41.3750308 53.637953,41.7444507 C53.637953,41.9291607 53.4542613,42.1138706 53.2705697,42.2985806 C53.0868781,42.4832906 53.0868781,42.6680005 52.9031865,42.8527105 C52.7194949,43.0374204 52.5358032,43.2221304 52.3521116,43.2221304 L52.3521116,43.2221304 C52.16842,43.4068404 51.9847284,43.4068404 51.8010368,43.5915503 C51.6173451,43.7762603 51.4336535,43.7762603 51.2499619,43.7762603 C51.0662703,43.7762603 50.8825787,43.9609702 50.5151954,43.9609702 C50.3315038,43.9609702 50.1478122,43.9609702 49.7804289,43.9609702 L49.0456625,43.9609702 L48.6782792,43.9609702 L48.310896,43.9609702 C48.1272044,43.9609702 48.1272044,43.9609702 47.9435127,43.9609702 C47.7598211,43.9609702 47.7598211,43.9609702 47.5761295,43.9609702 C47.3924379,43.9609702 47.3924379,43.9609702 47.2087463,43.7762603 C47.0250547,43.7762603 47.0250547,43.5915503 46.841363,43.5915503 C46.6576714,43.5915503 46.6576714,43.4068404 46.4739798,43.4068404 C46.2902882,43.4068404 46.2902882,43.2221304 46.1065966,43.2221304 C45.9229049,43.0374204 45.9229049,43.0374204 45.7392133,42.8527105 C45.5555217,42.6680005 45.5555217,42.6680005 45.3718301,42.4832906 C45.1881385,42.2985806 45.1881385,42.1138706 45.0044468,41.9291607 C45.0044468,41.7444507 44.8207552,41.5597408 44.8207552,41.3750308 C43.1675306,38.0502515 41.5143061,34.5407623 40.0447731,31.0312731 C38.5752401,27.5217839 36.9220156,23.8275847 35.4524826,20.3180955 L35.4524826,20.3180955 C35.0850994,17.5474461 33.9829496,14.9615067 32.8807999,12.3755673 Z" id="Shape" fill="#fff" fill-rule="nonzero"></path>
                <path d="M9.8794591,69.4420166 L6.93807067,69.4420166 L6.93807067,73.789347 L6.57039711,73.789347 L6.57039711,64.5512699 L10.0632959,64.5512699 C10.4309694,64.5512699 10.798643,64.5512699 11.1663165,64.7324086 C11.5339901,64.9135474 11.7178269,64.9135474 12.0855004,65.0946862 C12.2693372,65.2758249 12.453174,65.4569637 12.6370107,65.8192412 C12.8208475,66.1815188 12.8208475,66.3626575 12.8208475,66.7249351 C12.8208475,67.0872126 12.8208475,67.4494902 12.6370107,67.6306289 C12.453174,67.9929065 12.453174,68.1740452 12.0855004,68.355184 C11.9016636,68.5363228 11.7178269,68.7174615 11.3501533,68.8986003 C10.9824798,69.0797391 10.798643,69.0797391 10.4309694,69.0797391 L12.6370107,73.4270695 L12.2693372,73.4270695 L9.8794591,69.4420166 Z M6.93807067,64.9135474 L6.93807067,69.0797391 L9.8794591,69.0797391 C10.2471326,69.0797391 10.6148062,69.0797391 10.798643,68.8986003 C11.1663165,68.7174615 11.3501533,68.7174615 11.5339901,68.5363228 C11.7178269,68.355184 11.9016636,68.1740452 12.0855004,67.8117677 C12.2693372,67.4494902 12.2693372,67.2683514 12.2693372,66.9060738 C12.2693372,66.5437963 12.2693372,66.1815188 12.0855004,66.00038 C11.9016636,65.8192412 11.7178269,65.4569637 11.5339901,65.4569637 C11.3501533,65.2758249 10.9824798,65.0946862 10.798643,65.0946862 C10.4309694,64.9135474 10.2471326,64.9135474 9.8794591,64.9135474 L6.93807067,64.9135474 Z M25.3217484,64.5512699 L30.8368517,64.5512699 L30.8368517,64.9135474 L25.6894219,64.9135474 L25.6894219,68.8986003 L30.1015046,68.8986003 L30.1015046,69.2608778 L25.6894219,69.2608778 L25.6894219,73.4270695 L30.8368517,73.4270695 L30.8368517,73.789347 L25.3217484,73.789347 L25.3217484,64.5512699 Z M45.9114674,73.789347 C45.359957,73.789347 44.8084467,73.789347 44.2569364,73.6082082 C43.705426,73.4270695 43.3377525,73.2459307 42.7862422,72.8836532 L42.9700789,72.5213756 C43.3377525,72.7025144 43.8892628,73.0647919 44.2569364,73.0647919 C44.8084467,73.2459307 45.1761203,73.2459307 45.7276306,73.2459307 C46.0953041,73.2459307 46.4629777,73.2459307 46.8306512,73.0647919 C47.1983248,73.0647919 47.3821616,72.8836532 47.7498351,72.7025144 C47.9336719,72.5213756 48.1175087,72.3402369 48.3013455,71.9779593 C48.4851822,71.7968206 48.4851822,71.434543 48.4851822,71.0722655 C48.4851822,70.709988 48.4851822,70.3477104 48.3013455,69.9854329 C48.1175087,69.8042941 47.9336719,69.4420166 47.5659984,69.2608778 C47.3821616,69.0797391 47.014488,68.8986003 46.6468145,68.8986003 C46.2791409,68.8986003 46.0953041,68.7174615 45.7276306,68.7174615 C45.359957,68.7174615 44.9922835,68.5363228 44.8084467,68.5363228 C44.4407731,68.5363228 44.2569364,68.355184 43.8892628,68.1740452 C43.705426,67.9929065 43.3377525,67.8117677 43.3377525,67.4494902 C43.1539157,67.2683514 43.1539157,66.9060738 43.1539157,66.3626575 C43.1539157,65.6381025 43.3377525,65.0946862 43.8892628,64.5512699 C44.4407731,64.0078536 44.9922835,63.8267148 45.9114674,63.8267148 C46.2791409,63.8267148 46.8306512,63.8267148 47.1983248,64.0078536 C47.5659984,64.1889923 47.9336719,64.1889923 48.3013455,64.3701311 L48.4851822,65.4569637 C48.1175087,65.2758249 47.7498351,65.0946862 47.3821616,65.0946862 C46.8306512,64.9135474 46.4629777,64.9135474 46.0953041,64.9135474 C45.7276306,64.9135474 45.5437938,64.9135474 45.1761203,65.0946862 C44.8084467,65.0946862 44.6246099,65.2758249 44.4407731,65.4569637 C44.2569364,65.6381025 44.0730996,65.8192412 43.8892628,66.1815188 C43.705426,66.3626575 43.705426,66.7249351 43.705426,67.0872126 C43.705426,67.4494902 43.705426,67.8117677 43.8892628,67.9929065 C44.0730996,68.1740452 44.2569364,68.355184 44.4407731,68.5363228 C44.6246099,68.7174615 44.9922835,68.7174615 45.1761203,68.8986003 C45.5437938,68.8986003 45.7276306,69.0797391 45.9114674,69.0797391 C46.2791409,69.0797391 46.6468145,69.2608778 47.014488,69.4420166 C47.3821616,69.6231554 47.7498351,69.6231554 47.9336719,69.8042941 C48.1175087,69.9854329 48.4851822,70.1665717 48.669019,70.5288492 C48.8528558,70.8911267 48.8528558,71.2534043 48.8528558,71.6156818 C48.8528558,72.3402369 48.4851822,72.8836532 47.9336719,73.4270695 C47.5659984,73.6082082 46.8306512,73.789347 45.9114674,73.789347 Z M64.2951451,64.5512699 C64.8466554,64.5512699 65.2143289,64.5512699 65.5820025,64.7324086 C65.949676,64.9135474 66.3173496,65.0946862 66.5011864,65.4569637 C66.6850231,65.8192412 67.0526967,66.00038 67.0526967,66.5437963 C67.2365335,66.9060738 67.2365335,67.4494902 67.2365335,67.8117677 L67.2365335,70.709988 C67.2365335,71.2534043 67.2365335,71.6156818 67.0526967,72.1590981 C66.8688599,72.5213756 66.6850231,72.8836532 66.5011864,73.2459307 C66.3173496,73.6082082 65.949676,73.789347 65.5820025,73.9704858 C65.2143289,74.1516245 64.8466554,74.1516245 64.2951451,74.1516245 C63.7436347,74.1516245 63.1921244,74.1516245 62.8244508,73.9704858 C62.4567773,73.789347 62.0891037,73.6082082 61.905267,73.2459307 C61.7214302,72.8836532 61.5375934,72.5213756 61.3537566,72.1590981 C61.1699198,71.7968206 61.1699198,71.2534043 61.1699198,70.8911267 L61.1699198,67.9929065 C61.1699198,67.6306289 61.1699198,67.0872126 61.3537566,66.7249351 C61.5375934,66.3626575 61.7214302,66.00038 61.905267,65.6381025 C62.0891037,65.2758249 62.4567773,65.0946862 62.8244508,64.9135474 C63.1921244,64.5512699 63.7436347,64.5512699 64.2951451,64.5512699 Z M64.2951451,64.9135474 C63.7436347,64.9135474 63.3759612,64.9135474 63.0082876,65.0946862 C62.6406141,65.2758249 62.2729405,65.4569637 62.0891037,65.6381025 C61.905267,65.8192412 61.7214302,66.1815188 61.5375934,66.5437963 C61.3537566,66.9060738 61.3537566,67.2683514 61.3537566,67.6306289 L61.3537566,70.5288492 C61.3537566,70.8911267 61.3537566,71.2534043 61.5375934,71.6156818 C61.7214302,71.9779593 61.905267,72.3402369 62.0891037,72.5213756 C62.2729405,72.7025144 62.6406141,73.0647919 63.0082876,73.2459307 C63.3759612,73.4270695 63.7436347,73.4270695 64.2951451,73.4270695 C64.6628186,73.4270695 65.0304922,73.4270695 65.3981657,73.2459307 C65.7658393,73.0647919 65.949676,72.8836532 66.3173496,72.7025144 C66.5011864,72.5213756 66.6850231,72.1590981 66.8688599,71.7968206 C67.0526967,71.434543 67.0526967,71.0722655 67.0526967,70.5288492 L67.0526967,67.8117677 C67.0526967,67.4494902 67.0526967,67.0872126 66.8688599,66.7249351 C66.6850231,66.3626575 66.5011864,66.00038 66.3173496,65.8192412 C66.1335128,65.6381025 65.7658393,65.2758249 65.3981657,65.2758249 C65.0304922,64.9135474 64.6628186,64.9135474 64.2951451,64.9135474 Z M83.5980066,69.4420166 L80.6566182,69.4420166 L80.6566182,73.789347 L80.2889446,73.789347 L80.2889446,64.5512699 L83.7818434,64.5512699 C84.149517,64.5512699 84.5171905,64.5512699 84.8848641,64.7324086 C85.2525376,64.9135474 85.4363744,64.9135474 85.8040479,65.0946862 C85.9878847,65.2758249 86.1717215,65.4569637 86.3555583,65.8192412 C86.5393951,66.1815188 86.5393951,66.3626575 86.5393951,66.7249351 C86.5393951,67.0872126 86.5393951,67.4494902 86.3555583,67.6306289 C86.1717215,67.9929065 86.1717215,68.1740452 85.8040479,68.355184 C85.6202112,68.5363228 85.4363744,68.7174615 85.0687008,68.8986003 C84.7010273,69.0797391 84.5171905,69.0797391 84.149517,69.0797391 L86.3555583,73.4270695 L85.9878847,73.4270695 L83.5980066,69.4420166 Z M80.4727814,64.9135474 L80.4727814,69.0797391 L83.4141698,69.0797391 C83.7818434,69.0797391 84.149517,69.0797391 84.3333537,68.8986003 C84.7010273,68.7174615 84.8848641,68.7174615 85.0687008,68.5363228 C85.2525376,68.355184 85.4363744,68.1740452 85.6202112,67.8117677 C85.8040479,67.4494902 85.8040479,67.2683514 85.8040479,66.9060738 C85.8040479,66.5437963 85.8040479,66.1815188 85.6202112,66.00038 C85.4363744,65.8192412 85.2525376,65.4569637 85.0687008,65.4569637 C84.8848641,65.2758249 84.5171905,65.0946862 84.3333537,65.0946862 C83.9656802,65.0946862 83.7818434,64.9135474 83.4141698,64.9135474 L80.4727814,64.9135474 Z M101.246337,73.789347 L100.878664,73.789347 L100.878664,64.9135474 L98.121112,64.9135474 L98.121112,64.5512699 L104.187726,64.5512699 L104.187726,64.9135474 L101.430174,64.9135474 L101.430174,73.789347 L101.246337,73.789347 Z" id="Shape" fill="#fff" fill-rule="nonzero"></path>
                <path d="M9.12535697,70.1266597 L7.10275338,70.1266597 L7.10275338,74.7084379 L5.63176895,74.7084379 L5.63176895,63.8267148 L9.67697613,63.8267148 C9.86084918,63.8267148 10.0447222,63.8267148 10.2285953,63.8267148 C10.4124683,63.8267148 10.5963414,63.8267148 10.7802145,64.0176222 C10.9640875,64.0176222 11.1479606,64.2085296 11.3318336,64.2085296 C11.5157067,64.3994371 11.6995797,64.3994371 11.8834528,64.5903445 C12.0673258,64.7812519 12.2511989,64.7812519 12.2511989,64.9721593 C12.4350719,65.1630668 12.4350719,65.3539742 12.618945,65.5448816 C12.618945,65.735789 12.802818,65.9266964 12.802818,66.1176039 C12.802818,66.3085113 12.802818,66.4994187 12.802818,66.6903261 C12.802818,66.8812336 12.802818,67.072141 12.802818,67.2630484 C12.802818,67.4539558 12.802818,67.6448632 12.618945,67.8357707 C12.618945,68.0266781 12.4350719,68.2175855 12.4350719,68.4084929 C12.2511989,68.5994004 12.2511989,68.7903078 12.0673258,68.7903078 C11.8834528,68.9812152 11.8834528,68.9812152 11.6995797,69.1721226 C11.5157067,69.36303 11.3318336,69.36303 11.1479606,69.5539375 C10.9640875,69.5539375 10.9640875,69.7448449 10.7802145,69.7448449 L13.1705641,74.5175304 L11.3318336,74.5175304 L9.12535697,70.1266597 Z M7.10275338,65.3539742 L7.10275338,68.5994004 L9.49310308,68.5994004 C9.67697613,68.5994004 9.86084918,68.5994004 9.86084918,68.5994004 C10.0447222,68.5994004 10.0447222,68.5994004 10.2285953,68.5994004 C10.4124683,68.5994004 10.4124683,68.5994004 10.5963414,68.4084929 C10.7802145,68.4084929 10.7802145,68.2175855 10.7802145,68.2175855 C10.7802145,68.2175855 10.9640875,68.0266781 10.9640875,68.0266781 C10.9640875,68.0266781 11.1479606,67.8357707 11.1479606,67.6448632 C11.1479606,67.4539558 11.1479606,67.4539558 11.3318336,67.2630484 C11.3318336,67.072141 11.3318336,67.072141 11.3318336,66.8812336 C11.3318336,66.6903261 11.3318336,66.4994187 11.3318336,66.4994187 C11.3318336,66.3085113 11.3318336,66.3085113 11.1479606,66.1176039 C11.1479606,66.1176039 10.9640875,65.9266964 10.9640875,65.9266964 C10.9640875,65.9266964 10.7802145,65.735789 10.7802145,65.735789 C10.7802145,65.735789 10.5963414,65.5448816 10.5963414,65.5448816 C10.4124683,65.5448816 10.4124683,65.5448816 10.2285953,65.3539742 L10.2285953,65.3539742 C10.0447222,65.3539742 10.0447222,65.3539742 9.86084918,65.3539742 C9.67697613,65.3539742 9.67697613,65.3539742 9.49310308,65.3539742 L7.10275338,65.3539742 L7.10275338,65.3539742 Z M24.9384396,63.8267148 L31.0062503,63.8267148 L31.0062503,65.3539742 L25.8578048,65.3539742 L25.8578048,68.4084929 L30.2707581,68.4084929 L30.2707581,69.9357523 L25.8578048,69.9357523 L25.8578048,73.1811785 L31.0062503,73.1811785 L31.0062503,74.7084379 L24.3868204,74.7084379 L24.3868204,63.8267148 L24.9384396,63.8267148 L24.9384396,63.8267148 Z M45.5322216,74.7084379 C45.1644755,74.7084379 44.9806024,74.7084379 44.6128563,74.7084379 C44.2451102,74.7084379 44.0612371,74.5175304 43.693491,74.5175304 C43.3257449,74.5175304 43.1418719,74.326623 42.9579988,74.1357156 C42.7741258,73.9448082 42.4063797,73.9448082 42.2225066,73.7539008 L41.6708874,73.3720859 L42.4063797,72.035734 L42.7741258,72.4175488 C42.9579988,72.6084562 43.1418719,72.6084562 43.3257449,72.7993636 C43.509618,72.7993636 43.693491,72.9902711 43.8773641,72.9902711 C44.0612371,72.9902711 44.2451102,73.1811785 44.6128563,73.1811785 C44.7967293,73.1811785 44.9806024,73.1811785 45.3483485,73.1811785 C45.5322216,73.1811785 45.7160946,73.1811785 45.8999677,73.1811785 C46.0838407,73.1811785 46.2677138,73.1811785 46.2677138,73.1811785 C46.4515868,73.1811785 46.4515868,73.1811785 46.6354599,72.9902711 C46.8193329,72.9902711 46.8193329,72.7993636 47.003206,72.7993636 C47.003206,72.7993636 47.187079,72.6084562 47.187079,72.6084562 C47.187079,72.6084562 47.3709521,72.4175488 47.3709521,72.4175488 C47.3709521,72.4175488 47.3709521,72.2266414 47.5548252,72.035734 C47.5548252,71.8448265 47.5548252,71.8448265 47.5548252,71.6539191 C47.5548252,71.4630117 47.5548252,71.2721043 47.5548252,71.2721043 C47.5548252,71.0811968 47.5548252,71.0811968 47.3709521,70.8902894 C47.3709521,70.699382 47.187079,70.699382 47.187079,70.699382 C47.187079,70.699382 47.003206,70.5084746 47.003206,70.5084746 C46.8193329,70.5084746 46.8193329,70.3175672 46.6354599,70.3175672 C46.4515868,70.3175672 46.4515868,70.1266597 46.2677138,70.1266597 L45.8999677,69.9357523 L45.5322216,69.9357523 C45.3483485,69.9357523 45.1644755,69.9357523 44.9806024,69.7448449 C44.7967293,69.7448449 44.6128563,69.7448449 44.4289832,69.5539375 C44.2451102,69.5539375 44.0612371,69.36303 43.8773641,69.36303 C43.693491,69.36303 43.509618,69.1721226 43.3257449,69.1721226 C43.1418719,68.9812152 42.9579988,68.9812152 42.9579988,68.7903078 C42.7741258,68.5994004 42.7741258,68.4084929 42.5902527,68.4084929 C42.4063797,68.2175855 42.4063797,68.0266781 42.4063797,67.8357707 C42.4063797,67.6448632 42.4063797,67.4539558 42.4063797,67.072141 C42.4063797,66.6903261 42.4063797,66.1176039 42.5902527,65.735789 C42.7741258,65.3539742 42.9579988,64.9721593 43.3257449,64.7812519 C43.8773641,64.2085296 44.7967293,63.8267148 45.7160946,63.8267148 C46.2677138,63.8267148 46.6354599,63.8267148 47.187079,64.0176222 C47.3709521,64.0176222 47.7386982,64.2085296 47.9225713,64.2085296 C48.1064443,64.2085296 48.2903174,64.3994371 48.4741904,64.5903445 L49.0258096,64.7812519 L48.2903174,66.1176039 L47.7386982,65.9266964 C47.5548252,65.9266964 47.3709521,65.735789 47.187079,65.735789 C47.003206,65.735789 46.8193329,65.5448816 46.6354599,65.5448816 C46.4515868,65.5448816 46.2677138,65.5448816 46.0838407,65.3539742 C45.8999677,65.3539742 45.7160946,65.3539742 45.5322216,65.3539742 C45.3483485,65.3539742 45.3483485,65.3539742 45.1644755,65.3539742 C44.9806024,65.3539742 44.9806024,65.3539742 44.7967293,65.3539742 C44.6128563,65.3539742 44.6128563,65.3539742 44.4289832,65.5448816 C44.2451102,65.5448816 44.2451102,65.735789 44.0612371,65.735789 C44.0612371,65.735789 43.8773641,65.9266964 43.8773641,65.9266964 C43.8773641,65.9266964 43.693491,66.1176039 43.693491,66.1176039 C43.693491,66.1176039 43.693491,66.3085113 43.509618,66.4994187 C43.509618,66.6903261 43.509618,66.6903261 43.509618,66.8812336 C43.509618,67.2630484 43.509618,67.4539558 43.693491,67.4539558 C43.693491,67.4539558 43.8773641,67.6448632 43.8773641,67.6448632 C43.8773641,67.6448632 44.0612371,67.8357707 44.0612371,67.8357707 C44.0612371,67.8357707 44.2451102,68.0266781 44.4289832,68.0266781 C44.6128563,68.0266781 44.6128563,68.0266781 44.7967293,68.2175855 L45.5322216,68.4084929 C45.7160946,68.4084929 45.8999677,68.4084929 46.0838407,68.5994004 C46.2677138,68.5994004 46.4515868,68.7903078 46.6354599,68.7903078 C46.8193329,68.7903078 47.003206,68.9812152 47.187079,68.9812152 C47.3709521,69.1721226 47.5548252,69.1721226 47.7386982,69.36303 C47.9225713,69.5539375 48.1064443,69.5539375 48.2903174,69.7448449 C48.4741904,69.9357523 48.4741904,70.1266597 48.6580635,70.3175672 C48.8419365,70.5084746 48.8419365,70.699382 48.8419365,71.0811968 C48.8419365,71.2721043 48.8419365,71.6539191 48.8419365,71.8448265 C48.8419365,72.7993636 48.4741904,73.5629933 47.7386982,74.1357156 C47.3709521,74.326623 47.003206,74.7084379 46.6354599,74.7084379 C46.4515868,74.7084379 46.0838407,74.7084379 45.5322216,74.7084379 Z M63.9195269,63.8267148 C64.4711461,63.8267148 65.0227652,64.0176222 65.3905113,64.2085296 C65.5743844,64.3994371 65.7582574,64.3994371 65.9421305,64.5903445 C66.1260036,64.7812519 66.3098766,64.9721593 66.4937497,65.1630668 C66.6776227,65.3539742 66.8614958,65.5448816 66.8614958,65.735789 C67.0453688,65.9266964 67.0453688,66.1176039 67.2292419,66.4994187 C67.2292419,66.6903261 67.4131149,67.072141 67.4131149,67.2630484 C67.4131149,67.4539558 67.4131149,67.8357707 67.4131149,68.0266781 L67.4131149,71.0811968 C67.4131149,71.2721043 67.4131149,71.6539191 67.4131149,71.8448265 C67.4131149,72.035734 67.2292419,72.4175488 67.2292419,72.6084562 C67.2292419,72.7993636 67.0453688,73.1811785 66.8614958,73.3720859 C66.6776227,73.5629933 66.6776227,73.7539008 66.4937497,73.9448082 C66.3098766,74.1357156 66.1260036,74.326623 65.9421305,74.5175304 C65.7582574,74.7084379 65.5743844,74.7084379 65.2066383,74.8993453 C65.0227652,74.8993453 64.6550191,75.0902527 64.4711461,75.0902527 C64.287273,75.0902527 63.9195269,75.0902527 63.7356539,75.0902527 C63.3679078,75.0902527 63.1840347,75.0902527 62.8162886,75.0902527 C62.4485425,75.0902527 62.2646694,74.8993453 62.0807964,74.8993453 C61.8969233,74.7084379 61.7130503,74.7084379 61.3453042,74.5175304 C61.1614311,74.326623 60.9775581,74.1357156 60.793685,73.9448082 C60.609812,73.7539008 60.4259389,73.5629933 60.4259389,73.3720859 C60.2420658,73.1811785 60.2420658,72.9902711 60.0581928,72.6084562 C60.0581928,72.4175488 59.8743197,72.035734 59.8743197,71.8448265 C59.8743197,71.6539191 59.8743197,71.2721043 59.8743197,71.0811968 L59.8743197,68.0266781 C59.8743197,67.8357707 59.8743197,67.4539558 59.8743197,67.2630484 C59.8743197,67.072141 60.0581928,66.6903261 60.0581928,66.4994187 C60.0581928,66.3085113 60.2420658,66.1176039 60.4259389,65.735789 C60.609812,65.5448816 60.609812,65.3539742 60.793685,65.1630668 C60.9775581,64.9721593 61.1614311,64.7812519 61.3453042,64.5903445 C61.5291772,64.3994371 61.7130503,64.3994371 62.0807964,64.2085296 C62.2646694,64.0176222 62.6324155,64.0176222 62.8162886,64.0176222 C63.3679078,63.8267148 63.5517808,63.8267148 63.9195269,63.8267148 Z M63.9195269,65.3539742 C63.7356539,65.3539742 63.5517808,65.3539742 63.3679078,65.3539742 C63.1840347,65.3539742 63.0001616,65.3539742 63.0001616,65.5448816 C62.8162886,65.5448816 62.8162886,65.735789 62.6324155,65.735789 C62.4485425,65.735789 62.4485425,65.9266964 62.2646694,66.1176039 C62.0807964,66.3085113 62.0807964,66.3085113 62.0807964,66.4994187 C62.0807964,66.6903261 61.8969233,66.6903261 61.8969233,66.8812336 C61.8969233,67.072141 61.8969233,67.2630484 61.7130503,67.4539558 C61.7130503,67.6448632 61.7130503,67.8357707 61.7130503,68.0266781 L61.7130503,71.0811968 C61.7130503,71.2721043 61.7130503,71.4630117 61.7130503,71.6539191 C61.7130503,71.8448265 61.7130503,72.035734 61.8969233,72.2266414 C61.8969233,72.4175488 62.0807964,72.6084562 62.0807964,72.6084562 C62.0807964,72.7993636 62.2646694,72.7993636 62.2646694,72.9902711 C62.2646694,73.1811785 62.4485425,73.1811785 62.6324155,73.3720859 C62.8162886,73.3720859 62.8162886,73.5629933 63.0001616,73.5629933 C63.1840347,73.5629933 63.3679078,73.7539008 63.3679078,73.7539008 C63.5517808,73.7539008 63.7356539,73.7539008 63.9195269,73.7539008 C64.287273,73.7539008 64.6550191,73.7539008 64.8388922,73.5629933 C65.0227652,73.5629933 65.0227652,73.3720859 65.2066383,73.3720859 C65.3905113,73.3720859 65.3905113,73.1811785 65.5743844,72.9902711 C65.7582574,72.7993636 65.7582574,72.7993636 65.7582574,72.6084562 C65.7582574,72.4175488 65.9421305,72.4175488 65.9421305,72.2266414 C65.9421305,72.035734 65.9421305,71.8448265 66.1260036,71.6539191 C66.1260036,71.4630117 66.1260036,71.2721043 66.1260036,71.0811968 L66.1260036,68.2175855 C66.1260036,68.0266781 66.1260036,67.8357707 66.1260036,67.6448632 C66.1260036,67.4539558 66.1260036,67.2630484 65.9421305,67.072141 C65.9421305,66.8812336 65.7582574,66.6903261 65.7582574,66.6903261 C65.7582574,66.4994187 65.5743844,66.4994187 65.5743844,66.3085113 C65.5743844,66.1176039 65.3905113,66.1176039 65.2066383,66.1176039 C65.0227652,66.1176039 65.0227652,65.9266964 64.8388922,65.9266964 C64.6550191,65.9266964 64.4711461,65.735789 64.4711461,65.735789 C64.287273,65.3539742 64.1034,65.3539742 63.9195269,65.3539742 Z M82.8584514,70.1266597 L80.8358478,70.1266597 L80.8358478,74.7084379 L79.3648634,74.7084379 L79.3648634,63.8267148 L83.4100706,63.8267148 C83.5939436,63.8267148 83.7778167,63.8267148 83.9616897,63.8267148 C84.1455628,63.8267148 84.3294359,63.8267148 84.5133089,64.0176222 C84.697182,64.0176222 84.881055,64.2085296 85.0649281,64.2085296 C85.2488011,64.3994371 85.4326742,64.3994371 85.6165472,64.5903445 C85.8004203,64.7812519 85.9842933,64.7812519 85.9842933,64.9721593 C86.1681664,65.1630668 86.1681664,65.3539742 86.3520394,65.5448816 C86.3520394,65.735789 86.5359125,65.9266964 86.5359125,66.1176039 C86.5359125,66.3085113 86.5359125,66.4994187 86.5359125,66.6903261 C86.5359125,66.8812336 86.5359125,67.072141 86.5359125,67.2630484 C86.5359125,67.4539558 86.5359125,67.6448632 86.3520394,67.8357707 C86.3520394,68.0266781 86.1681664,68.2175855 86.1681664,68.4084929 C85.9842933,68.5994004 85.9842933,68.7903078 85.8004203,68.7903078 C85.6165472,68.9812152 85.6165472,68.9812152 85.4326742,69.1721226 C85.2488011,69.36303 85.0649281,69.36303 84.881055,69.5539375 C84.697182,69.5539375 84.697182,69.7448449 84.5133089,69.7448449 L86.9036586,74.5175304 L85.2488011,74.5175304 L82.8584514,70.1266597 Z M80.6519748,65.3539742 L80.6519748,68.5994004 L83.0423245,68.5994004 C83.2261975,68.5994004 83.4100706,68.5994004 83.4100706,68.5994004 C83.5939436,68.5994004 83.5939436,68.5994004 83.7778167,68.5994004 C83.9616897,68.5994004 83.9616897,68.5994004 84.1455628,68.4084929 C84.3294359,68.4084929 84.3294359,68.2175855 84.3294359,68.2175855 C84.3294359,68.2175855 84.5133089,68.0266781 84.5133089,68.0266781 C84.5133089,68.0266781 84.697182,67.8357707 84.697182,67.6448632 C84.697182,67.4539558 84.697182,67.4539558 84.881055,67.2630484 C84.881055,67.072141 84.881055,67.072141 84.881055,66.8812336 C84.881055,66.6903261 84.881055,66.3085113 84.697182,66.1176039 C84.697182,65.9266964 84.5133089,65.9266964 84.5133089,65.9266964 C84.5133089,65.9266964 84.3294359,65.735789 84.3294359,65.735789 L84.3294359,65.735789 C84.3294359,65.735789 84.1455628,65.5448816 84.1455628,65.5448816 C83.9616897,65.5448816 83.9616897,65.5448816 83.7778167,65.3539742 L83.7778167,65.3539742 C83.5939436,65.3539742 83.5939436,65.3539742 83.4100706,65.3539742 C83.2261975,65.3539742 83.2261975,65.3539742 83.0423245,65.3539742 L80.6519748,65.3539742 L80.6519748,65.3539742 Z M100.878011,74.7084379 L99.9586454,74.7084379 L99.9586454,65.3539742 L97.0166765,65.3539742 L97.0166765,63.8267148 L104.187726,63.8267148 L104.187726,65.3539742 L101.42963,65.3539742 L101.42963,74.7084379 L100.878011,74.7084379 Z" id="Shape" fill="#fff" fill-rule="nonzero"></path>
                <path d="M117.511432,72.2972616 C129.766546,66.8028529 140.741276,64.0556485 151.533093,63.8725015 C162.507822,63.6893546 173.482551,66.253412 185.920578,71.9309677 C199.273165,77.7916703 210.979543,80.7220217 222.868833,80.7220217 C234.758123,80.7220217 246.647413,77.9748173 260,72.6635555 C260,70.648939 260,69.1837633 260,67.1691468 C247.379061,72.4804086 235.855596,75.4107599 224.33213,75.4107599 C212.808664,75.4107599 201.285199,72.6635555 188.481348,66.8028529 C175.860409,60.9421502 164.519856,58.1949458 152.99639,58.1949458 C141.472924,58.1949458 130.132371,61.1252972 117.32852,66.436559 L117.32852,69.1837633 L117.511432,72.2972616 Z" id="Path" fill="#039CA8" fill-rule="nonzero"></path>
            </g>
        </g>
    </g>
</svg>