<svg xmlns="http://www.w3.org/2000/svg" xmlns:xlink="http://www.w3.org/1999/xlink">
 
  <symbol id="eye-2" xmlns="http://www.w3.org/2000/svg" viewBox="0 0 512 512" xmlns:xlink="http://www.w3.org/1999/xlink"><g><path d="m496.4,243.1c-63.9-78.7-149.3-122.1-240.4-122.1-91.1,0-176.5,43.4-240.4,122.1-6.1,7.5-6.1,18.2 0,25.7 63.9,78.8 149.3,122.2 240.4,122.2 91.1,0 176.5-43.4 240.4-122.1 6.1-7.5 6.1-18.3 0-25.8zm-240.4,79.8c-36.9,0-66.9-30-66.9-66.9 0-36.9 30-66.9 66.9-66.9 36.9,0 66.9,30 66.9,66.9 0,36.9-30,66.9-66.9,66.9zm-197.8-66.9c37.8-42.2 82.9-71.1 131.5-84.9-25.2,19.7-41.5,50.4-41.5,84.9 0,34.4 16.2,65.1 41.5,84.9-48.6-13.8-93.6-42.7-131.5-84.9zm264.1,84.9c25.2-19.7 41.5-50.4 41.5-84.9 0-34.4-16.2-65.1-41.5-84.9 48.6,13.8 93.7,42.7 131.5,84.9-37.9,42.2-82.9,71.1-131.5,84.9z"></path></g>
  </symbol>

<symbol id="eye" viewBox="0 0 23 19" xmlns="http://www.w3.org/2000/svg">
  <path d="M22.4102 9.20605C22.4102 9.60605 22.3102 10.1061 22.0102 10.4061C21.4102 11.2061 20.4102 12.4061 19.2102 13.5061L17.8102 12.1061C18.7102 11.3061 19.6102 10.4061 20.5102 9.20605C17.6102 5.50605 14.7102 3.70605 11.4102 3.70605C10.8102 3.70605 10.1102 3.80605 9.51016 3.90605L7.91016 2.30605C9.01016 1.90605 10.1102 1.70605 11.4102 1.70605C16.9102 1.70605 20.4102 5.90605 22.0102 8.00605C22.3102 8.30606 22.4102 8.80606 22.4102 9.20605ZM15.8102 10.2061C15.9102 9.90605 15.9102 9.60605 15.9102 9.20605C15.9102 6.70605 13.9102 4.70605 11.4102 4.70605C11.1102 4.70605 10.7102 4.70605 10.4102 4.80605L15.8102 10.2061ZM20.1102 18.4061C19.7102 18.8061 19.1102 18.8061 18.7102 18.4061C17.9102 17.6061 17.0102 16.7061 16.0102 15.7061C14.7102 16.3061 13.2102 16.7061 11.4102 16.7061C5.91016 16.7061 2.41016 12.5061 0.810156 10.4061C0.510156 10.1061 0.410156 9.60605 0.410156 9.20605C0.410156 8.80606 0.510156 8.30606 0.810156 8.00605C1.61016 7.00605 2.81016 5.50605 4.51016 4.20605C3.81016 3.50605 3.21016 2.90605 2.71016 2.40605C2.31016 2.00605 2.31016 1.40605 2.71016 1.00605C3.11016 0.606055 3.71016 0.606055 4.11016 1.00605C8.11016 5.00605 16.1102 13.0061 20.1102 17.0061C20.5102 17.4061 20.5102 18.0061 20.1102 18.4061ZM11.9102 11.6061C10.9102 10.6061 9.91016 9.60605 8.91016 8.60605C8.61016 10.5061 10.1102 12.0061 11.9102 11.6061ZM14.4102 14.1061C14.1102 13.8061 13.8102 13.5061 13.4102 13.1061C12.8102 13.5061 12.1102 13.7061 11.4102 13.7061C8.91016 13.7061 6.91016 11.7061 6.91016 9.20605C6.91016 8.50605 7.11016 7.80605 7.41016 7.10605C6.91016 6.60605 6.41016 6.10605 5.91016 5.60605C4.71016 6.50605 3.51016 7.70605 2.41016 9.20605C5.21016 12.9061 8.11016 14.7061 11.4102 14.7061C12.4102 14.7061 13.4102 14.5061 14.4102 14.1061Z"/>
</symbol>


</svg>
