<svg width="24" height="24" viewBox="0 0 24 24" fill="none" xmlns="http://www.w3.org/2000/svg">
<path d="M21.4219 16.883L21.9509 17.415L21.4209 16.883H21.4219ZM8.81593 14.727L9.34393 14.195L8.81493 14.727H8.81593ZM4.68993 4.13501L4.16193 3.60401L4.69093 4.13601L4.68993 4.13501ZM16.6279 13.891L17.0849 13.438L16.0259 12.374L15.5719 12.827L16.6279 13.891ZM18.6139 13.248L20.5249 14.287L21.2399 12.969L19.3299 11.931L18.6139 13.248ZM20.8919 16.351L19.4719 17.764L20.5289 18.827L21.9489 17.415L20.8919 16.351ZM18.6059 18.218C17.1559 18.354 13.4059 18.233 9.34393 14.195L8.28593 15.258C12.7179 19.665 16.9369 19.881 18.7459 19.712L18.6049 18.218H18.6059ZM9.34393 14.195C5.47293 10.345 4.83093 7.10801 4.75093 5.70301L3.25293 5.78801C3.35293 7.55601 4.14793 11.144 8.28593 15.258L9.34393 14.195ZM10.7189 8.01501L11.0059 7.72901L9.94993 6.66601L9.66293 6.95101L10.7199 8.01401L10.7189 8.01501ZM11.2339 4.09401L9.97393 2.41001L8.77293 3.31001L10.0329 4.99301L11.2339 4.09401ZM5.73293 2.04301L4.16293 3.60301L5.22093 4.66701L6.78993 3.10701L5.73293 2.04301ZM10.1909 7.48301C9.66093 6.95101 9.66093 6.95101 9.66093 6.95301H9.65893L9.65593 6.95701C9.60871 7.00519 9.56619 7.05776 9.52893 7.11401C9.47493 7.19401 9.41593 7.29901 9.36593 7.43201C9.24416 7.77532 9.21383 8.14442 9.27793 8.50301C9.41193 9.36801 10.0079 10.511 11.5339 12.029L12.5919 10.965C11.1629 9.54501 10.8229 8.68101 10.7599 8.27301C10.7299 8.07901 10.7609 7.98301 10.7699 7.96101C10.7749 7.94701 10.7769 7.94601 10.7699 7.95501C10.7611 7.96887 10.7511 7.98192 10.7399 7.99401L10.7299 8.00401C10.7267 8.00711 10.7234 8.01012 10.7199 8.01301L10.1899 7.48301H10.1909ZM11.5339 12.029C13.0609 13.547 14.2099 14.139 15.0759 14.271C15.5189 14.339 15.8759 14.285 16.1469 14.184C16.2985 14.1279 16.4402 14.0483 16.5669 13.948C16.5841 13.9336 16.6008 13.9186 16.6169 13.903L16.6239 13.897L16.6269 13.894L16.6279 13.892C16.6279 13.892 16.6289 13.891 16.0999 13.359C15.5699 12.827 15.5729 12.826 15.5729 12.826L15.5749 12.824L15.5769 12.822L15.5829 12.817L15.5929 12.807C15.605 12.7962 15.6176 12.7862 15.6309 12.777C15.6409 12.77 15.6379 12.773 15.6239 12.779C15.5989 12.788 15.5009 12.819 15.3039 12.789C14.8899 12.725 14.0199 12.385 12.5919 10.965L11.5339 12.029ZM9.97393 2.40901C8.95393 1.04901 6.94993 0.833006 5.73293 2.04301L6.78993 3.10701C7.32193 2.57801 8.26593 2.63301 8.77293 3.31001L9.97293 2.40901H9.97393ZM4.75193 5.70401C4.73193 5.35801 4.89093 4.99601 5.22093 4.66801L4.16193 3.60401C3.62493 4.13801 3.20193 4.89401 3.25293 5.78801L4.75193 5.70401ZM19.4719 17.764C19.1979 18.038 18.9019 18.192 18.6069 18.219L18.7459 19.712C19.4809 19.643 20.0819 19.273 20.5299 18.828L19.4719 17.764ZM11.0059 7.72901C11.9909 6.75001 12.0639 5.20301 11.2349 4.09501L10.0339 4.99401C10.4369 5.53301 10.3769 6.24001 9.94893 6.66701L11.0059 7.72901ZM20.5259 14.288C21.3429 14.732 21.4699 15.778 20.8929 16.352L21.9509 17.415C23.2909 16.082 22.8779 13.859 21.2409 12.97L20.5259 14.288ZM17.0849 13.439C17.4689 13.057 18.0869 12.963 18.6149 13.249L19.3309 11.932C18.2469 11.342 16.9029 11.505 16.0269 12.375L17.0849 13.439Z" fill="#434650"/>
</svg>
