<svg xmlns="http://www.w3.org/2000/svg" xmlns:xlink="http://www.w3.org/1999/xlink">
 
<symbol id="mail" viewBox="0 0 22 16" fill="none" xmlns="http://www.w3.org/2000/svg">
  <path d="M6 5L11 8.5L16 5" stroke="#fff" stroke-width="1.5" stroke-linecap="round" stroke-linejoin="round"/>
  <path d="M1 13V3C1 2.46957 1.21071 1.96086 1.58579 1.58579C1.96086 1.21071 2.46957 1 3 1H19C19.5304 1 20.0391 1.21071 20.4142 1.58579C20.7893 1.96086 21 2.46957 21 3V13C21 13.5304 20.7893 14.0391 20.4142 14.4142C20.0391 14.7893 19.5304 15 19 15H3C2.46957 15 1.96086 14.7893 1.58579 14.4142C1.21071 14.0391 1 13.5304 1 13Z" stroke="#fff" stroke-width="1.5"/>
</symbol>


  <symbol id="phone" viewBox="0 0 20 19" fill="none" xmlns="http://www.w3.org/2000/svg">
  <path fill-rule="evenodd" clip-rule="evenodd" d="M2.73303 1.04305C3.95003 -0.166948 5.95403 0.0480527 6.97303 1.41005L8.23503 3.09405C9.06503 4.20205 8.99103 5.75005 8.00603 6.72905L7.76803 6.96705C7.74115 7.06698 7.73841 7.17186 7.76003 7.27305C7.82303 7.68105 8.16403 8.54505 9.59203 9.96505C11.02 11.3851 11.89 11.7251 12.304 11.7891C12.4082 11.8112 12.5162 11.8081 12.619 11.7801L13.027 11.3741C13.903 10.5041 15.247 10.3411 16.331 10.9301L18.241 11.9701C19.878 12.8581 20.291 15.0821 18.951 16.4151L17.53 17.8271C17.082 18.2721 16.48 18.6431 15.746 18.7121C13.936 18.8811 9.71903 18.6651 5.28603 14.2581C1.14903 10.1441 0.355027 6.55605 0.254027 4.78805C0.204027 3.89405 0.626027 3.13805 1.16403 2.60405L2.73303 1.04305ZM5.77303 2.30905C5.26603 1.63205 4.32203 1.57805 3.79003 2.10705L2.22003 3.66705C1.89003 3.99505 1.73203 4.35705 1.75203 4.70305C1.83203 6.10805 2.47203 9.34505 6.34403 13.1951C10.406 17.2331 14.157 17.3541 15.607 17.2181C15.903 17.1911 16.197 17.0371 16.472 16.7641L17.892 15.3511C18.47 14.7771 18.343 13.7311 17.525 13.2871L15.615 12.2481C15.087 11.9621 14.469 12.0561 14.085 12.4381L13.63 12.8911L13.1 12.3591C13.63 12.8911 13.629 12.8921 13.628 12.8921L13.627 12.8941L13.624 12.8971L13.617 12.9031L13.602 12.9171C13.5595 12.9559 13.514 12.9913 13.466 13.0231C13.386 13.0761 13.28 13.1351 13.147 13.1841C12.877 13.2851 12.519 13.3391 12.077 13.2711C11.21 13.1381 10.061 12.5471 8.53403 11.0291C7.00803 9.51105 6.41203 8.36905 6.27803 7.50305C6.20903 7.06105 6.26403 6.70305 6.36603 6.43305C6.42259 6.28132 6.50293 6.13955 6.60403 6.01305L6.63603 5.97805L6.65003 5.96305L6.65603 5.95705L6.65903 5.95405L6.66103 5.95205L6.94903 5.66605C7.37703 5.23905 7.43703 4.53205 7.03403 3.99305L5.77303 2.30905Z" fill="#fff"/>
  </symbol>
 
  <symbol id="geo" viewBox="0 0 16 20" fill="none" xmlns="http://www.w3.org/2000/svg">
   <path d="M8 0C5.87827 0 3.84344 0.842855 2.34315 2.34315C0.842855 3.84344 0 5.87827 0 8C0 13.4 7.05 19.5 7.35 19.76C7.53113 19.9149 7.76165 20.0001 8 20.0001C8.23835 20.0001 8.46887 19.9149 8.65 19.76C9 19.5 16 13.4 16 8C16 5.87827 15.1571 3.84344 13.6569 2.34315C12.1566 0.842855 10.1217 0 8 0ZM8 17.65C5.87 15.65 2 11.34 2 8C2 6.4087 2.63214 4.88258 3.75736 3.75736C4.88258 2.63214 6.4087 2 8 2C9.5913 2 11.1174 2.63214 12.2426 3.75736C13.3679 4.88258 14 6.4087 14 8C14 11.34 10.13 15.66 8 17.65ZM8 4C7.20887 4 6.43552 4.2346 5.77772 4.67412C5.11992 5.11365 4.60723 5.73836 4.30448 6.46927C4.00173 7.20017 3.92252 8.00444 4.07686 8.78036C4.2312 9.55628 4.61216 10.269 5.17157 10.8284C5.73098 11.3878 6.44371 11.7688 7.21964 11.9231C7.99556 12.0775 8.79983 11.9983 9.53073 11.6955C10.2616 11.3928 10.8864 10.8801 11.3259 10.2223C11.7654 9.56448 12 8.79113 12 8C12 6.93913 11.5786 5.92172 10.8284 5.17157C10.0783 4.42143 9.06087 4 8 4ZM8 10C7.60444 10 7.21776 9.8827 6.88886 9.66294C6.55996 9.44318 6.30362 9.13082 6.15224 8.76537C6.00087 8.39991 5.96126 7.99778 6.03843 7.60982C6.1156 7.22186 6.30608 6.86549 6.58579 6.58579C6.86549 6.30608 7.22186 6.1156 7.60982 6.03843C7.99778 5.96126 8.39991 6.00087 8.76537 6.15224C9.13082 6.30362 9.44318 6.55996 9.66294 6.88886C9.8827 7.21776 10 7.60444 10 8C10 8.53043 9.78929 9.03914 9.41421 9.41421C9.03914 9.78929 8.53043 10 8 10Z" fill="#fff"/>
  </symbol>

  <symbol id="facebook" xmlns="http://www.w3.org/2000/svg" xmlns:xlink="http://www.w3.org/1999/xlink" x="0px" y="0px" viewBox="0 0 291.319 291.319" style="enable-background:new 0 0 291.319 291.319;" xml:space="preserve">
    <g><path style="fill:#3B5998;" d="M145.659,0c80.45,0,145.66,65.219,145.66,145.66c0,80.45-65.21,145.659-145.66,145.659 S0,226.109,0,145.66C0,65.219,65.21,0,145.659,0z"></path><path style="fill:#FFFFFF;" d="M163.394,100.277h18.772v-27.73h-22.067v0.1c-26.738,0.947-32.218,15.977-32.701,31.763h-0.055 v13.847h-18.207v27.156h18.207v72.793h27.439v-72.793h22.477l4.342-27.156h-26.81v-8.366 C154.791,104.556,158.341,100.277,163.394,100.277z"></path></g>
  </symbol>

  <symbol id="linkedin" xmlns="http://www.w3.org/2000/svg" xmlns:xlink="http://www.w3.org/1999/xlink" x="0px" y="0px" viewBox="0 0 112.196 112.196" style="enable-background:new 0 0 112.196 112.196;" xml:space="preserve">
    <g><circle style="fill:#007AB9;" cx="56.098" cy="56.097" r="56.098"></circle><g><path style="fill:#F1F2F2;" d="M89.616,60.611v23.128H76.207V62.161c0-5.418-1.936-9.118-6.791-9.118 c-3.705,0-5.906,2.491-6.878,4.903c-0.353,0.862-0.444,2.059-0.444,3.268v22.524H48.684c0,0,0.18-36.546,0-40.329h13.411v5.715 c-0.027,0.045-0.065,0.089-0.089,0.132h0.089v-0.132c1.782-2.742,4.96-6.662,12.085-6.662 C83.002,42.462,89.616,48.226,89.616,60.611L89.616,60.611z M34.656,23.969c-4.587,0-7.588,3.011-7.588,6.967 c0,3.872,2.914,6.97,7.412,6.97h0.087c4.677,0,7.585-3.098,7.585-6.97C42.063,26.98,39.244,23.969,34.656,23.969L34.656,23.969z M27.865,83.739H41.27V43.409H27.865V83.739z"></path></g></g>
  </symbol>

  <symbol  id="twitter" xmlns="http://www.w3.org/2000/svg" xmlns:xlink="http://www.w3.org/1999/xlink" x="0px" y="0px" viewBox="0 0 112.197 112.197" style="enable-background:new 0 0 112.197 112.197;" xml:space="preserve"><g><circle style="fill:#55ACEE;" cx="56.099" cy="56.098" r="56.098"></circle><g><path style="fill:#F1F2F2;" d="M90.461,40.316c-2.404,1.066-4.99,1.787-7.702,2.109c2.769-1.659,4.894-4.284,5.897-7.417 c-2.591,1.537-5.462,2.652-8.515,3.253c-2.446-2.605-5.931-4.233-9.79-4.233c-7.404,0-13.409,6.005-13.409,13.409 c0,1.051,0.119,2.074,0.349,3.056c-11.144-0.559-21.025-5.897-27.639-14.012c-1.154,1.98-1.816,4.285-1.816,6.742 c0,4.651,2.369,8.757,5.965,11.161c-2.197-0.069-4.266-0.672-6.073-1.679c-0.001,0.057-0.001,0.114-0.001,0.17 c0,6.497,4.624,11.916,10.757,13.147c-1.124,0.308-2.311,0.471-3.532,0.471c-0.866,0-1.705-0.083-2.523-0.239 c1.706,5.326,6.657,9.203,12.526,9.312c-4.59,3.597-10.371,5.74-16.655,5.74c-1.08,0-2.15-0.063-3.197-0.188 c5.931,3.806,12.981,6.025,20.553,6.025c24.664,0,38.152-20.432,38.152-38.153c0-0.581-0.013-1.16-0.039-1.734 C86.391,45.366,88.664,43.005,90.461,40.316L90.461,40.316z"></path></g></g>
  </symbol>

  <symbol id="glass" xmlns="http://www.w3.org/2000/svg" xmlns:xlink="http://www.w3.org/1999/xlink" x="0px" y="0px" viewBox="0 0 442.04 442.04" style="enable-background:new 0 0 442.04 442.04;" xml:space="preserve">
    <g><g><path d="M221.02,341.304c-49.708,0-103.206-19.44-154.71-56.22C27.808,257.59,4.044,230.351,3.051,229.203 c-4.068-4.697-4.068-11.669,0-16.367c0.993-1.146,24.756-28.387,63.259-55.881c51.505-36.777,105.003-56.219,154.71-56.219 c49.708,0,103.207,19.441,154.71,56.219c38.502,27.494,62.266,54.734,63.259,55.881c4.068,4.697,4.068,11.669,0,16.367 c-0.993,1.146-24.756,28.387-63.259,55.881C324.227,321.863,270.729,341.304,221.02,341.304z M29.638,221.021 c9.61,9.799,27.747,27.03,51.694,44.071c32.83,23.361,83.714,51.212,139.688,51.212s106.859-27.851,139.688-51.212 c23.944-17.038,42.082-34.271,51.694-44.071c-9.609-9.799-27.747-27.03-51.694-44.071 c-32.829-23.362-83.714-51.212-139.688-51.212s-106.858,27.85-139.688,51.212C57.388,193.988,39.25,211.219,29.638,221.021z"></path></g><g><path d="M221.02,298.521c-42.734,0-77.5-34.767-77.5-77.5c0-42.733,34.766-77.5,77.5-77.5c18.794,0,36.924,6.814,51.048,19.188 c5.193,4.549,5.715,12.446,1.166,17.639c-4.549,5.193-12.447,5.714-17.639,1.166c-9.564-8.379-21.844-12.993-34.576-12.993 c-28.949,0-52.5,23.552-52.5,52.5s23.551,52.5,52.5,52.5c28.95,0,52.5-23.552,52.5-52.5c0-6.903,5.597-12.5,12.5-12.5 s12.5,5.597,12.5,12.5C298.521,263.754,263.754,298.521,221.02,298.521z"></path></g><g><path d="M221.02,246.021c-13.785,0-25-11.215-25-25s11.215-25,25-25c13.786,0,25,11.215,25,25S234.806,246.021,221.02,246.021z"></path></g></g>
  </symbol>

  <symbol id="no-glass" enable-background="new 0 0 32 32" viewBox="0 0 32 32" xmlns="http://www.w3.org/2000/svg">
    <path id="XMLID_196_" d="m24.687 23.273c2.404-1.692 4.274-4.086 5.259-6.948.072-.21.072-.44 0-.65-1.992-5.787-7.596-9.675-13.946-9.675-2.479 0-4.84.599-6.92 1.665l-5.373-5.372c-.391-.391-1.023-.391-1.414 0s-.391 1.023 0 1.414l5.02 5.02c-2.404 1.692-4.274 4.086-5.259 6.948-.072.21-.072.44 0 .65 2.882 8.374 12.886 12.099 20.866 8.009l5.372 5.372c.391.391 1.023.391 1.414 0s.391-1.023 0-1.414zm-8.687-15.273c5.376 0 10.128 3.2 11.937 8-.913 2.421-2.575 4.433-4.688 5.835l-2.364-2.364c.699-.981 1.115-2.177 1.115-3.471 0-3.309-2.691-6-6-6-1.294 0-2.49.416-3.471 1.115l-1.952-1.952c1.658-.747 3.499-1.163 5.423-1.163zm-3.433 5.981 5.452 5.452c-.595.352-1.279.567-2.019.567-2.206 0-4-1.794-4-4 0-.74.215-1.424.567-2.019zm1.414-1.414c.595-.352 1.279-.567 2.019-.567 2.206 0 4 1.794 4 4 0 .74-.215 1.424-.567 2.019zm-9.918 3.433c.913-2.421 2.575-4.433 4.688-5.835l2.364 2.364c-.699.981-1.115 2.177-1.115 3.471 0 3.309 2.691 6 6 6 1.294 0 2.49-.416 3.471-1.115l1.952 1.952c-6.738 3.034-14.812-.075-17.36-6.837z"></path>
  </symbol>

</svg>
