<svg width="25" height="24" viewBox="0 0 25 24" fill="none" xmlns="http://www.w3.org/2000/svg">
<path d="M3.19485 2.23779L20.465 19.508C20.7927 19.8357 20.9768 20.2801 20.9768 20.7436C20.9768 21.207 20.7927 21.6515 20.465 21.9792C20.1372 22.3068 19.6928 22.4908 19.2294 22.4908C18.766 22.4908 18.3215 22.3068 17.9938 21.9792L13.775 17.6878C13.4989 17.4074 13.344 17.0299 13.3438 16.6364V16.3772C13.3438 16.1785 13.3044 15.9818 13.2278 15.7985C13.1512 15.6152 13.0389 15.4489 12.8975 15.3094L12.3528 14.8064C12.1679 14.6358 11.9431 14.5144 11.699 14.4535C11.4549 14.3925 11.1993 14.394 10.9559 14.4576C10.5721 14.5578 10.1688 14.5559 9.78592 14.452C9.40307 14.3482 9.05403 14.146 8.77344 13.8656L4.76891 9.86061C2.39328 7.48498 1.51907 3.89764 3.19485 2.23779Z" stroke="#434650" stroke-width="2" stroke-linejoin="round"/>
<path d="M19.25 1.5L15.6289 5.12109C15.3503 5.39968 15.1292 5.73043 14.9784 6.09445C14.8276 6.45847 14.75 6.84863 14.75 7.24266V7.93922C14.75 8.03777 14.7306 8.13536 14.6929 8.22641C14.6552 8.31746 14.5999 8.40018 14.5302 8.46984L14 9M15.5 10.5L16.0302 9.96984C16.0998 9.90013 16.1825 9.84484 16.2736 9.80711C16.3646 9.76939 16.4622 9.74998 16.5608 9.75H17.2573C17.6514 9.75 18.0415 9.67238 18.4055 9.52158C18.7696 9.37078 19.1003 9.14974 19.3789 8.87109L23 5.25M21.125 3.375L17.375 7.125M9.875 17.25L5.20062 21.9506C4.84901 22.3021 4.37218 22.4996 3.875 22.4996C3.37781 22.4996 2.90099 22.3021 2.54937 21.9506C2.19786 21.599 2.0004 21.1222 2.0004 20.625C2.0004 20.1278 2.19786 19.651 2.54937 19.2994L6.5 15.375" stroke="#434650" stroke-width="2" stroke-linecap="round" stroke-linejoin="round"/>
</svg>
