<svg xmlns="http://www.w3.org/2000/svg" xmlns:xlink="http://www.w3.org/1999/xlink">
  
  <symbol id="e" fill="none" viewBox="0 0 200 35" xmlns="http://www.w3.org/2000/svg">
    <path d="M19.1998 55.2008H40.7998C48.7522 55.2008 55.1998 48.7532 55.1998 40.8008V19.2008C55.1998 11.2484 48.7522 4.80078 40.7998 4.80078H19.1998C11.2474 4.80078 4.7998 11.2484 4.7998 19.2008V40.8008C4.7998 48.7532 11.2474 55.2008 19.1998 55.2008Z" stroke-width="4" stroke-miterlimit="10"/>
    <path d="M30 18C26.8174 18 23.7652 19.2643 21.5147 21.5147C19.2643 23.7652 18 26.8174 18 30C18 33.1826 19.2643 36.2348 21.5147 38.4853C23.7652 40.7357 26.8174 42 30 42C33.1826 42 36.2348 40.7357 38.4853 38.4853C40.7357 36.2348 42 33.1826 42 30C42 26.8174 40.7357 23.7652 38.4853 21.5147C36.2348 19.2643 33.1826 18 30 18Z" stroke-width="4" stroke-miterlimit="10"/>
    <path d="M44.4 13.1992C43.7635 13.1992 43.153 13.4521 42.7029 13.9022C42.2529 14.3522 42 14.9627 42 15.5992C42 16.2357 42.2529 16.8462 42.7029 17.2963C43.153 17.7464 43.7635 17.9992 44.4 17.9992C45.0365 17.9992 45.647 17.7464 46.0971 17.2963C46.5471 16.8462 46.8 16.2357 46.8 15.5992C46.8 14.9627 46.5471 14.3522 46.0971 13.9022C45.647 13.4521 45.0365 13.1992 44.4 13.1992Z"/>
  </symbol>

  <symbol id="arrow" width="10" height="5" viewBox="0 0 10 5" xmlns="http://www.w3.org/2000/svg">
    <path d="M4.99216 4.99831C4.82555 4.99864 4.6641 4.94054 4.53581 4.83411L0.257587 1.26453C0.111972 1.14335 0.0204009 0.969215 0.00301722 0.780437C-0.0143664 0.591658 0.0438616 0.403697 0.164892 0.257904C0.285922 0.11211 0.45984 0.020426 0.648386 0.00302095C0.836931 -0.0143841 1.02466 0.0439153 1.17027 0.165095L4.99216 3.36344L8.81404 0.279322C8.88697 0.22002 8.9709 0.175734 9.06098 0.149011C9.15107 0.122288 9.24554 0.113654 9.33896 0.123605C9.43239 0.133557 9.52294 0.161897 9.60539 0.206998C9.68784 0.252099 9.76058 0.313071 9.81942 0.386409C9.88472 0.459815 9.93418 0.545932 9.96469 0.639365C9.9952 0.732798 10.0061 0.831533 9.99674 0.929385C9.98737 1.02724 9.95792 1.1221 9.91023 1.20802C9.86254 1.29395 9.79764 1.36908 9.7196 1.42873L5.44137 4.87695C5.3094 4.96655 5.15124 5.00928 4.99216 4.99831V4.99831Z"/>
  </symbol>


</svg>
