<svg width="406" height="60" viewBox="0 0 406 60" fill="none" xmlns="http://www.w3.org/2000/svg">
<path d="M274.986 15.1277C265.247 27.8583 245.411 46.1851 230.915 58.6873C229.961 59.5097 228.235 59.2138 227.375 57.6102C225.941 54.9383 225.535 51.4658 229.163 47.3709C239.874 35.2821 249.723 23.2086 255.477 15.9893C257.337 13.6568 257.244 12.6277 254.198 12.0272C246.804 10.565 236.201 8.93099 229.413 7.92795C227.173 7.59722 226.008 5.65641 225.664 3.86137C225.271 1.80741 225.853 0.734742 227.291 0.64771C238.642 -0.0289649 255.688 -0.468477 269.93 0.863114C278.896 1.7008 280.149 8.38051 274.986 15.1277Z" fill="url(#paint0_linear_13_7725)"/>
<path d="M405.475 1.60523C404.807 3.68312 404.22 5.50862 403.517 7.57564C403.005 9.08347 401.978 9.9799 400.357 10.0756C397.629 10.0756 387.4 10.1779 384.41 10.1779C381.697 10.3259 380.122 11.6422 379.612 14.3511C378.845 18.4285 378.157 22.5212 377.433 26.6074C376.347 32.7345 375.296 38.868 374.155 44.9864C373.482 48.5961 374.643 50.1343 378.252 50.1496C379.572 50.1561 380.894 50.1844 382.211 50.1191C385.167 49.9733 387.118 48.4046 387.763 45.4803C388.4 42.2492 388.752 40.0908 389.253 37.3972C389.356 36.8445 389.158 36.6574 388.632 36.6661C387.716 36.6814 386.37 36.6966 385.455 36.6552C383.329 36.5573 383.071 35.8089 383.105 33.6875C383.135 31.7945 383.198 29.9016 383.183 28.0086C383.176 27.2754 383.486 27.0447 384.131 27.0447C386.721 27.0447 398.586 27.1339 399.97 27.1339C401.354 27.1339 402.135 28.1087 401.948 29.6274C401.735 31.355 401.415 33.0695 401.12 34.7862C400.34 39.3511 399.555 43.9159 398.762 48.4764C398.193 51.7597 397.582 55.0386 397.043 58.3262C396.931 59.0094 396.716 59.264 396.007 59.2423C394.358 59.1879 392.707 59.2466 391.056 59.214C388.991 59.1726 388.4 58.5721 388.215 56.5073C388.165 55.9633 388.109 55.291 388.041 54.61C388 54.2053 387.426 54.1335 387.161 54.5686C385.324 57.6017 381.607 59.623 378.987 59.8428C376.365 60.0625 373.85 59.9907 371.292 59.8297C368.379 59.647 365.658 58.8202 363.693 56.392C362.26 54.6187 361.765 52.5103 361.615 50.2932C361.421 47.4559 361.873 44.6709 362.356 41.8924C363.683 34.264 365.011 26.6378 366.314 19.0051C366.868 15.7501 367.457 12.5147 368.856 9.49034C371.094 4.647 374.866 1.81411 380.004 0.893744C382.086 0.521682 384.225 0.415067 386.345 0.338914C388.872 0.24753 391.405 0.317156 393.934 0.317156C397.565 0.317156 400.793 0.312805 404.424 0.319332C405.466 0.319332 405.802 0.589132 405.475 1.60523ZM44.1766 8.26972C44.7957 12.9738 43.7832 17.5887 41.9003 21.9359C40.7116 24.6796 38.3429 26.9033 35.4647 27.4734C34.8435 27.5974 34.3857 27.5952 34.4265 28.1609C34.4566 28.5721 34.6673 28.5656 35.3465 28.7788C37.6336 29.4947 39.3446 30.909 40.2495 33.2153C40.9287 34.9429 41.1243 36.7597 40.9244 38.5743C40.5053 42.4037 39.9959 46.2331 38.7083 49.8863C36.8275 55.2192 32.9584 58.1152 27.5202 59.0073C23.2944 59.7014 19.0341 59.3423 14.7888 59.425C14.0559 59.4403 13.3229 59.4272 12.5899 59.4272C8.6671 59.4272 4.74429 59.4098 0.821482 59.4424C0.0799099 59.449 -0.0920488 59.2662 0.0412193 58.5155C0.911761 53.6287 1.73931 48.7375 2.57976 43.8463C4.01562 35.4868 5.44718 27.1252 6.88518 18.768C7.87179 13.0369 8.87131 7.31019 9.85577 1.57912C9.96109 0.96337 10.0299 0.49122 10.8811 0.499924C18.7245 0.576077 26.568 0.706625 34.4115 0.706625C39.9808 0.704449 43.5769 3.694 44.1766 8.26972ZM24.8699 33.3241C22.3056 33.3241 20.0293 33.3219 17.6111 33.2871C16.9469 33.2784 16.6352 33.472 16.5127 34.177C15.668 39.1052 14.791 44.029 13.9054 48.9507C13.7786 49.6557 14.0107 49.8667 14.6986 49.8602C17.0479 49.8384 20.988 49.8123 23.3825 49.7275C25.3321 49.6578 26.697 48.4742 27.1312 46.5182C27.6707 44.1008 28.3521 39.9472 28.7691 37.5016C29.3 34.375 27.4364 33.3241 24.8699 33.3241ZM28.6659 10.1583C26.3208 10.1083 23.9757 10.167 21.6307 10.1148C20.9235 10.0996 20.6634 10.3933 20.5516 11.0286C19.8315 15.1126 19.1072 19.1922 18.3656 23.2719C18.2581 23.8615 18.4258 24.0682 19.0233 24.0682C20.6182 24.0682 24.0295 24.0421 25.6179 24.0421C28.3757 24.0421 30.0201 22.6931 30.695 19.9908C31.1959 17.9869 31.5075 15.9285 31.787 13.8768C32.1266 11.3876 31.1206 10.2105 28.6659 10.1583ZM189.441 0.512978C185.555 0.571725 181.664 0.510803 177.784 0.691394C174.567 0.841525 172.185 2.51689 170.777 5.48904C170.128 6.85762 169.515 8.24796 168.948 9.65353C167.57 13.0587 165.794 17.1796 164.651 19.9103C164.034 21.3833 163.602 22.5386 163.363 23.3437C162.845 25.0952 162.4 26.7684 161.992 28.4068C161.889 28.8245 161.238 28.731 161.227 28.298C161.216 27.8911 161.508 23.9355 161.53 23.4307C161.581 22.2471 161.618 21.1439 161.521 19.3576C161.283 14.9124 160.889 10.476 160.451 6.04605C160.159 3.0826 158.942 1.27886 155.86 0.811063C155.281 0.724031 154.699 0.615241 154.118 0.606538C150.598 0.563022 147.079 0.556495 143.558 0.510803C142.948 0.504275 142.758 0.758844 142.662 1.34196C142.268 3.71794 134.332 49.1357 132.774 58.0499C132.596 59.0747 132.843 59.425 133.89 59.4272C137.043 59.4316 142.29 59.4577 143.042 59.4577C143.792 59.4577 144.28 59.1639 144.431 58.2762C145.572 51.5182 146.686 44.7536 147.956 38.0195C149.08 32.0708 149.815 26.0852 150.206 20.0473C150.355 17.7519 150.574 15.4607 150.804 13.174C150.832 12.8977 151.133 12.6496 151.307 12.3885C151.582 12.63 151.883 12.8498 152.117 13.1283C152.214 13.2436 152.167 13.4851 152.184 13.6701C152.298 14.9255 152.414 16.1809 152.528 17.4386C153.005 22.7584 153.478 28.0782 153.964 33.3981C154.237 36.3898 154.52 39.3815 154.826 42.3689C154.968 43.7462 155.496 44.251 156.891 44.3315C157.878 44.3881 159.615 44.3815 160.634 44.3815C162.194 44.3815 162.914 44.0878 163.561 42.5495C164.851 39.4794 176.258 13.3959 176.411 13.0434C176.69 12.3972 177.969 12.5996 177.763 13.3546C177.013 16.1048 176.299 18.8637 175.572 21.6204C174.816 24.4838 173.911 27.3211 173.359 30.2257C172.161 36.5203 171.147 42.8519 170.055 49.1683C169.468 52.5582 168.643 57.2492 168.492 58.15C168.342 59.0486 168.649 59.4229 169.421 59.4229C170.192 59.4229 175.691 59.412 179.212 59.449C179.945 59.4555 180.046 58.892 180.142 58.3328C181.146 52.5277 189.174 6.22229 190.041 1.33543C190.142 0.747965 190.071 0.504275 189.441 0.512978ZM134.001 13.9921C133.202 19.0399 129.623 39.771 128.651 45.0908C128.224 47.4298 127.476 49.6753 126.379 51.7945C124.086 56.2222 120.425 58.8071 115.632 59.5839C112.681 60.0625 101.669 60.093 99.1927 59.8537C97.9008 59.7296 96.594 59.3532 95.3816 58.868C91.7555 57.4146 90.0724 54.5055 89.7371 50.6935C89.4791 47.7823 89.8983 44.9189 90.397 42.0665C91.2654 37.1056 94.4638 18.7897 95.2742 14.61C95.8932 11.4159 97.0174 8.40462 99.0293 5.81106C101.729 2.3276 105.428 0.604362 109.654 0.245355C113.407 -0.0744884 121.966 0.0930484 125.548 0.495572C129.438 0.932909 132.755 3.31976 133.765 7.36023C134.307 9.54691 134.352 11.7836 134.001 13.9921ZM121.67 13.3807C121.913 11.0939 120.784 9.86893 118.506 9.77102C116.421 9.68181 114.325 9.67746 112.24 9.77537C110.185 9.87328 108.724 10.9481 108.04 12.9607C107.814 13.6244 107.64 14.3119 107.52 15.0038C106.434 21.1679 105.364 27.3341 104.293 33.5003C103.565 37.6953 102.834 41.8924 102.116 46.0895C101.669 48.7092 102.907 50.2453 105.547 50.3389C106.462 50.3715 109.908 50.3606 110.716 50.3519C113.844 50.3171 115.512 48.9768 116.085 45.8959C116.812 42.0012 117.455 38.0891 118.138 34.1879C118.919 29.7384 119.712 25.291 120.481 20.8393C120.905 18.3567 121.403 15.8807 121.67 13.3807ZM88.7892 7.36023C89.3351 9.54474 89.3781 11.7815 89.0299 13.9921C88.2303 19.0399 84.6514 39.771 83.6798 45.0908C83.2521 47.4298 82.5062 49.6753 81.4078 51.7945C79.1143 56.2222 75.4538 58.8071 70.6583 59.5839C67.707 60.0625 56.6952 60.093 54.219 59.8537C52.9272 59.7296 51.6203 59.3532 50.408 58.868C46.7818 57.4146 45.0987 54.5055 44.7613 50.6935C44.5033 47.7823 44.9225 44.9189 45.4212 42.0665C46.2895 37.1056 49.488 18.7897 50.2983 14.61C50.9174 11.4159 52.0416 8.40462 54.0535 5.81106C56.7532 2.3276 60.4525 0.604362 64.6805 0.245355C68.4335 -0.0744884 76.9928 0.0930484 80.5738 0.495572C84.4623 0.932909 87.7811 3.31976 88.7892 7.36023ZM76.6983 13.3807C76.9412 11.0939 75.8127 9.86893 73.5343 9.77102C71.4493 9.68181 69.3535 9.67746 67.2685 9.77537C65.2158 9.87328 63.752 10.9481 63.0684 12.9607C62.8427 13.6244 62.6686 14.3119 62.5461 15.0038C61.4606 21.1679 60.3902 27.3341 59.3197 33.5003C58.591 37.6953 57.8602 41.8924 57.1423 46.0895C56.6952 48.7092 57.9333 50.2453 60.5729 50.3389C61.4886 50.3715 64.9342 50.3606 65.7424 50.3519C68.8699 50.3171 70.5379 48.9768 71.1118 45.8959C71.8383 42.0012 72.481 38.0891 73.1646 34.1879C73.9427 29.7384 74.738 25.291 75.5053 20.8393C75.9352 18.3567 76.4339 15.8807 76.6983 13.3807ZM304.563 3.05214C304.963 8.19356 307.003 35.4324 308.761 58.435C308.821 59.2183 308.649 59.4555 307.854 59.4424C305.066 59.3967 302.278 59.4424 299.492 59.4185C297.066 59.3989 296.15 58.4524 296.038 55.9677C295.918 53.298 295.783 50.6283 295.647 47.9585C295.587 46.7749 295.466 46.64 294.252 46.6357C290.622 46.6226 286.989 46.6465 283.358 46.6204C282.423 46.6139 281.882 46.9773 281.538 47.8737C280.439 50.7414 279.27 53.5808 278.146 56.4398C277.342 58.4851 275.822 59.4163 273.701 59.4185C267.833 59.425 261.965 59.4228 256.094 59.4141C255.658 59.4141 255.22 59.338 254.781 59.3097C252.625 59.1618 251.63 57.915 251.11 55.8458C250.564 53.6766 249.822 51.1352 249.448 49.449C249.13 48.0129 249.169 47.5277 250.286 46.5399C251.402 45.5543 257.277 40.4847 258.078 39.7949C258.88 39.103 259.652 39.4599 260.002 40.7414C260.703 43.2958 261.9 47.6409 262.788 50.7719C263.452 53.1195 264.118 55.4651 264.783 57.8106C264.873 57.8062 264.961 57.8019 265.051 57.7975C265.844 55.9329 266.644 54.0682 267.433 52.2014C274.266 36.009 287.864 3.8833 288.442 2.51907C289.02 1.15484 290.256 0.419419 291.808 0.421595C295.146 0.425946 298.484 0.399837 301.82 0.430298C303.643 0.452056 304.419 1.20706 304.563 3.05214ZM294.742 20.0408C294.798 17.741 295.138 13.6635 295.153 13.2001C295.168 12.7366 294.394 12.593 294.297 13.063C294.2 13.533 291.662 21.3463 290.273 25.2867C289.031 28.8115 287.634 32.2775 286.308 35.7697C285.83 37.0273 285.936 37.197 287.217 37.1992C289.345 37.2035 291.471 37.2014 293.599 37.1992C295.112 37.197 295.198 37.0904 295.138 35.5108C295.004 31.8772 294.88 28.2414 294.736 24.1792C294.736 23.0826 294.706 21.5595 294.742 20.0408ZM361.933 0.506451C358.436 0.506451 355.001 0.497748 352.684 0.497748C351.493 0.497748 351.016 1.09392 350.814 2.2732C349.881 7.75188 348.991 12.6605 348.056 18.1392C347.364 22.1927 346.51 26.2288 346.04 30.3084C345.44 35.4999 345.158 40.8981 344.89 46.1222C344.853 46.8445 343.802 46.9207 343.733 46.0765C342.235 27.7105 341.388 16.6161 340.429 4.66224C340.191 1.67703 338.856 0.497748 336.502 0.497748C333.293 0.497748 325.452 0.554319 323.545 0.499924C322.75 0.47599 322.486 0.752317 322.372 1.53561C322.049 3.77233 321.632 5.99383 321.245 8.22185C320.121 14.6818 313.406 53.5634 312.622 58.1652C312.407 59.4207 312.432 59.425 313.649 59.425C316.4 59.425 319.15 59.425 321.901 59.425C324.3 59.425 324.27 59.4207 324.667 57.0316C325.417 52.5364 328.657 34.8907 329.211 30.5217C329.777 26.0743 329.987 21.5791 330.346 17.1057C330.449 15.8111 330.505 14.5121 330.641 13.2218C330.712 12.5495 331.87 12.63 331.909 13.2762C332.104 16.4246 332.42 20.1888 332.64 23.335C333.067 29.4033 334.482 49.9102 334.819 54.0878C335.077 57.2775 336.601 58.818 339.746 59.1835C340.872 59.3141 342.009 59.4011 343.142 59.4141C345.93 59.4468 348.716 59.425 351.504 59.425C352.765 59.425 352.78 59.4272 353.002 58.1435C353.623 54.5295 361.456 9.0356 362.788 1.52038C362.941 0.665285 362.698 0.506451 361.933 0.506451ZM221.329 24.6862C220.589 24.6862 210.693 24.6883 205.375 24.684C204.313 24.684 204.287 24.6666 204.466 23.6331C205.167 19.5817 205.917 15.5369 206.572 11.4769C206.727 10.5086 207.14 10.328 208.015 10.3346C212.275 10.365 217.647 10.3476 220.796 10.3476C223.945 10.3476 221.094 0.51733 219.79 0.51733C218.485 0.51733 204.395 0.51733 197.59 0.51733C196.147 0.51733 196.162 0.521682 195.911 2.00993C195.309 5.5913 189.735 37.7562 188.981 42.2122C188.431 45.4672 187.825 48.7157 188.624 52.0316C189.224 54.5186 190.55 56.4007 192.794 57.6104C195.432 59.0312 198.327 59.3445 201.218 59.388C207.634 59.4816 214.055 59.4098 220.473 59.4446C221.238 59.449 221.395 59.153 221.395 58.4764C221.395 56.7684 221.438 55.0604 221.479 53.3545C221.554 50.2257 220.974 49.5991 217.915 49.5926C213.771 49.5817 209.627 49.5991 205.483 49.5817C204.679 49.5795 203.866 49.5273 203.071 49.4076C201.562 49.1835 200.745 48.2305 200.715 46.6792C200.702 45.9764 200.728 45.2627 200.84 44.573C201.358 41.392 201.953 38.2218 202.43 35.0343C202.572 34.0856 202.931 33.8332 203.845 33.8419C208.172 33.8855 212.501 33.8746 216.828 33.8485C218.743 33.8376 219.841 33.0434 220.462 31.2179C221.062 29.4512 222.019 26.4964 222.21 25.7719C222.401 25.0473 222.07 24.6862 221.329 24.6862ZM243.533 13.8594C241.1 13.248 237.983 12.7867 235.771 12.556C234.552 12.4299 233.991 12.754 233.836 13.7114C232.962 19.0769 231.087 30.291 230.152 35.9329C229.866 37.6518 231.066 37.3711 231.788 36.6422C236.366 32.0099 241.828 26.4399 242.684 25.2867C243.537 24.1335 243.804 23.583 244.098 22.1927C244.393 20.8023 244.73 18.0782 245.014 16.392C245.293 14.7079 244.814 14.1814 243.533 13.8594Z" fill="#2B2B2B"/>
<defs>
<linearGradient id="paint0_linear_13_7725" x1="225.548" y1="29.5654" x2="278.023" y2="29.5654" gradientUnits="userSpaceOnUse">
<stop stop-color="#0098FF"/>
<stop offset="0.6974" stop-color="#FF0069"/>
</linearGradient>
</defs>
</svg>
