<svg width="16" height="18" viewBox="0 0 16 18" fill="none" xmlns="http://www.w3.org/2000/svg">
<path d="M15.0823 4.63019C12.1181 8.49177 6.06079 14.0614 1.64207 17.8672C1.34749 18.1086 0.831981 18.0343 0.555811 17.5331C0.113939 16.7162 0.00347639 15.658 1.10816 14.4141C4.36696 10.7382 7.38642 7.08081 9.1355 4.87154C9.70625 4.16606 9.66941 3.85045 8.74885 3.6648C6.48425 3.21923 3.26227 2.71797 1.18179 2.42092C0.50057 2.32809 0.150764 1.73401 0.0402957 1.17705C-0.0885836 0.545829 0.0955376 0.230214 0.537409 0.193083C3.99874 -0.0111348 9.19073 -0.14109 13.5358 0.267346C16.2607 0.527261 16.6473 2.55088 15.0823 4.59306" fill="#D4DDDD"/>
<path d="M15.0823 4.63019C12.1181 8.49177 6.06079 14.0614 1.64207 17.8672C1.34749 18.1086 0.831981 18.0343 0.555811 17.5331C0.113939 16.7162 0.00347639 15.658 1.10816 14.4141C4.36696 10.7382 7.38642 7.08081 9.1355 4.87154C9.70625 4.16606 9.66941 3.85045 8.74885 3.6648C6.48425 3.21923 3.26227 2.71797 1.18179 2.42092C0.50057 2.32809 0.150764 1.73401 0.0402957 1.17705C-0.0885836 0.545829 0.0955376 0.230214 0.537409 0.193083C3.99874 -0.0111348 9.19073 -0.14109 13.5358 0.267346C16.2607 0.527261 16.6473 2.55088 15.0823 4.59306" fill="url(#paint0_linear_13_12785)"/>
<defs>
<linearGradient id="paint0_linear_13_12785" x1="2.28635e-07" y1="9.00008" x2="16" y2="9.00008" gradientUnits="userSpaceOnUse">
<stop stop-color="#0098FF"/>
<stop offset="0.6974" stop-color="#FF0069"/>
</linearGradient>
</defs>
</svg>
