<svg width="32" height="32" viewBox="0 0 32 32" fill="none" xmlns="http://www.w3.org/2000/svg">
<path d="M12.8756 31.6926C15.1959 32.1541 17.5897 32.0953 19.8846 31.5205C22.1795 30.9456 24.3183 29.869 26.1471 28.3682C27.9759 26.8674 29.4492 24.9797 30.4607 22.8411C31.4723 20.7025 31.997 18.3661 31.9971 16.0004C31.9971 15.7043 31.8795 15.4204 31.6702 15.211C31.4608 15.0017 31.1769 14.8841 30.8808 14.8841C30.5848 14.8841 30.3008 15.0017 30.0915 15.211C29.8821 15.4204 29.7645 15.7043 29.7645 16.0004C29.7645 18.7234 28.9571 21.3852 27.4442 23.6493C25.9314 25.9134 23.7812 27.6781 21.2655 28.7201C18.7497 29.7622 15.9815 30.0348 13.3108 29.5036C10.6401 28.9723 8.18695 27.6611 6.2615 25.7356C4.33604 23.8102 3.02479 21.357 2.49356 18.6863C1.96233 16.0156 2.23497 13.2474 3.27702 10.7317C4.31907 8.21594 6.08372 6.06571 8.34781 4.55289C10.6119 3.04007 13.2738 2.23261 15.9968 2.23261C16.2928 2.23261 16.5768 2.115 16.7861 1.90565C16.9955 1.6963 17.1131 1.41237 17.1131 1.1163C17.1131 0.820242 16.9955 0.536306 16.7861 0.326958C16.5768 0.11761 16.2928 0 15.9968 0C12.0253 0.000901148 8.19615 1.47874 5.25382 4.14614C2.31149 6.81354 0.466305 10.4799 0.0770687 14.4322C-0.312168 18.3845 0.78236 22.3403 3.14782 25.5305C5.51329 28.7206 8.98061 30.917 12.8756 31.6926Z" fill="#434650"/>
<path d="M12.8756 31.6926C15.1959 32.1541 17.5897 32.0953 19.8846 31.5205C22.1795 30.9456 24.3183 29.869 26.1471 28.3682C27.9759 26.8674 29.4492 24.9797 30.4607 22.8411C31.4723 20.7025 31.997 18.3661 31.9971 16.0004C31.9971 15.7043 31.8795 15.4204 31.6702 15.211C31.4608 15.0017 31.1769 14.8841 30.8808 14.8841C30.5848 14.8841 30.3008 15.0017 30.0915 15.211C29.8821 15.4204 29.7645 15.7043 29.7645 16.0004C29.7645 18.7234 28.9571 21.3852 27.4442 23.6493C25.9314 25.9134 23.7812 27.6781 21.2655 28.7201C18.7497 29.7622 15.9815 30.0348 13.3108 29.5036C10.6401 28.9723 8.18695 27.6611 6.2615 25.7356C4.33604 23.8102 3.02479 21.357 2.49356 18.6863C1.96233 16.0156 2.23497 13.2474 3.27702 10.7317C4.31907 8.21594 6.08372 6.06571 8.34781 4.55289C10.6119 3.04007 13.2738 2.23261 15.9968 2.23261C16.2928 2.23261 16.5768 2.115 16.7861 1.90565C16.9955 1.6963 17.1131 1.41237 17.1131 1.1163C17.1131 0.820242 16.9955 0.536306 16.7861 0.326958C16.5768 0.11761 16.2928 0 15.9968 0C12.0253 0.000901148 8.19615 1.47874 5.25382 4.14614C2.31149 6.81354 0.466305 10.4799 0.0770687 14.4322C-0.312168 18.3845 0.78236 22.3403 3.14782 25.5305C5.51329 28.7206 8.98061 30.917 12.8756 31.6926Z" fill="url(#paint0_linear_55_4472)"/>
<path d="M15.9975 10.4187C16.2936 10.4187 16.5775 10.5363 16.7869 10.7456C16.9962 10.955 17.1138 11.2389 17.1138 11.535V14.8839H20.4628C20.7588 14.8839 21.0428 15.0015 21.2521 15.2108C21.4614 15.4202 21.5791 15.7041 21.5791 16.0002C21.5791 16.2963 21.4614 16.5802 21.2521 16.7895C21.0428 16.9989 20.7588 17.1165 20.4628 17.1165H17.1138V20.4654C17.1138 20.7615 16.9962 21.0454 16.7869 21.2548C16.5775 21.4641 16.2936 21.5817 15.9975 21.5817C15.7015 21.5817 15.4175 21.4641 15.2082 21.2548C14.9988 21.0454 14.8812 20.7615 14.8812 20.4654V17.1165H11.5323C11.2363 17.1165 10.9523 16.9989 10.743 16.7895C10.5336 16.5802 10.416 16.2963 10.416 16.0002C10.416 15.7041 10.5336 15.4202 10.743 15.2108C10.9523 15.0015 11.2363 14.8839 11.5323 14.8839H14.8812V11.535C14.8812 11.2389 14.9988 10.955 15.2082 10.7456C15.4175 10.5363 15.7015 10.4187 15.9975 10.4187ZM19.9969 0.504395C19.8535 0.463067 19.7032 0.450924 19.555 0.468685C19.4068 0.486446 19.2636 0.53375 19.134 0.607798C19.0044 0.681847 18.891 0.781137 18.8004 0.899794C18.7099 1.01845 18.644 1.15406 18.6068 1.29861C18.5696 1.44316 18.5617 1.59371 18.5837 1.74135C18.6056 1.889 18.657 2.03073 18.7347 2.15818C18.8124 2.28563 18.9149 2.39619 19.0361 2.48334C19.1572 2.57049 19.2947 2.63245 19.4402 2.66556C21.8213 3.28259 23.994 4.52513 25.7333 6.26441C27.4726 8.00369 28.7151 10.1764 29.3322 12.5575C29.4126 12.8367 29.5988 13.0735 29.851 13.2177C30.1033 13.3618 30.4019 13.4019 30.6833 13.3294C30.9647 13.257 31.2067 13.0776 31.3579 12.8295C31.5092 12.5815 31.5578 12.2842 31.4933 12.0008C30.7765 9.23341 29.3325 6.70808 27.3111 4.68663C25.2896 2.66519 22.7643 1.22121 19.9969 0.504395Z" fill="#434650"/>
<path d="M15.9975 10.4187C16.2936 10.4187 16.5775 10.5363 16.7869 10.7456C16.9962 10.955 17.1138 11.2389 17.1138 11.535V14.8839H20.4628C20.7588 14.8839 21.0428 15.0015 21.2521 15.2108C21.4614 15.4202 21.5791 15.7041 21.5791 16.0002C21.5791 16.2963 21.4614 16.5802 21.2521 16.7895C21.0428 16.9989 20.7588 17.1165 20.4628 17.1165H17.1138V20.4654C17.1138 20.7615 16.9962 21.0454 16.7869 21.2548C16.5775 21.4641 16.2936 21.5817 15.9975 21.5817C15.7015 21.5817 15.4175 21.4641 15.2082 21.2548C14.9988 21.0454 14.8812 20.7615 14.8812 20.4654V17.1165H11.5323C11.2363 17.1165 10.9523 16.9989 10.743 16.7895C10.5336 16.5802 10.416 16.2963 10.416 16.0002C10.416 15.7041 10.5336 15.4202 10.743 15.2108C10.9523 15.0015 11.2363 14.8839 11.5323 14.8839H14.8812V11.535C14.8812 11.2389 14.9988 10.955 15.2082 10.7456C15.4175 10.5363 15.7015 10.4187 15.9975 10.4187ZM19.9969 0.504395C19.8535 0.463067 19.7032 0.450924 19.555 0.468685C19.4068 0.486446 19.2636 0.53375 19.134 0.607798C19.0044 0.681847 18.891 0.781137 18.8004 0.899794C18.7099 1.01845 18.644 1.15406 18.6068 1.29861C18.5696 1.44316 18.5617 1.59371 18.5837 1.74135C18.6056 1.889 18.657 2.03073 18.7347 2.15818C18.8124 2.28563 18.9149 2.39619 19.0361 2.48334C19.1572 2.57049 19.2947 2.63245 19.4402 2.66556C21.8213 3.28259 23.994 4.52513 25.7333 6.26441C27.4726 8.00369 28.7151 10.1764 29.3322 12.5575C29.4126 12.8367 29.5988 13.0735 29.851 13.2177C30.1033 13.3618 30.4019 13.4019 30.6833 13.3294C30.9647 13.257 31.2067 13.0776 31.3579 12.8295C31.5092 12.5815 31.5578 12.2842 31.4933 12.0008C30.7765 9.23341 29.3325 6.70808 27.3111 4.68663C25.2896 2.66519 22.7643 1.22121 19.9969 0.504395Z" fill="url(#paint1_linear_55_4472)"/>
<defs>
<linearGradient id="paint0_linear_55_4472" x1="0.00169935" y1="15.8976" x2="31.9956" y2="15.8976" gradientUnits="userSpaceOnUse">
<stop stop-color="#0098FF"/>
<stop offset="0.00390625" stop-color="#0198FF"/>
<stop offset="0.0078125" stop-color="#0197FE"/>
<stop offset="0.0117188" stop-color="#0396FD"/>
<stop offset="0.015625" stop-color="#0496FD"/>
<stop offset="0.0195312" stop-color="#0695FC"/>
<stop offset="0.0234375" stop-color="#0794FB"/>
<stop offset="0.0273438" stop-color="#0993FA"/>
<stop offset="0.03125" stop-color="#0A92F9"/>
<stop offset="0.0351562" stop-color="#0C91F8"/>
<stop offset="0.0390625" stop-color="#0D90F7"/>
<stop offset="0.0429688" stop-color="#0F8FF6"/>
<stop offset="0.046875" stop-color="#108EF6"/>
<stop offset="0.0507812" stop-color="#128EF5"/>
<stop offset="0.0546875" stop-color="#138DF4"/>
<stop offset="0.0585938" stop-color="#158CF3"/>
<stop offset="0.0625" stop-color="#168BF2"/>
<stop offset="0.0664062" stop-color="#178AF1"/>
<stop offset="0.0703125" stop-color="#1989F0"/>
<stop offset="0.0742188" stop-color="#1A88EF"/>
<stop offset="0.078125" stop-color="#1C87EF"/>
<stop offset="0.0820312" stop-color="#1D86EE"/>
<stop offset="0.0859375" stop-color="#1F86ED"/>
<stop offset="0.0898438" stop-color="#2085EC"/>
<stop offset="0.09375" stop-color="#2284EB"/>
<stop offset="0.0976562" stop-color="#2383EA"/>
<stop offset="0.101562" stop-color="#2582E9"/>
<stop offset="0.105469" stop-color="#2681E8"/>
<stop offset="0.109375" stop-color="#2880E8"/>
<stop offset="0.113281" stop-color="#297FE7"/>
<stop offset="0.117188" stop-color="#2B7EE6"/>
<stop offset="0.121094" stop-color="#2C7EE5"/>
<stop offset="0.125" stop-color="#2E7DE4"/>
<stop offset="0.128906" stop-color="#2F7CE3"/>
<stop offset="0.132812" stop-color="#317BE2"/>
<stop offset="0.136719" stop-color="#327AE1"/>
<stop offset="0.140625" stop-color="#3479E0"/>
<stop offset="0.144531" stop-color="#3578E0"/>
<stop offset="0.148438" stop-color="#3777DF"/>
<stop offset="0.152344" stop-color="#3876DE"/>
<stop offset="0.15625" stop-color="#3A76DD"/>
<stop offset="0.160156" stop-color="#3B75DC"/>
<stop offset="0.164062" stop-color="#3D74DB"/>
<stop offset="0.167969" stop-color="#3E73DA"/>
<stop offset="0.171875" stop-color="#4072D9"/>
<stop offset="0.175781" stop-color="#4171D9"/>
<stop offset="0.179688" stop-color="#4370D8"/>
<stop offset="0.183594" stop-color="#446FD7"/>
<stop offset="0.1875" stop-color="#466ED6"/>
<stop offset="0.191406" stop-color="#476ED5"/>
<stop offset="0.195312" stop-color="#496DD4"/>
<stop offset="0.199219" stop-color="#4A6CD3"/>
<stop offset="0.203125" stop-color="#4C6BD2"/>
<stop offset="0.207031" stop-color="#4D6AD2"/>
<stop offset="0.210938" stop-color="#4F69D1"/>
<stop offset="0.214844" stop-color="#5068D0"/>
<stop offset="0.21875" stop-color="#5267CF"/>
<stop offset="0.222656" stop-color="#5366CE"/>
<stop offset="0.226562" stop-color="#5565CD"/>
<stop offset="0.230469" stop-color="#5665CC"/>
<stop offset="0.234375" stop-color="#5864CB"/>
<stop offset="0.238281" stop-color="#5963CB"/>
<stop offset="0.242188" stop-color="#5B62CA"/>
<stop offset="0.246094" stop-color="#5C61C9"/>
<stop offset="0.25" stop-color="#5E60C8"/>
<stop offset="0.253906" stop-color="#5F5FC7"/>
<stop offset="0.257812" stop-color="#615EC6"/>
<stop offset="0.261719" stop-color="#625DC5"/>
<stop offset="0.265625" stop-color="#645DC4"/>
<stop offset="0.269531" stop-color="#655CC3"/>
<stop offset="0.273438" stop-color="#675BC3"/>
<stop offset="0.277344" stop-color="#685AC2"/>
<stop offset="0.28125" stop-color="#6A59C1"/>
<stop offset="0.285156" stop-color="#6B58C0"/>
<stop offset="0.289062" stop-color="#6D57BF"/>
<stop offset="0.292969" stop-color="#6E56BE"/>
<stop offset="0.296875" stop-color="#7055BD"/>
<stop offset="0.300781" stop-color="#7155BC"/>
<stop offset="0.304688" stop-color="#7354BC"/>
<stop offset="0.308594" stop-color="#7453BB"/>
<stop offset="0.3125" stop-color="#7652BA"/>
<stop offset="0.316406" stop-color="#7751B9"/>
<stop offset="0.320312" stop-color="#7950B8"/>
<stop offset="0.324219" stop-color="#7A4FB7"/>
<stop offset="0.328125" stop-color="#7C4EB6"/>
<stop offset="0.332031" stop-color="#7D4DB5"/>
<stop offset="0.335938" stop-color="#7F4DB5"/>
<stop offset="0.339844" stop-color="#804CB4"/>
<stop offset="0.34375" stop-color="#824BB3"/>
<stop offset="0.347656" stop-color="#834AB2"/>
<stop offset="0.351562" stop-color="#8549B1"/>
<stop offset="0.355469" stop-color="#8648B0"/>
<stop offset="0.359375" stop-color="#8847AF"/>
<stop offset="0.363281" stop-color="#8946AE"/>
<stop offset="0.367188" stop-color="#8A45AE"/>
<stop offset="0.371094" stop-color="#8C45AD"/>
<stop offset="0.375" stop-color="#8D44AC"/>
<stop offset="0.378906" stop-color="#8F43AB"/>
<stop offset="0.382812" stop-color="#9042AA"/>
<stop offset="0.386719" stop-color="#9241A9"/>
<stop offset="0.390625" stop-color="#9340A8"/>
<stop offset="0.394531" stop-color="#953FA7"/>
<stop offset="0.398438" stop-color="#963EA6"/>
<stop offset="0.402344" stop-color="#983DA6"/>
<stop offset="0.40625" stop-color="#993DA5"/>
<stop offset="0.410156" stop-color="#9B3CA4"/>
<stop offset="0.414062" stop-color="#9C3BA3"/>
<stop offset="0.417969" stop-color="#9E3AA2"/>
<stop offset="0.421875" stop-color="#9F39A1"/>
<stop offset="0.425781" stop-color="#A138A0"/>
<stop offset="0.429688" stop-color="#A2379F"/>
<stop offset="0.433594" stop-color="#A4369F"/>
<stop offset="0.4375" stop-color="#A5359E"/>
<stop offset="0.441406" stop-color="#A7359D"/>
<stop offset="0.445312" stop-color="#A8349C"/>
<stop offset="0.449219" stop-color="#AA339B"/>
<stop offset="0.453125" stop-color="#AB329A"/>
<stop offset="0.457031" stop-color="#AD3199"/>
<stop offset="0.460938" stop-color="#AE3098"/>
<stop offset="0.464844" stop-color="#B02F98"/>
<stop offset="0.46875" stop-color="#B12E97"/>
<stop offset="0.472656" stop-color="#B32D96"/>
<stop offset="0.476562" stop-color="#B42D95"/>
<stop offset="0.480469" stop-color="#B62C94"/>
<stop offset="0.484375" stop-color="#B72B93"/>
<stop offset="0.488281" stop-color="#B92A92"/>
<stop offset="0.492188" stop-color="#BA2991"/>
<stop offset="0.496094" stop-color="#BC2891"/>
<stop offset="0.5" stop-color="#BD2790"/>
<stop offset="0.503906" stop-color="#BF268F"/>
<stop offset="0.507812" stop-color="#C0258E"/>
<stop offset="0.511719" stop-color="#C2248D"/>
<stop offset="0.515625" stop-color="#C3248C"/>
<stop offset="0.519531" stop-color="#C5238B"/>
<stop offset="0.523438" stop-color="#C6228A"/>
<stop offset="0.527344" stop-color="#C8218A"/>
<stop offset="0.53125" stop-color="#C92089"/>
<stop offset="0.535156" stop-color="#CB1F88"/>
<stop offset="0.539062" stop-color="#CC1E87"/>
<stop offset="0.542969" stop-color="#CE1D86"/>
<stop offset="0.546875" stop-color="#CF1C85"/>
<stop offset="0.550781" stop-color="#D11C84"/>
<stop offset="0.554688" stop-color="#D21B83"/>
<stop offset="0.558594" stop-color="#D41A82"/>
<stop offset="0.5625" stop-color="#D51982"/>
<stop offset="0.566406" stop-color="#D71881"/>
<stop offset="0.570312" stop-color="#D81780"/>
<stop offset="0.574219" stop-color="#DA167F"/>
<stop offset="0.578125" stop-color="#DB157E"/>
<stop offset="0.582031" stop-color="#DD147D"/>
<stop offset="0.585938" stop-color="#DE147C"/>
<stop offset="0.589844" stop-color="#E0137B"/>
<stop offset="0.59375" stop-color="#E1127B"/>
<stop offset="0.597656" stop-color="#E3117A"/>
<stop offset="0.601562" stop-color="#E41079"/>
<stop offset="0.605469" stop-color="#E60F78"/>
<stop offset="0.609375" stop-color="#E70E77"/>
<stop offset="0.613281" stop-color="#E90D76"/>
<stop offset="0.617188" stop-color="#EA0C75"/>
<stop offset="0.621094" stop-color="#EC0C74"/>
<stop offset="0.625" stop-color="#ED0B74"/>
<stop offset="0.628906" stop-color="#EF0A73"/>
<stop offset="0.632812" stop-color="#F00972"/>
<stop offset="0.636719" stop-color="#F20871"/>
<stop offset="0.640625" stop-color="#F30770"/>
<stop offset="0.644531" stop-color="#F5066F"/>
<stop offset="0.648438" stop-color="#F6056E"/>
<stop offset="0.652344" stop-color="#F8046D"/>
<stop offset="0.65625" stop-color="#F9046D"/>
<stop offset="0.660156" stop-color="#FB036C"/>
<stop offset="0.664062" stop-color="#FC026B"/>
<stop offset="0.667969" stop-color="#FE016A"/>
<stop offset="0.671875" stop-color="#FF0069"/>
<stop offset="0.6875" stop-color="#FF0069"/>
<stop offset="0.75" stop-color="#FF0069"/>
<stop offset="1" stop-color="#FF0069"/>
</linearGradient>
<linearGradient id="paint1_linear_55_4472" x1="10.4171" y1="10.9537" x2="31.5201" y2="10.9537" gradientUnits="userSpaceOnUse">
<stop stop-color="#0098FF"/>
<stop offset="0.00390625" stop-color="#0198FF"/>
<stop offset="0.0078125" stop-color="#0197FE"/>
<stop offset="0.0117188" stop-color="#0396FD"/>
<stop offset="0.015625" stop-color="#0496FD"/>
<stop offset="0.0195312" stop-color="#0695FC"/>
<stop offset="0.0234375" stop-color="#0794FB"/>
<stop offset="0.0273438" stop-color="#0993FA"/>
<stop offset="0.03125" stop-color="#0A92F9"/>
<stop offset="0.0351562" stop-color="#0C91F8"/>
<stop offset="0.0390625" stop-color="#0D90F7"/>
<stop offset="0.0429688" stop-color="#0F8FF6"/>
<stop offset="0.046875" stop-color="#108EF6"/>
<stop offset="0.0507812" stop-color="#128EF5"/>
<stop offset="0.0546875" stop-color="#138DF4"/>
<stop offset="0.0585938" stop-color="#158CF3"/>
<stop offset="0.0625" stop-color="#168BF2"/>
<stop offset="0.0664062" stop-color="#178AF1"/>
<stop offset="0.0703125" stop-color="#1989F0"/>
<stop offset="0.0742188" stop-color="#1A88EF"/>
<stop offset="0.078125" stop-color="#1C87EF"/>
<stop offset="0.0820312" stop-color="#1D86EE"/>
<stop offset="0.0859375" stop-color="#1F86ED"/>
<stop offset="0.0898438" stop-color="#2085EC"/>
<stop offset="0.09375" stop-color="#2284EB"/>
<stop offset="0.0976562" stop-color="#2383EA"/>
<stop offset="0.101562" stop-color="#2582E9"/>
<stop offset="0.105469" stop-color="#2681E8"/>
<stop offset="0.109375" stop-color="#2880E8"/>
<stop offset="0.113281" stop-color="#297FE7"/>
<stop offset="0.117188" stop-color="#2B7EE6"/>
<stop offset="0.121094" stop-color="#2C7EE5"/>
<stop offset="0.125" stop-color="#2E7DE4"/>
<stop offset="0.128906" stop-color="#2F7CE3"/>
<stop offset="0.132812" stop-color="#317BE2"/>
<stop offset="0.136719" stop-color="#327AE1"/>
<stop offset="0.140625" stop-color="#3479E0"/>
<stop offset="0.144531" stop-color="#3578E0"/>
<stop offset="0.148438" stop-color="#3777DF"/>
<stop offset="0.152344" stop-color="#3876DE"/>
<stop offset="0.15625" stop-color="#3A76DD"/>
<stop offset="0.160156" stop-color="#3B75DC"/>
<stop offset="0.164062" stop-color="#3D74DB"/>
<stop offset="0.167969" stop-color="#3E73DA"/>
<stop offset="0.171875" stop-color="#4072D9"/>
<stop offset="0.175781" stop-color="#4171D9"/>
<stop offset="0.179688" stop-color="#4370D8"/>
<stop offset="0.183594" stop-color="#446FD7"/>
<stop offset="0.1875" stop-color="#466ED6"/>
<stop offset="0.191406" stop-color="#476ED5"/>
<stop offset="0.195312" stop-color="#496DD4"/>
<stop offset="0.199219" stop-color="#4A6CD3"/>
<stop offset="0.203125" stop-color="#4C6BD2"/>
<stop offset="0.207031" stop-color="#4D6AD2"/>
<stop offset="0.210938" stop-color="#4F69D1"/>
<stop offset="0.214844" stop-color="#5068D0"/>
<stop offset="0.21875" stop-color="#5267CF"/>
<stop offset="0.222656" stop-color="#5366CE"/>
<stop offset="0.226562" stop-color="#5565CD"/>
<stop offset="0.230469" stop-color="#5665CC"/>
<stop offset="0.234375" stop-color="#5864CB"/>
<stop offset="0.238281" stop-color="#5963CB"/>
<stop offset="0.242188" stop-color="#5B62CA"/>
<stop offset="0.246094" stop-color="#5C61C9"/>
<stop offset="0.25" stop-color="#5E60C8"/>
<stop offset="0.253906" stop-color="#5F5FC7"/>
<stop offset="0.257812" stop-color="#615EC6"/>
<stop offset="0.261719" stop-color="#625DC5"/>
<stop offset="0.265625" stop-color="#645DC4"/>
<stop offset="0.269531" stop-color="#655CC3"/>
<stop offset="0.273438" stop-color="#675BC3"/>
<stop offset="0.277344" stop-color="#685AC2"/>
<stop offset="0.28125" stop-color="#6A59C1"/>
<stop offset="0.285156" stop-color="#6B58C0"/>
<stop offset="0.289062" stop-color="#6D57BF"/>
<stop offset="0.292969" stop-color="#6E56BE"/>
<stop offset="0.296875" stop-color="#7055BD"/>
<stop offset="0.300781" stop-color="#7155BC"/>
<stop offset="0.304688" stop-color="#7354BC"/>
<stop offset="0.308594" stop-color="#7453BB"/>
<stop offset="0.3125" stop-color="#7652BA"/>
<stop offset="0.316406" stop-color="#7751B9"/>
<stop offset="0.320312" stop-color="#7950B8"/>
<stop offset="0.324219" stop-color="#7A4FB7"/>
<stop offset="0.328125" stop-color="#7C4EB6"/>
<stop offset="0.332031" stop-color="#7D4DB5"/>
<stop offset="0.335938" stop-color="#7F4DB5"/>
<stop offset="0.339844" stop-color="#804CB4"/>
<stop offset="0.34375" stop-color="#824BB3"/>
<stop offset="0.347656" stop-color="#834AB2"/>
<stop offset="0.351562" stop-color="#8549B1"/>
<stop offset="0.355469" stop-color="#8648B0"/>
<stop offset="0.359375" stop-color="#8847AF"/>
<stop offset="0.363281" stop-color="#8946AE"/>
<stop offset="0.367188" stop-color="#8A45AE"/>
<stop offset="0.371094" stop-color="#8C45AD"/>
<stop offset="0.375" stop-color="#8D44AC"/>
<stop offset="0.378906" stop-color="#8F43AB"/>
<stop offset="0.382812" stop-color="#9042AA"/>
<stop offset="0.386719" stop-color="#9241A9"/>
<stop offset="0.390625" stop-color="#9340A8"/>
<stop offset="0.394531" stop-color="#953FA7"/>
<stop offset="0.398438" stop-color="#963EA6"/>
<stop offset="0.402344" stop-color="#983DA6"/>
<stop offset="0.40625" stop-color="#993DA5"/>
<stop offset="0.410156" stop-color="#9B3CA4"/>
<stop offset="0.414062" stop-color="#9C3BA3"/>
<stop offset="0.417969" stop-color="#9E3AA2"/>
<stop offset="0.421875" stop-color="#9F39A1"/>
<stop offset="0.425781" stop-color="#A138A0"/>
<stop offset="0.429688" stop-color="#A2379F"/>
<stop offset="0.433594" stop-color="#A4369F"/>
<stop offset="0.4375" stop-color="#A5359E"/>
<stop offset="0.441406" stop-color="#A7359D"/>
<stop offset="0.445312" stop-color="#A8349C"/>
<stop offset="0.449219" stop-color="#AA339B"/>
<stop offset="0.453125" stop-color="#AB329A"/>
<stop offset="0.457031" stop-color="#AD3199"/>
<stop offset="0.460938" stop-color="#AE3098"/>
<stop offset="0.464844" stop-color="#B02F98"/>
<stop offset="0.46875" stop-color="#B12E97"/>
<stop offset="0.472656" stop-color="#B32D96"/>
<stop offset="0.476562" stop-color="#B42D95"/>
<stop offset="0.480469" stop-color="#B62C94"/>
<stop offset="0.484375" stop-color="#B72B93"/>
<stop offset="0.488281" stop-color="#B92A92"/>
<stop offset="0.492188" stop-color="#BA2991"/>
<stop offset="0.496094" stop-color="#BC2891"/>
<stop offset="0.5" stop-color="#BD2790"/>
<stop offset="0.503906" stop-color="#BF268F"/>
<stop offset="0.507812" stop-color="#C0258E"/>
<stop offset="0.511719" stop-color="#C2248D"/>
<stop offset="0.515625" stop-color="#C3248C"/>
<stop offset="0.519531" stop-color="#C5238B"/>
<stop offset="0.523438" stop-color="#C6228A"/>
<stop offset="0.527344" stop-color="#C8218A"/>
<stop offset="0.53125" stop-color="#C92089"/>
<stop offset="0.535156" stop-color="#CB1F88"/>
<stop offset="0.539062" stop-color="#CC1E87"/>
<stop offset="0.542969" stop-color="#CE1D86"/>
<stop offset="0.546875" stop-color="#CF1C85"/>
<stop offset="0.550781" stop-color="#D11C84"/>
<stop offset="0.554688" stop-color="#D21B83"/>
<stop offset="0.558594" stop-color="#D41A82"/>
<stop offset="0.5625" stop-color="#D51982"/>
<stop offset="0.566406" stop-color="#D71881"/>
<stop offset="0.570312" stop-color="#D81780"/>
<stop offset="0.574219" stop-color="#DA167F"/>
<stop offset="0.578125" stop-color="#DB157E"/>
<stop offset="0.582031" stop-color="#DD147D"/>
<stop offset="0.585938" stop-color="#DE147C"/>
<stop offset="0.589844" stop-color="#E0137B"/>
<stop offset="0.59375" stop-color="#E1127B"/>
<stop offset="0.597656" stop-color="#E3117A"/>
<stop offset="0.601562" stop-color="#E41079"/>
<stop offset="0.605469" stop-color="#E60F78"/>
<stop offset="0.609375" stop-color="#E70E77"/>
<stop offset="0.613281" stop-color="#E90D76"/>
<stop offset="0.617188" stop-color="#EA0C75"/>
<stop offset="0.621094" stop-color="#EC0C74"/>
<stop offset="0.625" stop-color="#ED0B74"/>
<stop offset="0.628906" stop-color="#EF0A73"/>
<stop offset="0.632812" stop-color="#F00972"/>
<stop offset="0.636719" stop-color="#F20871"/>
<stop offset="0.640625" stop-color="#F30770"/>
<stop offset="0.644531" stop-color="#F5066F"/>
<stop offset="0.648438" stop-color="#F6056E"/>
<stop offset="0.652344" stop-color="#F8046D"/>
<stop offset="0.65625" stop-color="#F9046D"/>
<stop offset="0.660156" stop-color="#FB036C"/>
<stop offset="0.664062" stop-color="#FC026B"/>
<stop offset="0.667969" stop-color="#FE016A"/>
<stop offset="0.671875" stop-color="#FF0069"/>
<stop offset="0.6875" stop-color="#FF0069"/>
<stop offset="0.75" stop-color="#FF0069"/>
<stop offset="1" stop-color="#FF0069"/>
</linearGradient>
</defs>
</svg>
