<svg width="32" height="32" viewBox="0 0 32 32" fill="none" xmlns="http://www.w3.org/2000/svg">
<g clip-path="url(#clip0_203_213)">
<path d="M25.9577 9.59502L23.5779 7.21502C23.0512 6.69294 22.3396 6.40002 21.5981 6.40002H10.2591C9.51915 6.40002 8.80421 6.69502 8.27926 7.21502L5.89947 9.59502H0V22.38H3.19971C4.07963 22.38 4.78957 21.67 4.79457 20.795H5.24953L9.47915 24.615C11.024 25.87 13.1688 25.9 14.7587 24.805C15.3836 25.345 16.0586 25.6 16.8135 25.6C17.7234 25.6 18.5783 25.23 19.2533 24.4C20.3582 24.835 21.6631 24.53 22.453 23.56L23.7629 21.945C24.0428 21.6 24.2178 21.205 24.3078 20.795H27.2026C27.2076 21.67 27.9225 22.38 28.7974 22.38H31.9971V9.59502H25.9577ZM2.39978 20.78C1.95982 20.78 1.59986 20.42 1.59986 19.98C1.59986 19.54 1.95982 19.18 2.39978 19.18C2.83975 19.18 3.19971 19.54 3.19971 19.98C3.19971 20.425 2.83975 20.78 2.39978 20.78ZM21.898 20.435L20.5932 22.045C20.4532 22.215 20.2032 22.245 20.0282 22.105L18.8333 21.135L17.3334 22.96C17.0335 23.325 16.5835 23.2 16.4335 23.08L14.5937 21.505L13.8138 22.465C13.1188 23.32 11.8539 23.45 11.049 22.795L6.18445 18.395H4.79957V11.99H6.89438L9.97911 8.91002C10.0791 8.87002 10.1641 8.83502 10.2641 8.79502H13.0988L11.164 10.57C9.69413 11.915 9.60914 14.185 10.944 15.635C11.684 16.445 14.0037 17.695 16.0186 15.855L16.4285 15.48L21.838 19.87C22.008 20.01 22.033 20.265 21.898 20.435ZM27.1976 18.395H23.7379C23.6229 18.255 23.4929 18.125 23.3529 18.01L18.2184 13.84L18.8433 13.27C19.1683 12.97 19.1933 12.465 18.8933 12.14L18.3484 11.555C18.0484 11.23 17.5434 11.21 17.2185 11.505L14.4587 14.035C13.9837 14.47 13.1738 14.505 12.7289 14.035C12.2639 13.54 12.3039 12.78 12.7889 12.34L16.0686 9.33502C16.4385 8.99502 16.9185 8.81002 17.4184 8.81002L21.6031 8.80002C21.7081 8.80002 21.808 8.84002 21.878 8.91502L24.9628 11.995H27.1976V18.395ZM29.5973 20.78C29.1574 20.78 28.7974 20.42 28.7974 19.98C28.7974 19.54 29.1574 19.18 29.5973 19.18C30.0373 19.18 30.3973 19.54 30.3973 19.98C30.3973 20.425 30.0373 20.78 29.5973 20.78Z" fill="black"/>
<path d="M25.9577 9.59502L23.5779 7.21502C23.0512 6.69294 22.3396 6.40002 21.5981 6.40002H10.2591C9.51915 6.40002 8.80421 6.69502 8.27926 7.21502L5.89947 9.59502H0V22.38H3.19971C4.07963 22.38 4.78957 21.67 4.79457 20.795H5.24953L9.47915 24.615C11.024 25.87 13.1688 25.9 14.7587 24.805C15.3836 25.345 16.0586 25.6 16.8135 25.6C17.7234 25.6 18.5783 25.23 19.2533 24.4C20.3582 24.835 21.6631 24.53 22.453 23.56L23.7629 21.945C24.0428 21.6 24.2178 21.205 24.3078 20.795H27.2026C27.2076 21.67 27.9225 22.38 28.7974 22.38H31.9971V9.59502H25.9577ZM2.39978 20.78C1.95982 20.78 1.59986 20.42 1.59986 19.98C1.59986 19.54 1.95982 19.18 2.39978 19.18C2.83975 19.18 3.19971 19.54 3.19971 19.98C3.19971 20.425 2.83975 20.78 2.39978 20.78ZM21.898 20.435L20.5932 22.045C20.4532 22.215 20.2032 22.245 20.0282 22.105L18.8333 21.135L17.3334 22.96C17.0335 23.325 16.5835 23.2 16.4335 23.08L14.5937 21.505L13.8138 22.465C13.1188 23.32 11.8539 23.45 11.049 22.795L6.18445 18.395H4.79957V11.99H6.89438L9.97911 8.91002C10.0791 8.87002 10.1641 8.83502 10.2641 8.79502H13.0988L11.164 10.57C9.69413 11.915 9.60914 14.185 10.944 15.635C11.684 16.445 14.0037 17.695 16.0186 15.855L16.4285 15.48L21.838 19.87C22.008 20.01 22.033 20.265 21.898 20.435ZM27.1976 18.395H23.7379C23.6229 18.255 23.4929 18.125 23.3529 18.01L18.2184 13.84L18.8433 13.27C19.1683 12.97 19.1933 12.465 18.8933 12.14L18.3484 11.555C18.0484 11.23 17.5434 11.21 17.2185 11.505L14.4587 14.035C13.9837 14.47 13.1738 14.505 12.7289 14.035C12.2639 13.54 12.3039 12.78 12.7889 12.34L16.0686 9.33502C16.4385 8.99502 16.9185 8.81002 17.4184 8.81002L21.6031 8.80002C21.7081 8.80002 21.808 8.84002 21.878 8.91502L24.9628 11.995H27.1976V18.395ZM29.5973 20.78C29.1574 20.78 28.7974 20.42 28.7974 19.98C28.7974 19.54 29.1574 19.18 29.5973 19.18C30.0373 19.18 30.3973 19.54 30.3973 19.98C30.3973 20.425 30.0373 20.78 29.5973 20.78Z" fill="url(#paint0_linear_203_213)"/>
</g>
<defs>
<linearGradient id="paint0_linear_203_213" x1="0.00169935" y1="15.9386" x2="31.9956" y2="15.9386" gradientUnits="userSpaceOnUse">
<stop stop-color="#0098FF"/>
<stop offset="0.00390625" stop-color="#0198FF"/>
<stop offset="0.0078125" stop-color="#0197FE"/>
<stop offset="0.0117188" stop-color="#0396FD"/>
<stop offset="0.015625" stop-color="#0496FD"/>
<stop offset="0.0195312" stop-color="#0695FC"/>
<stop offset="0.0234375" stop-color="#0794FB"/>
<stop offset="0.0273438" stop-color="#0993FA"/>
<stop offset="0.03125" stop-color="#0A92F9"/>
<stop offset="0.0351562" stop-color="#0C91F8"/>
<stop offset="0.0390625" stop-color="#0D90F7"/>
<stop offset="0.0429688" stop-color="#0F8FF6"/>
<stop offset="0.046875" stop-color="#108EF6"/>
<stop offset="0.0507812" stop-color="#128EF5"/>
<stop offset="0.0546875" stop-color="#138DF4"/>
<stop offset="0.0585938" stop-color="#158CF3"/>
<stop offset="0.0625" stop-color="#168BF2"/>
<stop offset="0.0664062" stop-color="#178AF1"/>
<stop offset="0.0703125" stop-color="#1989F0"/>
<stop offset="0.0742188" stop-color="#1A88EF"/>
<stop offset="0.078125" stop-color="#1C87EF"/>
<stop offset="0.0820312" stop-color="#1D86EE"/>
<stop offset="0.0859375" stop-color="#1F86ED"/>
<stop offset="0.0898438" stop-color="#2085EC"/>
<stop offset="0.09375" stop-color="#2284EB"/>
<stop offset="0.0976562" stop-color="#2383EA"/>
<stop offset="0.101562" stop-color="#2582E9"/>
<stop offset="0.105469" stop-color="#2681E8"/>
<stop offset="0.109375" stop-color="#2880E8"/>
<stop offset="0.113281" stop-color="#297FE7"/>
<stop offset="0.117188" stop-color="#2B7EE6"/>
<stop offset="0.121094" stop-color="#2C7EE5"/>
<stop offset="0.125" stop-color="#2E7DE4"/>
<stop offset="0.128906" stop-color="#2F7CE3"/>
<stop offset="0.132812" stop-color="#317BE2"/>
<stop offset="0.136719" stop-color="#327AE1"/>
<stop offset="0.140625" stop-color="#3479E0"/>
<stop offset="0.144531" stop-color="#3578E0"/>
<stop offset="0.148438" stop-color="#3777DF"/>
<stop offset="0.152344" stop-color="#3876DE"/>
<stop offset="0.15625" stop-color="#3A76DD"/>
<stop offset="0.160156" stop-color="#3B75DC"/>
<stop offset="0.164062" stop-color="#3D74DB"/>
<stop offset="0.167969" stop-color="#3E73DA"/>
<stop offset="0.171875" stop-color="#4072D9"/>
<stop offset="0.175781" stop-color="#4171D9"/>
<stop offset="0.179688" stop-color="#4370D8"/>
<stop offset="0.183594" stop-color="#446FD7"/>
<stop offset="0.1875" stop-color="#466ED6"/>
<stop offset="0.191406" stop-color="#476ED5"/>
<stop offset="0.195312" stop-color="#496DD4"/>
<stop offset="0.199219" stop-color="#4A6CD3"/>
<stop offset="0.203125" stop-color="#4C6BD2"/>
<stop offset="0.207031" stop-color="#4D6AD2"/>
<stop offset="0.210938" stop-color="#4F69D1"/>
<stop offset="0.214844" stop-color="#5068D0"/>
<stop offset="0.21875" stop-color="#5267CF"/>
<stop offset="0.222656" stop-color="#5366CE"/>
<stop offset="0.226562" stop-color="#5565CD"/>
<stop offset="0.230469" stop-color="#5665CC"/>
<stop offset="0.234375" stop-color="#5864CB"/>
<stop offset="0.238281" stop-color="#5963CB"/>
<stop offset="0.242188" stop-color="#5B62CA"/>
<stop offset="0.246094" stop-color="#5C61C9"/>
<stop offset="0.25" stop-color="#5E60C8"/>
<stop offset="0.253906" stop-color="#5F5FC7"/>
<stop offset="0.257812" stop-color="#615EC6"/>
<stop offset="0.261719" stop-color="#625DC5"/>
<stop offset="0.265625" stop-color="#645DC4"/>
<stop offset="0.269531" stop-color="#655CC3"/>
<stop offset="0.273438" stop-color="#675BC3"/>
<stop offset="0.277344" stop-color="#685AC2"/>
<stop offset="0.28125" stop-color="#6A59C1"/>
<stop offset="0.285156" stop-color="#6B58C0"/>
<stop offset="0.289062" stop-color="#6D57BF"/>
<stop offset="0.292969" stop-color="#6E56BE"/>
<stop offset="0.296875" stop-color="#7055BD"/>
<stop offset="0.300781" stop-color="#7155BC"/>
<stop offset="0.304688" stop-color="#7354BC"/>
<stop offset="0.308594" stop-color="#7453BB"/>
<stop offset="0.3125" stop-color="#7652BA"/>
<stop offset="0.316406" stop-color="#7751B9"/>
<stop offset="0.320312" stop-color="#7950B8"/>
<stop offset="0.324219" stop-color="#7A4FB7"/>
<stop offset="0.328125" stop-color="#7C4EB6"/>
<stop offset="0.332031" stop-color="#7D4DB5"/>
<stop offset="0.335938" stop-color="#7F4DB5"/>
<stop offset="0.339844" stop-color="#804CB4"/>
<stop offset="0.34375" stop-color="#824BB3"/>
<stop offset="0.347656" stop-color="#834AB2"/>
<stop offset="0.351562" stop-color="#8549B1"/>
<stop offset="0.355469" stop-color="#8648B0"/>
<stop offset="0.359375" stop-color="#8847AF"/>
<stop offset="0.363281" stop-color="#8946AE"/>
<stop offset="0.367188" stop-color="#8A45AE"/>
<stop offset="0.371094" stop-color="#8C45AD"/>
<stop offset="0.375" stop-color="#8D44AC"/>
<stop offset="0.378906" stop-color="#8F43AB"/>
<stop offset="0.382812" stop-color="#9042AA"/>
<stop offset="0.386719" stop-color="#9241A9"/>
<stop offset="0.390625" stop-color="#9340A8"/>
<stop offset="0.394531" stop-color="#953FA7"/>
<stop offset="0.398438" stop-color="#963EA6"/>
<stop offset="0.402344" stop-color="#983DA6"/>
<stop offset="0.40625" stop-color="#993DA5"/>
<stop offset="0.410156" stop-color="#9B3CA4"/>
<stop offset="0.414062" stop-color="#9C3BA3"/>
<stop offset="0.417969" stop-color="#9E3AA2"/>
<stop offset="0.421875" stop-color="#9F39A1"/>
<stop offset="0.425781" stop-color="#A138A0"/>
<stop offset="0.429688" stop-color="#A2379F"/>
<stop offset="0.433594" stop-color="#A4369F"/>
<stop offset="0.4375" stop-color="#A5359E"/>
<stop offset="0.441406" stop-color="#A7359D"/>
<stop offset="0.445312" stop-color="#A8349C"/>
<stop offset="0.449219" stop-color="#AA339B"/>
<stop offset="0.453125" stop-color="#AB329A"/>
<stop offset="0.457031" stop-color="#AD3199"/>
<stop offset="0.460938" stop-color="#AE3098"/>
<stop offset="0.464844" stop-color="#B02F98"/>
<stop offset="0.46875" stop-color="#B12E97"/>
<stop offset="0.472656" stop-color="#B32D96"/>
<stop offset="0.476562" stop-color="#B42D95"/>
<stop offset="0.480469" stop-color="#B62C94"/>
<stop offset="0.484375" stop-color="#B72B93"/>
<stop offset="0.488281" stop-color="#B92A92"/>
<stop offset="0.492188" stop-color="#BA2991"/>
<stop offset="0.496094" stop-color="#BC2891"/>
<stop offset="0.5" stop-color="#BD2790"/>
<stop offset="0.503906" stop-color="#BF268F"/>
<stop offset="0.507812" stop-color="#C0258E"/>
<stop offset="0.511719" stop-color="#C2248D"/>
<stop offset="0.515625" stop-color="#C3248C"/>
<stop offset="0.519531" stop-color="#C5238B"/>
<stop offset="0.523438" stop-color="#C6228A"/>
<stop offset="0.527344" stop-color="#C8218A"/>
<stop offset="0.53125" stop-color="#C92089"/>
<stop offset="0.535156" stop-color="#CB1F88"/>
<stop offset="0.539062" stop-color="#CC1E87"/>
<stop offset="0.542969" stop-color="#CE1D86"/>
<stop offset="0.546875" stop-color="#CF1C85"/>
<stop offset="0.550781" stop-color="#D11C84"/>
<stop offset="0.554688" stop-color="#D21B83"/>
<stop offset="0.558594" stop-color="#D41A82"/>
<stop offset="0.5625" stop-color="#D51982"/>
<stop offset="0.566406" stop-color="#D71881"/>
<stop offset="0.570312" stop-color="#D81780"/>
<stop offset="0.574219" stop-color="#DA167F"/>
<stop offset="0.578125" stop-color="#DB157E"/>
<stop offset="0.582031" stop-color="#DD147D"/>
<stop offset="0.585938" stop-color="#DE147C"/>
<stop offset="0.589844" stop-color="#E0137B"/>
<stop offset="0.59375" stop-color="#E1127B"/>
<stop offset="0.597656" stop-color="#E3117A"/>
<stop offset="0.601562" stop-color="#E41079"/>
<stop offset="0.605469" stop-color="#E60F78"/>
<stop offset="0.609375" stop-color="#E70E77"/>
<stop offset="0.613281" stop-color="#E90D76"/>
<stop offset="0.617188" stop-color="#EA0C75"/>
<stop offset="0.621094" stop-color="#EC0C74"/>
<stop offset="0.625" stop-color="#ED0B74"/>
<stop offset="0.628906" stop-color="#EF0A73"/>
<stop offset="0.632812" stop-color="#F00972"/>
<stop offset="0.636719" stop-color="#F20871"/>
<stop offset="0.640625" stop-color="#F30770"/>
<stop offset="0.644531" stop-color="#F5066F"/>
<stop offset="0.648438" stop-color="#F6056E"/>
<stop offset="0.652344" stop-color="#F8046D"/>
<stop offset="0.65625" stop-color="#F9046D"/>
<stop offset="0.660156" stop-color="#FB036C"/>
<stop offset="0.664062" stop-color="#FC026B"/>
<stop offset="0.667969" stop-color="#FE016A"/>
<stop offset="0.671875" stop-color="#FF0069"/>
<stop offset="0.6875" stop-color="#FF0069"/>
<stop offset="0.75" stop-color="#FF0069"/>
<stop offset="1" stop-color="#FF0069"/>
</linearGradient>
<clipPath id="clip0_203_213">
<rect width="31.9971" height="32" fill="white"/>
</clipPath>
</defs>
</svg>
