<svg width="32" height="32" viewBox="0 0 32 32" fill="none" xmlns="http://www.w3.org/2000/svg">
<path d="M5.33301 17.3333C5.7663 20.7093 7.84078 23.708 10.6659 25.3333M26.6644 14.6667C26.3384 12.3203 25.25 10.1462 23.5669 8.47934C21.8838 6.81246 19.6994 5.74524 17.3502 5.44209C15.0009 5.13893 12.6172 5.61666 10.5661 6.80168C8.5151 7.98669 6.91053 9.81326 5.99961 12" stroke="url(#paint0_linear_203_263)" stroke-width="2" stroke-linecap="round" stroke-linejoin="round"/>
<path d="M5.33301 6.66669V12H10.6659M15.9987 20H18.6651C19.0187 20 19.3578 20.1405 19.6079 20.3905C19.8579 20.6406 19.9984 20.9797 19.9984 21.3334V22.6667C19.9984 23.0203 19.8579 23.3594 19.6079 23.6095C19.3578 23.8595 19.0187 24 18.6651 24H17.3319C16.9783 24 16.6392 24.1405 16.3892 24.3905C16.1392 24.6406 15.9987 24.9797 15.9987 25.3334V26.6667C15.9987 27.0203 16.1392 27.3594 16.3892 27.6095C16.6392 27.8595 16.9783 28 17.3319 28H19.9984M23.998 20V22.6667C23.998 23.0203 24.1385 23.3594 24.3885 23.6095C24.6385 23.8595 24.9776 24 25.3312 24H26.6644M27.9976 20V28" stroke="url(#paint1_linear_203_263)" stroke-width="2" stroke-linecap="round" stroke-linejoin="round"/>
<defs>
<linearGradient id="paint0_linear_203_263" x1="4.49983" y1="15" x2="26.9978" y2="15" gradientUnits="userSpaceOnUse">
<stop stop-color="#0F8EF6"/>
<stop offset="0.479167" stop-color="#A038A0"/>
<stop offset="1" stop-color="#FF0069"/>
</linearGradient>
<linearGradient id="paint1_linear_203_263" x1="4.99979" y1="25.4999" x2="28.9976" y2="25.9998" gradientUnits="userSpaceOnUse">
<stop stop-color="#0F8EF6"/>
<stop offset="0.479167" stop-color="#A038A0"/>
<stop offset="1" stop-color="#FF0069"/>
</linearGradient>
</defs>
</svg>
