<svg width="32" height="32" viewBox="0 0 32 32" fill="none" xmlns="http://www.w3.org/2000/svg">
<g clip-path="url(#clip0_203_255)">
<path d="M15.9986 0C7.17685 0 0 7.17749 0 16C0 24.8225 7.17685 32 15.9986 32C24.8203 32 31.9971 24.8225 31.9971 16C31.9971 7.17749 24.8203 0 15.9986 0ZM11.7387 1.91093C10.4835 3.13098 9.41953 4.88241 8.63278 7.00986C7.7254 6.48284 6.8728 5.85435 6.08306 5.13149C7.6851 3.6684 9.61107 2.5556 11.7387 1.91093ZM5.16515 6.04779C6.10249 6.91223 7.12654 7.65095 8.21617 8.25967C7.58436 10.3678 7.2083 12.7765 7.15455 15.36H1.29611C1.45021 11.7774 2.88957 8.52325 5.16515 6.04779ZM1.29611 16.64H7.15455C7.20798 19.2089 7.57975 21.6057 8.20518 23.7053C7.11159 24.3174 6.08443 25.0608 5.14461 25.9306C2.88067 23.4578 1.44976 20.212 1.29611 16.64ZM6.06096 26.8474C6.85324 26.1192 7.70947 25.4865 8.62076 24.9561C9.40875 27.0986 10.4769 28.8625 11.7387 30.089C9.60106 29.4414 7.66749 28.3207 6.06096 26.8474ZM15.3586 30.661C13.0893 30.2713 11.07 27.838 9.80417 24.3393C11.5324 23.5356 13.4093 23.0764 15.3586 22.9932V30.661ZM15.3586 21.6975C13.2719 21.7791 11.2576 22.2597 9.40075 23.1011C8.83452 21.1589 8.48856 18.9596 8.43448 16.64H15.3586V21.6975ZM15.3586 15.36H8.43448C8.48888 13.0258 8.83914 10.8137 9.41167 8.86248C11.2656 9.70085 13.276 10.1798 15.3586 10.2613V15.36ZM15.3586 8.96564C13.4142 8.88257 11.5417 8.42562 9.81717 7.62567C11.0838 4.14589 13.097 1.72744 15.3586 1.339V8.96564ZM30.701 15.36H24.8426C24.7888 12.7765 24.4127 10.3676 23.7809 8.25942C24.8706 7.65076 25.8944 6.91177 26.8317 6.04747C29.1074 8.52299 30.5468 11.7773 30.701 15.36ZM25.9144 5.13181C25.1246 5.85448 24.2717 6.48258 23.3643 7.00953C22.5775 4.88221 21.5136 3.13092 20.2584 1.91087C22.3862 2.5556 24.3123 3.6686 25.9144 5.13181ZM16.6385 1.339C18.9001 1.72737 20.9133 4.14576 22.1799 7.62541C20.4551 8.42543 18.5825 8.8827 16.6385 8.9657V1.339ZM16.6385 10.2613C18.7206 10.1798 20.7313 9.70085 22.5855 8.86235C23.158 10.8136 23.5082 13.0257 23.5626 15.3599H16.6385V10.2613ZM16.6385 16.64H23.5626C23.5086 18.9597 23.1625 21.1589 22.5964 23.1012C20.7392 22.2596 18.7247 21.779 16.6385 21.6974V16.64ZM16.6385 30.661V22.993C18.5873 23.0763 20.4644 23.5357 22.1929 24.3395C20.9271 27.8381 18.9078 30.2713 16.6385 30.661ZM20.2584 30.0891C21.5202 28.8626 22.5883 27.0988 23.3763 24.9563C24.2877 25.4867 25.1442 26.119 25.9366 26.847C24.33 28.3205 22.3963 29.4413 20.2584 30.0891ZM26.8523 25.9309C25.9125 25.0612 24.8855 24.3176 23.7919 23.7055C24.4173 21.6059 24.7891 19.209 24.8426 16.64H30.701C30.5473 20.2121 29.1163 23.4581 26.8523 25.9309Z" fill="black"/>
<path d="M15.9986 0C7.17685 0 0 7.17749 0 16C0 24.8225 7.17685 32 15.9986 32C24.8203 32 31.9971 24.8225 31.9971 16C31.9971 7.17749 24.8203 0 15.9986 0ZM11.7387 1.91093C10.4835 3.13098 9.41953 4.88241 8.63278 7.00986C7.7254 6.48284 6.8728 5.85435 6.08306 5.13149C7.6851 3.6684 9.61107 2.5556 11.7387 1.91093ZM5.16515 6.04779C6.10249 6.91223 7.12654 7.65095 8.21617 8.25967C7.58436 10.3678 7.2083 12.7765 7.15455 15.36H1.29611C1.45021 11.7774 2.88957 8.52325 5.16515 6.04779ZM1.29611 16.64H7.15455C7.20798 19.2089 7.57975 21.6057 8.20518 23.7053C7.11159 24.3174 6.08443 25.0608 5.14461 25.9306C2.88067 23.4578 1.44976 20.212 1.29611 16.64ZM6.06096 26.8474C6.85324 26.1192 7.70947 25.4865 8.62076 24.9561C9.40875 27.0986 10.4769 28.8625 11.7387 30.089C9.60106 29.4414 7.66749 28.3207 6.06096 26.8474ZM15.3586 30.661C13.0893 30.2713 11.07 27.838 9.80417 24.3393C11.5324 23.5356 13.4093 23.0764 15.3586 22.9932V30.661ZM15.3586 21.6975C13.2719 21.7791 11.2576 22.2597 9.40075 23.1011C8.83452 21.1589 8.48856 18.9596 8.43448 16.64H15.3586V21.6975ZM15.3586 15.36H8.43448C8.48888 13.0258 8.83914 10.8137 9.41167 8.86248C11.2656 9.70085 13.276 10.1798 15.3586 10.2613V15.36ZM15.3586 8.96564C13.4142 8.88257 11.5417 8.42562 9.81717 7.62567C11.0838 4.14589 13.097 1.72744 15.3586 1.339V8.96564ZM30.701 15.36H24.8426C24.7888 12.7765 24.4127 10.3676 23.7809 8.25942C24.8706 7.65076 25.8944 6.91177 26.8317 6.04747C29.1074 8.52299 30.5468 11.7773 30.701 15.36ZM25.9144 5.13181C25.1246 5.85448 24.2717 6.48258 23.3643 7.00953C22.5775 4.88221 21.5136 3.13092 20.2584 1.91087C22.3862 2.5556 24.3123 3.6686 25.9144 5.13181ZM16.6385 1.339C18.9001 1.72737 20.9133 4.14576 22.1799 7.62541C20.4551 8.42543 18.5825 8.8827 16.6385 8.9657V1.339ZM16.6385 10.2613C18.7206 10.1798 20.7313 9.70085 22.5855 8.86235C23.158 10.8136 23.5082 13.0257 23.5626 15.3599H16.6385V10.2613ZM16.6385 16.64H23.5626C23.5086 18.9597 23.1625 21.1589 22.5964 23.1012C20.7392 22.2596 18.7247 21.779 16.6385 21.6974V16.64ZM16.6385 30.661V22.993C18.5873 23.0763 20.4644 23.5357 22.1929 24.3395C20.9271 27.8381 18.9078 30.2713 16.6385 30.661ZM20.2584 30.0891C21.5202 28.8626 22.5883 27.0988 23.3763 24.9563C24.2877 25.4867 25.1442 26.119 25.9366 26.847C24.33 28.3205 22.3963 29.4413 20.2584 30.0891ZM26.8523 25.9309C25.9125 25.0612 24.8855 24.3176 23.7919 23.7055C24.4173 21.6059 24.7891 19.209 24.8426 16.64H30.701C30.5473 20.2121 29.1163 23.4581 26.8523 25.9309Z" fill="url(#paint0_linear_203_255)"/>
</g>
<defs>
<linearGradient id="paint0_linear_203_255" x1="0.00169935" y1="15.8976" x2="31.9956" y2="15.8976" gradientUnits="userSpaceOnUse">
<stop stop-color="#0098FF"/>
<stop offset="0.00390625" stop-color="#0198FF"/>
<stop offset="0.0078125" stop-color="#0197FE"/>
<stop offset="0.0117188" stop-color="#0396FD"/>
<stop offset="0.015625" stop-color="#0496FD"/>
<stop offset="0.0195312" stop-color="#0695FC"/>
<stop offset="0.0234375" stop-color="#0794FB"/>
<stop offset="0.0273438" stop-color="#0993FA"/>
<stop offset="0.03125" stop-color="#0A92F9"/>
<stop offset="0.0351562" stop-color="#0C91F8"/>
<stop offset="0.0390625" stop-color="#0D90F7"/>
<stop offset="0.0429688" stop-color="#0F8FF6"/>
<stop offset="0.046875" stop-color="#108EF6"/>
<stop offset="0.0507812" stop-color="#128EF5"/>
<stop offset="0.0546875" stop-color="#138DF4"/>
<stop offset="0.0585938" stop-color="#158CF3"/>
<stop offset="0.0625" stop-color="#168BF2"/>
<stop offset="0.0664062" stop-color="#178AF1"/>
<stop offset="0.0703125" stop-color="#1989F0"/>
<stop offset="0.0742188" stop-color="#1A88EF"/>
<stop offset="0.078125" stop-color="#1C87EF"/>
<stop offset="0.0820312" stop-color="#1D86EE"/>
<stop offset="0.0859375" stop-color="#1F86ED"/>
<stop offset="0.0898438" stop-color="#2085EC"/>
<stop offset="0.09375" stop-color="#2284EB"/>
<stop offset="0.0976562" stop-color="#2383EA"/>
<stop offset="0.101562" stop-color="#2582E9"/>
<stop offset="0.105469" stop-color="#2681E8"/>
<stop offset="0.109375" stop-color="#2880E8"/>
<stop offset="0.113281" stop-color="#297FE7"/>
<stop offset="0.117188" stop-color="#2B7EE6"/>
<stop offset="0.121094" stop-color="#2C7EE5"/>
<stop offset="0.125" stop-color="#2E7DE4"/>
<stop offset="0.128906" stop-color="#2F7CE3"/>
<stop offset="0.132812" stop-color="#317BE2"/>
<stop offset="0.136719" stop-color="#327AE1"/>
<stop offset="0.140625" stop-color="#3479E0"/>
<stop offset="0.144531" stop-color="#3578E0"/>
<stop offset="0.148438" stop-color="#3777DF"/>
<stop offset="0.152344" stop-color="#3876DE"/>
<stop offset="0.15625" stop-color="#3A76DD"/>
<stop offset="0.160156" stop-color="#3B75DC"/>
<stop offset="0.164062" stop-color="#3D74DB"/>
<stop offset="0.167969" stop-color="#3E73DA"/>
<stop offset="0.171875" stop-color="#4072D9"/>
<stop offset="0.175781" stop-color="#4171D9"/>
<stop offset="0.179688" stop-color="#4370D8"/>
<stop offset="0.183594" stop-color="#446FD7"/>
<stop offset="0.1875" stop-color="#466ED6"/>
<stop offset="0.191406" stop-color="#476ED5"/>
<stop offset="0.195312" stop-color="#496DD4"/>
<stop offset="0.199219" stop-color="#4A6CD3"/>
<stop offset="0.203125" stop-color="#4C6BD2"/>
<stop offset="0.207031" stop-color="#4D6AD2"/>
<stop offset="0.210938" stop-color="#4F69D1"/>
<stop offset="0.214844" stop-color="#5068D0"/>
<stop offset="0.21875" stop-color="#5267CF"/>
<stop offset="0.222656" stop-color="#5366CE"/>
<stop offset="0.226562" stop-color="#5565CD"/>
<stop offset="0.230469" stop-color="#5665CC"/>
<stop offset="0.234375" stop-color="#5864CB"/>
<stop offset="0.238281" stop-color="#5963CB"/>
<stop offset="0.242188" stop-color="#5B62CA"/>
<stop offset="0.246094" stop-color="#5C61C9"/>
<stop offset="0.25" stop-color="#5E60C8"/>
<stop offset="0.253906" stop-color="#5F5FC7"/>
<stop offset="0.257812" stop-color="#615EC6"/>
<stop offset="0.261719" stop-color="#625DC5"/>
<stop offset="0.265625" stop-color="#645DC4"/>
<stop offset="0.269531" stop-color="#655CC3"/>
<stop offset="0.273438" stop-color="#675BC3"/>
<stop offset="0.277344" stop-color="#685AC2"/>
<stop offset="0.28125" stop-color="#6A59C1"/>
<stop offset="0.285156" stop-color="#6B58C0"/>
<stop offset="0.289062" stop-color="#6D57BF"/>
<stop offset="0.292969" stop-color="#6E56BE"/>
<stop offset="0.296875" stop-color="#7055BD"/>
<stop offset="0.300781" stop-color="#7155BC"/>
<stop offset="0.304688" stop-color="#7354BC"/>
<stop offset="0.308594" stop-color="#7453BB"/>
<stop offset="0.3125" stop-color="#7652BA"/>
<stop offset="0.316406" stop-color="#7751B9"/>
<stop offset="0.320312" stop-color="#7950B8"/>
<stop offset="0.324219" stop-color="#7A4FB7"/>
<stop offset="0.328125" stop-color="#7C4EB6"/>
<stop offset="0.332031" stop-color="#7D4DB5"/>
<stop offset="0.335938" stop-color="#7F4DB5"/>
<stop offset="0.339844" stop-color="#804CB4"/>
<stop offset="0.34375" stop-color="#824BB3"/>
<stop offset="0.347656" stop-color="#834AB2"/>
<stop offset="0.351562" stop-color="#8549B1"/>
<stop offset="0.355469" stop-color="#8648B0"/>
<stop offset="0.359375" stop-color="#8847AF"/>
<stop offset="0.363281" stop-color="#8946AE"/>
<stop offset="0.367188" stop-color="#8A45AE"/>
<stop offset="0.371094" stop-color="#8C45AD"/>
<stop offset="0.375" stop-color="#8D44AC"/>
<stop offset="0.378906" stop-color="#8F43AB"/>
<stop offset="0.382812" stop-color="#9042AA"/>
<stop offset="0.386719" stop-color="#9241A9"/>
<stop offset="0.390625" stop-color="#9340A8"/>
<stop offset="0.394531" stop-color="#953FA7"/>
<stop offset="0.398438" stop-color="#963EA6"/>
<stop offset="0.402344" stop-color="#983DA6"/>
<stop offset="0.40625" stop-color="#993DA5"/>
<stop offset="0.410156" stop-color="#9B3CA4"/>
<stop offset="0.414062" stop-color="#9C3BA3"/>
<stop offset="0.417969" stop-color="#9E3AA2"/>
<stop offset="0.421875" stop-color="#9F39A1"/>
<stop offset="0.425781" stop-color="#A138A0"/>
<stop offset="0.429688" stop-color="#A2379F"/>
<stop offset="0.433594" stop-color="#A4369F"/>
<stop offset="0.4375" stop-color="#A5359E"/>
<stop offset="0.441406" stop-color="#A7359D"/>
<stop offset="0.445312" stop-color="#A8349C"/>
<stop offset="0.449219" stop-color="#AA339B"/>
<stop offset="0.453125" stop-color="#AB329A"/>
<stop offset="0.457031" stop-color="#AD3199"/>
<stop offset="0.460938" stop-color="#AE3098"/>
<stop offset="0.464844" stop-color="#B02F98"/>
<stop offset="0.46875" stop-color="#B12E97"/>
<stop offset="0.472656" stop-color="#B32D96"/>
<stop offset="0.476562" stop-color="#B42D95"/>
<stop offset="0.480469" stop-color="#B62C94"/>
<stop offset="0.484375" stop-color="#B72B93"/>
<stop offset="0.488281" stop-color="#B92A92"/>
<stop offset="0.492188" stop-color="#BA2991"/>
<stop offset="0.496094" stop-color="#BC2891"/>
<stop offset="0.5" stop-color="#BD2790"/>
<stop offset="0.503906" stop-color="#BF268F"/>
<stop offset="0.507812" stop-color="#C0258E"/>
<stop offset="0.511719" stop-color="#C2248D"/>
<stop offset="0.515625" stop-color="#C3248C"/>
<stop offset="0.519531" stop-color="#C5238B"/>
<stop offset="0.523438" stop-color="#C6228A"/>
<stop offset="0.527344" stop-color="#C8218A"/>
<stop offset="0.53125" stop-color="#C92089"/>
<stop offset="0.535156" stop-color="#CB1F88"/>
<stop offset="0.539062" stop-color="#CC1E87"/>
<stop offset="0.542969" stop-color="#CE1D86"/>
<stop offset="0.546875" stop-color="#CF1C85"/>
<stop offset="0.550781" stop-color="#D11C84"/>
<stop offset="0.554688" stop-color="#D21B83"/>
<stop offset="0.558594" stop-color="#D41A82"/>
<stop offset="0.5625" stop-color="#D51982"/>
<stop offset="0.566406" stop-color="#D71881"/>
<stop offset="0.570312" stop-color="#D81780"/>
<stop offset="0.574219" stop-color="#DA167F"/>
<stop offset="0.578125" stop-color="#DB157E"/>
<stop offset="0.582031" stop-color="#DD147D"/>
<stop offset="0.585938" stop-color="#DE147C"/>
<stop offset="0.589844" stop-color="#E0137B"/>
<stop offset="0.59375" stop-color="#E1127B"/>
<stop offset="0.597656" stop-color="#E3117A"/>
<stop offset="0.601562" stop-color="#E41079"/>
<stop offset="0.605469" stop-color="#E60F78"/>
<stop offset="0.609375" stop-color="#E70E77"/>
<stop offset="0.613281" stop-color="#E90D76"/>
<stop offset="0.617188" stop-color="#EA0C75"/>
<stop offset="0.621094" stop-color="#EC0C74"/>
<stop offset="0.625" stop-color="#ED0B74"/>
<stop offset="0.628906" stop-color="#EF0A73"/>
<stop offset="0.632812" stop-color="#F00972"/>
<stop offset="0.636719" stop-color="#F20871"/>
<stop offset="0.640625" stop-color="#F30770"/>
<stop offset="0.644531" stop-color="#F5066F"/>
<stop offset="0.648438" stop-color="#F6056E"/>
<stop offset="0.652344" stop-color="#F8046D"/>
<stop offset="0.65625" stop-color="#F9046D"/>
<stop offset="0.660156" stop-color="#FB036C"/>
<stop offset="0.664062" stop-color="#FC026B"/>
<stop offset="0.667969" stop-color="#FE016A"/>
<stop offset="0.671875" stop-color="#FF0069"/>
<stop offset="0.6875" stop-color="#FF0069"/>
<stop offset="0.75" stop-color="#FF0069"/>
<stop offset="1" stop-color="#FF0069"/>
</linearGradient>
<clipPath id="clip0_203_255">
<rect width="31.9971" height="32" fill="white"/>
</clipPath>
</defs>
</svg>
