<svg width="162" height="34" viewBox="0 0 162 34" fill="none" xmlns="http://www.w3.org/2000/svg">
<path d="M109.869 5.85538C106.053 10.783 98.2811 17.8766 92.6015 22.7157C92.2276 23.0341 91.5513 22.9195 91.2144 22.2989C90.6527 21.2647 90.4935 19.9206 91.9151 18.3356C96.1117 13.6565 99.9705 8.98322 102.225 6.18889C102.953 5.28607 102.917 4.88772 101.724 4.65528C98.8268 4.08934 94.6724 3.45687 92.0128 3.06863C91.1353 2.94061 90.6788 2.18939 90.5441 1.4946C90.3899 0.699585 90.6182 0.284392 91.1816 0.250705C95.6291 -0.0112113 102.308 -0.181331 107.888 0.334081C111.4 0.658318 111.891 3.2438 109.869 5.85538Z" fill="url(#paint0_linear_13_109)"/>
<path d="M160.993 0.621307C160.731 1.42558 160.501 2.13217 160.226 2.93224C160.025 3.51586 159.623 3.86284 158.988 3.8999C157.919 3.8999 153.911 3.93948 152.74 3.93948C151.677 3.99675 151.06 4.50626 150.86 5.55477C150.559 7.13301 150.29 8.71714 150.006 10.2987C149.581 12.6703 149.169 15.0444 148.722 17.4126C148.458 18.8098 148.913 19.4052 150.327 19.4111C150.844 19.4136 151.362 19.4246 151.878 19.3993C153.036 19.3429 153.801 18.7357 154.054 17.6038C154.303 16.3531 154.441 15.5177 154.637 14.4751C154.678 14.2612 154.6 14.1888 154.394 14.1921C154.035 14.198 153.508 14.2039 153.149 14.1879C152.316 14.15 152.215 13.8603 152.229 13.0392C152.24 12.3065 152.265 11.5738 152.259 10.8411C152.256 10.5573 152.378 10.468 152.63 10.468C153.645 10.468 158.294 10.5026 158.836 10.5026C159.379 10.5026 159.684 10.8798 159.611 11.4677C159.528 12.1364 159.402 12.8 159.287 13.4645C158.981 15.2314 158.674 16.9983 158.363 18.7635C158.14 20.0343 157.901 21.3035 157.689 22.576C157.645 22.8404 157.561 22.939 157.283 22.9305C156.637 22.9095 155.991 22.9322 155.344 22.9196C154.534 22.9036 154.303 22.6712 154.23 21.8719C154.211 21.6614 154.189 21.4011 154.162 21.1375C154.146 20.9809 153.921 20.9531 153.818 21.1215C153.098 22.2955 151.642 23.0779 150.615 23.163C149.587 23.248 148.602 23.2202 147.6 23.1579C146.459 23.0872 145.393 22.7672 144.623 21.8273C144.061 21.1409 143.867 20.3248 143.808 19.4667C143.733 18.3685 143.91 17.2905 144.099 16.215C144.619 13.2624 145.139 10.3105 145.649 7.35619C145.867 6.09629 146.098 4.84398 146.646 3.67335C147.522 1.79867 149 0.702156 151.013 0.345915C151.829 0.201903 152.667 0.160637 153.498 0.13116C154.488 0.0957891 155.48 0.122739 156.471 0.122739C157.894 0.122739 159.159 0.121054 160.581 0.123581C160.99 0.123581 161.121 0.228011 160.993 0.621307ZM19.4355 3.20089C19.678 5.02167 19.2813 6.80793 18.5436 8.4906C18.0779 9.55258 17.1498 10.4133 16.0221 10.6339C15.7787 10.6819 15.5994 10.6811 15.6154 10.9001C15.6271 11.0592 15.7097 11.0567 15.9758 11.1392C16.8719 11.4163 17.5422 11.9637 17.8968 12.8564C18.1629 13.5251 18.2396 14.2283 18.1612 14.9307C17.997 16.4129 17.7974 17.8952 17.293 19.3092C16.5561 21.3734 15.0401 22.4943 12.9095 22.8396C11.2537 23.1082 9.58455 22.9693 7.92126 23.0013C7.63407 23.0072 7.34689 23.0021 7.05971 23.0021C5.52275 23.0021 3.98578 22.9954 2.44881 23.008C2.15826 23.0105 2.09089 22.9398 2.1431 22.6493C2.48418 20.7577 2.80842 18.8645 3.13771 16.9713C3.70028 13.7357 4.26117 10.4992 4.82458 7.26439C5.21114 5.0461 5.60275 2.82949 5.98847 0.611201C6.02973 0.372865 6.05668 0.190113 6.39018 0.193481C9.46328 0.222958 12.5364 0.273488 15.6095 0.273488C17.7915 0.272646 19.2005 1.4298 19.4355 3.20089ZM11.871 12.8985C10.8663 12.8985 9.97447 12.8977 9.02703 12.8842C8.7668 12.8809 8.64468 12.9558 8.59668 13.2287C8.26571 15.1362 7.9221 17.042 7.57512 18.947C7.52543 19.2199 7.61639 19.3016 7.88588 19.2991C8.80638 19.2907 10.3501 19.2805 11.2883 19.2477C12.0521 19.2208 12.5869 18.7626 12.757 18.0055C12.9684 17.0698 13.2354 15.4621 13.3988 14.5155C13.6068 13.3053 12.8766 12.8985 11.871 12.8985ZM13.3583 3.9319C12.4395 3.91253 11.5207 3.93527 10.6019 3.91506C10.3248 3.90916 10.2229 4.02285 10.1791 4.26877C9.897 5.84953 9.61318 7.42861 9.32263 9.00769C9.28052 9.23592 9.34621 9.31593 9.58034 9.31593C10.2052 9.31593 11.5418 9.30582 12.1641 9.30582C13.2446 9.30582 13.8889 8.78367 14.1533 7.73769C14.3496 6.96205 14.4717 6.16535 14.5812 5.37118C14.7142 4.40773 14.3201 3.95211 13.3583 3.9319ZM76.3504 0.198535C74.8277 0.221273 73.3034 0.197692 71.7833 0.267593C70.5225 0.325703 69.5894 0.974178 69.0378 2.12459C68.7835 2.65432 68.5434 3.19247 68.3211 3.73651C67.7813 5.05452 67.0856 6.6496 66.6376 7.70653C66.3959 8.27668 66.2266 8.72388 66.1331 9.03548C65.9302 9.71344 65.7558 10.3611 65.5958 10.9952C65.5554 11.1569 65.3002 11.1207 65.296 10.9531C65.2918 10.7956 65.4063 9.26456 65.4148 9.06917C65.435 8.61103 65.4493 8.18404 65.4114 7.49262C65.3179 5.77205 65.1638 4.05486 64.992 2.34019C64.8775 1.19314 64.4008 0.49498 63.1931 0.313913C62.9666 0.280226 62.7383 0.238117 62.5109 0.234748C61.1315 0.217905 59.7528 0.215378 58.3733 0.197692C58.1342 0.195166 58.0601 0.2937 58.0222 0.519403C57.868 1.43906 54.7587 19.0186 54.1482 22.469C54.0783 22.8657 54.1751 23.0013 54.5853 23.0021C55.8207 23.0038 57.8765 23.0139 58.1712 23.0139C58.4651 23.0139 58.6563 22.9002 58.7153 22.5566C59.1625 19.9408 59.5987 17.3225 60.0964 14.716C60.5369 12.4135 60.8249 10.0966 60.9782 7.75959C61.0363 6.87109 61.1222 5.98428 61.2123 5.09915C61.2233 4.9922 61.3412 4.89619 61.4094 4.79513C61.5172 4.88861 61.6351 4.97367 61.7269 5.08147C61.7648 5.1261 61.7462 5.21959 61.753 5.29117C61.7976 5.77711 61.8431 6.26304 61.8877 6.74982C62.0747 8.80894 62.26 10.8681 62.4503 12.9272C62.5573 14.0852 62.6684 15.2432 62.788 16.3995C62.8436 16.9326 63.0508 17.1279 63.5973 17.1591C63.9839 17.181 64.6644 17.1785 65.0636 17.1785C65.675 17.1785 65.9571 17.0648 66.2106 16.4694C66.7159 15.2811 71.1853 5.18506 71.2451 5.04862C71.3546 4.7985 71.8557 4.87682 71.7749 5.16906C71.4809 6.23357 71.2013 7.30144 70.9167 8.36848C70.6202 9.47678 70.2657 10.575 70.0492 11.6993C69.5802 14.1357 69.1826 16.5864 68.7548 19.0313C68.5249 20.3434 68.2015 22.1591 68.1426 22.5078C68.0836 22.8556 68.204 23.0004 68.5064 23.0004C68.8087 23.0004 70.963 22.9962 72.3425 23.0105C72.6297 23.0131 72.6692 22.7949 72.7071 22.5785C73.1004 20.3316 76.246 2.4084 76.5854 0.516877C76.6249 0.28949 76.5971 0.195166 76.3504 0.198535ZM54.629 5.41581C54.3158 7.36966 52.9135 15.3939 52.5329 17.453C52.3653 18.3584 52.0722 19.2275 51.6427 20.0478C50.7441 21.7616 49.3099 22.7621 47.4318 23.0628C46.2755 23.248 41.9611 23.2598 40.9909 23.1672C40.4847 23.1192 39.9727 22.9735 39.4977 22.7857C38.077 22.2231 37.4175 21.0971 37.2862 19.6216C37.1851 18.4948 37.3493 17.3865 37.5447 16.2824C37.8849 14.3622 39.1381 7.27281 39.4556 5.65499C39.6981 4.41868 40.1386 3.25311 40.9269 2.24923C41.9846 0.900909 43.434 0.233906 45.0897 0.0949469C46.5602 -0.0288529 49.9137 0.0359946 51.3168 0.191797C52.8411 0.361074 54.1406 1.28494 54.5364 2.84886C54.7486 3.69525 54.7663 4.561 54.629 5.41581ZM49.7975 5.17916C49.8927 4.29403 49.4505 3.81989 48.5578 3.78199C47.7409 3.74746 46.9198 3.74578 46.1029 3.78368C45.2978 3.82157 44.7251 4.23761 44.4573 5.01662C44.3688 5.27348 44.3006 5.53961 44.2535 5.80742C43.8282 8.19331 43.4088 10.58 42.9894 12.9668C42.7039 14.5905 42.4175 16.215 42.1362 17.8396C41.9611 18.8536 42.4462 19.4481 43.4804 19.4844C43.8391 19.497 45.1891 19.4928 45.5058 19.4894C46.7311 19.4759 47.3847 18.9572 47.6095 17.7646C47.8942 16.2571 48.146 14.7429 48.4138 13.2329C48.7195 11.5106 49.0303 9.78923 49.3318 8.06614C49.4977 7.10522 49.6931 6.14682 49.7975 5.17916ZM36.9148 2.84886C37.1287 3.69441 37.1455 4.56016 37.0091 5.41581C36.6958 7.36966 35.2936 15.3939 34.9129 17.453C34.7453 18.3584 34.4531 19.2275 34.0227 20.0478C33.1241 21.7616 31.6899 22.7621 29.811 23.0628C28.6547 23.248 24.3403 23.2598 23.3701 23.1672C22.8639 23.1192 22.3519 22.9735 21.8769 22.7857C20.4562 22.2231 19.7967 21.0971 19.6645 19.6216C19.5635 18.4948 19.7277 17.3865 19.9231 16.2824C20.2633 14.3622 21.5165 7.27281 21.834 5.65499C22.0765 4.41868 22.517 3.25311 23.3052 2.24923C24.363 0.900909 25.8124 0.233906 27.4689 0.0949469C28.9394 -0.0288529 32.2929 0.0359946 33.696 0.191797C35.2195 0.361074 36.5198 1.28494 36.9148 2.84886ZM32.1775 5.17916C32.2727 4.29403 31.8306 3.81989 30.9379 3.78199C30.1209 3.74746 29.2998 3.74578 28.4829 3.78368C27.6786 3.82157 27.1051 4.23761 26.8373 5.01662C26.7489 5.27348 26.6807 5.53961 26.6327 5.80742C26.2074 8.19331 25.788 10.58 25.3686 12.9668C25.0831 14.5905 24.7967 16.215 24.5154 17.8396C24.3403 18.8536 24.8254 19.4481 25.8596 19.4844C26.2183 19.497 27.5683 19.4928 27.885 19.4894C29.1103 19.4759 29.7639 18.9572 29.9887 17.7646C30.2734 16.2571 30.5252 14.7429 30.793 13.2329C31.0979 11.5106 31.4095 9.78923 31.7101 8.06614C31.8786 7.10522 32.074 6.14682 32.1775 5.17916ZM121.456 1.18135C121.612 3.17141 122.411 13.7146 123.1 22.6181C123.124 22.9213 123.056 23.0131 122.745 23.008C121.653 22.9903 120.56 23.008 119.469 22.9988C118.518 22.9912 118.159 22.6248 118.115 21.6631C118.068 20.6297 118.015 19.5964 117.962 18.563C117.939 18.1049 117.891 18.0527 117.416 18.051C115.993 18.0459 114.57 18.0552 113.147 18.0451C112.781 18.0426 112.569 18.1832 112.434 18.5302C112.004 19.6402 111.546 20.7392 111.105 21.8458C110.79 22.6375 110.195 22.9979 109.364 22.9988C107.064 23.0013 104.765 23.0004 102.465 22.9971C102.294 22.9971 102.123 22.9676 101.951 22.9566C101.106 22.8994 100.716 22.4168 100.512 21.6159C100.298 20.7763 100.008 19.7926 99.8613 19.1399C99.7367 18.5841 99.7519 18.3963 100.19 18.0139C100.627 17.6324 102.929 15.6701 103.243 15.4032C103.557 15.1354 103.859 15.2735 103.996 15.7695C104.271 16.7582 104.74 18.4401 105.088 19.6519C105.348 20.5607 105.609 21.4685 105.869 22.3764C105.905 22.3747 105.939 22.373 105.975 22.3713C106.285 21.6496 106.599 20.9278 106.908 20.2053C109.585 13.9378 114.913 1.50306 115.139 0.97502C115.366 0.446976 115.85 0.162321 116.458 0.163163C117.766 0.164848 119.074 0.154741 120.381 0.166532C121.095 0.174954 121.399 0.467189 121.456 1.18135ZM117.608 7.75706C117.63 6.86688 117.763 5.28864 117.768 5.10926C117.774 4.92988 117.471 4.87429 117.433 5.0562C117.395 5.23811 116.401 8.26237 115.857 9.78755C115.37 11.1519 114.823 12.4935 114.303 13.8451C114.116 14.3319 114.157 14.3976 114.659 14.3985C115.493 14.4001 116.326 14.3993 117.16 14.3985C117.752 14.3976 117.786 14.3563 117.763 13.7449C117.71 12.3385 117.662 10.9312 117.605 9.35888C117.605 8.93442 117.593 8.3449 117.608 7.75706ZM143.933 0.196008C142.563 0.196008 141.217 0.192639 140.309 0.192639C139.843 0.192639 139.656 0.423395 139.577 0.879855C139.211 3.00045 138.862 4.9004 138.496 7.021C138.225 8.58997 137.891 10.1522 137.706 11.7313C137.471 13.7407 137.361 15.8302 137.256 17.8522C137.241 18.1318 136.829 18.1613 136.802 17.8345C136.215 10.7257 135.884 6.43148 135.508 1.80456C135.415 0.649098 134.892 0.192639 133.969 0.192639C132.712 0.192639 129.64 0.214536 128.893 0.193481C128.581 0.184218 128.478 0.291174 128.433 0.594357C128.307 1.46011 128.143 2.31997 127.992 3.18236C127.551 5.68278 124.92 20.7325 124.613 22.5137C124.529 22.9996 124.539 23.0013 125.015 23.0013C126.093 23.0013 127.171 23.0013 128.248 23.0013C129.188 23.0013 129.177 22.9996 129.332 22.0749C129.626 20.335 130.895 13.5049 131.113 11.8138C131.334 10.0924 131.417 8.35248 131.557 6.62097C131.598 6.11987 131.62 5.61709 131.673 5.11768C131.701 4.85745 132.154 4.88861 132.17 5.13874C132.246 6.35737 132.37 7.81433 132.456 9.03212C132.624 11.3809 133.178 19.3184 133.31 20.9354C133.411 22.1701 134.008 22.7663 135.24 22.9078C135.682 22.9583 136.127 22.992 136.571 22.9971C137.663 23.0097 138.755 23.0013 139.847 23.0013C140.341 23.0013 140.347 23.0021 140.434 22.5052C140.677 21.1064 143.746 3.49734 144.268 0.588462C144.328 0.257487 144.233 0.196008 143.933 0.196008ZM88.844 9.55511C88.5543 9.55511 84.677 9.55595 82.5934 9.55426C82.1774 9.55426 82.1673 9.54753 82.2372 9.14749C82.5117 7.57936 82.8056 6.01376 83.0625 4.44226C83.1231 4.06749 83.2848 3.99759 83.6276 4.00012C85.2968 4.01191 87.4014 4.00517 88.6352 4.00517C89.869 4.00517 88.7522 0.200219 88.241 0.200219C87.7298 0.200219 82.2094 0.200219 79.5431 0.200219C78.978 0.200219 78.9839 0.201903 78.8853 0.777951C78.6495 2.16417 76.4658 14.6141 76.1702 16.3388C75.9546 17.5987 75.7171 18.8561 76.0304 20.1396C76.2653 21.1022 76.7849 21.8307 77.6642 22.2989C78.6975 22.8488 79.8319 22.9701 80.9647 22.987C83.4785 23.0232 85.9941 22.9954 88.5088 23.0089C88.8087 23.0105 88.8701 22.896 88.8701 22.6341C88.8701 21.973 88.887 21.3119 88.903 20.6516C88.9325 19.4406 88.7051 19.198 87.5067 19.1955C85.8829 19.1913 84.2592 19.198 82.6355 19.1913C82.3206 19.1904 82.0022 19.1702 81.6906 19.1239C81.0994 19.0372 80.7794 18.6683 80.7676 18.0678C80.7625 17.7958 80.7726 17.5196 80.8164 17.2526C81.0194 16.0213 81.2527 14.7943 81.4396 13.5605C81.4952 13.1933 81.6359 13.0956 81.9938 13.099C83.6891 13.1158 85.3852 13.1116 87.0805 13.1015C87.8309 13.0973 88.2612 12.7899 88.5046 12.0833C88.7396 11.3995 89.1144 10.2558 89.1893 9.97535C89.2643 9.69491 89.1346 9.55511 88.844 9.55511ZM97.5437 5.36444C96.5903 5.12779 95.3692 4.94925 94.5026 4.85998C94.0251 4.81113 93.8053 4.93661 93.7446 5.30717C93.4019 7.38398 92.6675 11.7245 92.3012 13.9083C92.1891 14.5736 92.6591 14.465 92.942 14.1829C94.7359 12.3899 96.8758 10.2339 97.211 9.78755C97.5454 9.34119 97.6498 9.12812 97.7652 8.58997C97.8805 8.05182 98.0128 6.99742 98.1239 6.34473C98.2334 5.69289 98.0456 5.48908 97.5437 5.36444Z" fill="white"/>
<path d="M6.43926 27.473C6.93109 27.8646 7.177 28.4162 7.177 29.1278C7.177 29.7115 7.03552 30.2235 6.75339 30.6623C6.47126 31.1011 6.0687 31.4396 5.54656 31.6788C5.02525 31.9171 4.41889 32.0375 3.72746 32.0375H2.33282L1.97406 33.8617H0L1.39464 26.8843H4.34562C5.24843 26.8843 5.94743 27.0813 6.43926 27.473ZM4.82902 30.1738C5.06399 29.9683 5.18274 29.6752 5.18274 29.2971C5.18274 29.0108 5.08841 28.7969 4.89808 28.6537C4.70859 28.5105 4.43826 28.4389 4.08623 28.4389H3.04951L2.6419 30.4829H3.81757C4.25635 30.4837 4.59322 30.3801 4.82902 30.1738Z" fill="#0098FF"/>
<path d="M13.516 32.5066H10.5456L9.73797 33.8617H7.65527L12.1297 26.8843H14.0735L15.7578 33.8617H13.7947L13.516 32.5066ZM13.2161 31.0505L12.7471 28.7876L11.4114 31.0505H13.2161Z" fill="#0098FF"/>
<path d="M24.5993 30.7574C24.2608 31.219 23.785 31.5558 23.1752 31.7689L24.361 33.8617H22.2977L21.261 32.0081H20.2638L19.895 33.8617H17.9209L19.3164 26.8843H22.2968C23.1879 26.8843 23.8784 27.0805 24.3703 27.473C24.8621 27.8646 25.1072 28.4086 25.1072 29.1068C25.1072 29.7451 24.9379 30.2959 24.5993 30.7574ZM22.8257 28.6545C22.6329 28.5114 22.3642 28.4398 22.0189 28.4398H20.9822L20.5636 30.4837H21.7393C22.1781 30.4837 22.5175 30.3801 22.7558 30.1747C22.995 29.9692 23.1146 29.6761 23.1146 29.298C23.1137 29.0116 23.0186 28.7977 22.8257 28.6545Z" fill="#0098FF"/>
<path d="M29.3534 28.4498H27.2109L27.5293 26.885H33.779L33.4599 28.4498H31.3266L30.2411 33.8624H28.267L29.3534 28.4498Z" fill="#0098FF"/>
<path d="M42.7402 26.8843L41.3447 33.8617H39.7202L37.4176 30.034L36.6496 33.8617H34.7168L36.1114 26.8843H37.7368L40.0494 30.7019L40.8057 26.8843H42.7402Z" fill="#0098FF"/>
<path d="M47.375 28.4093L47.1459 29.5859H50.2468L49.9571 31.0605H46.8478L46.5985 32.3373H50.2569L49.9377 33.8624H44.3457L45.7412 26.885H51.2027L50.8944 28.4102L47.375 28.4093Z" fill="#0098FF"/>
<path d="M59.3161 30.7574C58.9776 31.219 58.5017 31.5558 57.8912 31.7689L59.077 33.8617H57.0136L55.9778 32.0081H54.9806L54.6118 33.8617H52.6377L54.0323 26.8843H57.0128C57.9038 26.8843 58.5944 27.0805 59.0862 27.473C59.578 27.8646 59.824 28.4086 59.824 29.1068C59.824 29.7451 59.6547 30.2959 59.3161 30.7574ZM57.5408 28.6545C57.348 28.5114 57.0793 28.4398 56.734 28.4398H55.6973L55.2796 30.4837H56.4553C56.894 30.4837 57.2326 30.3801 57.4718 30.1747C57.7101 29.9692 57.8305 29.6761 57.8305 29.298C57.8305 29.0116 57.7345 28.7977 57.5408 28.6545Z" fill="#0098FF"/>
<path d="M62.5646 33.792C62.0458 33.653 61.6247 33.4736 61.2988 33.253L62.0762 31.7783C62.4282 32.0049 62.8038 32.1758 63.2021 32.2912C63.6022 32.4074 63.9997 32.4664 64.3989 32.4664C64.7778 32.4664 65.0718 32.4108 65.2815 32.3021C65.4903 32.1918 65.5948 32.0402 65.5948 31.8482C65.5948 31.6823 65.5004 31.5518 65.3109 31.4591C65.1215 31.3665 64.8275 31.2663 64.4283 31.161C63.9769 31.0406 63.6022 30.9201 63.3024 30.7972C63.0034 30.6742 62.7457 30.4864 62.5292 30.2329C62.3136 29.9811 62.205 29.6493 62.205 29.2358C62.205 28.7372 62.3414 28.3018 62.6143 27.9254C62.8855 27.5497 63.2754 27.2592 63.7807 27.0529C64.286 26.8474 64.8764 26.7446 65.5535 26.7446C66.0521 26.7446 66.5178 26.7968 66.9498 26.8987C67.381 27.0023 67.7532 27.1506 68.0657 27.3426L67.3473 28.808C67.0753 28.6353 66.7746 28.5039 66.4462 28.4138C66.1177 28.3237 65.78 28.2791 65.4339 28.2791C65.0414 28.2791 64.7349 28.3422 64.5117 28.4694C64.2894 28.5949 64.1782 28.7583 64.1782 28.9579C64.1782 29.1305 64.2742 29.2627 64.4679 29.3562C64.6608 29.4497 64.9598 29.5491 65.364 29.6552C65.8162 29.768 66.1893 29.8834 66.4858 30.0038C66.7814 30.1234 67.0349 30.3062 67.2479 30.5513C67.461 30.798 67.5671 31.1197 67.5671 31.5181C67.5671 32.0099 67.429 32.4436 67.1536 32.8192C66.8774 33.194 66.4858 33.4854 65.9779 33.6909C65.4701 33.8964 64.8789 34 64.2077 34C63.6316 34.0017 63.0826 33.9318 62.5646 33.792Z" fill="#0098FF"/>
<defs>
<linearGradient id="paint0_linear_13_109" x1="90.4985" y1="11.4437" x2="111.058" y2="11.4437" gradientUnits="userSpaceOnUse">
<stop stop-color="#0098FF"/>
<stop offset="0.6974" stop-color="#FF0069"/>
</linearGradient>
</defs>
</svg>
