<svg width="32" height="32" viewBox="0 0 32 32" fill="none" xmlns="http://www.w3.org/2000/svg">
<g clip-path="url(#clip0_2_20745)">
<mask id="mask0_2_20745" style="mask-type:luminance" maskUnits="userSpaceOnUse" x="0" y="0" width="32" height="32">
<path d="M32 0H0V32H32V0Z" fill="white"/>
</mask>
<g mask="url(#mask0_2_20745)">
<path d="M16 32C24.8365 32 32 24.8365 32 16C32 7.16347 24.8365 0 16 0C7.16347 0 0 7.16347 0 16C0 24.8365 7.16347 32 16 32Z" fill="white"/>
<path d="M9.53027 22.4427V10.9867H22.4636V22.4427" fill="#F2F2F2"/>
<path d="M9.53125 22.4426H8.43791C7.86724 22.4426 7.39258 21.9679 7.39258 21.3493V10.6026H9.53125V22.4426Z" fill="#D54C3F"/>
<path d="M19.1899 22.5013H22.8486V11.424H8.0166C8.0166 11.424 19.1793 22.4906 19.1899 22.5013Z" fill="#E5E5E5"/>
<path d="M8.4375 9.5573H23.5575L15.9948 14.928" fill="#F2F2F2"/>
<path d="M22.4697 22.4427H23.5631C24.1337 22.4427 24.6084 21.968 24.6084 21.3493V10.6027H22.4697V22.4427Z" fill="#B63524"/>
<path d="M8.4375 10.6026L16.0002 16.0693L23.5628 10.6026" stroke="#DE5145" stroke-width="2.5" stroke-linecap="round"/>
</g>
</g>
<defs>
<clipPath id="clip0_2_20745">
<rect width="32" height="32" fill="white"/>
</clipPath>
</defs>
</svg>
