<!-- icon666.com - MILLIONS vector ICONS FREE --><svg id="Layer_1" enable-background="new 0 0 512 512" viewBox="0 0 512 512" xmlns="http://www.w3.org/2000/svg"><g><circle cx="502" cy="295" r="10"></circle><path d="m509.07 44.93c-1.86-1.86-4.44-2.93-7.07-2.93h-152c-2.63 0-5.21 1.07-7.07 2.93s-2.93 4.44-2.93 7.07v62.005l-90 55.141v-47.146c0-15.015-11.088-27.487-25.506-29.662-3.777-29.477-29.007-52.338-59.494-52.338h-15v-30c0-5.523-4.477-10-10-10s-10 4.477-10 10v30h-15c-30.485 0-55.708 22.861-59.485 52.336-14.422 2.172-25.515 14.646-25.515 29.664v90h-20c-5.523 0-10 4.477-10 10v280c0 5.523 4.477 10 10 10h492c2.63 0 5.21-1.07 7.07-2.93s2.93-4.44 2.93-7.07v-162c0-5.51-4.49-10-10-10s-10 4.49-10 10v152h-100v-392c0-3.619-1.956-6.956-5.113-8.725-3.159-1.769-7.025-1.693-10.111.198l-16.776 10.278v-39.751h132v188c0 5.51 4.49 10 10 10s10-4.49 10-10v-198c0-2.63-1.07-5.21-2.93-7.07zm-394.07 15.07h50c20.755 0 37.864 15.891 39.811 36.145-8.854 5.222-14.811 14.853-14.811 25.855v10h-20v-10c0-16.542-13.458-30-30-30s-30 13.458-30 30v10h-20v-10c0-11.002-5.957-20.633-14.811-25.855 1.947-20.254 19.056-36.145 39.811-36.145zm35 62v10h-20v-10c0-5.514 4.486-10 10-10s10 4.486 10 10zm-100 0c0-5.514 4.486-10 10-10s10 4.486 10 10v10h-20zm100 370h-130v-260h130zm80 0h-60v-270c0-5.523-4.477-10-10-10h-110v-60h180zm0-360h-20v-10c0-5.514 4.486-10 10-10s10 4.486 10 10zm142 360h-122v-299.399l122-74.747z"></path><circle cx="462" cy="272" r="10"></circle><circle cx="462" cy="317" r="10"></circle><circle cx="462" cy="362" r="10"></circle><circle cx="462" cy="452" r="10"></circle><circle cx="462" cy="407" r="10"></circle><circle cx="462" cy="227" r="10"></circle><circle cx="462" cy="92" r="10"></circle><circle cx="462" cy="137" r="10"></circle><circle cx="462" cy="182" r="10"></circle><circle cx="422" cy="227" r="10"></circle><circle cx="422" cy="407" r="10"></circle><circle cx="422" cy="272" r="10"></circle><circle cx="422" cy="137" r="10"></circle><circle cx="422" cy="92" r="10"></circle><circle cx="422" cy="182" r="10"></circle><circle cx="422" cy="317" r="10"></circle><circle cx="422" cy="362" r="10"></circle><circle cx="422" cy="452" r="10"></circle><path d="m280 472h62c5.523 0 10-4.477 10-10s-4.477-10-10-10h-62c-5.523 0-10 4.477-10 10s4.477 10 10 10z"></path><path d="m280 432h62c5.523 0 10-4.477 10-10s-4.477-10-10-10h-62c-5.523 0-10 4.477-10 10s4.477 10 10 10z"></path><path d="m280 392h62c5.523 0 10-4.477 10-10s-4.477-10-10-10h-62c-5.523 0-10 4.477-10 10s4.477 10 10 10z"></path><path d="m280 352h62c5.523 0 10-4.477 10-10s-4.477-10-10-10h-62c-5.523 0-10 4.477-10 10s4.477 10 10 10z"></path><path d="m280 312h62c5.523 0 10-4.477 10-10s-4.477-10-10-10h-62c-5.523 0-10 4.477-10 10s4.477 10 10 10z"></path><path d="m280 272h62c5.523 0 10-4.477 10-10s-4.477-10-10-10h-62c-5.523 0-10 4.477-10 10s4.477 10 10 10z"></path><path d="m280 232h62c5.523 0 10-4.477 10-10s-4.477-10-10-10h-62c-5.523 0-10 4.477-10 10s4.477 10 10 10z"></path><path d="m320 192h22c5.523 0 10-4.477 10-10s-4.477-10-10-10h-22c-5.523 0-10 4.477-10 10s4.477 10 10 10z"></path><path d="m50 472h70c5.523 0 10-4.477 10-10s-4.477-10-10-10h-70c-5.523 0-10 4.477-10 10s4.477 10 10 10z"></path><path d="m50 432h70c5.523 0 10-4.477 10-10s-4.477-10-10-10h-70c-5.523 0-10 4.477-10 10s4.477 10 10 10z"></path><path d="m50 392h70c5.523 0 10-4.477 10-10s-4.477-10-10-10h-70c-5.523 0-10 4.477-10 10s4.477 10 10 10z"></path><path d="m50 352h70c5.523 0 10-4.477 10-10s-4.477-10-10-10h-70c-5.523 0-10 4.477-10 10s4.477 10 10 10z"></path><path d="m50 312h70c5.523 0 10-4.477 10-10s-4.477-10-10-10h-70c-5.523 0-10 4.477-10 10s4.477 10 10 10z"></path><path d="m50 272h70c5.523 0 10-4.477 10-10s-4.477-10-10-10h-70c-5.523 0-10 4.477-10 10s4.477 10 10 10z"></path><circle cx="200" cy="362" r="10"></circle><circle cx="200" cy="407" r="10"></circle><circle cx="200" cy="452" r="10"></circle><circle cx="200" cy="227" r="10"></circle><circle cx="200" cy="182" r="10"></circle><circle cx="200" cy="317" r="10"></circle><circle cx="200" cy="272" r="10"></circle><circle cx="160" cy="182" r="10"></circle><circle cx="120" cy="182" r="10"></circle><circle cx="80" cy="182" r="10"></circle></g></svg>