<!-- icon666.com - MILLIONS vector ICONS FREE --><svg version="1.1" id="Layer_1" xmlns="http://www.w3.org/2000/svg" xmlns:xlink="http://www.w3.org/1999/xlink" x="0px" y="0px" viewBox="0 0 301.157 301.157" style="enable-background:new 0 0 301.157 301.157;" xml:space="preserve"><g id="XMLID_1108_"><g><g><path d="M157.876,96.097l3.866-10.126c0.372-0.972,0.642-1.958,0.826-2.946l-9.238,6.72L157.876,96.097z"></path><path d="M145.204,48.319c9.922,3.788,20.758,0.826,27.467-6.616l17.394,6.634c4.099,1.562,8.676-0.498,10.234-4.582 c1.56-4.091-0.491-8.674-4.582-10.234l-16.72-6.377c0.945-10.835-5.309-21.422-15.973-25.494 C150.137-3.271,135.7,3.188,130.78,16.075C125.86,28.962,132.317,43.399,145.204,48.319z"></path><path d="M237.482,181.557c-3.895,0-7.702,0.379-11.391,1.093l-11.898-35.353l8.181,4.091c3.918,1.959,8.679,0.371,10.637-3.546 c1.958-3.916,0.371-8.679-3.546-10.637l-13.956-6.978c0.071,1.929-0.102,3.899-0.552,5.871 c-1.883,8.264-8.068,14.426-15.655,16.676l3.077,9.142c-15.617,0.461-19.28,0.569-34.821,1.028 c0.828-6.139-2.627-12.196-8.58-14.482l-19.821-6.423c-6.38-1.454-10.862-6.826-11.514-12.989l-1.996-19.17l-27.492,19.997 c2.177-7.288,2.768-14.508,1.888-20.982l23.706-17.243l-0.687-6.599l15.163,39.984c1.344,3.543,4.372,6.179,8.067,7.021 l44.083,10.047c6.098,1.389,12.16-2.429,13.548-8.519c1.389-6.093-2.425-12.159-8.519-13.548l-38.167-8.698l-13.011-34.311 l-0.08-0.211l13.036-9.482c-1.483-1.317-3.222-2.396-5.185-3.146l-28.111-10.734c-8.706-3.324-18.458,1.039-21.782,9.745 L91.561,90.815c-1.606-1.535-3.417-2.841-5.437-3.862c-1.501-0.759-3.061-1.33-4.661-1.733l-2.216-20.117 c-0.379-3.443-3.482-5.929-6.919-5.545c-3.442,0.379-5.925,3.477-5.545,6.918l2.078,18.858c-3.01,0.735-6.026,1.954-8.97,3.594 l-4.33-13.383c-1.066-3.295-4.602-5.102-7.896-4.036c-3.295,1.066-5.101,4.601-4.035,7.896l5.706,17.637 c-1.956,1.975-3.811,4.157-5.533,6.531l-7.881-13.242c-1.771-2.976-5.619-3.952-8.594-2.182 c-2.976,1.771-3.952,5.619-2.181,8.595l11.606,19.502c-8.286,20.207-4.187,41.253,10.072,48.461 c8.117,4.103,17.895,2.895,26.908-2.347c1.715,2.5,4.589,4.141,7.849,4.141h15.713l1.612,3.887L87.79,186.643 c-7.38-3.266-15.538-5.084-24.114-5.084c-32.973,0-59.798,26.826-59.798,59.799c0,32.973,26.825,59.799,59.798,59.799 c29.047,0,53.319-20.82,58.688-48.319c2.023,1.037,4.388,1.181,6.561,0.312l31.716-12.686c4.066-1.626,6.043-6.24,4.417-10.307 c-0.656-1.64-1.803-2.933-3.2-3.794l46.797-45.806l2.412,7.166c-19.76,9.771-33.382,30.142-33.382,53.637 c0,32.973,26.826,59.799,59.799,59.799c32.972,0,59.798-26.826,59.798-59.799C297.279,208.385,270.454,181.557,237.482,181.557z M63.676,285.296c-24.229,0-43.941-19.711-43.941-43.94s19.712-43.94,43.941-43.94c5.249,0,10.284,0.928,14.954,2.624 l-25.188,36.841c-3.459,5.06-0.079,11.971,5.994,12.385c0.03,0.002,0.061,0.001,0.091,0.003c0.151,0.009,0.302,0.016,0.453,0.016 c0.003,0,0.007-0.001,0.011-0.001h46.894C103.14,269.74,85.196,285.296,63.676,285.296z M75.013,233.427l17.322-25.337 c7.442,6.42,12.71,15.284,14.55,25.337H75.013z M121.244,223.821c-1.525,5.112,0.113,10.403,3.767,13.81l-1.974,0.791 c-3.179,1.271-5.071,4.37-4.973,7.605c-2.123-1.878-3.922-4.133-5.31-6.7c-1.02-1.887-1.773-3.869-2.265-5.9 c-1.006-4.15-0.907-8.509,0.346-12.71l3.372-11.304c-3.486-5.496-7.844-10.385-12.877-14.476l4.829-7.064l8.418,20.299 l5.746-19.262c-0.915-2.206-1.222-2.948-3.568-8.605c6.58-0.194,2.78-0.082,17.627-0.52L121.244,223.821z M168.818,197.356 l-8.439,28.29c-1.762-0.636-3.752-0.66-5.628,0.09l-6.513,2.605l14.736-49.4c15.695-0.463,9.789-0.288,25.423-0.75 L168.818,197.356z M237.482,285.296c-24.229,0-43.94-19.711-43.94-43.94c0-16.507,9.153-30.909,22.645-38.417l13.78,40.947 c1.397,4.152,5.896,6.382,10.044,4.986c4.15-1.397,6.382-5.894,4.986-10.044l-13.783-40.957c2.049-0.294,4.14-0.454,6.269-0.454 c24.229,0,43.939,19.711,43.939,43.94C281.422,265.586,261.711,285.296,237.482,285.296z"></path></g></g></g></svg>