<svg width="150" height="50" viewBox="0 0 150 50" fill="none" xmlns="http://www.w3.org/2000/svg">
<g clip-path="url(#clip0_4_28)">
<path fill-rule="evenodd" clip-rule="evenodd" d="M146 50H4C1.791 50 0 48.209 0 46V4C0 1.791 1.791 0 4 0H146C148.209 0 150 1.791 150 4V46C150 48.209 148.209 50 146 50Z" fill="#383B40"/>
<path d="M17.953 28.953L17.263 25.86H13.59L12.927 28.953H9.282L13.59 10.533H17.401L21.82 28.953H17.953ZM16.711 23.015C16.324 21.248 15.938 19.508 15.662 17.713C15.551 16.912 15.441 16.084 15.358 15.283C15.192 17.879 14.668 20.447 14.143 23.016H16.711V23.015Z" fill="white"/>
<path d="M30.667 14.703C29.921 14.068 29.065 13.516 28.044 13.516C26.967 13.516 26.221 14.234 26.221 15.311C26.221 18.487 31.744 18.432 31.744 23.568C31.744 26.744 29.838 29.257 26.497 29.257C25.365 29.257 24.26 28.953 23.321 28.318V24.838C24.149 25.39 25.006 25.832 26.027 25.832C27.27 25.832 28.181 25.059 28.181 23.788C28.181 23.457 28.126 23.153 27.988 22.849C27.657 22.159 26.635 21.551 26.027 21.137C23.956 19.701 22.63 18.375 22.63 15.697C22.63 12.797 24.315 10.257 27.435 10.257C28.678 10.257 29.589 10.533 30.666 11.141L30.667 14.703Z" fill="white"/>
<path d="M40.287 28.953L36.89 19.591V28.953H33.245V10.533H36.89V18.763L39.955 10.533H43.683L40.286 19.039L44.097 28.953H40.287Z" fill="white"/>
<path d="M56.377 18.707C56.405 19.176 56.405 19.646 56.405 20.115C56.405 21.413 56.35 22.739 56.074 24.009C55.466 26.853 53.616 29.256 50.496 29.256C45.525 29.256 43.951 23.898 43.951 19.811C43.951 15.586 45.332 10.256 50.496 10.256C53.313 10.256 55.135 12.023 55.909 14.619L52.374 16C52.208 14.923 51.905 13.459 50.524 13.459C48.039 13.459 47.845 18.016 47.845 19.756C47.845 21.579 47.928 25.942 50.551 25.942C52.539 25.942 52.76 23.457 52.788 21.965H50.468V18.706H56.377V18.707Z" fill="white"/>
<path d="M65.343 28.953L64.653 25.86H60.98L60.317 28.953H56.672L60.98 10.533H64.791L69.21 28.953H65.343ZM64.1 23.015C63.713 21.248 63.327 19.508 63.051 17.713C62.94 16.912 62.83 16.084 62.747 15.283C62.581 17.879 62.057 20.447 61.532 23.016H64.1V23.015Z" fill="white"/>
<path d="M83.193 28.953L82.282 15.697C82.199 17.133 81.978 18.541 81.73 19.95L80.1 28.953H77.311L75.599 20.613C75.406 19.702 75.212 18.79 75.13 17.851L74.909 15.697L74.329 28.953H70.435L72.037 10.533H76.842L78.637 21.414L80.1 10.533H85.016L86.921 28.953H83.193Z" fill="white"/>
<path d="M92.322 10.533C93.289 10.533 94.918 10.588 96.188 11.831C97.182 12.798 97.707 14.316 97.707 15.808C97.707 16.719 97.514 17.631 96.851 18.432C96.547 18.791 96.078 19.233 95.387 19.509C96.574 19.951 97.154 20.779 97.375 21.138C97.9 22.022 98.01 23.044 98.01 23.734C98.01 25.115 97.651 26.358 96.629 27.379C95.221 28.787 93.37 28.953 92.293 28.953H88.427V10.533H92.322ZM92.073 18.1C92.653 18.072 93.316 17.824 93.675 17.465C94.2 16.94 94.255 16.167 94.255 15.753C94.255 15.311 94.2 14.621 93.675 14.096C93.371 13.792 92.874 13.544 92.073 13.544V18.1ZM92.073 25.805C92.653 25.805 93.316 25.612 93.73 25.225C94.117 24.866 94.42 24.231 94.42 23.43C94.42 22.546 94.116 21.883 93.702 21.497C93.26 21.11 92.597 20.917 92.073 20.917V25.805Z" fill="white"/>
<path d="M99.773 28.953V10.533H103.418V25.501H107.229V28.953H99.773Z" fill="white"/>
<path d="M108.73 28.953V10.533H116.048V13.957H112.375V17.934H115.606V21.414H112.375V25.556H116.103V28.953H108.73Z" fill="white"/>
<path d="M124.738 28.953L121.507 20.475V28.953H117.862V10.533H121.811C123.164 10.533 124.655 10.644 125.815 11.417C127.279 12.384 127.997 14.179 127.997 15.891C127.997 17.99 127.169 19.481 125.374 20.586L128.577 28.954H124.738V28.953ZM121.507 18.459C121.7 18.487 121.921 18.487 122.115 18.487C123.689 18.487 124.462 17.41 124.462 15.919C124.462 14.428 123.799 13.406 122.198 13.406H121.508L121.507 18.459Z" fill="white"/>
<path d="M137.424 14.703C136.678 14.068 135.822 13.516 134.801 13.516C133.724 13.516 132.978 14.234 132.978 15.311C132.978 18.487 138.501 18.432 138.501 23.568C138.501 26.744 136.595 29.257 133.254 29.257C132.122 29.257 131.017 28.953 130.078 28.318V24.838C130.906 25.39 131.763 25.832 132.784 25.832C134.027 25.832 134.938 25.059 134.938 23.788C134.938 23.457 134.883 23.153 134.745 22.849C134.414 22.159 133.392 21.551 132.784 21.137C130.713 19.701 129.387 18.375 129.387 15.697C129.387 12.797 131.072 10.257 134.192 10.257C135.435 10.257 136.346 10.533 137.423 11.141L137.424 14.703Z" fill="white"/>
<path d="M141.322 15.405C142.646 15.405 143.72 14.3314 143.72 13.007C143.72 11.6826 142.646 10.609 141.322 10.609C139.998 10.609 138.924 11.6826 138.924 13.007C138.924 14.3314 139.998 15.405 141.322 15.405Z" fill="white"/>
<path d="M9.062 36.608C9.062 34.137 10.897 32.47 13.259 32.47C14.866 32.47 15.874 33.297 16.462 34.257L15.274 34.881C14.89 34.209 14.11 33.717 13.259 33.717C11.676 33.717 10.501 34.916 10.501 36.608C10.501 38.275 11.676 39.498 13.259 39.498C14.111 39.498 14.89 38.995 15.274 38.335L16.473 38.935C15.862 39.894 14.866 40.746 13.259 40.746C10.897 40.745 9.062 39.066 9.062 36.608Z" fill="white"/>
<path d="M17.666 40.601V32.601H23.147V33.836H19.069V35.9H23.063V37.135H19.069V39.366H23.147V40.601H17.666Z" fill="white"/>
<path d="M29.231 40.601L27.468 37.615H26.065V40.601H24.662V32.601H28.176C29.759 32.601 30.802 33.621 30.802 35.107C30.802 36.523 29.866 37.302 28.895 37.458L30.862 40.6H29.231V40.601ZM29.363 35.096C29.363 34.328 28.787 33.837 27.996 33.837H26.065V36.379H27.996C28.787 36.379 29.363 35.876 29.363 35.096Z" fill="white"/>
<path d="M34.068 40.601V33.837H31.646V32.602H37.895V33.837H35.472V40.601H34.068Z" fill="white"/>
<path d="M39.397 40.601V32.601H40.8V40.601H39.397Z" fill="white"/>
<path d="M42.577 40.601V32.601H48.058V33.836H43.98V35.9H47.974V37.135H43.98V40.601H42.577Z" fill="white"/>
<path d="M49.645 40.601V32.601H51.048V40.601H49.645Z" fill="white"/>
<path d="M52.478 36.608C52.478 34.137 54.313 32.47 56.676 32.47C58.283 32.47 59.29 33.297 59.878 34.257L58.69 34.88C58.306 34.208 57.526 33.716 56.675 33.716C55.092 33.716 53.916 34.915 53.916 36.607C53.916 38.274 55.091 39.497 56.675 39.497C57.526 39.497 58.306 38.994 58.69 38.334L59.889 38.934C59.278 39.893 58.282 40.745 56.675 40.745C54.312 40.745 52.478 39.066 52.478 36.608Z" fill="white"/>
<path d="M66.874 40.601L66.287 39.054H62.617L62.03 40.601H60.435L63.578 32.601H65.329L68.471 40.601H66.874ZM64.451 34.005L63.012 37.819H65.89L64.451 34.005Z" fill="white"/>
<path d="M70.536 40.601V33.837H68.114V32.602H74.363V33.837H71.94V40.601H70.536Z" fill="white"/>
<path d="M75.625 40.601V32.601H81.106V33.836H77.029V35.9H81.022V37.135H77.029V39.366H81.106V40.601H75.625Z" fill="white"/>
<path d="M85.442 36.608C85.442 34.221 87.132 32.47 89.531 32.47C91.918 32.47 93.621 34.221 93.621 36.608C93.621 38.995 91.918 40.746 89.531 40.746C87.132 40.745 85.442 38.994 85.442 36.608ZM92.182 36.608C92.182 34.953 91.138 33.717 89.531 33.717C87.912 33.717 86.881 34.952 86.881 36.608C86.881 38.251 87.912 39.498 89.531 39.498C91.138 39.498 92.182 38.251 92.182 36.608Z" fill="white"/>
<path d="M95.042 40.601V32.601H100.522V33.836H96.445V35.9H100.438V37.135H96.445V40.601H95.042Z" fill="white"/>
<path d="M106.944 40.601V33.837H104.521V32.602H110.77V33.837H108.347V40.601H106.944Z" fill="white"/>
<path d="M116.842 40.601L115.079 37.615H113.676V40.601H112.273V32.601H115.787C117.37 32.601 118.414 33.621 118.414 35.107C118.414 36.523 117.478 37.302 116.507 37.458L118.474 40.6H116.842V40.601ZM116.974 35.096C116.974 34.328 116.398 33.837 115.607 33.837H113.676V36.379H115.607C116.398 36.379 116.974 35.876 116.974 35.096Z" fill="white"/>
<path d="M119.653 37.435V32.602H121.08V37.399C121.08 38.67 121.788 39.498 123.119 39.498C124.45 39.498 125.158 38.67 125.158 37.399V32.602H126.585V37.435C126.585 39.414 125.446 40.745 123.119 40.745C120.804 40.745 119.653 39.414 119.653 37.435Z" fill="white"/>
<path d="M127.609 39.474L128.401 38.383C128.94 38.971 129.816 39.498 130.931 39.498C132.082 39.498 132.526 38.935 132.526 38.394C132.526 36.715 127.873 37.759 127.873 34.82C127.873 33.488 129.024 32.469 130.788 32.469C132.023 32.469 133.043 32.877 133.774 33.596L132.982 34.639C132.346 34.004 131.495 33.716 130.656 33.716C129.84 33.716 129.312 34.124 129.312 34.712C129.312 36.211 133.965 35.288 133.965 38.262C133.965 39.594 133.018 40.745 130.871 40.745C129.396 40.745 128.329 40.217 127.609 39.474Z" fill="white"/>
<path d="M137.112 40.601V33.837H134.689V32.602H140.938V33.837H138.515V40.601H137.112Z" fill="white"/>
</g>
<defs>
<clipPath id="clip0_4_28">
<rect width="150" height="50" fill="white"/>
</clipPath>
</defs>
</svg>
