<svg width="60" height="24" viewBox="0 0 60 24" fill="none" xmlns="http://www.w3.org/2000/svg">
<path d="M11.4601 3.0942C10.775 3.90485 9.67889 4.54424 8.58279 4.4529C8.44578 3.3568 8.98241 2.1922 9.61039 1.47288C10.2954 0.639391 11.4943 0.0456708 12.4648 0C12.579 1.14177 12.1337 2.2607 11.4601 3.0942ZM12.4534 4.66984C10.8663 4.5785 9.50763 5.57184 8.75406 5.57184C7.98907 5.57184 6.83589 4.71551 5.57994 4.73834C3.94721 4.76118 2.42865 5.68601 1.59516 7.1589C-0.117492 10.1047 1.14987 14.4662 2.80544 16.8639C3.6161 18.0514 4.5866 19.353 5.86538 19.3073C7.07566 19.2617 7.5552 18.5195 9.01667 18.5195C10.4895 18.5195 10.912 19.3073 12.1908 19.2845C13.5152 19.2617 14.3487 18.0971 15.1594 16.9096C16.0842 15.5623 16.461 14.2493 16.4838 14.1808C16.461 14.1579 13.9263 13.1874 13.9034 10.2645C13.8806 7.82112 15.9015 6.65652 15.9929 6.58801C14.8511 4.89819 13.0699 4.71551 12.4534 4.66984ZM21.6218 1.35871V19.1589H24.3849V13.0733H28.2098C31.7036 13.0733 34.1584 10.6755 34.1584 7.20457C34.1584 3.73359 31.7493 1.35871 28.3012 1.35871H21.6218ZM24.3849 3.68792H27.5704C29.9681 3.68792 31.3383 4.9667 31.3383 7.21598C31.3383 9.46527 29.9681 10.7555 27.559 10.7555H24.3849V3.68792ZM39.2051 19.2959C40.9406 19.2959 42.5504 18.4167 43.2812 17.0238H43.3383V19.1589H45.8958V10.2988C45.8958 7.72978 43.8406 6.07421 40.6779 6.07421C37.7436 6.07421 35.5742 7.75262 35.4943 10.059H37.9834C38.1889 8.96289 39.2051 8.24358 40.598 8.24358C42.2878 8.24358 43.2355 9.0314 43.2355 10.4814V11.4634L39.7874 11.6689C36.579 11.863 34.8435 13.176 34.8435 15.4596C34.8435 17.7659 36.6361 19.2959 39.2051 19.2959ZM39.9472 17.1836C38.4743 17.1836 37.5381 16.4757 37.5381 15.3911C37.5381 14.2721 38.4401 13.6213 40.1641 13.5186L43.2355 13.3245V14.3292C43.2355 15.9962 41.8197 17.1836 39.9472 17.1836ZM49.3097 24C52.0043 24 53.2717 22.9724 54.3792 19.8554L59.2317 6.24548H56.4229L53.1689 16.7612H53.1118L49.8578 6.24548H46.9691L51.6504 19.2046L51.3992 19.9924C50.9767 21.3283 50.2916 21.8421 49.07 21.8421C48.853 21.8421 48.4306 21.8192 48.2593 21.7964V23.9315C48.4191 23.9772 49.1042 24 49.3097 24Z" fill="white"/>
</svg>
