<svg width="24" height="24" viewBox="0 0 24 24" fill="none" xmlns="http://www.w3.org/2000/svg">
<path d="M12 24C18.6274 24 24 18.6274 24 12C24 5.37258 18.6274 0 12 0C5.37258 0 0 5.37258 0 12C0 18.6274 5.37258 24 12 24Z" fill="#F3BA2F"/>
<path d="M9.48939 10.9689L11.9995 8.45876L14.5097 10.9713L15.9699 9.51111L11.9995 5.53845L8.02924 9.50876L9.48939 10.9689Z" fill="white"/>
<path d="M6.99823 10.539L5.53818 11.999L6.99823 13.4591L8.45828 11.999L6.99823 10.539Z" fill="white"/>
<path d="M9.48942 13.0314L11.9996 15.5416L14.5097 13.0291L15.9722 14.4892H15.9699L11.9996 18.4619L8.02926 14.4916L8.02692 14.4892L9.48942 13.0314Z" fill="white"/>
<path d="M17.0003 10.5414L15.5403 12.0015L17.0003 13.4615L18.4604 12.0015L17.0003 10.5414Z" fill="white"/>
<path d="M13.4808 12.0002L11.9995 10.5166L10.905 11.6135L10.7784 11.7377L10.5183 11.9979L10.5159 12.0002L10.5183 12.0025L11.9995 13.4838L13.4808 12.0002Z" fill="white"/>
</svg>
