<svg width="60" height="24" viewBox="0 0 60 24" fill="none" xmlns="http://www.w3.org/2000/svg">
<path d="M9.8562 8.18067V12.0221H15.1737C15.0665 12.6345 14.8369 13.219 14.4986 13.7406C14.1603 14.2622 13.7204 14.7103 13.205 15.058C12.3166 15.668 11.1823 16.0154 9.85248 16.0154C7.2822 16.0154 5.10956 14.2544 4.3301 11.8973C3.92222 10.6573 3.92222 9.31921 4.3301 8.07916C5.10956 5.70817 7.2822 3.94716 9.85248 3.94716C10.5492 3.93418 11.2415 4.05989 11.8892 4.31697C12.5368 4.57405 13.1269 4.95737 13.625 5.44463L16.4449 2.59311C14.6689 0.905724 12.3058 -0.0241268 9.8562 0.00047606C8.02368 0.00750801 6.22962 0.526672 4.67654 1.49936C3.12347 2.47205 1.87323 3.85953 1.06696 5.50516C0.37246 6.89589 0.0109253 8.42909 0.0109253 9.98359C0.0109253 11.5381 0.37246 13.0713 1.06696 14.462V14.476C1.87345 16.1207 3.12402 17.5069 4.67726 18.4779C6.2305 19.4488 8.02444 19.9659 9.8562 19.9704C12.5075 19.9704 14.75 19.0829 16.375 17.5575C18.2375 15.8245 19.3001 13.2598 19.3001 10.209C19.3012 9.52955 19.2467 8.85119 19.1371 8.18067H9.8562ZM46.1204 7.80817C45.1771 6.93464 43.8919 6.49136 42.2659 6.49136C40.1743 6.49136 38.6024 7.26804 37.5631 8.80648L39.5048 10.0413C40.2156 8.9859 41.186 8.45819 42.4159 8.45819C43.1989 8.46009 43.9536 8.75167 44.5345 9.27677C44.8176 9.52258 45.0446 9.82627 45.2003 10.1673C45.356 10.5084 45.4367 10.8789 45.4369 11.2538V11.767C44.5894 11.2948 43.5231 11.0452 42.211 11.0452C40.68 11.0452 39.4498 11.4066 38.5334 12.1413C37.6171 12.8761 37.1533 13.8465 37.1533 15.0804C37.139 15.6318 37.2481 16.1795 37.4727 16.6834C37.6973 17.1872 38.0318 17.6345 38.4515 17.9924C39.3129 18.7691 40.4071 19.1574 41.6914 19.1574C43.2084 19.1574 44.4116 18.4776 45.3233 17.1189H45.4164V18.7691H47.522V11.4401C47.5285 9.89885 47.0638 8.67796 46.1204 7.80817ZM44.3296 16.1243C44.0067 16.4529 43.6216 16.714 43.1968 16.8924C42.772 17.0709 42.316 17.163 41.8553 17.1636C41.2359 17.1739 40.6323 16.9681 40.1483 16.5816C39.9224 16.4123 39.7393 16.1925 39.6136 15.9397C39.488 15.687 39.4233 15.4083 39.4247 15.126C39.4247 14.4741 39.7245 13.9331 40.3131 13.5038C40.9016 13.0744 41.6662 12.8519 42.5546 12.8519C43.7802 12.837 44.7394 13.1164 45.4229 13.6695C45.4229 14.6129 45.0541 15.4305 44.3296 16.1243ZM35.6084 2.90042C35.1142 2.40638 34.5253 2.01727 33.877 1.75642C33.2287 1.49558 32.5345 1.36838 31.8358 1.38247H25.9996V18.7728H28.2002V11.7288H31.8321C33.3221 11.7288 34.5793 11.2296 35.6046 10.2453C35.6866 10.1624 35.7685 10.0786 35.8514 9.9957C36.7488 9.01637 37.226 7.72403 37.1806 6.39653C37.1351 5.06902 36.5706 3.81236 35.6084 2.8967V2.90042ZM34.0643 8.69566C33.7869 8.99178 33.4496 9.22535 33.0748 9.38079C32.7 9.53624 32.2963 9.60999 31.8908 9.59712H28.2002V3.52437H31.8908C32.6783 3.52152 33.435 3.83055 33.9954 4.38392C34.5655 4.95168 34.8917 5.71943 34.9046 6.52393C34.9174 7.32844 34.616 8.10623 34.0643 8.69193V8.69566ZM57.2192 6.87691L53.8164 15.4166H53.7745L50.2897 6.87691H47.8973L52.7203 18.0101L49.987 24H52.2546L59.6116 6.87691H57.2192Z" fill="white"/>
</svg>
