<svg width="32" height="32" viewBox="0 0 32 32" fill="none" xmlns="http://www.w3.org/2000/svg">
<path d="M28.5626 22.5107L29.2679 23.22L28.5612 22.5107H28.5626ZM11.7546 19.636L12.4586 18.9267L11.7532 19.636H11.7546ZM6.25324 5.51332L5.54924 4.80532L6.25457 5.51465L6.25324 5.51332ZM22.1706 18.5213L22.7799 17.9173L21.3679 16.4987L20.7626 17.1027L22.1706 18.5213ZM24.8186 17.664L27.3666 19.0493L28.3199 17.292L25.7732 15.908L24.8186 17.664ZM27.8559 21.8013L25.9626 23.6853L27.3719 25.1027L29.2652 23.22L27.8559 21.8013ZM24.8079 24.2907C22.8746 24.472 17.8746 24.3107 12.4586 18.9267L11.0479 20.344C16.9572 26.22 22.5826 26.508 24.9946 26.2827L24.8066 24.2907H24.8079ZM12.4586 18.9267C7.29724 13.7933 6.44124 9.47732 6.33457 7.60399L4.33724 7.71732C4.47057 10.0747 5.53057 14.8587 11.0479 20.344L12.4586 18.9267ZM14.2919 10.6867L14.6746 10.3053L13.2666 8.88799L12.8839 9.26799L14.2932 10.6853L14.2919 10.6867ZM14.9786 5.45865L13.2986 3.21332L11.6972 4.41332L13.3772 6.65732L14.9786 5.45865ZM7.64391 2.72399L5.55057 4.80399L6.96124 6.22265L9.05324 4.14265L7.64391 2.72399ZM13.5879 9.97732C12.8812 9.26799 12.8812 9.26799 12.8812 9.27065H12.8786L12.8746 9.27599C12.8116 9.34024 12.7549 9.41033 12.7052 9.48532C12.6332 9.59199 12.5546 9.73199 12.4879 9.90932C12.3255 10.3671 12.2851 10.8592 12.3706 11.3373C12.5492 12.4907 13.3439 14.0147 15.3786 16.0387L16.7892 14.62C14.8839 12.7267 14.4306 11.5747 14.3466 11.0307C14.3066 10.772 14.3479 10.644 14.3599 10.6147C14.3666 10.596 14.3692 10.5947 14.3599 10.6067C14.3481 10.6251 14.3348 10.6425 14.3199 10.6587L14.3066 10.672C14.3023 10.6761 14.2978 10.6801 14.2932 10.684L13.5866 9.97732H13.5879ZM15.3786 16.0387C17.4146 18.0627 18.9466 18.852 20.1012 19.028C20.6919 19.1187 21.1679 19.0467 21.5292 18.912C21.7313 18.8372 21.9203 18.731 22.0892 18.5973C22.1122 18.5781 22.1344 18.5581 22.1559 18.5373L22.1652 18.5293L22.1692 18.5253L22.1706 18.5227C22.1706 18.5227 22.1719 18.5213 21.4666 17.812C20.7599 17.1027 20.7639 17.1013 20.7639 17.1013L20.7666 17.0987L20.7692 17.096L20.7772 17.0893L20.7906 17.076C20.8066 17.0616 20.8235 17.0482 20.8412 17.036C20.8546 17.0267 20.8506 17.0307 20.8319 17.0387C20.7986 17.0507 20.6679 17.092 20.4052 17.052C19.8532 16.9667 18.6932 16.5133 16.7892 14.62L15.3786 16.0387ZM13.2986 3.21199C11.9386 1.39865 9.26657 1.11065 7.64391 2.72399L9.05324 4.14265C9.76257 3.43732 11.0212 3.51065 11.6972 4.41332L13.2972 3.21199H13.2986ZM6.33591 7.60532C6.30924 7.14399 6.52124 6.66132 6.96124 6.22399L5.54924 4.80532C4.83324 5.51732 4.26924 6.52532 4.33724 7.71732L6.33591 7.60532ZM25.9626 23.6853C25.5972 24.0507 25.2026 24.256 24.8092 24.292L24.9946 26.2827C25.9746 26.1907 26.7759 25.6973 27.3732 25.104L25.9626 23.6853ZM14.6746 10.3053C15.9879 8.99999 16.0852 6.93732 14.9799 5.45999L13.3786 6.65865C13.9159 7.37732 13.8359 8.31999 13.2652 8.88932L14.6746 10.3053ZM27.3679 19.0507C28.4572 19.6427 28.6266 21.0373 27.8572 21.8027L29.2679 23.22C31.0546 21.4427 30.5039 18.4787 28.3212 17.2933L27.3679 19.0507ZM22.7799 17.9187C23.2919 17.4093 24.1159 17.284 24.8199 17.6653L25.7746 15.9093C24.3292 15.1227 22.5372 15.34 21.3692 16.5L22.7799 17.9187Z" fill="#434650"/>
</svg>
