<svg width="17" height="17" viewBox="0 0 17 17" fill="none" xmlns="http://www.w3.org/2000/svg">
<path d="M1 6.86001C2.91985 11.0408 6.33118 14.3544 10.566 16.152L11.246 16.455C11.999 16.7903 12.8462 16.8491 13.6384 16.621C14.4305 16.3929 15.1167 15.8925 15.576 15.208L16.465 13.884C16.6041 13.6764 16.6604 13.4242 16.6229 13.1771C16.5853 12.93 16.4565 12.7059 16.262 12.549L13.25 10.119C13.1451 10.0344 13.0242 9.97194 12.8945 9.93526C12.7649 9.89859 12.6292 9.88849 12.4955 9.90559C12.3619 9.92268 12.233 9.9666 12.1168 10.0347C12.0005 10.1028 11.8992 10.1938 11.819 10.302L10.887 11.559C8.49461 10.3774 6.55812 8.44061 5.377 6.04801L6.633 5.11601C6.74125 5.03577 6.83216 4.93448 6.90028 4.81823C6.9684 4.70198 7.01233 4.57316 7.02942 4.4395C7.04651 4.30585 7.03642 4.17012 6.99974 4.04046C6.96307 3.91081 6.90057 3.7899 6.816 3.68501L4.386 0.673008C4.2291 0.478461 4.00503 0.349722 3.75794 0.312149C3.51085 0.274576 3.25864 0.330893 3.051 0.470008L1.718 1.36401C1.0294 1.82579 0.52709 2.51702 0.300552 3.31457C0.0740146 4.11213 0.137961 4.9642 0.481 5.71901L1 6.86001Z" fill="#DD7545"/>
</svg>
