<svg width="79" height="24" viewBox="0 0 79 24" fill="none" xmlns="http://www.w3.org/2000/svg">
<path fill-rule="evenodd" clip-rule="evenodd" d="M27.7207 23.158L31.6678 0.80776H38.0647L34.1177 23.158H27.7207ZM57.1212 1.32757C55.8963 0.937743 53.9908 0.417969 51.4048 0.417969C45.1439 0.417969 40.7885 3.40667 40.6524 7.82475C40.6524 10.9434 43.919 12.7626 46.2328 13.8021C48.8188 14.9716 49.6354 15.6214 49.6354 16.6609C49.6354 18.0903 47.5938 18.74 45.8244 18.74C43.2384 18.74 41.8774 18.4801 39.8358 17.5705L38.883 17.3106L38.0664 22.2485C39.5636 22.8982 42.2857 23.418 45.1439 23.418C51.8131 23.418 56.1685 20.4293 56.3046 15.8812C56.3046 13.2824 54.5352 11.3332 50.8604 9.7739C48.6827 8.73435 47.3216 8.08464 47.3216 7.04509C47.3216 6.13548 48.5466 5.09593 50.9965 5.09593C53.0381 5.09593 54.5352 5.48577 55.7602 5.8756L56.3046 6.13548L57.1212 1.32757ZM73.5896 0.80776H68.5537C67.0566 0.80776 65.9677 1.19759 65.2872 2.62697L55.7598 23.158H62.429C62.429 23.158 63.5178 20.4292 63.79 19.7795H71.9564C72.2286 20.5592 72.773 23.158 72.773 23.158H78.6255L73.5896 0.80776ZM65.6953 15.2315C66.2397 13.9321 68.1452 8.99422 68.1452 8.99422C68.1452 8.99422 68.6896 7.69478 69.098 6.78518L69.5063 8.73433C69.5063 8.73433 70.7312 14.062 71.0034 15.2315H65.6953ZM22.2772 0.80776L16.1524 16.0111L15.4719 12.8925C14.2469 9.38403 10.7082 5.48573 6.625 3.53657L12.3414 23.158H19.0106L29.0825 0.80776H22.2772Z" fill="white"/>
<path fill-rule="evenodd" clip-rule="evenodd" d="M11.025 0.417969H0.761842L0.625 0.962055C8.69868 2.86636 14.0355 7.49109 16.225 13.068L13.8987 2.45829C13.625 0.962055 12.3934 0.417969 11.025 0.417969Z" fill="#F7A707"/>
</svg>
