<svg width="32" height="32" viewBox="0 0 32 32" fill="none" xmlns="http://www.w3.org/2000/svg">
<g clip-path="url(#clip0_1_299)">
<path d="M15.9996 5.97333C14.9922 5.97333 14.0075 6.27205 13.1699 6.83171C12.3323 7.39137 11.6795 8.18684 11.294 9.11753C10.9085 10.0482 10.8076 11.0723 11.0041 12.0603C11.2006 13.0483 11.6857 13.9559 12.3981 14.6682C13.1104 15.3805 14.0179 15.8656 15.0059 16.0621C15.9939 16.2587 17.018 16.1578 17.9487 15.7723C18.8794 15.3868 19.6749 14.734 20.2345 13.8964C20.7942 13.0588 21.0929 12.074 21.0929 11.0667C21.0929 9.71582 20.5563 8.42032 19.6011 7.46513C18.6459 6.50995 17.3504 5.97333 15.9996 5.97333ZM15.9996 14.3822C15.3438 14.3822 14.7028 14.1878 14.1576 13.8234C13.6123 13.4591 13.1874 12.9413 12.9364 12.3355C12.6855 11.7296 12.6198 11.063 12.7477 10.4198C12.8757 9.77667 13.1914 9.1859 13.6551 8.72221C14.1188 8.25852 14.7096 7.94274 15.3528 7.81481C15.9959 7.68688 16.6626 7.75254 17.2684 8.00349C17.8742 8.25443 18.392 8.6794 18.7564 9.22464C19.1207 9.76988 19.3151 10.4109 19.3151 11.0667C19.3128 11.9445 18.9624 12.7855 18.3409 13.4054C17.7194 14.0252 16.8774 14.3733 15.9996 14.3733V14.3822Z" fill="#434650"/>
<path d="M16.0004 1.77777C13.2317 1.78008 10.5764 2.87794 8.61446 4.83154C6.65252 6.78515 5.54339 9.43576 5.5293 12.2044C5.5293 16.3555 7.85819 19.8311 9.56485 22.3644L9.87596 22.8267C11.574 25.2877 13.3956 27.6611 15.3337 29.9378L16.0093 30.7289L16.6849 29.9378C18.6228 27.6609 20.4443 25.2875 22.1426 22.8267L22.4537 22.3555C24.1515 19.8222 26.4804 16.3555 26.4804 12.2044C26.4663 9.43422 25.356 6.78227 23.3921 4.82841C21.4282 2.87455 18.7707 1.77774 16.0004 1.77777ZM20.9693 21.3333L20.6493 21.8044C19.1204 24.0978 17.0937 26.6667 16.0004 27.9378C14.9515 26.6667 12.8804 24.0978 11.3515 21.8044L11.0404 21.3333C9.46707 18.9867 7.30708 15.7778 7.30708 12.1689C7.30708 11.0273 7.53193 9.89681 7.96882 8.84209C8.4057 7.78736 9.04604 6.82902 9.85329 6.02177C10.6605 5.21452 11.6189 4.57417 12.6736 4.13729C13.7283 3.70041 14.8588 3.47555 16.0004 3.47555C17.142 3.47555 18.2725 3.70041 19.3272 4.13729C20.3819 4.57417 21.3403 5.21452 22.1475 6.02177C22.9548 6.82902 23.5951 7.78736 24.032 8.84209C24.4689 9.89681 24.6937 11.0273 24.6937 12.1689C24.6937 15.8133 22.5426 19.0222 20.9693 21.3333Z" fill="#434650"/>
</g>
<defs>
<clipPath id="clip0_1_299">
<rect width="32" height="32" fill="white"/>
</clipPath>
</defs>
</svg>
