<!-- icon666.com - MILLIONS vector ICONS FREE --><svg version="1.1" id="Capa_1" xmlns="http://www.w3.org/2000/svg" xmlns:xlink="http://www.w3.org/1999/xlink" x="0px" y="0px" viewBox="0 0 468.293 468.293" style="enable-background:new 0 0 468.293 468.293;" xml:space="preserve"><rect x="177.47" y="354.092" style="fill:#E1E6E9;" width="113.327" height="28.647"></rect><path style="fill:#64798A;" d="M28.496,354.109V75.639c0-6.897,5.591-12.488,12.488-12.488h386.326 c6.897,0,12.488,5.591,12.488,12.488v278.47H28.496z"></path><rect x="43.732" y="78.361" style="fill:#EBF0F3;" width="380.834" height="260.489"></rect><path style="fill:#3A556A;" d="M280.094,354.109l-10.013,13.433h-71.869l-10.013-13.433H6.244c-3.448,0-6.244,2.795-6.244,6.244 v19.812c0,13.794,11.182,24.976,24.976,24.976h418.341c13.794,0,24.976-11.182,24.976-24.976v-19.812 c0-3.448-2.796-6.244-6.244-6.244H280.094z"></path><g><path style="fill:#E56353;" d="M234.626,184.32l12.453,19.11l12.888-19.11h14.524l-20.319,28.399l21.19,29.705h-15.075 l-13.866-19.333l-13.546,19.333h-14.311l20.648-29.599l-19.555-28.506H234.626z"></path><path style="fill:#E56353;" d="M305.649,265.578c-5.315,0-10.124-1.929-14.417-5.786l5.564-9.937c2.551,2.4,5.191,3.6,7.92,3.6 c2.729,0,4.951-0.987,6.666-2.951c1.707-1.964,2.569-4.115,2.569-6.444c0-1.013-7.831-20.932-23.483-59.74h13.102l17.368,42.816 l17.368-42.816h13.102l-28.177,69.028c-1.68,3.786-4.08,6.773-7.209,8.951C312.894,264.485,309.427,265.578,305.649,265.578z"></path></g><path style="fill:#1C75A1;" d="M158.604,261.362c-3.451,0-6.652-1.902-8.287-5l-29.774-56.482H90.537 c-5.171,0-9.366-4.195-9.366-9.366c0-5.171,4.195-9.366,9.366-9.366h35.659c3.476,0,6.665,1.927,8.287,5l21.396,40.591 l21.482-77.561c1.122-4.055,4.817-6.866,9.024-6.866h191.372c5.171,0,9.366,4.195,9.366,9.366s-4.195,9.366-9.366,9.366h-184.25 l-25.878,93.451c-1.024,3.701-4.201,6.402-8.018,6.811C159.268,261.344,158.933,261.362,158.604,261.362z"></path></svg>