<?xml version="1.0" encoding="utf-8"?>
<!-- Generator: Adobe Illustrator 25.4.1, SVG Export Plug-In . SVG Version: 6.00 Build 0)  -->
<svg version="1.1" id="Laag_1" xmlns="http://www.w3.org/2000/svg" xmlns:xlink="http://www.w3.org/1999/xlink" x="0px" y="0px"
	 viewBox="0 0 117.4 117.4" style="enable-background:new 0 0 117.4 117.4;" xml:space="preserve">
<style type="text/css">
	.st0{fill:#FFFFFF;}
	.st1{fill:none;stroke:#1D1E1B;stroke-width:0.507;}
	.st2{clip-path:url(#SVGID_00000121962436735901441110000007829327455792382852_);fill:#1D1E1B;}
</style>
<g>
	<polygon class="st0" points="1.5,2.7 1.5,114.7 1.5,116 2.7,116 114.7,116 116,116 116,114.7 116,2.7 116,1.5 114.7,1.5 2.7,1.5 
		1.5,1.5 	"/>
	<polygon class="st1" points="1.5,2.7 1.5,114.7 1.5,116 2.7,116 114.7,116 116,116 116,114.7 116,2.7 116,1.5 114.7,1.5 2.7,1.5 
		1.5,1.5 	"/>
	<rect x="4" y="4" class="st1" width="109.5" height="109.5"/>
	<g>
		<defs>
			<rect id="SVGID_1_" width="117.4" height="117.4"/>
		</defs>
		<clipPath id="SVGID_00000145020649350457073390000001644553942786796696_">
			<use xlink:href="#SVGID_1_"  style="overflow:visible;"/>
		</clipPath>
		<path style="clip-path:url(#SVGID_00000145020649350457073390000001644553942786796696_);fill:#1D1E1B;" d="M95.1,62.4
			c-0.5-0.8-1.1-1.6-1.6-2.3c-0.5-0.7-1-1.5-1.5-2.4l1.7,0.2l1.2,0.3V60c0,0.6,0,1.1,0.1,1.7V62.4z M96.9,65.8
			c0.1,0.2,0.4,0.7,0.8,1.4c0.4,0.7,0.7,1.4,1.1,2.1c0.3,0.7,0.5,1.4,0.6,2.1c0.1,0.6-0.1,1-0.5,1.1c-0.5,0.2-1-0.1-1.3-0.7
			s-0.5-1.4-0.7-2.3c-0.1-0.9-0.2-1.8-0.3-2.6c0-0.9-0.1-1.4-0.1-1.7L96.9,65.8z M104.5,56.2c-0.3,0-0.6,0.1-0.9,0.3
			c-0.3,0.1-0.6,0.3-0.9,0.4c-0.3,0.1-0.6,0.2-0.8,0.2c-1,0.2-1.9,0.3-2.8,0.2c-0.9,0-1.8-0.1-2.7-0.2c0-2.8,0-5.6,0-8.4
			c0-2.8,0-5.6,0-8.5c0-1.2,0-2.5,0.1-3.8c0.1-1.3,0.1-2.6,0-3.9c0-0.4-0.1-0.7-0.2-0.8c-0.2-0.2-0.3-0.3-0.5-0.3s-0.4,0.1-0.5,0.3
			C95.1,32,95,32.2,95,32.6c0,0.3,0,0.7,0.1,1c0,0.3,0.1,0.6,0.1,1c0.1,3.8,0.1,7.5,0,11.3c-0.1,3.7-0.1,7.5-0.1,11.3
			c-0.2,0-0.6-0.1-1.1-0.3c-0.5-0.2-1-0.3-1.6-0.5c-0.6-0.1-1.1-0.2-1.5-0.2c-0.4,0-0.7,0.1-0.8,0.4c-0.2,0.2-0.3,0.4-0.2,0.7
			c0.1,0.2,0.3,0.5,0.5,0.7c0.2,0.2,0.5,0.4,0.7,0.7c0.3,0.2,0.5,0.4,0.6,0.5c0.6,0.6,1.2,1.3,1.7,2c0.5,0.7,1.1,1.4,1.7,2.2
			c0,0.3,0,0.8,0.1,1.5c0,0.7,0.1,1.4,0.2,2.3c0.1,0.8,0.2,1.7,0.4,2.6c0.2,0.9,0.4,1.6,0.7,2.3c0.3,0.6,0.6,1.1,1.1,1.4
			c0.4,0.3,0.9,0.2,1.6-0.1c0.5-0.3,0.7-0.8,0.6-1.7c-0.1-0.8-0.4-1.7-0.8-2.6c-0.4-0.9-0.9-1.7-1.4-2.6c-0.5-0.8-0.9-1.4-1.1-1.7
			c0-1-0.1-2.1-0.1-3.1v-3.1c1.8,0.2,3.6,0.2,5.4,0c0.1,0,0.4,0,0.9-0.1c0.5-0.1,1-0.2,1.6-0.4c0.5-0.2,0.9-0.4,1.2-0.6
			c0.3-0.2,0.2-0.5-0.1-0.8C105,56.3,104.7,56.2,104.5,56.2 M90.5,62.4c-0.1,0.3-0.2,0.8-0.4,1.4c-0.2,0.6-0.4,1.2-0.6,1.8
			c-0.2,0.6-0.6,1.1-0.9,1.5c-0.4,0.4-0.8,0.7-1.2,0.7c-0.1,0-0.2-0.1-0.2-0.1c-0.1,0-0.2-0.1-0.2-0.2c-0.5-0.6-0.8-1.4-0.9-2.4
			c-0.1-1-0.1-1.8-0.2-2.5c-0.1-0.7-0.1-1.5-0.2-2.3c0-0.8-0.2-1.5-0.6-2.1c-0.6-0.8-1.2-1-1.8-0.5c-0.6,0.5-1.2,1.2-1.7,2.2
			c-0.5,1-1,2-1.4,3c-0.4,1-0.6,1.7-0.7,2c0.5-5,0.8-10,0.9-15.1c0.1-5.1-0.1-10.1-0.7-15.1c0-0.4-0.1-0.9-0.1-1.5
			c0-0.6-0.1-1.2-0.2-1.8c-0.1-0.6-0.2-1.2-0.3-1.7c-0.1-0.6-0.4-1-0.7-1.3c-0.2-0.2-0.5-0.4-0.7-0.3c-0.3,0-0.5,0.2-0.6,0.5
			c0,0.4,0,0.7,0.2,1.1c0.2,0.4,0.3,0.7,0.5,1.1c0.3,0.8,0.5,1.7,0.7,2.7c0.1,1,0.2,1.9,0.3,2.9c0.2,2.4,0.3,4.7,0.4,7.1
			c0,2.3,0,4.7-0.1,7.1c0,2.2-0.1,4.5-0.2,6.7c-0.1,2.2-0.2,4.5-0.4,6.7c-0.1,0.8-0.2,1.7-0.2,2.5c-0.1,0.9-0.2,1.7-0.4,2.5
			c0,0.2-0.1,0.4-0.2,0.7c-0.1,0.3-0.2,0.6-0.2,0.9c0,0.3,0,0.6,0.1,0.8c0.1,0.2,0.2,0.4,0.5,0.4c0.3,0.1,0.6-0.1,0.8-0.6
			c0.3-0.5,0.5-1,0.7-1.7c0.2-0.6,0.3-1.3,0.5-1.9c0.1-0.6,0.2-1,0.3-1.2c0.2-0.5,0.4-1.2,0.6-1.9c0.2-0.7,0.5-1.4,0.8-2.2
			s0.6-1.4,1-2c0.4-0.6,0.8-1.1,1.3-1.5c0.2,0.5,0.3,1.3,0.4,2.4c0,1.1,0.1,2.2,0.3,3.4c0.2,1.1,0.5,2.1,0.9,2.9
			c0.4,0.8,1.1,1.2,2.1,1.1c0.5-0.1,1-0.4,1.5-0.9c0.7-0.7,1.2-1.6,1.3-2.7c0.2-1,0.3-2,0.3-3.1L90.5,62.4L90.5,62.4z M74.9,63.1
			c-0.2,0.1-0.4,0.3-0.6,0.5c-0.2,0.2-0.4,0.4-0.5,0.7c-0.2,0.2-0.3,0.4-0.4,0.6c-0.3,0.3-0.7,0.6-1.2,0.9c-0.5,0.3-0.9,0.5-1.4,0.7
			c-1,0.5-2,0.7-3,0.9c-1.1,0.1-2.1,0.1-3.2,0.1c-0.3,0-0.7,0-1.2-0.1c-0.5-0.1-1-0.2-1.5-0.3c-0.5-0.1-1-0.3-1.4-0.6
			c-0.4-0.2-0.7-0.5-0.8-0.9c0.1-0.8,0.4-1.6,0.8-2.2c0.4-0.7,1-1.2,1.6-1.7c0.6-0.5,1.4-0.9,2.1-1.2c0.8-0.3,1.5-0.5,2.3-0.7
			c1-0.2,2-0.3,3-0.2c1,0.1,2,0.2,3,0.4c-1.4-0.7-2.8-1.1-4.3-1.3c-1.5-0.1-3,0.1-4.5,0.7c-0.5,0.2-1.1,0.5-1.8,1
			c-0.7,0.4-1.3,0.9-1.8,1.5c-0.6,0.6-1,1.2-1.4,1.8c-0.4,0.7-0.5,1.3-0.3,2c0,0.4,0.1,0.8,0.4,1.1c0.3,0.3,0.6,0.6,1,0.8
			c0.4,0.2,0.8,0.4,1.2,0.6c0.4,0.1,0.8,0.3,1.2,0.4c1.1,0.3,2.3,0.5,3.5,0.5c1.2,0,2.4-0.1,3.5-0.4c1.9-0.4,3.6-1.3,5.1-2.6
			c0.1-0.1,0.3-0.3,0.6-0.5c0.3-0.2,0.5-0.5,0.7-0.8c0.2-0.3,0.4-0.6,0.4-0.8s-0.1-0.5-0.3-0.7C75.3,63,75.1,63,74.9,63.1
			 M54.2,61.7c0-0.6,0.1-1.1,0.4-1.6c0.2-0.5,0.4-1,0.4-1.5c0.1-0.2,0-0.4-0.2-0.5c-0.2-0.1-0.4-0.2-0.6-0.2
			c-0.2,0.1-0.3,0.2-0.4,0.4c-0.4,0.4-0.6,0.8-0.7,1.3c0,0.5-0.1,1-0.2,1.5c0,1.2,0.2,2.5,0.5,3.9c0.1,0.5,0.1,1,0.1,1.6
			c0,0.6,0.2,1,0.6,1.4c0.2,0.2,0.4,0.2,0.6,0.2c0.2,0,0.3-0.2,0.4-0.4c0.2-0.3,0.2-0.7,0.1-1.1c-0.1-0.4-0.3-0.8-0.4-1.1
			C54.4,64.2,54.2,63,54.2,61.7 M59.3,48.4c-0.5-0.2-1-0.3-1.6-0.3c-0.6,0-1.2,0-1.7,0c-0.6,0-1,0.1-1.3,0.1
			c-0.7,0.1-1.3,0.2-1.9,0.3c-0.6,0.1-1.3,0.3-1.9,0.4c-0.4,0.1-0.8,0.2-1.3,0.4c-0.5,0.2-0.8,0.5-0.9,0.9c-0.2,0.4,0,0.6,0.4,0.7
			c0.4,0,0.8,0,1-0.1c1.3-0.5,2.7-0.9,4.1-1.3c1.4-0.4,2.8-0.3,4.3,0c-0.8,0.8-1.8,1.5-3,2.2c-1.2,0.6-2.3,1.1-3.3,1.6
			c-0.4,0.2-0.9,0.4-1.5,0.6c-0.6,0.2-1.2,0.4-1.8,0.5c-0.6,0.1-1.3,0.2-1.8,0.2c-0.6,0-1.1-0.1-1.5-0.4c0.5-0.6,1.1-1.1,1.9-1.5
			c0.7-0.4,1.6-0.7,2.4-1c0.9-0.2,1.8-0.4,2.6-0.6c0.9-0.1,1.7-0.2,2.4-0.2c-1.1-0.2-2.2-0.2-3.2-0.1s-2.2,0.4-3.2,0.7
			c-0.3,0.1-0.6,0.2-1,0.3c-0.4,0.1-0.8,0.3-1.2,0.5c-0.4,0.2-0.8,0.4-1.1,0.7c-0.3,0.2-0.5,0.5-0.7,0.9c-0.1,0.5,0,0.9,0.2,1.1
			c0.3,0.2,0.7,0.4,1.2,0.5c0.5,0.1,1,0.1,1.5,0.1c0.5,0,0.9,0,1.2,0c1.4-0.1,2.7-0.4,4-1c1.3-0.5,2.6-1.1,3.8-1.8
			c0.2-0.1,0.6-0.3,1-0.5c0.4-0.2,0.9-0.5,1.3-0.8c0.4-0.3,0.8-0.6,1.1-1c0.3-0.4,0.4-0.7,0.4-1.2C60,49,59.8,48.7,59.3,48.4
			 M60.6,73c0.5,0,0.9-0.1,1.4-0.1c-3-0.6-6-1-9-1.1c-3-0.2-6-0.3-9-0.3c-3.6,0-7.3,0.1-11,0.4c-3.7,0.3-7.2,1.1-10.6,2.4
			c3.9-4.3,7.7-8.5,11.5-12.7c3.8-4.2,7.8-8.4,11.8-12.5l4-3.9c0.1-0.1,0.3-0.2,0.6-0.4c0.3-0.2,0.5-0.4,0.8-0.7
			c0.2-0.2,0.4-0.5,0.5-0.7c0.1-0.2,0-0.5-0.2-0.6c-0.2-0.2-0.4-0.2-0.7-0.2c-0.2,0.1-0.5,0.2-0.7,0.3c-0.2,0.2-0.4,0.3-0.7,0.5
			c-0.2,0.2-0.4,0.3-0.6,0.5c-0.5,0.4-1.1,0.7-1.8,0.9c-0.6,0.2-1.3,0.4-1.9,0.6c-1.5,0.4-2.9,0.7-4.4,0.9c-1.5,0.2-2.9,0.4-4.4,0.5
			c-0.7,0-1.4,0.1-2.1,0.1c-0.7,0-1.4,0-2.1-0.1c-0.6,0-1.3-0.1-2-0.3c-0.8-0.2-1.4-0.2-2,0.1c-0.2,0.1-0.4,0.3-0.4,0.4
			c0,0.1,0,0.3,0.2,0.4s0.3,0.2,0.5,0.3c0.2,0.1,0.4,0.2,0.5,0.2c0.7,0.1,1.3,0.1,1.9,0.1c0.6,0,1.2,0,1.9,0c2.4,0.1,4.8,0,7.3-0.3
			c2.5-0.3,4.8-0.9,7.2-1.7c-3.4,3.4-6.7,6.8-9.9,10.3c-3.3,3.5-6.5,7-9.8,10.6L23,72c-0.4,0.4-0.8,0.8-1.2,1.3
			c-0.4,0.4-0.7,0.9-1.1,1.3c-0.5,0.5-0.9,0.8-1.4,1.1c-0.5,0.3-0.9,0.6-1.4,0.9c-1.3,0.9-2.5,2-3.6,3.2c-1.1,1.2-2,2.6-2.7,4
			c-0.2,0.4-0.3,0.7-0.2,0.9c0.1,0.2,0.2,0.4,0.4,0.5c0.2,0.2,0.6,0.1,1.2-0.4c0.6-0.5,1.3-1.2,1.9-1.9c0.7-0.7,1.3-1.5,1.9-2.2
			c0.6-0.7,0.9-1.2,1.1-1.3c0.4-0.5,0.7-0.9,1.1-1.3c0.4-0.4,0.8-0.8,1.2-1.3c2.4-1.3,5-2.2,7.7-2.7c2.7-0.5,5.5-0.9,8.2-1.1
			c3-0.2,5.9-0.4,8.9-0.3c2.9,0,5.8,0.1,8.7,0.2c1,0,1.9,0.1,2.8,0.1h2.7C59.7,73.1,60.2,73.1,60.6,73"/>
		<path style="clip-path:url(#SVGID_00000145020649350457073390000001644553942786796696_);fill:#1D1E1B;" d="M81.7,84.7H84v-0.8
			h-1.5v-1.1H84V82h-1.5v-0.8H84v-0.8h-2.3V84.7z M77,81.2h0.8v3.5h0.8v-3.5h0.8v-0.8H77V81.2z M71.2,84.7h0.8v-2.8l1.8,2.8h0.8
			v-4.3h-0.8v2.8L72,80.4h-0.8V84.7z M66.4,84.7h2.3v-0.8h-1.5v-1.1h1.5V82h-1.5v-0.8h1.5v-0.8h-2.3V84.7z M59.9,84.7h0.8l0.8-2.8
			l0.8,2.8H63l1-4.3h-0.8l-0.6,2.7l-0.8-2.7h-0.7l-0.8,2.7l-0.6-2.7h-0.8L59.9,84.7z M54.6,81.2h0.8v3.5h0.8v-3.5h0.8v-0.8h-2.4
			V81.2z M47.3,81.2h0.2c0.3,0,0.4,0,0.5,0.1c0.1,0.1,0.2,0.2,0.2,0.4c0,0.1,0,0.2-0.1,0.2C48.1,82,48,82,48,82c-0.1,0-0.2,0-0.4,0
			h-0.3V81.2z M46.5,84.7h0.8v-1.8c0.4,0,0.7,0,0.9-0.1c0.3-0.1,0.5-0.2,0.6-0.4c0.2-0.2,0.2-0.4,0.2-0.7c0-0.3-0.1-0.5-0.2-0.7
			c-0.1-0.2-0.3-0.3-0.5-0.4c-0.2-0.1-0.5-0.1-1-0.1h-0.9V84.7z M42.7,81.5c0.3,0.3,0.4,0.6,0.4,1c0,0.4-0.1,0.7-0.4,1
			c-0.3,0.3-0.6,0.4-1,0.4c-0.3,0-0.6-0.1-0.9-0.3c-0.3-0.3-0.5-0.6-0.5-1.1c0-0.4,0.1-0.8,0.4-1c0.3-0.3,0.6-0.4,1-0.4
			C42.1,81.1,42.4,81.2,42.7,81.5 M40.6,80.6c-0.3,0.2-0.6,0.5-0.8,0.8c-0.2,0.3-0.3,0.7-0.3,1.1c0,0.6,0.2,1.1,0.6,1.6
			c0.4,0.4,1,0.7,1.6,0.7c0.6,0,1.1-0.2,1.6-0.6c0.4-0.4,0.6-1,0.6-1.6c0-0.6-0.2-1.2-0.6-1.6c-0.4-0.4-1-0.7-1.6-0.7
			C41.3,80.3,41,80.4,40.6,80.6"/>
	</g>
</g>
</svg>
