<!-- icon666.com - MILLIONS vector ICONS FREE --><svg version="1.1" id="Layer_1" xmlns="http://www.w3.org/2000/svg" xmlns:xlink="http://www.w3.org/1999/xlink" x="0px" y="0px" viewBox="0 0 512.001 512.001" style="enable-background:new 0 0 512.001 512.001;" xml:space="preserve"><g><path style="fill:#FFD3AE;" d="M429.472,133.815l0.012,0.012c-8.616,10.007-13.838,23.043-13.838,37.305v71.051 c-8.581,0-16.926,0.99-24.929,2.864c3.159-8.876,4.75-18.14,4.75-27.44c0-17.786-5.764-35.573-17.303-50.295V60.418 c0-14.168,11.48-25.66,25.648-25.66c14.168,0,25.66,11.492,25.66,25.66L429.472,133.815L429.472,133.815z"></path><path style="fill:#FFD3AE;" d="M378.164,60.418v106.895c-2.027-2.593-4.243-5.092-6.624-7.473 c-12.612-12.612-28.324-20.238-44.672-22.878V96.616V34.499c0-14.168,11.469-25.66,25.648-25.66 c14.168,0,25.648,11.492,25.648,25.66L378.164,60.418L378.164,60.418z"></path><path style="fill:#FFD3AE;" d="M326.867,96.616v40.347c-4.338-0.695-8.711-1.049-13.095-1.049c-13.154,0-26.308,3.159-38.225,9.477 v-0.012V96.616c0-14.168,11.492-25.66,25.66-25.66C315.375,70.956,326.867,82.448,326.867,96.616z"></path><path style="fill:#FFD3AE;" d="M236.45,96.616v48.762c-15.877-8.416-33.958-11.221-51.308-8.416V96.616 c0-14.168,11.492-25.66,25.648-25.66C224.958,70.956,236.45,82.448,236.45,96.616z"></path></g><g><path style="fill:#E5B48F;" d="M208.723,122.535V96.616c0-9.919,5.625-18.52,13.857-22.79c-3.53-1.831-7.537-2.87-11.79-2.87 c-14.168,0-25.636,11.492-25.636,25.66v25.919v106.895c2.027-2.593,4.243-5.092,6.624-7.473c5.18-5.18,10.89-9.505,16.946-13.003 L208.723,122.535L208.723,122.535z"></path><path style="fill:#E5B48F;" d="M299.116,122.535V96.616c0-9.919,5.625-18.52,13.857-22.79c-3.53-1.831-7.537-2.87-11.79-2.87 c-14.168,0-25.636,11.492-25.636,25.66v25.919v106.895c2.027-2.593,4.243-5.092,6.624-7.473c5.18-5.18,10.89-9.505,16.946-13.003 L299.116,122.535L299.116,122.535z"></path><path style="fill:#E5B48F;" d="M350.437,60.418V34.499c0-9.919,5.625-18.52,13.857-22.79c-3.53-1.831-7.537-2.87-11.79-2.87 c-14.168,0-25.636,11.492-25.636,25.66v25.919v106.895c2.027-2.593,4.243-5.092,6.624-7.473c5.18-5.18,10.89-9.505,16.946-13.003 L350.437,60.418L350.437,60.418z"></path><path style="fill:#E5B48F;" d="M401.733,86.338V60.418c0-9.919,5.625-18.52,13.857-22.79c-3.53-1.831-7.537-2.87-11.79-2.87 c-14.168,0-25.636,11.492-25.636,25.66v25.919v106.895c2.027-2.593,17.514,53.339,23.57,49.841L401.733,86.338L401.733,86.338z"></path></g><path style="fill:#F95428;" d="M395.467,217.608c0,9.3-1.591,18.564-4.75,27.44c-20.097,4.703-38.06,14.958-52.169,29.066 c-17.174,17.173-28.642,40.052-31.318,65.559l-50.849,50.86l-0.377,0.377l-51.238-51.238l-0.071-0.672 c-5.127-46.051-38.944-83.439-83.157-93.883c-0.094-0.024-0.177-0.047-0.271-0.071c-3.159-8.876-4.727-18.14-4.727-27.44v-0.731 c0-0.306,0-0.625,0.012-0.931c0.354-17.232,6.117-34.371,17.291-48.633c2.027-2.593,4.243-5.092,6.624-7.473 c12.612-12.612,28.324-20.238,44.672-22.878c8.852-1.426,17.881-1.403,26.721,0.094c8.498,1.414,16.808,4.196,24.587,8.322 c7.037,3.725,13.637,8.545,19.554,14.463c5.917-5.917,12.518-10.738,19.543-14.451c11.917-6.318,25.071-9.477,38.225-9.477 c4.385,0,8.758,0.354,13.095,1.049c16.348,2.64,32.06,10.266,44.672,22.878c2.381,2.381,4.597,4.88,6.624,7.473 C389.703,182.036,395.467,199.822,395.467,217.608z"></path><path style="fill:#E54728;" d="M256.594,390.911l-0.295-0.295l-51.603-51.615c-5.127-46.051-38.944-83.439-83.156-93.883 c-3.3-9.017-4.962-18.494-4.998-27.97v-0.271c0-0.306,0-0.625,0.012-0.931c0.224-20.698,8.239-41.301,24.022-57.084 c19.943-19.955,47.619-27.475,73.397-22.584c-0.707,0.236-1.403,0.483-2.11,0.778c-3.795,1.544-7.508,3.913-11.044,7.096 c-4.173,3.76-8.098,8.663-11.61,14.71c-18.611,32.037-18.611,83.982,0,116.018l67.173,115.653L256.594,390.911z"></path><path style="fill:#FFD3AE;" d="M390.717,245.048c8.003-1.874,16.348-2.864,24.929-2.864v-71.051 c0-14.262,5.222-27.298,13.838-37.306c0.931-1.084,1.909-2.133,2.911-3.135c10.349-10.361,24.646-16.761,40.453-16.761 c5.587,0,10.125,4.538,10.125,10.125v221.652c0,9.818-3.124,19.389-8.934,27.31l-61.61,84.005v46.134H256.005V390.911l51.226-51.238 c2.676-25.507,14.144-48.385,31.318-65.559C352.657,260.006,370.62,249.751,390.717,245.048z"></path><polygon style="fill:#E5B48F;" points="292.756,354.148 292.756,503.157 256.005,503.157 256.005,390.911 "></polygon><path style="fill:#FFD3AE;" d="M185.142,96.616v40.347c-16.348,2.64-32.06,10.266-44.672,22.878 c-2.381,2.381-4.597,4.88-6.624,7.473V60.418V34.499c0-14.168,11.469-25.66,25.636-25.66c14.18,0,25.66,11.492,25.66,25.66V96.616z"></path><path style="fill:#E5B48F;" d="M157.414,60.418V34.499c0-9.919,5.625-18.52,13.857-22.79c-3.53-1.831-7.537-2.87-11.79-2.87 c-14.168,0-25.636,11.492-25.636,25.66v25.919v106.895c2.027-2.593,4.243-5.092,6.624-7.473c5.18-5.18,10.89-9.505,16.946-13.003 V60.418z"></path><path style="fill:#FFD3AE;" d="M133.845,167.314c-11.539,14.722-17.303,32.508-17.303,50.295c0,9.3,1.568,18.564,4.727,27.44 c-8.003-1.874-16.337-2.864-24.906-2.864v-71.051c0-14.262-5.222-27.298-13.85-37.306l0.012-0.012V60.418 c0-14.168,11.492-25.66,25.66-25.66s25.66,11.492,25.66,25.66L133.845,167.314L133.845,167.314z"></path><path style="fill:#E5B48F;" d="M106.731,88.707V62.788c0-9.919,5.625-18.52,13.857-22.79c-3.53-1.831-7.537-2.87-11.79-2.87 c-14.168,0-25.636,11.492-25.636,25.66v25.919v106.895c2.027-2.593,4.243,48.963,6.624,46.582c5.18-5.18,10.89,6.363,16.946,2.864 V88.707z"></path><path style="fill:#FFD3AE;" d="M204.767,339.673l51.238,51.238v112.247H99.569v-46.134l-61.61-84.005 c-5.799-7.921-8.934-17.492-8.934-27.31V124.056c0-2.793,1.132-5.328,2.97-7.155c1.827-1.839,4.373-2.97,7.166-2.97 c17.327,0,32.862,7.709,43.352,19.896c8.628,10.007,13.85,23.043,13.85,37.306v71.051c8.569,0,16.902,0.99,24.906,2.864 C165.835,255.456,199.887,293.221,204.767,339.673z"></path><g><path style="fill:#E5B48F;" d="M65.655,373.018c-5.799-7.921-8.934-17.492-8.934-27.31V124.056c0-2.487,0.901-4.764,2.394-6.524 c-6.216-2.316-12.934-3.601-19.954-3.601c-2.793,0-5.339,1.132-7.166,2.97c-1.839,1.827-2.97,4.361-2.97,7.155v221.652 c0,9.818,3.135,19.389,8.934,27.31l61.61,84.005v46.134h27.697v-46.134L65.655,373.018z"></path><path style="fill:#E5B48F;" d="M419.852,250.353c13.953,0,25.265-11.312,25.265-25.265v-53.954 c0-14.262,5.222-27.298,13.838-37.305c0.931-1.084,1.909-2.133,2.911-3.135c5.409-5.415,11.904-9.734,19.121-12.637 c-1.845-2.496-4.8-4.124-8.139-4.124c-15.806,0-30.104,6.4-40.453,16.761c-1.002,1.002-1.98,2.051-2.911,3.135 c-8.616,10.007-13.838,23.043-13.838,37.305v79.22H419.852z"></path><polygon style="fill:#E5B48F;" points="292.756,354.148 292.756,503.157 256.005,503.157 256.005,390.911 "></polygon></g><g><path style="fill:#FFFFFF;" d="M175.461,351.699c-4.467,0-8.304-3.376-8.781-7.917c-3.142-29.916-24.894-54.604-54.123-61.43 c-4.755-1.11-7.709-5.865-6.598-10.619s5.866-7.707,10.619-6.598c36.557,8.537,63.758,39.401,67.686,76.8 c0.51,4.855-3.013,9.206-7.868,9.715C176.081,351.683,175.77,351.699,175.461,351.699z"></path><path style="fill:#FFFFFF;" d="M453.506,354.55c-4.882,0-8.84-3.958-8.84-8.84v-59.925c0-4.882,3.958-8.84,8.84-8.84 c4.882,0,8.84,3.958,8.84,8.84v59.925C462.346,350.592,458.388,354.55,453.506,354.55z"></path><path style="fill:#FFFFFF;" d="M235.168,189.518c-2.262,0-4.525-0.863-6.251-2.59c-3.094-3.094-6.589-5.682-10.389-7.693 c-6.186-3.279-13.218-5.011-20.339-5.011c-2.323,0-4.656,0.186-6.933,0.554c-4.823,0.78-9.359-2.496-10.138-7.316 c-0.779-4.82,2.496-9.359,7.316-10.138c3.207-0.519,6.489-0.781,9.754-0.781c9.998,0,19.893,2.443,28.615,7.067 c5.355,2.835,10.273,6.475,14.615,10.816c3.452,3.452,3.452,9.049,0,12.501C239.693,188.655,237.43,189.518,235.168,189.518z"></path><path style="fill:#FFFFFF;" d="M365.999,226.449c-4.882,0-8.84-3.958-8.84-8.84c0-9.67-3.247-19.138-9.144-26.663 c-1.086-1.388-2.283-2.737-3.562-4.017c-6.495-6.493-14.686-10.694-23.693-12.149c-2.31-0.37-4.665-0.559-6.988-0.559 c-4.882,0-8.84-3.958-8.84-8.84s3.958-8.84,8.84-8.84c3.258,0,6.555,0.264,9.797,0.784c12.707,2.052,24.248,7.966,33.385,17.103 c1.785,1.785,3.462,3.675,4.982,5.62c8.319,10.614,12.904,23.957,12.904,37.562C374.839,222.49,370.882,226.449,365.999,226.449z"></path></g><path style="fill:#333333;" d="M472.843,105.088c-12.651,0-24.477,3.582-34.531,9.775V60.416c0-19.022-15.475-34.497-34.497-34.497 c-6.205,0-12.026,1.655-17.062,4.533C384.745,13.331,370.163,0,352.519,0c-19.022,0-34.497,15.475-34.497,34.497v32.01 c-4.979-2.792-10.713-4.393-16.816-4.393c-19.022,0-34.497,15.475-34.497,34.497v43.641c-3.722,2.274-7.306,4.811-10.705,7.637 c-3.401-2.828-6.986-5.368-10.713-7.644V96.611c0-19.022-15.475-34.497-34.497-34.497c-6.103,0-11.838,1.599-16.816,4.393V34.497 C193.979,15.475,178.504,0,159.482,0c-17.644,0-32.225,13.331-34.235,30.453c-5.035-2.878-10.857-4.533-17.062-4.533 c-19.022,0-34.497,15.475-34.497,34.497v54.447c-10.054-6.193-21.881-9.775-34.531-9.775c-10.462,0-18.973,8.511-18.973,18.973 v221.651c0,11.781,3.682,23.03,10.649,32.531l59.893,81.671v43.244c0,4.882,3.958,8.84,8.84,8.84s8.84-3.958,8.84-8.84V457.02 c0-1.88-0.6-3.712-1.711-5.227l-61.604-84.005c-4.728-6.447-7.227-14.081-7.227-22.076v-221.65c0-0.713,0.58-1.293,1.293-1.293 c26.668,0,48.363,21.695,48.363,48.363v71.056c0,4.882,3.958,8.84,8.84,8.84c55.239,0,100.179,44.94,100.179,100.179v28.858 c0,4.882,3.958,8.84,8.84,8.84s8.84-3.958,8.84-8.84v-18.441l32.942,32.942v108.593c0,4.882,3.958,8.84,8.84,8.84 c4.882,0,8.84-3.958,8.84-8.84V394.566l32.937-32.937v18.437c0,4.882,3.958,8.84,8.84,8.84c4.882,0,8.84-3.958,8.84-8.84v-28.858 c0-55.239,44.94-100.179,100.18-100.179c4.882,0,8.84-3.958,8.84-8.84v-71.056c0-26.668,21.695-48.363,48.363-48.363 c0.713,0,1.293,0.58,1.293,1.293v221.651c0,7.995-2.499,15.628-7.227,22.076l-61.604,84.005c-1.112,1.516-1.711,3.347-1.711,5.227 v46.139c0,4.882,3.958,8.84,8.84,8.84c4.882,0,8.84-3.958,8.84-8.84v-43.244l59.893-81.673c6.967-9.5,10.649-20.75,10.649-32.531 V124.062C491.817,113.6,483.305,105.088,472.843,105.088z M335.703,34.497c0-9.273,7.544-16.816,16.816-16.816 c9.263,0,16.799,7.544,16.799,16.816v25.919v85.724c-10.012-7.81-21.419-13.378-33.616-16.403V96.611V34.497H335.703z M284.39,96.611c0-9.273,7.544-16.816,16.816-16.816c9.273,0,16.816,7.544,16.816,16.816v30.562 c-1.413-0.065-2.83-0.104-4.254-0.104c-10.151,0-20.042,1.681-29.379,4.876L284.39,96.611L284.39,96.611z M210.795,79.795 c9.273,0,16.816,7.544,16.816,16.816v35.332c-9.332-3.191-19.222-4.869-29.375-4.869c-1.425,0-2.844,0.039-4.257,0.104V96.611 C193.979,87.338,201.522,79.795,210.795,79.795z M142.683,34.497c0-9.273,7.537-16.816,16.799-16.816 c9.273,0,16.816,7.544,16.816,16.816v62.115v33.128c-12.203,3.023-23.61,8.59-33.616,16.399V60.416V34.497H142.683z M91.369,130.76 V60.416c0-9.273,7.544-16.816,16.816-16.816s16.816,7.544,16.816,16.816v103.946c-11.228,15.368-17.303,33.832-17.303,53.245 c0,5.549,0.516,11.043,1.509,16.445c-1.33-0.145-2.664-0.276-4.008-0.376v-62.544C105.201,155.936,100.028,141.933,91.369,130.76z M298.819,335.587l-42.817,42.817l-42.822-42.822c-6.251-46.974-40.273-85.291-84.97-97.855c-1.869-6.523-2.831-13.27-2.831-20.12 c0-19.473,7.578-37.766,21.341-51.516c13.76-13.76,32.054-21.338,51.516-21.338s37.756,7.578,51.516,21.338 c3.451,3.451,9.046,3.452,12.499,0.004c13.78-13.765,32.076-21.345,51.518-21.345c19.444,0,37.739,7.58,51.519,21.345 c13.76,13.746,21.339,32.039,21.339,51.512c0,6.832-0.968,13.58-2.849,20.124C339.086,250.298,305.069,288.615,298.819,335.587z M406.8,171.131v62.544c-1.345,0.1-2.68,0.231-4.012,0.376c1-5.41,1.518-10.905,1.518-16.445c0-19.415-6.076-37.881-17.308-53.251 V60.416c0-9.273,7.544-16.816,16.816-16.816c9.273,0,16.816,7.544,16.816,16.816v70.344 C411.974,141.933,406.8,155.936,406.8,171.131z"></path><circle style="fill:#FFFFFF;" cx="453.501" cy="257.496" r="8.84"></circle></svg>