<!-- icon666.com - MILLIONS vector ICONS FREE --><svg version="1.1" id="Capa_1" xmlns="http://www.w3.org/2000/svg" xmlns:xlink="http://www.w3.org/1999/xlink" x="0px" y="0px" viewBox="0 0 407.552 407.552" style="enable-background:new 0 0 407.552 407.552;" xml:space="preserve"><g><circle style="fill:#382B73;" cx="203.776" cy="203.776" r="203.776"></circle><circle style="fill:#473080;" cx="203.776" cy="203.776" r="176.282"></circle><path style="fill:#382B73;" d="M325.786,264.141l-15.155-70.963c0-0.051,0-0.102,0-0.154l-2.714-15.309 c-1.587-8.909-6.093-16.64-12.442-22.323v-8.858l0,0c0-0.358,0-0.666-0.051-0.973c0-0.154-0.051-0.307-0.051-0.461 s-0.051-0.307-0.051-0.461c-0.051-0.205-0.102-0.41-0.154-0.614c0-0.051-0.051-0.154-0.051-0.205 c-1.229-4.659-5.478-8.09-10.496-8.09l0,0c-4.762,0-8.806,3.072-10.291,7.373l0,0l0,0c-0.102,0.256-0.154,0.461-0.205,0.717 c0,0.051-0.051,0.154-0.051,0.205c-0.051,0.205-0.102,0.41-0.154,0.614c-0.051,0.154-0.051,0.307-0.051,0.461 s-0.051,0.307-0.051,0.461c0,0.051,0,0.102,0,0.102c-1.485-0.154-2.97-0.256-4.506-0.256h-5.99l0,0 c0-4.506-3.635-8.141-8.141-8.141H152.422c-4.506,0-8.141,3.635-8.141,8.141l0,0h-5.99c-1.536,0-3.021,0.102-4.506,0.256 c0-0.051,0-0.154,0-0.205c-0.563-5.478-5.171-9.779-10.803-9.779l0,0c-5.632,0-10.24,4.301-10.803,9.779 c-0.051,0.358-0.051,0.717-0.051,1.075l0,0v8.858c-6.349,5.683-10.854,13.414-12.442,22.323l-2.714,15.309c0,0.051,0,0.102,0,0.154 l-15.155,70.963c-3.482,14.848,7.782,29.03,23.04,29.03l0,0c11.008,0,20.531-7.578,23.04-18.278l7.782-35.942h136.397l7.782,35.942 c2.509,10.701,12.032,18.278,23.04,18.278l0,0C318.003,293.171,329.267,278.989,325.786,264.141z"></path><g><path style="fill:#FEDE3A;" d="M284.621,124.621L284.621,124.621c-5.99,0-10.854,4.864-10.854,10.854v10.854h21.709v-10.854 C295.475,129.485,290.611,124.621,284.621,124.621z"></path><path style="fill:#FEDE3A;" d="M122.931,124.621L122.931,124.621c-5.99,0-10.854,4.864-10.854,10.854v10.854h21.709v-10.854 C133.837,129.485,128.973,124.621,122.931,124.621z"></path><path style="fill:#FFC733;" d="M295.475,135.475c0-1.229-0.205-2.406-0.614-3.533c-1.997-1.178-4.352-1.843-6.81-1.843h-6.912 c-2.509,0-4.813,0.666-6.81,1.843c-0.358,1.126-0.614,2.304-0.614,3.533v10.854h21.709v-10.854H295.475z"></path><path style="fill:#FFC733;" d="M133.837,135.475c0-0.717-0.051-1.434-0.205-2.15c-2.253-1.997-5.222-3.226-8.448-3.226h-4.403 c-3.226,0-6.195,1.229-8.448,3.226c-0.154,0.666-0.205,1.382-0.205,2.15v10.854h21.709V135.475z"></path><path style="fill:#1CAEE4;" d="M271.974,227.942H135.578c-24.422,0-42.906-22.016-38.656-45.978l2.714-15.309 c3.328-18.688,19.61-32.307,38.656-32.307h130.97c19.046,0,35.328,13.619,38.656,32.307l2.714,15.309 C314.88,205.926,296.397,227.942,271.974,227.942z"></path><g><path style="fill:#1CAEE4;" d="M302.746,282.112L302.746,282.112c-11.008,0-20.531-7.578-23.04-18.278l-17.971-83.046h48.589 l15.411,72.243C329.267,267.93,318.003,282.112,302.746,282.112z"></path><path style="fill:#1CAEE4;" d="M104.806,282.112L104.806,282.112c11.008,0,20.531-7.578,23.04-18.278l17.92-83.046H97.178 L81.766,253.03C78.285,267.93,89.549,282.112,104.806,282.112z"></path></g><path style="fill:#177BC0;" d="M271.974,227.942L271.974,227.942c-1.741-17.408,15.002-27.802,41.062-34.662l-0.666-3.226 l-1.69-7.885l0,0l-0.256-1.28c0,0-43.264,39.322-106.598,39.322S97.229,180.89,97.229,180.89l-0.256,1.28l0,0l-1.69,7.885 l-0.666,3.226c26.061,6.861,42.803,17.254,41.062,34.662l0,0l0,0H271.974L271.974,227.942z"></path><g><g><circle style="fill:#FEDE3A;" cx="145.766" cy="162.355" r="8.141"></circle><circle style="fill:#FEDE3A;" cx="145.766" cy="194.406" r="8.141"></circle><circle style="fill:#FEDE3A;" cx="161.792" cy="178.381" r="8.141"></circle><circle style="fill:#FEDE3A;" cx="129.741" cy="178.381" r="8.141"></circle></g><g><circle style="fill:#FEDE3A;" cx="261.786" cy="162.355" r="8.141"></circle><circle style="fill:#FEDE3A;" cx="261.786" cy="194.406" r="8.141"></circle><circle style="fill:#FEDE3A;" cx="277.811" cy="178.381" r="8.141"></circle><circle style="fill:#FEDE3A;" cx="245.76" cy="178.381" r="8.141"></circle></g></g><path style="fill:#E7AD27;" d="M137.626,162.355c0-4.506,3.635-8.141,8.141-8.141c4.506,0,8.141,3.635,8.141,8.141 s-3.635,8.141-8.141,8.141C141.261,170.496,137.626,166.861,137.626,162.355z M145.766,186.214c-4.506,0-8.141,3.635-8.141,8.141 c0,4.506,3.635,8.141,8.141,8.141c4.506,0,8.141-3.635,8.141-8.141C153.907,189.901,150.272,186.214,145.766,186.214z M161.792,170.189c-4.506,0-8.141,3.635-8.141,8.141c0,4.506,3.635,8.141,8.141,8.141s8.141-3.635,8.141-8.141 C169.933,173.875,166.298,170.189,161.792,170.189z M129.741,170.189c-4.506,0-8.141,3.635-8.141,8.141 c0,4.506,3.635,8.141,8.141,8.141c4.506,0,8.141-3.635,8.141-8.141C137.882,173.875,134.246,170.189,129.741,170.189z M261.786,170.496c4.506,0,8.141-3.635,8.141-8.141s-3.635-8.141-8.141-8.141s-8.141,3.635-8.141,8.141 C253.645,166.861,257.28,170.496,261.786,170.496z M261.786,186.214c-4.506,0-8.141,3.635-8.141,8.141 c0,4.506,3.635,8.141,8.141,8.141c4.506,0,8.141-3.635,8.141-8.141C269.926,189.901,266.291,186.214,261.786,186.214z M277.811,170.189c-4.506,0-8.141,3.635-8.141,8.141c0,4.506,3.635,8.141,8.141,8.141c4.506,0,8.141-3.635,8.141-8.141 C285.952,173.875,282.317,170.189,277.811,170.189z M245.76,170.189c-4.506,0-8.141,3.635-8.141,8.141 c0,4.506,3.635,8.141,8.141,8.141c4.506,0,8.141-3.635,8.141-8.141C253.952,173.875,250.266,170.189,245.76,170.189z"></path><path style="fill:#FEDE3A;" d="M137.626,159.795c0-4.506,3.635-8.141,8.141-8.141c4.506,0,8.141,3.635,8.141,8.141 s-3.635,8.141-8.141,8.141C141.261,167.936,137.626,164.301,137.626,159.795z M145.766,183.654c-4.506,0-8.141,3.635-8.141,8.141 s3.635,8.141,8.141,8.141c4.506,0,8.141-3.635,8.141-8.141C153.907,187.29,150.272,183.654,145.766,183.654z M161.792,167.629 c-4.506,0-8.141,3.635-8.141,8.141c0,4.506,3.635,8.141,8.141,8.141s8.141-3.635,8.141-8.141 C169.933,171.264,166.298,167.629,161.792,167.629z M129.741,167.629c-4.506,0-8.141,3.635-8.141,8.141 c0,4.506,3.635,8.141,8.141,8.141c4.506,0,8.141-3.635,8.141-8.141C137.882,171.264,134.246,167.629,129.741,167.629z M261.786,167.936c4.506,0,8.141-3.635,8.141-8.141s-3.635-8.141-8.141-8.141s-8.141,3.635-8.141,8.141 C253.645,164.301,257.28,167.936,261.786,167.936z M261.786,183.654c-4.506,0-8.141,3.635-8.141,8.141s3.635,8.141,8.141,8.141 c4.506,0,8.141-3.635,8.141-8.141C269.926,187.29,266.291,183.654,261.786,183.654z M277.811,167.629 c-4.506,0-8.141,3.635-8.141,8.141c0,4.506,3.635,8.141,8.141,8.141c4.506,0,8.141-3.635,8.141-8.141 C285.952,171.264,282.317,167.629,277.811,167.629z M245.76,167.629c-4.506,0-8.141,3.635-8.141,8.141 c0,4.506,3.635,8.141,8.141,8.141c4.506,0,8.141-3.635,8.141-8.141C253.952,171.264,250.266,167.629,245.76,167.629z"></path><path style="fill:#FEDE3A;" d="M228.096,163.277h-48.589c-1.331,0-2.406-1.075-2.406-2.406v-11.418 c0-1.331,1.075-2.406,2.406-2.406h48.589c1.331,0,2.406,1.075,2.406,2.406v11.418 C230.451,162.202,229.376,163.277,228.096,163.277z"></path><path style="fill:#E7AD27;" d="M228.096,147.098h-48.589c-1.331,0-2.406,1.075-2.406,2.406v1.843c0-1.331,1.075-2.406,2.406-2.406 h48.589c1.331,0,2.406,1.075,2.406,2.406v-1.843C230.451,148.122,229.376,147.098,228.096,147.098z"></path><path style="fill:#A72973;" d="M225.024,210.637h-42.547c-3.021,0-5.427-2.406-5.427-5.427v-10.752h53.402v10.752 C230.451,208.23,228.045,210.637,225.024,210.637z"></path><rect x="177.101" y="167.68" style="fill:#FEDE3A;" width="53.402" height="36.25"></rect><path style="fill:#177BC0;" d="M255.13,126.157H152.422c-4.506,0-8.141,3.635-8.141,8.141l0,0h119.04l0,0 C263.322,129.843,259.635,126.157,255.13,126.157z"></path><g><circle style="fill:#177BC0;" cx="124.877" cy="156.826" r="1.741"></circle><circle style="fill:#177BC0;" cx="282.675" cy="156.826" r="1.741"></circle></g><g><path style="fill:#EF5A9D;" d="M194.406,178.944h-8.038c-1.075,0-1.946-0.87-1.946-1.946l0,0c0-1.075,0.87-1.946,1.946-1.946 h8.038c1.075,0,1.946,0.87,1.946,1.946l0,0C196.352,178.074,195.482,178.944,194.406,178.944z"></path><path style="fill:#EF5A9D;" d="M221.184,178.944h-8.038c-1.075,0-1.946-0.87-1.946-1.946l0,0c0-1.075,0.87-1.946,1.946-1.946 h8.038c1.075,0,1.946,0.87,1.946,1.946l0,0C223.13,178.074,222.259,178.944,221.184,178.944z"></path><path style="fill:#EF5A9D;" d="M194.406,188.058h-8.038c-1.075,0-1.946-0.87-1.946-1.946l0,0c0-1.075,0.87-1.946,1.946-1.946 h8.038c1.075,0,1.946,0.87,1.946,1.946l0,0C196.352,187.187,195.482,188.058,194.406,188.058z"></path><path style="fill:#EF5A9D;" d="M221.184,188.058h-8.038c-1.075,0-1.946-0.87-1.946-1.946l0,0c0-1.075,0.87-1.946,1.946-1.946 h8.038c1.075,0,1.946,0.87,1.946,1.946l0,0C223.13,187.187,222.259,188.058,221.184,188.058z"></path></g><rect x="177.101" y="194.458" style="fill:#EF5A9D;" width="53.402" height="5.888"></rect></g></g></svg>