<svg width="191" height="30" viewBox="0 0 191 30" fill="none" xmlns="http://www.w3.org/2000/svg">
<mask id="mask0_403_23321" style="mask-type:luminance" maskUnits="userSpaceOnUse" x="106" y="1" width="25" height="28">
<path d="M107.16 1.43734C106.487 1.48023 106.216 1.97481 106.406 2.9196C106.568 3.74652 107.118 4.63675 108.167 4.78469C111.346 5.23228 116.314 5.96232 119.778 6.62088C121.206 6.89166 121.251 7.36522 120.386 8.44336C117.704 11.7805 113.12 17.3597 108.131 22.9485C106.441 24.8422 106.639 26.4394 107.314 27.6675C107.72 28.4046 108.529 28.5362 108.975 28.1548C115.735 22.3685 124.982 13.8878 129.516 8.00627C131.919 4.88914 131.319 1.81462 127.121 1.44872C123.969 1.17211 120.526 1.07991 117.21 1.09479C113.508 1.11113 109.964 1.26081 107.16 1.43763" fill="white"/>
</mask>
<g mask="url(#mask0_403_23321)">
<path d="M131.901 1.04001L106.213 1.15161L106.333 28.5542L132.021 28.4426L131.901 1.04001Z" fill="url(#paint0_linear_403_23321)"/>
</g>
<path d="M190.57 1.5085C190.261 2.46759 189.992 3.30968 189.666 4.26206C189.429 4.95826 188.951 5.37288 188.192 5.41986C186.916 5.4254 182.127 5.49455 180.727 5.50068C179.457 5.57392 178.723 6.18346 178.49 7.43258C178.139 9.31109 177.826 11.1972 177.495 13.0806C177 15.9039 176.52 18.7302 175.999 21.5497C175.691 23.2131 176.238 23.9201 177.927 23.9192C178.545 23.9192 179.165 23.9297 179.781 23.8965C181.163 23.8227 182.074 23.0958 182.371 21.7495C182.662 20.26 182.823 19.2644 183.051 18.0235C183.099 17.7684 183.005 17.6827 182.759 17.6879C182.33 17.6964 181.7 17.7072 181.272 17.6891C180.277 17.6485 180.154 17.3042 180.166 16.3279C180.177 15.4563 180.202 14.5836 180.19 13.7121C180.186 13.3751 180.329 13.2686 180.633 13.2671C181.845 13.2618 187.4 13.2782 188.048 13.2756C188.695 13.2726 189.062 13.7194 188.979 14.4188C188.882 15.215 188.735 16.0049 188.602 16.7959C188.246 18.8997 187.888 21.0023 187.525 23.1049C187.266 24.6181 186.987 26.1286 186.741 27.6444C186.689 27.959 186.59 28.0775 186.257 28.0684C185.485 28.0465 184.713 28.0777 183.94 28.0655C182.973 28.0512 182.695 27.7752 182.604 26.826C182.58 26.5753 182.552 26.2664 182.519 25.9524C182.499 25.7668 182.23 25.7347 182.107 25.9358C181.253 27.3363 179.519 28.275 178.291 28.3812C177.064 28.4874 175.887 28.4594 174.689 28.3917C173.324 28.3129 172.049 27.9377 171.125 26.8237C170.45 26.0096 170.214 25.0397 170.138 24.0202C170.042 22.7127 170.248 21.4306 170.469 20.1497C171.074 16.6349 171.68 13.1197 172.274 9.60229C172.527 8.10223 172.796 6.61179 173.445 5.21473C174.482 2.98055 176.243 1.66752 178.645 1.23393C179.619 1.05711 180.621 1.00488 181.612 0.964903C182.795 0.917342 183.982 0.943894 185.166 0.938642C186.866 0.932515 188.376 0.923178 190.076 0.918217C190.565 0.917342 190.721 1.04135 190.57 1.50879M21.4528 5.3262C21.7514 7.49094 21.2881 9.61921 20.4151 11.6243C19.8639 12.8907 18.7588 13.9184 17.4131 14.1868C17.123 14.2451 16.9085 14.2449 16.9284 14.506C16.944 14.6942 17.0424 14.6913 17.3613 14.7879C18.4338 15.112 19.2359 15.761 19.6655 16.8204C19.9875 17.615 20.0816 18.4515 19.9922 19.2875C19.8044 21.051 19.5738 22.8163 18.9777 24.5008C18.1082 26.9596 16.3037 28.3021 13.76 28.7232C11.7834 29.0514 9.78835 28.8947 7.79973 28.9432C7.45746 28.9513 7.11371 28.9461 6.77143 28.9478C4.93432 28.956 3.09868 28.956 1.26186 28.9802C0.915484 28.9843 0.834017 28.9012 0.89497 28.5548C1.29263 26.3034 1.67008 24.0482 2.05309 21.7945C2.70717 17.9423 3.36008 14.0905 4.01709 10.2384C4.46633 7.59686 4.92348 4.95796 5.37096 2.31645C5.41902 2.03371 5.45126 1.81604 5.8498 1.81837C9.52109 1.83675 13.1941 1.87994 16.8654 1.86389C19.4724 1.85222 21.1609 3.22156 21.4528 5.32678M12.4659 16.9033C11.2656 16.9086 10.2001 16.9121 9.06775 16.901C8.75595 16.8983 8.61001 16.9879 8.5555 17.3144C8.17015 19.5857 7.76838 21.854 7.36427 24.1226C7.30712 24.4465 7.41555 24.5442 7.7379 24.5402C8.83829 24.5247 10.6818 24.5046 11.8019 24.4599C12.7156 24.424 13.3512 23.8761 13.5511 22.9744C13.7978 21.8604 14.109 19.9466 14.2986 18.8194C14.5427 17.378 13.6665 16.8978 12.4665 16.903M14.1961 6.22868C13.0983 6.20972 11.9994 6.2424 10.9031 6.22343C10.5714 6.21818 10.4495 6.35415 10.3988 6.64623C10.07 8.52706 9.73882 10.4094 9.40094 12.289C9.35142 12.5598 9.43054 12.6549 9.70893 12.6538C10.4562 12.6506 12.0521 12.6316 12.7968 12.6281C14.0876 12.6222 14.8548 11.997 15.1649 10.7513C15.3952 9.82725 15.5362 8.87808 15.6639 7.93328C15.8187 6.78803 15.3448 6.24765 14.1964 6.22868M89.4375 1.45335C87.618 1.48924 85.797 1.46823 83.9804 1.55985C82.4742 1.63688 81.3638 2.41244 80.7106 3.78412C80.4097 4.41554 80.1263 5.05746 79.8625 5.70464C79.2249 7.27648 78.402 9.17687 77.8722 10.4368C77.5873 11.1158 77.3875 11.65 77.277 12.0206C77.0381 12.828 76.8339 13.5997 76.6466 14.3537C76.5983 14.5463 76.2944 14.5051 76.2868 14.3061C76.2806 14.1179 76.4096 12.296 76.4192 12.0641C76.4406 11.5187 76.4559 11.0107 76.4069 10.1873C76.2859 8.14249 76.0931 6.09942 75.8774 4.06044C75.7341 2.69635 75.1615 1.86856 73.7179 1.65993C73.4474 1.61996 73.174 1.5721 72.9024 1.56948C71.2546 1.55693 69.6068 1.56014 67.9587 1.5476C67.6724 1.54497 67.5848 1.6646 67.5408 1.93275C67.3606 3.02636 63.7385 23.9569 63.0282 28.0652C62.9464 28.5379 63.0642 28.6978 63.5533 28.6969C65.0294 28.6917 67.4857 28.6928 67.8374 28.6911C68.189 28.6896 68.4161 28.5534 68.485 28.1443C69.0051 25.0289 69.5121 21.9124 70.0938 18.8086C70.6078 16.0673 70.9404 13.3097 71.1107 10.529C71.1752 9.47157 71.273 8.41677 71.3762 7.36168C71.3891 7.23417 71.5283 7.1195 71.6103 6.99987C71.7387 7.11074 71.8802 7.21083 71.9916 7.33775C72.037 7.39202 72.015 7.50203 72.0232 7.5884C72.0792 8.16642 72.1364 8.74444 72.192 9.32247C72.4268 11.7711 72.6574 14.2201 72.8962 16.6675C73.0301 18.0451 73.1696 19.4211 73.3182 20.7974C73.3877 21.4312 73.6365 21.6623 74.2894 21.6964C74.7518 21.7209 75.5656 21.7134 76.0427 21.7113C76.7727 21.7081 77.1091 21.5713 77.4097 20.8616C78.007 19.445 83.2923 7.41128 83.3635 7.24788C83.4928 6.94881 84.0927 7.04042 83.9968 7.38823C83.6522 8.65632 83.3234 9.9285 82.9882 11.1995C82.6409 12.5195 82.2233 13.8279 81.9695 15.166C81.4215 18.0678 80.9606 20.9839 80.4618 23.895C80.1943 25.4572 79.8177 27.6196 79.7488 28.034C79.6814 28.4495 79.8247 28.6199 80.1858 28.6184C80.5468 28.617 83.1218 28.6015 84.7696 28.61C85.1133 28.6123 85.1588 28.3523 85.203 28.0947C85.6599 25.4199 89.3241 4.08086 89.7189 1.82829C89.7657 1.5616 89.7318 1.44897 89.4375 1.45422M63.5135 7.7763C63.148 10.1018 61.5163 19.6563 61.0718 22.1067C60.8769 23.186 60.5311 24.2207 60.0212 25.199C58.9566 27.2424 57.249 28.441 55.006 28.8078C53.6258 29.0342 48.4705 29.0716 47.3109 28.9665C46.7058 28.9122 46.0936 28.7413 45.5251 28.5207C43.8237 27.8583 43.0304 26.5222 42.8654 24.768C42.7382 23.429 42.9281 22.1084 43.1567 20.7942C43.5529 18.5084 45.0126 10.0677 45.3835 8.14132C45.6672 6.66898 46.1874 5.27951 47.1237 4.08145C48.3794 2.47226 50.1089 1.67014 52.0864 1.49566C53.8415 1.34072 57.85 1.40112 59.5266 1.57823C61.3484 1.77169 62.9054 2.86442 63.3866 4.72337C63.6468 5.72769 63.6726 6.75798 63.5135 7.77601M57.739 7.52041C57.8474 6.46678 57.3176 5.90422 56.2503 5.86512C55.2739 5.82836 54.2933 5.83011 53.3169 5.87942C52.3554 5.92873 51.6729 6.42651 51.3573 7.35497C51.2533 7.66047 51.1721 7.97793 51.1176 8.29655C50.6215 11.1371 50.1332 13.979 49.645 16.8199C49.3127 18.7538 48.9789 20.6877 48.6519 22.622C48.4482 23.8285 49.0308 24.5343 50.2657 24.5714C50.6947 24.5854 52.3079 24.5728 52.6863 24.5673C54.15 24.5437 54.9281 23.9248 55.1906 22.5044C55.5224 20.7096 55.8154 18.9073 56.1269 17.1084C56.4827 15.0575 56.8452 13.008 57.196 10.9573C57.392 9.81325 57.62 8.67266 57.7387 7.52099M42.3353 4.81703C42.5955 5.82135 42.6201 6.85164 42.4607 7.86967C42.0967 10.1952 40.4636 19.7497 40.019 22.2001C39.8242 23.2794 39.4795 24.314 38.9699 25.2924C37.9053 27.3357 36.1962 28.5344 33.9547 28.9012C32.5745 29.1276 27.4177 29.1649 26.2584 29.0599C25.6533 29.0056 25.0411 28.8346 24.4726 28.614C22.7712 27.9517 21.9779 26.6156 21.8129 24.8614C21.6869 23.5224 21.8771 22.2018 22.1042 20.8876C22.5004 18.6018 23.9598 10.1611 24.3311 8.2347C24.615 6.76235 25.1349 5.37288 26.0715 4.17482C27.3284 2.56563 29.0567 1.76352 31.0342 1.58903C32.7907 1.43409 36.7979 1.49449 38.4744 1.6716C40.2963 1.86506 41.8544 2.95779 42.3356 4.81674M36.6865 7.61378C36.7964 6.56015 36.2651 5.99759 35.1978 5.95849C34.2211 5.92173 33.2409 5.92348 32.2644 5.97279C31.3041 6.0221 30.6216 6.51988 30.3048 7.44834C30.2011 7.75384 30.1211 8.0713 30.0654 8.38992C29.5705 11.2304 29.0822 14.0724 28.5929 16.9132C28.2605 18.8472 27.9268 20.7811 27.5997 22.7153C27.3961 23.9219 27.9786 24.6277 29.2135 24.6648C29.6426 24.6788 31.2558 24.6662 31.6341 24.6607C33.0979 24.637 33.8759 24.0182 34.1385 22.5978C34.4702 20.803 34.7632 19.0006 35.0748 17.2018C35.4305 15.1508 35.793 13.1014 36.1435 11.0507C36.3395 9.90662 36.5675 8.76603 36.6862 7.61436M143.334 2.38472C143.531 4.75138 144.543 17.2893 145.414 27.8779C145.444 28.24 145.363 28.3491 144.991 28.3439C143.686 28.3298 142.382 28.3555 141.076 28.3506C139.94 28.3462 139.509 27.9132 139.452 26.7688C139.389 25.5395 139.321 24.3117 139.252 23.0824C139.221 22.5374 139.165 22.4767 138.596 22.4764C136.896 22.4772 135.196 22.4968 133.497 22.4924C133.059 22.4904 132.806 22.6599 132.647 23.0731C132.139 24.3963 131.597 25.7067 131.077 27.0247C130.706 27.968 129.995 28.401 129.002 28.4054C126.254 28.4203 123.507 28.4323 120.761 28.4404C120.556 28.4413 120.35 28.4078 120.145 28.394C119.136 28.3307 118.667 27.7585 118.42 26.8073C118.161 25.8097 117.808 24.6414 117.629 23.865C117.477 23.2052 117.494 22.9809 118.016 22.5251C118.536 22.069 121.276 19.7225 121.649 19.4027C122.023 19.0826 122.385 19.2443 122.551 19.8337C122.886 21.0087 123.456 23.0063 123.876 24.4477C124.193 25.5258 124.509 26.6054 124.825 27.6838C124.867 27.6824 124.908 27.6795 124.951 27.678C125.319 26.8169 125.689 25.9571 126.053 25.096C129.22 17.6263 135.519 2.80402 135.786 2.17405C136.054 1.54555 136.632 1.20475 137.359 1.20154C138.921 1.19716 140.484 1.17849 142.045 1.18491C142.899 1.18899 143.264 1.53505 143.335 2.38501M138.773 10.227C138.794 9.1684 138.945 7.28961 138.95 7.07602C138.956 6.86244 138.595 6.79912 138.55 7.01533C138.506 7.23184 137.334 10.8342 136.692 12.6514C136.118 14.2775 135.47 15.8759 134.857 17.4875C134.635 18.0666 134.686 18.1448 135.284 18.1434C136.281 18.1402 137.276 18.1358 138.272 18.1303C138.98 18.1259 139.019 18.0766 138.989 17.3497C138.919 15.6761 138.853 14.0027 138.778 12.1315C138.776 11.6287 138.758 10.9273 138.772 10.2267M170.185 1.09358C168.549 1.10087 166.94 1.10408 165.856 1.10875C165.298 1.11109 165.076 1.38682 164.984 1.931C164.558 4.4558 164.153 6.71771 163.726 9.24223C163.411 11.1099 163.019 12.9698 162.808 14.8503C162.537 17.2429 162.417 19.7278 162.301 22.1344C162.285 22.4662 161.794 22.5041 161.76 22.1154C161.02 13.6616 160.602 8.5542 160.128 3.05203C160.009 1.67831 159.383 1.13735 158.282 1.14231C156.779 1.14902 153.108 1.19162 152.215 1.17032C151.844 1.16011 151.72 1.28791 151.668 1.64884C151.521 2.68001 151.331 3.70359 151.155 4.73096C150.642 7.70686 147.578 25.6253 147.22 27.7466C147.122 28.324 147.134 28.3266 147.703 28.324C148.991 28.3196 150.278 28.3126 151.566 28.3068C152.689 28.3018 152.674 28.2992 152.856 27.1989C153.198 25.1281 154.678 16.9964 154.929 14.9831C155.185 12.9339 155.274 10.8645 155.433 8.80397C155.478 8.20698 155.502 7.60853 155.562 7.01416C155.594 6.70487 156.136 6.7396 156.156 7.03663C156.253 8.48592 156.41 10.2188 156.519 11.6667C156.732 14.4605 157.436 23.8997 157.603 25.8223C157.731 27.2914 158.447 27.9978 159.921 28.1597C160.447 28.2172 160.98 28.2546 161.511 28.2587C162.816 28.2674 164.12 28.2511 165.426 28.2452C166.016 28.2426 166.022 28.2438 166.124 27.652C166.407 25.9862 169.979 5.02157 170.588 1.55956C170.659 1.1639 170.543 1.09154 170.185 1.093M104.415 12.519C104.068 12.5204 99.4369 12.5408 96.9471 12.5508C96.4501 12.5516 96.4381 12.5438 96.5202 12.0684C96.8396 10.2007 97.183 8.33711 97.4811 6.46678C97.5511 6.02093 97.7439 5.93632 98.1527 5.93719C100.147 5.94303 102.662 5.9226 104.136 5.91589C105.611 5.90947 104.256 1.38974 103.646 1.39237C103.034 1.39499 96.4378 1.42417 93.253 1.43847C92.579 1.44139 92.5843 1.44284 92.4703 2.12912C92.1951 3.78032 89.6529 18.6021 89.3092 20.6553C89.0574 22.1554 88.7817 23.6526 89.1629 25.1789C89.4478 26.3224 90.0726 27.1858 91.1261 27.7381C92.3639 28.3865 93.7192 28.525 95.0728 28.5391C98.0768 28.5694 101.082 28.5218 104.087 28.5245C104.446 28.5256 104.518 28.3885 104.517 28.0769C104.513 27.2902 104.53 26.505 104.545 25.7184C104.575 24.2778 104.301 23.9899 102.869 23.9936C100.928 23.9969 98.9891 24.0135 97.048 24.0141C96.6723 24.0144 96.2925 23.9922 95.9194 23.9394C95.2129 23.839 94.8287 23.4016 94.8108 22.6867C94.8026 22.3643 94.8146 22.0355 94.8651 21.7169C95.101 20.2501 95.3741 18.79 95.59 17.3206C95.6548 16.8838 95.8233 16.7676 96.2497 16.77C98.2758 16.7808 100.302 16.7667 102.328 16.7457C103.224 16.7379 103.737 16.3693 104.024 15.5272C104.3 14.7129 104.742 13.3502 104.83 13.0167C104.918 12.6821 104.763 12.5169 104.415 12.5187M114.787 7.48685C113.647 7.21083 112.187 7.00366 111.151 6.90329C110.58 6.84756 110.318 6.99724 110.247 7.43929C109.849 9.9107 108.994 15.0794 108.568 17.6783C108.438 18.4708 108.998 18.3395 109.335 18.0013C111.469 15.859 114.014 13.2826 114.412 12.7503C114.81 12.2181 114.933 11.9628 115.067 11.3229C115.202 10.6831 115.354 9.42751 115.484 8.64961C115.614 7.87318 115.387 7.63275 114.787 7.48685Z" fill="white"/>
<defs>
<linearGradient id="paint0_linear_403_23321" x1="106.457" y1="14.9206" x2="131.016" y2="14.8129" gradientUnits="userSpaceOnUse">
<stop stop-color="#438CCB"/>
<stop offset="0.7" stop-color="#E7216B"/>
<stop offset="1" stop-color="#E7216B"/>
</linearGradient>
</defs>
</svg>
