<svg width="78" height="24" viewBox="0 0 78 24" fill="none" xmlns="http://www.w3.org/2000/svg">
<path fill-rule="evenodd" clip-rule="evenodd" d="M27.0957 23.2401L31.0428 0.889791H37.4397L33.4927 23.2401H27.0957ZM56.4962 1.4096C55.2713 1.01977 53.3658 0.5 50.7798 0.5C44.5189 0.5 40.1635 3.4887 40.0274 7.90678C40.0274 11.0254 43.294 12.8446 45.6078 13.8842C48.1938 15.0537 49.0104 15.7034 49.0104 16.7429C49.0104 18.1723 46.9688 18.822 45.1994 18.822C42.6134 18.822 41.2524 18.5621 39.2108 17.6525L38.258 17.3927L37.4414 22.3305C38.9386 22.9802 41.6607 23.5 44.5189 23.5C51.1881 23.5 55.5435 20.5113 55.6796 15.9633C55.6796 13.3644 53.9102 11.4153 50.2354 9.85593C48.0577 8.81638 46.6966 8.16667 46.6966 7.12712C46.6966 6.21751 47.9216 5.17797 50.3715 5.17797C52.4131 5.17797 53.9102 5.5678 55.1352 5.95763L55.6796 6.21751L56.4962 1.4096ZM72.9646 0.889791H67.9287C66.4316 0.889791 65.3427 1.27962 64.6622 2.709L55.1348 23.2401H61.804C61.804 23.2401 62.8928 20.5113 63.165 19.8615H71.3314C71.6036 20.6412 72.148 23.2401 72.148 23.2401H78.0005L72.9646 0.889791ZM65.0703 15.3135C65.6147 14.0141 67.5202 9.07625 67.5202 9.07625C67.5202 9.07625 68.0646 7.77681 68.473 6.86721L68.8813 8.81636C68.8813 8.81636 70.1062 14.144 70.3784 15.3135H65.0703ZM21.6522 0.889791L15.5274 16.0932L14.8469 12.9745C13.6219 9.46606 10.0832 5.56776 6 3.6186L11.7164 23.2401H18.3856L28.4575 0.889791H21.6522Z" fill="white"/>
<path fill-rule="evenodd" clip-rule="evenodd" d="M10.4 0.5H0.136842L0 1.04409C8.07368 2.94839 13.4105 7.57312 15.6 13.15L13.2737 2.54032C13 1.04409 11.7684 0.5 10.4 0.5Z" fill="#F7A707"/>
</svg>
