<!-- icon666.com - MILLIONS vector ICONS FREE --><svg version="1.1" id="Capa_1" xmlns="http://www.w3.org/2000/svg" xmlns:xlink="http://www.w3.org/1999/xlink" x="0px" y="0px" viewBox="0 0 512 512" style="enable-background:new 0 0 512 512;" xml:space="preserve"><circle style="fill:#523659;" cx="256" cy="256" r="256"></circle><path style="fill:#EF4487;" d="M215.398,72.179l-51.475-51.475c-13.183-13.183-34.558-13.183-47.741,0l0,0 c-13.183,13.183-13.183,34.558,0,47.741c-13.183-13.183-34.558-13.183-47.741,0s-13.183,34.558,0,47.741 c-13.183-13.183-34.558-13.183-47.741,0l0,0c-13.183,13.183-13.183,34.558,0,47.741l51.475,51.475"></path><path style="fill:#EA9B28;" d="M393.115,196.438c0.425,0.425,0.851,0.851,1.258,1.276c52.568,53.238,79.26,122.596,80.038,192.197 c-10.3,16.817-22.727,32.683-37.271,47.228c-14.545,14.545-30.411,26.972-47.228,37.272c-25.071,15.368-52.242,26.03-80.219,31.959 L17.319,213.997c-9.884-9.884-9.123-26.121,1.629-35.046c31.615-26.238,67.71-44.395,105.543-54.46 c92.293-24.555,194.84-0.969,267.42,70.76C392.318,195.641,392.717,196.04,393.115,196.438z"></path><path style="fill:#FFC34E;" d="M213.987,17.329l292.382,292.382c-5.937,27.968-16.591,55.13-31.959,80.201 c-10.3,16.817-22.727,32.683-37.271,47.228s-30.411,26.972-47.228,37.272c-70.163-0.778-140.073-27.895-193.473-81.296 c-72.652-72.652-96.628-175.824-71.946-268.623c10.064-37.833,28.221-73.929,54.46-105.543 C187.875,8.196,204.103,7.445,213.987,17.329z"></path><g><path style="fill:#EA9B28;" d="M211.048,218.881c-1.123,0-2.265-0.183-3.388-0.567c-5.46-1.87-8.369-7.813-6.498-13.271 l32.39-94.529c1.87-5.46,7.814-8.368,13.271-6.498c5.46,1.87,8.369,7.813,6.498,13.272l-32.39,94.529 C219.447,216.153,215.391,218.881,211.048,218.881z"></path><path style="fill:#EA9B28;" d="M178.997,312.421c-1.123,0-2.265-0.183-3.388-0.567c-5.46-1.87-8.369-7.813-6.498-13.271 l18.957-55.325c1.87-5.46,7.815-8.369,13.271-6.498c5.46,1.87,8.369,7.813,6.498,13.271l-18.957,55.325 C187.396,309.693,183.34,312.421,178.997,312.421z"></path><path style="fill:#EA9B28;" d="M313.091,247.893c-1.123,0-2.265-0.183-3.388-0.567c-5.46-1.87-8.369-7.813-6.498-13.271 l13.752-40.136c1.869-5.46,7.814-8.37,13.271-6.498c5.46,1.87,8.369,7.813,6.498,13.271l-13.752,40.136 C321.49,245.164,317.433,247.893,313.091,247.893z"></path><path style="fill:#EA9B28;" d="M262.403,395.826c-1.123,0-2.265-0.183-3.388-0.567c-5.46-1.87-8.369-7.813-6.498-13.271 l39.937-116.556c1.87-5.46,7.814-8.369,13.271-6.498c5.46,1.87,8.369,7.813,6.498,13.271l-39.937,116.556 C270.801,393.098,266.745,395.826,262.403,395.826z"></path><path style="fill:#EA9B28;" d="M388.053,355.942c-1.123,0-2.265-0.183-3.388-0.567c-5.46-1.87-8.369-7.813-6.498-13.271 l22.196-64.78c1.87-5.46,7.813-8.37,13.271-6.498c5.46,1.87,8.369,7.813,6.498,13.271l-22.196,64.779 C396.451,353.214,392.394,355.942,388.053,355.942z"></path><path style="fill:#EA9B28;" d="M362.792,429.666c-1.123,0-2.265-0.183-3.388-0.567c-5.46-1.87-8.369-7.813-6.498-13.271 l9.841-28.723c1.87-5.461,7.815-8.369,13.271-6.498c5.46,1.87,8.369,7.813,6.498,13.271l-9.841,28.723 C371.19,426.938,367.133,429.666,362.792,429.666z"></path></g></svg>