<svg width="35" height="35" viewBox="0 0 35 35" fill="none" xmlns="http://www.w3.org/2000/svg">
<path d="M29.6304 5.80713L18.0161 1.84912C17.876 1.80127 17.688 1.77734 17.5 1.77734C17.312 1.77734 17.124 1.80127 16.9839 1.84912L5.36963 5.80713C5.08594 5.90283 4.85352 6.23096 4.85352 6.53174V23.02C4.85352 23.3208 5.04834 23.7173 5.28418 23.9053L17.0659 33.0859C17.1855 33.1782 17.3394 33.2261 17.4966 33.2261C17.6538 33.2261 17.811 33.1782 17.9272 33.0859L29.709 23.9053C29.9448 23.7207 30.1396 23.3242 30.1396 23.02V6.53174C30.1465 6.23096 29.9141 5.90625 29.6304 5.80713ZM23.7378 11.645L16.4712 21.6494C16.4201 21.7193 16.3532 21.7762 16.276 21.8154C16.1988 21.8546 16.1135 21.8751 16.0269 21.8751C15.9403 21.8751 15.8549 21.8546 15.7777 21.8154C15.7005 21.7762 15.6336 21.7193 15.5825 21.6494L11.2622 15.7021C11.1323 15.521 11.2622 15.2681 11.4844 15.2681H13.3711C13.5454 15.2681 13.7129 15.3535 13.8154 15.4937L16.0269 18.5356L21.1846 11.4331C21.2871 11.293 21.4512 11.2075 21.6289 11.2075H23.5156C23.7378 11.2109 23.8677 11.4639 23.7378 11.645Z" fill="white"/>
</svg>
