<!-- icon666.com - MILLIONS vector ICONS FREE --><svg version="1.1" id="Capa_1" xmlns="http://www.w3.org/2000/svg" xmlns:xlink="http://www.w3.org/1999/xlink" x="0px" y="0px" viewBox="0 0 512 512" style="enable-background:new 0 0 512 512;" xml:space="preserve"><circle style="fill:#FFDD3B;" cx="256" cy="256" r="256"></circle><path style="fill:#F3C000;" d="M193.725,34.954L193.725,34.954c-0.033,0.05-106.959,165.34-106.958,224.403 c0,29.538,11.979,56.269,31.341,75.616l-0.014,0.014l56.212,56.212v82.735l33.521,33.521C223.43,510.426,239.53,512,256,512 c125.538,0,229.959-90.366,251.793-209.596L317.429,112.041c0,0-7.373,11.4-17.849,28.769L193.725,34.954z"></path><rect x="174.301" y="331.816" style="fill:#8D4E14;" width="40.277" height="142.115"></rect><rect x="193.727" y="331.816" style="fill:#68390A;" width="20.86" height="142.115"></rect><path style="fill:#6FBE41;" d="M300.683,259.356c0,59.072-47.887,106.958-106.958,106.958S86.767,318.427,86.767,259.356 S193.725,34.954,193.725,34.954S300.683,200.284,300.683,259.356z"></path><path style="fill:#008246;" d="M193.725,34.954v331.36c59.072,0,106.958-47.887,106.958-106.958 C300.683,200.284,193.725,34.954,193.725,34.954z"></path><rect x="301.417" y="356.774" style="fill:#8D4E14;" width="33.21" height="117.168"></rect><rect x="317.43" y="356.774" style="fill:#68390A;" width="17.197" height="117.168"></rect><path style="fill:#6FBE41;" d="M405.605,297.036c0,48.698-39.477,88.175-88.175,88.175s-88.175-39.477-88.175-88.175 S317.43,112.04,317.43,112.04S405.605,248.338,405.605,297.036z"></path><path style="fill:#008F4E;" d="M317.429,112.041v273.172c48.698,0,88.175-39.477,88.175-88.175 C405.605,248.338,317.429,112.041,317.429,112.041z"></path></svg>