<svg xmlns="http://www.w3.org/2000/svg" xmlns:xlink="http://www.w3.org/1999/xlink">
 
  <symbol id="arrow" viewBox="0 0 39 8" xmlns="http://www.w3.org/2000/svg">
    <path d="M38.3536 4.35355C38.5488 4.15829 38.5488 3.84171 38.3536 3.64645L35.1716 0.464466C34.9763 0.269204 34.6597 0.269204 34.4645 0.464466C34.2692 0.659728 34.2692 0.976311 34.4645 1.17157L37.2929 4L34.4645 6.82843C34.2692 7.02369 34.2692 7.34027 34.4645 7.53553C34.6597 7.7308 34.9763 7.7308 35.1716 7.53553L38.3536 4.35355ZM0 4.5H38V3.5H0V4.5Z"/>
  </symbol>

  <symbol id="geo" viewBox="0 0 23 24" xmlns="http://www.w3.org/2000/svg">
    <path fill-rule="evenodd" clip-rule="evenodd" d="M11.5002 20.625L12.1787 21.3016C12.0896 21.391 11.9838 21.4619 11.8673 21.5103C11.7508 21.5587 11.6259 21.5836 11.4997 21.5836C11.3735 21.5836 11.2486 21.5587 11.1321 21.5103C11.0156 21.4619 10.9097 21.391 10.8207 21.3016L10.815 21.2949L10.7987 21.2786L10.7392 21.2182C10.4014 20.8702 10.0692 20.5169 9.74258 20.1583C8.92263 19.2598 8.1375 18.3302 7.38891 17.3714C6.53408 16.2694 5.66008 15.0235 4.99595 13.793C4.3462 12.5865 3.8335 11.2793 3.8335 10.0833C3.8335 5.73345 7.27583 2.41666 11.5002 2.41666C15.7245 2.41666 19.1668 5.73345 19.1668 10.0833C19.1668 11.2793 18.6541 12.5865 18.0044 13.7921C17.3403 15.0245 16.4672 16.2694 15.6114 17.3714C14.5643 18.7128 13.4459 19.9969 12.2611 21.2182L12.2017 21.2786L12.1854 21.2949L12.1796 21.3006L11.5002 20.625ZM11.5002 12.9583C12.2627 12.9583 12.9939 12.6554 13.5331 12.1163C14.0723 11.5771 14.3752 10.8458 14.3752 10.0833C14.3752 9.32083 14.0723 8.58956 13.5331 8.05039C12.9939 7.51122 12.2627 7.20832 11.5002 7.20832C10.7377 7.20832 10.0064 7.51122 9.46723 8.05039C8.92807 8.58956 8.62516 9.32083 8.62516 10.0833C8.62516 10.8458 8.92807 11.5771 9.46723 12.1163C10.0064 12.6554 10.7377 12.9583 11.5002 12.9583Z"/>
  </symbol>

  <symbol id="phone" viewBox="0 0 23 24" xmlns="http://www.w3.org/2000/svg">
    <g clip-path="url(#clip0_3_501)">
    <path fill-rule="evenodd" clip-rule="evenodd" d="M15.8624 21.7108C14.4824 21.66 10.5714 21.1195 6.4755 17.0245C2.38054 12.9286 1.841 9.01862 1.78925 7.63766C1.71258 5.53316 3.3245 3.48903 5.18654 2.69074C5.41077 2.59392 5.65632 2.55706 5.89909 2.58377C6.14187 2.61048 6.37352 2.69986 6.57133 2.84312C8.10467 3.96053 9.16267 5.65103 10.0712 6.98024C10.2711 7.27228 10.3565 7.62764 10.3113 7.97863C10.266 8.32962 10.0932 8.6517 9.82583 8.88349L7.95612 10.2721C7.86579 10.3373 7.80221 10.4331 7.77718 10.5417C7.75215 10.6503 7.76738 10.7643 7.82004 10.8625C8.24362 11.632 8.99687 12.7782 9.85938 13.6407C10.7228 14.5032 11.9227 15.3062 12.7459 15.7777C12.8491 15.8357 12.9706 15.8519 13.0854 15.823C13.2002 15.7941 13.2995 15.7224 13.363 15.6225L14.5801 13.77C14.8039 13.4728 15.134 13.2737 15.5013 13.2144C15.8685 13.1551 16.2445 13.2402 16.5505 13.4519C17.8988 14.3853 19.4724 15.4251 20.6243 16.9C20.7792 17.0992 20.8778 17.3364 20.9096 17.5867C20.9415 17.8371 20.9055 18.0914 20.8055 18.3231C20.0033 20.1947 17.9736 21.7884 15.8624 21.7108Z"/>
    </g>
    <defs>
    <clipPath id="clip0_3_501">
    <rect width="23" height="23" transform="translate(0 0.5)"/>
    </clipPath>
    </defs>
  </symbol>

  <symbol id="mail" viewBox="0 0 23 24" xmlns="http://www.w3.org/2000/svg">
    <path d="M21.0832 8.74931V16.5521C21.0832 17.3476 20.7788 18.113 20.2325 18.6913C19.6861 19.2695 18.9392 19.6168 18.1449 19.6619L17.9686 19.6666H5.03109C4.23554 19.6667 3.47013 19.3623 2.89187 18.816C2.31361 18.2696 1.96634 17.5227 1.9213 16.7284L1.9165 16.5521V8.74931L11.1663 13.5946C11.2692 13.6485 11.3837 13.6767 11.4998 13.6767C11.616 13.6767 11.7304 13.6485 11.8333 13.5946L21.0832 8.74931ZM5.03109 4.33331H17.9686C18.7406 4.33322 19.4851 4.61985 20.0578 5.13761C20.6304 5.65537 20.9904 6.36736 21.0678 7.13548L11.4998 12.1476L1.93184 7.13548C2.00613 6.39786 2.34109 5.71093 2.87651 5.19817C3.41193 4.68541 4.1127 4.38045 4.85284 4.3381L5.03109 4.33331Z"/>
  </symbol>

</svg>
