<svg width="35" height="35" viewBox="0 0 35 35" fill="none" xmlns="http://www.w3.org/2000/svg">
<g clip-path="url(#clip0_1_105)">
<path d="M17.5 0C12.8587 0 8.40752 1.84374 5.12563 5.12563C1.84374 8.40752 0 12.8587 0 17.5C0 22.1413 1.84374 26.5925 5.12563 29.8744C8.40752 33.1563 12.8587 35 17.5 35C22.1413 35 26.5925 33.1563 29.8744 29.8744C33.1563 26.5925 35 22.1413 35 17.5C35 12.8587 33.1563 8.40752 29.8744 5.12563C26.5925 1.84374 22.1413 0 17.5 0ZM24.0625 8.75C25.27 8.75 26.25 10.22 26.25 12.0312C26.25 13.8425 25.27 15.3125 24.0625 15.3125C22.855 15.3125 21.875 13.8425 21.875 12.0312C21.875 10.22 22.855 8.75 24.0625 8.75ZM10.9375 8.75C12.145 8.75 13.125 10.22 13.125 12.0312C13.125 13.8425 12.145 15.3125 10.9375 15.3125C9.73 15.3125 8.75 13.8425 8.75 12.0312C8.75 10.22 9.73 8.75 10.9375 8.75ZM17.5 30.625C11.7972 30.625 7.06125 25.8431 6.5625 19.7466C9.76719 21.5972 13.5363 22.6537 17.5 22.6537C21.4638 22.6537 25.2328 21.6016 28.4375 19.7509C27.9387 25.8497 23.2028 30.625 17.5 30.625Z" fill="white"/>
</g>
<defs>
<clipPath id="clip0_1_105">
<rect width="35" height="35" fill="white"/>
</clipPath>
</defs>
</svg>
