<svg width="24" height="24" viewBox="0 0 24 24" fill="none" xmlns="http://www.w3.org/2000/svg">
<g clip-path="url(#clip0_6_133)">
<path d="M11.4855 9.37051C11.6505 8.87551 12.3495 8.87551 12.5145 9.37051L13.482 12.276C13.695 12.9147 14.0538 13.495 14.53 13.971C15.0062 14.4469 15.5867 14.8054 16.2255 15.018L19.1295 15.9855C19.6245 16.1505 19.6245 16.8495 19.1295 17.0145L16.224 17.982C15.5853 18.195 15.005 18.5538 14.529 19.03C14.0531 19.5062 13.6946 20.0867 13.482 20.7255L12.5145 23.6295C12.4789 23.7379 12.41 23.8323 12.3176 23.8992C12.2252 23.9661 12.1141 24.0022 12 24.0022C11.8859 24.0022 11.7748 23.9661 11.6824 23.8992C11.59 23.8323 11.5211 23.7379 11.4855 23.6295L10.518 20.724C10.3052 20.0855 9.94662 19.5053 9.47069 19.0293C8.99476 18.5534 8.41454 18.1948 7.776 17.982L4.8705 17.0145C4.76211 16.9789 4.66772 16.91 4.6008 16.8177C4.53388 16.7253 4.49785 16.6141 4.49785 16.5C4.49785 16.3859 4.53388 16.2748 4.6008 16.1824C4.66772 16.09 4.76211 16.0211 4.8705 15.9855L7.776 15.018C8.41454 14.8052 8.99476 14.4466 9.47069 13.9707C9.94662 13.4948 10.3052 12.9146 10.518 12.276L11.4855 9.37051ZM5.691 1.72201C5.71251 1.65705 5.75394 1.60053 5.80941 1.56046C5.86489 1.5204 5.93157 1.49883 6 1.49883C6.06843 1.49883 6.13511 1.5204 6.19058 1.56046C6.24606 1.60053 6.28749 1.65705 6.309 1.72201L6.8895 3.46501C7.149 4.24201 7.758 4.85101 8.535 5.11051L10.278 5.69101C10.343 5.71252 10.3995 5.75396 10.4396 5.80943C10.4796 5.8649 10.5012 5.93159 10.5012 6.00001C10.5012 6.06844 10.4796 6.13513 10.4396 6.1906C10.3995 6.24607 10.343 6.2875 10.278 6.30901L8.535 6.88951C8.15179 7.01719 7.80358 7.23236 7.51796 7.51797C7.23235 7.80359 7.01717 8.1518 6.8895 8.53501L6.309 10.278C6.28749 10.343 6.24606 10.3995 6.19058 10.4396C6.13511 10.4796 6.06843 10.5012 6 10.5012C5.93157 10.5012 5.86489 10.4796 5.80941 10.4396C5.75394 10.3995 5.71251 10.343 5.691 10.278L5.1105 8.53501C4.98282 8.1518 4.76765 7.80359 4.48204 7.51797C4.19642 7.23236 3.84821 7.01719 3.465 6.88951L1.722 6.30901C1.65704 6.2875 1.60051 6.24607 1.56045 6.1906C1.52038 6.13513 1.49882 6.06844 1.49882 6.00001C1.49882 5.93159 1.52038 5.8649 1.56045 5.80943C1.60051 5.75396 1.65704 5.71252 1.722 5.69101L3.465 5.11051C3.84821 4.98284 4.19642 4.76767 4.48204 4.48205C4.76765 4.19644 4.98282 3.84823 5.1105 3.46501L5.691 1.72201ZM16.2945 0.148512C16.3093 0.105802 16.3371 0.0687661 16.3739 0.0425547C16.4107 0.0163432 16.4548 0.0022583 16.5 0.0022583C16.5452 0.0022583 16.5893 0.0163432 16.6261 0.0425547C16.6629 0.0687661 16.6907 0.105802 16.7055 0.148512L17.0925 1.30951C17.265 1.82851 17.6715 2.23501 18.1905 2.40751L19.3515 2.79451C19.3942 2.80932 19.4312 2.83707 19.4575 2.8739C19.4837 2.91073 19.4978 2.95481 19.4978 3.00001C19.4978 3.04522 19.4837 3.0893 19.4575 3.12613C19.4312 3.16296 19.3942 3.19071 19.3515 3.20551L18.1905 3.59251C17.9347 3.6776 17.7023 3.82114 17.5117 4.01174C17.3211 4.20234 17.1776 4.43475 17.0925 4.69051L16.7055 5.85151C16.6907 5.89422 16.6629 5.93126 16.6261 5.95747C16.5893 5.98368 16.5452 5.99777 16.5 5.99777C16.4548 5.99777 16.4107 5.98368 16.3739 5.95747C16.3371 5.93126 16.3093 5.89422 16.2945 5.85151L15.9075 4.69051C15.8224 4.43475 15.6789 4.20234 15.4883 4.01174C15.2977 3.82114 15.0653 3.6776 14.8095 3.59251L13.65 3.20551C13.6073 3.19071 13.5703 3.16296 13.544 3.12613C13.5178 3.0893 13.5037 3.04522 13.5037 3.00001C13.5037 2.95481 13.5178 2.91073 13.544 2.8739C13.5703 2.83707 13.6073 2.80932 13.65 2.79451L14.811 2.40751C15.33 2.23501 15.7365 1.82851 15.909 1.30951L16.2945 0.150012V0.148512Z" fill="white"/>
</g>
<defs>
<clipPath id="clip0_6_133">
<rect width="24" height="24" fill="white"/>
</clipPath>
</defs>
</svg>
