<svg width="32" height="32" viewBox="0 0 32 32" fill="none" xmlns="http://www.w3.org/2000/svg">
<path fill-rule="evenodd" clip-rule="evenodd" d="M7.74857 1.79886C6.1704 1.79886 4.65683 2.42563 3.54068 3.54135C2.42453 4.65707 1.79718 6.1704 1.79657 7.74857V23.6206C1.79657 25.1991 2.42365 26.7131 3.53987 27.8293C4.65609 28.9455 6.17 29.5726 7.74857 29.5726H23.6206C25.1987 29.572 26.7121 28.9446 27.8278 27.8285C28.9435 26.7123 29.5703 25.1987 29.5703 23.6206V7.74857C29.5697 6.1708 28.9426 4.65781 27.827 3.54216C26.7113 2.4265 25.1983 1.79946 23.6206 1.79886H7.74857ZM25.3326 7.75772C25.3326 8.21237 25.152 8.64841 24.8305 8.9699C24.509 9.29139 24.0729 9.472 23.6183 9.472C23.1636 9.472 22.7276 9.29139 22.4061 8.9699C22.0846 8.64841 21.904 8.21237 21.904 7.75772C21.904 7.30306 22.0846 6.86702 22.4061 6.54553C22.7276 6.22404 23.1636 6.04343 23.6183 6.04343C24.0729 6.04343 24.509 6.22404 24.8305 6.54553C25.152 6.86702 25.3326 7.30306 25.3326 7.75772ZM15.6869 10.9303C14.4259 10.9303 13.2167 11.4312 12.3251 12.3228C11.4335 13.2144 10.9326 14.4237 10.9326 15.6846C10.9326 16.9455 11.4335 18.1548 12.3251 19.0464C13.2167 19.938 14.4259 20.4389 15.6869 20.4389C16.9478 20.4389 18.157 19.938 19.0486 19.0464C19.9402 18.1548 20.4411 16.9455 20.4411 15.6846C20.4411 14.4237 19.9402 13.2144 19.0486 12.3228C18.157 11.4312 16.9478 10.9303 15.6869 10.9303ZM8.64457 15.6846C8.64457 13.8174 9.38628 12.0268 10.7065 10.7065C12.0268 9.38628 13.8174 8.64457 15.6846 8.64457C17.5517 8.64457 19.3423 9.38628 20.6626 10.7065C21.9829 12.0268 22.7246 13.8174 22.7246 15.6846C22.7246 17.5517 21.9829 19.3424 20.6626 20.6626C19.3423 21.9829 17.5517 22.7246 15.6846 22.7246C13.8174 22.7246 12.0268 21.9829 10.7065 20.6626C9.38628 19.3424 8.64457 17.5517 8.64457 15.6846Z" fill="#131313"/>
</svg>
