<!-- icon666.com - MILLIONS vector ICONS FREE --><svg version="1.1" id="Layer_1" xmlns="http://www.w3.org/2000/svg" xmlns:xlink="http://www.w3.org/1999/xlink" x="0px" y="0px" viewBox="0 0 496 496" style="enable-background:new 0 0 496 496;" xml:space="preserve"><polygon style="fill:#EFE7E4;" points="8,8 8,416 56,416 56,488 448,488 448,416 488,416 488,8 "></polygon><g style="opacity:0.4;"><rect x="8" y="8" style="fill:#FFFFFF;" width="40" height="408"></rect></g><rect x="448" y="8" style="fill:#D8D1D0;" width="40" height="408"></rect><g><rect x="56" y="416" style="fill:#6D6E71;" width="48" height="72"></rect><rect x="400" y="416" style="fill:#6D6E71;" width="48" height="72"></rect></g><rect x="40" y="104" style="fill:#66ADDD;" width="416" height="256"></rect><rect x="424" y="104" style="fill:#5B9DC1;" width="32" height="256"></rect><g><polygon style="fill:#EFE7E4;" points="272,216 328,296 272,280 "></polygon><polygon style="fill:#EFE7E4;" points="224,216 168,296 224,280 "></polygon><path style="fill:#EFE7E4;" d="M265.6,191.464L248,168l-17.6,23.464c-4.152,5.536-6.4,12.28-6.4,19.2V296h48v-85.336 C272,203.744,269.752,197.008,265.6,191.464z"></path></g><rect x="224" y="256" style="fill:#FF6E6E;" width="48" height="16"></rect><path style="fill:#684621;" d="M464,368H32V96h432V368z M48,352h400V112H48V352z"></path><g><path style="fill:#6D6E71;" d="M40,8v48c0,8.84,7.16,16,16,16l0,0c8.84,0,16-7.16,16-16V8H40z"></path><path style="fill:#6D6E71;" d="M104,8v48c0,8.84,7.16,16,16,16l0,0c8.84,0,16-7.16,16-16V8H104z"></path><path style="fill:#6D6E71;" d="M168,8v48c0,8.84,7.16,16,16,16l0,0c8.84,0,16-7.16,16-16V8H168z"></path><path style="fill:#6D6E71;" d="M232,8v48c0,8.84,7.16,16,16,16l0,0c8.84,0,16-7.16,16-16V8H232z"></path><path style="fill:#6D6E71;" d="M296,8v48c0,8.84,7.16,16,16,16l0,0c8.84,0,16-7.16,16-16V8H296z"></path><path style="fill:#6D6E71;" d="M360,8v48c0,8.84,7.16,16,16,16l0,0c8.84,0,16-7.16,16-16V8H360z"></path><path style="fill:#6D6E71;" d="M424,8v48c0,8.84,7.16,16,16,16l0,0c8.84,0,16-7.16,16-16V8H424z"></path></g><g><path style="fill:#684621;" d="M440,80c-13.232,0-24-10.768-24-24V8h16v48c0,4.408,3.584,8,8,8s8-3.592,8-8V8h16v48 C464,69.232,453.232,80,440,80z"></path><path style="fill:#684621;" d="M56,80c-13.232,0-24-10.768-24-24V8h16v48c0,4.408,3.584,8,8,8s8-3.592,8-8V8h16v48 C80,69.232,69.232,80,56,80z"></path><path style="fill:#684621;" d="M120,80c-13.232,0-24-10.768-24-24V8h16v48c0,4.408,3.584,8,8,8s8-3.592,8-8V8h16v48 C144,69.232,133.232,80,120,80z"></path><path style="fill:#684621;" d="M184,80c-13.232,0-24-10.768-24-24V8h16v48c0,4.408,3.584,8,8,8s8-3.592,8-8V8h16v48 C208,69.232,197.232,80,184,80z"></path><path style="fill:#684621;" d="M248,80c-13.232,0-24-10.768-24-24V8h16v48c0,4.408,3.584,8,8,8c4.416,0,8-3.592,8-8V8h16v48 C272,69.232,261.232,80,248,80z"></path><path style="fill:#684621;" d="M312,80c-13.232,0-24-10.768-24-24V8h16v48c0,4.408,3.584,8,8,8s8-3.592,8-8V8h16v48 C336,69.232,325.232,80,312,80z"></path><path style="fill:#684621;" d="M376,80c-13.232,0-24-10.768-24-24V8h16v48c0,4.408,3.584,8,8,8s8-3.592,8-8V8h16v48 C400,69.232,389.232,80,376,80z"></path><path style="fill:#684621;" d="M456,496H48v-72H0V0h496v424h-40V496z M64,480h376v-72h40V16H16v392h48V480z"></path><path style="fill:#684621;" d="M280,304h-64v-93.336c0-8.608,2.84-17.128,8-24l24-32l24,32c5.16,6.872,8,15.4,8,24V304z M232,288 h32v-77.336c0-5.168-1.704-10.28-4.8-14.4L248,181.336l-11.2,14.936c-3.096,4.128-4.8,9.24-4.8,14.4V288z"></path><polygon style="fill:#684621;" points="160,306.608 160,248 176,248 176,285.392 221.808,272.312 226.192,287.688 "></polygon><rect x="147.167" y="247.998" transform="matrix(-0.5733 0.8194 -0.8194 -0.5733 518.1129 242.1628)" style="fill:#684621;" width="97.66" height="16.001"></rect><polygon style="fill:#684621;" points="336,306.608 269.808,287.688 274.192,272.312 320,285.392 320,248 336,248 "></polygon><rect x="292" y="207.126" transform="matrix(-0.8192 0.5735 -0.5735 -0.8192 692.5512 293.5819)" style="fill:#684621;" width="16" height="97.656"></rect><polygon style="fill:#684621;" points="408,488 392,488 392,408 448,408 448,424 408,424 "></polygon><polygon style="fill:#684621;" points="112,488 96,488 96,424 56,424 56,408 112,408 "></polygon></g></svg>