<!-- icon666.com - MILLIONS vector ICONS FREE --><svg viewBox="0 0 512 512" xmlns="http://www.w3.org/2000/svg"><path d="m196 271h-150c-24.902344 0-46 20.097656-46 45v151c0 24.898438 21.097656 45 46 45h150c24.902344 0 45-20.101562 45-45v-151c0-24.902344-20.097656-45-45-45zm0 0" fill="#697c86"></path><path d="m241 316v151c0 24.898438-20.097656 45-45 45h-75v-241h75c24.902344 0 45 20.097656 45 45zm0 0" fill="#465a61"></path><path d="m466 0h-150c-24.902344 0-45 21.097656-45 46v150c0 24.898438 20.097656 45 45 45h150c24.902344 0 46-20.101562 46-45v-150c0-24.902344-21.097656-46-46-46zm0 0" fill="#697c86"></path><path d="m512 46v150c0 24.898438-21.097656 45-46 45h-75v-241h75c24.902344 0 46 21.097656 46 46zm0 0" fill="#465a61"></path><path d="m196 0h-150c-24.902344 0-46 21.097656-46 46v150c0 24.898438 21.097656 45 46 45h150c24.902344 0 45-20.101562 45-45v-150c0-24.902344-20.097656-46-45-46zm0 0" fill="#ffa2c3"></path><path d="m241 46v150c0 24.898438-20.097656 45-45 45h-75v-241h75c24.902344 0 45 21.097656 45 46zm0 0" fill="#fa5e97"></path><path d="m466 271h-150c-24.902344 0-45 20.097656-45 45v151c0 24.898438 20.097656 45 45 45h150c24.902344 0 46-20.101562 46-45v-151c0-24.902344-21.097656-45-46-45zm0 0" fill="#ffa2c3"></path><path d="m512 316v151c0 24.898438-21.097656 45-46 45h-75v-241h75c24.902344 0 46 20.097656 46 45zm0 0" fill="#fa5e97"></path><path d="m91 76c0 8.285156-6.714844 15-15 15s-15-6.714844-15-15 6.714844-15 15-15 15 6.714844 15 15zm0 0" fill="#697c86"></path><path d="m181 76c0 8.285156-6.714844 15-15 15s-15-6.714844-15-15 6.714844-15 15-15 15 6.714844 15 15zm0 0" fill="#465a61"></path><path d="m136 121c0 8.398438-6.597656 15-15 15s-15-6.601562-15-15c0-8.402344 6.597656-15 15-15s15 6.597656 15 15zm0 0" fill="#697c86"></path><path d="m91 166c0 8.285156-6.714844 15-15 15s-15-6.714844-15-15 6.714844-15 15-15 15 6.714844 15 15zm0 0" fill="#697c86"></path><path d="m451 76c0 8.285156-6.714844 15-15 15s-15-6.714844-15-15 6.714844-15 15-15 15 6.714844 15 15zm0 0" fill="#f4d7af"></path><path d="m406 121c0 8.398438-6.597656 15-15 15s-15-6.601562-15-15c0-8.402344 6.597656-15 15-15s15 6.597656 15 15zm0 0" fill="#faecd8"></path><path d="m361 166c0 8.285156-6.714844 15-15 15s-15-6.714844-15-15 6.714844-15 15-15 15 6.714844 15 15zm0 0" fill="#faecd8"></path><path d="m181 166c0 8.285156-6.714844 15-15 15s-15-6.714844-15-15 6.714844-15 15-15 15 6.714844 15 15zm0 0" fill="#465a61"></path><path d="m361 391c0 8.285156-6.714844 15-15 15s-15-6.714844-15-15 6.714844-15 15-15 15 6.714844 15 15zm0 0" fill="#697c86"></path><path d="m451 391c0 8.285156-6.714844 15-15 15s-15-6.714844-15-15 6.714844-15 15-15 15 6.714844 15 15zm0 0" fill="#465a61"></path><path d="m91 346c0 8.285156-6.714844 15-15 15s-15-6.714844-15-15 6.714844-15 15-15 15 6.714844 15 15zm0 0" fill="#faecd8"></path><path d="m181 346c0 8.285156-6.714844 15-15 15s-15-6.714844-15-15 6.714844-15 15-15 15 6.714844 15 15zm0 0" fill="#f4d7af"></path><path d="m91 436c0 8.285156-6.714844 15-15 15s-15-6.714844-15-15 6.714844-15 15-15 15 6.714844 15 15zm0 0" fill="#faecd8"></path><path d="m181 436c0 8.285156-6.714844 15-15 15s-15-6.714844-15-15 6.714844-15 15-15 15 6.714844 15 15zm0 0" fill="#f4d7af"></path><path d="m406 121c0 8.398438-6.597656 15-15 15v-30c8.402344 0 15 6.597656 15 15zm0 0" fill="#f4d7af"></path><path d="m136 121c0 8.398438-6.597656 15-15 15v-30c8.402344 0 15 6.597656 15 15zm0 0" fill="#465a61"></path></svg>