<!-- icon666.com - MILLIONS vector ICONS FREE --><svg viewBox="-5 0 512 512.00142" xmlns="http://www.w3.org/2000/svg"><path d="m502.695312 372.351562h-55.855468v-200.523437c0-45.914063-18.953125-90.941406-52.019532-123.542969-32.152343-31.714844-73.894531-48.75-117.804687-48.2773435-91.144531 1.2304685-165.300781 76.3828125-165.300781 167.5468755v40.039062c-25.3125-18.339844-59.738282-18.90625-84.285156-.101562-16.011719 12.261718-25.945313 30.820312-27.273438 50.902343-1.332031 20.144531 6.03125 39.832031 20.273438 54.074219.503906.492188 50.230468 49.394531 77.210937 74.847656 8.945313 8.449219 14.074219 20.386719 14.074219 32.75v91.933594h335.125v-83.78125h55.855468zm-74.472656 121.019532h-297.890625v-37.234375h297.890625zm0-55.855469h-297.890625v-17.460937c0-17.457032-7.25-34.332032-19.910156-46.285157-26.839844-25.332031-76.4375-74.089843-76.882813-74.53125-10.378906-10.386719-15.78125-24.835937-14.804687-39.628906.976563-14.9375 8.089844-28.203125 20.015625-37.347656 20.21875-15.488281 49.792969-12.824219 68.804688 6.171875 1.359374 1.359375 2.996093 2.246094 4.707031 2.914062l32.527343 29.492188c1.777344 1.609375 4.019532 2.410156 6.257813 2.410156 2.53125 0 5.050781-1.023438 6.898437-3.050781 3.441407-3.808594 3.164063-9.699219-.644531-13.15625l-27.441406-24.882813c.25-1.023437.464844-2.066406.464844-3.15625v-51.449218c0-81.035157 65.917969-147.847657 146.933593-148.925782 38.613282-.707031 75.90625 14.707032 104.484376 42.90625 29.539062 29.136719 46.472656 69.335938 46.472656 110.292969v265.691406h.007812zm55.855469-27.925781h-37.238281v-18.617188h37.238281zm0 0"></path><path d="m257.933594 337.84375-16.683594-16.6875 16.683594-16.695312-13.164063-13.160157-16.691406 16.691407-16.691406-16.691407-13.164063 13.160157 16.691406 16.695312-16.691406 16.6875 13.164063 13.164062 16.691406-16.691406 16.691406 16.691406zm0 0"></path><path d="m347.167969 351.007812 13.164062-13.164062-16.679687-16.6875 16.679687-16.695312-13.164062-13.160157-16.691407 16.691407-16.6875-16.691407-13.164062 13.160157 16.6875 16.695312-16.6875 16.6875 13.164062 13.164062 16.6875-16.691406zm0 0"></path><path d="m207.535156 365.773438-16.695312 16.691406-16.6875-16.691406-13.164063 13.160156 16.691407 16.691406-16.691407 16.691406 13.164063 13.164063 16.6875-16.691407 16.695312 16.691407 13.160156-13.164063-16.679687-16.691406 16.679687-16.691406zm0 0"></path><path d="m300.625 365.773438-16.691406 16.691406-16.691406-16.691406-13.164063 13.160156 16.691406 16.691406-16.691406 16.691406 13.164063 13.164063 16.691406-16.691407 16.691406 16.691407 13.164062-13.164063-16.683593-16.691406 16.683593-16.691406zm0 0"></path><path d="m393.714844 365.773438-16.691406 16.691406-16.691407-16.691406-13.164062 13.160156 16.691406 16.691406-16.691406 16.691406 13.164062 13.164063 16.691407-16.691407 16.691406 16.691407 13.164062-13.164063-16.683594-16.691406 16.683594-16.691406zm0 0"></path></svg>