<!-- icon666.com - MILLIONS vector ICONS FREE --><svg version="1.1" id="Layer_1" xmlns="http://www.w3.org/2000/svg" xmlns:xlink="http://www.w3.org/1999/xlink" x="0px" y="0px" viewBox="0 0 512 512" style="enable-background:new 0 0 512 512;" xml:space="preserve"><g><g><path d="M503.467,0H8.533C3.821,0,0,3.821,0,8.533V51.2c0,4.713,3.821,8.533,8.533,8.533H25.6v443.733 c0,4.713,3.821,8.533,8.533,8.533h443.733c4.713,0,8.533-3.821,8.533-8.533V59.733h17.067c4.713,0,8.533-3.821,8.533-8.533V8.533 C512,3.821,508.179,0,503.467,0z M469.333,494.933H42.667v-435.2h426.667V494.933z M494.933,42.667h-17.067H34.133H17.067v-25.6 h477.867V42.667z"></path></g></g><g><g><path d="M162.133,76.8H68.267c-4.713,0-8.533,3.821-8.533,8.533v51.2c0,4.713,3.821,8.533,8.533,8.533h93.867 c4.713,0,8.533-3.821,8.533-8.533v-51.2C170.667,80.621,166.846,76.8,162.133,76.8z M153.6,128H76.8V93.867h76.8V128z"></path></g></g><g><g><path d="M443.733,76.8h-93.867c-4.713,0-8.533,3.821-8.533,8.533v51.2c0,4.713,3.821,8.533,8.533,8.533h93.867 c4.713,0,8.533-3.821,8.533-8.533v-51.2C452.267,80.621,448.446,76.8,443.733,76.8z M435.2,128h-76.8V93.867h76.8V128z"></path></g></g><g><g><path d="M162.133,247.467H68.267c-4.713,0-8.533,3.821-8.533,8.533v51.2c0,4.713,3.821,8.533,8.533,8.533h93.867 c4.713,0,8.533-3.821,8.533-8.533V256C170.667,251.287,166.846,247.467,162.133,247.467z M153.6,298.667H76.8v-34.133h76.8 V298.667z"></path></g></g><g><g><path d="M443.733,247.467h-93.867c-4.713,0-8.533,3.821-8.533,8.533v51.2c0,4.713,3.821,8.533,8.533,8.533h93.867 c4.713,0,8.533-3.821,8.533-8.533V256C452.267,251.287,448.446,247.467,443.733,247.467z M435.2,298.667h-76.8v-34.133h76.8 V298.667z"></path></g></g><g><g><path d="M162.133,162.133H68.267c-4.713,0-8.533,3.821-8.533,8.533v51.2c0,4.713,3.821,8.533,8.533,8.533h93.867 c4.713,0,8.533-3.821,8.533-8.533v-51.2C170.667,165.954,166.846,162.133,162.133,162.133z M153.6,213.333H76.8V179.2h76.8 V213.333z"></path></g></g><g><g><path d="M443.733,162.133h-93.867c-4.713,0-8.533,3.821-8.533,8.533v51.2c0,4.713,3.821,8.533,8.533,8.533h93.867 c4.713,0,8.533-3.821,8.533-8.533v-51.2C452.267,165.954,448.446,162.133,443.733,162.133z M435.2,213.333h-76.8V179.2h76.8 V213.333z"></path></g></g><g><g><path d="M162.133,332.8H68.267c-4.713,0-8.533,3.821-8.533,8.533v51.2c0,4.713,3.821,8.533,8.533,8.533h93.867 c4.713,0,8.533-3.821,8.533-8.533v-51.2C170.667,336.621,166.846,332.8,162.133,332.8z M153.6,384H76.8v-34.133h76.8V384z"></path></g></g><g><g><path d="M443.733,332.8h-93.867c-4.713,0-8.533,3.821-8.533,8.533v51.2c0,4.713,3.821,8.533,8.533,8.533h93.867 c4.713,0,8.533-3.821,8.533-8.533v-51.2C452.267,336.621,448.446,332.8,443.733,332.8z M435.2,384h-76.8v-34.133h76.8V384z"></path></g></g><g><g><path d="M162.133,418.133H68.267c-4.713,0-8.533,3.821-8.533,8.533v51.2c0,4.713,3.821,8.533,8.533,8.533h93.867 c4.713,0,8.533-3.821,8.533-8.533v-51.2C170.667,421.954,166.846,418.133,162.133,418.133z M153.6,469.333H76.8V435.2h76.8 V469.333z"></path></g></g><g><g><path d="M443.733,418.133h-93.867c-4.713,0-8.533,3.821-8.533,8.533v51.2c0,4.713,3.821,8.533,8.533,8.533h93.867 c4.713,0,8.533-3.821,8.533-8.533v-51.2C452.267,421.954,448.446,418.133,443.733,418.133z M435.2,469.333h-76.8V435.2h76.8 V469.333z"></path></g></g><g><g><path d="M196.267,85.333c-4.713,0-8.533,3.821-8.533,8.533v375.565c0,4.713,3.821,8.533,8.533,8.533s8.533-3.821,8.533-8.533 V93.867C204.8,89.154,200.979,85.333,196.267,85.333z"></path></g></g><g><g><path d="M281.6,85.333c-4.713,0-8.533,3.821-8.533,8.533v375.565c0,4.713,3.821,8.533,8.533,8.533s8.533-3.821,8.533-8.533V93.867 C290.133,89.154,286.313,85.333,281.6,85.333z"></path></g></g><g><g><path d="M230.4,85.333c-4.713,0-8.533,3.821-8.533,8.533v375.565c0,4.713,3.821,8.533,8.533,8.533s8.533-3.821,8.533-8.533V93.867 C238.933,89.154,235.113,85.333,230.4,85.333z"></path></g></g><g><g><path d="M315.733,85.333c-4.713,0-8.533,3.821-8.533,8.533v375.565c0,4.713,3.821,8.533,8.533,8.533s8.533-3.821,8.533-8.533 V93.867C324.267,89.154,320.446,85.333,315.733,85.333z"></path></g></g></svg>