<svg width="193" height="42" viewBox="0 0 193 42" fill="none" xmlns="http://www.w3.org/2000/svg">
<g clip-path="url(#clip0_272_539)">
<path d="M0.625 41.0515L1.53872 39.3066C2.37976 39.8324 3.34945 40.1102 4.29482 40.1061C5.24019 40.102 5.71082 39.8178 5.70877 39.3705C5.70379 38.2649 1.69022 38.8943 1.6788 36.3071C1.67088 34.531 3.18945 33.3598 5.63463 33.349C6.80418 33.3437 7.86853 33.5865 8.61433 34.0417L7.77182 35.7743C7.12038 35.3655 6.31626 35.1571 5.501 35.1606C4.53248 35.165 4.01408 35.5201 4.01613 35.9674C4.00939 37.0966 8.03439 36.4317 8.04582 38.9719C8.05373 40.7366 6.4997 41.9076 4.07826 41.9181C2.6605 41.9242 1.37168 41.5536 0.625 41.0515Z" fill="#E72279"/>
<path d="M19.0095 36.1007C19.0189 38.1823 17.4303 39.5417 14.9376 39.5528L13.2839 39.5601L12.8681 41.7146L10.5293 41.7248L12.1463 33.4843L15.643 33.4688C17.7927 33.4592 19.0019 34.4305 19.0095 36.1004V36.1007ZM16.6481 36.3111C16.6449 35.6172 16.1593 35.3018 15.3441 35.3053L14.1153 35.3109L13.642 37.7242L15.0358 37.7181C16.0632 37.7134 16.6519 37.2168 16.6478 36.3111H16.6481Z" fill="#E72279"/>
<path d="M21.4673 38.2183C21.4544 35.3606 23.5711 33.2693 26.6074 33.2559C29.1469 33.2445 30.7247 34.7312 30.7341 36.8603C30.747 39.7181 28.6297 41.8093 25.594 41.8227C23.0545 41.8341 21.4767 40.3474 21.4673 38.2183ZM28.3721 37.0118C28.3671 35.9182 27.6553 35.1799 26.4148 35.1855C24.7969 35.1928 23.8223 36.5146 23.829 38.0669C23.834 39.161 24.5458 39.8987 25.7863 39.8931C27.4048 39.8858 28.3788 38.5641 28.3721 37.0118Z" fill="#E72279"/>
<path d="M39.217 39.1279L40.6336 41.5917L38.1884 41.6025L36.9503 39.4206L35.769 39.4258L35.3417 41.6151L33.0029 41.6253L34.62 33.3847L38.1518 33.369C40.2664 33.3596 41.4872 34.331 41.4945 35.9775C41.5013 37.4942 40.6561 38.6272 39.217 39.1276V39.1279ZM37.8291 35.2057L36.6007 35.2113L36.1154 37.6246L37.5091 37.6185C38.5365 37.6138 39.137 37.1172 39.1329 36.2115C39.1297 35.5177 38.6324 35.2022 37.8288 35.2057H37.8291Z" fill="#E72279"/>
<path d="M46.5146 35.1796L43.9751 35.191L44.3449 33.3422L51.7511 33.3096L51.3813 35.1583L48.8534 35.1694L47.5945 41.5612L45.2557 41.5714L46.5146 35.1796Z" fill="#E72279"/>
<path d="M52.5076 40.8217L53.4213 39.0769C54.2624 39.6027 55.2324 39.8804 56.1769 39.8764C57.0748 39.8723 57.5932 39.5881 57.5911 39.1408C57.5861 38.0352 53.5726 38.6646 53.5611 36.0773C53.5532 34.3012 55.0718 33.13 57.517 33.1192C58.6865 33.114 59.7508 33.3567 60.4969 33.8119L59.6541 35.5445C59.0027 35.1357 58.1986 34.9274 57.3833 34.9309C56.4148 34.9353 55.8964 35.2904 55.8985 35.7377C55.8917 36.8669 59.9167 36.2019 59.9281 38.7422C59.9361 40.5069 58.382 41.6778 55.9606 41.6883C54.5428 41.6945 53.254 41.3239 52.5073 40.8217H52.5076Z" fill="#E72279"/>
<path d="M70.7401 38.8474C70.748 40.6349 69.0864 41.4659 66.9601 41.4752L62.4126 41.4953L64.0296 33.2548L68.2114 33.2364C70.0775 33.2282 71.0847 33.9177 71.0903 35.1528C71.0947 36.1408 70.5191 36.8373 69.623 37.2178C70.3331 37.5201 70.7372 38.0832 70.7404 38.8474H70.7401ZM68.4127 38.8109C68.4104 38.3169 68.008 38.1188 67.4413 38.1214L65.3741 38.1305L65.0509 39.8018L67.0826 39.7928C67.8976 39.7893 68.416 39.4695 68.413 38.8109H68.4127ZM66.0095 34.9282L65.6977 36.5172L67.3748 36.5099C68.2014 36.5061 68.6489 36.1752 68.6463 35.5637C68.6442 35.1164 68.2773 34.9182 67.6631 34.9209L66.0095 34.9282Z" fill="#E72279"/>
<path d="M73.7286 37.9871C73.7157 35.1294 75.8324 33.0381 78.8686 33.0247C81.4081 33.0133 82.9859 34.5 82.9953 36.6291C83.0082 39.4869 80.8909 41.5781 77.8553 41.5915C75.3157 41.6029 73.738 40.1162 73.7286 37.9871ZM80.6333 36.7806C80.6284 35.687 79.9165 34.9487 78.6761 34.9543C77.0582 34.9616 76.0835 36.2834 76.0902 37.8357C76.0952 38.9298 76.807 39.6675 78.0475 39.6619C79.666 39.6546 80.6401 38.3329 80.6333 36.7806Z" fill="#E72279"/>
<path d="M85.6153 37.9346C85.6024 35.0769 87.7191 32.9857 90.7553 32.9722C93.2949 32.9609 94.8726 34.4475 94.882 36.5766C94.8949 39.4344 92.7776 41.5256 89.742 41.539C87.2024 41.5504 85.6247 40.0637 85.6153 37.9346ZM92.5201 36.7281C92.5151 35.6345 91.8033 34.8963 90.5628 34.9018C88.9449 34.9091 87.9702 36.2309 87.977 37.7832C87.9819 38.8773 88.6938 39.615 89.9342 39.6094C91.5527 39.6021 92.5268 38.2804 92.5201 36.7281Z" fill="#E72279"/>
<path d="M102.647 36.8716L105.443 41.3046L102.832 41.3163L100.917 38.3605L99.8467 39.3298L99.454 41.3312L97.1504 41.3414L98.7674 33.1008L101.071 33.0906L100.413 36.4575L104.13 33.0772L106.882 33.0649L102.647 36.8716H102.647Z" fill="#E72279"/>
<mask id="mask0_272_539" style="mask-type:luminance" maskUnits="userSpaceOnUse" x="108" y="1" width="25" height="28">
<path d="M109.16 1.43734C108.487 1.48023 108.216 1.97481 108.406 2.9196C108.568 3.74652 109.118 4.63675 110.167 4.78469C113.346 5.23228 118.314 5.96232 121.778 6.62088C123.206 6.89166 123.251 7.36522 122.386 8.44336C119.704 11.7805 115.12 17.3597 110.131 22.9485C108.441 24.8422 108.639 26.4394 109.314 27.6675C109.72 28.4046 110.529 28.5362 110.975 28.1548C117.735 22.3685 126.982 13.8878 131.516 8.00627C133.919 4.88914 133.319 1.81462 129.121 1.44872C125.969 1.17211 122.526 1.07991 119.21 1.09479C115.508 1.11113 111.964 1.26081 109.16 1.43763" fill="white"/>
</mask>
<g mask="url(#mask0_272_539)">
<path d="M133.901 1.04001L108.213 1.15161L108.333 28.5542L134.021 28.4426L133.901 1.04001Z" fill="url(#paint0_linear_272_539)"/>
</g>
<path d="M192.57 1.5085C192.261 2.46759 191.992 3.30968 191.666 4.26206C191.429 4.95826 190.951 5.37288 190.192 5.41986C188.916 5.4254 184.127 5.49455 182.727 5.50068C181.457 5.57392 180.723 6.18346 180.49 7.43258C180.139 9.31109 179.826 11.1972 179.495 13.0806C179 15.9039 178.52 18.7302 177.999 21.5497C177.691 23.2131 178.238 23.9201 179.927 23.9192C180.545 23.9192 181.165 23.9297 181.781 23.8965C183.163 23.8227 184.074 23.0958 184.371 21.7495C184.662 20.26 184.823 19.2644 185.051 18.0235C185.099 17.7684 185.005 17.6827 184.759 17.6879C184.33 17.6964 183.7 17.7072 183.272 17.6891C182.277 17.6485 182.154 17.3042 182.166 16.3279C182.177 15.4563 182.202 14.5836 182.19 13.7121C182.186 13.3751 182.329 13.2686 182.633 13.2671C183.845 13.2618 189.4 13.2782 190.048 13.2756C190.695 13.2726 191.062 13.7194 190.979 14.4188C190.882 15.215 190.735 16.0049 190.602 16.7959C190.246 18.8997 189.888 21.0023 189.525 23.1049C189.266 24.6181 188.987 26.1286 188.741 27.6444C188.689 27.959 188.59 28.0775 188.257 28.0684C187.485 28.0465 186.713 28.0777 185.94 28.0655C184.973 28.0512 184.695 27.7752 184.604 26.826C184.58 26.5753 184.552 26.2664 184.519 25.9524C184.499 25.7668 184.23 25.7347 184.107 25.9358C183.253 27.3363 181.519 28.275 180.291 28.3812C179.064 28.4874 177.887 28.4594 176.689 28.3917C175.324 28.3129 174.049 27.9377 173.125 26.8237C172.45 26.0096 172.214 25.0397 172.138 24.0202C172.042 22.7127 172.248 21.4306 172.469 20.1497C173.074 16.6349 173.68 13.1197 174.274 9.60229C174.527 8.10223 174.796 6.61179 175.445 5.21473C176.482 2.98055 178.243 1.66752 180.645 1.23393C181.619 1.05711 182.621 1.00488 183.612 0.964903C184.795 0.917342 185.982 0.943894 187.166 0.938642C188.866 0.932515 190.376 0.923178 192.076 0.918217C192.565 0.917342 192.721 1.04135 192.57 1.50879M23.4528 5.3262C23.7514 7.49094 23.2881 9.61921 22.4151 11.6243C21.8639 12.8907 20.7588 13.9184 19.4131 14.1868C19.123 14.2451 18.9085 14.2449 18.9284 14.506C18.944 14.6942 19.0424 14.6913 19.3613 14.7879C20.4338 15.112 21.2359 15.761 21.6655 16.8204C21.9875 17.615 22.0816 18.4515 21.9922 19.2875C21.8044 21.051 21.5738 22.8163 20.9777 24.5008C20.1082 26.9596 18.3037 28.3021 15.76 28.7232C13.7834 29.0514 11.7883 28.8947 9.79973 28.9432C9.45746 28.9513 9.11371 28.9461 8.77143 28.9478C6.93432 28.956 5.09868 28.956 3.26186 28.9802C2.91548 28.9843 2.83402 28.9012 2.89497 28.5548C3.29263 26.3034 3.67008 24.0482 4.05309 21.7945C4.70717 17.9423 5.36008 14.0905 6.01709 10.2384C6.46633 7.59686 6.92348 4.95796 7.37096 2.31645C7.41902 2.03371 7.45126 1.81604 7.8498 1.81837C11.5211 1.83675 15.1941 1.87994 18.8654 1.86389C21.4724 1.85222 23.1609 3.22156 23.4528 5.32678M14.4659 16.9033C13.2656 16.9086 12.2001 16.9121 11.0677 16.901C10.7559 16.8983 10.61 16.9879 10.5555 17.3144C10.1701 19.5857 9.76838 21.854 9.36427 24.1226C9.30712 24.4465 9.41555 24.5442 9.7379 24.5402C10.8383 24.5247 12.6818 24.5046 13.8019 24.4599C14.7156 24.424 15.3512 23.8761 15.5511 22.9744C15.7978 21.8604 16.109 19.9466 16.2986 18.8194C16.5427 17.378 15.6665 16.8978 14.4665 16.903M16.1961 6.22868C15.0983 6.20972 13.9994 6.2424 12.9031 6.22343C12.5714 6.21818 12.4495 6.35415 12.3988 6.64623C12.07 8.52706 11.7388 10.4094 11.4009 12.289C11.3514 12.5598 11.4305 12.6549 11.7089 12.6538C12.4562 12.6506 14.0521 12.6316 14.7968 12.6281C16.0876 12.6222 16.8548 11.997 17.1649 10.7513C17.3952 9.82725 17.5362 8.87808 17.6639 7.93328C17.8187 6.78803 17.3448 6.24765 16.1964 6.22868M91.4375 1.45335C89.618 1.48924 87.797 1.46823 85.9804 1.55985C84.4742 1.63688 83.3638 2.41244 82.7106 3.78412C82.4097 4.41554 82.1263 5.05746 81.8625 5.70464C81.2249 7.27648 80.402 9.17687 79.8722 10.4368C79.5873 11.1158 79.3875 11.65 79.277 12.0206C79.0381 12.828 78.8339 13.5997 78.6466 14.3537C78.5983 14.5463 78.2944 14.5051 78.2868 14.3061C78.2806 14.1179 78.4096 12.296 78.4192 12.0641C78.4406 11.5187 78.4559 11.0107 78.4069 10.1873C78.2859 8.14249 78.0931 6.09942 77.8774 4.06044C77.7341 2.69635 77.1615 1.86856 75.7179 1.65993C75.4474 1.61996 75.174 1.5721 74.9024 1.56948C73.2546 1.55693 71.6068 1.56014 69.9587 1.5476C69.6724 1.54497 69.5848 1.6646 69.5408 1.93275C69.3606 3.02636 65.7385 23.9569 65.0282 28.0652C64.9464 28.5379 65.0642 28.6978 65.5533 28.6969C67.0294 28.6917 69.4857 28.6928 69.8374 28.6911C70.189 28.6896 70.4161 28.5534 70.485 28.1443C71.0051 25.0289 71.5121 21.9124 72.0938 18.8086C72.6078 16.0673 72.9404 13.3097 73.1107 10.529C73.1752 9.47157 73.273 8.41677 73.3762 7.36168C73.3891 7.23417 73.5283 7.1195 73.6103 6.99987C73.7387 7.11074 73.8802 7.21083 73.9916 7.33775C74.037 7.39202 74.015 7.50203 74.0232 7.5884C74.0792 8.16642 74.1364 8.74444 74.192 9.32247C74.4268 11.7711 74.6574 14.2201 74.8962 16.6675C75.0301 18.0451 75.1696 19.4211 75.3182 20.7974C75.3877 21.4312 75.6365 21.6623 76.2894 21.6964C76.7518 21.7209 77.5656 21.7134 78.0427 21.7113C78.7727 21.7081 79.1091 21.5713 79.4097 20.8616C80.007 19.445 85.2923 7.41128 85.3635 7.24788C85.4928 6.94881 86.0927 7.04042 85.9968 7.38823C85.6522 8.65632 85.3234 9.9285 84.9882 11.1995C84.6409 12.5195 84.2233 13.8279 83.9695 15.166C83.4215 18.0678 82.9606 20.9839 82.4618 23.895C82.1943 25.4572 81.8177 27.6196 81.7488 28.034C81.6814 28.4495 81.8247 28.6199 82.1858 28.6184C82.5468 28.617 85.1218 28.6015 86.7696 28.61C87.1133 28.6123 87.1588 28.3523 87.203 28.0947C87.6599 25.4199 91.3241 4.08086 91.7189 1.82829C91.7657 1.5616 91.7318 1.44897 91.4375 1.45422M65.5135 7.7763C65.148 10.1018 63.5163 19.6563 63.0718 22.1067C62.8769 23.186 62.5311 24.2207 62.0212 25.199C60.9566 27.2424 59.249 28.441 57.006 28.8078C55.6258 29.0342 50.4705 29.0716 49.3109 28.9665C48.7058 28.9122 48.0936 28.7413 47.5251 28.5207C45.8237 27.8583 45.0304 26.5222 44.8654 24.768C44.7382 23.429 44.9281 22.1084 45.1567 20.7942C45.5529 18.5084 47.0126 10.0677 47.3835 8.14132C47.6672 6.66898 48.1874 5.27951 49.1237 4.08145C50.3794 2.47226 52.1089 1.67014 54.0864 1.49566C55.8415 1.34072 59.85 1.40112 61.5266 1.57823C63.3484 1.77169 64.9054 2.86442 65.3866 4.72337C65.6468 5.72769 65.6726 6.75798 65.5135 7.77601M59.739 7.52041C59.8474 6.46678 59.3176 5.90422 58.2503 5.86512C57.2739 5.82836 56.2933 5.83011 55.3169 5.87942C54.3554 5.92873 53.6729 6.42651 53.3573 7.35497C53.2533 7.66047 53.1721 7.97793 53.1176 8.29655C52.6215 11.1371 52.1332 13.979 51.645 16.8199C51.3127 18.7538 50.9789 20.6877 50.6519 22.622C50.4482 23.8285 51.0308 24.5343 52.2657 24.5714C52.6947 24.5854 54.3079 24.5728 54.6863 24.5673C56.15 24.5437 56.9281 23.9248 57.1906 22.5044C57.5224 20.7096 57.8154 18.9073 58.1269 17.1084C58.4827 15.0575 58.8452 13.008 59.196 10.9573C59.392 9.81325 59.62 8.67266 59.7387 7.52099M44.3353 4.81703C44.5955 5.82135 44.6201 6.85164 44.4607 7.86967C44.0967 10.1952 42.4636 19.7497 42.019 22.2001C41.8242 23.2794 41.4795 24.314 40.9699 25.2924C39.9053 27.3357 38.1962 28.5344 35.9547 28.9012C34.5745 29.1276 29.4177 29.1649 28.2584 29.0599C27.6533 29.0056 27.0411 28.8346 26.4726 28.614C24.7712 27.9517 23.9779 26.6156 23.8129 24.8614C23.6869 23.5224 23.8771 22.2018 24.1042 20.8876C24.5004 18.6018 25.9598 10.1611 26.3311 8.2347C26.615 6.76235 27.1349 5.37288 28.0715 4.17482C29.3284 2.56563 31.0567 1.76352 33.0342 1.58903C34.7907 1.43409 38.7979 1.49449 40.4744 1.6716C42.2963 1.86506 43.8544 2.95779 44.3356 4.81674M38.6865 7.61378C38.7964 6.56015 38.2651 5.99759 37.1978 5.95849C36.2211 5.92173 35.2409 5.92348 34.2644 5.97279C33.3041 6.0221 32.6216 6.51988 32.3048 7.44834C32.2011 7.75384 32.1211 8.0713 32.0654 8.38992C31.5705 11.2304 31.0822 14.0724 30.5929 16.9132C30.2605 18.8472 29.9268 20.7811 29.5997 22.7153C29.3961 23.9219 29.9786 24.6277 31.2135 24.6648C31.6426 24.6788 33.2558 24.6662 33.6341 24.6607C35.0979 24.637 35.8759 24.0182 36.1385 22.5978C36.4702 20.803 36.7632 19.0006 37.0748 17.2018C37.4305 15.1508 37.793 13.1014 38.1435 11.0507C38.3395 9.90662 38.5675 8.76603 38.6862 7.61436M145.334 2.38472C145.531 4.75138 146.543 17.2893 147.414 27.8779C147.444 28.24 147.363 28.3491 146.991 28.3439C145.686 28.3298 144.382 28.3555 143.076 28.3506C141.94 28.3462 141.509 27.9132 141.452 26.7688C141.389 25.5395 141.321 24.3117 141.252 23.0824C141.221 22.5374 141.165 22.4767 140.596 22.4764C138.896 22.4772 137.196 22.4968 135.497 22.4924C135.059 22.4904 134.806 22.6599 134.647 23.0731C134.139 24.3963 133.597 25.7067 133.077 27.0247C132.706 27.968 131.995 28.401 131.002 28.4054C128.254 28.4203 125.507 28.4323 122.761 28.4404C122.556 28.4413 122.35 28.4078 122.145 28.394C121.136 28.3307 120.667 27.7585 120.42 26.8073C120.161 25.8097 119.808 24.6414 119.629 23.865C119.477 23.2052 119.494 22.9809 120.016 22.5251C120.536 22.069 123.276 19.7225 123.649 19.4027C124.023 19.0826 124.385 19.2443 124.551 19.8337C124.886 21.0087 125.456 23.0063 125.876 24.4477C126.193 25.5258 126.509 26.6054 126.825 27.6838C126.867 27.6824 126.908 27.6795 126.951 27.678C127.319 26.8169 127.689 25.9571 128.053 25.096C131.22 17.6263 137.519 2.80402 137.786 2.17405C138.054 1.54555 138.632 1.20475 139.359 1.20154C140.921 1.19716 142.484 1.17849 144.045 1.18491C144.899 1.18899 145.264 1.53505 145.335 2.38501M140.773 10.227C140.794 9.1684 140.945 7.28961 140.95 7.07602C140.956 6.86244 140.595 6.79912 140.55 7.01533C140.506 7.23184 139.334 10.8342 138.692 12.6514C138.118 14.2775 137.47 15.8759 136.857 17.4875C136.635 18.0666 136.686 18.1448 137.284 18.1434C138.281 18.1402 139.276 18.1358 140.272 18.1303C140.98 18.1259 141.019 18.0766 140.989 17.3497C140.919 15.6761 140.853 14.0027 140.778 12.1315C140.776 11.6287 140.758 10.9273 140.772 10.2267M172.185 1.09358C170.549 1.10087 168.94 1.10408 167.856 1.10875C167.298 1.11109 167.076 1.38682 166.984 1.931C166.558 4.4558 166.153 6.71771 165.726 9.24223C165.411 11.1099 165.019 12.9698 164.808 14.8503C164.537 17.2429 164.417 19.7278 164.301 22.1344C164.285 22.4662 163.794 22.5041 163.76 22.1154C163.02 13.6616 162.602 8.5542 162.128 3.05203C162.009 1.67831 161.383 1.13735 160.282 1.14231C158.779 1.14902 155.108 1.19162 154.215 1.17032C153.844 1.16011 153.72 1.28791 153.668 1.64884C153.521 2.68001 153.331 3.70359 153.155 4.73096C152.642 7.70686 149.578 25.6253 149.22 27.7466C149.122 28.324 149.134 28.3266 149.703 28.324C150.991 28.3196 152.278 28.3126 153.566 28.3068C154.689 28.3018 154.674 28.2992 154.856 27.1989C155.198 25.1281 156.678 16.9964 156.929 14.9831C157.185 12.9339 157.274 10.8645 157.433 8.80397C157.478 8.20698 157.502 7.60853 157.562 7.01416C157.594 6.70487 158.136 6.7396 158.156 7.03663C158.253 8.48592 158.41 10.2188 158.519 11.6667C158.732 14.4605 159.436 23.8997 159.603 25.8223C159.731 27.2914 160.447 27.9978 161.921 28.1597C162.447 28.2172 162.98 28.2546 163.511 28.2587C164.816 28.2674 166.12 28.2511 167.426 28.2452C168.016 28.2426 168.022 28.2438 168.124 27.652C168.407 25.9862 171.979 5.02157 172.588 1.55956C172.659 1.1639 172.543 1.09154 172.185 1.093M106.415 12.519C106.068 12.5204 101.437 12.5408 98.9471 12.5508C98.4501 12.5516 98.4381 12.5438 98.5202 12.0684C98.8396 10.2007 99.183 8.33711 99.4811 6.46678C99.5511 6.02093 99.7439 5.93632 100.153 5.93719C102.147 5.94303 104.662 5.9226 106.136 5.91589C107.611 5.90947 106.256 1.38974 105.646 1.39237C105.034 1.39499 98.4378 1.42417 95.253 1.43847C94.579 1.44139 94.5843 1.44284 94.4703 2.12912C94.1951 3.78032 91.6529 18.6021 91.3092 20.6553C91.0574 22.1554 90.7817 23.6526 91.1629 25.1789C91.4478 26.3224 92.0726 27.1858 93.1261 27.7381C94.3639 28.3865 95.7192 28.525 97.0728 28.5391C100.077 28.5694 103.082 28.5218 106.087 28.5245C106.446 28.5256 106.518 28.3885 106.517 28.0769C106.513 27.2902 106.53 26.505 106.545 25.7184C106.575 24.2778 106.301 23.9899 104.869 23.9936C102.928 23.9969 100.989 24.0135 99.048 24.0141C98.6723 24.0144 98.2925 23.9922 97.9194 23.9394C97.2129 23.839 96.8287 23.4016 96.8108 22.6867C96.8026 22.3643 96.8146 22.0355 96.8651 21.7169C97.101 20.2501 97.3741 18.79 97.59 17.3206C97.6548 16.8838 97.8233 16.7676 98.2497 16.77C100.276 16.7808 102.302 16.7667 104.328 16.7457C105.224 16.7379 105.737 16.3693 106.024 15.5272C106.3 14.7129 106.742 13.3502 106.83 13.0167C106.918 12.6821 106.763 12.5169 106.415 12.5187M116.787 7.48685C115.647 7.21083 114.187 7.00366 113.151 6.90329C112.58 6.84756 112.318 6.99724 112.247 7.43929C111.849 9.9107 110.994 15.0794 110.568 17.6783C110.438 18.4708 110.998 18.3395 111.335 18.0013C113.469 15.859 116.014 13.2826 116.412 12.7503C116.81 12.2181 116.933 11.9628 117.067 11.3229C117.202 10.6831 117.354 9.42751 117.484 8.64961C117.614 7.87318 117.387 7.63275 116.787 7.48685Z" fill="white"/>
</g>
<defs>
<linearGradient id="paint0_linear_272_539" x1="108.457" y1="14.9206" x2="133.016" y2="14.8129" gradientUnits="userSpaceOnUse">
<stop stop-color="#438CCB"/>
<stop offset="0.7" stop-color="#E7216B"/>
<stop offset="1" stop-color="#E7216B"/>
</linearGradient>
<clipPath id="clip0_272_539">
<rect width="192" height="41" fill="white" transform="translate(0.625 0.917969)"/>
</clipPath>
</defs>
</svg>
