<svg width="32" height="31" viewBox="0 0 32 31" fill="none" xmlns="http://www.w3.org/2000/svg">
<path fill-rule="evenodd" clip-rule="evenodd" d="M4.05973 15.0805C4.05973 21.3714 8.76799 25.6577 14.0565 26.5443C14.2004 26.5684 14.3379 26.6198 14.4613 26.6954C14.5847 26.7711 14.6914 26.8695 14.7755 26.9852C14.8596 27.1008 14.9194 27.2313 14.9514 27.3693C14.9834 27.5073 14.9871 27.6501 14.9621 27.7894C14.9372 27.9288 14.8842 28.062 14.8061 28.1815C14.728 28.3011 14.6264 28.4045 14.507 28.486C14.3877 28.5674 14.2529 28.6253 14.1105 28.6563C13.968 28.6874 13.8207 28.6909 13.6768 28.6667C7.46666 27.6251 1.83679 22.5535 1.83679 15.0805C1.83679 11.904 3.32799 9.40747 5.06879 7.51027C6.31679 6.1504 7.74399 5.04473 8.89173 4.19947H5.40159C5.11869 4.19947 4.84738 4.0906 4.64734 3.89681C4.44731 3.70302 4.33493 3.44019 4.33493 3.16613C4.33493 2.89208 4.44731 2.62925 4.64734 2.43546C4.84738 2.24167 5.11869 2.1328 5.40159 2.1328H11.8016C12.0845 2.1328 12.3558 2.24167 12.5558 2.43546C12.7559 2.62925 12.8683 2.89208 12.8683 3.16613V9.36613C12.8683 9.64019 12.7559 9.90302 12.5558 10.0968C12.3558 10.2906 12.0845 10.3995 11.8016 10.3995C11.5187 10.3995 11.2474 10.2906 11.0473 10.0968C10.8473 9.90302 10.7349 9.64019 10.7349 9.36613V5.55107L10.7328 5.5552C9.51253 6.44387 8.02346 7.533 6.73279 8.9404C5.20746 10.602 4.05973 12.6129 4.05973 15.0805ZM27.7568 15.9195C27.7568 9.69473 23.1488 5.43533 17.9285 4.48467C17.783 4.46075 17.6439 4.40901 17.5193 4.33245C17.3946 4.2559 17.287 4.15606 17.2026 4.03877C17.1182 3.92149 17.0588 3.78909 17.0278 3.64932C16.9968 3.50955 16.9948 3.36519 17.022 3.22468C17.0492 3.08416 17.105 2.9503 17.1862 2.8309C17.2674 2.7115 17.3723 2.60896 17.4948 2.52925C17.6173 2.44954 17.755 2.39427 17.8997 2.36665C18.0445 2.33904 18.1936 2.33963 18.3381 2.3684C24.4693 3.4844 29.9797 8.52707 29.9797 15.9195C29.9797 19.096 28.4885 21.5905 26.7477 23.4897C25.4997 24.8496 24.0725 25.9553 22.9248 26.8005H26.4149C26.6978 26.8005 26.9691 26.9094 27.1692 27.1032C27.3692 27.297 27.4816 27.5598 27.4816 27.8339C27.4816 28.1079 27.3692 28.3708 27.1692 28.5645C26.9691 28.7583 26.6978 28.8672 26.4149 28.8672H20.0149C19.732 28.8672 19.4607 28.7583 19.2607 28.5645C19.0606 28.3708 18.9483 28.1079 18.9483 27.8339V21.6339C18.9483 21.3598 19.0606 21.097 19.2607 20.9032C19.4607 20.7094 19.732 20.6005 20.0149 20.6005C20.2978 20.6005 20.5691 20.7094 20.7692 20.9032C20.9692 21.097 21.0816 21.3598 21.0816 21.6339V25.4469H21.0859C22.304 24.5541 23.7952 23.467 25.0837 22.0575C26.6091 20.398 27.7568 18.3892 27.7568 15.9195Z" fill="#9B93FF"/>
</svg>
