<svg width="24" height="24" viewBox="0 0 24 24" fill="none" xmlns="http://www.w3.org/2000/svg">
<g clip-path="url(#clip0_2_357)">
<path d="M12.0002 4.48001C11.2447 4.48001 10.5061 4.70405 9.8779 5.1238C9.2497 5.54354 8.76008 6.14015 8.47096 6.83816C8.18183 7.53617 8.10618 8.30425 8.25358 9.04526C8.40097 9.78626 8.76479 10.4669 9.29903 11.0012C9.83327 11.5354 10.5139 11.8992 11.2549 12.0466C11.9959 12.194 12.764 12.1184 13.462 11.8292C14.16 11.5401 14.7566 11.0505 15.1764 10.4223C15.5961 9.79409 15.8202 9.05554 15.8202 8.30001C15.8202 7.28688 15.4177 6.31525 14.7013 5.59886C13.9849 4.88247 13.0133 4.48001 12.0002 4.48001ZM12.0002 10.7867C11.5084 10.7867 11.0276 10.6408 10.6187 10.3676C10.2097 10.0944 9.89101 9.706 9.7028 9.25162C9.51459 8.79724 9.46534 8.29725 9.56129 7.81489C9.65724 7.33252 9.89407 6.88944 10.2418 6.54167C10.5896 6.19391 11.0327 5.95707 11.5151 5.86112C11.9974 5.76518 12.4974 5.81442 12.9518 6.00263C13.4062 6.19084 13.7945 6.50956 14.0678 6.91849C14.341 7.32742 14.4868 7.80819 14.4868 8.30001C14.4851 8.95836 14.2223 9.58914 13.7562 10.054C13.29 10.5189 12.6585 10.78 12.0002 10.78V10.7867Z" fill="#434650"/>
<path d="M11.9998 1.33334C9.92328 1.33508 7.93181 2.15847 6.46036 3.62367C4.9889 5.08888 4.15705 7.07683 4.14648 9.15334C4.14648 12.2667 5.89315 14.8733 7.17315 16.7733L7.40648 17.12C8.68 18.9658 10.0462 20.7458 11.4998 22.4533L12.0065 23.0467L12.5132 22.4533C13.9666 20.7457 15.3328 18.9656 16.6065 17.12L16.8398 16.7667C18.1132 14.8667 19.8598 12.2667 19.8598 9.15334C19.8492 7.07568 19.0165 5.08672 17.5436 3.62132C16.0707 2.15593 14.0775 1.33332 11.9998 1.33334ZM15.7265 16L15.4865 16.3533C14.3398 18.0733 12.8198 20 11.9998 20.9533C11.2132 20 9.65982 18.0733 8.51315 16.3533L8.27982 16C7.09982 14.24 5.47982 11.8333 5.47982 9.12668C5.47982 8.27046 5.64846 7.42262 5.97612 6.63158C6.30378 5.84054 6.78404 5.12178 7.38948 4.51634C7.99492 3.9109 8.71368 3.43064 9.50472 3.10298C10.2958 2.77532 11.1436 2.60668 11.9998 2.60668C12.856 2.60668 13.7039 2.77532 14.4949 3.10298C15.286 3.43064 16.0047 3.9109 16.6102 4.51634C17.2156 5.12178 17.6959 5.84054 18.0235 6.63158C18.3512 7.42262 18.5198 8.27046 18.5198 9.12668C18.5198 11.86 16.9065 14.2667 15.7265 16Z" fill="#434650"/>
</g>
<defs>
<clipPath id="clip0_2_357">
<rect width="24" height="24" fill="white"/>
</clipPath>
</defs>
</svg>
