<!-- icon666.com - MILLIONS vector ICONS FREE --><svg version="1.1" id="Layer_1" xmlns="http://www.w3.org/2000/svg" xmlns:xlink="http://www.w3.org/1999/xlink" x="0px" y="0px" viewBox="0 0 512.002 512.002" style="enable-background:new 0 0 512.002 512.002;" xml:space="preserve"><path style="fill:#E6563A;" d="M389.085,507.113l-70.729-70.718c-4.471-4.461-6.023-11.07-4.026-17.061l23.584-70.729 c1.66-4.971,5.568-8.877,10.538-10.538l70.718-23.573c5.98-1.986,12.589-0.445,17.061,4.026l70.729,70.729 c8.721,8.697,5.276,23.677-6.511,27.599l-62.827,20.935L416.685,500.6C412.765,512.383,397.793,515.851,389.085,507.113z"></path><path style="fill:#736056;" d="M117.966,116.921c6.484-6.54,6.437-17.089-0.103-23.573L28.565,4.832 c-6.54-6.484-17.089-6.437-23.571,0.103s-6.437,17.089,0.103,23.573l89.296,88.516C100.933,123.508,111.482,123.461,117.966,116.921 z"></path><path style="fill:#FF7E66;" d="M459.944,459.871c6.501-6.511,6.501-17.071-0.011-23.584L329.6,306.063 c-6.511-6.49-17.071-6.501-23.584,0.011c-6.501,6.511-6.501,17.071,0.011,23.584l130.332,130.224 C442.883,466.382,453.432,466.382,459.944,459.871z"></path><path style="fill:#736056;" d="M394.035,116.921c-6.484-6.54-6.437-17.089,0.103-23.573l89.296-88.516 c6.54-6.484,17.089-6.437,23.573,0.103c6.484,6.54,6.437,17.089-0.103,23.573l-89.296,88.516 C411.068,123.508,400.519,123.461,394.035,116.921z"></path><path style="fill:#665247;" d="M5.097,28.508l89.296,88.516c6.374,6.317,16.541,6.417,23.056,0.368L4.992,4.936 C-1.49,11.476-1.443,22.025,5.097,28.508z"></path><path style="fill:#D9472B;" d="M342.053,341.997c-1.857,1.825-3.293,4.076-4.14,6.61l-23.584,70.729 c-1.997,5.991-0.445,12.6,4.026,17.061l70.729,70.718c8.708,8.737,23.679,5.269,27.599-6.511l20.935-62.816l0.167-0.056 L342.053,341.997z"></path><path style="fill:#E6563A;" d="M459.935,459.879L306.077,306.019c-0.019,0.019-0.041,0.034-0.06,0.054 c-6.501,6.511-6.501,17.071,0.011,23.584l130.332,130.224C442.881,466.38,453.423,466.382,459.935,459.879z"></path><path style="fill:#B8D1E6;" d="M181.632,111.057l23.573,23.573l147.849,147.85c6.511,6.511,6.511,17.061,0,23.573l-47.156,47.156 c-6.512,6.512-17.06,6.512-23.573,0L110.897,181.791L181.632,111.057z"></path><path style="fill:#A3BDCC;" d="M146.374,146.316l-35.475,35.475l171.426,171.417c6.512,6.511,17.06,6.511,23.573,0l23.684-23.684 L146.374,146.316z"></path><path style="fill:#E6563A;" d="M205.204,134.63l-70.732,70.733l-35.366-35.363c-19.481-19.503-19.481-51.226,0.011-70.729 c19.481-19.503,51.226-19.524,70.729,0L205.204,134.63z"></path><path style="fill:#D9472B;" d="M99.225,99.168c-0.036,0.036-0.073,0.068-0.109,0.103c-19.492,19.503-19.492,51.226-0.011,70.729 l35.367,35.363l35.474-35.474L99.225,99.168z"></path><path style="fill:#665247;" d="M417.608,117.024l89.296-88.516c6.54-6.484,6.587-17.032,0.103-23.573L394.552,117.392 C401.067,123.441,411.234,123.341,417.608,117.024z"></path><path style="fill:#FF6698;" d="M95.316,500.601l-20.935-62.816L11.554,416.85c-11.788-3.922-15.232-18.902-6.511-27.599 l70.729-70.729c4.471-4.471,11.081-6.012,17.061-4.026l70.718,23.573c4.971,1.66,8.877,5.568,10.538,10.538l23.584,70.729 c1.997,5.991,0.445,12.6-4.026,17.061l-70.729,70.718C114.207,515.851,99.236,512.383,95.316,500.601z"></path><path style="fill:#E65C89;" d="M74.381,437.785l20.935,62.816c3.92,11.781,18.891,15.25,27.599,6.511l70.729-70.718 c4.471-4.461,6.023-11.07,4.026-17.061l-23.584-70.729c-0.847-2.534-2.283-4.785-4.14-6.61l-95.733,95.733L74.381,437.785z"></path><path style="fill:#FF99BA;" d="M52.057,459.871c-6.501-6.511-6.501-17.071,0.011-23.584L182.4,306.063 c6.511-6.49,17.071-6.501,23.584,0.011c6.501,6.511,6.501,17.071-0.011,23.584L75.64,459.881 C69.118,466.382,58.569,466.382,52.057,459.871z"></path><path style="fill:#FF6698;" d="M75.64,459.881l130.332-130.224c6.511-6.511,6.511-17.071,0.011-23.584 c-0.019-0.019-0.041-0.034-0.06-0.054L52.065,459.879C58.578,466.382,69.12,466.38,75.64,459.881z"></path><path style="fill:#D7EBFF;" d="M330.369,111.057l-23.573,23.573L158.947,282.48c-6.511,6.511-6.511,17.061,0,23.573l47.156,47.156 c6.512,6.512,17.06,6.512,23.573,0l171.427-171.417L330.369,111.057z"></path><path style="fill:#BDDEFF;" d="M365.627,146.316L182.42,329.524l23.684,23.684c6.511,6.511,17.06,6.511,23.573,0l171.427-171.417 L365.627,146.316z"></path><path style="fill:#FF6698;" d="M306.796,134.63l70.732,70.732l35.366-35.363c19.481-19.503,19.481-51.226-0.011-70.729 c-19.481-19.503-51.226-19.524-70.729,0L306.796,134.63z"></path><path style="fill:#E65C89;" d="M377.528,205.363l35.366-35.363c19.481-19.503,19.481-51.226-0.011-70.729 c-0.036-0.036-0.073-0.068-0.109-0.103l-70.72,70.72L377.528,205.363z"></path></svg>