<svg xmlns="http://www.w3.org/2000/svg" xmlns:xlink="http://www.w3.org/1999/xlink">
    
  <symbol id="geo" viewBox="0 0 24 24" fill="none" xmlns="http://www.w3.org/2000/svg">
    <path d="M12 0C7.02 0 3 4.02 3 9C3 15 12 24 12 24C12 24 21 15 21 9C21 4.02 16.98 0 12 0ZM12 3C13.5913 3 15.1174 3.63214 16.2426 4.75736C17.3679 5.88258 18 7.4087 18 9C18 12.33 15.33 15 12 15C10.4087 15 8.88258 14.3679 7.75736 13.2426C6.63214 12.1174 6 10.5913 6 9C6 7.4087 6.63214 5.88258 7.75736 4.75736C8.88258 3.63214 10.4087 3 12 3Z" fill="black"/>
  </symbol>

  <symbol id="mail" viewBox="0 0 24 25" fill="none" xmlns="http://www.w3.org/2000/svg">
    <path d="M21.5999 9.34759V17.9C21.5999 18.6956 21.2838 19.4587 20.7212 20.0213C20.1586 20.5839 19.3956 20.9 18.5999 20.9H5.3999C4.60425 20.9 3.84119 20.5839 3.27858 20.0213C2.71597 19.4587 2.3999 18.6956 2.3999 17.9V9.34759L11.6951 14.8172C11.7874 14.8716 11.8927 14.9004 11.9999 14.9004C12.1071 14.9004 12.2124 14.8716 12.3047 14.8172L21.5999 9.34759ZM18.5999 5.29999C19.3381 5.29987 20.0504 5.57192 20.6005 6.06408C21.1507 6.55624 21.5001 7.23396 21.5819 7.96759L11.9999 13.604L2.4179 7.96759C2.49969 7.23396 2.84909 6.55624 3.39926 6.06408C3.94942 5.57192 4.66173 5.29987 5.3999 5.29999H18.5999Z" fill="black"/>
  </symbol>
 
  <symbol id="phone" viewBox="0 0 17 25" xmlns="http://www.w3.org/2000/svg">
    <path d="M16.3909 21.7824L14.6049 18.0746C14.2206 17.2824 13.7237 16.7058 12.8659 17.0574L11.1737 17.6855C9.81901 18.3137 9.14401 17.6855 8.46432 16.7387L5.41744 9.80584C5.03307 9.01365 5.23463 8.26834 6.09244 7.91678L8.45963 6.9699C9.31744 6.61366 9.18151 5.87303 8.79713 5.08084L6.76744 1.30272C6.38307 0.51053 5.59557 0.318342 4.73776 0.669905C3.02213 1.37772 1.60182 2.48866 0.678381 4.13397C-0.446619 6.14491 0.115881 8.94334 0.340881 10.1199C0.565881 11.2965 1.35338 13.359 2.37057 15.473C3.38776 17.5918 4.27838 19.2558 5.07994 20.198C5.87682 21.1402 7.78932 23.7183 10.1565 24.2949C12.0971 24.7637 14.1924 24.3699 15.9081 23.6621C16.7706 23.3246 16.7706 22.5793 16.3909 21.7824Z"/>
  </symbol>
 
</svg>
