<svg width="24" height="24" viewBox="0 0 24 24" fill="none" xmlns="http://www.w3.org/2000/svg">
<path d="M24 4.5V19.5H1.5V16.5H0V3H21V4.5H24ZM18 4.5C18 4.71094 18.0391 4.90625 18.1172 5.08594C18.1953 5.26562 18.3008 5.42188 18.4336 5.55469C18.5664 5.6875 18.7266 5.79688 18.9141 5.88281C19.1016 5.96875 19.2969 6.00781 19.5 6V4.5H18ZM1.5 6C1.71094 6 1.90625 5.96094 2.08594 5.88281C2.26562 5.80469 2.42188 5.69922 2.55469 5.56641C2.6875 5.43359 2.79688 5.27344 2.88281 5.08594C2.96875 4.89844 3.00781 4.70312 3 4.5H1.5V6ZM1.5 12C1.91406 12 2.30078 12.0781 2.66016 12.2344C3.01953 12.3906 3.33984 12.6055 3.62109 12.8789C3.90234 13.1523 4.11719 13.4688 4.26562 13.8281C4.41406 14.1875 4.49219 14.5781 4.5 15H16.5C16.5 14.5859 16.5781 14.1992 16.7344 13.8398C16.8906 13.4805 17.1055 13.1602 17.3789 12.8789C17.6523 12.5977 17.9688 12.3828 18.3281 12.2344C18.6875 12.0859 19.0781 12.0078 19.5 12V7.5C19.0859 7.5 18.6992 7.42188 18.3398 7.26562C17.9805 7.10938 17.6602 6.89453 17.3789 6.62109C17.0977 6.34766 16.8828 6.03125 16.7344 5.67188C16.5859 5.3125 16.5078 4.92188 16.5 4.5H4.5C4.5 4.91406 4.42188 5.30078 4.26562 5.66016C4.10938 6.01953 3.89453 6.33984 3.62109 6.62109C3.34766 6.90234 3.03125 7.11719 2.67188 7.26562C2.3125 7.41406 1.92188 7.49219 1.5 7.5V12ZM19.5 13.5C19.2891 13.5 19.0938 13.5391 18.9141 13.6172C18.7344 13.6953 18.5781 13.8008 18.4453 13.9336C18.3125 14.0664 18.2031 14.2266 18.1172 14.4141C18.0312 14.6016 17.9922 14.7969 18 15H19.5V13.5ZM1.5 15H3C3 14.7891 2.96094 14.5938 2.88281 14.4141C2.80469 14.2344 2.69922 14.0781 2.56641 13.9453C2.43359 13.8125 2.27344 13.7031 2.08594 13.6172C1.89844 13.5312 1.70312 13.4922 1.5 13.5V15ZM22.5 6H21V16.5H3V18H22.5V6ZM5.25 10.5C5.04688 10.5 4.87109 10.4258 4.72266 10.2773C4.57422 10.1289 4.5 9.95312 4.5 9.75C4.5 9.54688 4.57422 9.37109 4.72266 9.22266C4.87109 9.07422 5.04688 9 5.25 9C5.45312 9 5.62891 9.07422 5.77734 9.22266C5.92578 9.37109 6 9.54688 6 9.75C6 9.95312 5.92578 10.1289 5.77734 10.2773C5.62891 10.4258 5.45312 10.5 5.25 10.5ZM15.75 10.5C15.5469 10.5 15.3711 10.4258 15.2227 10.2773C15.0742 10.1289 15 9.95312 15 9.75C15 9.54688 15.0742 9.37109 15.2227 9.22266C15.3711 9.07422 15.5469 9 15.75 9C15.9531 9 16.1289 9.07422 16.2773 9.22266C16.4258 9.37109 16.5 9.54688 16.5 9.75C16.5 9.95312 16.4258 10.1289 16.2773 10.2773C16.1289 10.4258 15.9531 10.5 15.75 10.5ZM10.5 13.5C10.0859 13.5 9.69922 13.4219 9.33984 13.2656C8.98047 13.1094 8.66016 12.8945 8.37891 12.6211C8.09766 12.3477 7.88281 12.0312 7.73438 11.6719C7.58594 11.3125 7.50781 10.9219 7.5 10.5V9C7.5 8.58594 7.57812 8.19922 7.73438 7.83984C7.89062 7.48047 8.10547 7.16016 8.37891 6.87891C8.65234 6.59766 8.96875 6.38281 9.32812 6.23438C9.6875 6.08594 10.0781 6.00781 10.5 6C10.9141 6 11.3008 6.07812 11.6602 6.23438C12.0195 6.39062 12.3398 6.60547 12.6211 6.87891C12.9023 7.15234 13.1172 7.46875 13.2656 7.82812C13.4141 8.1875 13.4922 8.57812 13.5 9V10.5C13.5 10.9141 13.4219 11.3008 13.2656 11.6602C13.1094 12.0195 12.8945 12.3398 12.6211 12.6211C12.3477 12.9023 12.0312 13.1172 11.6719 13.2656C11.3125 13.4141 10.9219 13.4922 10.5 13.5ZM9 10.5C9 10.7109 9.03906 10.9062 9.11719 11.0859C9.19531 11.2656 9.30078 11.4219 9.43359 11.5547C9.56641 11.6875 9.72656 11.7969 9.91406 11.8828C10.1016 11.9688 10.2969 12.0078 10.5 12C10.7109 12 10.9062 11.9609 11.0859 11.8828C11.2656 11.8047 11.4219 11.6992 11.5547 11.5664C11.6875 11.4336 11.7969 11.2734 11.8828 11.0859C11.9688 10.8984 12.0078 10.7031 12 10.5V9C12 8.78906 11.9609 8.59375 11.8828 8.41406C11.8047 8.23438 11.6992 8.07812 11.5664 7.94531C11.4336 7.8125 11.2734 7.70312 11.0859 7.61719C10.8984 7.53125 10.7031 7.49219 10.5 7.5C10.2891 7.5 10.0938 7.53906 9.91406 7.61719C9.73438 7.69531 9.57812 7.80078 9.44531 7.93359C9.3125 8.06641 9.20312 8.22656 9.11719 8.41406C9.03125 8.60156 8.99219 8.79688 9 9V10.5Z" fill="#434650"/>
</svg>
