<svg width="37" height="37" viewBox="0 0 37 37" fill="none" xmlns="http://www.w3.org/2000/svg">
<path d="M20.0848 3.0849C21.2098 3.08059 22.3348 3.09189 23.4595 3.11882L23.7586 3.12961C24.104 3.14195 24.4447 3.15736 24.8563 3.17586C26.4966 3.25295 27.6159 3.51195 28.5979 3.89274C29.6154 4.28432 30.4726 4.81465 31.3298 5.67182C32.1135 6.44205 32.7201 7.37374 33.1073 8.40211C33.4881 9.38415 33.7471 10.5049 33.8242 12.1453C33.8427 12.5554 33.8581 12.8976 33.8704 13.2429L33.8797 13.542C33.9071 14.6662 33.9189 15.7907 33.9151 16.9152L33.9167 18.0653V20.0849C33.9205 21.2099 33.9086 22.3349 33.8812 23.4596L33.872 23.7587C33.8596 24.104 33.8442 24.4447 33.8257 24.8563C33.7486 26.4967 33.4865 27.6159 33.1073 28.5979C32.7213 29.6274 32.1146 30.5599 31.3298 31.3298C30.5589 32.1134 29.6267 32.72 28.5979 33.1073C27.6159 33.4881 26.4966 33.7471 24.8563 33.8242C24.4447 33.8427 24.104 33.8581 23.7586 33.8704L23.4595 33.8797C22.3349 33.9071 21.2098 33.9189 20.0848 33.9152L18.9347 33.9167H16.9167C15.7917 33.9205 14.6667 33.9087 13.542 33.8812L13.2429 33.872C12.8769 33.8587 12.511 33.8433 12.1452 33.8257C10.5049 33.7487 9.38567 33.4866 8.40208 33.1073C7.3733 32.7209 6.44145 32.1142 5.67179 31.3298C4.88715 30.5594 4.28001 29.6271 3.89271 28.5979C3.51192 27.6159 3.25292 26.4967 3.17583 24.8563C3.15866 24.4905 3.14325 24.1246 3.12958 23.7587L3.12187 23.4596C3.09345 22.3349 3.0806 21.2099 3.08333 20.0849V16.9152C3.07903 15.7907 3.09034 14.6662 3.11725 13.542L3.12804 13.2429C3.14037 12.8976 3.15579 12.5554 3.17429 12.1453C3.25137 10.5034 3.51037 9.3857 3.89117 8.40211C4.2787 7.37324 4.88703 6.4418 5.67333 5.67336C6.44246 4.88827 7.37373 4.28058 8.40208 3.89274C9.38567 3.51195 10.5034 3.25295 12.1452 3.17586L13.2429 3.12961L13.542 3.1219C14.6662 3.0935 15.7907 3.08065 16.9152 3.08336L20.0848 3.0849ZM18.5 10.7932C17.4787 10.7788 16.4646 10.9675 15.5168 11.3483C14.5691 11.7292 13.7064 12.2946 12.9791 13.0118C12.2517 13.7289 11.6741 14.5835 11.2799 15.5258C10.8857 16.4681 10.6827 17.4794 10.6827 18.5008C10.6827 19.5222 10.8857 20.5335 11.2799 21.4758C11.6741 22.4181 12.2517 23.2727 12.9791 23.9898C13.7064 24.707 14.5691 25.2724 15.5168 25.6533C16.4646 26.0341 17.4787 26.2228 18.5 26.2084C20.5444 26.2084 22.505 25.3962 23.9506 23.9506C25.3962 22.5051 26.2083 20.5444 26.2083 18.5C26.2083 16.4557 25.3962 14.495 23.9506 13.0494C22.505 11.6038 20.5444 10.7932 18.5 10.7932ZM18.5 13.8766C19.1144 13.8653 19.7248 13.9765 20.2957 14.2037C20.8666 14.431 21.3865 14.7697 21.825 15.2002C22.2635 15.6306 22.6119 16.1441 22.8497 16.7107C23.0876 17.2773 23.2101 17.8855 23.2102 18.5C23.2103 19.1145 23.088 19.7228 22.8503 20.2895C22.6127 20.8561 22.2645 21.3697 21.8261 21.8003C21.3878 22.2309 20.868 22.5698 20.2972 22.7973C19.7263 23.0247 19.1159 23.1361 18.5015 23.125C17.2749 23.125 16.0985 22.6378 15.2312 21.7704C14.3638 20.903 13.8765 19.7267 13.8765 18.5C13.8765 17.2734 14.3638 16.097 15.2312 15.2297C16.0985 14.3623 17.2749 13.875 18.5015 13.875L18.5 13.8766ZM26.5937 8.48074C26.0964 8.50064 25.626 8.71222 25.2812 9.07115C24.9363 9.43008 24.7437 9.90853 24.7437 10.4063C24.7437 10.904 24.9363 11.3825 25.2812 11.7414C25.626 12.1003 26.0964 12.3119 26.5937 12.3318C27.1048 12.3318 27.595 12.1288 27.9564 11.7674C28.3178 11.406 28.5208 10.9158 28.5208 10.4047C28.5208 9.89364 28.3178 9.40348 27.9564 9.04208C27.595 8.68069 27.1048 8.47765 26.5937 8.47765V8.48074Z" fill="#545454"/>
</svg>
