<svg width="29" height="29" viewBox="0 0 29 29" fill="none" xmlns="http://www.w3.org/2000/svg">
<path d="M14.5 0.75C6.91 0.75 0.75 6.91 0.75 14.5C0.75 22.09 6.91 28.25 14.5 28.25C22.09 28.25 28.25 22.09 28.25 14.5C28.25 6.91 22.09 0.75 14.5 0.75ZM20.88 10.1C20.6737 12.2725 19.78 17.5525 19.3263 19.9862C19.1338 21.0175 18.7488 21.3612 18.3913 21.4025C17.5938 21.4713 16.9888 20.88 16.2188 20.3713C15.0087 19.5738 14.3213 19.0788 13.1525 18.3088C11.7913 17.415 12.6712 16.92 13.455 16.1225C13.6613 15.9163 17.1812 12.7125 17.25 12.4237C17.2596 12.38 17.2583 12.3346 17.2463 12.2915C17.2343 12.2483 17.212 12.2088 17.1812 12.1763C17.0987 12.1075 16.9888 12.135 16.8925 12.1488C16.7687 12.1762 14.8438 13.455 11.09 15.985C10.54 16.3562 10.045 16.5487 9.605 16.535C9.11 16.5212 8.175 16.26 7.47375 16.0262C6.6075 15.7512 5.93375 15.6 5.98875 15.1187C6.01625 14.8713 6.36 14.6237 7.00625 14.3625C11.0213 12.6162 13.6888 11.4613 15.0225 10.9113C18.845 9.31625 19.6288 9.04125 20.1513 9.04125C20.2613 9.04125 20.5225 9.06875 20.6875 9.20625C20.825 9.31625 20.8662 9.4675 20.88 9.5775C20.8662 9.66 20.8937 9.9075 20.88 10.1Z" fill="#434650"/>
</svg>
