<svg width="40" height="24" viewBox="0 0 40 24" fill="none" xmlns="http://www.w3.org/2000/svg">
<path d="M14.5553 21.4343H25.0553V2.56567H14.5553L14.5553 21.4343Z" fill="#FF5F00"/>
<path d="M15.2219 12C15.2219 8.172 17.0143 4.76334 19.8053 2.56568C17.6927 0.899863 15.0796 -0.00414606 12.3893 1.42958e-05C5.76262 1.42958e-05 0.390625 5.37267 0.390625 12C0.390625 18.6273 5.76262 24 12.3896 24C15.08 24.0041 17.693 23.1001 19.8056 21.4343C17.0146 19.237 15.2223 15.8277 15.2223 12" fill="#EB001B"/>
<path fill-rule="evenodd" clip-rule="evenodd" d="M38.8456 18.9703V19.9696H38.7599V19.213L38.6286 19.8651H38.5396L38.4083 19.2151V19.9703H38.3226V18.9703H38.4443L38.5839 19.6575L38.7239 18.9703H38.8456ZM38.0756 19.14V19.9703H38.0753H37.9903V19.1407H37.8346V18.9718H38.2313V19.14H38.0756Z" fill="#231F20"/>
<path d="M39.2206 12C39.2206 18.6273 33.8479 24 27.221 24C24.5307 24.0041 21.9178 23.1001 19.8053 21.4343C22.5963 19.237 24.3886 15.8277 24.3886 12C24.3886 8.172 22.5963 4.76334 19.8053 2.56568C21.9179 0.899817 24.5309 -0.00419792 27.2213 1.4656e-05C33.8483 1.4656e-05 39.2206 5.37267 39.2206 12Z" fill="#F79E1B"/>
</svg>
