<!-- icon666.com - MILLIONS vector ICONS FREE --><svg version="1.1" id="Capa_1" xmlns="http://www.w3.org/2000/svg" xmlns:xlink="http://www.w3.org/1999/xlink" x="0px" y="0px" viewBox="0 0 512.003 512.003" style="enable-background:new 0 0 512.003 512.003;" xml:space="preserve"><g><polygon style="fill:#FEDC63;" points="256.003,151.13 205.546,177.657 215.182,121.472 174.361,81.681 230.774,73.484 256.003,22.365 281.232,73.484 337.645,81.681 296.824,121.472 306.46,177.657 "></polygon><polygon style="fill:#FEDC63;" points="422.861,277.42 372.404,303.947 382.04,247.762 341.219,207.971 397.632,199.774 422.861,148.655 448.09,199.774 504.503,207.971 463.682,247.762 473.319,303.947 "></polygon><polygon style="fill:#FEDC63;" points="89.145,277.42 38.687,303.947 48.324,247.762 7.503,207.971 63.916,199.774 89.145,148.655 114.373,199.774 170.787,207.971 129.966,247.762 139.602,303.947 "></polygon><polygon style="fill:#FEDC63;" points="156.218,463.112 105.76,489.639 115.397,433.454 74.576,393.663 130.989,385.466 156.218,334.347 181.447,385.466 237.86,393.663 197.039,433.454 206.675,489.639 "></polygon><polygon style="fill:#FEDC63;" points="355.788,463.112 305.331,489.639 314.967,433.454 274.146,393.663 330.559,385.466 355.788,334.347 381.017,385.466 437.43,393.663 396.609,433.454 406.245,489.639 "></polygon></g><path d="M310.868,183.725c2.31-1.678,3.467-4.521,2.983-7.335l-3.125-18.221c-0.699-4.084-4.577-6.831-8.659-6.124 c-4.083,0.7-6.824,4.577-6.124,8.659l0.556,3.243l-37.006-19.456c-2.186-1.148-4.795-1.148-6.98,0l-37.006,19.456l7.067-41.208 c0.417-2.433-0.39-4.915-2.157-6.638l-29.938-29.184l41.374-6.013c2.443-0.354,4.555-1.889,5.647-4.103l18.503-37.489l18.503,37.491 c1.093,2.214,3.204,3.748,5.647,4.103l41.374,6.013l-29.938,29.183c-1.768,1.723-2.574,4.205-2.157,6.638l1.787,10.423 c0.7,4.082,4.574,6.82,8.66,6.125c4.082-0.7,6.824-4.577,6.125-8.66l-1.121-6.537l37.997-37.039 c2.044-1.992,2.779-4.973,1.897-7.688c-0.882-2.716-3.229-4.694-6.055-5.104l-52.511-7.631l-23.483-47.582 c-1.264-2.56-3.871-4.181-6.726-4.181c-2.855,0-5.462,1.621-6.726,4.181l-23.483,47.582l-52.511,7.631 c-2.825,0.41-5.173,2.389-6.055,5.104c-0.882,2.715-0.146,5.695,1.897,7.688l37.997,37.039l-8.969,52.3 c-0.483,2.813,0.674,5.657,2.983,7.335c1.307,0.949,2.854,1.433,4.409,1.433c1.193,0,2.392-0.284,3.489-0.861l46.97-24.694 l46.967,24.692C305.497,185.625,308.558,185.402,310.868,183.725z"></path><path d="M511.636,205.654c-0.882-2.715-3.229-4.694-6.055-5.104l-52.511-7.631l-23.483-47.583c-1.264-2.56-3.871-4.181-6.726-4.181 s-5.462,1.621-6.726,4.181l-23.483,47.583l-52.511,7.631c-2.825,0.41-5.173,2.39-6.055,5.104s-0.146,5.695,1.897,7.688 l37.997,37.037l-8.97,52.3c-0.483,2.813,0.674,5.657,2.983,7.335c2.31,1.677,5.37,1.898,7.898,0.571l46.968-24.692l46.967,24.692 c1.098,0.577,2.296,0.861,3.489,0.861c1.556,0,3.103-0.483,4.409-1.433c2.31-1.678,3.467-4.521,2.983-7.335l-8.97-52.3 l37.998-37.037C511.782,211.35,512.518,208.369,511.636,205.654z M458.446,242.391c-1.768,1.724-2.574,4.206-2.156,6.639 l7.067,41.208l-37.006-19.456c-2.186-1.147-4.795-1.149-6.98,0l-37.007,19.456l7.067-41.208c0.418-2.433-0.389-4.915-2.156-6.639 l-29.938-29.182l41.374-6.013c2.443-0.354,4.555-1.889,5.647-4.103l18.503-37.491l18.503,37.491 c1.093,2.214,3.204,3.748,5.647,4.103l41.374,6.012L458.446,242.391z"></path><path d="M31.296,302.68c-0.483,2.813,0.674,5.657,2.983,7.335c1.307,0.949,2.854,1.433,4.409,1.433c1.193,0,2.392-0.284,3.489-0.861 l46.967-24.692l46.968,24.692c2.529,1.33,5.589,1.105,7.898-0.571c2.31-1.678,3.467-4.521,2.983-7.335l-8.97-52.3l37.997-37.037 c2.044-1.993,2.779-4.974,1.897-7.688s-3.229-4.694-6.054-5.104l-21.756-3.162c-4.105-0.601-7.906,2.243-8.501,6.343 c-0.596,4.1,2.244,7.905,6.343,8.501l6.718,0.977l-29.938,29.183c-1.768,1.724-2.574,4.206-2.156,6.639l7.067,41.208l-37.007-19.456 c-2.186-1.148-4.795-1.148-6.98,0l-37.006,19.456l7.067-41.208c0.418-2.433-0.389-4.915-2.156-6.639l-29.939-29.183l41.374-6.012 c2.443-0.354,4.555-1.889,5.647-4.103l18.503-37.491l18.503,37.491c1.093,2.214,3.204,3.748,5.647,4.103l5.735,0.833 c4.09,0.599,7.905-2.244,8.5-6.344c0.596-4.1-2.245-7.905-6.344-8.5l-1.833-0.267l-23.483-47.583 c-1.264-2.56-3.871-4.181-6.726-4.181s-5.462,1.621-6.726,4.181l-23.483,47.583l-52.511,7.631c-2.825,0.41-5.173,2.39-6.055,5.104 s-0.146,5.695,1.897,7.688l37.998,37.037L31.296,302.68z"></path><path d="M238.938,386.241l-52.511-7.631l-23.483-47.583c-1.264-2.56-3.871-4.181-6.726-4.181s-5.462,1.621-6.726,4.181 l-23.483,47.583l-52.511,7.631c-2.825,0.41-5.173,2.389-6.055,5.104s-0.146,5.695,1.897,7.688l37.997,37.039l-8.969,52.299 c-0.483,2.813,0.674,5.657,2.983,7.335c2.309,1.678,5.37,1.898,7.898,0.571l46.967-24.691l46.967,24.691 c1.098,0.577,2.296,0.861,3.489,0.861c1.556,0,3.103-0.483,4.409-1.433c2.31-1.678,3.467-4.521,2.983-7.335l-8.969-52.299 l37.997-37.039c2.044-1.992,2.779-4.973,1.897-7.688C244.11,388.63,241.763,386.651,238.938,386.241z M191.804,428.084 c-1.768,1.723-2.574,4.205-2.156,6.638l7.066,41.207l-37.006-19.455c-1.093-0.574-2.291-0.861-3.49-0.861s-2.397,0.287-3.49,0.861 l-37.006,19.455l7.066-41.207c0.418-2.433-0.389-4.915-2.156-6.638L90.693,398.9l41.374-6.013c2.443-0.354,4.555-1.889,5.647-4.103 l18.503-37.491l18.503,37.491c1.093,2.214,3.204,3.748,5.647,4.103l41.374,6.013L191.804,428.084z"></path><path d="M438.508,386.241l-52.511-7.631l-23.483-47.583c-1.264-2.56-3.871-4.181-6.726-4.181s-5.462,1.621-6.726,4.181 l-7.739,15.682c-1.833,3.715-0.308,8.212,3.406,10.045c3.716,1.834,8.212,0.308,10.045-3.406l1.014-2.054l18.503,37.491 c1.093,2.214,3.204,3.748,5.647,4.103l41.374,6.013l-29.938,29.184c-1.768,1.723-2.574,4.205-2.156,6.638l7.066,41.207 l-37.006-19.455c-2.186-1.148-4.795-1.148-6.98,0l-37.006,19.455l7.066-41.207c0.418-2.433-0.389-4.915-2.156-6.638l-29.938-29.184 l41.374-6.013c2.443-0.354,4.555-1.889,5.647-4.103l4.164-8.438c1.833-3.715,0.308-8.212-3.406-10.045 c-3.714-1.831-8.212-0.307-10.045,3.406l-2.419,4.901l-52.511,7.631c-2.825,0.41-5.173,2.389-6.055,5.104s-0.146,5.695,1.897,7.688 l37.997,37.039l-8.969,52.299c-0.483,2.813,0.674,5.657,2.983,7.335s5.369,1.898,7.898,0.571l46.967-24.691l46.967,24.691 c1.098,0.577,2.296,0.861,3.489,0.861c1.556,0,3.103-0.483,4.409-1.433c2.31-1.678,3.467-4.521,2.983-7.335l-8.969-52.299 l37.997-37.039c2.044-1.992,2.779-4.973,1.897-7.688C443.681,388.63,441.333,386.651,438.508,386.241z"></path><path d="M418.023,108.519c0,4.143,3.357,7.5,7.5,7.5h4.407v4.407c0,4.143,3.357,7.5,7.5,7.5s7.5-3.357,7.5-7.5v-4.407h4.407 c4.143,0,7.5-3.357,7.5-7.5s-3.357-7.5-7.5-7.5h-4.407v-4.407c0-4.143-3.357-7.5-7.5-7.5s-7.5,3.357-7.5,7.5v4.407h-4.407 C421.38,101.019,418.023,104.376,418.023,108.519z"></path><path d="M77.237,99.502h4.407v4.407c0,4.143,3.357,7.5,7.5,7.5s7.5-3.357,7.5-7.5v-4.407h4.407c4.143,0,7.5-3.357,7.5-7.5 s-3.357-7.5-7.5-7.5h-4.407v-4.407c0-4.143-3.357-7.5-7.5-7.5s-7.5,3.357-7.5,7.5v4.407h-4.407c-4.143,0-7.5,3.357-7.5,7.5 S73.095,99.502,77.237,99.502z"></path><path d="M481.91,432.502h-4.407v-4.407c0-4.143-3.357-7.5-7.5-7.5s-7.5,3.357-7.5,7.5v4.407h-4.407c-4.143,0-7.5,3.357-7.5,7.5 s3.357,7.5,7.5,7.5h4.407v4.407c0,4.143,3.357,7.5,7.5,7.5s7.5-3.357,7.5-7.5v-4.407h4.407c4.143,0,7.5-3.357,7.5-7.5 S486.053,432.502,481.91,432.502z"></path><path d="M71.41,346.254c0-4.143-3.357-7.5-7.5-7.5h-4.407v-4.407c0-4.143-3.357-7.5-7.5-7.5s-7.5,3.357-7.5,7.5v4.407h-4.407 c-4.143,0-7.5,3.357-7.5,7.5s3.357,7.5,7.5,7.5h4.407v4.407c0,4.143,3.357,7.5,7.5,7.5s7.5-3.357,7.5-7.5v-4.407h4.407 C68.053,353.754,71.41,350.397,71.41,346.254z"></path><path d="M52.003,404.493h-4.407v-4.407c0-4.143-3.357-7.5-7.5-7.5s-7.5,3.357-7.5,7.5v4.407h-4.407c-4.143,0-7.5,3.357-7.5,7.5 s3.357,7.5,7.5,7.5h4.407v4.407c0,4.143,3.357,7.5,7.5,7.5s7.5-3.357,7.5-7.5v-4.407h4.407c4.143,0,7.5-3.357,7.5-7.5 S56.146,404.493,52.003,404.493z"></path><path d="M389.91,60.502h4.407v4.407c0,4.143,3.357,7.5,7.5,7.5s7.5-3.357,7.5-7.5v-4.407h4.407c4.143,0,7.5-3.357,7.5-7.5 s-3.357-7.5-7.5-7.5h-4.407v-4.407c0-4.143-3.357-7.5-7.5-7.5s-7.5,3.357-7.5,7.5v4.407h-4.407c-4.143,0-7.5,3.357-7.5,7.5 S385.768,60.502,389.91,60.502z"></path></svg>