<!-- icon666.com - MILLIONS vector ICONS FREE --><svg viewBox="-38 0 502 502.74719" xmlns="http://www.w3.org/2000/svg"><path d="m423.019531 92.882812v243.917969c0 3.121094-1.460937 6.058594-3.941406 7.941407l-175.878906 134.078124-23.441407 17.882813c-3.582031 2.738281-8.539062 2.738281-12.121093 0l-199.320313-151.960937c-2.480468-1.882813-3.9375-4.820313-3.9375-7.941407v-243.917969c0-2.621093 1-5.160156 2.859375-7.023437 8.039063-8.097656 16.558594-15.597656 25.5-22.519531 1.300781-1 2.597657-2 3.917969-2.957032 112.0625-83.28125 284.882812-73.921874 383.5 25.476563 1.863281 1.863281 2.863281 4.402344 2.863281 7.023437zm0 0" fill="#56c1b3" style="fill: rgb(123, 239, 228);"></path><path d="m423.019531 92.882812v243.917969c0 3.121094-1.460937 6.058594-3.941406 7.941407l-175.878906 134.078124-202.382813-154.277343c-2.617187-1.980469-4.160156-5.082031-4.160156-8.382813v-255.777344c112.0625-83.28125 284.882812-73.921874 383.5 25.476563 1.863281 1.863281 2.863281 4.402344 2.863281 7.023437zm0 0" fill="#7befe4"></path><path d="m371.699219 223.550781c0 87.257813-70.742188 158-158 158-87.261719 0-158-70.742187-158-158 0-87.261719 70.738281-158 158-158 87.257812 0 158 70.738281 158 158zm0 0" fill="#40c4df"></path><path d="m336.585938 223.550781c0 67.867188-55.019532 122.886719-122.886719 122.886719-67.871094 0-122.890625-55.019531-122.890625-122.886719 0-67.871093 55.019531-122.890625 122.890625-122.890625 67.867187 0 122.886719 55.019532 122.886719 122.890625zm0 0" fill="#fff"></path><path d="m183.757812 300.300781-55.734374-52.019531c-4.039063-3.769531-4.253907-10.097656-.488282-14.132812l11.894532-12.746094c3.769531-4.039063 10.097656-4.257813 14.136718-.488282l26.128906 24.386719c4.265626 3.980469 11.015626 3.480469 14.644532-1.082031l76.746094-96.398438c3.441406-4.320312 9.730468-5.03125 14.050781-1.59375l13.640625 10.859376c4.320312 3.4375 5.035156 9.730468 1.597656 14.050781l-101.96875 128.082031c-3.632812 4.5625-10.382812 5.0625-14.648438 1.082031zm0 0" fill="#40c4df"></path><g fill="#491352"><path d="m423 83.039062c-109.535156-110.382812-308.382812-111.050781-418.605469 0-2.554687 2.574219-4.019531 6.164063-4.019531 9.839844v243.917969c0 4.339844 2.058594 8.503906 5.507812 11.132813l199.328126 151.960937c2.5 1.90625 5.492187 2.855469 8.488281 2.855469 2.992187 0 5.988281-.949219 8.488281-2.855469l199.324219-151.960937c3.449219-2.628907 5.511719-6.792969 5.511719-11.132813v-243.917969c0-3.679687-1.464844-7.265625-4.023438-9.839844zm-3.976562 253.757813c0 1.859375-.882813 3.644531-2.363282 4.773437l-199.328125 151.957032c-2.136719 1.632812-5.128906 1.632812-7.273437 0l-199.324219-151.957032c-1.480469-1.128906-2.363281-2.914062-2.363281-4.773437v-243.917969c0-1.585937.621094-3.121094 1.703125-4.210937 107.285156-108.085938 301.023437-107.039063 407.246093.003906 1.082032 1.089844 1.703126 2.625 1.703126 4.207031zm0 0" fill="#491352"></path><path d="m267.957031 145.332031-76.742187 96.398438c-1.054688 1.324219-2.566406 2.121093-4.253906 2.246093-1.703126.132813-3.300782-.445312-4.539063-1.597656l-26.125-24.386718c-2.734375-2.554688-6.320313-3.878907-10.039063-3.757813-3.734374.128906-7.199218 1.707031-9.75 4.4375l-11.894531 12.746094c-2.554687 2.734375-3.886719 6.300781-3.757812 10.039062.125 3.734375 1.707031 7.199219 4.441406 9.75l55.734375 52.019531c2.59375 2.421876 6.03125 3.765626 9.558594 3.765626.339844 0 .683594-.011719 1.027344-.035157 3.878906-.289062 7.496093-2.199219 9.917968-5.242187 105.488282-134.84375 106.109375-127.921875 104.925782-138.378906-.421876-3.714844-2.265626-7.042969-5.191407-9.375l-13.640625-10.859376c-6.039062-4.8125-14.867187-3.808593-19.671875 2.230469zm29.285157 23.316407-101.964844 128.078124c-1.054688 1.324219-2.566406 2.121094-4.253906 2.246094-1.679688.125-3.296876-.441406-4.539063-1.59375l-55.734375-52.023437c-1.171875-1.089844-1.847656-2.578125-1.902344-4.175781-.050781-1.601563.519532-3.128907 1.613282-4.300782l11.894531-12.746094c1.09375-1.171874 2.578125-1.847656 4.179687-1.902343.070313 0 .140625-.003907.210938-.003907 1.527344 0 2.96875.570313 4.089844 1.613282l26.128906 24.390625c2.84375 2.652343 6.707031 4.015625 10.582031 3.726562 3.878906-.285156 7.5-2.199219 9.921875-5.242187l76.742188-96.394532c2.0625-2.589843 5.847656-3.015624 8.433593-.960937l13.640625 10.863281c2.589844 2.054688 3.027344 5.824219.957032 8.425782zm0 0" fill="#491352"></path><path d="m213.699219 61.550781c-89.328125 0-162 72.671875-162 162s72.671875 162 162 162c89.324219 0 162-72.671875 162-162s-72.675781-162-162-162zm0 316c-84.917969 0-154-69.085937-154-154 0-84.917969 69.082031-154 154-154 84.914062 0 154 69.082031 154 154 0 84.914063-69.085938 154-154 154zm0 0" fill="#491352"></path><path d="m213.699219 96.660156c-69.96875 0-126.890625 56.921875-126.890625 126.890625 0 69.964844 56.921875 126.886719 126.890625 126.886719 69.964843 0 126.886719-56.921875 126.886719-126.886719 0-69.964843-56.921876-126.890625-126.886719-126.890625zm0 245.777344c-65.554688 0-118.890625-53.332031-118.890625-118.886719 0-65.554687 53.335937-118.890625 118.890625-118.890625 65.550781 0 118.886719 53.335938 118.886719 118.890625 0 65.550781-53.335938 118.886719-118.886719 118.886719zm0 0" fill="#491352"></path></g></svg>