<svg width="24" height="24" viewBox="0 0 24 24" fill="none" xmlns="http://www.w3.org/2000/svg">
<path d="M14.4362 20.938C12.443 20.9351 10.4855 20.4089 8.75951 19.4121C7.0335 18.4152 5.59946 16.9827 4.60081 15.2578C3.60216 13.5328 3.07391 11.5759 3.06888 9.58271C3.06386 7.58954 3.58224 5.62997 4.57218 3.9C4.70126 3.67625 4.88054 3.48554 5.0959 3.34289C5.31126 3.20025 5.5568 3.10957 5.81318 3.078C6.0771 3.04151 6.34589 3.06697 6.59826 3.15236C6.85063 3.23776 7.07965 3.38075 7.26718 3.57L10.4062 6.71C10.5657 6.86929 10.6922 7.05845 10.7785 7.26667C10.8649 7.47489 10.9093 7.69809 10.9093 7.9235C10.9093 8.14891 10.8649 8.37211 10.7785 8.58034C10.6922 8.78856 10.5657 8.97772 10.4062 9.137L10.1112 9.437C9.74894 9.80013 9.54551 10.2921 9.54551 10.805C9.54551 11.3179 9.74894 11.8099 10.1112 12.173L11.8312 13.894C12.1999 14.2454 12.6898 14.4414 13.1992 14.4414C13.7086 14.4414 14.1984 14.2454 14.5672 13.894L14.8572 13.604C15.1794 13.2826 15.616 13.102 16.0712 13.102C16.5263 13.102 16.9629 13.2826 17.2852 13.604L20.4242 16.743C20.6131 16.931 20.7558 17.1602 20.8412 17.4127C20.9265 17.6651 20.9522 17.934 20.9162 18.198C20.8842 18.454 20.7934 18.6991 20.6508 18.9141C20.5082 19.1291 20.3176 19.3081 20.0942 19.437C18.3723 20.4244 16.4211 20.9421 14.4362 20.938ZM6.04218 4.063C6.00875 4.0629 5.97535 4.0649 5.94218 4.069C5.83892 4.08177 5.74003 4.11831 5.65328 4.17574C5.56652 4.23317 5.49426 4.30994 5.44218 4.4C4.30893 6.37594 3.85746 8.66991 4.15742 10.9279C4.45739 13.1859 5.49213 15.2825 7.10195 16.894C8.71178 18.5055 10.8072 19.5425 13.0649 19.8448C15.3226 20.1472 17.617 19.6982 19.5942 18.567C19.6842 18.5149 19.7609 18.4426 19.8183 18.3558C19.8758 18.2691 19.9123 18.1702 19.9252 18.067C19.9405 17.9549 19.9297 17.8408 19.8936 17.7336C19.8575 17.6264 19.7971 17.529 19.7172 17.449L16.5782 14.31C16.5116 14.2434 16.4326 14.1906 16.3456 14.1546C16.2586 14.1185 16.1653 14.1 16.0712 14.1C15.977 14.1 15.8838 14.1185 15.7968 14.1546C15.7098 14.1906 15.6308 14.2434 15.5642 14.31L15.2742 14.6C14.715 15.1334 13.972 15.4311 13.1992 15.4311C12.4264 15.4311 11.6833 15.1334 11.1242 14.6L9.40018 12.876C8.85126 12.3251 8.54305 11.5792 8.54305 10.8015C8.54305 10.0238 8.85126 9.27787 9.40018 8.727L9.70018 8.427C9.76676 8.36042 9.81958 8.28138 9.85561 8.19439C9.89164 8.1074 9.91019 8.01416 9.91019 7.92C9.91019 7.82585 9.89164 7.73261 9.85561 7.64562C9.81958 7.55863 9.76676 7.47958 9.70018 7.413L6.56018 4.277C6.49223 4.20892 6.41147 4.15496 6.32257 4.11823C6.23366 4.08151 6.13837 4.06274 6.04218 4.063Z" fill="#434650"/>
</svg>
