<svg width="32" height="32" viewBox="0 0 32 32" fill="none" xmlns="http://www.w3.org/2000/svg">
<g clip-path="url(#clip0_3_301)">
<path d="M16.0001 5.97333C14.9927 5.97333 14.008 6.27205 13.1704 6.83171C12.3328 7.39137 11.6799 8.18684 11.2944 9.11753C10.9089 10.0482 10.8081 11.0723 11.0046 12.0603C11.2011 13.0483 11.6862 13.9559 12.3985 14.6682C13.1109 15.3805 14.0184 15.8656 15.0064 16.0621C15.9944 16.2587 17.0185 16.1578 17.9492 15.7723C18.8799 15.3868 19.6754 14.734 20.235 13.8964C20.7947 13.0588 21.0934 12.074 21.0934 11.0667C21.0934 9.71582 20.5568 8.42032 19.6016 7.46513C18.6464 6.50995 17.3509 5.97333 16.0001 5.97333ZM16.0001 14.3822C15.3443 14.3822 14.7033 14.1878 14.158 13.8234C13.6128 13.4591 13.1878 12.9413 12.9369 12.3355C12.686 11.7296 12.6203 11.063 12.7482 10.4198C12.8762 9.77667 13.1919 9.1859 13.6556 8.72221C14.1193 8.25852 14.7101 7.94274 15.3532 7.81481C15.9964 7.68688 16.663 7.75254 17.2689 8.00349C17.8747 8.25443 18.3925 8.6794 18.7569 9.22464C19.1212 9.76988 19.3156 10.4109 19.3156 11.0667C19.3133 11.9445 18.9629 12.7855 18.3414 13.4054C17.7199 14.0252 16.8779 14.3733 16.0001 14.3733V14.3822Z" fill="#434650"/>
<path d="M15.9999 1.77777C13.2312 1.78008 10.5759 2.87794 8.61397 4.83154C6.65204 6.78515 5.5429 9.43576 5.52881 12.2044C5.52881 16.3555 7.8577 19.8311 9.56436 22.3644L9.87548 22.8267C11.5735 25.2877 13.3951 27.6611 15.3333 29.9378L16.0088 30.7289L16.6844 29.9378C18.6223 27.6609 20.4439 25.2875 22.1421 22.8267L22.4533 22.3555C24.151 19.8222 26.4799 16.3555 26.4799 12.2044C26.4658 9.43422 25.3555 6.78227 23.3916 4.82841C21.4278 2.87455 18.7702 1.77774 15.9999 1.77777ZM20.9688 21.3333L20.6488 21.8044C19.1199 24.0978 17.0933 26.6667 15.9999 27.9378C14.951 26.6667 12.8799 24.0978 11.351 21.8044L11.0399 21.3333C9.46659 18.9867 7.30659 15.7778 7.30659 12.1689C7.30659 11.0273 7.53145 9.89681 7.96833 8.84209C8.40521 7.78736 9.04555 6.82902 9.8528 6.02177C10.6601 5.21452 11.6184 4.57417 12.6731 4.13729C13.7278 3.70041 14.8583 3.47555 15.9999 3.47555C17.1415 3.47555 18.272 3.70041 19.3267 4.13729C20.3814 4.57417 21.3398 5.21452 22.147 6.02177C22.9543 6.82902 23.5946 7.78736 24.0315 8.84209C24.4684 9.89681 24.6933 11.0273 24.6933 12.1689C24.6933 15.8133 22.5421 19.0222 20.9688 21.3333Z" fill="#434650"/>
</g>
<defs>
<clipPath id="clip0_3_301">
<rect width="32" height="32" fill="white"/>
</clipPath>
</defs>
</svg>
