<svg width="196" height="42" viewBox="0 0 196 42" fill="none" xmlns="http://www.w3.org/2000/svg">
<g clip-path="url(#clip0_275_1244)">
<path d="M195.065 1.35715C194.749 2.32654 194.472 3.17885 194.14 4.14318C193.898 4.84689 193.413 5.26468 192.648 5.31019C191.36 5.31019 186.528 5.35804 185.115 5.35804C183.834 5.4265 183.09 6.04074 182.849 7.305C182.487 9.20761 182.162 11.1172 181.82 13.0237C181.307 15.8829 180.811 18.7448 180.272 21.5993C179.955 23.2829 180.503 24.0014 182.207 24.0084C182.831 24.0111 183.455 24.0247 184.078 23.994C185.473 23.9259 186.395 23.1934 186.7 21.83C187.001 20.3222 187.167 19.3151 187.404 18.0578C187.452 17.7995 187.358 17.7124 187.11 17.7163C186.677 17.7233 186.042 17.7307 185.609 17.7112C184.605 17.6657 184.484 17.3164 184.5 16.3264C184.514 15.4429 184.544 14.5599 184.536 13.6769C184.533 13.3345 184.679 13.2272 184.984 13.2272C186.208 13.2272 191.812 13.2684 192.465 13.2684C193.118 13.2684 193.488 13.7228 193.399 14.4323C193.298 15.2383 193.147 16.0381 193.009 16.8391C192.64 18.9692 192.27 21.0986 191.895 23.2273C191.625 24.7596 191.338 26.2891 191.082 27.8237C191.029 28.1427 190.928 28.2617 190.593 28.2505C189.814 28.2248 189.034 28.2528 188.255 28.2376C187.279 28.2186 187 27.9381 186.913 26.9753C186.89 26.7217 186.862 26.4081 186.831 26.0899C186.812 25.9013 186.54 25.8678 186.415 26.0709C185.548 27.4861 183.792 28.4294 182.554 28.5317C181.316 28.634 180.127 28.6006 178.92 28.5255C177.544 28.4403 176.259 28.0548 175.331 26.9209C174.654 26.0931 174.42 25.1093 174.349 24.0753C174.258 22.7511 174.471 21.4523 174.699 20.1549C175.326 16.5956 175.953 13.0366 176.569 9.47563C176.831 7.95697 177.109 6.44764 177.769 5.03556C178.826 2.77623 180.608 1.45323 183.034 1.02416C184.018 0.850276 185.028 0.800872 186.029 0.765084C187.223 0.722294 188.419 0.75497 189.614 0.75497C191.329 0.75497 192.854 0.753025 194.568 0.755748C195.061 0.757304 195.219 0.88373 195.065 1.35715ZM24.4199 4.46722C24.7117 6.66198 24.2344 8.8155 23.3447 10.8441C22.783 12.1247 21.6642 13.1622 20.3054 13.4279C20.0121 13.4855 19.7958 13.4847 19.8149 13.7488C19.8289 13.9402 19.9281 13.9375 20.2494 14.0367C21.3301 14.3701 22.1373 15.0306 22.5655 16.1062C22.8869 16.9126 22.9787 17.7602 22.8845 18.6071C22.6865 20.3942 22.4461 22.1809 21.8377 23.8847C20.9492 26.3735 19.1221 27.7245 16.5535 28.1408C14.5575 28.4644 12.5456 28.2968 10.5399 28.336C10.1937 28.3427 9.84749 28.3372 9.50128 28.3372C7.64846 28.3372 5.79564 28.3287 3.94321 28.3446C3.59311 28.3477 3.51142 28.2625 3.57482 27.912C3.986 25.6325 4.37695 23.349 4.77334 21.0667C5.45137 17.1666 6.12707 13.2657 6.80666 9.36555C7.27268 6.69193 7.74493 4.01909 8.2094 1.34548C8.25919 1.05839 8.29226 0.838216 8.69371 0.841718C12.3986 0.876728 16.1034 0.937801 19.8075 0.937801C22.4376 0.937801 24.136 2.33238 24.4199 4.46722ZM15.3009 16.1571C14.0896 16.1571 13.0151 16.156 11.8723 16.1404C11.5583 16.1361 11.4109 16.2264 11.3537 16.5563C10.9546 18.856 10.5399 21.1531 10.1221 23.4498C10.0622 23.7789 10.1715 23.8773 10.4967 23.8742C11.6066 23.8637 13.4668 23.8516 14.598 23.8119C15.5188 23.7797 16.1633 23.2269 16.3691 22.3147C16.6235 21.1866 16.9456 19.2482 17.1425 18.108C17.393 16.6485 16.5127 16.1571 15.3009 16.1571ZM17.0934 5.3487C15.9863 5.32536 14.8781 5.35259 13.771 5.32848C13.4368 5.32147 13.3135 5.45801 13.261 5.75443C12.9214 7.65938 12.5783 9.56394 12.2282 11.4673C12.1776 11.7427 12.2566 11.8388 12.5386 11.8388C13.2925 11.8388 14.9026 11.8264 15.6534 11.8264C16.9554 11.8264 17.7326 11.1966 18.0512 9.93582C18.2873 9.00105 18.4343 8.03982 18.567 7.08288C18.728 5.92209 18.2527 5.37282 17.0934 5.3487ZM93.0291 0.847942C91.1938 0.875561 89.3562 0.846775 87.5232 0.931577C86.003 1.00199 84.8787 1.78388 84.2139 3.1699C83.9074 3.80864 83.6184 4.4575 83.35 5.11297C82.6992 6.70204 81.8609 8.6245 81.3209 9.89848C81.0296 10.5855 80.8257 11.125 80.7133 11.5C80.4682 12.3177 80.2582 13.0984 80.066 13.862C80.017 14.0565 79.7097 14.013 79.7042 13.8118C79.6988 13.6216 79.8373 11.7758 79.8474 11.5405C79.8715 10.9881 79.8886 10.4734 79.8431 9.6394C79.7299 7.56563 79.5443 5.49497 79.337 3.4282C79.1985 2.04568 78.6247 1.20427 77.1683 0.985649C76.8952 0.944803 76.6206 0.893844 76.346 0.890343C74.6834 0.870115 73.0208 0.866614 71.3582 0.845997C71.0695 0.842496 70.9801 0.962308 70.9345 1.23383C70.749 2.3421 67.0002 23.5338 66.265 27.6934C66.1802 28.1719 66.2976 28.3353 66.7913 28.336C68.2812 28.338 70.7591 28.3501 71.1135 28.3501C71.4683 28.3501 71.6985 28.2127 71.7693 27.7984C72.3089 24.6452 72.834 21.4884 73.4347 18.3465C73.9657 15.5709 74.313 12.7779 74.4978 9.96072C74.5682 8.8898 74.6713 7.82082 74.7802 6.75339C74.7934 6.62463 74.9354 6.5091 75.0175 6.38734C75.1471 6.50054 75.2898 6.60246 75.4003 6.732C75.4466 6.78607 75.4236 6.89888 75.4318 6.98524C75.4859 7.57108 75.5407 8.1573 75.594 8.74353C75.82 11.2258 76.0429 13.7084 76.2724 16.1898C76.4016 17.586 76.5354 18.9813 76.6797 20.3759C76.7462 21.0185 76.9971 21.2535 77.6553 21.2912C78.1218 21.318 78.9422 21.3142 79.423 21.3142C80.1597 21.3142 80.5005 21.1772 80.8059 20.4591C81.4147 19.0268 86.8027 6.85648 86.8747 6.69154C87.007 6.38968 87.6107 6.48381 87.5135 6.83664C87.1595 8.11957 86.8222 9.40717 86.4787 10.6936C86.122 12.0302 85.6945 13.3532 85.4331 14.7085C84.8671 17.6459 84.3882 20.5999 83.8724 23.547C83.5954 25.1287 83.2052 27.318 83.1344 27.7378C83.0637 28.1575 83.2084 28.3322 83.5725 28.3322C83.9366 28.3322 86.5343 28.3271 88.1969 28.3442C88.5435 28.3477 88.5906 28.0844 88.6361 27.8233C89.1099 25.1151 92.9023 3.50911 93.3115 1.228C93.3606 0.95764 93.3267 0.843274 93.0291 0.847942ZM66.845 7.13773C66.4668 9.49275 64.7766 19.1661 64.3176 21.6483C64.1157 22.7399 63.7629 23.787 63.244 24.7763C62.1606 26.8419 60.4319 28.0486 58.1675 28.4111C56.7741 28.634 51.5723 28.6488 50.403 28.5372C49.7926 28.4788 49.1757 28.3038 48.6027 28.077C46.8899 27.3993 46.0955 26.0413 45.9364 24.2632C45.8147 22.9052 46.0127 21.569 46.2484 20.2378C46.6584 17.9228 48.1697 9.37722 48.5525 7.42676C48.845 5.93649 49.376 4.53102 50.326 3.32083C51.6011 1.69558 53.3485 0.89151 55.3449 0.723461C57.1172 0.574084 61.1605 0.652662 62.8511 0.84055C64.6883 1.04478 66.2548 2.15771 66.7321 4.04321C66.9897 5.06279 67.0103 6.10648 66.845 7.13773ZM61.0204 6.8522C61.1348 5.78555 60.6026 5.21333 59.5255 5.16782C58.5405 5.12658 57.5505 5.12386 56.5663 5.17015C55.5962 5.21566 54.9053 5.71709 54.5824 6.65614C54.4758 6.9654 54.3938 7.28672 54.3362 7.6092C53.8235 10.4851 53.3182 13.3625 52.8125 16.2396C52.4682 18.1975 52.1231 20.1549 51.7843 22.1139C51.5727 23.3362 52.1582 24.0531 53.4041 24.0971C53.8363 24.1123 55.4643 24.1072 55.8451 24.1029C57.3222 24.0862 58.1099 23.4618 58.3814 22.0241C58.7241 20.2067 59.0283 18.3819 59.3508 16.5605C59.7192 14.4844 60.0938 12.4091 60.4568 10.3318C60.6594 9.17416 60.8952 8.01882 61.0204 6.8522ZM45.491 4.04282C45.7489 5.0624 45.7696 6.10609 45.6042 7.13734C45.2265 9.49236 43.5359 19.1657 43.0769 21.6479C42.875 22.7395 42.5222 23.7867 42.0036 24.7759C40.9203 26.8415 39.1911 28.0482 36.9268 28.4107C35.5333 28.6336 30.3316 28.6484 29.1623 28.5368C28.5519 28.4784 27.935 28.3034 27.362 28.0766C25.6488 27.3989 24.8548 26.0409 24.6953 24.2628C24.574 22.9048 24.7716 21.5686 25.0073 20.2374C25.4173 17.9224 26.9282 9.37683 27.3114 7.42637C27.6039 5.9361 28.1349 4.53063 29.0848 3.32044C30.3604 1.69519 32.1074 0.891121 34.1038 0.723072C35.8761 0.573695 39.9194 0.652273 41.61 0.840162C43.4472 1.04439 45.0141 2.15733 45.491 4.04282ZM39.7801 6.8522C39.8948 5.78555 39.3623 5.21333 38.2851 5.16782C37.3002 5.12658 36.3106 5.12386 35.326 5.17015C34.3558 5.21566 33.6654 5.71709 33.3421 6.65614C33.2355 6.9654 33.1534 7.28672 33.0959 7.6092C32.5835 10.4851 32.0782 13.3625 31.5721 16.2396C31.2279 18.1975 30.8828 20.1549 30.544 22.1139C30.3324 23.3362 30.9178 24.0531 32.1638 24.0971C32.5964 24.1123 34.224 24.1072 34.6052 24.1029C36.0822 24.0862 36.87 23.4618 37.1415 22.0241C37.4842 20.2067 37.7884 18.3819 38.1113 16.5605C38.4793 14.4844 38.8543 12.4091 39.2172 10.3318C39.4191 9.17416 39.6548 8.01882 39.7801 6.8522ZM147.403 2.03284C147.591 4.43182 148.555 17.1413 149.386 27.8747C149.414 28.2404 149.333 28.3512 148.957 28.345C147.641 28.3236 146.324 28.345 145.008 28.3341C143.861 28.3248 143.429 27.8832 143.376 26.724C143.319 25.478 143.255 24.2328 143.191 22.9873C143.163 22.4349 143.106 22.3726 142.532 22.3703C140.817 22.3637 139.102 22.3754 137.387 22.3633C136.945 22.3602 136.689 22.5298 136.527 22.9487C136.008 24.2869 135.456 25.6123 134.926 26.9454C134.545 27.8992 133.828 28.3345 132.826 28.3357C130.054 28.3384 127.282 28.3376 124.51 28.3337C124.304 28.3333 124.097 28.2987 123.89 28.2847C122.873 28.2162 122.402 27.6343 122.156 26.6688C121.899 25.6562 121.548 24.4705 121.371 23.684C121.221 23.0133 121.24 22.7869 121.767 22.3271C122.295 21.8673 125.069 19.5022 125.448 19.1793C125.826 18.8568 126.19 19.0229 126.357 19.6204C126.688 20.812 127.253 22.8398 127.672 24.3009C127.986 25.396 128.3 26.4906 128.614 27.5853C128.657 27.5833 128.699 27.581 128.742 27.579C129.117 26.7085 129.494 25.839 129.866 24.9677C133.093 17.4128 139.516 2.42224 139.789 1.78544C140.061 1.14864 140.646 0.806318 141.379 0.807096C142.955 0.809041 144.532 0.796982 146.109 0.811375C146.968 0.819544 147.335 1.17159 147.403 2.03284ZM142.765 9.95916C142.792 8.88591 142.952 6.98329 142.959 6.76662C142.965 6.55033 142.6 6.48343 142.555 6.70321C142.51 6.92261 141.31 10.568 140.654 12.4064C140.068 14.0507 139.408 15.6682 138.781 17.2981C138.555 17.8847 138.606 17.9637 139.21 17.9648C140.215 17.9668 141.219 17.9664 142.224 17.9648C142.939 17.9637 142.979 17.9143 142.951 17.1767C142.888 15.4807 142.83 13.7846 142.762 11.889C142.762 11.3786 142.748 10.6687 142.765 9.95916ZM174.5 0.84483C172.848 0.84483 171.225 0.840939 170.131 0.840939C169.568 0.840939 169.343 1.11908 169.248 1.66952C168.807 4.22565 168.388 6.51649 167.946 9.07302C167.62 10.9643 167.217 12.8475 166.994 14.7513C166.711 17.174 166.578 19.6924 166.451 22.1295C166.433 22.4664 165.937 22.5018 165.905 22.1077C165.197 13.5388 164.797 8.36114 164.344 2.7844C164.231 1.39138 163.601 0.840939 162.489 0.840939C160.974 0.840939 157.269 0.867781 156.369 0.841718C155.993 0.830825 155.869 0.959196 155.815 1.32525C155.662 2.36855 155.466 3.40602 155.283 4.44505C154.752 7.45904 151.581 25.6017 151.21 27.749C151.109 28.3345 151.12 28.3372 151.695 28.3372C152.994 28.3376 154.294 28.3372 155.592 28.3372C156.726 28.3372 156.711 28.3349 156.899 27.2204C157.253 25.1229 158.783 16.8896 159.045 14.8513C159.312 12.7759 159.411 10.6788 159.581 8.59143C159.63 7.98731 159.656 7.38124 159.72 6.77907C159.753 6.46514 160.3 6.50288 160.319 6.80474C160.411 8.27362 160.56 10.03 160.664 11.4977C160.866 14.3296 161.534 23.8971 161.694 25.8468C161.816 27.3355 162.536 28.054 164.021 28.2248C164.553 28.2859 165.09 28.3263 165.625 28.3325C166.941 28.3477 168.258 28.3376 169.574 28.3372C170.17 28.3372 170.177 28.338 170.282 27.7393C170.574 26.0526 174.274 4.82511 174.904 1.31902C174.976 0.919518 174.861 0.84483 174.5 0.84483ZM108.091 12.1271C107.741 12.1271 103.067 12.1282 100.556 12.1259C100.054 12.1255 100.042 12.1177 100.126 11.6358C100.457 9.74482 100.812 7.85816 101.121 5.96411C101.195 5.51286 101.39 5.42767 101.802 5.43078C103.814 5.44557 106.351 5.43701 107.839 5.43701C109.327 5.43701 107.98 0.850276 107.364 0.850276C106.748 0.850276 100.093 0.850276 96.8787 0.850276C96.1979 0.850276 96.2042 0.851832 96.0859 1.54698C95.8015 3.21814 93.1692 18.2259 92.8128 20.3055C92.5526 21.8241 92.2671 23.3397 92.6444 24.8871C92.9276 26.0479 93.5535 26.9255 94.6135 27.4896C95.8595 28.1524 97.2265 28.2987 98.5926 28.3185C101.623 28.3625 104.655 28.3287 107.687 28.345C108.049 28.3469 108.122 28.2085 108.122 27.893C108.122 27.0963 108.142 26.2996 108.162 25.5029C108.198 24.0434 107.924 23.7509 106.478 23.7474C104.521 23.7427 102.563 23.7501 100.606 23.7423C100.226 23.7408 99.8425 23.7166 99.4671 23.6614C98.7545 23.5568 98.3686 23.1121 98.3546 22.3882C98.348 22.0607 98.3604 21.7277 98.4137 21.4052C98.6584 19.9207 98.94 18.4418 99.1653 16.9546C99.2322 16.5115 99.4022 16.3944 99.8328 16.3987C101.877 16.4193 103.921 16.4139 105.965 16.4022C106.87 16.3972 107.389 16.0272 107.682 15.1749C107.965 14.351 108.417 12.9724 108.507 12.6339C108.597 12.2955 108.441 12.1271 108.091 12.1271ZM118.578 7.07588C117.428 6.79113 115.957 6.57484 114.912 6.46786C114.336 6.40874 114.071 6.56006 113.998 7.00702C113.584 9.51064 112.699 14.7435 112.257 17.3755C112.123 18.178 112.689 18.0469 113.03 17.7062C115.193 15.5445 117.772 12.9455 118.175 12.4079C118.579 11.8703 118.704 11.6124 118.843 10.9647C118.982 10.317 119.141 9.04462 119.275 8.25806C119.409 7.4711 119.183 7.22564 118.578 7.07588Z" fill="white"/>
<path d="M133.436 7.66691C128.836 13.6066 119.467 22.158 112.621 27.9915C112.17 28.3755 111.355 28.2374 110.949 27.4893C110.272 26.2422 110.08 24.6228 111.794 22.712C116.852 17.0711 121.504 11.4379 124.223 8.06914C125.101 6.9811 125.057 6.50068 123.619 6.21982C120.127 5.5379 115.118 4.77546 111.913 4.3071C110.855 4.15266 110.304 3.24745 110.142 2.40993C109.957 1.45182 110.232 0.95078 110.911 0.910713C116.273 0.594843 124.323 0.389838 131.05 1.01108C135.283 1.40163 135.874 4.51832 133.436 7.66691Z" fill="url(#paint0_linear_275_1244)"/>
</g>
<g clip-path="url(#clip1_275_1244)">
<path d="M7.51913 38.0549H5.75085L5.26055 38.9243H3.7334L6.74752 34.0203H8.31486L8.99806 38.9159H7.63166L7.52717 38.0465L7.51913 38.0549ZM7.39053 36.9661L7.2137 35.4806L6.37779 36.9661H7.39857H7.39053Z" fill="#FF0069"/>
<path d="M14.7846 34.3748C15.09 34.6112 15.2508 34.9572 15.2508 35.413C15.2508 36.063 15.0579 36.561 14.6721 36.907C14.2863 37.2531 13.7397 37.4219 13.0404 37.4219H11.9071L11.5535 38.9159H10.2031L11.3686 34.0203H13.4423C14.029 34.0203 14.4792 34.1385 14.7846 34.3748ZM13.6754 36.0967C13.796 35.987 13.8603 35.8097 13.8603 35.5565C13.8603 35.3033 13.6915 35.1682 13.3619 35.1682H12.4456L12.1804 36.2655H13.1288C13.378 36.2655 13.5629 36.2064 13.6834 36.0967H13.6754Z" fill="#FF0069"/>
<path d="M18.4192 34.0208L17.7682 36.764C17.7441 36.8653 17.728 36.975 17.728 37.0932C17.728 37.3126 17.7923 37.4983 17.9289 37.6418C18.0575 37.7853 18.2746 37.8528 18.5719 37.8528C18.9336 37.8528 19.2069 37.7515 19.3998 37.5489C19.5927 37.3464 19.7213 37.1185 19.7776 36.8568L20.4447 34.0208H21.795L21.0797 37.0425C20.927 37.6924 20.6135 38.182 20.1473 38.5196C19.6811 38.8572 19.1105 39.0261 18.4273 39.0261C18.0415 39.0261 17.6878 38.9585 17.3824 38.8319C17.0689 38.7053 16.8278 38.5027 16.6429 38.2411C16.4661 37.9794 16.3696 37.6502 16.3696 37.262C16.3696 37.051 16.4018 36.8231 16.458 36.5783L17.0689 34.0123H18.4192V34.0208Z" fill="#FF0069"/>
<path d="M24.5337 35.1767L24.365 35.8519H26.8325L26.5512 37.0336H24.0836L23.9148 37.768H26.6075L26.3261 38.9243H22.2832L23.4567 34.0203H27.4836L27.2103 35.1682H24.5337V35.1767Z" fill="#FF0069"/>
<path d="M31.4236 35.2024C31.1664 35.1349 30.9092 35.1011 30.652 35.1011C30.435 35.1011 30.2501 35.1265 30.1135 35.1771C29.9768 35.2277 29.9045 35.3122 29.9045 35.4219C29.9045 35.5316 29.9688 35.616 30.1055 35.6751C30.2341 35.7342 30.4591 35.7933 30.7806 35.8692C31.078 35.9368 31.3432 36.0212 31.5603 36.114C31.7853 36.2069 31.9702 36.3504 32.1229 36.5445C32.2756 36.7386 32.356 36.9834 32.356 37.2957C32.356 37.6249 32.2595 37.9287 32.0747 38.1904C31.8898 38.4521 31.6246 38.6631 31.2789 38.8066C30.9333 38.9585 30.5314 39.026 30.0733 39.026C29.6473 39.026 29.2535 38.9585 28.8918 38.8319C28.5301 38.7053 28.2086 38.528 27.9272 38.3086L28.5542 37.321C28.7632 37.4645 29.0204 37.5911 29.3097 37.6924C29.5991 37.7937 29.8884 37.8443 30.1778 37.8443C30.3627 37.8443 30.5234 37.819 30.652 37.7768C30.7806 37.7346 30.8449 37.6586 30.8449 37.5489C30.8449 37.4561 30.7967 37.3885 30.6922 37.3379C30.5877 37.2873 30.4189 37.2366 30.1778 37.1775L30.0411 37.1438C29.7116 37.0594 29.4303 36.9581 29.2052 36.8399C28.9721 36.7302 28.7873 36.5698 28.6506 36.3841C28.506 36.19 28.4417 35.9452 28.4417 35.6498C28.4417 35.3375 28.522 35.0505 28.6908 34.7804C28.8596 34.5187 29.1088 34.3077 29.4544 34.1473C29.792 33.987 30.2099 33.911 30.7002 33.911C31.0941 33.911 31.4477 33.9617 31.7612 34.0629C32.0747 34.1642 32.3801 34.3077 32.6695 34.485L32.1792 35.4978C31.938 35.3712 31.6889 35.27 31.4317 35.2024H31.4236Z" fill="#FF0069"/>
<path d="M38.2962 35.1767H36.7529L35.8608 38.9159H34.5104L35.4026 35.1767H33.8594L34.1327 34.0203H38.5614L38.2881 35.1767H38.2962Z" fill="#FF0069"/>
<path d="M42.0731 38.0549H40.3048L39.8145 38.9243H38.2793L41.3015 34.0203H42.8688L43.552 38.9159H42.1856L42.0811 38.0465L42.0731 38.0549ZM41.9445 36.9661L41.7676 35.4806L40.9317 36.9661H41.9525H41.9445Z" fill="#FF0069"/>
<path d="M48.3509 35.2024C48.0937 35.1349 47.8365 35.1011 47.5793 35.1011C47.3622 35.1011 47.1774 35.1265 47.0407 35.1771C46.9041 35.2277 46.8318 35.3122 46.8318 35.4219C46.8318 35.5316 46.8961 35.616 47.0327 35.6751C47.1613 35.7342 47.3864 35.7933 47.7079 35.8692C48.0053 35.9368 48.2705 36.0212 48.4875 36.114C48.7126 36.2069 48.8974 36.3504 49.0501 36.5445C49.2029 36.7386 49.2832 36.9834 49.2832 37.2957C49.2832 37.6249 49.1868 37.9287 49.0019 38.1904C48.8171 38.4521 48.5518 38.6631 48.2062 38.8066C47.8606 38.9585 47.4587 39.026 47.0005 39.026C46.5746 39.026 46.1807 38.9585 45.819 38.8319C45.4573 38.7053 45.1358 38.528 44.8545 38.3086L45.4814 37.321C45.6904 37.4645 45.9476 37.5911 46.237 37.6924C46.5263 37.7937 46.8157 37.8443 47.105 37.8443C47.2899 37.8443 47.4507 37.819 47.5793 37.7768C47.7079 37.7346 47.7722 37.6586 47.7722 37.5489C47.7722 37.4561 47.7239 37.3885 47.6194 37.3379C47.515 37.2873 47.3462 37.2366 47.105 37.1775L46.9684 37.1438C46.6389 37.0594 46.3575 36.9581 46.1325 36.8399C45.8994 36.7302 45.7145 36.5698 45.5779 36.3841C45.4332 36.19 45.3689 35.9452 45.3689 35.6498C45.3689 35.3375 45.4493 35.0505 45.6181 34.7804C45.7869 34.5187 46.036 34.3077 46.3816 34.1473C46.7192 33.987 47.1372 33.911 47.6275 33.911C48.0213 33.911 48.375 33.9617 48.6885 34.0629C49.0019 34.1642 49.3074 34.3077 49.5967 34.485L49.1064 35.4978C48.8653 35.3712 48.6161 35.27 48.3589 35.2024H48.3509Z" fill="#FF0069"/>
<path d="M56.7986 34.2992C57.1121 34.4849 57.3371 34.7297 57.4898 35.042C57.6426 35.3543 57.7149 35.7088 57.7149 36.1055C57.7149 36.5782 57.6104 37.0255 57.3934 37.4644C57.1764 37.8949 56.8629 38.2494 56.4289 38.5195C56.0029 38.7896 55.4804 38.9247 54.8776 38.9247H52.4663L53.6318 34.0291H55.6331C56.0993 34.0291 56.4851 34.122 56.7906 34.2992H56.7986ZM55.6894 37.532C55.9064 37.3716 56.0672 37.1775 56.1797 36.9242C56.2922 36.6795 56.3485 36.4263 56.3485 36.173C56.3485 35.8861 56.2681 35.6413 56.1074 35.4556C55.9466 35.2699 55.7135 35.177 55.4081 35.177H54.7088L54.098 37.7683H54.9339C55.2232 37.7683 55.4724 37.6923 55.6814 37.532H55.6894Z" fill="#FF0069"/>
<path d="M60.8082 35.177L60.6394 35.8523H63.1069L62.8256 37.034H60.358L60.1893 37.7683H62.8819L62.6006 38.9247H58.5576L59.7231 34.0291H63.7499L63.4767 35.177H60.8001H60.8082Z" fill="#FF0069"/>
<path d="M68.6928 34.3748C68.9982 34.6112 69.159 34.9572 69.159 35.413C69.159 36.063 68.9661 36.561 68.5803 36.907C68.1945 37.2531 67.6479 37.4219 66.9486 37.4219H65.8153L65.4617 38.9159H64.1113L65.2768 34.0203H67.3505C67.9372 34.0203 68.3874 34.1385 68.6928 34.3748ZM67.5836 36.0967C67.7042 35.987 67.7685 35.8097 67.7685 35.5565C67.7685 35.3033 67.5997 35.1682 67.2701 35.1682H66.3538L66.0886 36.2655H67.037C67.2862 36.2655 67.4711 36.2064 67.5916 36.0967H67.5836Z" fill="#FF0069"/>
<path d="M70.7513 38.4779C70.3736 38.1065 70.1807 37.6085 70.1807 36.9586C70.1807 36.3762 70.3012 35.8529 70.5504 35.3886C70.7915 34.9244 71.1371 34.5614 71.5792 34.2998C72.0213 34.0381 72.5277 33.9031 73.1064 33.9031C73.5806 33.9031 73.9744 33.9875 74.304 34.1563C74.6335 34.3251 74.8827 34.5699 75.0515 34.8822C75.2203 35.1945 75.3087 35.5574 75.3087 35.9795C75.3087 36.5619 75.1881 37.0852 74.947 37.541C74.7059 38.0052 74.3602 38.3597 73.9182 38.6298C73.4761 38.8915 72.9617 39.0265 72.383 39.0265C71.6757 39.0265 71.1371 38.8408 70.7513 38.4779ZM73.2912 37.6001C73.5083 37.4397 73.669 37.2202 73.7735 36.9417C73.878 36.6716 73.9342 36.3677 73.9342 36.047C73.9342 35.7263 73.8539 35.4899 73.6931 35.3295C73.5324 35.1692 73.2993 35.0848 72.9858 35.0848C72.6723 35.0848 72.4151 35.1692 72.1981 35.338C71.9811 35.5068 71.8203 35.7263 71.7078 35.9964C71.5953 36.2665 71.539 36.5619 71.539 36.8826C71.539 37.2034 71.6194 37.4397 71.7802 37.6001C71.9409 37.7604 72.182 37.8448 72.4955 37.8448C72.809 37.8448 73.0662 37.7604 73.2832 37.6001H73.2912Z" fill="#FF0069"/>
<path d="M80.9903 36.5191C80.8054 36.8398 80.5161 37.0593 80.1383 37.1943L80.6447 38.9247H79.1899L78.796 37.3378H77.8878L77.51 38.9247H76.1597L77.3251 34.0291H79.4712C80.0499 34.0291 80.5 34.1473 80.8054 34.3921C81.1189 34.6368 81.2716 34.9745 81.2716 35.4303C81.2716 35.8438 81.1752 36.2152 80.9903 36.5275V36.5191ZM78.161 36.173H79.1577C79.3988 36.173 79.5837 36.1224 79.7043 36.0295C79.8248 35.9283 79.8891 35.7763 79.8891 35.5737C79.8891 35.4303 79.8489 35.329 79.7686 35.2699C79.6882 35.2108 79.5596 35.177 79.3828 35.177H78.4022L78.161 36.173Z" fill="#FF0069"/>
<path d="M87.0296 35.1767H85.4863L84.5941 38.9159H83.2438L84.136 35.1767H82.5928L82.8661 34.0203H87.2948L87.0215 35.1767H87.0296Z" fill="#FF0069"/>
<path d="M88.6186 34.0203H89.9689L88.8034 38.9159H87.4531L88.6186 34.0203Z" fill="#FF0069"/>
<path d="M96.4229 34.0203L93.5374 38.9159H91.8576L91.2949 34.0203H92.7578L93.023 37.4135L94.9119 34.0203H96.4229Z" fill="#FF0069"/>
<path d="M99.9676 38.0553H98.1993L97.709 38.9247H96.1738L99.1879 34.0291H100.755L101.438 38.9247H100.072L99.9676 38.0553ZM99.839 36.9665L99.6622 35.4809L98.8262 36.9665H99.847H99.839Z" fill="#FF0069"/>
<path d="M106.247 35.2024C105.99 35.1349 105.733 35.1011 105.476 35.1011C105.259 35.1011 105.074 35.1265 104.937 35.1771C104.801 35.2277 104.728 35.3122 104.728 35.4219C104.728 35.5316 104.793 35.616 104.929 35.6751C105.058 35.7342 105.283 35.7933 105.604 35.8692C105.902 35.9368 106.167 36.0212 106.384 36.114C106.609 36.2069 106.794 36.3504 106.947 36.5445C107.099 36.7386 107.18 36.9834 107.18 37.2957C107.18 37.6249 107.083 37.9287 106.898 38.1904C106.714 38.4521 106.448 38.6631 106.103 38.8066C105.757 38.9585 105.355 39.026 104.897 39.026C104.471 39.026 104.077 38.9585 103.715 38.8319C103.354 38.7053 103.032 38.528 102.751 38.3086L103.378 37.321C103.587 37.4645 103.844 37.5911 104.133 37.6924C104.423 37.7937 104.712 37.8443 105.002 37.8443C105.186 37.8443 105.347 37.819 105.476 37.7768C105.604 37.7346 105.669 37.6586 105.669 37.5489C105.669 37.4561 105.62 37.3885 105.516 37.3379C105.411 37.2873 105.243 37.2366 105.002 37.1775L104.865 37.1438C104.535 37.0594 104.254 36.9581 104.029 36.8399C103.796 36.7302 103.611 36.5698 103.474 36.3841C103.33 36.19 103.265 35.9452 103.265 35.6498C103.265 35.3375 103.346 35.0505 103.515 34.7804C103.683 34.5187 103.933 34.3077 104.278 34.1473C104.616 33.987 105.034 33.911 105.516 33.911C105.91 33.911 106.263 33.9617 106.577 34.0629C106.89 34.1642 107.196 34.3077 107.485 34.485L106.995 35.4978C106.754 35.3712 106.505 35.27 106.247 35.2024Z" fill="#FF0069"/>
</g>
<defs>
<linearGradient id="paint0_linear_275_1244" x1="110.086" y1="14.4038" x2="134.87" y2="14.4038" gradientUnits="userSpaceOnUse">
<stop stop-color="#0098FF"/>
<stop offset="0.6974" stop-color="#FF0069"/>
</linearGradient>
<clipPath id="clip0_275_1244">
<rect width="194.501" height="40.9877" fill="white" transform="translate(0.621094 0.608398)"/>
</clipPath>
<clipPath id="clip1_275_1244">
<rect width="103.75" height="5.12346" fill="white" transform="translate(3.73291 33.9108)"/>
</clipPath>
</defs>
</svg>
