<svg width="56" height="56" viewBox="0 0 56 56" fill="none" xmlns="http://www.w3.org/2000/svg">
<circle cx="28" cy="28" r="28" fill="#F1F1F1"/>
<path d="M17 27.5C16.7239 27.5 16.5 27.7239 16.5 28C16.5 28.2761 16.7239 28.5 17 28.5L17 27.5ZM39.3536 28.3536C39.5488 28.1583 39.5488 27.8417 39.3536 27.6464L36.1716 24.4645C35.9763 24.2692 35.6597 24.2692 35.4645 24.4645C35.2692 24.6597 35.2692 24.9763 35.4645 25.1716L38.2929 28L35.4645 30.8284C35.2692 31.0237 35.2692 31.3403 35.4645 31.5355C35.6597 31.7308 35.9763 31.7308 36.1716 31.5355L39.3536 28.3536ZM17 28.5L39 28.5L39 27.5L17 27.5L17 28.5Z" fill="black"/>
</svg>
