<svg width="24" height="24" viewBox="0 0 24 24" fill="none" xmlns="http://www.w3.org/2000/svg">
<path d="M16.5 10.125H14.25C14.1506 10.125 14.0552 10.0855 13.9848 10.0152C13.9145 9.94484 13.875 9.84946 13.875 9.75C13.875 9.65054 13.9145 9.55516 13.9848 9.48483C14.0552 9.41451 14.1506 9.375 14.25 9.375H16.5C16.5995 9.375 16.6948 9.41451 16.7652 9.48483C16.8355 9.55516 16.875 9.65054 16.875 9.75C16.875 9.84946 16.8355 9.94484 16.7652 10.0152C16.6948 10.0855 16.5995 10.125 16.5 10.125ZM9.75001 9.375H8.62501V8.25C8.62501 8.15054 8.5855 8.05516 8.51517 7.98483C8.44485 7.91451 8.34946 7.875 8.25001 7.875C8.15055 7.875 8.05517 7.91451 7.98484 7.98483C7.91452 8.05516 7.87501 8.15054 7.87501 8.25V9.375H6.75001C6.65055 9.375 6.55517 9.41451 6.48484 9.48483C6.41452 9.55516 6.37501 9.65054 6.37501 9.75C6.37501 9.84946 6.41452 9.94484 6.48484 10.0152C6.55517 10.0855 6.65055 10.125 6.75001 10.125H7.87501V11.25C7.87501 11.3495 7.91452 11.4448 7.98484 11.5152C8.05517 11.5855 8.15055 11.625 8.25001 11.625C8.34946 11.625 8.44485 11.5855 8.51517 11.5152C8.5855 11.4448 8.62501 11.3495 8.62501 11.25V10.125H9.75001C9.84946 10.125 9.94485 10.0855 10.0152 10.0152C10.0855 9.94484 10.125 9.84946 10.125 9.75C10.125 9.65054 10.0855 9.55516 10.0152 9.48483C9.94485 9.41451 9.84946 9.375 9.75001 9.375ZM22.3322 18.5963C22.0809 18.9551 21.7541 19.2545 21.3747 19.4735C20.9953 19.6925 20.5726 19.8258 20.1362 19.8639C19.6998 19.9021 19.2603 19.8442 18.8487 19.6944C18.437 19.5445 18.0632 19.3063 17.7534 18.9966L17.7375 18.9797L13.9022 14.625H10.0988L6.26344 18.9788L6.24657 18.9966C5.6834 19.5584 4.92054 19.8743 4.12501 19.875C3.68701 19.8748 3.25437 19.7787 2.85748 19.5935C2.46059 19.4083 2.10907 19.1384 1.82762 18.8028C1.54617 18.4672 1.34162 18.074 1.22833 17.6509C1.11505 17.2278 1.09578 16.7851 1.17188 16.3538L2.70657 8.45719C2.91958 7.24377 3.55349 6.14427 4.49687 5.35195C5.44025 4.55963 6.63273 4.12519 7.86469 4.125H16.125C17.3558 4.12668 18.547 4.56018 19.4909 5.34996C20.4349 6.13974 21.0718 7.23571 21.2906 8.44687C21.2912 8.44998 21.2912 8.45315 21.2906 8.45625L22.8253 16.3463C22.8961 16.7353 22.889 17.1345 22.8044 17.5207C22.7197 17.9069 22.5592 18.2725 22.3322 18.5963ZM16.125 13.875C16.716 13.875 17.3011 13.7586 17.8471 13.5325C18.393 13.3063 18.8891 12.9748 19.307 12.557C19.7249 12.1391 20.0563 11.643 20.2825 11.0971C20.5086 10.5511 20.625 9.96595 20.625 9.375C20.625 8.78405 20.5086 8.19889 20.2825 7.65292C20.0563 7.10696 19.7249 6.61088 19.307 6.19302C18.8891 5.77516 18.393 5.44369 17.8471 5.21754C17.3011 4.9914 16.716 4.875 16.125 4.875H7.86563C6.80888 4.87561 5.7862 5.24888 4.97752 5.92913C4.16883 6.60938 3.62595 7.55303 3.44438 8.59406L1.90876 16.4906C1.80715 17.0774 1.94233 17.6806 2.28465 18.1679C2.62698 18.6552 3.14853 18.9869 3.73501 19.0903C4.08858 19.152 4.45177 19.1281 4.79425 19.0208C5.13674 18.9135 5.44859 18.7258 5.70376 18.4734L9.64126 14.0025C9.6764 13.9625 9.71965 13.9304 9.76815 13.9085C9.81664 13.8865 9.86926 13.8751 9.92251 13.875H16.125ZM22.0903 16.4841L21.0591 11.1722C20.6892 12.1837 20.0177 13.0573 19.1353 13.6749C18.2528 14.2924 17.2021 14.624 16.125 14.625H14.9063L18.2963 18.4744C18.6357 18.8104 19.0732 19.0297 19.5455 19.1006C20.0178 19.1715 20.5005 19.0902 20.9235 18.8685C21.3466 18.6468 21.6882 18.2963 21.8988 17.8676C22.1094 17.439 22.1781 16.9544 22.095 16.4841H22.0903Z" fill="#0B2850"/>
</svg>
