<svg width="31" height="31" viewBox="0 0 31 31" fill="none" xmlns="http://www.w3.org/2000/svg">
<g clip-path="url(#clip0_2_834)">
<path d="M15.5 0C24.0606 0 31 6.93935 31 15.5C31 24.0606 24.0606 31 15.5 31C6.93935 31 0 24.0606 0 15.5C0 6.93935 6.93935 0 15.5 0ZM22.3851 9.3C21.7945 9.31085 20.8878 9.62085 16.5276 11.4111C13.4672 12.6888 10.4151 13.9867 7.3718 15.3047C6.6278 15.5976 6.2403 15.8828 6.20465 16.1618C6.13645 16.6981 6.91765 16.864 7.90035 17.1802C8.7017 17.4375 9.7805 17.7382 10.3416 17.7506C10.85 17.7614 11.4173 17.5537 12.0435 17.1306C16.3215 14.2786 18.5271 12.8386 18.6666 12.8076C18.7643 12.7859 18.8991 12.758 18.9921 12.8386C19.0836 12.9192 19.0743 13.0711 19.0634 13.113C18.9859 13.44 14.9699 17.0469 14.7389 17.284L14.6273 17.3956C13.7748 18.2373 12.9146 18.7875 14.3995 19.7532C15.7418 20.6259 16.523 21.1823 17.9025 22.0782C18.786 22.6486 19.4788 23.326 20.3902 23.2438C20.8103 23.205 21.2427 22.816 21.4644 21.6535C21.9836 18.91 23.0066 12.9611 23.2422 10.509C23.2565 10.3056 23.2477 10.1013 23.2159 9.89985C23.1968 9.73725 23.1171 9.58782 22.9927 9.48135C22.8051 9.32945 22.5138 9.29845 22.3851 9.3Z" fill="#545454"/>
</g>
<defs>
<clipPath id="clip0_2_834">
<rect width="31" height="31" fill="white"/>
</clipPath>
</defs>
</svg>
