<svg width="13" height="13" viewBox="0 0 13 13" fill="none" xmlns="http://www.w3.org/2000/svg">
<g clip-path="url(#clip0_201_56)">
<g opacity="0.2">
<path fill-rule="evenodd" clip-rule="evenodd" d="M3.97994 7.02326C3.62731 7.55222 3.43914 8.17373 3.43914 8.80946V9.26251C3.43914 9.4349 3.37066 9.60023 3.24876 9.72213C3.12687 9.84403 2.96154 9.91251 2.78914 9.91251C2.61675 9.91251 2.45142 9.84403 2.32953 9.72213C2.20763 9.60023 2.13914 9.4349 2.13914 9.26251V8.80946C2.13914 7.91701 2.40305 7.04471 2.89834 6.30176L3.97994 7.02326Z" fill="#1C8E49"/>
<path fill-rule="evenodd" clip-rule="evenodd" d="M5.26045 6.33748C4.74565 6.33748 4.2653 6.59488 3.97995 7.02323L2.89835 6.30173C3.15764 5.9129 3.50889 5.59408 3.92094 5.37354C4.33299 5.15301 4.79309 5.03757 5.26045 5.03748H5.38915C5.56154 5.03748 5.72687 5.10596 5.84877 5.22786C5.97066 5.34975 6.03915 5.51508 6.03915 5.68748C6.03915 5.85987 5.97066 6.0252 5.84877 6.14709C5.72687 6.26899 5.56154 6.33748 5.38915 6.33748H5.26045ZM6.69825 7.02323C7.05055 7.55168 7.23905 8.17373 7.23905 8.80943V9.26248C7.23905 9.43487 7.30753 9.6002 7.42943 9.72209C7.55133 9.84399 7.71666 9.91248 7.88905 9.91248C8.06144 9.91248 8.22677 9.84399 8.34867 9.72209C8.47056 9.6002 8.53905 9.43487 8.53905 9.26248V8.80943C8.53907 7.91691 8.27491 7.04436 7.77985 6.30173L6.69825 7.02323Z" fill="#1C8E49"/>
<path fill-rule="evenodd" clip-rule="evenodd" d="M5.4171 6.33748C5.9319 6.33748 6.41225 6.59488 6.6976 7.02323L7.77985 6.30173C7.52053 5.91277 7.16919 5.59386 6.75701 5.37331C6.34483 5.15277 5.88457 5.03741 5.4171 5.03748H5.28905C5.11666 5.03748 4.95133 5.10596 4.82943 5.22786C4.70753 5.34975 4.63905 5.51508 4.63905 5.68748C4.63905 5.85987 4.70753 6.0252 4.82943 6.14709C4.95133 6.26899 5.11666 6.33748 5.28905 6.33748H5.4171ZM2.52655 9.58748C2.52655 9.50128 2.56079 9.41861 2.62174 9.35767C2.68269 9.29672 2.76535 9.26248 2.85155 9.26248H7.40155C7.48775 9.26248 7.57041 9.29672 7.63136 9.35767C7.69231 9.41861 7.72655 9.50128 7.72655 9.58748C7.72655 9.67367 7.69231 9.75634 7.63136 9.81729C7.57041 9.87823 7.48775 9.91248 7.40155 9.91248H2.85155C2.76535 9.91248 2.68269 9.87823 2.62174 9.81729C2.56079 9.75634 2.52655 9.67367 2.52655 9.58748Z" fill="#1C8E49"/>
<path d="M7.40154 3.7375C7.40154 4.29777 7.17898 4.83509 6.78281 5.23126C6.38664 5.62743 5.84931 5.85 5.28904 5.85C4.72877 5.85 4.19145 5.62743 3.79528 5.23126C3.39911 4.83509 3.17654 4.29777 3.17654 3.7375C3.17654 3.17723 3.39911 2.63991 3.79528 2.24374C4.19145 1.84757 4.72877 1.625 5.28904 1.625C5.84931 1.625 6.38664 1.84757 6.78281 2.24374C7.17898 2.63991 7.40154 3.17723 7.40154 3.7375Z" fill="#1C8E49"/>
<path fill-rule="evenodd" clip-rule="evenodd" d="M5.28904 4.55C5.50453 4.55 5.71119 4.4644 5.86357 4.31202C6.01594 4.15965 6.10154 3.95299 6.10154 3.7375C6.10154 3.52201 6.01594 3.31535 5.86357 3.16298C5.71119 3.0106 5.50453 2.925 5.28904 2.925C5.07356 2.925 4.86689 3.0106 4.71452 3.16298C4.56215 3.31535 4.47654 3.52201 4.47654 3.7375C4.47654 3.95299 4.56215 4.15965 4.71452 4.31202C4.86689 4.4644 5.07356 4.55 5.28904 4.55ZM5.28904 5.85C5.84931 5.85 6.38664 5.62743 6.78281 5.23126C7.17898 4.83509 7.40154 4.29777 7.40154 3.7375C7.40154 3.17723 7.17898 2.63991 6.78281 2.24374C6.38664 1.84757 5.84931 1.625 5.28904 1.625C4.72877 1.625 4.19145 1.84757 3.79528 2.24374C3.39911 2.63991 3.17654 3.17723 3.17654 3.7375C3.17654 4.29777 3.39911 4.83509 3.79528 5.23126C4.19145 5.62743 4.72877 5.85 5.28904 5.85Z" fill="#1C8E49"/>
<path d="M3.17654 6.33752H7.40154V9.58752H3.17654V6.33752Z" fill="#1C8E49"/>
<path fill-rule="evenodd" clip-rule="evenodd" d="M8.69244 9.13577C8.3398 9.66474 8.15163 10.2862 8.15164 10.922V11.375C8.15164 11.5474 8.08316 11.7127 7.96126 11.8346C7.83936 11.9565 7.67403 12.025 7.50164 12.025C7.32925 12.025 7.16392 11.9565 7.04202 11.8346C6.92012 11.7127 6.85164 11.5474 6.85164 11.375V10.922C6.85164 10.0295 7.11554 9.15722 7.61084 8.41427L8.69244 9.13577ZM9.97294 8.45002C9.45879 8.45002 8.97779 8.70742 8.69244 9.13577L7.61084 8.41427C7.87013 8.02545 8.22138 7.70663 8.63343 7.48609C9.04548 7.26555 9.50559 7.15012 9.97294 7.15002H10.1016C10.274 7.15002 10.4394 7.21851 10.5613 7.34041C10.6832 7.4623 10.7516 7.62763 10.7516 7.80002C10.7516 7.97242 10.6832 8.13775 10.5613 8.25964C10.4394 8.38154 10.274 8.45002 10.1016 8.45002H9.97294ZM11.4107 9.13577C11.763 9.66422 11.9515 10.2863 11.9515 10.922V11.375C11.9515 11.5474 12.02 11.7127 12.1419 11.8346C12.2638 11.9565 12.4291 12.025 12.6015 12.025C12.7739 12.025 12.9393 11.9565 13.0612 11.8346C13.1831 11.7127 13.2515 11.5474 13.2515 11.375V10.922C13.2516 10.0295 12.9874 9.1569 12.4923 8.41427L11.4107 9.13577Z" fill="#1C8E49"/>
<path fill-rule="evenodd" clip-rule="evenodd" d="M10.1296 8.45002C10.6444 8.45002 11.1254 8.70742 11.4101 9.13577L12.4923 8.41427C12.233 8.02536 11.8816 7.70648 11.4695 7.48594C11.0573 7.2654 10.5971 7.15001 10.1296 7.15002H10.0015C9.82915 7.15002 9.66382 7.21851 9.54192 7.34041C9.42002 7.4623 9.35154 7.62763 9.35154 7.80002C9.35154 7.97242 9.42002 8.13775 9.54192 8.25964C9.66382 8.38154 9.82915 8.45002 10.0015 8.45002H10.1296ZM7.07654 11.7C7.07654 11.6138 7.11078 11.5312 7.17173 11.4702C7.23268 11.4093 7.31534 11.375 7.40154 11.375H12.6015C12.6877 11.375 12.7704 11.4093 12.8313 11.4702C12.8923 11.5312 12.9265 11.6138 12.9265 11.7C12.9265 11.7862 12.8923 11.8689 12.8313 11.9298C12.7704 11.9908 12.6877 12.025 12.6015 12.025H7.40154C7.31534 12.025 7.23268 11.9908 7.17173 11.9298C7.11078 11.8689 7.07654 11.7862 7.07654 11.7Z" fill="#1C8E49"/>
<path d="M12.114 5.84999C12.114 6.41026 11.8915 6.94758 11.4953 7.34375C11.0991 7.73992 10.5618 7.96249 10.0015 7.96249C9.44127 7.96249 8.90395 7.73992 8.50778 7.34375C8.1116 6.94758 7.88904 6.41026 7.88904 5.84999C7.88904 5.28972 8.1116 4.7524 8.50778 4.35622C8.90395 3.96005 9.44127 3.73749 10.0015 3.73749C10.5618 3.73749 11.0991 3.96005 11.4953 4.35622C11.8915 4.7524 12.114 5.28972 12.114 5.84999Z" fill="#1C8E49"/>
<path fill-rule="evenodd" clip-rule="evenodd" d="M10.0015 6.66249C10.217 6.66249 10.4237 6.57689 10.5761 6.42451C10.7284 6.27214 10.814 6.06548 10.814 5.84999C10.814 5.6345 10.7284 5.42784 10.5761 5.27546C10.4237 5.12309 10.217 5.03749 10.0015 5.03749C9.78605 5.03749 9.57939 5.12309 9.42701 5.27546C9.27464 5.42784 9.18904 5.6345 9.18904 5.84999C9.18904 6.06548 9.27464 6.27214 9.42701 6.42451C9.57939 6.57689 9.78605 6.66249 10.0015 6.66249ZM10.0015 7.96249C10.5618 7.96249 11.0991 7.73992 11.4953 7.34375C11.8915 6.94758 12.114 6.41026 12.114 5.84999C12.114 5.28972 11.8915 4.7524 11.4953 4.35622C11.0991 3.96005 10.5618 3.73749 10.0015 3.73749C9.44127 3.73749 8.90395 3.96005 8.50778 4.35622C8.1116 4.7524 7.88904 5.28972 7.88904 5.84999C7.88904 6.41026 8.1116 6.94758 8.50778 7.34375C8.90395 7.73992 9.44127 7.96249 10.0015 7.96249Z" fill="#1C8E49"/>
<path d="M7.72655 8.28748H11.9515V11.5375H7.72655V8.28748Z" fill="#1C8E49"/>
</g>
<path fill-rule="evenodd" clip-rule="evenodd" d="M2.184 6.48504C1.79277 7.0722 1.58402 7.76199 1.58405 8.46754V9.09999C1.58405 9.18619 1.54981 9.26885 1.48886 9.3298C1.42791 9.39075 1.34525 9.42499 1.25905 9.42499C1.17286 9.42499 1.09019 9.39075 1.02924 9.3298C0.968292 9.26885 0.934052 9.18619 0.934052 9.09999V8.46819C0.934249 7.63389 1.18145 6.81831 1.6445 6.12429L1.7147 6.01899C1.73839 5.98348 1.76884 5.95299 1.80431 5.92925C1.83978 5.90551 1.87959 5.88898 1.92144 5.88062C1.9633 5.87226 2.0064 5.87223 2.04827 5.88053C2.09014 5.88882 2.12997 5.90528 2.16548 5.92897C2.20099 5.95266 2.23148 5.98311 2.25522 6.01858C2.27897 6.05405 2.29549 6.09385 2.30385 6.13571C2.31221 6.17757 2.31224 6.22066 2.30395 6.26254C2.29565 6.30441 2.27919 6.34423 2.2555 6.37974L2.1853 6.48504H2.184Z" fill="#1C8E49"/>
<path fill-rule="evenodd" clip-rule="evenodd" d="M4.017 5.43723C3.3085 5.43723 2.64745 5.79083 2.25485 6.37973L1.71405 6.01963C1.96675 5.64061 2.30909 5.32981 2.71071 5.11483C3.11233 4.89985 3.56081 4.78732 4.01635 4.78723H4.15935C4.24555 4.78723 4.32821 4.82147 4.38916 4.88242C4.45011 4.94337 4.48435 5.02604 4.48435 5.11223C4.48435 5.19843 4.45011 5.28109 4.38916 5.34204C4.32821 5.40299 4.24555 5.43723 4.15935 5.43723H4.017ZM6.0177 6.47723C6.3232 6.93613 6.48635 7.47433 6.48635 8.02553H7.13635C7.13649 7.34628 6.93542 6.68221 6.5585 6.11713L6.4935 6.01963C6.47047 5.98275 6.44028 5.95086 6.4047 5.92586C6.36913 5.90085 6.3289 5.88324 6.2864 5.87407C6.2439 5.86489 6.19998 5.86434 6.15726 5.87244C6.11454 5.88054 6.07388 5.89713 6.03769 5.92123C6.0015 5.94533 5.97051 5.97645 5.94656 6.01274C5.92261 6.04903 5.90619 6.08976 5.89826 6.13251C5.89034 6.17527 5.89107 6.21918 5.90042 6.26164C5.90977 6.30411 5.92755 6.34426 5.9527 6.37973L6.0177 6.47723Z" fill="#1C8E49"/>
<path fill-rule="evenodd" clip-rule="evenodd" d="M4.19121 5.43723C4.89906 5.43723 5.56011 5.79083 5.95271 6.37973L6.49351 6.01963C6.24081 5.64061 5.89846 5.32981 5.49684 5.11483C5.09522 4.89985 4.64675 4.78732 4.19121 4.78723H4.04821C4.00553 4.78723 3.96326 4.79564 3.92383 4.81197C3.8844 4.8283 3.84857 4.85224 3.8184 4.88242C3.78822 4.9126 3.76428 4.94843 3.74794 4.98786C3.73161 5.02729 3.72321 5.06955 3.72321 5.11223C3.72321 5.15491 3.73161 5.19717 3.74794 5.2366C3.76428 5.27603 3.78822 5.31186 3.8184 5.34204C3.84857 5.37222 3.8844 5.39616 3.92383 5.41249C3.96326 5.42883 4.00553 5.43723 4.04821 5.43723H4.19121Z" fill="#1C8E49"/>
<path fill-rule="evenodd" clip-rule="evenodd" d="M4.0625 4.71251C4.25455 4.71251 4.44473 4.67468 4.62217 4.60119C4.79961 4.52769 4.96083 4.41996 5.09664 4.28416C5.23245 4.14835 5.34017 3.98713 5.41367 3.80969C5.48717 3.63225 5.525 3.44207 5.525 3.25001C5.525 3.05795 5.48717 2.86778 5.41367 2.69034C5.34017 2.5129 5.23245 2.35167 5.09664 2.21587C4.96083 2.08006 4.79961 1.97234 4.62217 1.89884C4.44473 1.82534 4.25455 1.78751 4.0625 1.78751C3.67462 1.78751 3.30263 1.9416 3.02835 2.21587C2.75408 2.49014 2.6 2.86213 2.6 3.25001C2.6 3.63789 2.75408 4.00988 3.02835 4.28416C3.30263 4.55843 3.67462 4.71251 4.0625 4.71251ZM4.0625 5.36251C4.62277 5.36251 5.16009 5.13995 5.55626 4.74378C5.95243 4.3476 6.175 3.81028 6.175 3.25001C6.175 2.68974 5.95243 2.15242 5.55626 1.75625C5.16009 1.36008 4.62277 1.13751 4.0625 1.13751C3.50223 1.13751 2.9649 1.36008 2.56873 1.75625C2.17256 2.15242 1.95 2.68974 1.95 3.25001C1.95 3.81028 2.17256 4.3476 2.56873 4.74378C2.9649 5.13995 3.50223 5.36251 4.0625 5.36251ZM6.8302 8.57091C6.43884 9.15825 6.23009 9.84828 6.23025 10.5541V11.2262C6.23025 11.3124 6.19601 11.395 6.13506 11.456C6.07411 11.5169 5.99144 11.5512 5.90525 11.5512C5.81905 11.5512 5.73639 11.5169 5.67544 11.456C5.61449 11.395 5.58025 11.3124 5.58025 11.2262V10.5541C5.58019 9.72011 5.82693 8.90479 6.2894 8.21081L6.37585 8.08081C6.42377 8.0091 6.49822 7.95936 6.58282 7.94254C6.66742 7.92571 6.75523 7.94319 6.82695 7.99111C6.89866 8.03904 6.9484 8.11349 6.96522 8.19808C6.98205 8.28268 6.96457 8.3705 6.91665 8.44221L6.8302 8.57091Z" fill="#1C8E49"/>
<path fill-rule="evenodd" clip-rule="evenodd" d="M8.723 7.47501C8.36545 7.47496 8.01342 7.56322 7.69818 7.73195C7.38295 7.90068 7.11426 8.14466 6.916 8.44221L6.37585 8.08146C6.63343 7.69501 6.98243 7.37812 7.39189 7.15894C7.80134 6.93975 8.25858 6.82505 8.723 6.82501H8.8686C8.9548 6.82501 9.03747 6.85925 9.09841 6.9202C9.15936 6.98115 9.1936 7.06382 9.1936 7.15001C9.1936 7.23621 9.15936 7.31887 9.09841 7.37982C9.03747 7.44077 8.9548 7.47501 8.8686 7.47501H8.723ZM10.7946 8.57091C11.1861 9.15818 11.3951 9.84822 11.3952 10.5541V11.2262C11.3952 11.3124 11.4294 11.395 11.4903 11.456C11.5513 11.5169 11.634 11.5512 11.7202 11.5512C11.8063 11.5512 11.889 11.5169 11.95 11.456C12.0109 11.395 12.0452 11.3124 12.0452 11.2262V10.5541C12.045 9.72004 11.798 8.90472 11.3354 8.21081L11.2489 8.08081C11.201 8.0091 11.1265 7.95936 11.0419 7.94254C10.9573 7.92571 10.8695 7.94319 10.7978 7.99111C10.7261 8.03904 10.6764 8.11349 10.6595 8.19808C10.6427 8.28268 10.6602 8.3705 10.7081 8.44221L10.7946 8.57091Z" fill="#1C8E49"/>
<path fill-rule="evenodd" clip-rule="evenodd" d="M8.90175 7.47501C9.2593 7.47496 9.61133 7.56322 9.92657 7.73195C10.2418 7.90068 10.5105 8.14466 10.7087 8.44221L11.2495 8.08146C10.9919 7.69491 10.6428 7.37797 10.2332 7.15878C9.82365 6.9396 9.36628 6.82494 8.90175 6.82501H8.7555C8.6693 6.82501 8.58664 6.85925 8.52569 6.9202C8.46474 6.98115 8.4305 7.06382 8.4305 7.15001C8.4305 7.23621 8.46474 7.31887 8.52569 7.37982C8.58664 7.44077 8.6693 7.47501 8.7555 7.47501H8.90175Z" fill="#1C8E49"/>
<path fill-rule="evenodd" clip-rule="evenodd" d="M8.77501 6.825C8.96706 6.825 9.15724 6.78717 9.33468 6.71367C9.51212 6.64018 9.67334 6.53245 9.80915 6.39664C9.94496 6.26084 10.0527 6.09961 10.1262 5.92217C10.1997 5.74474 10.2375 5.55456 10.2375 5.3625C10.2375 5.17044 10.1997 4.98026 10.1262 4.80283C10.0527 4.62539 9.94496 4.46416 9.80915 4.32836C9.67334 4.19255 9.51212 4.08482 9.33468 4.01133C9.15724 3.93783 8.96706 3.9 8.77501 3.9C8.38713 3.9 8.01513 4.05408 7.74086 4.32836C7.46659 4.60263 7.31251 4.97462 7.31251 5.3625C7.31251 5.75038 7.46659 6.12237 7.74086 6.39664C8.01513 6.67092 8.38713 6.825 8.77501 6.825ZM8.77501 7.475C9.33528 7.475 9.8726 7.25243 10.2688 6.85626C10.6649 6.46009 10.8875 5.92277 10.8875 5.3625C10.8875 4.80223 10.6649 4.26491 10.2688 3.86874C9.8726 3.47257 9.33528 3.25 8.77501 3.25C8.21474 3.25 7.67741 3.47257 7.28124 3.86874C6.88507 4.26491 6.66251 4.80223 6.66251 5.3625C6.66251 5.92277 6.88507 6.46009 7.28124 6.85626C7.67741 7.25243 8.21474 7.475 8.77501 7.475Z" fill="#1C8E49"/>
</g>
<defs>
<clipPath id="clip0_201_56">
<rect width="13" height="13" fill="white"/>
</clipPath>
</defs>
</svg>
