<svg xmlns="http://www.w3.org/2000/svg" viewBox="0 0 272.814 272.814"><path d="M260.7,106.606c0.545-2.581-0.289-5.372-2.423-7.222L148.876,4.545 c-6.992-6.061-17.945-6.061-24.938,0L14.537,99.384c-2.134,1.85-2.968,4.641-2.423,7.222c-0.098,0.757-0.164,1.543-0.164,2.386 v146.322c0,9.649,7.851,17.5,17.5,17.5h213.915c9.649,0,17.5-7.851,17.5-17.5V108.992 C260.865,108.149,260.798,107.363,260.7,106.606z M133.763,15.879c1.334-1.156,3.953-1.156,5.287,0l98.77,85.622l-29.943,23.072 V88.8c0-6.893-5.607-12.5-12.5-12.5H77.437c-6.893,0-12.5,5.607-12.5,12.5v35.773l-29.943-23.072L133.763,15.879z M192.878,136.132 L139.75,177.07c-0.779,0.6-2.029,0.958-3.343,0.958c-1.314,0-2.564-0.358-3.344-0.958l-53.126-40.938V91.3h112.941V136.132z M245.865,255.314c0,1.355-1.145,2.5-2.5,2.5H29.449c-1.355,0-2.5-1.145-2.5-2.5V114.239l96.958,74.712 c3.412,2.63,7.851,4.077,12.499,4.077c4.648,0,9.087-1.447,12.499-4.077l96.958-74.712V255.314z" fill="#ffffff"></path></svg>