<svg width="94" height="60" viewBox="0 0 94 60" fill="none" xmlns="http://www.w3.org/2000/svg">
<g filter="url(#filter0_d_95_414)">
<path d="M40.9752 22.71C44.1552 22.71 45.9252 21.21 47.5152 19.02C49.2852 21.42 51.0252 22.71 54.1152 22.71C57.8952 22.71 60.4152 19.83 60.4152 16.47C60.4152 12.69 57.5052 10.29 54.1152 10.29C50.8752 10.29 49.1052 11.85 47.5152 13.98C45.8052 11.58 44.0352 10.29 40.9752 10.29C37.1352 10.29 34.5852 13.17 34.5852 16.5C34.5852 20.31 37.6152 22.71 40.9752 22.71ZM41.2452 19.77C39.3852 19.77 38.0352 18.27 38.0352 16.5C38.0352 14.58 39.4752 13.23 41.2452 13.23C43.4652 13.23 44.5452 14.58 45.7752 16.5C44.4252 18.63 43.2852 19.77 41.2452 19.77ZM53.7552 19.77C51.5952 19.77 50.4552 18.39 49.2552 16.5C50.6052 14.37 51.7452 13.23 53.7552 13.23C55.6752 13.23 56.9652 14.67 56.9652 16.47C56.9652 18.42 55.5552 19.77 53.7552 19.77Z" fill="white"/>
</g>
<g filter="url(#filter1_d_95_414)">
<path d="M14.7308 42.256C15.9628 41.888 16.6988 40.88 16.6988 39.616C16.6988 37.872 15.3068 36.8 13.0508 36.8H7.78675V48H13.2588C15.7068 48 17.2268 46.864 17.2268 45.056C17.2268 43.632 16.2668 42.56 14.7308 42.256ZM12.7788 37.92C14.5388 37.92 15.4828 38.576 15.4828 39.84C15.4828 41.056 14.6028 41.776 12.9068 41.776H9.01875V37.92H12.7788ZM9.01875 46.88V42.896H13.0668C14.9388 42.896 15.9948 43.584 15.9948 44.896C15.9948 46.16 15.0028 46.88 13.0508 46.88H9.01875ZM25.0199 48.16C28.3959 48.16 30.8439 45.744 30.8439 42.4C30.8439 39.056 28.3959 36.64 25.0359 36.64C21.6759 36.64 19.2279 39.056 19.2279 42.4C19.2279 45.744 21.6759 48.16 25.0199 48.16ZM25.0359 47.008C22.4119 47.008 20.5399 45.136 20.5399 42.4C20.5399 39.664 22.4119 37.776 25.0359 37.776C27.6599 37.776 29.5319 39.664 29.5319 42.4C29.5319 45.136 27.6599 47.008 25.0359 47.008ZM34.7063 48V38.912L42.0023 48H43.0423V36.8H41.7943V45.84L34.5463 36.8H33.4743V48H34.7063ZM50.5138 48.144C53.4097 48.144 55.2178 46.352 55.2178 43.392V36.8H53.9858V43.168C53.9858 45.504 52.6578 46.848 50.5138 46.848C48.3858 46.848 47.0578 45.504 47.0578 43.168V36.8H45.8098V43.392C45.8098 46.352 47.6338 48.144 50.5138 48.144ZM61.6375 48.16C64.0695 48.16 65.7815 46.944 65.7815 45.024C65.7815 43.136 64.4855 42.448 61.8295 41.872C59.7335 41.392 58.8375 40.896 58.8375 39.728C58.8375 38.528 59.8615 37.776 61.4935 37.776C62.6775 37.776 63.8455 38.208 64.7095 38.816L65.3815 37.904C64.2935 37.104 63.0135 36.64 61.5735 36.64C59.3015 36.64 57.5415 37.76 57.5415 39.712C57.5415 41.584 58.9335 42.416 61.4775 42.976C63.5255 43.408 64.4855 43.84 64.4855 45.088C64.4855 46.176 63.5095 47.008 61.7175 47.008C60.2615 47.008 58.8855 46.464 57.7975 45.552L57.2055 46.496C58.2935 47.488 59.8935 48.16 61.6375 48.16ZM69.3778 42.816H75.7778V41.712H69.3778V37.904H76.6258V36.8H68.1618V48H76.7858V46.896H69.3778V42.816ZM82.825 48.16C85.257 48.16 86.969 46.944 86.969 45.024C86.969 43.136 85.673 42.448 83.017 41.872C80.921 41.392 80.025 40.896 80.025 39.728C80.025 38.528 81.049 37.776 82.681 37.776C83.865 37.776 85.033 38.208 85.897 38.816L86.569 37.904C85.481 37.104 84.201 36.64 82.761 36.64C80.489 36.64 78.729 37.76 78.729 39.712C78.729 41.584 80.121 42.416 82.665 42.976C84.713 43.408 85.673 43.84 85.673 45.088C85.673 46.176 84.697 47.008 82.905 47.008C81.449 47.008 80.073 46.464 78.985 45.552L78.393 46.496C79.481 47.488 81.081 48.16 82.825 48.16Z" fill="white"/>
</g>
<defs>
<filter id="filter0_d_95_414" x="27.5854" y="7.29004" width="39.8296" height="26.4199" filterUnits="userSpaceOnUse" color-interpolation-filters="sRGB">
<feFlood flood-opacity="0" result="BackgroundImageFix"/>
<feColorMatrix in="SourceAlpha" type="matrix" values="0 0 0 0 0 0 0 0 0 0 0 0 0 0 0 0 0 0 127 0" result="hardAlpha"/>
<feOffset dy="4"/>
<feGaussianBlur stdDeviation="3.5"/>
<feComposite in2="hardAlpha" operator="out"/>
<feColorMatrix type="matrix" values="0 0 0 0 0 0 0 0 0 0 0 0 0 0 0 0 0 0 0.76 0"/>
<feBlend mode="normal" in2="BackgroundImageFix" result="effect1_dropShadow_95_414"/>
<feBlend mode="normal" in="SourceGraphic" in2="effect1_dropShadow_95_414" result="shape"/>
</filter>
<filter id="filter1_d_95_414" x="0.786621" y="33.64" width="93.1826" height="25.52" filterUnits="userSpaceOnUse" color-interpolation-filters="sRGB">
<feFlood flood-opacity="0" result="BackgroundImageFix"/>
<feColorMatrix in="SourceAlpha" type="matrix" values="0 0 0 0 0 0 0 0 0 0 0 0 0 0 0 0 0 0 127 0" result="hardAlpha"/>
<feOffset dy="4"/>
<feGaussianBlur stdDeviation="3.5"/>
<feComposite in2="hardAlpha" operator="out"/>
<feColorMatrix type="matrix" values="0 0 0 0 0 0 0 0 0 0 0 0 0 0 0 0 0 0 0.76 0"/>
<feBlend mode="normal" in2="BackgroundImageFix" result="effect1_dropShadow_95_414"/>
<feBlend mode="normal" in="SourceGraphic" in2="effect1_dropShadow_95_414" result="shape"/>
</filter>
</defs>
</svg>
