<svg width="94" height="57" viewBox="0 0 94 57" fill="none" xmlns="http://www.w3.org/2000/svg">
<g filter="url(#filter0_d_95_408)">
<path d="M19.8709 7.792L19.6549 5.2H8.39888V8.44H14.7589L10.8949 12.352L10.9189 14.416C11.7589 14.344 13.5589 14.32 14.2549 14.416C15.7189 14.488 16.5589 15.472 16.5589 16.672C16.5589 18.064 15.3589 19.096 13.6069 19.096C12.2389 19.096 9.91088 18.232 8.75888 17.224L7.00688 19.72C8.56688 21.28 10.8949 22.288 13.8949 22.288C17.5909 22.288 20.6389 20.152 20.6389 16.672C20.6389 13.768 18.5989 11.872 15.5029 11.632L19.8709 7.792ZM30.5106 22.288C35.2866 22.288 38.1666 18.688 38.1666 13.6C38.1666 8.44 35.2626 4.912 30.5586 4.912C25.7826 4.912 22.9026 8.536 22.9026 13.576C22.9026 18.736 25.8066 22.288 30.5106 22.288ZM30.5586 19.072C28.3026 19.072 26.8866 16.792 26.8866 13.576C26.8866 10.504 28.2066 8.152 30.5346 8.152C32.7666 8.152 34.1826 10.408 34.1826 13.624C34.1826 16.696 32.8866 19.072 30.5586 19.072ZM48.1356 22.288C52.9116 22.288 55.7916 18.688 55.7916 13.6C55.7916 8.44 52.8876 4.912 48.1836 4.912C43.4076 4.912 40.5276 8.536 40.5276 13.576C40.5276 18.736 43.4316 22.288 48.1356 22.288ZM48.1836 19.072C45.9276 19.072 44.5116 16.792 44.5116 13.576C44.5116 10.504 45.8316 8.152 48.1596 8.152C50.3916 8.152 51.8076 10.408 51.8076 13.624C51.8076 16.696 50.5116 19.072 48.1836 19.072ZM65.7606 22.288C70.5366 22.288 73.4166 18.688 73.4166 13.6C73.4166 8.44 70.5126 4.912 65.8086 4.912C61.0326 4.912 58.1526 8.536 58.1526 13.576C58.1526 18.736 61.0566 22.288 65.7606 22.288ZM65.8086 19.072C63.5526 19.072 62.1366 16.792 62.1366 13.576C62.1366 10.504 63.4566 8.152 65.7846 8.152C68.0166 8.152 69.4326 10.408 69.4326 13.624C69.4326 16.696 68.1366 19.072 65.8086 19.072ZM82.3056 12.712V9.136H79.2336V12.712H75.2016V15.784H79.2336V19.432H82.3056V15.784H86.3616V12.712H82.3056Z" fill="white"/>
</g>
<g filter="url(#filter1_d_95_408)">
<path d="M23.2941 45.16C24.9741 45.16 26.5101 44.536 27.6141 43.448V39.336H26.4781V42.904C25.7101 43.576 24.6701 44.024 23.3581 44.024C20.6381 44.024 18.7661 42.152 18.7661 39.416C18.7661 36.648 20.6701 34.776 23.2941 34.776C24.6381 34.776 25.7261 35.24 26.6221 36.088L27.4221 35.304C26.3181 34.216 24.8941 33.64 23.2621 33.64C19.9021 33.64 17.4701 36.072 17.4701 39.416C17.4701 42.744 19.9181 45.16 23.2941 45.16ZM40.5989 45L35.4469 33.8H34.1989L29.0629 45H30.3589L31.5269 42.424H38.1029L39.2709 45H40.5989ZM34.8229 35.208L37.5909 41.304H32.0389L34.8229 35.208ZM48.1773 41.256L43.6493 33.8H42.5133V45H43.7453V36.072L47.9533 42.84H48.4013L52.5933 36.072V45H53.8253V33.8H52.6893L48.1773 41.256ZM58.1824 39.816H64.5824V38.712H58.1824V34.904H65.4304V33.8H56.9664V45H65.5904V43.896H58.1824V39.816ZM71.6297 45.16C74.0617 45.16 75.7737 43.944 75.7737 42.024C75.7737 40.136 74.4777 39.448 71.8217 38.872C69.7257 38.392 68.8297 37.896 68.8297 36.728C68.8297 35.528 69.8537 34.776 71.4857 34.776C72.6697 34.776 73.8377 35.208 74.7017 35.816L75.3737 34.904C74.2857 34.104 73.0057 33.64 71.5657 33.64C69.2937 33.64 67.5337 34.76 67.5337 36.712C67.5337 38.584 68.9257 39.416 71.4697 39.976C73.5177 40.408 74.4777 40.84 74.4777 42.088C74.4777 43.176 73.5017 44.008 71.7097 44.008C70.2537 44.008 68.8777 43.464 67.7897 42.552L67.1977 43.496C68.2857 44.488 69.8857 45.16 71.6297 45.16Z" fill="white"/>
</g>
<defs>
<filter id="filter0_d_95_408" x="0.00683594" y="1.91199" width="93.3545" height="31.376" filterUnits="userSpaceOnUse" color-interpolation-filters="sRGB">
<feFlood flood-opacity="0" result="BackgroundImageFix"/>
<feColorMatrix in="SourceAlpha" type="matrix" values="0 0 0 0 0 0 0 0 0 0 0 0 0 0 0 0 0 0 127 0" result="hardAlpha"/>
<feOffset dy="4"/>
<feGaussianBlur stdDeviation="3.5"/>
<feComposite in2="hardAlpha" operator="out"/>
<feColorMatrix type="matrix" values="0 0 0 0 0 0 0 0 0 0 0 0 0 0 0 0 0 0 0.76 0"/>
<feBlend mode="normal" in2="BackgroundImageFix" result="effect1_dropShadow_95_408"/>
<feBlend mode="normal" in="SourceGraphic" in2="effect1_dropShadow_95_408" result="shape"/>
</filter>
<filter id="filter1_d_95_408" x="10.4702" y="30.64" width="72.3037" height="25.52" filterUnits="userSpaceOnUse" color-interpolation-filters="sRGB">
<feFlood flood-opacity="0" result="BackgroundImageFix"/>
<feColorMatrix in="SourceAlpha" type="matrix" values="0 0 0 0 0 0 0 0 0 0 0 0 0 0 0 0 0 0 127 0" result="hardAlpha"/>
<feOffset dy="4"/>
<feGaussianBlur stdDeviation="3.5"/>
<feComposite in2="hardAlpha" operator="out"/>
<feColorMatrix type="matrix" values="0 0 0 0 0 0 0 0 0 0 0 0 0 0 0 0 0 0 0.76 0"/>
<feBlend mode="normal" in2="BackgroundImageFix" result="effect1_dropShadow_95_408"/>
<feBlend mode="normal" in="SourceGraphic" in2="effect1_dropShadow_95_408" result="shape"/>
</filter>
</defs>
</svg>
