<svg width="107" height="57" viewBox="0 0 107 57" fill="none" xmlns="http://www.w3.org/2000/svg">
<g filter="url(#filter0_d_95_411)">
<path d="M28.8238 18.76C30.3358 17.848 31.8238 16.84 33.0238 15.856C35.2078 13.96 36.2638 12.376 36.2638 10.336C36.2638 6.88 33.3118 4.912 29.8078 4.912C27.4558 4.912 24.9598 5.848 23.3038 7.504L25.4158 9.976C26.5198 8.824 27.9598 8.056 29.3997 8.056C31.0558 8.056 32.2798 8.992 32.2798 10.648C32.2798 11.752 31.4158 12.88 29.6158 14.56C27.9358 16.072 25.4878 17.92 23.6158 19.264V22H36.4557V18.76H28.8238ZM51.1074 15.712V5.2H46.1874L38.3154 16.408L39.0354 18.544H47.4114V22H51.1074V18.544H53.3874V15.712H51.1074ZM47.4114 8.296V15.712H42.6114L47.4114 8.296ZM59.4423 24.568L68.1303 5.2H64.4343L55.7463 24.568H59.4423ZM69.8405 5.2V8.44H78.5765L71.3525 22H75.7685L83.2085 7.672L82.4885 5.2H69.8405Z" fill="white"/>
</g>
<g filter="url(#filter1_d_95_411)">
<path d="M19.5244 45V43.896H12.9484V33.8H11.7164V45H19.5244ZM22.7141 45V33.8H21.4821V45H22.7141ZM30.8651 45L35.8731 33.8H34.5611L30.2731 43.512H30.2411L25.9531 33.8H24.6411L29.6491 45H30.8651ZM39.0106 39.816H45.4106V38.712H39.0106V34.904H46.2586V33.8H37.7946V45H46.4186V43.896H39.0106V39.816ZM58.8558 45.16C60.5998 45.16 62.0718 44.488 63.0958 43.384L62.2958 42.6C61.4318 43.48 60.2798 44.024 58.8558 44.024C56.3278 44.024 54.3598 42.088 54.3598 39.384C54.3598 36.776 56.2798 34.776 58.8558 34.776C60.3758 34.776 61.4158 35.304 62.2638 36.152L63.0638 35.352C61.9918 34.264 60.6318 33.64 58.8238 33.64C55.5278 33.64 53.0638 36.136 53.0638 39.4C53.0638 42.664 55.5598 45.16 58.8558 45.16ZM73.2819 38.824H66.4019V33.8H65.1539V45H66.4019V39.944H73.2819V45H74.5299V33.8H73.2819V38.824ZM87.9896 45L82.8376 33.8H81.5896L76.4536 45H77.7496L78.9176 42.424H85.4936L86.6616 45H87.9896ZM82.2136 35.208L84.9816 41.304H79.4296L82.2136 35.208ZM87.3624 33.8V34.904H91.2344V45H92.4824V34.904H96.3704V33.8H87.3624Z" fill="white"/>
</g>
<defs>
<filter id="filter0_d_95_411" x="16.3037" y="1.91199" width="73.9048" height="33.656" filterUnits="userSpaceOnUse" color-interpolation-filters="sRGB">
<feFlood flood-opacity="0" result="BackgroundImageFix"/>
<feColorMatrix in="SourceAlpha" type="matrix" values="0 0 0 0 0 0 0 0 0 0 0 0 0 0 0 0 0 0 127 0" result="hardAlpha"/>
<feOffset dy="4"/>
<feGaussianBlur stdDeviation="3.5"/>
<feComposite in2="hardAlpha" operator="out"/>
<feColorMatrix type="matrix" values="0 0 0 0 0 0 0 0 0 0 0 0 0 0 0 0 0 0 0.76 0"/>
<feBlend mode="normal" in2="BackgroundImageFix" result="effect1_dropShadow_95_411"/>
<feBlend mode="normal" in="SourceGraphic" in2="effect1_dropShadow_95_411" result="shape"/>
</filter>
<filter id="filter1_d_95_411" x="4.71631" y="30.64" width="98.6543" height="25.52" filterUnits="userSpaceOnUse" color-interpolation-filters="sRGB">
<feFlood flood-opacity="0" result="BackgroundImageFix"/>
<feColorMatrix in="SourceAlpha" type="matrix" values="0 0 0 0 0 0 0 0 0 0 0 0 0 0 0 0 0 0 127 0" result="hardAlpha"/>
<feOffset dy="4"/>
<feGaussianBlur stdDeviation="3.5"/>
<feComposite in2="hardAlpha" operator="out"/>
<feColorMatrix type="matrix" values="0 0 0 0 0 0 0 0 0 0 0 0 0 0 0 0 0 0 0.76 0"/>
<feBlend mode="normal" in2="BackgroundImageFix" result="effect1_dropShadow_95_411"/>
<feBlend mode="normal" in="SourceGraphic" in2="effect1_dropShadow_95_411" result="shape"/>
</filter>
</defs>
</svg>
